<?xml version="1.0" encoding="utf-8"?><!DOCTYPE svg PUBLIC "-//W3C//DTD SVG 1.1//EN" "http://www.w3.org/Graphics/SVG/1.1/DTD/svg11.dtd">
<svg xmlns="http://www.w3.org/2000/svg" xmlns:xlink="http://www.w3.org/1999/xlink" version="1.1" viewBox="0 0 800 400" style="max-width:800;max-height:400">
<text x="0" y="20" style="font-weight:bold;color:black">Intención de voto en Elecciones Autonómicas en Cataluña</text>
<text x="0" y="35" style="color:black">Promedio de encuestas y estimación de error</text>

<text class="horizontal axis" x="36" y="333.3333">0%</text>
<line class="horizontal axis" x1="40" y1="333.3333" x2="622.2222" y2="333.3333"></line>
<text class="horizontal axis" x="36" y="257.1429">10%</text>
<line class="horizontal axis" x1="40" y1="257.1429" x2="622.2222" y2="257.1429"></line>
<text class="horizontal axis" x="36" y="180.9524">20%</text>
<line class="horizontal axis" x1="40" y1="180.9524" x2="622.2222" y2="180.9524"></line>
<text class="horizontal axis" x="36" y="104.7619">30%</text>
<line class="horizontal axis" x1="40" y1="104.7619" x2="622.2222" y2="104.7619"></line>
<line class="vertical axis" x1="40" y1="336.6667" x2="40" y2="66.6667"></line>
<text class="vertical axis" x="40" y="343.3333">Aug-2017</text>
<line class="vertical axis" x1="262.8258" y1="336.6667" x2="262.8258" y2="66.6667"></line>
<text class="vertical axis" x="262.8258" y="343.3333">Sep-2017</text>
<line class="vertical axis" x1="478.4636" y1="336.6667" x2="478.4636" y2="66.6667"></line>
<text class="vertical axis" x="478.4636" y="343.3333">Oct-2017</text>
<circle class="encuesta cup" cx="622.2222" cy="290.6667" r="3.1623"></circle>
<circle class="encuesta erc" cx="622.2222" cy="145.9048" r="3.1623"></circle>
<circle class="encuesta pdecat" cx="622.2222" cy="241.1429" r="3.1623"></circle>
<circle class="encuesta cec" cx="622.2222" cy="246.4762" r="3.1623"></circle>
<circle class="encuesta psc" cx="622.2222" cy="233.5238" r="3.1623"></circle>
<circle class="encuesta cs" cx="622.2222" cy="187.0476" r="3.1623"></circle>
<circle class="encuesta pp" cx="622.2222" cy="253.3333" r="3.1623"></circle>
<circle class="encuesta otros" cx="622.2222" cy="306.6667" r="3.1623"></circle>
<circle class="encuesta cup" cx="607.8464" cy="273.9048" r="2.8284"></circle>
<circle class="encuesta erc" cx="607.8464" cy="119.2381" r="2.8284"></circle>
<circle class="encuesta pdecat" cx="607.8464" cy="241.9048" r="2.8284"></circle>
<circle class="encuesta cec" cx="607.8464" cy="264.7619" r="2.8284"></circle>
<circle class="encuesta psc" cx="607.8464" cy="222.8571" r="2.8284"></circle>
<circle class="encuesta cs" cx="607.8464" cy="205.3333" r="2.8284"></circle>
<circle class="encuesta pp" cx="607.8464" cy="276.1905" r="2.8284"></circle>
<circle class="encuesta otros" cx="607.8464" cy="300.5714" r="2.8284"></circle>
<circle class="encuesta cup" cx="535.9671" cy="285.3333" r="2.8284"></circle>
<circle class="encuesta erc" cx="535.9671" cy="91.0476" r="2.8284"></circle>
<circle class="encuesta pdecat" cx="535.9671" cy="271.619" r="2.8284"></circle>
<circle class="encuesta cec" cx="535.9671" cy="241.9048" r="2.8284"></circle>
<circle class="encuesta psc" cx="535.9671" cy="260.9524" r="2.8284"></circle>
<circle class="encuesta cs" cx="535.9671" cy="193.9048" r="2.8284"></circle>
<circle class="encuesta pp" cx="535.9671" cy="256.381" r="2.8284"></circle>
<circle class="encuesta otros" cx="535.9671" cy="303.619" r="2.8284"></circle>
<circle class="encuesta cup" cx="413.7723" cy="290.6667" r="3.5426"></circle>
<circle class="encuesta erc" cx="413.7723" cy="142.0952" r="3.5426"></circle>
<circle class="encuesta pdecat" cx="413.7723" cy="236.5714" r="3.5426"></circle>
<circle class="encuesta cec" cx="413.7723" cy="244.9524" r="3.5426"></circle>
<circle class="encuesta psc" cx="413.7723" cy="228.9524" r="3.5426"></circle>
<circle class="encuesta cs" cx="413.7723" cy="202.2857" r="3.5426"></circle>
<circle class="encuesta pp" cx="413.7723" cy="251.0476" r="3.5426"></circle>
<circle class="encuesta otros" cx="413.7723" cy="308.1905" r="3.5426"></circle>
<circle class="encuesta cup" cx="363.4568" cy="288.381" r="2.8284"></circle>
<circle class="encuesta erc" cx="363.4568" cy="145.1429" r="2.8284"></circle>
<circle class="encuesta pdecat" cx="363.4568" cy="229.7143" r="2.8284"></circle>
<circle class="encuesta cec" cx="363.4568" cy="240.381" r="2.8284"></circle>
<circle class="encuesta psc" cx="363.4568" cy="220.5714" r="2.8284"></circle>
<circle class="encuesta cs" cx="363.4568" cy="200.7619" r="2.8284"></circle>
<circle class="encuesta pp" cx="363.4568" cy="261.7143" r="2.8284"></circle>
<circle class="encuesta otros" cx="363.4568" cy="318.0952" r="2.8284"></circle>
<circle class="encuesta cup" cx="262.8258" cy="281.5238" r="2.6458"></circle>
<circle class="encuesta erc" cx="262.8258" cy="120" r="2.6458"></circle>
<circle class="encuesta pdecat" cx="262.8258" cy="236.5714" r="2.6458"></circle>
<circle class="encuesta cec" cx="262.8258" cy="254.0952" r="2.6458"></circle>
<circle class="encuesta psc" cx="262.8258" cy="256.381" r="2.6458"></circle>
<circle class="encuesta cs" cx="262.8258" cy="198.4762" r="2.6458"></circle>
<circle class="encuesta pp" cx="262.8258" cy="253.3333" r="2.6458"></circle>
<circle class="encuesta otros" cx="262.8258" cy="304.381" r="2.6458"></circle>
<circle class="encuesta cup" cx="111.8793" cy="283.8095" r="3.5426"></circle>
<circle class="encuesta erc" cx="111.8793" cy="151.2381" r="3.5426"></circle>
<circle class="encuesta pdecat" cx="111.8793" cy="227.4286" r="3.5426"></circle>
<circle class="encuesta cec" cx="111.8793" cy="241.1429" r="3.5426"></circle>
<circle class="encuesta psc" cx="111.8793" cy="227.4286" r="3.5426"></circle>
<circle class="encuesta cs" cx="111.8793" cy="200" r="3.5426"></circle>
<circle class="encuesta pp" cx="111.8793" cy="260.9524" r="3.5426"></circle>
<circle class="encuesta otros" cx="111.8793" cy="312.7619" r="3.5426"></circle>
<polyline class="cup" points=" 40,284.392 47.1879,284.3722 54.3759,284.3517 61.5638,284.3303 68.7517,284.3083 75.9396,284.2865 83.1276,284.2662 90.3155,284.2492 97.5034,284.238 104.6914,284.2361 111.8793,284.2496 119.0672,284.292 126.2551,284.3331 133.4431,284.3726 140.631,284.41 147.8189,284.4449 155.0069,284.4771 162.1948,284.5061 169.3827,284.5316 176.5706,284.5533 183.7586,284.5709 190.9465,284.584 198.1344,284.5923 205.3224,284.5955 212.5103,284.5931 219.6982,284.5848 226.8861,284.57 234.0741,284.5483 241.262,284.5219 248.4499,284.5016 255.6379,284.5099 262.8258,284.5875 270.0137,284.8141 277.2016,285.0366 284.3896,285.255 291.5775,285.4689 298.7654,285.6782 305.9534,285.8828 313.1413,286.0825 320.3292,286.2774 327.5171,286.4674 334.7051,286.6524 341.893,286.8325 349.0809,287.0046 356.2689,287.1601 363.4568,287.2853 370.6447,287.3595 377.8326,287.455 385.0206,287.5706 392.2085,287.7005 399.3964,287.8268 406.5844,287.9158 413.7723,287.9106 420.9602,287.6889 428.1481,287.4753 435.3361,287.2693 442.524,287.0705 449.7119,286.879 456.8999,286.6945 464.0878,286.5171 471.2757,286.3468 478.4636,286.1836 485.6516,286.0278 492.8395,285.8794 500.0274,285.7386 507.2154,285.6056 514.4033,285.4808 521.5912,285.3637 528.7791,285.2518 535.9671,285.1392 543.155,285.0132 550.3429,284.878 557.5309,284.7342 564.7188,284.5823 571.9067,284.4227 579.0947,284.2555 586.2826,284.0808 593.4705,283.9137 600.6584,283.8097 607.8464,283.8866 615.0343,284.3968 622.2222,284.7234"></polyline>
<polyline class="cup error" points=" 40,262.4983 47.1879,263.1688 54.3759,263.8489 61.5638,264.5393 68.7517,265.2361 75.9396,265.9249 83.1276,266.5788 90.3155,267.1601 97.5034,267.6192 104.6914,267.8877 111.8793,267.8562 119.0672,267.3049 126.2551,266.8278 133.4431,266.4229 140.631,266.0881 147.8189,265.8211 155.0069,265.6194 162.1948,265.4804 169.3827,265.4016 176.5706,265.3803 183.7586,265.4138 190.9465,265.4993 198.1344,265.6342 205.3224,265.8159 212.5103,266.0419 219.6982,266.3098 226.8861,266.6173 234.0741,266.9623 241.262,267.3366 248.4499,267.7162 255.6379,268.0562 262.8258,268.2865 270.0137,268.2935 277.2016,268.3734 284.3896,268.5223 291.5775,268.7364 298.7654,269.0125 305.9534,269.3474 313.1413,269.7381 320.3292,270.182 327.5171,270.6766 334.7051,271.2197 341.893,271.8093 349.0809,272.4242 356.2689,272.9942 363.4568,273.3872 370.6447,273.3686 377.8326,273.4778 385.0206,273.7098 392.2085,274.0432 399.3964,274.4116 406.5844,274.6879 413.7723,274.6556 420.9602,273.8761 428.1481,273.1761 435.3361,272.5531 442.524,272.0054 449.7119,271.5313 456.8999,271.1299 464.0878,270.8001 471.2757,270.5408 478.4636,270.3512 485.6516,270.2302 492.8395,270.1767 500.0274,270.1897 507.2154,270.2641 514.4033,270.3829 521.5912,270.5124 528.7791,270.5977 535.9671,270.554 543.155,270.2404 550.3429,269.9952 557.5309,269.8186 564.7188,269.7109 571.9067,269.672 579.0947,269.7013 586.2826,269.798 593.4705,269.9579 600.6584,270.1697 607.8464,270.418 615.0343,270.707 622.2222,270.6764 622.2222,298.7705 615.0343,298.0866 607.8464,297.3552 600.6584,297.4498 593.4705,297.8695 586.2826,298.3637 579.0947,298.8097 571.9067,299.1733 564.7188,299.4537 557.5309,299.6498 550.3429,299.7609 543.155,299.7861 535.9671,299.7243 528.7791,299.9059 521.5912,300.215 514.4033,300.5788 507.2154,300.9471 500.0274,301.2874 492.8395,301.582 485.6516,301.8254 478.4636,302.0161 471.2757,302.1528 464.0878,302.2341 456.8999,302.2591 449.7119,302.2266 442.524,302.1357 435.3361,301.9854 428.1481,301.7745 420.9602,301.5017 413.7723,301.1655 406.5844,301.1437 399.3964,301.242 392.2085,301.3579 385.0206,301.4314 377.8326,301.4321 370.6447,301.3504 363.4568,301.1834 356.2689,301.3261 349.0809,301.585 341.893,301.8556 334.7051,302.0852 327.5171,302.2582 320.3292,302.3728 313.1413,302.4269 305.9534,302.4181 298.7654,302.3438 291.5775,302.2013 284.3896,301.9876 277.2016,301.6998 270.0137,301.3346 262.8258,300.8886 255.6379,300.9636 248.4499,301.287 241.262,301.7073 234.0741,302.1343 226.8861,302.5228 219.6982,302.8598 212.5103,303.1443 205.3224,303.375 198.1344,303.5504 190.9465,303.6687 183.7586,303.728 176.5706,303.7263 169.3827,303.6615 162.1948,303.5317 155.0069,303.3348 147.8189,303.0688 140.631,302.7319 133.4431,302.3223 126.2551,301.8385 119.0672,301.2792 111.8793,300.643 104.6914,300.5845 97.5034,300.8568 90.3155,301.3382 83.1276,301.9535 75.9396,302.6482 68.7517,303.3805 61.5638,304.1213 54.3759,304.8544 47.1879,305.5756 40,306.2857"></polyline>
<text class = "party cup" x="631.1111" y="295"><tspan class="party_name">CUP</tspan> (6.4±1.8%)</text>
<polyline class="erc" points=" 40,142.6077 47.1879,142.852 54.3759,143.1084 61.5638,143.3775 68.7517,143.6567 75.9396,143.9347 83.1276,144.1911 90.3155,144.3962 97.5034,144.5101 104.6914,144.4747 111.8793,144.1876 119.0672,143.4215 126.2551,142.6519 133.4431,141.883 140.631,141.1186 147.8189,140.3622 155.0069,139.6166 162.1948,138.8844 169.3827,138.1675 176.5706,137.4676 183.7586,136.7858 190.9465,136.1228 198.1344,135.4788 205.3224,134.8537 212.5103,134.247 219.6982,133.6578 226.8861,133.0847 234.0741,132.5261 241.262,131.9917 248.4499,131.5218 255.6379,131.1964 262.8258,131.1519 270.0137,131.6476 277.2016,132.1164 284.3896,132.5627 291.5775,132.991 298.7654,133.4051 305.9534,133.8091 313.1413,134.2065 320.3292,134.6008 327.5171,134.9954 334.7051,135.3936 341.893,135.7985 349.0809,136.1945 356.2689,136.5183 363.4568,136.6429 370.6447,136.3206 377.8326,136.0727 385.0206,135.9006 392.2085,135.7962 399.3964,135.7216 406.5844,135.5942 413.7723,135.2578 420.9602,134.3613 428.1481,133.4377 435.3361,132.4888 442.524,131.5161 449.7119,130.5213 456.8999,129.5064 464.0878,128.473 471.2757,127.4228 478.4636,126.3573 485.6516,125.278 492.8395,124.1859 500.0274,123.0815 507.2154,121.9801 514.4033,120.938 521.5912,120.0653 528.7791,119.538 535.9671,119.6321 543.155,120.8397 550.3429,121.973 557.5309,123.0352 564.7188,124.0284 571.9067,124.9535 579.0947,125.8106 586.2826,126.5991 593.4705,127.3223 600.6584,128.0085 607.8464,128.7452 615.0343,129.7624 622.2222,130.3687"></polyline>
<polyline class="erc error" points=" 40,104.9189 47.1879,106.2747 54.3759,107.6631 61.5638,109.0864 68.7517,110.5354 75.9396,111.9742 83.1276,113.3356 90.3155,114.5239 97.5034,115.4117 104.6914,115.8198 111.8793,115.4517 119.0672,113.6918 126.2551,112.0543 133.4431,110.54 140.631,109.1492 147.8189,107.8816 155.0069,106.7366 162.1948,105.7128 169.3827,104.8085 176.5706,104.0214 183.7586,103.3489 190.9465,102.788 198.1344,102.3354 205.3224,101.9876 212.5103,101.741 219.6982,101.5917 226.8861,101.536 234.0741,101.5701 241.262,101.687 248.4499,101.8696 255.6379,102.0858 262.8258,102.286 270.0137,102.406 277.2016,102.6263 284.3896,102.9453 291.5775,103.3615 298.7654,103.8739 305.9534,104.4815 313.1413,105.1838 320.3292,105.9804 327.5171,106.8712 334.7051,107.8565 341.893,108.9371 349.0809,110.0672 356.2689,111.0801 363.4568,111.6477 370.6447,111.1566 377.8326,110.9193 385.0206,110.9306 392.2085,111.1574 399.3964,111.4814 406.5844,111.6624 413.7723,111.275 420.9602,109.4363 428.1481,107.6939 435.3361,106.0447 442.524,104.4867 449.7119,103.0186 456.8999,101.6397 464.0878,100.3499 471.2757,99.1487 478.4636,98.0359 485.6516,97.0109 492.8395,96.073 500.0274,95.2209 507.2154,94.4613 514.4033,93.823 521.5912,93.3622 528.7791,93.1692 535.9671,93.3911 543.155,94.3123 550.3429,95.2904 557.5309,96.3274 564.7188,97.4244 571.9067,98.5811 579.0947,99.7965 586.2826,101.0685 593.4705,102.3676 600.6584,103.6051 607.8464,104.6362 615.0343,105.2538 622.2222,105.2404 622.2222,155.4971 615.0343,154.271 607.8464,152.8542 600.6584,152.4118 593.4705,152.277 586.2826,152.1296 579.0947,151.8247 571.9067,151.3259 564.7188,150.6324 557.5309,149.743 550.3429,148.6556 543.155,147.3671 535.9671,145.8731 528.7791,145.9068 521.5912,146.7683 514.4033,148.0529 507.2154,149.499 500.0274,150.9421 492.8395,152.2987 485.6516,153.5451 478.4636,154.6788 471.2757,155.6968 464.0878,156.596 456.8999,157.373 449.7119,158.0241 442.524,158.5455 435.3361,158.9328 428.1481,159.1815 420.9602,159.2863 413.7723,159.2406 406.5844,159.526 399.3964,159.9618 392.2085,160.4349 385.0206,160.8706 377.8326,161.2261 370.6447,161.4847 363.4568,161.6382 356.2689,161.9566 349.0809,162.3219 341.893,162.6599 334.7051,162.9306 327.5171,163.1196 320.3292,163.2212 313.1413,163.2292 305.9534,163.1367 298.7654,162.9364 291.5775,162.6204 284.3896,162.1802 277.2016,161.6065 270.0137,160.8893 262.8258,160.0178 255.6379,160.307 248.4499,161.174 241.262,162.2964 234.0741,163.482 226.8861,164.6334 219.6982,165.7239 212.5103,166.7531 205.3224,167.7199 198.1344,168.6222 190.9465,169.4576 183.7586,170.2227 176.5706,170.9138 169.3827,171.5265 162.1948,172.0559 155.0069,172.4966 147.8189,172.8427 140.631,173.088 133.4431,173.226 126.2551,173.2495 119.0672,173.1512 111.8793,172.9235 104.6914,173.1295 97.5034,173.6085 90.3155,174.2684 83.1276,175.0465 75.9396,175.8953 68.7517,176.7779 61.5638,177.6687 54.3759,178.5536 47.1879,179.4293 40,180.2965"></polyline>
<text class = "party erc" x="631.1111" y="130"><tspan class="party_name">ERC</tspan> (26.6±3.3%)</text>
<polyline class="pdecat" points=" 40,231.9488 47.1879,231.8171 54.3759,231.6785 61.5638,231.5326 68.7517,231.3811 75.9396,231.2298 83.1276,231.0895 90.3155,230.9754 97.5034,230.9081 104.6914,230.9173 111.8793,231.0549 119.0672,231.4363 126.2551,231.8157 133.4431,232.1906 140.631,232.5587 147.8189,232.9177 155.0069,233.2659 162.1948,233.6015 169.3827,233.9231 176.5706,234.2295 183.7586,234.5196 190.9465,234.7926 198.1344,235.0479 205.3224,235.2851 212.5103,235.5038 219.6982,235.7038 226.8861,235.8852 234.0741,236.0479 241.262,236.1917 248.4499,236.3163 255.6379,236.4222 262.8258,236.5124 270.0137,236.5931 277.2016,236.669 284.3896,236.7374 291.5775,236.7957 298.7654,236.8414 305.9534,236.8722 313.1413,236.886 320.3292,236.8805 327.5171,236.8537 334.7051,236.8035 341.893,236.7278 349.0809,236.6391 356.2689,236.5891 363.4568,236.6883 370.6447,237.1611 377.8326,237.5887 385.0206,237.9672 392.2085,238.2957 399.3964,238.584 406.5844,238.864 413.7723,239.2056 420.9602,239.7753 428.1481,240.3824 435.3361,241.024 442.524,241.697 449.7119,242.3986 456.8999,243.126 464.0878,243.8767 471.2757,244.6481 478.4636,245.4378 485.6516,246.2436 492.8395,247.0638 500.0274,247.8968 507.2154,248.7303 514.4033,249.5217 521.5912,250.1891 528.7791,250.602 535.9671,250.5573 543.155,249.6938 550.3429,248.8868 557.5309,248.1327 564.7188,247.4289 571.9067,246.773 579.0947,246.1633 586.2826,245.5983 593.4705,245.0851 600.6584,244.6467 607.8464,244.3192 615.0343,244.1623 622.2222,244.0691"></polyline>
<polyline class="pdecat error" points=" 40,202.6909 47.1879,203.4359 54.3759,204.1891 61.5638,204.9513 68.7517,205.7192 75.9396,206.4791 83.1276,207.2058 90.3155,207.8634 97.5034,208.4046 104.6914,208.7657 111.8793,208.8489 119.0672,208.4708 126.2551,208.1907 133.4431,208.0034 140.631,207.9034 147.8189,207.8855 155.0069,207.9449 162.1948,208.0765 169.3827,208.2758 176.5706,208.5382 183.7586,208.8597 190.9465,209.2361 198.1344,209.664 205.3224,210.1399 212.5103,210.661 219.6982,211.2247 226.8861,211.8286 234.0741,212.4711 241.262,213.1385 248.4499,213.7849 255.6379,214.3223 262.8258,214.6073 270.0137,214.391 277.2016,214.2693 284.3896,214.2343 291.5775,214.2792 298.7654,214.3973 305.9534,214.5824 313.1413,214.8289 320.3292,215.1314 327.5171,215.4849 334.7051,215.8849 341.893,216.3271 349.0809,216.801 356.2689,217.2808 363.4568,217.726 370.6447,218.0883 377.8326,218.5422 385.0206,219.0784 392.2085,219.676 399.3964,220.2834 406.5844,220.8128 413.7723,221.1307 420.9602,221.004 428.1481,221.0125 435.3361,221.1495 442.524,221.4089 449.7119,221.7857 456.8999,222.2747 464.0878,222.8715 471.2757,223.5717 478.4636,224.3709 485.6516,225.2652 492.8395,226.2507 500.0274,227.324 507.2154,228.465 514.4033,229.6075 521.5912,230.6238 528.7791,231.3118 535.9671,231.3608 543.155,230.2327 550.3429,229.2628 557.5309,228.4472 564.7188,227.7826 571.9067,227.2664 579.0947,226.8961 586.2826,226.6691 593.4705,226.5675 600.6584,226.5257 607.8464,226.4025 615.0343,225.9228 622.2222,225.3448 622.2222,262.7934 615.0343,262.4019 607.8464,262.2359 600.6584,262.7677 593.4705,263.6027 586.2826,264.5276 579.0947,265.4305 571.9067,266.2795 564.7188,267.0751 557.5309,267.8183 550.3429,268.5108 543.155,269.1549 535.9671,269.7539 528.7791,269.8921 521.5912,269.7543 514.4033,269.436 507.2154,268.9956 500.0274,268.4697 492.8395,267.877 485.6516,267.2221 478.4636,266.5046 471.2757,265.7245 464.0878,264.8819 456.8999,263.9774 449.7119,263.0115 442.524,261.985 435.3361,260.8985 428.1481,259.7523 420.9602,258.5465 413.7723,257.2804 406.5844,256.9152 399.3964,256.8847 392.2085,256.9154 385.0206,256.8561 377.8326,256.6352 370.6447,256.2339 363.4568,255.6507 356.2689,255.8974 349.0809,256.4771 341.893,257.1286 334.7051,257.7222 327.5171,258.2225 320.3292,258.6296 313.1413,258.9431 305.9534,259.162 298.7654,259.2855 291.5775,259.3121 284.3896,259.2404 277.2016,259.0687 270.0137,258.7951 262.8258,258.4174 255.6379,258.5222 248.4499,258.8477 241.262,259.2449 234.0741,259.6246 226.8861,259.9417 219.6982,260.183 212.5103,260.3465 205.3224,260.4302 198.1344,260.4319 190.9465,260.3491 183.7586,260.1795 176.5706,259.9207 169.3827,259.5705 162.1948,259.1265 155.0069,258.587 147.8189,257.9499 140.631,257.214 133.4431,256.3778 126.2551,255.4406 119.0672,254.4018 111.8793,253.2609 104.6914,253.0689 97.5034,253.4116 90.3155,254.0874 83.1276,254.9731 75.9396,255.9806 68.7517,257.0431 61.5638,258.1139 54.3759,259.1678 47.1879,260.1982 40,261.2067"></polyline>
<text class = "party pdecat" x="631.1111" y="233"><tspan class="party_name">PDeCAT</tspan> (11.7±2.5%)</text>
<polyline class="cec" points=" 40,243.8094 47.1879,243.738 54.3759,243.6628 61.5638,243.5835 68.7517,243.5011 75.9396,243.4189 83.1276,243.3434 90.3155,243.2838 97.5034,243.2528 104.6914,243.2688 111.8793,243.3645 119.0672,243.6122 126.2551,243.8627 133.4431,244.1147 140.631,244.3673 147.8189,244.6193 155.0069,244.8701 162.1948,245.119 169.3827,245.3655 176.5706,245.6093 183.7586,245.8502 190.9465,246.0881 198.1344,246.3231 205.3224,246.5556 212.5103,246.7859 219.6982,247.0147 226.8861,247.2426 234.0741,247.4706 241.262,247.6935 248.4499,247.8893 255.6379,248.0137 262.8258,247.9903 270.0137,247.6729 277.2016,247.3707 284.3896,247.0822 291.5775,246.8062 298.7654,246.5413 305.9534,246.2863 313.1413,246.0399 320.3292,245.8009 327.5171,245.568 334.7051,245.3401 341.893,245.1158 349.0809,244.9034 356.2689,244.7348 363.4568,244.6745 370.6447,244.849 377.8326,244.9974 385.0206,245.1214 392.2085,245.2226 399.3964,245.3049 406.5844,245.3764 413.7723,245.4524 420.9602,245.5665 428.1481,245.6827 435.3361,245.7995 442.524,245.9158 449.7119,246.0304 456.8999,246.1421 464.0878,246.2499 471.2757,246.3526 478.4636,246.449 485.6516,246.538 492.8395,246.6184 500.0274,246.6889 507.2154,246.7505 514.4033,246.8115 521.5912,246.8911 528.7791,247.024 535.9671,247.2693 543.155,247.7379 550.3429,248.2146 557.5309,248.6983 564.7188,249.1877 571.9067,249.6814 579.0947,250.1778 586.2826,250.6758 593.4705,251.151 600.6584,251.5199 607.8464,251.6169 615.0343,251.1009 622.2222,250.7444"></polyline>
<polyline class="cec error" points=" 40,221.2635 47.1879,221.882 54.3759,222.5078 61.5638,223.1416 68.7517,223.7803 75.9396,224.4121 83.1276,225.0153 90.3155,225.559 97.5034,226.0032 104.6914,226.2939 111.8793,226.347 119.0672,226.0016 126.2551,225.7366 133.4431,225.5487 140.631,225.4349 147.8189,225.392 155.0069,225.4168 162.1948,225.5064 169.3827,225.6579 176.5706,225.8684 183.7586,226.1352 190.9465,226.456 198.1344,226.8284 205.3224,227.2505 212.5103,227.7205 219.6982,228.2373 226.8861,228.7996 234.0741,229.407 241.262,230.0433 248.4499,230.6502 255.6379,231.1126 262.8258,231.2372 270.0137,230.6728 277.2016,230.2014 284.3896,229.818 291.5775,229.518 298.7654,229.2971 305.9534,229.1509 313.1413,229.0757 320.3292,229.0678 327.5171,229.1235 334.7051,229.2399 341.893,229.4137 349.0809,229.6351 356.2689,229.8753 363.4568,230.0802 370.6447,230.162 377.8326,230.3249 385.0206,230.5662 392.2085,230.8726 399.3964,231.1995 406.5844,231.4609 413.7723,231.5121 420.9602,231.0704 428.1481,230.7051 435.3361,230.4123 442.524,230.1886 449.7119,230.0312 456.8999,229.9374 464.0878,229.905 471.2757,229.9313 478.4636,230.0142 485.6516,230.1509 492.8395,230.3391 500.0274,230.5761 507.2154,230.8574 514.4033,231.1741 521.5912,231.5128 528.7791,231.8564 535.9671,232.1868 543.155,232.4906 550.3429,232.8821 557.5309,233.3595 564.7188,233.9207 571.9067,234.5635 579.0947,235.2854 586.2826,236.0838 593.4705,236.9132 600.6584,237.6173 607.8464,237.8858 615.0343,237.1038 622.2222,236.3587 622.2222,265.1301 615.0343,265.0981 607.8464,265.3479 600.6584,265.4224 593.4705,265.3887 586.2826,265.2679 579.0947,265.0703 571.9067,264.7992 564.7188,264.4548 557.5309,264.0372 550.3429,263.5472 543.155,262.9852 535.9671,262.3517 528.7791,262.1916 521.5912,262.2694 514.4033,262.4489 507.2154,262.6437 500.0274,262.8017 492.8395,262.8976 485.6516,262.9251 478.4636,262.8838 471.2757,262.7738 464.0878,262.5949 456.8999,262.3468 449.7119,262.0296 442.524,261.643 435.3361,261.1867 428.1481,260.6602 420.9602,260.0626 413.7723,259.3926 406.5844,259.2919 399.3964,259.4104 392.2085,259.5726 385.0206,259.6765 377.8326,259.67 370.6447,259.536 363.4568,259.2689 356.2689,259.5943 349.0809,260.1716 341.893,260.818 334.7051,261.4404 327.5171,262.0125 320.3292,262.534 313.1413,263.004 305.9534,263.4216 298.7654,263.7855 291.5775,264.0943 284.3896,264.3464 277.2016,264.5399 270.0137,264.673 262.8258,264.7434 255.6379,264.9148 248.4499,265.1283 241.262,265.3436 234.0741,265.5343 226.8861,265.6856 219.6982,265.7921 212.5103,265.8513 205.3224,265.8608 198.1344,265.8179 190.9465,265.7202 183.7586,265.5652 176.5706,265.3503 169.3827,265.0732 162.1948,264.7316 155.0069,264.3234 147.8189,263.8467 140.631,263.2996 133.4431,262.6808 126.2551,261.9888 119.0672,261.2228 111.8793,260.3819 104.6914,260.2438 97.5034,260.5024 90.3155,261.0087 83.1276,261.6715 75.9396,262.4257 68.7517,263.2218 61.5638,264.0254 54.3759,264.8177 47.1879,265.594 40,266.3554"></polyline>
<text class = "party cec" x="631.1111" y="254"><tspan class="party_name">CeC</tspan> (10.8±1.9%)</text>
<polyline class="psc" points=" 40,232.3356 47.1879,232.2063 54.3759,232.0704 61.5638,231.9272 68.7517,231.7784 75.9396,231.6302 83.1276,231.4944 90.3155,231.3882 97.5034,231.3351 104.6914,231.3695 111.8793,231.5521 119.0672,232.0183 126.2551,232.4916 133.4431,232.9698 140.631,233.4513 147.8189,233.9345 155.0069,234.4181 162.1948,234.9013 169.3827,235.3833 176.5706,235.8638 183.7586,236.3427 190.9465,236.8203 198.1344,237.2971 205.3224,237.7741 212.5103,238.2525 219.6982,238.7339 226.8861,239.2202 234.0741,239.7139 241.262,240.2017 248.4499,240.6279 255.6379,240.8788 262.8258,240.7563 270.0137,239.8802 277.2016,239.0399 284.3896,238.2326 291.5775,237.4556 298.7654,236.7064 305.9534,235.9823 313.1413,235.2806 320.3292,234.5987 327.5171,233.9339 334.7051,233.2834 341.893,232.6441 349.0809,232.0371 356.2689,231.543 363.4568,231.3211 370.6447,231.6805 377.8326,231.9638 385.0206,232.1752 392.2085,232.323 399.3964,232.4323 406.5844,232.5532 413.7723,232.7781 420.9602,233.3101 428.1481,233.8533 435.3361,234.4062 442.524,234.968 449.7119,235.5377 456.8999,236.1145 464.0878,236.698 471.2757,237.2878 478.4636,237.8836 485.6516,238.4855 492.8395,239.0937 500.0274,239.7088 507.2154,240.3218 514.4033,240.8959 521.5912,241.3569 528.7791,241.5836 535.9671,241.3831 543.155,240.407 550.3429,239.4632 557.5309,238.55 564.7188,237.6662 571.9067,236.8114 579.0947,235.9855 586.2826,235.1889 593.4705,234.4445 600.6584,233.8285 607.8464,233.483 615.0343,233.6859 622.2222,233.8517"></polyline>
<polyline class="psc error" points=" 40,204.2034 47.1879,204.9187 54.3759,205.6418 61.5638,206.3732 68.7517,207.1097 75.9396,207.8389 83.1276,208.5381 90.3155,209.1751 97.5034,209.7082 104.6914,210.0823 111.8793,210.2144 119.0672,209.9534 126.2551,209.7962 133.4431,209.7381 140.631,209.7743 147.8189,209.9006 155.0069,210.1127 162.1948,210.4066 169.3827,210.7785 176.5706,211.2249 183.7586,211.7427 190.9465,212.3291 198.1344,212.9819 205.3224,213.6992 212.5103,214.4795 219.6982,215.3223 226.8861,216.2273 234.0741,217.1952 241.262,218.1992 248.4499,219.1376 255.6379,219.8075 262.8258,219.8633 270.0137,218.665 277.2016,217.5988 284.3896,216.6576 291.5775,215.8347 298.7654,215.1238 305.9534,214.5189 313.1413,214.0142 320.3292,213.6039 327.5171,213.2829 334.7051,213.0458 341.893,212.8877 349.0809,212.8078 356.2689,212.8123 363.4568,212.9154 370.6447,213.1636 377.8326,213.4675 385.0206,213.8262 392.2085,214.2294 399.3964,214.6426 406.5844,215.0005 413.7723,215.1985 420.9602,215.0521 428.1481,215.0108 435.3361,215.0698 442.524,215.225 449.7119,215.4734 456.8999,215.8123 464.0878,216.2392 471.2757,216.752 478.4636,217.3489 485.6516,218.0281 492.8395,218.7882 500.0274,219.6281 507.2154,220.5314 514.4033,221.4385 521.5912,222.2311 528.7791,222.7188 535.9671,222.604 543.155,221.3669 550.3429,220.2605 557.5309,219.2826 564.7188,218.432 571.9067,217.7077 579.0947,217.1092 586.2826,216.6361 593.4705,216.2875 600.6584,216.0545 607.8464,215.909 615.0343,215.8081 622.2222,215.5086 622.2222,252.1948 615.0343,251.5638 607.8464,251.057 600.6584,251.6026 593.4705,252.6016 586.2826,253.7417 579.0947,254.8618 571.9067,255.9151 564.7188,256.9005 557.5309,257.8174 550.3429,258.666 543.155,259.4471 535.9671,260.1621 528.7791,260.4484 521.5912,260.4826 514.4033,260.3534 507.2154,260.1123 500.0274,259.7895 492.8395,259.3991 485.6516,258.9428 478.4636,258.4183 471.2757,257.8236 464.0878,257.1569 456.8999,256.4168 449.7119,255.6019 442.524,254.711 435.3361,253.7427 428.1481,252.6957 420.9602,251.5682 413.7723,250.3577 406.5844,250.1059 399.3964,250.222 392.2085,250.4167 385.0206,250.5242 377.8326,250.4601 370.6447,250.1973 363.4568,249.7269 356.2689,250.2737 349.0809,251.2663 341.893,252.4004 334.7051,253.5209 327.5171,254.585 320.3292,255.5935 313.1413,256.547 305.9534,257.4456 298.7654,258.289 291.5775,259.0766 284.3896,259.8077 277.2016,260.4811 270.0137,261.0955 262.8258,261.6493 255.6379,261.9501 248.4499,262.1183 241.262,262.2042 234.0741,262.2325 226.8861,262.2131 219.6982,262.1454 212.5103,262.0255 205.3224,261.8491 198.1344,261.6123 190.9465,261.3114 183.7586,260.9427 176.5706,260.5027 169.3827,259.9882 162.1948,259.396 155.0069,258.7236 147.8189,257.9684 140.631,257.1283 133.4431,256.2016 126.2551,255.187 119.0672,254.0832 111.8793,252.8897 104.6914,252.6566 97.5034,252.962 90.3155,253.6014 83.1276,254.4506 75.9396,255.4214 68.7517,256.447 61.5638,257.4812 54.3759,258.4989 47.1879,259.4939 40,260.4678"></polyline>
<text class = "party psc" x="631.1111" y="212"><tspan class="party_name">PSC</tspan> (13.1±2.4%)</text>
<polyline class="cs" points=" 40,199.5726 47.1879,199.5826 54.3759,199.5935 61.5638,199.6055 68.7517,199.6182 75.9396,199.6312 83.1276,199.6433 90.3155,199.6531 97.5034,199.6586 104.6914,199.6566 111.8793,199.642 119.0672,199.6033 126.2551,199.5647 133.4431,199.5265 140.631,199.4889 147.8189,199.4522 155.0069,199.4166 162.1948,199.3821 169.3827,199.349 176.5706,199.3175 183.7586,199.2874 190.9465,199.259 198.1344,199.2322 205.3224,199.2071 212.5103,199.1835 219.6982,199.1615 226.8861,199.1408 234.0741,199.1215 241.262,199.1038 248.4499,199.09 255.6379,199.0844 262.8258,199.0951 270.0137,199.1376 277.2016,199.1813 284.3896,199.2265 291.5775,199.2736 298.7654,199.3228 305.9534,199.3745 313.1413,199.4287 320.3292,199.4859 327.5171,199.5461 334.7051,199.6096 341.893,199.6766 349.0809,199.7449 356.2689,199.8076 363.4568,199.8515 370.6447,199.8538 377.8326,199.8726 385.0206,199.9085 392.2085,199.9584 399.3964,200.009 406.5844,200.0329 413.7723,199.9808 420.9602,199.7438 428.1481,199.5061 435.3361,199.268 442.524,199.0301 449.7119,198.7927 456.8999,198.5564 464.0878,198.3218 471.2757,198.0897 478.4636,197.8606 485.6516,197.6353 492.8395,197.4144 500.0274,197.1985 507.2154,196.9898 514.4033,196.794 521.5912,196.6214 528.7791,196.4869 535.9671,196.4121 543.155,196.434 550.3429,196.4467 557.5309,196.4523 564.7188,196.4532 571.9067,196.4514 579.0947,196.4493 586.2826,196.4495 593.4705,196.4431 600.6584,196.3879 607.8464,196.1865 615.0343,195.6172 622.2222,195.2783"></polyline>
<polyline class="cs error" points=" 40,172.6521 47.1879,173.4697 54.3759,174.3022 61.5638,175.1508 68.7517,176.0108 75.9396,176.8635 83.1276,177.6746 90.3155,178.3949 97.5034,178.9596 104.6914,179.2794 111.8793,179.2099 119.0672,178.4615 126.2551,177.8043 133.4431,177.2361 140.631,176.7547 147.8189,176.3577 155.0069,176.0427 162.1948,175.807 169.3827,175.6481 176.5706,175.5632 183.7586,175.5495 190.9465,175.6045 198.1344,175.7254 205.3224,175.9098 212.5103,176.1552 219.6982,176.4594 226.8861,176.8204 234.0741,177.2364 241.262,177.6954 248.4499,178.1579 255.6379,178.5464 262.8258,178.734 270.0137,178.5008 277.2016,178.3606 284.3896,178.3094 291.5775,178.3434 298.7654,178.4592 305.9534,178.6537 313.1413,178.9239 320.3292,179.2672 327.5171,179.6812 334.7051,180.1639 341.893,180.7135 349.0809,181.3062 356.2689,181.8615 363.4568,182.223 370.6447,182.1082 377.8326,182.1381 385.0206,182.3087 392.2085,182.5986 399.3964,182.937 406.5844,183.1839 413.7723,183.0979 420.9602,182.1903 428.1481,181.3704 435.3361,180.6351 442.524,179.9824 449.7119,179.4108 456.8999,178.9192 464.0878,178.5066 471.2757,178.1725 478.4636,177.9161 485.6516,177.7366 492.8395,177.6334 500.0274,177.6057 507.2154,177.6491 514.4033,177.7492 521.5912,177.8766 528.7791,177.9834 535.9671,177.9969 543.155,177.8011 550.3429,177.6902 557.5309,177.6659 564.7188,177.7296 571.9067,177.8832 579.0947,178.1281 586.2826,178.466 593.4705,178.8641 600.6584,179.1949 607.8464,179.1912 615.0343,178.3095 622.2222,177.5097 622.2222,213.047 615.0343,212.9249 607.8464,213.1818 600.6584,213.5809 593.4705,214.0222 586.2826,214.433 579.0947,214.7705 571.9067,215.0196 564.7188,215.1767 557.5309,215.2388 550.3429,215.2031 543.155,215.0668 535.9671,214.8272 528.7791,214.9904 521.5912,215.3662 514.4033,215.8388 507.2154,216.3305 500.0274,216.7914 492.8395,217.1954 485.6516,217.534 478.4636,217.8052 471.2757,218.0069 464.0878,218.137 456.8999,218.1936 449.7119,218.1746 442.524,218.0778 435.3361,217.901 428.1481,217.6418 420.9602,217.2972 413.7723,216.8637 406.5844,216.8819 399.3964,217.081 392.2085,217.3182 385.0206,217.5083 377.8326,217.6071 370.6447,217.5994 363.4568,217.48 356.2689,217.7536 349.0809,218.1836 341.893,218.6397 334.7051,219.0554 327.5171,219.411 320.3292,219.7046 313.1413,219.9336 305.9534,220.0952 298.7654,220.1864 291.5775,220.2038 284.3896,220.1437 277.2016,220.002 270.0137,219.7744 262.8258,219.4562 255.6379,219.6225 248.4499,220.0222 241.262,220.5123 234.0741,221.0066 226.8861,221.4613 219.6982,221.8635 212.5103,222.2118 205.3224,222.5044 198.1344,222.739 190.9465,222.9135 183.7586,223.0253 176.5706,223.0717 169.3827,223.05 162.1948,222.9572 155.0069,222.7904 147.8189,222.5467 140.631,222.2232 133.4431,221.817 126.2551,221.3252 119.0672,220.7451 111.8793,220.0741 104.6914,220.0338 97.5034,220.3575 90.3155,220.9114 83.1276,221.6121 75.9396,222.3988 68.7517,223.2256 61.5638,224.0601 54.3759,224.8849 47.1879,225.6956 40,226.4932"></polyline>
<text class = "party cs" x="631.1111" y="191"><tspan class="party_name">C's</tspan> (18.1±2.3%)</text>
<polyline class="pp" points=" 40,259.4416 47.1879,259.4737 54.3759,259.5084 61.5638,259.5461 68.7517,259.5861 75.9396,259.6265 83.1276,259.6637 90.3155,259.6919 97.5034,259.7037 104.6914,259.6878 111.8793,259.6242 119.0672,259.4688 126.2551,259.3103 133.4431,259.1496 140.631,258.9873 147.8189,258.824 155.0069,258.6603 162.1948,258.4967 169.3827,258.3335 176.5706,258.1712 183.7586,258.0098 190.9465,257.8497 198.1344,257.6909 205.3224,257.5335 212.5103,257.3772 219.6982,257.2221 226.8861,257.0679 234.0741,256.9142 241.262,256.7642 248.4499,256.6295 255.6379,256.5333 262.8258,256.5145 270.0137,256.6463 277.2016,256.7664 284.3896,256.8758 291.5775,256.9753 298.7654,257.0661 305.9534,257.1492 313.1413,257.2256 320.3292,257.2964 327.5171,257.3628 334.7051,257.4261 341.893,257.4876 349.0809,257.5403 356.2689,257.5529 363.4568,257.4577 370.6447,257.1122 377.8326,256.7659 385.0206,256.4171 392.2085,256.0724 399.3964,255.7584 406.5844,255.5255 413.7723,255.4585 420.9602,255.7408 428.1481,256.0082 435.3361,256.2624 442.524,256.5045 449.7119,256.7352 456.8999,256.9549 464.0878,257.1639 471.2757,257.3623 478.4636,257.5499 485.6516,257.7265 492.8395,257.8918 500.0274,258.0454 507.2154,258.1877 514.4033,258.322 521.5912,258.4571 528.7791,258.6098 535.9671,258.8102 543.155,259.116 550.3429,259.433 557.5309,259.7602 564.7188,260.0966 571.9067,260.4415 579.0947,260.794 586.2826,261.1537 593.4705,261.4971 600.6584,261.7394 607.8464,261.706 615.0343,261.0273 622.2222,260.5831"></polyline>
<polyline class="pp error" points=" 40,237.5583 47.1879,238.2721 54.3759,238.9992 61.5638,239.7407 68.7517,240.4921 75.9396,241.2362 83.1276,241.9413 90.3155,242.5623 97.5034,243.0395 104.6914,243.2901 111.8793,243.1784 119.0672,242.4268 126.2551,241.7466 133.4431,241.137 140.631,240.5969 147.8189,240.1252 155.0069,239.7204 162.1948,239.3808 169.3827,239.1048 176.5706,238.8903 183.7586,238.7354 190.9465,238.638 198.1344,238.5959 205.3224,238.607 212.5103,238.6694 219.6982,238.7808 226.8861,238.9395 234.0741,239.1437 241.262,239.3861 248.4499,239.6439 255.6379,239.8728 262.8258,240.0007 270.0137,239.9071 277.2016,239.8779 284.3896,239.9105 291.5775,240.0025 298.7654,240.1519 305.9534,240.3567 313.1413,240.6155 320.3292,240.9267 327.5171,241.2895 334.7051,241.703 341.893,242.167 349.0809,242.6559 356.2689,243.0763 363.4568,243.2395 370.6447,242.783 377.8326,242.4316 385.0206,242.1798 392.2085,242.0198 399.3964,241.9317 406.5844,241.8746 413.7723,241.7779 420.9602,241.519 428.1481,241.3181 435.3361,241.1744 442.524,241.0869 449.7119,241.0548 456.8999,241.0771 464.0878,241.1528 471.2757,241.2806 478.4636,241.4592 485.6516,241.6871 492.8395,241.9627 500.0274,242.2842 507.2154,242.6464 514.4033,243.0358 521.5912,243.4285 528.7791,243.7897 535.9671,244.073 543.155,244.2117 550.3429,244.4401 557.5309,244.7564 564.7188,245.159 571.9067,245.6464 579.0947,246.2167 586.2826,246.8684 593.4705,247.557 600.6584,248.1257 607.8464,248.2563 615.0343,247.307 622.2222,246.4748 622.2222,274.6913 615.0343,274.7476 607.8464,275.1557 600.6584,275.3532 593.4705,275.4372 586.2826,275.4391 579.0947,275.3713 571.9067,275.2366 564.7188,275.0342 557.5309,274.764 550.3429,274.4259 543.155,274.0202 535.9671,273.5474 528.7791,273.4298 521.5912,273.4858 514.4033,273.6083 507.2154,273.729 500.0274,273.8067 492.8395,273.8209 485.6516,273.7658 478.4636,273.6405 471.2757,273.444 464.0878,273.175 456.8999,272.8327 449.7119,272.4155 442.524,271.9221 435.3361,271.3505 428.1481,270.6983 420.9602,269.9626 413.7723,269.1391 406.5844,269.1764 399.3964,269.5851 392.2085,270.1249 385.0206,270.6543 377.8326,271.1002 370.6447,271.4415 363.4568,271.6759 356.2689,272.0295 349.0809,272.4246 341.893,272.8082 334.7051,273.1492 327.5171,273.4362 320.3292,273.6661 313.1413,273.8357 305.9534,273.9417 298.7654,273.9804 291.5775,273.9481 284.3896,273.841 277.2016,273.6549 270.0137,273.3855 262.8258,273.0282 255.6379,273.1937 248.4499,273.6151 241.262,274.1422 234.0741,274.6847 226.8861,275.1962 219.6982,275.6634 212.5103,276.0851 205.3224,276.4599 198.1344,276.786 190.9465,277.0615 183.7586,277.2843 176.5706,277.452 169.3827,277.5623 162.1948,277.6125 155.0069,277.6002 147.8189,277.5228 140.631,277.3776 133.4431,277.1622 126.2551,276.8741 119.0672,276.5108 111.8793,276.07 104.6914,276.0854 97.5034,276.3679 90.3155,276.8216 83.1276,277.386 75.9396,278.0169 68.7517,278.6801 61.5638,279.3514 54.3759,280.0176 47.1879,280.6752 40,281.3248"></polyline>
<text class = "party pp" x="631.1111" y="275"><tspan class="party_name">PP</tspan> (9.5±1.9%)</text>
<polyline class="otros" points=" 40,310.6542 47.1879,310.72 54.3759,310.7883 61.5638,310.8592 68.7517,310.932 75.9396,311.0041 83.1276,311.0704 90.3155,311.124 97.5034,311.1555 104.6914,311.1512 111.8793,311.087 119.0672,310.9095 126.2551,310.7318 133.4431,310.555 140.631,310.3798 147.8189,310.207 155.0069,310.0372 162.1948,309.8708 169.3827,309.7083 176.5706,309.5498 183.7586,309.3955 190.9465,309.2454 198.1344,309.0994 205.3224,308.9573 212.5103,308.8188 219.6982,308.6833 226.8861,308.5504 234.0741,308.4194 241.262,308.2933 248.4499,308.1855 255.6379,308.1231 262.8258,308.1539 270.0137,308.3701 277.2016,308.5816 284.3896,308.7897 291.5775,308.9956 298.7654,309.2005 305.9534,309.4056 313.1413,309.6121 320.3292,309.8213 327.5171,310.0345 334.7051,310.2532 341.893,310.479 349.0809,310.6981 356.2689,310.8561 363.4568,310.8405 370.6447,310.4252 377.8326,310.0458 385.0206,309.7014 392.2085,309.3931 399.3964,309.1248 406.5844,308.8999 413.7723,308.7182 420.9602,308.5753 428.1481,308.4162 435.3361,308.2437 442.524,308.0599 449.7119,307.8671 456.8999,307.667 464.0878,307.4614 471.2757,307.252 478.4636,307.0401 485.6516,306.8272 492.8395,306.6146 500.0274,306.4034 507.2154,306.1961 514.4033,305.9979 521.5912,305.8173 528.7791,305.6658 535.9671,305.5587 543.155,305.5203 550.3429,305.4665 557.5309,305.3988 564.7188,305.3186 571.9067,305.2272 579.0947,305.1258 586.2826,305.0157 593.4705,304.9051 600.6584,304.8213 607.8464,304.8185 615.0343,305.0091 622.2222,305.1432"></polyline>
<polyline class="otros error" points=" 40,292.224 47.1879,292.9063 54.3759,293.5991 61.5638,294.3029 68.7517,295.0135 75.9396,295.7143 83.1276,296.3755 90.3155,296.9552 97.5034,297.3982 104.6914,297.6283 111.8793,297.5196 119.0672,296.8105 126.2551,296.1655 133.4431,295.5847 140.631,295.0679 147.8189,294.6147 155.0069,294.2241 162.1948,293.895 169.3827,293.6261 176.5706,293.4156 183.7586,293.2617 190.9465,293.1624 198.1344,293.1157 205.3224,293.1193 212.5103,293.171 219.6982,293.2685 226.8861,293.4097 234.0741,293.5922 241.262,293.8101 248.4499,294.0464 255.6379,294.2701 262.8258,294.4331 270.0137,294.4612 277.2016,294.552 284.3896,294.7036 291.5775,294.9142 298.7654,295.1823 305.9534,295.5066 313.1413,295.8857 320.3292,296.3186 327.5171,296.8044 334.7051,297.3427 341.893,297.9333 349.0809,298.5452 356.2689,299.0671 363.4568,299.2771 370.6447,298.7495 377.8326,298.352 385.0206,298.0804 392.2085,297.9232 399.3964,297.843 406.5844,297.763 413.7723,297.5462 420.9602,296.9159 428.1481,296.3299 435.3361,295.7894 442.524,295.2958 449.7119,294.8503 456.8999,294.4543 464.0878,294.1086 471.2757,293.8144 478.4636,293.5723 485.6516,293.383 492.8395,293.2466 500.0274,293.1635 507.2154,293.1312 514.4033,293.1403 521.5912,293.1707 528.7791,293.1881 535.9671,293.1399 543.155,292.9395 550.3429,292.7915 557.5309,292.6972 564.7188,292.6578 571.9067,292.6741 579.0947,292.7467 586.2826,292.876 593.4705,293.0532 600.6584,293.2457 607.8464,293.3898 615.0343,293.376 622.2222,293.1902 622.2222,317.0962 615.0343,316.6421 607.8464,316.2472 600.6584,316.3969 593.4705,316.7571 586.2826,317.1554 579.0947,317.5049 571.9067,317.7803 564.7188,317.9794 557.5309,318.1004 550.3429,318.1415 543.155,318.1011 535.9671,317.9775 528.7791,318.1435 521.5912,318.464 514.4033,318.8554 507.2154,319.261 500.0274,319.6434 492.8395,319.9826 485.6516,320.2715 478.4636,320.5079 471.2757,320.6895 464.0878,320.8142 456.8999,320.8797 449.7119,320.8838 442.524,320.8241 435.3361,320.6979 428.1481,320.5026 420.9602,320.2346 413.7723,319.8902 406.5844,320.0368 399.3964,320.4067 392.2085,320.8631 385.0206,321.3224 377.8326,321.7396 370.6447,322.1008 363.4568,322.4038 356.2689,322.6451 349.0809,322.8511 341.893,323.0248 334.7051,323.1637 327.5171,323.2646 320.3292,323.3241 313.1413,323.3386 305.9534,323.3047 298.7654,323.2187 291.5775,323.0771 284.3896,322.8758 277.2016,322.6111 270.0137,322.2789 262.8258,321.8747 255.6379,321.9761 248.4499,322.3245 241.262,322.7765 234.0741,323.2466 226.8861,323.6912 219.6982,324.0981 212.5103,324.4665 205.3224,324.7953 198.1344,325.0831 190.9465,325.3284 183.7586,325.5293 176.5706,325.684 169.3827,325.7905 162.1948,325.8466 155.0069,325.8503 147.8189,325.7994 140.631,325.6917 133.4431,325.5253 126.2551,325.2982 119.0672,325.0085 111.8793,324.6544 104.6914,324.674 97.5034,324.9128 90.3155,325.2929 83.1276,325.7653 75.9396,326.2938 68.7517,326.8505 61.5638,327.4155 54.3759,327.9775 47.1879,328.5338 40,329.0845"></polyline>
<text class = "party otros" x="631.1111" y="315"><tspan class="party_name">Otros</tspan> (3.7±1.6%)</text>

<text class="pie izquierda" x="0" y="395">Datos: Electograph | Modelo propio</text>
<text class="pie derecha" x="800" y="395">Jesús Carro | <tspan style="font-weight:bold">1datomas</tspan>.com</text>
</svg>