<?xml version="1.0" encoding="utf-8"?><!DOCTYPE svg PUBLIC "-//W3C//DTD SVG 1.1//EN" "http://www.w3.org/Graphics/SVG/1.1/DTD/svg11.dtd">
<svg xmlns="http://www.w3.org/2000/svg" xmlns:xlink="http://www.w3.org/1999/xlink" version="1.1" viewBox="0 0 800 400">

<text x="0" y="20" style="font-size:large;font-weight:bold;color:black">Intención de voto en Elecciones Autonómicas en Cataluña</text>
<text x="0" y="40" style="color:gray">Promedio de encuestas y estimación de error</text>

<text class="horizontal axis" x="36" y="333.3333">0%</text>
<line class="horizontal axis" x1="40" y1="333.3333" x2="622.2222" y2="333.3333"></line>
<text class="horizontal axis" x="36" y="250">10%</text>
<line class="horizontal axis" x1="40" y1="250" x2="622.2222" y2="250"></line>
<text class="horizontal axis" x="36" y="166.6667">20%</text>
<line class="horizontal axis" x1="40" y1="166.6667" x2="622.2222" y2="166.6667"></line>
<text class="horizontal axis" x="36" y="83.3333">30%</text>
<line class="horizontal axis" x1="40" y1="83.3333" x2="622.2222" y2="83.3333"></line>
<line class="vertical axis" x1="40" y1="336.6667" x2="40" y2="66.6667"></line>
<text class="vertical axis" x="40" y="343.3333">Ago-2017</text>
<line class="vertical axis" x1="232.0095" y1="336.6667" x2="232.0095" y2="66.6667"></line>
<text class="vertical axis" x="232.0095" y="343.3333">Sep-2017</text>
<line class="vertical axis" x1="417.8251" y1="336.6667" x2="417.8251" y2="66.6667"></line>
<text class="vertical axis" x="417.8251" y="343.3333">Oct-2017</text>
<line class="vertical axis" x1="609.8345" y1="336.6667" x2="609.8345" y2="66.6667"></line>
<text class="vertical axis" x="609.8345" y="343.3333">Nov-2017</text>
<g id="encuesta-1">
<circle class="encuesta cup" cx="622.2222" cy="280.8333" r="3.1623" ></circle>
<circle class="encuesta erc" cx="622.2222" cy="114.1667" r="3.1623" ></circle>
<circle class="encuesta pdecat" cx="622.2222" cy="244.1667" r="3.1623" ></circle>
<circle class="encuesta cec" cx="622.2222" cy="246.6667" r="3.1623" ></circle>
<circle class="encuesta psc" cx="622.2222" cy="220" r="3.1623" ></circle>
<circle class="encuesta cs" cx="622.2222" cy="170" r="3.1623" ></circle>
<circle class="encuesta pp" cx="622.2222" cy="245.8333" r="3.1623" ></circle>
<circle class="encuesta otros" cx="622.2222" cy="311.6667" r="3.1623" ></circle>
</g>
<g id="encuesta-2">
<circle class="encuesta cup" cx="622.2222" cy="280.8333" r="3.5114" ></circle>
<circle class="encuesta erc" cx="622.2222" cy="89.1667" r="3.5114" ></circle>
<circle class="encuesta pdecat" cx="622.2222" cy="246.6667" r="3.5114" ></circle>
<circle class="encuesta cec" cx="622.2222" cy="264.1667" r="3.5114" ></circle>
<circle class="encuesta psc" cx="622.2222" cy="211.6667" r="3.5114" ></circle>
<circle class="encuesta cs" cx="622.2222" cy="161.6667" r="3.5114" ></circle>
<circle class="encuesta pp" cx="622.2222" cy="260.8333" r="3.5114" ></circle>
<circle class="encuesta otros" cx="622.2222" cy="318.3333" r="3.5114" ></circle>
</g>
<g id="encuesta-3">
<circle class="encuesta cup" cx="603.6407" cy="285.8333" r="3.1623" ></circle>
<circle class="encuesta erc" cx="603.6407" cy="73.3333" r="3.1623" ></circle>
<circle class="encuesta pdecat" cx="603.6407" cy="249.1667" r="3.1623" ></circle>
<circle class="encuesta cec" cx="603.6407" cy="250" r="3.1623" ></circle>
<circle class="encuesta psc" cx="603.6407" cy="231.6667" r="3.1623" ></circle>
<circle class="encuesta cs" cx="603.6407" cy="180.8333" r="3.1623" ></circle>
<circle class="encuesta pp" cx="603.6407" cy="258.3333" r="3.1623" ></circle>
<circle class="encuesta otros" cx="603.6407" cy="304.1667" r="3.1623" ></circle>
</g>
<g id="encuesta-4">
<circle class="encuesta cup" cx="572.6714" cy="280.8333" r="3.1623" ></circle>
<circle class="encuesta erc" cx="572.6714" cy="113.3333" r="3.1623" ></circle>
<circle class="encuesta pdecat" cx="572.6714" cy="251.6667" r="3.1623" ></circle>
<circle class="encuesta cec" cx="572.6714" cy="241.6667" r="3.1623" ></circle>
<circle class="encuesta psc" cx="572.6714" cy="207.5" r="3.1623" ></circle>
<circle class="encuesta cs" cx="572.6714" cy="170" r="3.1623" ></circle>
<circle class="encuesta pp" cx="572.6714" cy="260.8333" r="3.1623" ></circle>
<circle class="encuesta otros" cx="572.6714" cy="307.5" r="3.1623" ></circle>
</g>
<g id="encuesta-5">
<circle class="encuesta cup" cx="541.7021" cy="286.6667" r="3.1623" ></circle>
<circle class="encuesta erc" cx="541.7021" cy="128.3333" r="3.1623" ></circle>
<circle class="encuesta pdecat" cx="541.7021" cy="232.5" r="3.1623" ></circle>
<circle class="encuesta cec" cx="541.7021" cy="238.3333" r="3.1623" ></circle>
<circle class="encuesta psc" cx="541.7021" cy="224.1667" r="3.1623" ></circle>
<circle class="encuesta cs" cx="541.7021" cy="173.3333" r="3.1623" ></circle>
<circle class="encuesta pp" cx="541.7021" cy="245.8333" r="3.1623" ></circle>
<circle class="encuesta otros" cx="541.7021" cy="304.1667" r="3.1623" ></circle>
</g>
<g id="encuesta-6">
<circle class="encuesta cup" cx="529.3144" cy="268.3333" r="2.8284" ></circle>
<circle class="encuesta erc" cx="529.3144" cy="99.1667" r="2.8284" ></circle>
<circle class="encuesta pdecat" cx="529.3144" cy="233.3333" r="2.8284" ></circle>
<circle class="encuesta cec" cx="529.3144" cy="258.3333" r="2.8284" ></circle>
<circle class="encuesta psc" cx="529.3144" cy="212.5" r="2.8284" ></circle>
<circle class="encuesta cs" cx="529.3144" cy="193.3333" r="2.8284" ></circle>
<circle class="encuesta pp" cx="529.3144" cy="270.8333" r="2.8284" ></circle>
<circle class="encuesta otros" cx="529.3144" cy="297.5" r="2.8284" ></circle>
</g>
<g id="encuesta-7">
<circle class="encuesta cup" cx="467.3759" cy="280.8333" r="2.8284" ></circle>
<circle class="encuesta erc" cx="467.3759" cy="68.3333" r="2.8284" ></circle>
<circle class="encuesta pdecat" cx="467.3759" cy="265.8333" r="2.8284" ></circle>
<circle class="encuesta cec" cx="467.3759" cy="233.3333" r="2.8284" ></circle>
<circle class="encuesta psc" cx="467.3759" cy="254.1667" r="2.8284" ></circle>
<circle class="encuesta cs" cx="467.3759" cy="180.8333" r="2.8284" ></circle>
<circle class="encuesta pp" cx="467.3759" cy="249.1667" r="2.8284" ></circle>
<circle class="encuesta otros" cx="467.3759" cy="300.8333" r="2.8284" ></circle>
</g>
<g id="encuesta-8">
<circle class="encuesta cup" cx="362.0804" cy="286.6667" r="3.5426" ></circle>
<circle class="encuesta erc" cx="362.0804" cy="124.1667" r="3.5426" ></circle>
<circle class="encuesta pdecat" cx="362.0804" cy="227.5" r="3.5426" ></circle>
<circle class="encuesta cec" cx="362.0804" cy="236.6667" r="3.5426" ></circle>
<circle class="encuesta psc" cx="362.0804" cy="219.1667" r="3.5426" ></circle>
<circle class="encuesta cs" cx="362.0804" cy="190" r="3.5426" ></circle>
<circle class="encuesta pp" cx="362.0804" cy="243.3333" r="3.5426" ></circle>
<circle class="encuesta otros" cx="362.0804" cy="305.8333" r="3.5426" ></circle>
</g>
<g id="encuesta-9">
<circle class="encuesta cup" cx="318.7234" cy="284.1667" r="2.8284" ></circle>
<circle class="encuesta erc" cx="318.7234" cy="127.5" r="2.8284" ></circle>
<circle class="encuesta pdecat" cx="318.7234" cy="220" r="2.8284" ></circle>
<circle class="encuesta cec" cx="318.7234" cy="231.6667" r="2.8284" ></circle>
<circle class="encuesta psc" cx="318.7234" cy="210" r="2.8284" ></circle>
<circle class="encuesta cs" cx="318.7234" cy="188.3333" r="2.8284" ></circle>
<circle class="encuesta pp" cx="318.7234" cy="255" r="2.8284" ></circle>
<circle class="encuesta otros" cx="318.7234" cy="316.6667" r="2.8284" ></circle>
</g>
<g id="encuesta-10">
<circle class="encuesta cup" cx="232.0095" cy="276.6667" r="2.6458" ></circle>
<circle class="encuesta erc" cx="232.0095" cy="100" r="2.6458" ></circle>
<circle class="encuesta pdecat" cx="232.0095" cy="227.5" r="2.6458" ></circle>
<circle class="encuesta cec" cx="232.0095" cy="246.6667" r="2.6458" ></circle>
<circle class="encuesta psc" cx="232.0095" cy="249.1667" r="2.6458" ></circle>
<circle class="encuesta cs" cx="232.0095" cy="185.8333" r="2.6458" ></circle>
<circle class="encuesta pp" cx="232.0095" cy="245.8333" r="2.6458" ></circle>
<circle class="encuesta otros" cx="232.0095" cy="301.6667" r="2.6458" ></circle>
</g>
<g id="encuesta-11">
<circle class="encuesta cup" cx="101.9385" cy="279.1667" r="3.5426" ></circle>
<circle class="encuesta erc" cx="101.9385" cy="134.1667" r="3.5426" ></circle>
<circle class="encuesta pdecat" cx="101.9385" cy="217.5" r="3.5426" ></circle>
<circle class="encuesta cec" cx="101.9385" cy="232.5" r="3.5426" ></circle>
<circle class="encuesta psc" cx="101.9385" cy="217.5" r="3.5426" ></circle>
<circle class="encuesta cs" cx="101.9385" cy="187.5" r="3.5426" ></circle>
<circle class="encuesta pp" cx="101.9385" cy="254.1667" r="3.5426" ></circle>
<circle class="encuesta otros" cx="101.9385" cy="310.8333" r="3.5426" ></circle>
</g>
<polyline class="cup" points=" 40,279.862 46.1939,279.831 52.3877,279.7988 58.5816,279.7653 64.7754,279.7309 70.9693,279.6969 77.1631,279.6653 83.357,279.6389 89.5508,279.6207 95.7447,279.6152 101.9385,279.631 108.1324,279.6901 114.3262,279.747 120.5201,279.8007 126.7139,279.8506 132.9078,279.8958 139.1017,279.936 145.2955,279.9703 151.4894,279.9984 157.6832,280.0196 163.8771,280.0335 170.0709,280.0395 176.2648,280.0371 182.4586,280.0257 188.6525,280.0046 194.8463,279.973 201.0402,279.93 207.234,279.8744 213.4279,279.8101 219.6217,279.753 225.8156,279.7359 232.0095,279.8174 238.2033,280.1225 244.3972,280.417 250.591,280.7008 256.7849,280.9743 262.9787,281.2376 269.1726,281.4912 275.3664,281.7355 281.5603,281.971 287.7541,282.1983 293.948,282.4178 300.1418,282.63 306.3357,282.8309 312.5296,283.0091 318.7234,283.1482 324.9173,283.2235 331.1111,283.3328 337.305,283.4738 343.4988,283.6379 349.6927,283.7996 355.8865,283.9145 362.0804,283.91 368.2742,283.6146 374.4681,283.3392 380.6619,283.0826 386.8558,282.8437 393.0496,282.6212 399.2435,282.4143 405.4374,282.222 411.6312,282.0434 417.8251,281.8775 424.0189,281.7236 430.2128,281.5809 436.4066,281.4486 442.6005,281.3265 448.7943,281.2145 454.9882,281.1128 461.182,281.0201 467.3759,280.9335 473.5697,280.846 479.7636,280.7491 485.9574,280.6433 492.1513,280.5285 498.3452,280.4042 504.539,280.2691 510.7329,280.1213 516.9267,279.977 523.1206,279.9003 529.3144,280.0223 535.5083,280.6123 541.7021,280.987 547.896,281.077 554.0898,281.1689 560.2837,281.2589 566.4775,281.3487 572.6714,281.45 578.8652,281.5961 585.0591,281.7446 591.253,281.8781 597.4468,281.965 603.6407,281.958 609.8345,281.778 616.0284,281.6391 622.2222,281.5541"></polyline>
<polyline class="cup error" points=" 40,255.4906 46.1939,256.0795 52.3877,256.6779 58.5816,257.2864 64.7754,258.0053 70.9693,258.973 77.1631,259.8871 83.357,260.6918 89.5508,261.3181 95.7447,261.6712 101.9385,261.586 108.1324,260.6785 114.3262,259.8968 120.5201,259.2358 126.7139,258.6903 132.9078,258.2551 139.1017,257.9282 145.2955,257.7936 151.4894,257.7168 157.6832,257.6944 163.8771,257.723 170.0709,257.799 176.2648,257.9192 182.4586,258.1089 188.6525,258.4331 194.8463,258.8193 201.0402,259.2643 207.234,259.7656 213.4279,260.3095 219.6217,260.8547 225.8156,261.3264 232.0095,261.6077 238.2033,261.494 244.3972,261.5048 250.591,261.6297 256.7849,261.8593 262.9787,262.1859 269.1726,262.6027 275.3664,263.1038 281.5603,263.6846 287.7541,264.3412 293.948,265.0705 300.1418,265.8706 306.3357,266.7083 312.5296,267.4768 318.7234,267.9832 324.9173,267.8705 331.1111,267.9756 337.305,268.2836 343.4988,268.7568 349.6927,269.2932 355.8865,269.7124 362.0804,269.7197 368.2742,268.6722 374.4681,267.7786 380.6619,267.027 386.8558,266.4073 393.0496,265.9106 399.2435,265.5289 405.4374,265.255 411.6312,265.082 417.8251,265.0039 424.0189,265.0148 430.2128,265.1095 436.4066,265.2834 442.6005,265.527 448.7943,265.8176 454.9882,266.1144 461.182,266.3567 467.3759,266.4554 473.5697,266.2628 479.7636,266.1736 485.9574,266.178 492.1513,266.2667 498.3452,266.431 504.539,266.6628 510.7329,266.9539 516.9267,267.2988 523.1206,267.7011 529.3144,268.187 535.5083,268.8521 541.7021,269.2642 547.896,269.2226 554.0898,269.3283 560.2837,269.5572 566.4775,269.8488 572.6714,270.0954 578.8652,270.1164 585.0591,270.2919 591.253,270.5707 597.4468,270.8639 603.6407,271.0294 609.8345,270.8168 616.0284,270.6543 622.2222,270.3477 622.2222,292.7606 616.0284,292.624 609.8345,292.7392 603.6407,292.8866 597.4468,293.0661 591.253,293.1854 585.0591,293.1972 578.8652,293.0758 572.6714,292.8045 566.4775,292.8486 560.2837,292.9606 554.0898,293.0094 547.896,292.9314 541.7021,292.7098 535.5083,292.3726 529.3144,291.8576 523.1206,292.0995 516.9267,292.6553 510.7329,293.2888 504.539,293.8755 498.3452,294.3774 492.1513,294.7904 485.9574,295.1086 479.7636,295.3247 473.5697,295.4293 467.3759,295.4115 461.182,295.6836 454.9882,296.1111 448.7943,296.6115 442.6005,297.1259 436.4066,297.6139 430.2128,298.0522 424.0189,298.4324 417.8251,298.7511 411.6312,299.0047 405.4374,299.1891 399.2435,299.2998 393.0496,299.3319 386.8558,299.28 380.6619,299.1383 374.4681,298.8999 368.2742,298.557 362.0804,298.1003 355.8865,298.1166 349.6927,298.3059 343.4988,298.5191 337.305,298.6641 331.1111,298.69 324.9173,298.5765 318.7234,298.3133 312.5296,298.5413 306.3357,298.9535 300.1418,299.3893 293.948,299.7651 287.7541,300.0554 281.5603,300.2574 275.3664,300.3671 269.1726,300.3796 262.9787,300.2892 256.7849,300.0892 250.591,299.772 244.3972,299.3291 238.2033,298.751 232.0095,298.0272 225.8156,298.1454 219.6217,298.6512 213.4279,299.3106 207.234,299.9833 201.0402,300.5956 194.8463,301.1267 188.6525,301.5761 182.4586,301.9426 176.2648,302.1551 170.0709,302.2801 163.8771,302.344 157.6832,302.3448 151.4894,302.2799 145.2955,302.147 139.1017,301.9437 132.9078,301.5366 126.7139,301.0108 120.5201,300.3656 114.3262,299.5972 108.1324,298.7017 101.9385,297.6759 95.7447,297.5593 89.5508,297.9232 83.357,298.586 77.1631,299.4436 70.9693,300.4207 64.7754,301.4564 58.5816,302.2442 52.3877,302.9198 46.1939,303.5826 40,304.2334"></polyline>
<text class = "party cup" x="631.1111" y="292"><tspan class="party_name">CUP</tspan> <tspan class="party_result">(6.2±1.3%) </tspan> </text>
<polyline class="erc" points=" 40,123.7783 46.1939,124.1786 52.3877,124.5992 58.5816,125.041 64.7754,125.4987 70.9693,125.9531 77.1631,126.3719 83.357,126.7132 89.5508,126.9246 95.7447,126.9294 101.9385,126.5812 108.1324,125.4975 114.3262,124.4118 120.5201,123.3329 126.7139,122.2686 132.9078,121.2254 139.1017,120.2085 145.2955,119.222 151.4894,118.2689 157.6832,117.3511 163.8771,116.4695 170.0709,115.6241 176.2648,114.8143 182.4586,114.0385 188.6525,113.2945 194.8463,112.5794 201.0402,111.8898 207.234,111.2213 213.4279,110.5856 219.6217,110.0327 225.8156,109.6581 232.0095,109.6249 238.2033,110.2778 244.3972,110.8907 250.591,111.4727 256.7849,112.0323 262.9787,112.578 269.1726,113.1172 275.3664,113.6574 281.5603,114.2054 287.7541,114.768 293.948,115.3518 300.1418,115.9632 306.3357,116.5745 312.5296,117.0774 318.7234,117.264 324.9173,116.7074 331.1111,116.3139 337.305,116.0827 343.4988,115.9952 349.6927,115.9803 355.8865,115.8964 362.0804,115.4879 368.2742,114.138 374.4681,112.7919 380.6619,111.455 386.8558,110.1317 393.0496,108.8247 399.2435,107.5362 405.4374,106.2668 411.6312,105.0163 417.8251,103.7832 424.0189,102.565 430.2128,101.3576 436.4066,100.1557 442.6005,98.9719 448.7943,97.8683 454.9882,96.9675 461.182,96.4624 467.3759,96.6573 473.5697,98.1205 479.7636,99.4176 485.9574,100.5704 492.1513,101.5981 498.3452,102.5173 504.539,103.3426 510.7329,104.0865 516.9267,104.7568 523.1206,105.3621 529.3144,105.9317 535.5083,106.5525 541.7021,106.6427 547.896,105.7929 554.0898,105.0567 560.2837,104.4181 566.4775,103.7929 572.6714,102.9716 578.8652,101.4745 585.0591,100.0095 591.253,98.6817 597.4468,97.6809 603.6407,97.2924 609.8345,97.9964 616.0284,98.5128 622.2222,98.863"></polyline>
<polyline class="erc error" points=" 40,80.1871 46.1939,81.3998 52.3877,82.652 58.5816,83.946 64.7754,85.5196 70.9693,87.6981 77.1631,89.752 83.357,91.5362 89.5508,92.8693 95.7447,93.497 101.9385,92.9646 108.1324,90.1772 114.3262,87.6156 120.5201,85.2789 126.7139,83.1653 132.9078,81.2721 139.1017,79.6033 145.2955,78.3674 151.4894,77.2511 157.6832,76.2525 163.8771,75.3687 170.0709,74.5962 176.2648,73.931 182.4586,73.4362 188.6525,73.2694 194.8463,73.2593 201.0402,73.3995 207.234,73.6841 213.4279,74.0961 219.6217,74.5853 225.8156,75.0577 232.0095,75.3646 238.2033,75.2665 244.3972,75.3656 250.591,75.6517 256.7849,76.1169 262.9787,76.7553 269.1726,77.5625 275.3664,78.5357 281.5603,79.6736 287.7541,80.9763 293.948,82.4457 300.1418,84.0855 306.3357,85.8172 312.5296,87.3632 318.7234,88.1961 324.9173,87.2861 331.1111,86.8677 337.305,86.9176 343.4988,87.3675 349.6927,88.0114 355.8865,88.4643 362.0804,88.0708 368.2742,85.3708 374.4681,82.9197 380.6619,80.7007 386.8558,78.6998 393.0496,76.9047 399.2435,75.3042 405.4374,73.8874 411.6312,72.6435 417.8251,71.5617 424.0189,70.6311 430.2128,69.8404 436.4066,69.1778 442.6005,68.6411 448.7943,68.2528 454.9882,68.0647 461.182,68.1646 467.3759,68.7052 473.5697,70.0076 479.7636,71.3468 485.9574,72.725 492.1513,74.1453 498.3452,75.6104 504.539,77.123 510.7329,78.6859 516.9267,80.2669 523.1206,81.7601 529.3144,82.9932 535.5083,83.7131 541.7021,83.8435 547.896,82.7337 554.0898,82.0058 560.2837,81.6071 566.4775,81.3384 572.6714,80.7673 578.8652,79.0087 585.0591,77.5638 591.253,76.4783 597.4468,75.8416 603.6407,75.77 609.8345,76.4354 616.0284,76.9247 622.2222,76.8743 622.2222,120.8517 616.0284,120.1009 609.8345,119.5574 603.6407,118.8148 597.4468,119.5202 591.253,120.885 585.0591,122.4552 578.8652,123.9404 572.6714,125.1759 566.4775,126.2473 560.2837,127.2291 554.0898,128.1075 547.896,128.852 541.7021,129.4419 535.5083,129.3919 529.3144,128.8702 523.1206,128.964 516.9267,129.2467 510.7329,129.4872 504.539,129.5623 498.3452,129.4243 492.1513,129.0509 485.9574,128.4158 479.7636,127.4884 473.5697,126.2333 467.3759,124.6095 461.182,124.7602 454.9882,125.8703 448.7943,127.4838 442.6005,129.3027 436.4066,131.1335 430.2128,132.8747 424.0189,134.4988 417.8251,136.0047 411.6312,137.3891 405.4374,138.6462 399.2435,139.7681 393.0496,140.7447 386.8558,141.5635 380.6619,142.2094 374.4681,142.6641 368.2742,142.9052 362.0804,142.905 355.8865,143.3285 349.6927,143.9493 343.4988,144.6229 337.305,145.2477 331.1111,145.7601 324.9173,146.1287 318.7234,146.332 312.5296,146.7916 306.3357,147.3317 300.1418,147.841 293.948,148.2579 287.7541,148.5598 281.5603,148.7372 275.3664,148.779 269.1726,148.6719 262.9787,148.4007 256.7849,147.9478 250.591,147.2937 244.3972,146.4158 238.2033,145.2891 232.0095,143.8851 225.8156,144.2585 219.6217,145.48 213.4279,147.075 207.234,148.7584 201.0402,150.38 194.8463,151.8996 188.6525,153.3197 182.4586,154.6408 176.2648,155.6977 170.0709,156.6521 163.8771,157.5702 157.6832,158.4496 151.4894,159.2867 145.2955,160.0766 139.1017,160.8137 132.9078,161.1787 126.7139,161.372 120.5201,161.3869 114.3262,161.2079 108.1324,160.8179 101.9385,160.1979 95.7447,160.3619 89.5508,160.9799 83.357,161.8903 77.1631,162.9918 70.9693,164.208 64.7754,165.4778 58.5816,166.136 52.3877,166.5465 46.1939,166.9575 40,167.3695"></polyline>
<text class = "party erc" x="631.1111" y="99"><tspan class="party_name">ERC</tspan> <tspan class="party_result">(28.1±2.6%)</tspan> </text>
<polyline class="pdecat" points=" 40,223.7071 46.1939,223.4543 52.3877,223.1894 58.5816,222.912 64.7754,222.6255 70.9693,222.3414 77.1631,222.0787 83.357,221.862 89.5508,221.7213 95.7447,221.7002 101.9385,221.8818 108.1324,222.4828 114.3262,223.0766 120.5201,223.6574 126.7139,224.22 132.9078,224.7599 139.1017,225.2735 145.2955,225.7577 151.4894,226.2101 157.6832,226.6289 163.8771,227.0127 170.0709,227.3605 176.2648,227.672 182.4586,227.9468 188.6525,228.1848 194.8463,228.3864 201.0402,228.5519 207.234,228.6817 213.4279,228.7783 219.6217,228.8505 225.8156,228.9165 232.0095,229.0085 238.2033,229.1921 244.3972,229.354 250.591,229.4893 256.7849,229.5937 262.9787,229.6634 269.1726,229.6947 275.3664,229.6842 281.5603,229.6287 287.7541,229.5247 293.948,229.3686 300.1418,229.1568 306.3357,228.9128 312.5296,228.7302 318.7234,228.7977 324.9173,229.5157 331.1111,230.1191 337.305,230.6039 343.4988,230.9746 349.6927,231.2626 355.8865,231.5424 362.0804,231.959 368.2742,232.8698 374.4681,233.8055 380.6619,234.7574 386.8558,235.7185 393.0496,236.6828 399.2435,237.6456 405.4374,238.6036 411.6312,239.5544 417.8251,240.4968 424.0189,241.4306 430.2128,242.3568 436.4066,243.2778 442.6005,244.183 448.7943,245.0277 454.9882,245.7252 461.182,246.1408 467.3759,246.0639 473.5697,245.1023 479.7636,244.2576 485.9574,243.5119 492.1513,242.8494 498.3452,242.2556 504.539,241.7173 510.7329,241.2223 516.9267,240.7785 523.1206,240.4401 529.3144,240.3174 535.5083,240.6291 541.7021,241.0997 547.896,241.946 554.0898,242.774 560.2837,243.5633 566.4775,244.2486 572.6714,244.7148 578.8652,244.7536 585.0591,244.8613 591.253,245.0035 597.4468,245.1351 603.6407,245.1964 609.8345,245.0952 616.0284,245.0265 622.2222,244.9586"></polyline>
<polyline class="pdecat error" points=" 40,191.8319 46.1939,192.2738 52.3877,192.7184 58.5816,193.1666 64.7754,193.7701 70.9693,194.7475 77.1631,195.6803 83.357,196.5184 89.5508,197.199 95.7447,197.6376 101.9385,197.6955 108.1324,197.0777 114.3262,196.6215 120.5201,196.3134 126.7139,196.1412 132.9078,196.0933 139.1017,196.1638 145.2955,196.4738 151.4894,196.8251 157.6832,197.2119 163.8771,197.6293 170.0709,198.0728 176.2648,198.5389 182.4586,199.0661 188.6525,199.7518 194.8463,200.4919 201.0402,201.2841 207.234,202.1275 213.4279,203.0031 219.6217,203.8462 225.8156,204.5366 232.0095,204.8801 238.2033,204.5161 244.3972,204.302 250.591,204.2191 256.7849,204.251 262.9787,204.3833 269.1726,204.6034 275.3664,204.9003 281.5603,205.2642 287.7541,205.6867 293.948,206.1603 300.1418,206.6788 306.3357,207.2306 312.5296,207.7907 318.7234,208.3261 324.9173,208.8214 331.1111,209.4337 337.305,210.142 343.4988,210.9145 349.6927,211.6871 355.8865,212.3635 362.0804,212.8102 368.2742,212.8003 374.4681,212.9939 380.6619,213.3658 386.8558,213.8953 393.0496,214.5651 399.2435,215.3602 405.4374,216.2683 411.6312,217.2788 417.8251,218.3833 424.0189,219.575 430.2128,220.8491 436.4066,222.2028 442.6005,223.6138 448.7943,225.0065 454.9882,226.2398 461.182,227.0989 467.3759,227.2578 473.5697,226.1323 479.7636,225.2712 485.9574,224.643 492.1513,224.2201 498.3452,223.9776 504.539,223.8934 510.7329,223.9475 516.9267,224.1199 523.1206,224.3859 529.3144,224.7178 535.5083,225.1028 541.7021,225.6154 547.896,226.3151 554.0898,227.1822 560.2837,228.1693 566.4775,229.1292 572.6714,229.7904 578.8652,229.6625 585.0591,229.8001 591.253,230.1252 597.4468,230.5199 603.6407,230.8043 609.8345,230.6678 616.0284,230.5741 622.2222,230.2254 622.2222,259.6919 616.0284,259.4788 609.8345,259.5226 603.6407,259.5885 597.4468,259.7502 591.253,259.8818 585.0591,259.9224 578.8652,259.8447 572.6714,259.6393 566.4775,259.3681 560.2837,258.9574 554.0898,258.3659 547.896,257.5769 541.7021,256.5839 535.5083,256.1554 529.3144,255.917 523.1206,256.4943 516.9267,257.4371 510.7329,258.4972 504.539,259.5413 498.3452,260.5337 492.1513,261.4788 485.9574,262.3809 479.7636,263.244 473.5697,264.0723 467.3759,264.87 461.182,265.1827 454.9882,265.2107 448.7943,265.0489 442.6005,264.7522 436.4066,264.3527 430.2128,263.8646 424.0189,263.2862 417.8251,262.6103 411.6312,261.8301 405.4374,260.939 399.2435,259.9311 393.0496,258.8005 386.8558,257.5417 380.6619,256.1491 374.4681,254.6171 368.2742,252.9392 362.0804,251.1079 355.8865,250.7213 349.6927,250.8382 343.4988,251.0347 337.305,251.0659 331.1111,250.8045 324.9173,250.2099 318.7234,249.2692 312.5296,249.6696 306.3357,250.595 300.1418,251.6347 293.948,252.577 287.7541,253.3627 281.5603,253.9931 275.3664,254.4681 269.1726,254.7859 262.9787,254.9434 256.7849,254.9364 250.591,254.7595 244.3972,254.406 238.2033,253.8682 232.0095,253.1369 225.8156,253.2964 219.6217,253.8548 213.4279,254.5535 207.234,255.2359 201.0402,255.8197 194.8463,256.281 188.6525,256.6178 182.4586,256.8274 176.2648,256.8051 170.0709,256.6483 163.8771,256.3961 157.6832,256.0459 151.4894,255.5952 145.2955,255.0416 139.1017,254.3833 132.9078,253.4265 126.7139,252.2987 120.5201,251.0013 114.3262,249.5317 108.1324,247.8879 101.9385,246.0682 95.7447,245.7629 89.5508,246.2435 83.357,247.2055 77.1631,248.4771 70.9693,249.9353 64.7754,251.481 58.5816,252.6575 52.3877,253.6604 46.1939,254.6349 40,255.5824"></polyline>
<text class = "party pdecat" x="631.1111" y="230"><tspan class="party_name">PDeCAT</tspan> <tspan class="party_result">(10.6±1.8%)</tspan> </text>
<polyline class="cec" points=" 40,236.2363 46.1939,236.0919 52.3877,235.9404 58.5816,235.7814 64.7754,235.6168 70.9693,235.4536 77.1631,235.3031 83.357,235.1807 89.5508,235.1051 95.7447,235.104 101.9385,235.2301 108.1324,235.6213 114.3262,236.0138 120.5201,236.4044 126.7139,236.7907 132.9078,237.1704 139.1017,237.5417 145.2955,237.9034 151.4894,238.2546 157.6832,238.5949 163.8771,238.9241 170.0709,239.2425 176.2648,239.5507 182.4586,239.8495 188.6525,240.1403 194.8463,240.4244 201.0402,240.7038 207.234,240.9804 213.4279,241.2485 219.6217,241.4819 225.8156,241.6296 232.0095,241.6036 238.2033,241.2168 244.3972,240.8496 250.591,240.4984 256.7849,240.16 262.9787,239.8311 269.1726,239.5086 275.3664,239.1896 281.5603,238.8711 287.7541,238.5501 293.948,238.2239 300.1418,237.8892 306.3357,237.5616 312.5296,237.2996 318.7234,237.2169 324.9173,237.5494 331.1111,237.8107 337.305,238.0045 343.4988,238.1378 349.6927,238.228 355.8865,238.3085 362.0804,238.4378 368.2742,238.7509 374.4681,239.0565 380.6619,239.3506 386.8558,239.6296 393.0496,239.8905 399.2435,240.1309 405.4374,240.3483 411.6312,240.5409 417.8251,240.7066 424.0189,240.8436 430.2128,240.9498 436.4066,241.0233 442.6005,241.0666 448.7943,241.096 454.9882,241.1475 461.182,241.2815 467.3759,241.598 473.5697,242.2861 479.7636,242.9336 485.9574,243.541 492.1513,244.1093 498.3452,244.6402 504.539,245.1358 510.7329,245.5989 516.9267,246.0135 523.1206,246.3173 529.3144,246.3885 535.5083,245.981 541.7021,245.8214 547.896,246.0245 554.0898,246.2137 560.2837,246.3907 566.4775,246.5917 572.6714,246.9137 578.8652,247.584 585.0591,248.2471 591.253,248.8925 597.4468,249.5166 603.6407,250.1214 609.8345,250.712 616.0284,251.2087 622.2222,251.4567"></polyline>
<polyline class="cec error" points=" 40,208.8706 46.1939,209.409 52.3877,209.9542 58.5816,210.507 64.7754,211.1715 70.9693,212.0942 77.1631,212.9717 83.357,213.7552 89.5508,214.3841 95.7447,214.7768 101.9385,214.7964 108.1324,214.1409 114.3262,213.6303 120.5201,213.2555 126.7139,213.0083 132.9078,212.8808 139.1017,212.8688 145.2955,213.0571 151.4894,213.3068 157.6832,213.614 163.8771,213.9751 170.0709,214.3871 176.2648,214.8474 182.4586,215.3835 188.6525,216.0638 194.8463,216.8163 201.0402,217.6406 207.234,218.5373 213.4279,219.4817 219.6217,220.3827 225.8156,221.0687 232.0095,221.2533 238.2033,220.3744 244.3972,219.6629 250.591,219.1038 256.7849,218.6839 262.9787,218.3914 269.1726,218.2154 275.3664,218.1465 281.5603,218.1763 287.7541,218.2975 293.948,218.5037 300.1418,218.7898 306.3357,219.1402 312.5296,219.5113 318.7234,219.825 324.9173,219.9568 331.1111,220.2168 337.305,220.5949 343.4988,221.067 349.6927,221.5681 355.8865,221.9839 362.0804,222.1312 368.2742,221.6365 374.4681,221.2849 380.6619,221.0589 386.8558,220.944 393.0496,220.9276 399.2435,220.9988 405.4374,221.1479 411.6312,221.3661 417.8251,221.6454 424.0189,221.9783 430.2128,222.3582 436.4066,222.7784 442.6005,223.232 448.7943,223.7111 454.9882,224.2084 461.182,224.7209 467.3759,225.2578 473.5697,225.8611 479.7636,226.547 485.9574,227.3039 492.1513,228.1226 498.3452,228.9956 504.539,229.9174 510.7329,230.8844 516.9267,231.8553 523.1206,232.6968 529.3144,233.1626 535.5083,232.796 541.7021,232.6545 547.896,232.7155 554.0898,232.9216 560.2837,233.2527 566.4775,233.6776 572.6714,234.1651 578.8652,234.7127 585.0591,235.42 591.253,236.2394 597.4468,237.1056 603.6407,237.9189 609.8345,238.5009 616.0284,238.994 622.2222,239.0124 622.2222,263.9009 616.0284,263.4233 609.8345,262.9232 603.6407,262.3239 597.4468,261.9277 591.253,261.5455 585.0591,261.0741 578.8652,260.4554 572.6714,259.6624 566.4775,259.5058 560.2837,259.5287 554.0898,259.5057 547.896,259.3336 541.7021,258.9882 535.5083,259.166 529.3144,259.6145 523.1206,259.9379 516.9267,260.1717 510.7329,260.3135 504.539,260.3542 498.3452,260.2848 492.1513,260.0961 485.9574,259.778 479.7636,259.3202 473.5697,258.7111 467.3759,257.9381 461.182,257.8421 454.9882,258.0866 448.7943,258.4809 442.6005,258.9011 436.4066,259.2683 430.2128,259.5415 424.0189,259.7088 417.8251,259.7678 411.6312,259.7157 405.4374,259.5488 399.2435,259.2629 393.0496,258.8534 386.8558,258.3151 380.6619,257.6422 374.4681,256.8282 368.2742,255.8653 362.0804,254.7443 355.8865,254.6332 349.6927,254.8879 343.4988,255.2085 337.305,255.4141 331.1111,255.4045 324.9173,255.1421 318.7234,254.6088 312.5296,255.0879 306.3357,255.983 300.1418,256.9887 293.948,257.944 287.7541,258.8028 281.5603,259.5658 275.3664,260.2327 269.1726,260.8019 262.9787,261.2708 256.7849,261.636 250.591,261.893 244.3972,262.0363 238.2033,262.0592 232.0095,261.9539 225.8156,262.1905 219.6217,262.581 213.4279,263.0154 207.234,263.4235 201.0402,263.7669 194.8463,264.0326 188.6525,264.2168 182.4586,264.3156 176.2648,264.2539 170.0709,264.0979 163.8771,263.8731 157.6832,263.5758 151.4894,263.2024 145.2955,262.7498 139.1017,262.2147 132.9078,261.46 126.7139,260.5731 120.5201,259.5534 114.3262,258.3972 108.1324,257.1016 101.9385,255.6637 95.7447,255.4312 89.5508,255.8261 83.357,256.6063 77.1631,257.6346 70.9693,258.8129 64.7754,260.0622 58.5816,261.0559 52.3877,261.9267 46.1939,262.7749 40,263.6019"></polyline>
<text class = "party cec" x="631.1111" y="250"><tspan class="party_name">CeC</tspan> <tspan class="party_result">(9.8±1.5%)</tspan></text>
<polyline class="psc" points=" 40,221.9746 46.1939,221.8274 52.3877,221.6709 58.5816,221.5042 64.7754,221.3295 70.9693,221.155 77.1631,220.9949 83.357,220.8686 89.5508,220.8006 95.7447,220.8275 101.9385,221.0201 108.1324,221.5623 114.3262,222.1181 120.5201,222.6844 126.7139,223.2586 132.9078,223.8386 139.1017,224.423 145.2955,225.0109 151.4894,225.6019 157.6832,226.1963 163.8771,226.7949 170.0709,227.3989 176.2648,228.0105 182.4586,228.6321 188.6525,229.2669 194.8463,229.9188 201.0402,230.5923 207.234,231.2929 213.4279,232.0004 219.6217,232.6291 225.8156,233.0118 232.0095,232.8593 238.2033,231.561 244.3972,230.3422 250.591,229.1965 256.7849,228.1176 262.9787,227.0987 269.1726,226.1331 275.3664,225.2139 281.5603,224.3344 287.7541,223.4877 293.948,222.6665 300.1418,221.8637 306.3357,221.1065 312.5296,220.5013 318.7234,220.2522 324.9173,220.7816 331.1111,221.1882 337.305,221.4836 343.4988,221.6829 349.6927,221.818 355.8865,221.946 362.0804,222.1661 368.2742,222.7095 374.4681,223.2575 380.6619,223.8078 386.8558,224.3596 393.0496,224.913 399.2435,225.4689 405.4374,226.0287 411.6312,226.5949 417.8251,227.1705 424.0189,227.7591 430.2128,228.3655 436.4066,228.9952 442.6005,229.6393 448.7943,230.2481 454.9882,230.7197 461.182,230.8895 467.3759,230.4938 473.5697,229.0371 479.7636,227.7131 485.9574,226.5097 492.1513,225.4155 498.3452,224.4205 504.539,223.5151 510.7329,222.6904 516.9267,221.9554 523.1206,221.3548 529.3144,220.9695 535.5083,220.9514 541.7021,220.7842 547.896,220.3986 554.0898,219.9542 560.2837,219.4825 566.4775,219.0904 572.6714,218.9896 578.8652,219.6024 585.0591,220.1205 591.253,220.5179 597.4468,220.7236 603.6407,220.619 609.8345,219.9961 616.0284,219.5007 622.2222,219.2326"></polyline>
<polyline class="psc error" points=" 40,189.3342 46.1939,189.8892 52.3877,190.4496 58.5816,191.0158 64.7754,191.7462 70.9693,192.8681 77.1631,193.9364 83.357,194.8936 89.5508,195.6692 95.7447,196.1684 101.9385,196.2346 108.1324,195.5265 114.3262,195.0054 120.5201,194.6608 126.7139,194.4828 132.9078,194.4623 139.1017,194.596 145.2955,195.014 151.4894,195.5101 157.6832,196.0805 163.8771,196.7227 170.0709,197.4344 176.2648,198.2146 182.4586,199.1069 188.6525,200.217 194.8463,201.439 201.0402,202.7749 207.234,204.2286 213.4279,205.7566 219.6217,207.194 225.8156,208.2255 232.0095,208.3187 238.2033,206.4005 244.3972,204.7396 250.591,203.3167 256.7849,202.1135 262.9787,201.1132 269.1726,200.3 275.3664,199.6596 281.5603,199.1786 287.7541,198.845 293.948,198.6479 300.1418,198.5774 306.3357,198.6241 312.5296,198.7725 318.7234,198.9962 324.9173,199.2865 331.1111,199.6936 337.305,200.2122 343.4988,200.8206 349.6927,201.4517 355.8865,201.9849 362.0804,202.2283 368.2742,201.8015 374.4681,201.5624 380.6619,201.4925 386.8558,201.5772 393.0496,201.805 399.2435,202.1666 405.4374,202.6547 411.6312,203.2636 417.8251,203.989 424.0189,204.8283 430.2128,205.7803 436.4066,206.8456 442.6005,208.0032 448.7943,209.1714 454.9882,210.1914 461.182,210.8144 467.3759,210.655 473.5697,209.0151 479.7636,207.6625 485.9574,206.5712 492.1513,205.7181 498.3452,205.0825 504.539,204.6458 510.7329,204.3914 516.9267,204.2988 523.1206,204.3292 529.3144,204.4163 535.5083,204.4647 541.7021,204.3216 547.896,203.7421 554.0898,203.2987 560.2837,202.997 566.4775,202.8632 572.6714,202.9518 578.8652,203.402 585.0591,203.9622 591.253,204.5601 597.4468,205.0468 603.6407,205.1749 609.8345,204.5016 616.0284,203.9691 622.2222,203.3967 622.2222,235.0684 616.0284,235.0324 609.8345,235.4906 603.6407,236.0631 597.4468,236.4004 591.253,236.4757 585.0591,236.2788 578.8652,235.8027 572.6714,235.0275 566.4775,235.3175 560.2837,235.9679 554.0898,236.6097 547.896,237.0552 541.7021,237.2467 535.5083,237.4381 529.3144,237.5227 523.1206,238.3804 516.9267,239.612 510.7329,240.9894 504.539,242.3844 498.3452,243.7585 492.1513,245.113 485.9574,246.4482 479.7636,247.7638 473.5697,249.0591 467.3759,250.3325 461.182,250.9646 454.9882,251.248 448.7943,251.3248 442.6005,251.2754 436.4066,251.1448 430.2128,250.9507 424.0189,250.6899 417.8251,250.3519 411.6312,249.9263 405.4374,249.4028 399.2435,248.7712 393.0496,248.0211 386.8558,247.1421 380.6619,246.1231 374.4681,244.9525 368.2742,243.6176 362.0804,242.1039 355.8865,241.9071 349.6927,242.1843 343.4988,242.5452 337.305,242.755 331.1111,242.6829 324.9173,242.2767 318.7234,241.5081 312.5296,242.2302 306.3357,243.5888 300.1418,245.15 293.948,246.6851 287.7541,248.1303 281.5603,249.4903 275.3664,250.7683 269.1726,251.9661 262.9787,253.0842 256.7849,254.1216 250.591,255.0763 244.3972,255.9447 238.2033,256.7216 232.0095,257.3999 225.8156,257.798 219.6217,258.0641 213.4279,258.2443 207.234,258.3573 201.0402,258.4097 194.8463,258.3986 188.6525,258.3168 182.4586,258.1573 176.2648,257.8064 170.0709,257.3635 163.8771,256.8671 157.6832,256.3121 151.4894,255.6938 145.2955,255.0078 139.1017,254.2501 132.9078,253.2149 126.7139,252.0344 120.5201,250.708 114.3262,249.2308 108.1324,247.5981 101.9385,245.8055 95.7447,245.4866 89.5508,245.9319 83.357,246.8435 77.1631,248.0535 70.9693,249.4418 64.7754,250.9128 58.5816,251.9926 52.3877,252.8922 46.1939,253.7657 40,254.615"></polyline>
<text class = "party psc" x="631.1111" y="208"><tspan class="party_name">PSC</tspan> <tspan class="party_result">(13.7±1.9%)</text>
<polyline class="cs" points=" 40,185.8268 46.1939,185.901 52.3877,185.9782 58.5816,186.0584 64.7754,186.1407 70.9693,186.222 77.1631,186.2972 83.357,186.3599 89.5508,186.4026 95.7447,186.4142 101.9385,186.374 108.1324,186.2276 114.3262,186.0853 120.5201,185.9488 126.7139,185.8194 132.9078,185.6983 139.1017,185.5865 145.2955,185.4847 151.4894,185.3935 157.6832,185.3133 163.8771,185.2444 170.0709,185.1869 176.2648,185.1409 182.4586,185.1063 188.6525,185.0829 194.8463,185.0707 201.0402,185.0692 207.234,185.0783 213.4279,185.0963 219.6217,185.1189 225.8156,185.138 232.0095,185.1411 238.2033,185.104 244.3972,185.0809 250.591,185.0729 256.7849,185.0809 262.9787,185.1055 269.1726,185.1473 275.3664,185.2071 281.5603,185.2851 287.7541,185.3818 293.948,185.4976 300.1418,185.6329 306.3357,185.7798 312.5296,185.9121 318.7234,185.9816 324.9173,185.8949 331.1111,185.8645 337.305,185.8919 343.4988,185.9692 349.6927,186.0636 355.8865,186.1116 362.0804,186.0014 368.2742,185.4649 374.4681,184.9457 380.6619,184.4461 386.8558,183.9679 393.0496,183.5129 399.2435,183.0823 405.4374,182.6776 411.6312,182.2997 417.8251,181.9493 424.0189,181.6271 430.2128,181.3337 436.4066,181.0693 442.6005,180.8343 448.7943,180.628 454.9882,180.4472 461.182,180.2842 467.3759,180.125 473.5697,179.9425 479.7636,179.7716 485.9574,179.6176 492.1513,179.4857 498.3452,179.3808 504.539,179.3078 510.7329,179.272 516.9267,179.2551 523.1206,179.1743 529.3144,178.8525 535.5083,177.9193 541.7021,177.1735 547.896,176.6175 554.0898,176.0431 560.2837,175.4749 566.4775,174.9655 572.6714,174.5969 578.8652,174.506 585.0591,174.3583 591.253,174.1461 597.4468,173.8259 603.6407,173.3167 609.8345,172.4735 616.0284,171.7847 622.2222,171.4205"></polyline>
<polyline class="cs error" points=" 40,154.5257 46.1939,155.3533 52.3877,156.2006 58.5816,157.069 64.7754,158.0781 70.9693,159.3902 77.1631,160.6312 83.357,161.7218 89.5508,162.5633 95.7447,163.0195 101.9385,162.8519 108.1324,161.5018 114.3262,160.3176 120.5201,159.2944 126.7139,158.4271 132.9078,157.7104 139.1017,157.143 145.2955,156.8273 151.4894,156.602 157.6832,156.4637 163.8771,156.409 170.0709,156.4348 176.2648,156.5378 182.4586,156.7495 188.6525,157.1493 194.8463,157.6507 201.0402,158.2513 207.234,158.9492 213.4279,159.722 219.6217,160.4931 225.8156,161.1186 232.0095,161.3633 238.2033,160.7837 244.3972,160.3868 250.591,160.1603 256.7849,160.0935 262.9787,160.1771 269.1726,160.4032 275.3664,160.7649 281.5603,161.2567 287.7541,161.8741 293.948,162.6138 300.1418,163.4739 306.3357,164.4107 312.5296,165.2782 318.7234,165.8041 324.9173,165.4722 331.1111,165.4282 337.305,165.6578 343.4988,166.1177 349.6927,166.6796 355.8865,167.1083 362.0804,167.0105 368.2742,165.5237 374.4681,164.2265 380.6619,163.1059 386.8558,162.1514 393.0496,161.3542 399.2435,160.7065 405.4374,160.2015 411.6312,159.8327 417.8251,159.5944 424.0189,159.4812 430.2128,159.4882 436.4066,159.6113 442.6005,159.8399 448.7943,160.1444 454.9882,160.4704 461.182,160.7343 467.3759,160.8121 473.5697,160.4971 479.7636,160.3379 485.9574,160.3269 492.1513,160.4577 498.3452,160.7255 504.539,161.1267 510.7329,161.6596 516.9267,162.277 523.1206,162.8135 529.3144,162.9461 535.5083,162.0573 541.7021,161.3234 547.896,160.5804 554.0898,160.0067 560.2837,159.6018 566.4775,159.3392 572.6714,159.147 578.8652,158.8831 585.0591,158.7593 591.253,158.725 597.4468,158.6631 603.6407,158.3703 609.8345,157.478 616.0284,156.7525 622.2222,156.0957 622.2222,186.7452 616.0284,186.8168 609.8345,187.4691 603.6407,188.2631 597.4468,188.9886 591.253,189.5672 585.0591,189.9573 578.8652,190.129 572.6714,190.0469 566.4775,190.5918 560.2837,191.3479 554.0898,192.0794 547.896,192.6545 541.7021,193.0235 535.5083,193.7813 529.3144,194.7588 523.1206,195.5352 516.9267,196.2332 510.7329,196.8844 504.539,197.4889 498.3452,198.0361 492.1513,198.5137 485.9574,198.9084 479.7636,199.2053 473.5697,199.388 467.3759,199.4378 461.182,199.8342 454.9882,200.4239 448.7943,201.1116 442.6005,201.8287 436.4066,202.5272 430.2128,203.1791 424.0189,203.7731 417.8251,204.3042 411.6312,204.7666 405.4374,205.1537 399.2435,205.4581 393.0496,205.6715 386.8558,205.7845 380.6619,205.7864 374.4681,205.665 368.2742,205.4061 362.0804,204.9923 355.8865,205.115 349.6927,205.4477 343.4988,205.8207 337.305,206.1259 331.1111,206.3007 324.9173,206.3176 318.7234,206.1592 312.5296,206.546 306.3357,207.149 300.1418,207.7918 293.948,208.3814 287.7541,208.8895 281.5603,209.3134 275.3664,209.6492 269.1726,209.8915 262.9787,210.0338 256.7849,210.0683 250.591,209.9856 244.3972,209.775 238.2033,209.4243 232.0095,208.9189 225.8156,209.1575 219.6217,209.7448 213.4279,210.4707 207.234,211.2074 201.0402,211.8872 194.8463,212.4906 188.6525,213.0166 182.4586,213.4631 176.2648,213.7439 170.0709,213.939 163.8771,214.0797 157.6832,214.1629 151.4894,214.185 145.2955,214.142 139.1017,214.03 132.9078,213.6862 126.7139,213.2117 120.5201,212.6032 114.3262,211.853 108.1324,210.9534 101.9385,209.8961 95.7447,209.809 89.5508,210.2419 83.357,210.9981 77.1631,211.9631 70.9693,213.0537 64.7754,214.2033 58.5816,215.0478 52.3877,215.7557 46.1939,216.4486 40,217.1279"></polyline>
<text class = "party cs" x="631.1111" y="171"><tspan class="party_name">C's</tspan> <tspan class="party_result">(19.4±1.8%)</tspan> </text>
<polyline class="pp" points=" 40,253.0045 46.1939,253.0327 52.3877,253.0642 58.5816,253.0992 64.7754,253.1373 70.9693,253.1762 77.1631,253.2121 83.357,253.2395 89.5508,253.2513 95.7447,253.2371 101.9385,253.1764 108.1324,253.0161 114.3262,252.85 120.5201,252.6793 126.7139,252.5046 132.9078,252.3268 139.1017,252.1464 145.2955,251.9638 151.4894,251.7795 157.6832,251.5935 163.8771,251.406 170.0709,251.2168 176.2648,251.0259 182.4586,250.8328 188.6525,250.637 194.8463,250.4381 201.0402,250.2352 207.234,250.0275 213.4279,249.82 219.6217,249.6328 225.8156,249.5035 232.0095,249.4952 238.2033,249.7392 244.3972,249.9577 250.591,250.1527 256.7849,250.326 262.9787,250.4799 269.1726,250.6163 275.3664,250.7376 281.5603,250.8459 287.7541,250.9439 293.948,251.0342 300.1418,251.1199 306.3357,251.1927 312.5296,251.2138 318.7234,251.0985 324.9173,250.6534 331.1111,250.2034 337.305,249.7436 343.4988,249.2831 349.6927,248.8634 355.8865,248.5604 362.0804,248.5008 368.2742,248.9907 374.4681,249.4416 380.6619,249.8568 386.8558,250.239 393.0496,250.5902 399.2435,250.9118 405.4374,251.205 411.6312,251.4709 417.8251,251.7099 424.0189,251.9227 430.2128,252.1093 436.4066,252.2698 442.6005,252.406 448.7943,252.5258 454.9882,252.6463 461.182,252.7978 467.3759,253.0308 473.5697,253.4425 479.7636,253.8433 485.9574,254.2328 492.1513,254.6114 498.3452,254.9799 504.539,255.34 510.7329,255.6944 516.9267,256.0234 523.1206,256.2511 529.3144,256.2259 535.5083,255.6399 541.7021,255.3845 547.896,255.6111 554.0898,255.8498 560.2837,256.092 566.4775,256.2989 572.6714,256.392 578.8652,256.2165 585.0591,256.0833 591.253,255.978 597.4468,255.8754 603.6407,255.7384 609.8345,255.5055 616.0284,255.322 622.2222,255.2033"></polyline>
<polyline class="pp error" points=" 40,227.058 46.1939,227.7539 52.3877,228.466 58.5816,229.1956 64.7754,230.0387 70.9693,231.1249 77.1631,232.1504 83.357,233.0483 89.5508,233.7352 95.7447,234.0954 101.9385,233.9253 108.1324,232.7432 114.3262,231.6896 120.5201,230.7606 126.7139,229.9525 132.9078,229.2612 139.1017,228.6854 145.2955,228.3077 151.4894,227.9979 157.6832,227.753 163.8771,227.5699 170.0709,227.4457 176.2648,227.3772 182.4586,227.3894 188.6525,227.5455 194.8463,227.7753 201.0402,228.0759 207.234,228.4448 213.4279,228.8696 219.6217,229.3097 225.8156,229.6893 232.0095,229.8858 238.2033,229.6814 244.3972,229.5933 250.591,229.6121 256.7849,229.7301 262.9787,229.941 269.1726,230.2394 275.3664,230.6214 281.5603,231.0839 287.7541,231.6252 293.948,232.2448 300.1418,232.9436 306.3357,233.6825 312.5296,234.3209 318.7234,234.5832 324.9173,233.9151 331.1111,233.4355 337.305,233.1265 343.4988,232.968 349.6927,232.9237 355.8865,232.9288 362.0804,232.8798 368.2742,232.5995 374.4681,232.4244 380.6619,232.345 386.8558,232.3533 393.0496,232.4424 399.2435,232.6058 405.4374,232.8376 411.6312,233.1324 417.8251,233.485 424.0189,233.8905 430.2128,234.3446 436.4066,234.843 442.6005,235.3782 448.7943,235.9342 454.9882,236.4862 461.182,237.0026 467.3759,237.4456 473.5697,237.7677 479.7636,238.1982 485.9574,238.7253 492.1513,239.3393 498.3452,240.0326 504.539,240.7994 510.7329,241.636 516.9267,242.4981 523.1206,243.2409 529.3144,243.5916 535.5083,243.0372 541.7021,242.7953 547.896,242.8867 554.0898,243.1442 560.2837,243.5374 566.4775,243.9604 572.6714,244.2057 578.8652,243.8853 585.0591,243.7695 591.253,243.8082 597.4468,243.9166 603.6407,243.9582 609.8345,243.6909 616.0284,243.4823 622.2222,243.1286 622.2222,267.2781 616.0284,267.1616 609.8345,267.3201 603.6407,267.5187 597.4468,267.8342 591.253,268.1477 585.0591,268.3972 578.8652,268.5476 572.6714,268.5783 566.4775,268.6374 560.2837,268.6466 554.0898,268.5554 547.896,268.3355 541.7021,267.9738 535.5083,268.2427 529.3144,268.8603 523.1206,269.2614 516.9267,269.5488 510.7329,269.7529 504.539,269.8807 498.3452,269.9271 492.1513,269.8834 485.9574,269.7403 479.7636,269.4883 473.5697,269.1173 467.3759,268.6161 461.182,268.5929 454.9882,268.8064 448.7943,269.1173 442.6005,269.4339 436.4066,269.6967 430.2128,269.874 424.0189,269.9548 417.8251,269.9348 411.6312,269.8093 405.4374,269.5724 399.2435,269.2177 393.0496,268.7379 386.8558,268.1247 380.6619,267.3687 374.4681,266.4588 368.2742,265.3819 362.0804,264.1218 355.8865,264.1919 349.6927,264.8031 343.4988,265.5981 337.305,266.3607 331.1111,266.9713 324.9173,267.3918 318.7234,267.6139 312.5296,268.1068 306.3357,268.7028 300.1418,269.2961 293.948,269.8235 287.7541,270.2625 281.5603,270.6079 275.3664,270.8537 269.1726,270.9932 262.9787,271.0188 256.7849,270.9219 250.591,270.6933 244.3972,270.3222 238.2033,269.797 232.0095,269.1045 225.8156,269.3177 219.6217,269.9559 213.4279,270.7705 207.234,271.6102 201.0402,272.3946 194.8463,273.1009 188.6525,273.7286 182.4586,274.2762 176.2648,274.6745 170.0709,274.988 163.8771,275.242 157.6832,275.434 151.4894,275.561 145.2955,275.6199 139.1017,275.6073 132.9078,275.3924 126.7139,275.0567 120.5201,274.5979 114.3262,274.0105 108.1324,273.2889 101.9385,272.4275 95.7447,272.3789 89.5508,272.7675 83.357,273.4306 77.1631,274.2737 70.9693,275.2276 64.7754,276.236 58.5816,277.0029 52.3877,277.6624 46.1939,278.3115 40,278.951"></polyline>
<text class = "party pp" x="631.1111" y="271"><tspan class="party_name">PP</tspan> <tspan class="party_result">(9.4±1.4%)</tspan> </text>
<polyline class="otros" points=" 40,308.9437 46.1939,309.0162 52.3877,309.0922 58.5816,309.1717 64.7754,309.2539 70.9693,309.3353 77.1631,309.4101 83.357,309.4706 89.5508,309.5071 95.7447,309.5055 101.9385,309.4387 108.1324,309.2357 114.3262,309.0308 120.5201,308.8254 126.7139,308.6209 132.9078,308.4181 139.1017,308.2178 145.2955,308.0204 151.4894,307.8264 157.6832,307.6358 163.8771,307.4484 170.0709,307.264 176.2648,307.0819 182.4586,306.9017 188.6525,306.7222 194.8463,306.5425 201.0402,306.3612 207.234,306.1768 213.4279,305.9941 219.6217,305.8346 225.8156,305.74 232.0095,305.7833 238.2033,306.1198 244.3972,306.4413 250.591,306.7501 256.7849,307.0486 262.9787,307.3394 269.1726,307.625 275.3664,307.9081 281.5603,308.1917 287.7541,308.4789 293.948,308.7729 300.1418,309.0776 306.3357,309.3746 312.5296,309.5898 318.7234,309.5742 324.9173,309.0074 331.1111,308.5008 337.305,308.0493 343.4988,307.6527 349.6927,307.3177 355.8865,307.0536 362.0804,306.8704 368.2742,306.795 374.4681,306.6954 380.6619,306.5769 386.8558,306.4434 393.0496,306.298 399.2435,306.1433 405.4374,305.9812 411.6312,305.8129 417.8251,305.6395 424.0189,305.4617 430.2128,305.2798 436.4066,305.0937 442.6005,304.9058 448.7943,304.7249 454.9882,304.5671 461.182,304.4569 467.3759,304.4311 473.5697,304.5563 479.7636,304.6474 485.9574,304.7065 492.1513,304.7353 498.3452,304.7348 504.539,304.7055 510.7329,304.6473 516.9267,304.5735 523.1206,304.5333 529.3144,304.6255 535.5083,305.0478 541.7021,305.4404 547.896,305.8658 554.0898,306.2731 560.2837,306.653 566.4775,306.9966 572.6714,307.3046 578.8652,307.6001 585.0591,307.9089 591.253,308.2357 597.4468,308.6109 603.6407,309.0909 609.8345,309.7766 616.0284,310.3389 622.2222,310.6445"></polyline>
<polyline class="otros error" points=" 40,287.6705 46.1939,288.3174 52.3877,288.9756 58.5816,289.6457 64.7754,290.4188 70.9693,291.4181 77.1631,292.3564 83.357,293.1732 89.5508,293.7937 95.7447,294.1145 101.9385,293.951 108.1324,292.8584 114.3262,291.8761 120.5201,291.0031 126.7139,290.2377 132.9078,289.5777 139.1017,289.0231 145.2955,288.6534 151.4894,288.3456 157.6832,288.0973 163.8771,287.906 170.0709,287.7687 176.2648,287.6827 182.4586,287.6709 188.6525,287.7934 194.8463,287.9825 201.0402,288.2347 207.234,288.5468 213.4279,288.9081 219.6217,289.2879 225.8156,289.6317 232.0095,289.8557 238.2033,289.8204 244.3972,289.8924 250.591,290.0648 256.7849,290.3317 262.9787,290.6883 269.1726,291.1308 275.3664,291.6562 281.5603,292.2627 287.7541,292.9491 293.948,293.7156 300.1418,294.5637 306.3357,295.4467 312.5296,296.1998 318.7234,296.5062 324.9173,295.7266 331.1111,295.175 337.305,294.8357 343.4988,294.6831 349.6927,294.6566 355.8865,294.6447 362.0804,294.4604 368.2742,293.7125 374.4681,293.0586 380.6619,292.4949 386.8558,292.0179 393.0496,291.624 399.2435,291.3097 405.4374,291.0715 411.6312,290.9056 417.8251,290.8082 424.0189,290.7757 430.2128,290.8043 436.4066,290.8904 442.6005,291.0283 448.7943,291.2063 454.9882,291.4047 461.182,291.5954 467.3759,291.7399 473.5697,291.7819 479.7636,291.8904 485.9574,292.0579 492.1513,292.2776 498.3452,292.5433 504.539,292.8488 510.7329,293.1885 516.9267,293.5559 523.1206,293.9462 529.3144,294.3648 535.5083,294.8551 541.7021,295.2888 547.896,295.6171 554.0898,296.0564 560.2837,296.5784 566.4775,297.1177 572.6714,297.5685 578.8652,297.7641 585.0591,298.1089 591.253,298.5781 597.4468,299.1538 603.6407,299.8134 609.8345,300.5158 616.0284,301.0946 622.2222,301.227 622.2222,320.0621 616.0284,319.5831 609.8345,319.0373 603.6407,318.3684 597.4468,318.0679 591.253,317.8932 585.0591,317.7088 578.8652,317.4361 572.6714,317.0406 566.4775,316.8755 560.2837,316.7276 554.0898,316.4897 547.896,316.1144 541.7021,315.5921 535.5083,315.2404 529.3144,314.8862 523.1206,315.1204 516.9267,315.5911 510.7329,316.1061 504.539,316.5622 498.3452,316.9263 492.1513,317.193 485.9574,317.3552 479.7636,317.4044 473.5697,317.3307 467.3759,317.1223 461.182,317.3185 454.9882,317.7296 448.7943,318.2435 442.6005,318.7834 436.4066,319.297 430.2128,319.7552 424.0189,320.1478 417.8251,320.4709 411.6312,320.7203 405.4374,320.8909 399.2435,320.977 393.0496,320.9721 386.8558,320.8689 380.6619,320.6588 374.4681,320.3322 368.2742,319.8774 362.0804,319.2804 355.8865,319.4624 349.6927,319.9788 343.4988,320.6223 337.305,321.263 331.1111,321.8266 324.9173,322.2883 318.7234,322.6422 312.5296,322.9799 306.3357,323.3026 300.1418,323.5916 293.948,323.8301 287.7541,324.0086 281.5603,324.1208 275.3664,324.16 269.1726,324.1191 262.9787,323.9904 256.7849,323.7655 250.591,323.4353 244.3972,322.9901 238.2033,322.4193 232.0095,321.711 225.8156,321.8482 219.6217,322.3812 213.4279,323.0802 207.234,323.8068 201.0402,324.4877 194.8463,325.1025 188.6525,325.651 182.4586,326.1324 176.2648,326.4812 170.0709,326.7592 163.8771,326.9908 157.6832,327.1742 151.4894,327.3072 145.2955,327.3874 139.1017,327.4124 132.9078,327.2585 126.7139,327.0041 120.5201,326.6478 114.3262,326.1854 108.1324,325.613 101.9385,324.9264 95.7447,324.8965 89.5508,325.2204 83.357,325.7679 77.1631,326.4637 70.9693,327.2526 64.7754,328.089 58.5816,328.6977 52.3877,329.2088 46.1939,329.7151 40,330.2169"></polyline>
<text class = "party otros" x="631.1111" y="312"><tspan class="party_name">Otros</tspan> <tspan class="party_result">(2.7±1.1%)</tspan> </text>

<text class="pie izquierda" x="0" y="395">Datos: Electograph | Modelo propio</text>
<text class="pie derecha" x="800" y="395">Jesús Carro | <tspan style="font-weight:bold">1datomas</tspan>.com</text>
</svg>
