<?xml version="1.0" encoding="utf-8"?><!DOCTYPE svg PUBLIC "-//W3C//DTD SVG 1.1//EN" "http://www.w3.org/Graphics/SVG/1.1/DTD/svg11.dtd">
<svg xmlns="http://www.w3.org/2000/svg" xmlns:xlink="http://www.w3.org/1999/xlink" version="1.1" viewBox="0 0 800 400" style="max-width:800;max-height:400">
<text x="0" y="20" style="font-size:large;font-weight:bold;color:black">Intención de voto en Elecciones Autonómicas en Cataluña</text>
<text x="0" y="40" style="color:gray">Promedio de encuestas y estimación de error</text>

<text class="horizontal axis" x="36" y="333.3333">0%</text>
<line class="horizontal axis" x1="40" y1="333.3333" x2="622.2222" y2="333.3333"></line>
<text class="horizontal axis" x="36" y="250">10%</text>
<line class="horizontal axis" x1="40" y1="250" x2="622.2222" y2="250"></line>
<text class="horizontal axis" x="36" y="166.6667">20%</text>
<line class="horizontal axis" x1="40" y1="166.6667" x2="622.2222" y2="166.6667"></line>
<text class="horizontal axis" x="36" y="83.3333">30%</text>
<line class="horizontal axis" x1="40" y1="83.3333" x2="622.2222" y2="83.3333"></line>
<line class="vertical axis" x1="40" y1="336.6667" x2="40" y2="66.6667"></line>
<text class="vertical axis" x="40" y="343.3333">Ago-2017</text>
<line class="vertical axis" x1="249.8708" y1="336.6667" x2="249.8708" y2="66.6667"></line>
<text class="vertical axis" x="249.8708" y="343.3333">Sep-2017</text>
<line class="vertical axis" x1="452.9716" y1="336.6667" x2="452.9716" y2="66.6667"></line>
<text class="vertical axis" x="452.9716" y="343.3333">Oct-2017</text>
<g id="encuesta-1">
<circle class="encuesta cup" cx="622.2222" cy="280.8333" r="3.1623" ></circle>
<circle class="encuesta erc" cx="622.2222" cy="113.3333" r="3.1623" ></circle>
<circle class="encuesta pdecat" cx="622.2222" cy="251.6667" r="3.1623" ></circle>
<circle class="encuesta cec" cx="622.2222" cy="241.6667" r="3.1623" ></circle>
<circle class="encuesta psc" cx="622.2222" cy="207.5" r="3.1623" ></circle>
<circle class="encuesta cs" cx="622.2222" cy="170" r="3.1623" ></circle>
<circle class="encuesta pp" cx="622.2222" cy="260.8333" r="3.1623" ></circle>
<circle class="encuesta otros" cx="622.2222" cy="307.5" r="3.1623" ></circle>
</g>
<g id="encuesta-2">
<circle class="encuesta cup" cx="588.3721" cy="286.6667" r="3.1623" ></circle>
<circle class="encuesta erc" cx="588.3721" cy="128.3333" r="3.1623" ></circle>
<circle class="encuesta pdecat" cx="588.3721" cy="232.5" r="3.1623" ></circle>
<circle class="encuesta cec" cx="588.3721" cy="238.3333" r="3.1623" ></circle>
<circle class="encuesta psc" cx="588.3721" cy="224.1667" r="3.1623" ></circle>
<circle class="encuesta cs" cx="588.3721" cy="173.3333" r="3.1623" ></circle>
<circle class="encuesta pp" cx="588.3721" cy="245.8333" r="3.1623" ></circle>
<circle class="encuesta otros" cx="588.3721" cy="304.1667" r="3.1623" ></circle>
</g>
<g id="encuesta-3">
<circle class="encuesta cup" cx="574.832" cy="268.3333" r="2.8284" ></circle>
<circle class="encuesta erc" cx="574.832" cy="99.1667" r="2.8284" ></circle>
<circle class="encuesta pdecat" cx="574.832" cy="233.3333" r="2.8284" ></circle>
<circle class="encuesta cec" cx="574.832" cy="258.3333" r="2.8284" ></circle>
<circle class="encuesta psc" cx="574.832" cy="212.5" r="2.8284" ></circle>
<circle class="encuesta cs" cx="574.832" cy="193.3333" r="2.8284" ></circle>
<circle class="encuesta pp" cx="574.832" cy="270.8333" r="2.8284" ></circle>
<circle class="encuesta otros" cx="574.832" cy="297.5" r="2.8284" ></circle>
</g>
<g id="encuesta-4">
<circle class="encuesta cup" cx="507.1318" cy="280.8333" r="2.8284" ></circle>
<circle class="encuesta erc" cx="507.1318" cy="68.3333" r="2.8284" ></circle>
<circle class="encuesta pdecat" cx="507.1318" cy="265.8333" r="2.8284" ></circle>
<circle class="encuesta cec" cx="507.1318" cy="233.3333" r="2.8284" ></circle>
<circle class="encuesta psc" cx="507.1318" cy="254.1667" r="2.8284" ></circle>
<circle class="encuesta cs" cx="507.1318" cy="180.8333" r="2.8284" ></circle>
<circle class="encuesta pp" cx="507.1318" cy="249.1667" r="2.8284" ></circle>
<circle class="encuesta otros" cx="507.1318" cy="300.8333" r="2.8284" ></circle>
</g>
<g id="encuesta-5">
<circle class="encuesta cup" cx="392.0413" cy="286.6667" r="3.5426" ></circle>
<circle class="encuesta erc" cx="392.0413" cy="124.1667" r="3.5426" ></circle>
<circle class="encuesta pdecat" cx="392.0413" cy="227.5" r="3.5426" ></circle>
<circle class="encuesta cec" cx="392.0413" cy="236.6667" r="3.5426" ></circle>
<circle class="encuesta psc" cx="392.0413" cy="219.1667" r="3.5426" ></circle>
<circle class="encuesta cs" cx="392.0413" cy="190" r="3.5426" ></circle>
<circle class="encuesta pp" cx="392.0413" cy="243.3333" r="3.5426" ></circle>
<circle class="encuesta otros" cx="392.0413" cy="305.8333" r="3.5426" ></circle>
</g>
<g id="encuesta-6">
<circle class="encuesta cup" cx="344.6512" cy="284.1667" r="2.8284" ></circle>
<circle class="encuesta erc" cx="344.6512" cy="127.5" r="2.8284" ></circle>
<circle class="encuesta pdecat" cx="344.6512" cy="220" r="2.8284" ></circle>
<circle class="encuesta cec" cx="344.6512" cy="231.6667" r="2.8284" ></circle>
<circle class="encuesta psc" cx="344.6512" cy="210" r="2.8284" ></circle>
<circle class="encuesta cs" cx="344.6512" cy="188.3333" r="2.8284" ></circle>
<circle class="encuesta pp" cx="344.6512" cy="255" r="2.8284" ></circle>
<circle class="encuesta otros" cx="344.6512" cy="316.6667" r="2.8284" ></circle>
</g>
<g id="encuesta-7">
<circle class="encuesta cup" cx="249.8708" cy="276.6667" r="2.6458" ></circle>
<circle class="encuesta erc" cx="249.8708" cy="100" r="2.6458" ></circle>
<circle class="encuesta pdecat" cx="249.8708" cy="227.5" r="2.6458" ></circle>
<circle class="encuesta cec" cx="249.8708" cy="246.6667" r="2.6458" ></circle>
<circle class="encuesta psc" cx="249.8708" cy="249.1667" r="2.6458" ></circle>
<circle class="encuesta cs" cx="249.8708" cy="185.8333" r="2.6458" ></circle>
<circle class="encuesta pp" cx="249.8708" cy="245.8333" r="2.6458" ></circle>
<circle class="encuesta otros" cx="249.8708" cy="301.6667" r="2.6458" ></circle>
</g>
<g id="encuesta-8">
<circle class="encuesta cup" cx="107.7003" cy="279.1667" r="3.5426" ></circle>
<circle class="encuesta erc" cx="107.7003" cy="134.1667" r="3.5426" ></circle>
<circle class="encuesta pdecat" cx="107.7003" cy="217.5" r="3.5426" ></circle>
<circle class="encuesta cec" cx="107.7003" cy="232.5" r="3.5426" ></circle>
<circle class="encuesta psc" cx="107.7003" cy="217.5" r="3.5426" ></circle>
<circle class="encuesta cs" cx="107.7003" cy="187.5" r="3.5426" ></circle>
<circle class="encuesta pp" cx="107.7003" cy="254.1667" r="3.5426" ></circle>
<circle class="encuesta otros" cx="107.7003" cy="310.8333" r="3.5426" ></circle>
</g>
<polyline class="cup" points=" 40,280.3109 46.77,280.3046 53.5401,280.2979 60.3101,280.291 67.0801,280.2839 73.8501,280.2768 80.6202,280.2705 87.3902,280.2661 94.1602,280.2652 100.9302,280.2703 107.7003,280.2847 114.4703,280.3136 121.2403,280.3419 128.0103,280.3696 134.7804,280.3966 141.5504,280.423 148.3204,280.4488 155.0904,280.4739 161.8605,280.4983 168.6305,280.5221 175.4005,280.5452 182.1705,280.5677 188.9406,280.5895 195.7106,280.6106 202.4806,280.631 209.2506,280.6507 216.0207,280.6697 222.7907,280.688 229.5607,280.7063 236.3307,280.7269 243.1008,280.7555 249.8708,280.8021 256.6408,280.8827 263.4109,280.9628 270.1809,281.0424 276.9509,281.1214 283.7209,281.1998 290.491,281.2778 297.261,281.3554 304.031,281.4325 310.801,281.5092 317.5711,281.5856 324.3411,281.6617 331.1111,281.7367 337.8811,281.8072 344.6512,281.8663 351.4212,281.902 358.1912,281.9406 364.9612,281.9822 371.7313,282.0253 378.5013,282.0645 385.2713,282.088 392.0413,282.0746 398.8114,281.9887 405.5814,281.9047 412.3514,281.8227 419.1214,281.7426 425.8915,281.6642 432.6615,281.5876 439.4315,281.5128 446.2016,281.4395 452.9716,281.3679 459.7416,281.2979 466.5116,281.2294 473.2817,281.1625 480.0517,281.097 486.8217,281.033 493.5917,280.9706 500.3618,280.9096 507.1318,280.8495 513.9018,280.7896 520.6718,280.7292 527.4419,280.6684 534.2119,280.6072 540.9819,280.5457 547.7519,280.4838 554.522,280.4215 561.292,280.3622 568.062,280.3196 574.832,280.3242 581.6021,280.4319 588.3721,280.5038 595.1421,280.5168 601.9121,280.5294 608.6822,280.5414 615.4522,280.5523 622.2222,280.5609"></polyline>
<polyline class="cup error" points=" 40,263.4382 46.77,263.642 53.5401,263.8472 60.3101,264.0538 67.0801,264.2615 73.8501,264.4681 80.6202,264.6695 87.3902,264.8587 94.1602,265.0253 100.9302,265.1554 107.7003,265.2296 114.4703,265.2211 121.2403,265.2236 128.0103,265.2365 134.7804,265.2596 141.5504,265.2924 148.3204,265.3347 155.0904,265.3862 161.8605,265.4464 168.6305,265.5152 175.4005,265.5921 182.1705,265.677 188.9406,265.7694 195.7106,265.8693 202.4806,265.9763 209.2506,266.0901 216.0207,266.2106 222.7907,266.3375 229.5607,266.47 236.3307,266.6061 243.1008,266.7414 249.8708,266.8692 256.6408,266.9795 263.4109,267.0991 270.1809,267.2278 276.9509,267.3653 283.7209,267.5115 290.491,267.6663 297.261,267.8294 304.031,268.0008 310.801,268.1804 317.5711,268.3679 324.3411,268.5633 331.1111,268.7632 337.8811,268.954 344.6512,269.1071 351.4212,269.1728 358.1912,269.2536 364.9612,269.3495 371.7313,269.457 378.5013,269.5625 385.2713,269.6364 392.0413,269.6263 398.8114,269.4453 405.5814,269.2778 412.3514,269.1237 419.1214,268.9827 425.8915,268.8548 432.6615,268.7397 439.4315,268.6373 446.2016,268.5474 452.9716,268.47 459.7416,268.4047 466.5116,268.3516 473.2817,268.3105 480.0517,268.2806 486.8217,268.2599 493.5917,268.2435 500.3618,268.2233 507.1318,268.1862 513.9018,268.1132 520.6718,268.051 527.4419,267.9996 534.2119,267.9591 540.9819,267.9297 547.7519,267.9112 554.522,267.9039 561.292,267.9084 568.062,267.9274 574.832,267.9672 581.6021,268.0403 588.3721,268.0524 595.1421,267.9531 601.9121,267.8648 608.6822,267.7846 615.4522,267.6986 622.2222,267.5726 622.2222,293.5493 615.4522,293.406 608.6822,293.2981 601.9121,293.194 595.1421,293.0805 588.3721,292.9551 581.6021,292.8234 574.832,292.6812 568.062,292.7118 561.292,292.816 554.522,292.9391 547.7519,293.0563 540.9819,293.1617 534.2119,293.2554 527.4419,293.3372 520.6718,293.4074 513.9018,293.4659 507.1318,293.5129 500.3618,293.5959 493.5917,293.6977 486.8217,293.8062 480.0517,293.9134 473.2817,294.0145 466.5116,294.1072 459.7416,294.1911 452.9716,294.2659 446.2016,294.3317 439.4315,294.3882 432.6615,294.4356 425.8915,294.4737 419.1214,294.5024 412.3514,294.5218 405.5814,294.5316 398.8114,294.532 392.0413,294.5229 385.2713,294.5396 378.5013,294.5665 371.7313,294.5936 364.9612,294.6148 358.1912,294.6277 351.4212,294.6312 344.6512,294.6254 337.8811,294.6603 331.1111,294.7101 324.3411,294.7601 317.5711,294.8033 310.801,294.8381 304.031,294.8641 297.261,294.8813 290.491,294.8894 283.7209,294.8881 276.9509,294.8774 270.1809,294.8569 263.4109,294.8265 256.6408,294.7859 249.8708,294.735 243.1008,294.7696 236.3307,294.8476 229.5607,294.9425 222.7907,295.0386 216.0207,295.1288 209.2506,295.2113 202.4806,295.2857 195.7106,295.3518 188.9406,295.4095 182.1705,295.4584 175.4005,295.4984 168.6305,295.5291 161.8605,295.5502 155.0904,295.5616 148.3204,295.5628 141.5504,295.5536 134.7804,295.5336 128.0103,295.5026 121.2403,295.4602 114.4703,295.406 107.7003,295.3398 100.9302,295.3852 94.1602,295.5051 87.3902,295.6736 80.6202,295.8716 73.8501,296.0855 67.0801,296.3062 60.3101,296.5282 53.5401,296.7487 46.77,296.9671 40,297.1837"></polyline>
<text class = "party cup" x="631.1111" y="289"><tspan class="party_name">CUP</tspan> (6.3±1.6%)</text>
<polyline class="erc" points=" 40,120.2242 46.77,120.3048 53.5401,120.3889 60.3101,120.4766 67.0801,120.567 73.8501,120.6566 80.6202,120.7373 87.3902,120.7955 94.1602,120.8108 100.9302,120.7541 107.7003,120.5836 114.4703,120.2375 121.2403,119.8991 128.0103,119.5685 134.7804,119.2457 141.5504,118.9309 148.3204,118.624 155.0904,118.325 161.8605,118.034 168.6305,117.7508 175.4005,117.4754 182.1705,117.2078 188.9406,116.9478 195.7106,116.6955 202.4806,116.4506 209.2506,116.2131 216.0207,115.9829 222.7907,115.7598 229.5607,115.5461 236.3307,115.351 243.1008,115.1946 249.8708,115.1116 256.6408,115.1567 263.4109,115.2013 270.1809,115.246 276.9509,115.2911 283.7209,115.3371 290.491,115.3843 297.261,115.4331 304.031,115.484 310.801,115.5373 317.5711,115.5933 324.3411,115.6525 331.1111,115.7109 337.8811,115.7519 344.6512,115.7379 351.4212,115.6018 358.1912,115.4747 364.9612,115.3569 371.7313,115.2461 378.5013,115.132 385.2713,114.9902 392.0413,114.7756 398.8114,114.4095 405.5814,114.0414 412.3514,113.6717 419.1214,113.3005 425.8915,112.928 432.6615,112.5543 439.4315,112.1798 446.2016,111.8046 452.9716,111.4289 459.7416,111.0529 466.5116,110.6768 473.2817,110.3008 480.0517,109.9281 486.8217,109.5718 493.5917,109.2599 500.3618,109.0412 507.1318,108.9909 513.9018,109.2207 520.6718,109.4439 527.4419,109.6607 534.2119,109.871 540.9819,110.075 547.7519,110.2726 554.522,110.4638 561.292,110.6507 568.062,110.8422 574.832,111.0601 581.6021,111.347 588.3721,111.5406 595.1421,111.5772 601.9121,111.6159 608.6822,111.6558 615.4522,111.6934 622.2222,111.7212"></polyline>
<polyline class="erc error" points=" 40,90.1412 46.77,90.5802 53.5401,91.0261 60.3101,91.4789 67.0801,91.937 73.8501,92.3926 80.6202,92.8292 87.3902,93.219 94.1602,93.5209 100.9302,93.6767 107.7003,93.6048 114.4703,93.1874 121.2403,92.7975 128.0103,92.4346 134.7804,92.0982 141.5504,91.7877 148.3204,91.5026 155.0904,91.2424 161.8605,91.0065 168.6305,90.7943 175.4005,90.6054 182.1705,90.4393 188.9406,90.2953 195.7106,90.173 202.4806,90.0719 209.2506,89.9914 216.0207,89.9311 222.7907,89.8905 229.5607,89.8695 236.3307,89.8693 243.1008,89.8928 249.8708,89.9454 256.6408,90.0365 263.4109,90.1443 270.1809,90.2687 276.9509,90.4099 283.7209,90.568 290.491,90.7432 297.261,90.9354 304.031,91.1449 310.801,91.3717 317.5711,91.616 324.3411,91.878 331.1111,92.1491 337.8811,92.395 344.6512,92.5405 351.4212,92.4523 358.1912,92.3945 364.9612,92.3671 371.7313,92.3643 378.5013,92.3617 385.2713,92.3046 392.0413,92.0941 398.8114,91.5632 405.5814,91.0505 412.3514,90.556 419.1214,90.0796 425.8915,89.6214 432.6615,89.1813 439.4315,88.7594 446.2016,88.3556 452.9716,87.97 459.7416,87.6026 466.5116,87.2533 473.2817,86.9223 480.0517,86.6116 486.8217,86.3307 493.5917,86.0997 500.3618,85.9536 507.1318,85.9469 513.9018,86.1609 520.6718,86.3877 527.4419,86.6276 534.2119,86.8808 540.9819,87.1473 547.7519,87.4273 554.522,87.7208 561.292,88.025 568.062,88.3291 574.832,88.6107 581.6021,88.8335 588.3721,88.9204 595.1421,88.7609 601.9121,88.6234 608.6822,88.5026 615.4522,88.3712 622.2222,88.1645 622.2222,135.2778 615.4522,135.0156 608.6822,134.809 601.9121,134.6084 595.1421,134.3935 588.3721,134.1607 581.6021,133.8605 574.832,133.5094 568.062,133.3553 561.292,133.2763 554.522,133.2069 547.7519,133.118 540.9819,133.0027 534.2119,132.8613 527.4419,132.6938 520.6718,132.5001 513.9018,132.2805 507.1318,132.0349 500.3618,132.1287 493.5917,132.4201 486.8217,132.8129 480.0517,133.2446 473.2817,133.6793 466.5116,134.1003 459.7416,134.5032 452.9716,134.8878 446.2016,135.2536 439.4315,135.6003 432.6615,135.9274 425.8915,136.2345 419.1214,136.5213 412.3514,136.7874 405.5814,137.0323 398.8114,137.2557 392.0413,137.4571 385.2713,137.6758 378.5013,137.9022 371.7313,138.1279 364.9612,138.3467 358.1912,138.5549 351.4212,138.7513 344.6512,138.9353 337.8811,139.1087 331.1111,139.2728 324.3411,139.427 317.5711,139.5706 310.801,139.7028 304.031,139.8231 297.261,139.9309 290.491,140.0254 283.7209,140.1061 276.9509,140.1723 270.1809,140.2233 263.4109,140.2584 256.6408,140.2768 249.8708,140.2778 243.1008,140.4965 236.3307,140.8328 229.5607,141.2228 222.7907,141.6292 216.0207,142.0347 209.2506,142.4348 202.4806,142.8293 195.7106,143.2179 188.9406,143.6003 182.1705,143.9763 175.4005,144.3453 168.6305,144.7072 161.8605,145.0615 155.0904,145.4077 148.3204,145.7454 141.5504,146.0741 134.7804,146.3933 128.0103,146.7023 121.2403,147.0006 114.4703,147.2875 107.7003,147.5623 100.9302,147.8314 94.1602,148.1007 87.3902,148.3719 80.6202,148.6454 73.8501,148.9206 67.0801,149.1971 60.3101,149.4742 53.5401,149.7517 46.77,150.0294 40,150.3072"></polyline>
<text class = "party erc" x="631.1111" y="112"><tspan class="party_name">ERC</tspan> (26.6±2.8%)</text>
<polyline class="pdecat" points=" 40,226.0798 46.77,226.0407 53.5401,225.9987 60.3101,225.9537 67.0801,225.9061 73.8501,225.8582 80.6202,225.8151 87.3902,225.7851 94.1602,225.7809 100.9302,225.8207 107.7003,225.9303 114.4703,226.1483 121.2403,226.3609 128.0103,226.5679 134.7804,226.7692 141.5504,226.9646 148.3204,227.1542 155.0904,227.3378 161.8605,227.5154 168.6305,227.6869 175.4005,227.8523 182.1705,228.0115 188.9406,228.1644 195.7106,228.3112 202.4806,228.4516 209.2506,228.5858 216.0207,228.7136 222.7907,228.8352 229.5607,228.9506 236.3307,229.0609 243.1008,229.1687 249.8708,229.2786 256.6408,229.3991 263.4109,229.5157 270.1809,229.6281 276.9509,229.736 283.7209,229.8391 290.491,229.9371 297.261,230.0298 304.031,230.1169 310.801,230.1981 317.5711,230.2731 324.3411,230.3416 331.1111,230.4072 337.8811,230.485 344.6512,230.6092 351.4212,230.8431 358.1912,231.0693 364.9612,231.2874 371.7313,231.4982 378.5013,231.7062 385.2713,231.9238 392.0413,232.1746 398.8114,232.5026 405.5814,232.8352 412.3514,233.172 419.1214,233.5126 425.8915,233.8566 432.6615,234.2036 439.4315,234.5532 446.2016,234.905 452.9716,235.2586 459.7416,235.6137 466.5116,235.9698 473.2817,236.3267 480.0517,236.6817 486.8217,237.0257 493.5917,237.3389 500.3618,237.5877 507.1318,237.7203 513.9018,237.6611 520.6718,237.6085 527.4419,237.5624 534.2119,237.5224 540.9819,237.4884 547.7519,237.4599 554.522,237.4368 561.292,237.4206 568.062,237.4187 574.832,237.4478 581.6021,237.5394 588.3721,237.6661 595.1421,237.8515 601.9121,238.0491 608.6822,238.253 615.4522,238.4366 622.2222,238.5381"></polyline>
<polyline class="pdecat error" points=" 40,201.8239 46.77,202.0765 53.5401,202.3286 60.3101,202.5803 67.0801,202.8312 73.8501,203.0806 80.6202,203.3266 87.3902,203.5664 94.1602,203.7965 100.9302,204.012 107.7003,204.2077 114.4703,204.378 121.2403,204.5589 128.0103,204.7497 134.7804,204.9497 141.5504,205.1584 148.3204,205.3752 155.0904,205.5995 161.8605,205.8309 168.6305,206.0688 175.4005,206.3128 182.1705,206.5626 188.9406,206.8176 195.7106,207.0774 202.4806,207.3418 209.2506,207.6103 216.0207,207.8826 222.7907,208.1584 229.5607,208.4361 236.3307,208.71 243.1008,208.9684 249.8708,209.1924 256.6408,209.3531 263.4109,209.5237 270.1809,209.7034 276.9509,209.8917 283.7209,210.0881 290.491,210.2919 297.261,210.5028 304.031,210.7202 310.801,210.9435 317.5711,211.1722 324.3411,211.406 331.1111,211.6447 337.8811,211.8898 344.6512,212.1464 351.4212,212.4265 358.1912,212.716 364.9612,213.0141 371.7313,213.3187 378.5013,213.6234 385.2713,213.9163 392.0413,214.1791 398.8114,214.3868 405.5814,214.6155 412.3514,214.8647 419.1214,215.1337 425.8915,215.4218 432.6615,215.7287 439.4315,216.0535 446.2016,216.3959 452.9716,216.7551 459.7416,217.1306 466.5116,217.5219 473.2817,217.9284 480.0517,218.3466 486.8217,218.7638 493.5917,219.1533 500.3618,219.4691 507.1318,219.6407 513.9018,219.565 520.6718,219.5117 527.4419,219.4807 534.2119,219.4717 540.9819,219.4847 547.7519,219.5193 554.522,219.5754 561.292,219.6507 568.062,219.7368 574.832,219.8155 581.6021,219.8556 588.3721,219.8987 595.1421,219.9323 601.9121,219.9943 608.6822,220.0751 615.4522,220.1286 622.2222,220.0455 622.2222,257.0307 615.4522,256.7446 608.6822,256.431 601.9121,256.104 595.1421,255.7708 588.3721,255.4335 581.6021,255.2232 574.832,255.0801 568.062,255.1006 561.292,255.1905 554.522,255.2982 547.7519,255.4005 540.9819,255.492 534.2119,255.5731 527.4419,255.6442 520.6718,255.7054 513.9018,255.7572 507.1318,255.8 500.3618,255.7062 493.5917,255.5245 486.8217,255.2876 480.0517,255.0169 473.2817,254.725 466.5116,254.4177 459.7416,254.0967 452.9716,253.7621 446.2016,253.4141 439.4315,253.0528 432.6615,252.6785 425.8915,252.2913 419.1214,251.8916 412.3514,251.4793 405.5814,251.0549 398.8114,250.6184 392.0413,250.1701 385.2713,249.9313 378.5013,249.7891 371.7313,249.6776 364.9612,249.5607 358.1912,249.4225 351.4212,249.2596 344.6512,249.0721 337.8811,249.0801 331.1111,249.1697 324.3411,249.2773 317.5711,249.374 310.801,249.4527 304.031,249.5137 297.261,249.5569 290.491,249.5823 283.7209,249.5901 276.9509,249.5803 270.1809,249.5528 263.4109,249.5077 256.6408,249.445 249.8708,249.3648 243.1008,249.3689 236.3307,249.4119 229.5607,249.4651 222.7907,249.512 216.0207,249.5447 209.2506,249.5613 202.4806,249.5615 195.7106,249.5449 188.9406,249.5113 182.1705,249.4604 175.4005,249.3917 168.6305,249.3051 161.8605,249.2 155.0904,249.0762 148.3204,248.9333 141.5504,248.7709 134.7804,248.5886 128.0103,248.386 121.2403,248.1628 114.4703,247.9186 107.7003,247.653 100.9302,247.6293 94.1602,247.7653 87.3902,248.0037 80.6202,248.3036 73.8501,248.6359 67.0801,248.9809 60.3101,249.3271 53.5401,249.6688 46.77,250.005 40,250.3356"></polyline>
<text class = "party pdecat" x="631.1111" y="226"><tspan class="party_name">PDeCAT</tspan> (11.4±2.2%)</text>
<polyline class="cec" points=" 40,236.9212 46.77,236.8968 53.5401,236.8713 60.3101,236.8447 67.0801,236.8172 73.8501,236.7901 80.6202,236.7658 87.3902,236.7488 94.1602,236.7454 100.9302,236.765 107.7003,236.8208 114.4703,236.9327 121.2403,237.0423 128.0103,237.1496 134.7804,237.2546 141.5504,237.3573 148.3204,237.4576 155.0904,237.5556 161.8605,237.6514 168.6305,237.7449 175.4005,237.8361 182.1705,237.9251 188.9406,238.012 195.7106,238.0967 202.4806,238.1794 209.2506,238.26 216.0207,238.3386 222.7907,238.4153 229.5607,238.4889 236.3307,238.5544 243.1008,238.6012 249.8708,238.6105 256.6408,238.5526 263.4109,238.4958 270.1809,238.4398 276.9509,238.3846 283.7209,238.3301 290.491,238.2761 297.261,238.2224 304.031,238.1689 310.801,238.1155 317.5711,238.0621 324.3411,238.0086 331.1111,237.957 337.8811,237.9163 344.6512,237.9064 351.4212,237.9627 358.1912,238.0157 364.9612,238.0652 371.7313,238.1119 378.5013,238.1573 385.2713,238.2059 392.0413,238.2655 398.8114,238.3503 405.5814,238.4352 412.3514,238.5201 419.1214,238.605 425.8915,238.6896 432.6615,238.774 439.4315,238.8581 446.2016,238.9417 452.9716,239.0249 459.7416,239.1074 466.5116,239.1893 473.2817,239.2705 480.0517,239.3512 486.8217,239.4334 493.5917,239.5214 500.3618,239.6229 507.1318,239.7508 513.9018,239.9246 520.6718,240.1 527.4419,240.2767 534.2119,240.4547 540.9819,240.6338 547.7519,240.814 554.522,240.995 561.292,241.1714 568.062,241.3211 574.832,241.3965 581.6021,241.3106 588.3721,241.2457 595.1421,241.2118 601.9121,241.181 608.6822,241.1531 615.4522,241.1268 622.2222,241.0992"></polyline>
<polyline class="cec error" points=" 40,220.0207 46.77,220.2026 53.5401,220.3852 60.3101,220.5685 67.0801,220.7522 73.8501,220.9352 80.6202,221.1153 87.3902,221.2889 94.1602,221.4508 100.9302,221.5943 107.7003,221.7103 114.4703,221.7876 121.2403,221.8739 128.0103,221.9689 134.7804,222.0721 141.5504,222.1832 148.3204,222.302 155.0904,222.428 161.8605,222.561 168.6305,222.7008 175.4005,222.847 182.1705,222.9995 188.9406,223.1579 195.7106,223.322 202.4806,223.4918 209.2506,223.6669 216.0207,223.8473 222.7907,224.0327 229.5607,224.2206 236.3307,224.4012 243.1008,224.5535 249.8708,224.6413 256.6408,224.6076 263.4109,224.5848 270.1809,224.5724 276.9509,224.5702 283.7209,224.5777 290.491,224.5948 297.261,224.6211 304.031,224.6563 310.801,224.7001 317.5711,224.7522 324.3411,224.8124 331.1111,224.8802 337.8811,224.9551 344.6512,225.0359 351.4212,225.1221 358.1912,225.2169 364.9612,225.3202 371.7313,225.4304 378.5013,225.5414 385.2713,225.6405 392.0413,225.7055 398.8114,225.7016 405.5814,225.7092 412.3514,225.7281 419.1214,225.7582 425.8915,225.7991 432.6615,225.8508 439.4315,225.9129 446.2016,225.9854 452.9716,226.0679 459.7416,226.1603 466.5116,226.2625 473.2817,226.374 480.0517,226.4949 486.8217,226.6246 493.5917,226.763 500.3618,226.9101 507.1318,227.0666 513.9018,227.2348 520.6718,227.4155 527.4419,227.6088 534.2119,227.8146 540.9819,228.0328 547.7519,228.2632 554.522,228.5058 561.292,228.7521 568.062,228.9683 574.832,229.0802 581.6021,228.9539 588.3721,228.8255 595.1421,228.6797 601.9121,228.5482 608.6822,228.4283 615.4522,228.3055 622.2222,228.1443 622.2222,254.0541 615.4522,253.9481 608.6822,253.8778 601.9121,253.8137 595.1421,253.7438 588.3721,253.6658 581.6021,253.6674 574.832,253.7127 568.062,253.674 561.292,253.5906 554.522,253.4842 547.7519,253.3647 540.9819,253.2348 534.2119,253.0947 527.4419,252.9445 520.6718,252.7844 513.9018,252.6145 507.1318,252.4351 500.3618,252.3358 493.5917,252.2797 486.8217,252.2422 480.0517,252.2075 473.2817,252.1669 466.5116,252.1162 459.7416,252.0545 452.9716,251.9818 446.2016,251.8981 439.4315,251.8032 432.6615,251.6973 425.8915,251.5801 419.1214,251.4517 412.3514,251.3121 405.5814,251.1612 398.8114,250.999 392.0413,250.8254 385.2713,250.7713 378.5013,250.7732 371.7313,250.7933 364.9612,250.8103 358.1912,250.8145 351.4212,250.8034 344.6512,250.777 337.8811,250.8776 331.1111,251.0337 324.3411,251.2048 317.5711,251.3721 310.801,251.531 304.031,251.6815 297.261,251.8236 290.491,251.9573 283.7209,252.0825 276.9509,252.1991 270.1809,252.3072 263.4109,252.4067 256.6408,252.4976 249.8708,252.5797 243.1008,252.6489 236.3307,252.7076 229.5607,252.7571 222.7907,252.7979 216.0207,252.8299 209.2506,252.853 202.4806,252.8669 195.7106,252.8714 188.9406,252.8661 182.1705,252.8508 175.4005,252.8252 168.6305,252.7889 161.8605,252.7417 155.0904,252.6833 148.3204,252.6132 141.5504,252.5313 134.7804,252.4371 128.0103,252.3304 121.2403,252.2107 114.4703,252.0778 107.7003,251.9314 100.9302,251.9357 94.1602,252.0399 87.3902,252.2086 80.6202,252.4163 73.8501,252.6449 67.0801,252.8822 60.3101,253.1208 53.5401,253.3573 46.77,253.5909 40,253.8217"></polyline>
<text class = "party cec" x="631.1111" y="246"><tspan class="party_name">CeC</tspan> (11.1±1.6%)</text>
<polyline class="psc" points=" 40,223.8397 46.77,223.8013 53.5401,223.7619 60.3101,223.7212 67.0801,223.6798 73.8501,223.6393 80.6202,223.6032 87.3902,223.5779 94.1602,223.5725 100.9302,223.6004 107.7003,223.6807 114.4703,223.8414 121.2403,223.9995 128.0103,224.1548 134.7804,224.3073 141.5504,224.4572 148.3204,224.6045 155.0904,224.7492 161.8605,224.8914 168.6305,225.0311 175.4005,225.1686 182.1705,225.3038 188.9406,225.4368 195.7106,225.5679 202.4806,225.697 209.2506,225.8244 216.0207,225.9501 222.7907,226.0744 229.5607,226.1938 236.3307,226.2945 243.1008,226.3459 249.8708,226.2943 256.6408,226.054 263.4109,225.8183 270.1809,225.5871 276.9509,225.3601 283.7209,225.1371 290.491,224.9178 297.261,224.7019 304.031,224.4893 310.801,224.2798 317.5711,224.073 324.3411,223.8688 331.1111,223.6718 337.8811,223.5014 344.6512,223.3997 351.4212,223.4412 358.1912,223.4759 364.9612,223.504 371.7313,223.5269 378.5013,223.55 385.2713,223.5853 392.0413,223.6541 398.8114,223.7932 405.5814,223.9306 412.3514,224.0665 419.1214,224.2008 425.8915,224.3337 432.6615,224.4651 439.4315,224.5952 446.2016,224.724 452.9716,224.8516 459.7416,224.978 466.5116,225.1033 473.2817,225.2276 480.0517,225.3488 486.8217,225.4581 493.5917,225.5357 500.3618,225.5472 507.1318,225.4386 513.9018,225.129 520.6718,224.82 527.4419,224.5117 534.2119,224.2043 540.9819,223.8979 547.7519,223.5927 554.522,223.2889 561.292,222.99 568.062,222.7092 574.832,222.4737 581.6021,222.3299 588.3721,222.1664 595.1421,221.9717 601.9121,221.7625 608.6822,221.5453 615.4522,221.3481 622.2222,221.2357"></polyline>
<polyline class="psc error" points=" 40,201.7448 46.77,201.9726 53.5401,202.2016 60.3101,202.4319 67.0801,202.6631 73.8501,202.894 80.6202,203.122 87.3902,203.343 94.1602,203.5514 100.9302,203.7394 107.7003,203.8975 114.4703,204.0137 121.2403,204.1417 128.0103,204.2811 134.7804,204.4315 141.5504,204.5925 148.3204,204.7638 155.0904,204.9448 161.8605,205.1355 168.6305,205.3353 175.4005,205.5441 182.1705,205.7616 188.9406,205.9875 195.7106,206.2217 202.4806,206.4639 209.2506,206.714 216.0207,206.9718 222.7907,207.2372 229.5607,207.5051 236.3307,207.7551 243.1008,207.9427 249.8708,207.9909 256.6408,207.7776 263.4109,207.5817 270.1809,207.4028 276.9509,207.2403 283.7209,207.0939 290.491,206.9629 297.261,206.8471 304.031,206.7459 310.801,206.659 317.5711,206.5858 324.3411,206.526 331.1111,206.4811 337.8811,206.4579 344.6512,206.472 351.4212,206.5513 358.1912,206.6395 364.9612,206.7364 371.7313,206.8409 378.5013,206.9483 385.2713,207.0485 392.0413,207.124 398.8114,207.1479 405.5814,207.1852 412.3514,207.2355 419.1214,207.2989 425.8915,207.3752 432.6615,207.4643 439.4315,207.5661 446.2016,207.6806 452.9716,207.8076 459.7416,207.9471 466.5116,208.0989 473.2817,208.263 480.0517,208.4365 486.8217,208.6073 493.5917,208.7493 500.3618,208.8166 507.1318,208.7378 513.9018,208.4066 520.6718,208.0904 527.4419,207.7895 534.2119,207.5041 540.9819,207.2343 547.7519,206.9806 554.522,206.7431 561.292,206.5219 568.062,206.3158 574.832,206.1198 581.6021,205.9225 588.3721,205.6743 595.1421,205.3291 601.9121,204.9838 608.6822,204.6416 615.4522,204.3139 622.2222,204.0244 622.2222,238.4471 615.4522,238.3824 608.6822,238.4489 601.9121,238.5411 595.1421,238.6143 588.3721,238.6586 581.6021,238.7374 574.832,238.8276 568.062,239.1026 561.292,239.458 554.522,239.8347 547.7519,240.2049 540.9819,240.5615 534.2119,240.9046 527.4419,241.2339 520.6718,241.5496 513.9018,241.8514 507.1318,242.1394 500.3618,242.2778 493.5917,242.3221 486.8217,242.3088 480.0517,242.2612 473.2817,242.1923 466.5116,242.1078 459.7416,242.009 452.9716,241.8956 446.2016,241.7675 439.4315,241.6243 432.6615,241.466 425.8915,241.2922 419.1214,241.1027 412.3514,240.8975 405.5814,240.6761 398.8114,240.4384 392.0413,240.1842 385.2713,240.1221 378.5013,240.1517 371.7313,240.2129 364.9612,240.2715 358.1912,240.3123 351.4212,240.331 344.6512,240.3274 337.8811,240.5448 331.1111,240.8625 324.3411,241.2115 317.5711,241.5602 310.801,241.9006 304.031,242.2327 297.261,242.5567 290.491,242.8726 283.7209,243.1803 276.9509,243.4799 270.1809,243.7715 263.4109,244.055 256.6408,244.3304 249.8708,244.5977 243.1008,244.7491 236.3307,244.834 229.5607,244.8825 222.7907,244.9115 216.0207,244.9284 209.2506,244.9347 202.4806,244.9301 195.7106,244.914 188.9406,244.8861 182.1705,244.8459 175.4005,244.793 168.6305,244.727 161.8605,244.6473 155.0904,244.5535 148.3204,244.4452 141.5504,244.3219 134.7804,244.1832 128.0103,244.0284 121.2403,243.8573 114.4703,243.6692 107.7003,243.4638 100.9302,243.4614 94.1602,243.5936 87.3902,243.8127 80.6202,244.0845 73.8501,244.3846 67.0801,244.6965 60.3101,245.0106 53.5401,245.3221 46.77,245.6301 40,245.9346"></polyline>
<text class = "party psc" x="631.1111" y="205"><tspan class="party_name">PSC</tspan> (13.5±2.1%)</text>
<polyline class="cs" points=" 40,186.1425 46.77,186.1447 53.5401,186.1476 60.3101,186.1513 67.0801,186.1558 73.8501,186.1605 80.6202,186.1648 87.3902,186.1672 94.1602,186.1658 100.9302,186.1575 107.7003,186.1382 114.4703,186.1015 121.2403,186.066 128.0103,186.0315 134.7804,185.9982 141.5504,185.9661 148.3204,185.9353 155.0904,185.9057 161.8605,185.8774 168.6305,185.8504 175.4005,185.8248 182.1705,185.8005 188.9406,185.7777 195.7106,185.7562 202.4806,185.7362 209.2506,185.7177 216.0207,185.7006 222.7907,185.685 229.5607,185.6709 236.3307,185.6582 243.1008,185.6466 249.8708,185.6357 256.6408,185.6244 263.4109,185.6146 270.1809,185.6062 276.9509,185.5995 283.7209,185.5944 290.491,185.5911 297.261,185.5896 304.031,185.5901 310.801,185.5926 317.5711,185.5972 324.3411,185.6041 331.1111,185.6123 337.8811,185.6179 344.6512,185.6124 351.4212,185.5801 358.1912,185.5515 364.9612,185.5267 371.7313,185.5047 378.5013,185.4802 385.2713,185.4414 392.0413,185.3662 398.8114,185.2169 405.5814,185.0679 412.3514,184.9192 419.1214,184.7709 425.8915,184.6231 432.6615,184.476 439.4315,184.3297 446.2016,184.1843 452.9716,184.0399 459.7416,183.8966 466.5116,183.7546 473.2817,183.614 480.0517,183.4752 486.8217,183.339 493.5917,183.207 500.3618,183.0817 507.1318,182.9664 513.9018,182.8654 520.6718,182.763 527.4419,182.6595 534.2119,182.5551 540.9819,182.4499 547.7519,182.3444 554.522,182.2385 561.292,182.1299 568.062,182.0066 574.832,181.8409 581.6021,181.5792 588.3721,181.3572 595.1421,181.2024 601.9121,181.0371 608.6822,180.8662 615.4522,180.7115 622.2222,180.6228"></polyline>
<polyline class="cs error" points=" 40,165.309 46.77,165.562 53.5401,165.8181 60.3101,166.0773 67.0801,166.3388 73.8501,166.5995 80.6202,166.8526 87.3902,167.0871 94.1602,167.2864 100.9302,167.4274 107.7003,167.4785 114.4703,167.3947 121.2403,167.3258 128.0103,167.2714 134.7804,167.2312 141.5504,167.2047 148.3204,167.1916 155.0904,167.1915 161.8605,167.2042 168.6305,167.2293 175.4005,167.2665 182.1705,167.3154 188.9406,167.3758 195.7106,167.4474 202.4806,167.5299 209.2506,167.6231 216.0207,167.7267 222.7907,167.8405 229.5607,167.9628 236.3307,168.0878 243.1008,168.2031 249.8708,168.2873 256.6408,168.3076 263.4109,168.3411 270.1809,168.3879 276.9509,168.4476 283.7209,168.5203 290.491,168.6058 297.261,168.7039 304.031,168.8146 310.801,168.9377 317.5711,169.0733 324.3411,169.2211 331.1111,169.3773 337.8811,169.5255 344.6512,169.6312 351.4212,169.6328 358.1912,169.6531 364.9612,169.6919 371.7313,169.7456 378.5013,169.7994 385.2713,169.82 392.0413,169.748 398.8114,169.4843 405.5814,169.2347 412.3514,168.9993 419.1214,168.7781 425.8915,168.5709 432.6615,168.3778 439.4315,168.1988 446.2016,168.0339 452.9716,167.883 459.7416,167.7461 466.5116,167.6233 473.2817,167.5145 480.0517,167.4193 486.8217,167.336 493.5917,167.2604 500.3618,167.1851 507.1318,167.0984 513.9018,166.9824 520.6718,166.8787 527.4419,166.7875 534.2119,166.7091 540.9819,166.6439 547.7519,166.592 554.522,166.5539 561.292,166.5235 568.062,166.4748 574.832,166.3486 581.6021,166.0349 588.3721,165.7326 595.1421,165.4375 601.9121,165.1456 608.6822,164.8588 615.4522,164.5825 622.2222,164.3279 622.2222,196.9177 615.4522,196.8404 608.6822,196.8737 601.9121,196.9285 595.1421,196.9672 588.3721,196.9818 581.6021,197.1235 574.832,197.3331 568.062,197.5384 561.292,197.7362 554.522,197.9231 547.7519,198.0967 540.9819,198.256 534.2119,198.401 527.4419,198.5315 520.6718,198.6473 513.9018,198.7483 507.1318,198.8344 500.3618,198.9783 493.5917,199.1536 486.8217,199.342 480.0517,199.5311 473.2817,199.7136 466.5116,199.886 459.7416,200.0471 452.9716,200.1968 446.2016,200.3347 439.4315,200.4606 432.6615,200.5742 425.8915,200.6753 419.1214,200.7636 412.3514,200.839 405.5814,200.901 398.8114,200.9496 392.0413,200.9844 385.2713,201.0627 378.5013,201.161 371.7313,201.2638 364.9612,201.3615 358.1912,201.4499 351.4212,201.5273 344.6512,201.5935 337.8811,201.7103 331.1111,201.8473 324.3411,201.9871 317.5711,202.1212 310.801,202.2475 304.031,202.3657 297.261,202.4754 290.491,202.5764 283.7209,202.6685 276.9509,202.7513 270.1809,202.8246 263.4109,202.888 256.6408,202.9412 249.8708,202.984 243.1008,203.0902 236.3307,203.2287 229.5607,203.3791 222.7907,203.5296 216.0207,203.6745 209.2506,203.8123 202.4806,203.9425 195.7106,204.0651 188.9406,204.1795 182.1705,204.2857 175.4005,204.3831 168.6305,204.4715 161.8605,204.5505 155.0904,204.6198 148.3204,204.679 141.5504,204.7276 134.7804,204.7653 128.0103,204.7916 121.2403,204.8061 114.4703,204.8083 107.7003,204.7978 100.9302,204.8876 94.1602,205.0453 87.3902,205.2474 80.6202,205.4769 73.8501,205.7215 67.0801,205.9727 60.3101,206.2254 53.5401,206.4771 46.77,206.7273 40,206.976"></polyline>
<text class = "party cs" x="631.1111" y="181"><tspan class="party_name">C's</tspan> (18.3±2.0%)</text>
<polyline class="pp" points=" 40,252.5561 46.77,252.5502 53.5401,252.5449 60.3101,252.5401 67.0801,252.5357 73.8501,252.5313 80.6202,252.5259 87.3902,252.5179 94.1602,252.5045 100.9302,252.482 107.7003,252.4448 114.4703,252.3846 121.2403,252.3244 128.0103,252.2643 134.7804,252.2042 141.5504,252.1442 148.3204,252.0843 155.0904,252.0244 161.8605,251.9646 168.6305,251.9049 175.4005,251.8453 182.1705,251.7857 188.9406,251.7262 195.7106,251.6667 202.4806,251.6072 209.2506,251.5477 216.0207,251.4882 222.7907,251.4286 229.5607,251.3697 236.3307,251.3149 243.1008,251.2715 249.8708,251.2518 256.6408,251.2757 263.4109,251.2971 270.1809,251.316 276.9509,251.3324 283.7209,251.3465 290.491,251.3581 297.261,251.3675 304.031,251.3745 310.801,251.3793 317.5711,251.3818 324.3411,251.382 331.1111,251.3788 337.8811,251.3667 344.6512,251.3339 351.4212,251.2585 358.1912,251.1808 364.9612,251.1006 371.7313,251.0198 378.5013,250.9472 385.2713,250.9023 392.0413,250.9197 398.8114,251.058 405.5814,251.1939 412.3514,251.3277 419.1214,251.4591 425.8915,251.5884 432.6615,251.7155 439.4315,251.8405 446.2016,251.9633 452.9716,252.084 459.7416,252.2025 466.5116,252.3188 473.2817,252.433 480.0517,252.5453 486.8217,252.6567 493.5917,252.7698 500.3618,252.8896 507.1318,253.024 513.9018,253.1858 520.6718,253.3486 527.4419,253.5124 534.2119,253.6769 540.9819,253.8422 547.7519,254.008 554.522,254.1744 561.292,254.3365 568.062,254.4757 574.832,254.5511 581.6021,254.489 588.3721,254.4801 595.1421,254.559 601.9121,254.6446 608.6822,254.7342 615.4522,254.8156 622.2222,254.8606"></polyline>
<polyline class="pp error" points=" 40,236.919 46.77,237.1063 53.5401,237.2958 60.3101,237.4875 67.0801,237.6808 73.8501,237.8731 80.6202,238.0588 87.3902,238.2287 94.1602,238.3691 100.9302,238.4606 107.7003,238.4765 114.4703,238.3786 121.2403,238.2913 128.0103,238.2143 134.7804,238.1474 141.5504,238.0901 148.3204,238.0422 155.0904,238.0035 161.8605,237.9736 168.6305,237.9522 175.4005,237.9392 182.1705,237.9341 188.9406,237.9369 195.7106,237.9471 202.4806,237.9647 209.2506,237.9892 216.0207,238.0206 222.7907,238.0585 229.5607,238.1026 236.3307,238.1518 243.1008,238.2044 249.8708,238.2574 256.6408,238.3064 263.4109,238.3619 270.1809,238.4237 276.9509,238.4918 283.7209,238.566 290.491,238.6461 297.261,238.732 304.031,238.8236 310.801,238.9208 317.5711,239.0235 324.3411,239.1316 331.1111,239.2413 337.8811,239.3378 344.6512,239.389 351.4212,239.3377 358.1912,239.2954 364.9612,239.2617 371.7313,239.2367 378.5013,239.222 385.2713,239.2217 392.0413,239.2432 398.8114,239.3004 405.5814,239.366 412.3514,239.4399 419.1214,239.522 425.8915,239.6121 432.6615,239.7103 439.4315,239.8165 446.2016,239.9304 452.9716,240.0521 459.7416,240.1814 466.5116,240.3181 473.2817,240.4621 480.0517,240.6132 486.8217,240.7703 493.5917,240.9318 500.3618,241.0951 507.1318,241.2571 513.9018,241.414 520.6718,241.5824 527.4419,241.762 534.2119,241.953 540.9819,242.1551 547.7519,242.3683 554.522,242.5926 561.292,242.8204 568.062,243.0219 574.832,243.1318 581.6021,243.0322 588.3721,242.9656 595.1421,242.9433 601.9121,242.9385 608.6822,242.9459 615.4522,242.9405 622.2222,242.863 622.2222,266.8583 615.4522,266.6908 608.6822,266.5226 601.9121,266.3507 595.1421,266.1746 588.3721,265.9946 581.6021,265.9457 574.832,265.9703 568.062,265.9295 561.292,265.8527 554.522,265.7562 547.7519,265.6478 540.9819,265.5293 534.2119,265.4009 527.4419,265.2627 520.6718,265.1149 513.9018,264.9576 507.1318,264.791 500.3618,264.6841 493.5917,264.6079 486.8217,264.543 480.0517,264.4774 473.2817,264.4039 466.5116,264.3196 459.7416,264.2236 452.9716,264.1159 446.2016,263.9962 439.4315,263.8645 432.6615,263.7207 425.8915,263.5647 419.1214,263.3963 412.3514,263.2154 405.5814,263.0219 398.8114,262.8155 392.0413,262.5962 385.2713,262.5828 378.5013,262.6724 371.7313,262.803 364.9612,262.9396 358.1912,263.0663 351.4212,263.1793 344.6512,263.2788 337.8811,263.3957 331.1111,263.5164 324.3411,263.6325 317.5711,263.74 310.801,263.8377 304.031,263.9254 297.261,264.0029 290.491,264.0702 283.7209,264.127 276.9509,264.173 270.1809,264.2082 263.4109,264.2323 256.6408,264.2451 249.8708,264.2463 243.1008,264.3385 236.3307,264.478 229.5607,264.6369 222.7907,264.7986 216.0207,264.9558 209.2506,265.1062 202.4806,265.2497 195.7106,265.3862 188.9406,265.5155 182.1705,265.6373 175.4005,265.7514 168.6305,265.8576 161.8605,265.9557 155.0904,266.0454 148.3204,266.1263 141.5504,266.1983 134.7804,266.261 128.0103,266.3142 121.2403,266.3575 114.4703,266.3905 107.7003,266.413 100.9302,266.5034 94.1602,266.6399 87.3902,266.807 80.6202,266.993 73.8501,267.1895 67.0801,267.3906 60.3101,267.5926 53.5401,267.794 46.77,267.9942 40,268.1932"></polyline>
<text class = "party pp" x="631.1111" y="267"><tspan class="party_name">PP</tspan> (9.4±1.4%)</text>
<polyline class="otros" points=" 40,307.2589 46.77,307.2903 53.5401,307.3222 60.3101,307.3548 67.0801,307.3879 73.8501,307.4205 80.6202,307.4507 87.3902,307.4749 94.1602,307.4882 100.9302,307.4835 107.7003,307.4503 114.4703,307.3737 121.2403,307.2993 128.0103,307.2273 134.7804,307.1575 141.5504,307.09 148.3204,307.0247 155.0904,306.9617 161.8605,306.9008 168.6305,306.8422 175.4005,306.7856 182.1705,306.7313 188.9406,306.6789 195.7106,306.6286 202.4806,306.5804 209.2506,306.534 216.0207,306.4896 222.7907,306.447 229.5607,306.407 236.3307,306.3723 243.1008,306.3493 249.8708,306.3488 256.6408,306.3881 263.4109,306.4277 270.1809,306.4677 276.9509,306.5082 283.7209,306.5493 290.491,306.591 297.261,306.6336 304.031,306.6771 310.801,306.7216 317.5711,306.7672 324.3411,306.814 331.1111,306.8587 337.8811,306.887 344.6512,306.8675 351.4212,306.7439 358.1912,306.6249 364.9612,306.5104 371.7313,306.4005 378.5013,306.2958 385.2713,306.1966 392.0413,306.103 398.8114,306.0142 405.5814,305.9243 412.3514,305.8335 419.1214,305.7419 425.8915,305.6497 432.6615,305.5571 439.4315,305.4641 446.2016,305.3709 452.9716,305.2776 459.7416,305.1843 466.5116,305.0912 473.2817,304.9983 480.0517,304.906 486.8217,304.8157 493.5917,304.73 500.3618,304.6535 507.1318,304.5927 513.9018,304.5571 520.6718,304.52 527.4419,304.4815 534.2119,304.4416 540.9819,304.4004 547.7519,304.358 554.522,304.3144 561.292,304.2721 568.062,304.2402 574.832,304.2392 581.6021,304.3064 588.3721,304.3735 595.1421,304.4431 601.9121,304.5138 608.6822,304.5843 615.4522,304.649 622.2222,304.6948"></polyline>
<polyline class="otros error" points=" 40,293.8696 46.77,294.0765 53.5401,294.2854 60.3101,294.4963 67.0801,294.7085 73.8501,294.9191 80.6202,295.1219 87.3902,295.3067 94.1602,295.4583 100.9302,295.5556 107.7003,295.5689 114.4703,295.4561 121.2403,295.355 128.0103,295.2656 134.7804,295.1874 141.5504,295.1202 148.3204,295.0637 155.0904,295.0176 161.8605,294.9816 168.6305,294.9556 175.4005,294.9391 182.1705,294.932 188.9406,294.9339 195.7106,294.9447 202.4806,294.964 209.2506,294.9916 216.0207,295.0273 222.7907,295.0708 229.5607,295.1218 236.3307,295.1792 243.1008,295.2415 249.8708,295.3059 256.6408,295.369 263.4109,295.4405 270.1809,295.5203 276.9509,295.6083 283.7209,295.7045 290.491,295.8088 297.261,295.9213 304.031,296.0418 310.801,296.1703 317.5711,296.3069 324.3411,296.4514 331.1111,296.5982 337.8811,296.7241 344.6512,296.7785 351.4212,296.6717 358.1912,296.5797 364.9612,296.5024 371.7313,296.4381 378.5013,296.381 385.2713,296.3172 392.0413,296.222 398.8114,296.0534 405.5814,295.8931 412.3514,295.7411 419.1214,295.5975 425.8915,295.4623 432.6615,295.3358 439.4315,295.2178 446.2016,295.1085 452.9716,295.0079 459.7416,294.916 466.5116,294.8329 473.2817,294.7586 480.0517,294.693 486.8217,294.6357 493.5917,294.5855 500.3618,294.5405 507.1318,294.4975 513.9018,294.4513 520.6718,294.4128 527.4419,294.382 534.2119,294.3591 540.9819,294.3441 547.7519,294.3373 554.522,294.3387 561.292,294.3485 568.062,294.3669 574.832,294.3946 581.6021,294.4333 588.3721,294.4525 595.1421,294.4329 601.9121,294.4238 608.6822,294.4218 615.4522,294.4098 622.2222,294.347 622.2222,315.0426 615.4522,314.8882 608.6822,314.7468 601.9121,314.6037 595.1421,314.4533 588.3721,314.2946 581.6021,314.1794 574.832,314.0837 568.062,314.1135 561.292,314.1957 554.522,314.2902 547.7519,314.3787 540.9819,314.4567 534.2119,314.5242 527.4419,314.581 520.6718,314.6273 513.9018,314.6629 507.1318,314.6879 500.3618,314.7664 493.5917,314.8746 486.8217,314.9958 480.0517,315.119 473.2817,315.238 466.5116,315.3495 459.7416,315.4526 452.9716,315.5473 446.2016,315.6333 439.4315,315.7104 432.6615,315.7784 425.8915,315.8371 419.1214,315.8863 412.3514,315.9259 405.5814,315.9555 398.8114,315.9749 392.0413,315.984 385.2713,316.0759 378.5013,316.2105 371.7313,316.3629 364.9612,316.5184 358.1912,316.67 351.4212,316.8161 344.6512,316.9565 337.8811,317.0499 331.1111,317.1192 324.3411,317.1767 317.5711,317.2275 310.801,317.2728 304.031,317.3124 297.261,317.346 290.491,317.3733 283.7209,317.3941 276.9509,317.4082 270.1809,317.4152 263.4109,317.415 256.6408,317.4072 249.8708,317.3916 243.1008,317.4571 236.3307,317.5655 229.5607,317.6922 222.7907,317.8232 216.0207,317.9519 209.2506,318.0764 202.4806,318.1967 195.7106,318.3126 188.9406,318.4239 182.1705,318.5305 175.4005,318.6322 168.6305,318.7287 161.8605,318.82 155.0904,318.9057 148.3204,318.9857 141.5504,319.0598 134.7804,319.1276 128.0103,319.189 121.2403,319.2436 114.4703,319.2913 107.7003,319.3317 100.9302,319.4113 94.1602,319.5181 87.3902,319.6431 80.6202,319.7794 73.8501,319.922 67.0801,320.0673 60.3101,320.2134 53.5401,320.359 46.77,320.504 40,320.6483"></polyline>
<text class = "party otros" x="631.1111" y="309"><tspan class="party_name">Otros</tspan> (3.4±1.2%)</text>
  
<text class="pie izquierda" x="0" y="395">Datos: Electograph | Modelo propio</text>
<text class="pie derecha" x="800" y="395">Jesús Carro | <tspan style="font-weight:bold">1datomas</tspan>.com</text>
</svg>
