<?xml version="1.0" encoding="utf-8"?><!DOCTYPE svg PUBLIC "-//W3C//DTD SVG 1.1//EN" "http://www.w3.org/Graphics/SVG/1.1/DTD/svg11.dtd">
<svg xmlns="http://www.w3.org/2000/svg" xmlns:xlink="http://www.w3.org/1999/xlink" version="1.1" viewBox="0 0 800 400">

<text x="0" y="20" style="font-size:large;font-weight:bold;color:black">Intención de voto en Elecciones Autonómicas en Cataluña</text>
<text x="0" y="40" style="color:gray">Promedio de encuestas y estimación de error</text>

<text class="horizontal axis" x="36" y="333.3333">0%</text>
<line class="horizontal axis" x1="40" y1="333.3333" x2="622.2222" y2="333.3333"></line>
<text class="horizontal axis" x="36" y="252.5253">10%</text>
<line class="horizontal axis" x1="40" y1="252.5253" x2="622.2222" y2="252.5253"></line>
<text class="horizontal axis" x="36" y="171.7172">20%</text>
<line class="horizontal axis" x1="40" y1="171.7172" x2="622.2222" y2="171.7172"></line>
<text class="horizontal axis" x="36" y="90.9091">30%</text>
<line class="horizontal axis" x1="40" y1="90.9091" x2="622.2222" y2="90.9091"></line>
<line class="vertical axis" x1="40" y1="336.6667" x2="40" y2="66.6667"></line>
<text class="vertical axis" x="40" y="343.3333">Ago-2017</text>
<line class="vertical axis" x1="181.0069" y1="336.6667" x2="181.0069" y2="66.6667"></line>
<text class="vertical axis" x="181.0069" y="343.3333">Sep-2017</text>
<line class="vertical axis" x1="317.4653" y1="336.6667" x2="317.4653" y2="66.6667"></line>
<text class="vertical axis" x="317.4653" y="343.3333">Oct-2017</text>
<line class="vertical axis" x1="458.4722" y1="336.6667" x2="458.4722" y2="66.6667"></line>
<text class="vertical axis" x="458.4722" y="343.3333">Nov-2017</text>
<line class="vertical axis" x1="594.9306" y1="336.6667" x2="594.9306" y2="66.6667"></line>
<text class="vertical axis" x="594.9306" y="343.3333">Dic-2017</text>
<polyline id="media-cup"  class="cup media" points=" 40,281.7132 44.5486,281.6755 49.0972,281.6359 53.6458,281.5946 58.1944,281.5518 62.7431,281.5092 67.2917,281.4694 71.8403,281.4356 76.3889,281.4119 80.9375,281.404 85.4861,281.4224 90.0347,281.4937 94.5833,281.5609 99.1319,281.6233 103.6806,281.6803 108.2292,281.7314 112.7778,281.7761 117.3264,281.814 121.875,281.8448 126.4236,281.8681 130.9722,281.8836 135.5208,281.8909 140.0694,281.8896 144.6181,281.8792 149.1667,281.859 153.7153,281.8284 158.2639,281.7865 162.8125,281.732 167.3611,281.6684 171.9097,281.6107 176.4583,281.5901 181.0069,281.6618 185.5556,281.9408 190.1042,282.2055 194.6528,282.4569 199.2014,282.6962 203.75,282.9245 208.2986,283.143 212.8472,283.3527 217.3958,283.5548 221.9444,283.7503 226.4931,283.9401 231.0417,284.1251 235.5903,284.3022 240.1389,284.4607 244.6875,284.5843 249.2361,284.6466 253.7847,284.7399 258.3333,284.8625 262.8819,285.0071 267.4306,285.1511 271.9792,285.2537 276.5278,285.2465 281.0764,284.9743 285.625,284.7267 290.1736,284.5013 294.7222,284.2959 299.2708,284.1082 303.8194,283.9366 308.3681,283.7791 312.9167,283.6344 317.4653,283.5008 322.0139,283.3772 326.5625,283.2624 331.1111,283.1554 335.6597,283.0555 340.2083,282.9629 344.7569,282.8781 349.3056,282.8015 353.8542,282.733 358.4028,282.6714 362.9514,282.6007 367.5,282.521 372.0486,282.4319 376.5972,282.3326 381.1458,282.2215 385.6944,282.0964 390.2431,281.9705 394.7917,281.8987 399.3403,281.9949 403.8889,282.4867 408.4375,282.8003 412.9861,282.8863 417.5347,282.9689 422.0833,283.0461 426.6319,283.1212 431.1806,283.2066 435.7292,283.3326 440.2778,283.4551 444.8264,283.5627 449.375,283.6333 453.9236,283.6333 458.4722,283.5085 463.0208,283.4187 467.5694,283.3784 472.1181,283.4265 476.6667,283.4749 481.2153,283.5245 485.7639,283.576 490.3125,283.6299 494.8611,283.6864 499.4097,283.7459 503.9583,283.8087 508.5069,283.8751 513.0556,283.9457 517.6042,284.016 522.1528,284.0671 526.7014,284.0631 531.25,283.9431 535.7986,283.8639 540.3472,283.8392 544.8958,283.8161 549.4444,283.7797 553.9931,283.6694 558.5417,283.3057 563.0903,282.8966 567.6389,282.5189 572.1875,282.226 576.7361,282.0972 581.2847,282.3269 585.8333,282.4876 590.3819,282.5748 594.9306,282.5503 599.4792,282.4712 604.0278,282.2875 608.5764,282.086 613.125,281.8824 617.6736,281.7027 622.2222,281.5981"></polyline>
<polyline id="error-cup" class="cup error" points=" 40,259.7804 44.5486,260.2593 49.0972,260.7487 53.6458,261.3804 58.1944,262.1769 62.7431,262.97 67.2917,263.7252 71.8403,264.3958 76.3889,264.9233 80.9375,265.227 85.4861,265.1703 90.0347,264.4448 94.5833,263.8324 99.1319,263.3258 103.6806,262.9178 108.2292,262.6018 112.7778,262.3713 117.3264,262.2204 121.875,262.1432 126.4236,262.1345 130.9722,262.1896 135.5208,262.3039 140.0694,262.4734 144.6181,262.6948 149.1667,262.9648 153.7153,263.2808 158.2639,263.6408 162.8125,264.0431 167.3611,264.4783 171.9097,264.9165 176.4583,265.303 181.0069,265.5518 185.5556,265.5169 190.1042,265.5785 194.6528,265.7271 199.2014,265.9547 203.75,266.255 208.2986,266.6228 212.8472,267.0544 217.3958,267.5467 221.9444,268.0978 226.4931,268.7068 231.0417,269.3736 235.5903,270.0731 240.1389,270.7196 244.6875,271.1541 249.2361,271.0832 253.7847,271.1912 258.3333,271.4644 262.8819,271.8725 267.4306,272.3324 271.9792,272.6948 276.5278,272.7142 281.0764,271.8679 285.625,271.1641 290.1736,270.5873 294.7222,270.1245 299.2708,269.7644 303.8194,269.4974 308.3681,269.3148 312.9167,269.2094 317.4653,269.1746 322.0139,269.2049 326.5625,269.2955 331.1111,269.4425 335.6597,269.6389 340.2083,269.8689 344.7569,270.1044 349.3056,270.3028 353.8542,270.4021 358.4028,270.3021 362.9514,270.2751 367.5,270.312 372.0486,270.4049 376.5972,270.5467 381.1458,270.7312 385.6944,270.9524 390.2431,271.2092 394.7917,271.5143 399.3403,271.9064 403.8889,272.4887 408.4375,272.8669 412.9861,272.901 417.5347,273.036 422.0833,273.2525 426.6319,273.5101 431.1806,273.7404 435.7292,273.8331 440.2778,274.0269 444.8264,274.2843 449.375,274.5444 453.9236,274.7131 458.4722,274.6302 463.0208,274.5934 467.5694,274.4965 472.1181,274.1445 476.6667,273.8728 481.2153,273.6787 485.7639,273.56 490.3125,273.5144 494.8611,273.5399 499.4097,273.6346 503.9583,273.7965 508.5069,274.0238 513.0556,274.3149 517.6042,274.6565 522.1528,275.0036 526.7014,275.2688 531.25,275.2994 535.7986,275.3915 540.3472,275.4853 544.8958,275.6794 549.4444,275.919 553.9931,276.0162 558.5417,275.5019 563.0903,275.0594 567.6389,274.7651 572.1875,274.585 576.7361,274.4611 581.2847,274.2924 585.8333,274.2028 590.3819,274.1189 594.9306,273.8789 599.4792,273.6281 604.0278,273.1972 608.5764,272.8052 613.125,272.3925 617.6736,271.8266 622.2222,271.3022 622.2222,291.8939 617.6736,291.5788 613.125,291.3722 608.5764,291.3667 604.0278,291.3778 599.4792,291.3143 594.9306,291.2216 590.3819,291.0306 585.8333,290.7724 581.2847,290.3615 576.7361,289.7333 572.1875,289.8671 567.6389,290.2727 563.0903,290.7338 558.5417,291.1094 553.9931,291.3226 549.4444,291.6405 544.8958,291.9527 540.3472,292.1931 535.7986,292.3363 531.25,292.5867 526.7014,292.8575 522.1528,293.1306 517.6042,293.3755 513.0556,293.5766 508.5069,293.7264 503.9583,293.8208 499.4097,293.8572 494.8611,293.8329 490.3125,293.7454 485.7639,293.5921 481.2153,293.3703 476.6667,293.077 472.1181,292.7086 467.5694,292.2603 463.0208,292.244 458.4722,292.3868 453.9236,292.5535 449.375,292.7222 444.8264,292.8412 440.2778,292.8833 435.7292,292.8321 431.1806,292.6728 426.6319,292.7323 422.0833,292.8398 417.5347,292.9019 412.9861,292.8716 408.4375,292.7337 403.8889,292.4847 399.3403,292.0834 394.7917,292.2831 390.2431,292.7318 385.6944,293.2403 381.1458,293.7117 376.5972,294.1184 372.0486,294.4589 367.5,294.73 362.9514,294.9263 358.4028,295.0408 353.8542,295.0639 349.3056,295.3003 344.7569,295.6518 340.2083,296.0568 335.6597,296.4721 331.1111,296.8683 326.5625,297.2293 322.0139,297.5495 317.4653,297.827 312.9167,298.0593 308.3681,298.2435 303.8194,298.3758 299.2708,298.452 294.7222,298.4672 290.1736,298.4153 285.625,298.2893 281.0764,298.0807 276.5278,297.7789 271.9792,297.8125 267.4306,297.9698 262.8819,298.1417 258.3333,298.2605 253.7847,298.2886 249.2361,298.2101 244.6875,298.0146 240.1389,298.2018 235.5903,298.5312 231.0417,298.8766 226.4931,299.1734 221.9444,299.4028 217.3958,299.563 212.8472,299.6511 208.2986,299.6631 203.75,299.5941 199.2014,299.4377 194.6528,299.1867 190.1042,298.8324 185.5556,298.3647 181.0069,297.7718 176.4583,297.8772 171.9097,298.3049 167.3611,298.8585 162.8125,299.421 158.2639,299.9321 153.7153,300.376 149.1667,300.7533 144.6181,301.0637 140.0694,301.3058 135.5208,301.478 130.9722,301.5777 126.4236,301.6017 121.875,301.5464 117.3264,301.4076 112.7778,301.1808 108.2292,300.861 103.6806,300.4428 99.1319,299.9209 94.5833,299.2894 90.0347,298.5426 85.4861,297.6745 80.9375,297.5809 76.3889,297.9005 71.8403,298.4753 67.2917,299.2136 62.7431,300.0485 58.1944,300.9268 53.6458,301.8087 49.0972,302.5231 44.5486,303.0917 40,303.6461"></polyline>
<text class = "party cup" x="631.1111" y="297"><tspan class="party_name">CUP</tspan><tspan class="party_result"> (6.4±1.3%)</tspan></text>
<polyline id="media-erc"  class="erc media" points=" 40,131.6972 44.5486,131.9735 49.0972,132.2691 53.6458,132.5853 58.1944,132.9186 62.7431,133.2546 67.2917,133.5677 71.8403,133.8236 76.3889,133.9782 80.9375,133.9677 85.4861,133.6723 90.0347,132.7901 94.5833,131.9141 99.1319,131.0498 103.6806,130.2012 108.2292,129.3714 112.7778,128.5622 117.3264,127.7746 121.875,127.0089 126.4236,126.2644 130.9722,125.54 135.5208,124.8341 140.0694,124.1444 144.6181,123.4682 149.1667,122.8024 153.7153,122.1434 158.2639,121.4871 162.8125,120.8287 167.3611,120.1813 171.9097,119.6021 176.4583,119.2032 181.0069,119.175 185.5556,119.9068 190.1042,120.5682 194.6528,121.1701 199.2014,121.7224 203.75,122.2347 208.2986,122.7158 212.8472,123.1738 217.3958,123.6167 221.9444,124.0522 226.4931,124.4876 231.0417,124.9305 235.5903,125.3648 240.1389,125.7178 244.6875,125.8442 249.2361,125.4455 253.7847,125.1521 258.3333,124.9607 262.8819,124.859 267.4306,124.8029 271.9792,124.7027 276.5278,124.3943 281.0764,123.4898 285.625,122.5905 290.1736,121.696 294.7222,120.8048 299.2708,119.9149 303.8194,119.0235 308.3681,118.1269 312.9167,117.2212 317.4653,116.3014 322.0139,115.3619 326.5625,114.396 331.1111,113.3958 335.6597,112.3715 340.2083,111.3831 344.7569,110.5554 349.3056,110.0885 353.8542,110.2962 358.4028,111.7395 362.9514,112.9644 367.5,113.9994 372.0486,114.869 376.5972,115.5935 381.1458,116.1901 385.6944,116.6732 390.2431,117.0635 394.7917,117.4095 399.3403,117.8076 403.8889,118.4532 408.4375,118.6901 412.9861,118.2933 417.5347,117.9066 422.0833,117.5165 426.6319,117.0949 431.1806,116.576 435.7292,115.8012 440.2778,114.9536 444.8264,114.1212 449.375,113.4885 453.9236,113.3682 458.4722,114.3193 463.0208,115.136 467.5694,116.0996 472.1181,117.8274 476.6667,119.5558 481.2153,121.2748 485.7639,122.9736 490.3125,124.6419 494.8611,126.269 499.4097,127.8449 503.9583,129.3603 508.5069,130.8065 513.0556,132.1758 517.6042,133.4443 522.1528,134.5507 526.7014,135.3918 531.25,135.8015 535.7986,136.1558 540.3472,136.3597 544.8958,136.5008 549.4444,136.6554 553.9931,137.3223 558.5417,139.9952 563.0903,142.6296 567.6389,145.0734 572.1875,147.0203 576.7361,148.0176 581.2847,146.9612 585.8333,146.3716 590.3819,146.1115 594.9306,145.9956 599.4792,145.7703 604.0278,144.9444 608.5764,144.2857 613.125,143.8191 617.6736,143.5898 622.2222,143.346"></polyline>
<polyline id="error-erc" class="erc error" points=" 40,89.2008 44.5486,90.1598 49.0972,91.1585 53.6458,92.5663 58.1944,94.4473 62.7431,96.3316 67.2917,98.1244 71.8403,99.6964 76.3889,100.8834 80.9375,101.4557 85.4861,101.0117 90.0347,98.6176 94.5833,96.4536 99.1319,94.5105 103.6806,92.7787 108.2292,91.2484 112.7778,89.9099 117.3264,88.7531 121.875,87.7682 126.4236,86.9455 130.9722,86.2756 135.5208,85.7497 140.0694,85.3594 144.6181,85.0968 149.1667,84.9548 153.7153,84.9269 158.2639,85.0076 162.8125,85.1919 167.3611,85.47 171.9097,85.8151 176.4583,86.1761 181.0069,86.4733 185.5556,86.5974 190.1042,86.8607 194.6528,87.2531 199.2014,87.7677 203.75,88.3998 208.2986,89.1469 212.8472,90.0085 217.3958,90.9855 221.9444,92.081 226.4931,93.2999 231.0417,94.6492 235.5903,96.0722 240.1389,97.3524 244.6875,98.0675 249.2361,97.399 253.7847,97.1195 258.3333,97.2035 262.8819,97.5955 267.4306,98.1371 271.9792,98.531 276.5278,98.2699 281.0764,96.2616 285.625,94.4893 290.1736,92.9249 294.7222,91.5445 299.2708,90.3275 303.8194,89.2555 308.3681,88.3119 312.9167,87.4813 317.4653,86.7494 322.0139,86.1028 326.5625,85.5281 331.1111,85.0125 335.6597,84.5549 340.2083,84.186 344.7569,83.9766 349.3056,84.0461 353.8542,84.5907 358.4028,85.9852 362.9514,87.3194 367.5,88.6042 372.0486,89.8494 376.5972,91.0644 381.1458,92.2578 385.6944,93.4376 390.2431,94.5964 394.7917,95.6961 399.3403,96.6769 403.8889,97.4709 408.4375,97.814 412.9861,97.3022 417.5347,97.008 422.0833,96.8842 426.6319,96.8156 431.1806,96.5734 435.7292,95.7128 440.2778,94.9884 444.8264,94.4384 449.375,94.1743 453.9236,94.3925 458.4722,95.4481 463.0208,96.3875 467.5694,97.2509 472.1181,98.1913 476.6667,99.2968 481.2153,100.5477 485.7639,101.9259 490.3125,103.4146 494.8611,104.9976 499.4097,106.6598 503.9583,108.3871 508.5069,110.1663 513.0556,111.9859 517.6042,113.8047 522.1528,115.511 526.7014,116.9003 531.25,117.6251 535.7986,118.3321 540.3472,118.7777 544.8958,119.3577 549.4444,120.0711 553.9931,121.1712 558.5417,123.597 563.0903,126.2234 567.6389,128.8886 572.1875,131.1032 576.7361,132.1308 581.2847,130.2538 585.8333,129.149 590.3819,128.5405 594.9306,127.9984 599.4792,127.4363 604.0278,126.1251 608.5764,125.0973 613.125,124.2288 617.6736,123.2539 622.2222,122.1961 622.2222,164.4959 617.6736,163.9257 613.125,163.4095 608.5764,163.4741 604.0278,163.7637 599.4792,164.1042 594.9306,163.9929 590.3819,163.6825 585.8333,163.5942 581.2847,163.6686 576.7361,163.9044 572.1875,162.9374 567.6389,161.2582 563.0903,159.0357 558.5417,156.3934 553.9931,153.4734 549.4444,153.2397 544.8958,153.6439 540.3472,153.9418 535.7986,153.9795 531.25,153.9778 526.7014,153.8833 522.1528,153.5903 517.6042,153.0838 513.0556,152.3658 508.5069,151.4467 503.9583,150.3335 499.4097,149.03 494.8611,147.5403 490.3125,145.8691 485.7639,144.0214 481.2153,142.0018 476.6667,139.8149 472.1181,137.4635 467.5694,134.9483 463.0208,133.8845 458.4722,133.1904 453.9236,132.3438 449.375,132.8028 444.8264,133.804 440.2778,134.9189 435.7292,135.8896 431.1806,136.5786 426.6319,137.3742 422.0833,138.1487 417.5347,138.8052 412.9861,139.2845 408.4375,139.5663 403.8889,139.4355 399.3403,138.9382 394.7917,139.1228 390.2431,139.5306 385.6944,139.9087 381.1458,140.1224 376.5972,140.1225 372.0486,139.8885 367.5,139.3947 362.9514,138.6093 358.4028,137.4939 353.8542,136.0017 349.3056,136.131 344.7569,137.1342 340.2083,138.5803 335.6597,140.188 331.1111,141.7791 326.5625,143.2638 322.0139,144.621 317.4653,145.8534 312.9167,146.9611 308.3681,147.942 303.8194,148.7914 299.2708,149.5023 294.7222,150.0652 290.1736,150.4671 285.625,150.6917 281.0764,150.718 276.5278,150.5186 271.9792,150.8744 267.4306,151.4686 262.8819,152.1225 258.3333,152.7179 253.7847,153.1846 249.2361,153.492 244.6875,153.6209 240.1389,154.0832 235.5903,154.6573 231.0417,155.2118 226.4931,155.6753 221.9444,156.0233 217.3958,156.248 212.8472,156.3391 208.2986,156.2846 203.75,156.0697 199.2014,155.6772 194.6528,155.087 190.1042,154.2757 185.5556,153.2162 181.0069,151.8768 176.4583,152.2303 171.9097,153.3891 167.3611,154.8926 162.8125,156.4656 158.2639,157.9666 153.7153,159.3599 149.1667,160.6501 144.6181,161.8396 140.0694,162.9294 135.5208,163.9184 130.9722,164.8044 126.4236,165.5832 121.875,166.2495 117.3264,166.7961 112.7778,167.2145 108.2292,167.4944 103.6806,167.6238 99.1319,167.5891 94.5833,167.3746 90.0347,166.9626 85.4861,166.333 80.9375,166.4798 76.3889,167.0731 71.8403,167.9507 67.2917,169.0109 62.7431,170.1775 58.1944,171.3899 53.6458,172.6042 49.0972,173.3797 44.5486,173.7872 40,174.1935"></polyline>
<text class = "party erc" x="631.1111" y="140"><tspan class="party_name">ERC</tspan><tspan class="party_result"> (23.5±2.6%)</tspan></text>
<polyline id="media-jxcat"  class="jxcat media" points=" 40,224.4594 44.5486,224.359 49.0972,224.2493 53.6458,224.1299 58.1944,224.0021 62.7431,223.8719 67.2917,223.7498 71.8403,223.6502 76.3889,223.5915 80.9375,223.6006 85.4861,223.7275 90.0347,224.0987 94.5833,224.4671 99.1319,224.8301 103.6806,225.1856 108.2292,225.5318 112.7778,225.8674 117.3264,226.1915 121.875,226.5033 126.4236,226.8023 130.9722,227.0885 135.5208,227.3617 140.0694,227.6219 144.6181,227.8694 149.1667,228.1044 153.7153,228.3272 158.2639,228.5382 162.8125,228.7378 167.3611,228.9238 171.9097,229.089 176.4583,229.2209 181.0069,229.3007 185.5556,229.2919 190.1042,229.2934 194.6528,229.3013 199.2014,229.3118 203.75,229.3215 208.2986,229.3269 212.8472,229.3247 217.3958,229.3113 221.9444,229.2831 226.4931,229.2362 231.0417,229.1661 235.5903,229.0838 240.1389,229.0416 244.6875,229.152 249.2361,229.6582 253.7847,230.1157 258.3333,230.5242 262.8819,230.8828 267.4306,231.195 271.9792,231.4775 276.5278,231.773 281.0764,232.1922 285.625,232.6498 290.1736,233.1415 294.7222,233.6642 299.2708,234.2162 303.8194,234.7963 308.3681,235.4046 312.9167,236.0417 317.4653,236.7092 322.0139,237.4094 326.5625,238.1457 331.1111,238.9224 335.6597,239.73 340.2083,240.52 344.7569,241.1937 349.3056,241.5943 353.8542,241.478 358.4028,240.4117 362.9514,239.5282 367.5,238.8047 372.0486,238.2213 376.5972,237.761 381.1458,237.4087 385.6944,237.1512 390.2431,236.9785 394.7917,236.8844 399.3403,236.8685 403.8889,236.946 408.4375,237.1149 412.9861,237.4211 417.5347,237.8208 422.0833,238.2957 426.6319,238.743 431.1806,238.9461 435.7292,238.4861 440.2778,238.2311 444.8264,238.128 449.375,238.0829 453.9236,237.9353 458.4722,237.383 463.0208,236.8358 467.5694,235.97 472.1181,234.0435 476.6667,232.1002 481.2153,230.1534 485.7639,228.2164 490.3125,226.3022 494.8611,224.4236 499.4097,222.5921 503.9583,220.8185 508.5069,219.1121 513.0556,217.4807 517.6042,215.9532 522.1528,214.6065 526.7014,213.5821 531.25,213.1299 535.7986,212.7942 540.3472,212.8018 544.8958,212.7491 549.4444,212.5997 553.9931,212.048 558.5417,210.1273 563.0903,208.0776 567.6389,206.152 572.1875,204.4945 576.7361,203.2399 581.2847,202.633 585.8333,201.7369 590.3819,200.8547 594.9306,200.5042 599.4792,200.2545 604.0278,200.6177 608.5764,200.8465 613.125,201.0466 617.6736,201.4175 622.2222,201.7962"></polyline>
<polyline id="error-jxcat" class="jxcat error" points=" 40,188.6104 44.5486,189.102 49.0972,189.6005 53.6458,190.4166 58.1944,191.6085 62.7431,192.7973 67.2917,193.9347 71.8403,194.9553 76.3889,195.7761 80.9375,196.2846 85.4861,196.2943 90.0347,195.4009 94.5833,194.6966 99.1319,194.166 103.6806,193.7953 108.2292,193.5717 112.7778,193.4836 117.3264,193.5205 121.875,193.673 126.4236,193.9325 130.9722,194.2917 135.5208,194.7441 140.0694,195.2843 144.6181,195.908 149.1667,196.6117 153.7153,197.3932 158.2639,198.2512 162.8125,199.1858 167.3611,200.1751 171.9097,201.1388 176.4583,201.9246 181.0069,202.2827 185.5556,201.7487 190.1042,201.4029 194.6528,201.224 199.2014,201.1939 203.75,201.297 208.2986,201.5202 212.8472,201.852 217.3958,202.283 221.9444,202.8052 226.4931,203.4121 231.0417,204.0985 235.5903,204.8415 240.1389,205.5747 244.6875,206.1832 249.2361,206.4849 253.7847,206.9739 258.3333,207.6306 262.8819,208.4175 267.4306,209.2425 271.9792,209.9498 276.5278,210.2987 281.0764,209.8195 285.625,209.5737 290.1736,209.534 294.7222,209.6784 299.2708,209.9893 303.8194,210.4525 308.3681,211.0566 312.9167,211.7928 317.4653,212.6544 322.0139,213.637 326.5625,214.7383 331.1111,215.9581 335.6597,217.2767 340.2083,218.6182 344.7569,219.8345 349.3056,220.695 353.8542,220.8489 358.4028,219.6894 362.9514,218.8518 367.5,218.2977 372.0486,217.9948 376.5972,217.9158 381.1458,218.038 385.6944,218.3421 390.2431,218.7936 394.7917,219.3141 399.3403,219.7734 403.8889,219.9685 408.4375,220.227 412.9861,220.4512 417.5347,220.9422 422.0833,221.6529 426.6319,222.4063 431.1806,222.8466 435.7292,222.3116 440.2778,222.1588 444.8264,222.2921 449.375,222.5532 453.9236,222.6796 458.4722,222.1901 463.0208,221.722 467.5694,220.7435 472.1181,218.1039 476.6667,215.5781 481.2153,213.1739 485.7639,210.9005 490.3125,208.7675 494.8611,206.7845 499.4097,204.9605 503.9583,203.3036 508.5069,201.8204 513.0556,200.5164 517.6042,199.4072 522.1528,198.5292 526.7014,197.9413 531.25,197.7444 535.7986,197.6994 540.3472,197.9116 544.8958,198.2315 549.4444,198.5551 553.9931,198.3566 558.5417,196.1612 563.0903,194.039 567.6389,192.2436 572.1875,190.7677 576.7361,189.5067 581.2847,188.1863 585.8333,186.8314 590.3819,185.6318 594.9306,184.9039 599.4792,184.3581 604.0278,184.3148 608.5764,184.2342 613.125,184.0936 617.6736,183.825 622.2222,183.5053 622.2222,220.0871 617.6736,219.0099 613.125,217.9995 608.5764,217.4587 604.0278,216.9206 599.4792,216.1509 594.9306,216.1044 590.3819,216.0776 585.8333,216.6424 581.2847,217.0798 576.7361,216.9731 572.1875,218.2213 567.6389,220.0605 563.0903,222.1161 558.5417,224.0935 553.9931,225.7395 549.4444,226.6442 544.8958,227.2666 540.3472,227.6921 535.7986,227.8891 531.25,228.5154 526.7014,229.2229 522.1528,230.6837 517.6042,232.4992 513.0556,234.4451 508.5069,236.4037 503.9583,238.3333 499.4097,240.2236 494.8611,242.0626 490.3125,243.837 485.7639,245.5323 481.2153,247.1328 476.6667,248.6223 472.1181,249.9831 467.5694,251.1966 463.0208,251.9495 458.4722,252.5759 453.9236,253.1909 449.375,253.6126 444.8264,253.9639 440.2778,254.3034 435.7292,254.6606 431.1806,255.0455 426.6319,255.0798 422.0833,254.9384 417.5347,254.6995 412.9861,254.391 408.4375,254.0028 403.8889,253.9235 399.3403,253.9636 394.7917,254.4546 390.2431,255.1634 385.6944,255.9603 381.1458,256.7793 376.5972,257.6061 372.0486,258.4479 367.5,259.3118 362.9514,260.2047 358.4028,261.1339 353.8542,262.1071 349.3056,262.4935 344.7569,262.5529 340.2083,262.4219 335.6597,262.1834 331.1111,261.8867 326.5625,261.5531 322.0139,261.1818 317.4653,260.764 312.9167,260.2907 308.3681,259.7527 303.8194,259.1402 299.2708,258.4431 294.7222,257.6501 290.1736,256.749 285.625,255.7259 281.0764,254.565 276.5278,253.2473 271.9792,253.0051 267.4306,253.1474 262.8819,253.3481 258.3333,253.4178 253.7847,253.2575 249.2361,252.8315 244.6875,252.1208 240.1389,252.5086 235.5903,253.3262 231.0417,254.2337 226.4931,255.0603 221.9444,255.761 217.3958,256.3396 212.8472,256.7973 208.2986,257.1336 203.75,257.3459 199.2014,257.4297 194.6528,257.3785 190.1042,257.184 185.5556,256.8352 181.0069,256.3187 176.4583,256.5173 171.9097,257.0393 167.3611,257.6726 162.8125,258.2897 158.2639,258.8252 153.7153,259.2613 149.1667,259.5971 144.6181,259.8308 140.0694,259.9595 135.5208,259.9792 130.9722,259.8853 126.4236,259.6722 121.875,259.3335 117.3264,258.8624 112.7778,258.2512 108.2292,257.4919 103.6806,256.5759 99.1319,255.4942 94.5833,254.2375 90.0347,252.7964 85.4861,251.1607 80.9375,250.9165 76.3889,251.407 71.8403,252.3452 67.2917,253.5649 62.7431,254.9466 58.1944,256.3958 53.6458,257.8432 49.0972,258.8981 44.5486,259.6159 40,260.3084"></polyline>
<text class = "party jxcat" x="631.1111" y="196"><tspan class="party_name">JxCAT</tspan><tspan class="party_result"> (16.3±2.3%)</tspan></text>
<polyline id="media-cec"  class="cec media" points=" 40,242.143 44.5486,241.8784 49.0972,241.6016 53.6458,241.312 58.1944,241.0127 62.7431,240.7149 67.2917,240.4375 71.8403,240.2052 76.3889,240.0486 80.9375,240.0114 85.4861,240.1747 90.0347,240.7433 94.5833,241.2931 99.1319,241.8201 103.6806,242.3212 108.2292,242.7944 112.7778,243.2384 117.3264,243.6526 121.875,244.0369 126.4236,244.3917 130.9722,244.7178 135.5208,245.0163 140.0694,245.2886 144.6181,245.5361 149.1667,245.7609 153.7153,245.9647 158.2639,246.1497 162.8125,246.3184 167.3611,246.4694 171.9097,246.5919 176.4583,246.6632 181.0069,246.6418 185.5556,246.4386 190.1042,246.2316 194.6528,246.0169 199.2014,245.7911 203.75,245.5507 208.2986,245.2929 212.8472,245.0145 217.3958,244.7127 221.9444,244.3846 226.4931,244.027 231.0417,243.6366 235.5903,243.2338 240.1389,242.8965 244.6875,242.777 249.2361,243.1822 253.7847,243.4728 258.3333,243.6547 262.8819,243.7414 267.4306,243.7698 271.9792,243.8096 276.5278,243.9803 281.0764,244.5505 285.625,245.0798 290.1736,245.5652 294.7222,246.0046 299.2708,246.3967 303.8194,246.7409 308.3681,247.0366 312.9167,247.2834 317.4653,247.4808 322.0139,247.6285 326.5625,247.7254 331.1111,247.7704 335.6597,247.7678 340.2083,247.7387 344.7569,247.7276 349.3056,247.8078 353.8542,248.0968 358.4028,248.8049 362.9514,249.4332 367.5,249.9873 372.0486,250.4725 376.5972,250.8938 381.1458,251.2561 385.6944,251.5643 390.2431,251.814 394.7917,251.9784 399.3403,252 403.8889,251.7557 408.4375,251.7326 412.9861,252.0779 417.5347,252.3532 422.0833,252.5659 426.6319,252.7707 431.1806,253.0992 435.7292,253.8305 440.2778,254.4825 444.8264,255.0638 449.375,255.5989 453.9236,256.133 458.4722,256.7479 463.0208,257.2897 467.5694,257.7473 472.1181,258.125 476.6667,258.5714 481.2153,259.0732 485.7639,259.6191 490.3125,260.1995 494.8611,260.8057 499.4097,261.4301 503.9583,262.0658 508.5069,262.707 513.0556,263.3489 517.6042,263.977 522.1528,264.5546 526.7014,265.0241 531.25,265.3061 535.7986,265.6854 540.3472,266.2097 544.8958,266.8354 549.4444,267.4784 553.9931,267.8147 558.5417,267.0349 563.0903,266.4804 567.6389,266.089 572.1875,265.8538 576.7361,265.7995 581.2847,266.0448 585.8333,266.2533 590.3819,266.2866 594.9306,265.8546 599.4792,265.4626 604.0278,265.1273 608.5764,264.853 613.125,264.7115 617.6736,264.8292 622.2222,264.8786"></polyline>
<polyline id="error-cec" class="cec error" points=" 40,215.0678 44.5486,215.365 49.0972,215.6652 53.6458,216.1458 58.1944,216.8408 62.7431,217.5363 67.2917,218.2071 71.8403,218.8178 76.3889,219.3233 80.9375,219.6629 85.4861,219.7405 90.0347,219.3639 94.5833,219.113 99.1319,218.9743 103.6806,218.936 108.2292,218.9876 112.7778,219.1201 117.3264,219.3256 121.875,219.5974 126.4236,219.9296 130.9722,220.3178 135.5208,220.758 140.0694,221.2476 144.6181,221.7845 149.1667,222.3679 153.7153,222.9977 158.2639,223.6748 162.8125,224.4014 167.3611,225.1608 171.9097,225.8871 176.4583,226.4512 181.0069,226.6366 185.5556,226.0283 190.1042,225.5499 194.6528,225.1844 199.2014,224.9174 203.75,224.7369 208.2986,224.6322 212.8472,224.5946 217.3958,224.6166 221.9444,224.692 226.4931,224.8156 231.0417,224.9836 235.5903,225.1913 240.1389,225.4286 244.6875,225.6782 249.2361,225.931 253.7847,226.2445 258.3333,226.6103 262.8819,227.0147 267.4306,227.4239 271.9792,227.779 276.5278,227.9888 281.0764,227.8902 285.625,227.8958 290.1736,227.9848 294.7222,228.141 299.2708,228.3511 303.8194,228.6044 308.3681,228.8918 312.9167,229.2056 317.4653,229.5394 322.0139,229.8872 326.5625,230.2441 331.1111,230.6054 335.6597,230.9683 340.2083,231.3353 344.7569,231.7179 349.3056,232.1399 353.8542,232.6473 358.4028,233.3376 362.9514,234.0457 367.5,234.7656 372.0486,235.4936 376.5972,236.2274 381.1458,236.9663 385.6944,237.711 390.2431,238.4391 394.7917,239.0694 399.3403,239.446 403.8889,239.28 408.4375,239.3195 412.9861,239.6081 417.5347,239.9516 422.0833,240.3368 426.6319,240.7666 431.1806,241.2777 435.7292,241.9844 440.2778,242.7371 444.8264,243.513 449.375,244.2913 453.9236,245.0462 458.4722,245.7357 463.0208,246.3616 467.5694,246.766 472.1181,246.6692 476.6667,246.7413 481.2153,246.9634 485.7639,247.3202 490.3125,247.7979 494.8611,248.3846 499.4097,249.0693 503.9583,249.8419 508.5069,250.6937 513.0556,251.6168 517.6042,252.5859 522.1528,253.533 526.7014,254.3383 531.25,254.8141 535.7986,255.4124 540.3472,256.0948 544.8958,256.9986 549.4444,257.9897 553.9931,258.5866 558.5417,257.6201 563.0903,257.0262 567.6389,256.7376 572.1875,256.641 576.7361,256.596 581.2847,256.3666 585.8333,256.2781 590.3819,256.1061 594.9306,255.4067 599.4792,254.8024 604.0278,254.1717 608.5764,253.672 613.125,253.2876 617.6736,252.9612 622.2222,252.5222 622.2222,277.235 617.6736,276.6972 613.125,276.1354 608.5764,276.034 604.0278,276.0829 599.4792,276.1229 594.9306,276.3025 590.3819,276.467 585.8333,276.2285 581.2847,275.7231 576.7361,275.0031 572.1875,275.0666 567.6389,275.4405 563.0903,275.9346 558.5417,276.4497 553.9931,277.0428 549.4444,276.967 544.8958,276.6723 540.3472,276.3246 535.7986,275.9584 531.25,275.7981 526.7014,275.7098 522.1528,275.5763 517.6042,275.368 513.0556,275.081 508.5069,274.7204 503.9583,274.2896 499.4097,273.7908 494.8611,273.2268 490.3125,272.6011 485.7639,271.9181 481.2153,271.1829 476.6667,270.4015 472.1181,269.5808 467.5694,268.7286 463.0208,268.2177 458.4722,267.7601 453.9236,267.2198 449.375,266.9065 444.8264,266.6146 440.2778,266.2279 435.7292,265.6766 431.1806,264.9208 426.6319,264.7747 422.0833,264.795 417.5347,264.7548 412.9861,264.5477 408.4375,264.1457 403.8889,264.2313 399.3403,264.554 394.7917,264.8875 390.2431,265.1888 385.6944,265.4176 381.1458,265.546 376.5972,265.5602 372.0486,265.4514 367.5,265.2089 362.9514,264.8207 358.4028,264.2722 353.8542,263.5462 349.3056,263.4758 344.7569,263.7372 340.2083,264.1421 335.6597,264.5673 331.1111,264.9354 326.5625,265.2066 322.0139,265.3697 317.4653,265.4223 312.9167,265.3611 308.3681,265.1814 303.8194,264.8774 299.2708,264.4424 294.7222,263.8681 290.1736,263.1455 285.625,262.2638 281.0764,261.2108 276.5278,259.9717 271.9792,259.8401 267.4306,260.1157 262.8819,260.468 258.3333,260.6991 253.7847,260.701 249.2361,260.4334 244.6875,259.8758 240.1389,260.3645 235.5903,261.2763 231.0417,262.2896 226.4931,263.2384 221.9444,264.0773 217.3958,264.8089 212.8472,265.4344 208.2986,265.9535 203.75,266.3646 199.2014,266.6647 194.6528,266.8495 190.1042,266.9133 185.5556,266.8489 181.0069,266.6471 176.4583,266.8752 171.9097,267.2968 167.3611,267.7779 162.8125,268.2354 158.2639,268.6246 153.7153,268.9316 149.1667,269.1538 144.6181,269.2878 140.0694,269.3296 135.5208,269.2746 130.9722,269.1179 126.4236,268.8538 121.875,268.4764 117.3264,267.9796 112.7778,267.3567 108.2292,266.6012 103.6806,265.7064 99.1319,264.6658 94.5833,263.4732 90.0347,262.1227 85.4861,260.6088 80.9375,260.3599 76.3889,260.7739 71.8403,261.5926 67.2917,262.6679 62.7431,263.8935 58.1944,265.1846 53.6458,266.4782 49.0972,267.538 44.5486,268.3919 40,269.2182"></polyline>
<text class = "party cec" x="631.1111" y="255"><tspan class="party_name">CeC</tspan><tspan class="party_result"> (8.5±1.5%)</tspan></text>
<polyline id="media-psc"  class="psc media" points=" 40,223.4742 44.5486,223.433 49.0972,223.3851 53.6458,223.3295 58.1944,223.267 62.7431,223.2017 67.2917,223.1417 71.8403,223.0983 76.3889,223.0873 80.9375,223.1323 85.4861,223.2783 90.0347,223.6389 94.5833,224.0129 99.1319,224.3994 103.6806,224.7978 108.2292,225.2078 112.7778,225.6297 117.3264,226.064 121.875,226.5116 126.4236,226.9739 130.9722,227.4526 135.5208,227.9499 140.0694,228.4685 144.6181,229.0115 149.1667,229.5827 153.7153,230.1864 158.2639,230.8279 162.8125,231.5132 167.3611,232.2223 171.9097,232.8671 176.4583,233.2728 181.0069,233.1375 185.5556,231.8433 190.1042,230.6593 194.6528,229.5748 199.2014,228.5796 203.75,227.6639 208.2986,226.8181 212.8472,226.0334 217.3958,225.3008 221.9444,224.6121 226.4931,223.959 231.0417,223.333 235.5903,222.751 240.1389,222.2894 244.6875,222.0991 249.2361,222.4927 253.7847,222.8073 258.3333,223.0557 262.8819,223.2487 267.4306,223.4001 271.9792,223.5325 276.5278,223.6848 281.0764,223.9443 285.625,224.2165 290.1736,224.5018 294.7222,224.8013 299.2708,225.1171 303.8194,225.4513 308.3681,225.807 312.9167,226.1874 317.4653,226.5965 322.0139,227.0388 326.5625,227.5195 331.1111,228.045 335.6597,228.6076 340.2083,229.1604 344.7569,229.604 349.3056,229.7758 353.8542,229.4182 358.4028,228.0677 362.9514,226.8834 367.5,225.8455 372.0486,224.9369 376.5972,224.143 381.1458,223.4509 385.6944,222.8495 390.2431,222.3365 394.7917,221.9254 399.3403,221.6441 403.8889,221.549 408.4375,221.3183 412.9861,220.8484 417.5347,220.3862 422.0833,219.9506 426.6319,219.6022 431.1806,219.4598 435.7292,219.7548 440.2778,220.0216 444.8264,220.2376 449.375,220.3306 453.9236,220.1686 458.4722,219.512 463.0208,218.9533 467.5694,218.4515 472.1181,217.9088 476.6667,217.3195 481.2153,216.6942 485.7639,216.0417 490.3125,215.3703 494.8611,214.6871 499.4097,213.9991 503.9583,213.3123 508.5069,212.6325 513.0556,211.9648 517.6042,211.3136 522.1528,210.6771 526.7014,210.0604 531.25,209.5016 535.7986,209.2297 540.3472,209.5928 544.8958,209.8413 549.4444,209.9796 553.9931,209.9415 558.5417,209.4913 563.0903,208.9556 567.6389,208.433 572.1875,207.9957 576.7361,207.7445 581.2847,207.9057 585.8333,207.9173 590.3819,207.7995 594.9306,207.6268 599.4792,207.7755 604.0278,208.8208 608.5764,209.7118 613.125,210.296 617.6736,210.2881 622.2222,210.3106"></polyline>
<polyline id="error-psc" class="psc error" points=" 40,189.2051 44.5486,189.7599 49.0972,190.324 53.6458,191.1803 58.1944,192.3809 62.7431,193.5777 67.2917,194.7226 71.8403,195.7507 76.3889,196.5809 80.9375,197.1039 85.4861,197.139 90.0347,196.2928 94.5833,195.6437 99.1319,195.1788 103.6806,194.8863 108.2292,194.7557 112.7778,194.7774 117.3264,194.943 121.875,195.2451 126.4236,195.6774 130.9722,196.2348 135.5208,196.9135 140.0694,197.7109 144.6181,198.6259 149.1667,199.6588 153.7153,200.8115 158.2639,202.0877 162.8125,203.4932 167.3611,204.9879 171.9097,206.411 176.4583,207.4488 181.0069,207.5695 185.5556,205.7256 190.1042,204.1641 194.6528,202.8585 199.2014,201.7849 203.75,200.9222 208.2986,200.2515 212.8472,199.7565 217.3958,199.4224 221.9444,199.2368 226.4931,199.1888 231.0417,199.2692 235.5903,199.4627 240.1389,199.7322 244.6875,200.011 249.2361,200.2042 253.7847,200.5444 258.3333,201.0262 262.8819,201.6257 267.4306,202.2654 271.9792,202.8019 276.5278,203.001 281.0764,202.3902 285.625,201.9789 290.1736,201.7452 294.7222,201.6724 299.2708,201.7473 303.8194,201.9598 308.3681,202.3021 312.9167,202.7685 317.4653,203.3552 322.0139,204.0603 326.5625,204.8838 331.1111,205.8276 335.6597,206.8747 340.2083,207.9516 344.7569,208.9114 349.3056,209.5201 353.8542,209.4166 358.4028,207.9689 362.9514,206.8212 367.5,205.9391 372.0486,205.2937 376.5972,204.8606 381.1458,204.6197 385.6944,204.5542 390.2431,204.6384 394.7917,204.8163 399.3403,204.9901 403.8889,205.0049 408.4375,204.851 412.9861,204.2813 417.5347,203.8857 422.0833,203.6567 426.6319,203.5869 431.1806,203.6678 435.7292,203.9086 440.2778,204.2882 444.8264,204.7427 449.375,205.1378 453.9236,205.2433 458.4722,204.647 463.0208,204.1664 467.5694,203.5647 472.1181,202.3625 476.6667,201.2421 481.2153,200.2075 485.7639,199.2628 490.3125,198.4119 494.8611,197.6587 499.4097,197.0066 503.9583,196.4589 508.5069,196.0181 513.0556,195.6869 517.6042,195.4564 522.1528,195.2842 526.7014,195.0936 531.25,194.7769 535.7986,194.7844 540.3472,195.3504 544.8958,195.9615 549.4444,196.5575 553.9931,196.8663 558.5417,196.1799 563.0903,195.6017 567.6389,195.2268 572.1875,194.9824 576.7361,194.7415 581.2847,194.2397 585.8333,193.8328 590.3819,193.428 594.9306,192.9013 599.4792,192.7776 604.0278,193.4536 608.5764,194.0673 613.125,194.3387 617.6736,193.7196 622.2222,193.0752 622.2222,227.5461 617.6736,226.8565 613.125,226.2532 608.5764,225.3564 604.0278,224.1879 599.4792,222.7735 594.9306,222.3523 590.3819,222.171 585.8333,222.0018 581.2847,221.5717 576.7361,220.7474 572.1875,221.009 567.6389,221.6391 563.0903,222.3095 558.5417,222.8027 553.9931,223.0167 549.4444,223.4017 544.8958,223.7212 540.3472,223.8351 535.7986,223.675 531.25,224.2264 526.7014,225.0271 522.1528,226.0701 517.6042,227.1708 513.0556,228.2427 508.5069,229.2469 503.9583,230.1657 499.4097,230.9915 494.8611,231.7156 490.3125,232.3286 485.7639,232.8207 481.2153,233.1808 476.6667,233.3969 472.1181,233.455 467.5694,233.3383 463.0208,233.7401 458.4722,234.3771 453.9236,235.0939 449.375,235.5234 444.8264,235.7325 440.2778,235.7551 435.7292,235.6011 431.1806,235.2518 426.6319,235.6175 422.0833,236.2444 417.5347,236.8866 412.9861,237.4155 408.4375,237.7857 403.8889,238.0932 399.3403,238.2981 394.7917,239.0345 390.2431,240.0347 385.6944,241.1449 381.1458,242.2821 376.5972,243.4254 372.0486,244.5802 367.5,245.7519 362.9514,246.9456 358.4028,248.1666 353.8542,249.4199 349.3056,250.0314 344.7569,250.2966 340.2083,250.3693 335.6597,250.3406 331.1111,250.2623 326.5625,250.1552 322.0139,250.0172 317.4653,249.8378 312.9167,249.6064 308.3681,249.3119 303.8194,248.9429 299.2708,248.4868 294.7222,247.9303 290.1736,247.2583 285.625,246.4541 281.0764,245.4984 276.5278,244.3686 271.9792,244.2632 267.4306,244.5348 262.8819,244.8716 258.3333,245.0853 253.7847,245.0703 249.2361,244.7811 244.6875,244.1872 240.1389,244.8465 235.5903,246.0393 231.0417,247.3967 226.4931,248.7291 221.9444,249.9875 217.3958,251.1793 212.8472,252.3103 208.2986,253.3847 203.75,254.4056 199.2014,255.3743 194.6528,256.2911 190.1042,257.1544 185.5556,257.9611 181.0069,258.7055 176.4583,259.0968 171.9097,259.3231 167.3611,259.4568 162.8125,259.5332 158.2639,259.5681 153.7153,259.5613 149.1667,259.5065 144.6181,259.397 140.0694,259.226 135.5208,258.9863 130.9722,258.6704 126.4236,258.2704 121.875,257.7781 117.3264,257.1849 112.7778,256.482 108.2292,255.66 103.6806,254.7093 99.1319,253.62 94.5833,252.382 90.0347,250.9849 85.4861,249.4177 80.9375,249.1607 76.3889,249.5937 71.8403,250.4459 67.2917,251.5607 62.7431,252.8258 58.1944,254.1531 53.6458,255.4787 49.0972,256.4461 44.5486,257.1062 40,257.7432"></polyline>
<text class = "party psc" x="631.1111" y="216"><tspan class="party_name">PSC</tspan><tspan class="party_result"> (15.2±2.1%)</tspan></text>
<polyline id="media-cs"  class="cs media" points=" 40,187.0654 44.5486,187.2811 49.0972,187.5052 53.6458,187.7378 58.1944,187.9764 62.7431,188.2127 67.2917,188.4332 71.8403,188.6204 76.3889,188.7534 80.9375,188.8026 85.4861,188.7136 90.0347,188.3491 94.5833,188.0061 99.1319,187.6878 103.6806,187.3965 108.2292,187.1339 112.7778,186.9012 117.3264,186.6991 121.875,186.528 126.4236,186.3879 130.9722,186.2787 135.5208,186.2001 140.0694,186.1517 144.6181,186.1332 149.1667,186.1441 153.7153,186.1841 158.2639,186.2529 162.8125,186.3502 167.3611,186.4704 171.9097,186.5946 176.4583,186.6868 181.0069,186.6878 185.5556,186.4814 190.1042,186.3191 194.6528,186.2008 199.2014,186.1265 203.75,186.0961 208.2986,186.1093 212.8472,186.1661 217.3958,186.2665 221.9444,186.4108 226.4931,186.5992 231.0417,186.8323 235.5903,187.0949 240.1389,187.3337 244.6875,187.4479 249.2361,187.2421 253.7847,187.1435 258.3333,187.1521 262.8819,187.2538 267.4306,187.3953 271.9792,187.4733 276.5278,187.3087 281.0764,186.4907 285.625,185.7318 290.1736,185.0323 294.7222,184.3923 299.2708,183.8111 303.8194,183.2878 308.3681,182.8214 312.9167,182.4107 317.4653,182.0546 322.0139,181.752 326.5625,181.5019 331.1111,181.3036 335.6597,181.1544 340.2083,181.0446 344.7569,180.9549 349.3056,180.8534 353.8542,180.6901 358.4028,180.3774 362.9514,180.1205 367.5,179.9212 372.0486,179.7812 376.5972,179.7027 381.1458,179.6882 385.6944,179.7413 390.2431,179.8382 394.7917,179.8805 399.3403,179.6652 403.8889,178.7918 408.4375,178.0581 412.9861,177.3973 417.5347,176.7951 422.0833,176.262 426.6319,175.8076 431.1806,175.4332 435.7292,175.1249 440.2778,174.8454 444.8264,174.5766 449.375,174.2578 453.9236,173.7762 458.4722,172.9276 463.0208,172.1996 467.5694,171.5887 472.1181,171.0625 476.6667,170.4639 481.2153,169.8067 485.7639,169.103 490.3125,168.3633 494.8611,167.5971 499.4097,166.8129 503.9583,166.0183 508.5069,165.2197 513.0556,164.4228 517.6042,163.6456 522.1528,162.9366 526.7014,162.3515 531.25,161.9124 535.7986,161.0526 540.3472,159.3579 544.8958,157.5131 549.4444,155.6818 553.9931,154.5627 558.5417,155.8904 563.0903,156.5901 567.6389,156.9571 572.1875,157.1927 576.7361,157.5672 581.2847,158.6459 585.8333,159.5762 590.3819,160.2908 594.9306,160.6124 599.4792,160.6092 604.0278,159.8973 608.5764,159.2064 613.125,158.6689 617.6736,158.539 622.2222,158.5263"></polyline>
<polyline id="error-cs" class="cs error" points=" 40,151.6505 44.5486,152.5087 49.0972,153.3933 53.6458,154.5818 58.1944,156.1216 62.7431,157.6583 67.2917,159.1202 71.8403,160.4107 76.3889,161.4087 80.9375,161.9468 85.4861,161.7361 90.0347,160.1115 94.5833,158.6954 99.1319,157.4792 103.6806,156.454 108.2292,155.6113 112.7778,154.9423 117.3264,154.4388 121.875,154.0927 126.4236,153.8963 130.9722,153.8427 135.5208,153.9254 140.0694,154.1389 144.6181,154.4783 149.1667,154.9397 153.7153,155.5203 158.2639,156.2182 162.8125,157.033 167.3611,157.9394 171.9097,158.8465 176.4583,159.58 181.0069,159.852 185.5556,159.1227 190.1042,158.6136 194.6528,158.3077 199.2014,158.1908 203.75,158.251 208.2986,158.4788 212.8472,158.8664 217.3958,159.408 221.9444,160.0997 226.4931,160.9394 231.0417,161.9269 235.5903,163.0129 240.1389,164.0237 244.6875,164.6283 249.2361,164.1987 253.7847,164.1133 258.3333,164.3536 262.8819,164.8692 267.4306,165.5111 271.9792,166.0022 276.5278,165.8769 281.0764,164.1351 285.625,162.6443 290.1736,161.3826 294.7222,160.3317 299.2708,159.4757 303.8194,158.8011 308.3681,158.296 312.9167,157.9498 317.4653,157.7537 322.0139,157.6998 326.5625,157.7817 331.1111,157.9943 335.6597,158.3251 340.2083,158.7391 344.7569,159.1701 349.3056,159.5161 353.8542,159.6257 358.4028,159.2485 362.9514,159.062 367.5,159.053 372.0486,159.2115 376.5972,159.53 381.1458,160.0038 385.6944,160.631 390.2431,161.3632 394.7917,162.0279 399.3403,162.2874 403.8889,161.5138 408.4375,160.852 412.9861,160.0874 417.5347,159.555 422.0833,159.2376 426.6319,159.0727 431.1806,158.9269 435.7292,158.5496 440.2778,158.3758 444.8264,158.3452 449.375,158.3331 453.9236,158.1257 458.4722,157.3412 463.0208,156.6956 467.5694,155.9822 472.1181,154.7736 476.6667,153.6264 481.2153,152.5477 485.7639,151.544 490.3125,150.6216 494.8611,149.7861 499.4097,149.0426 503.9583,148.3954 508.5069,147.8478 513.0556,147.4028 517.6042,147.065 522.1528,146.8414 526.7014,146.7035 531.25,146.5212 535.7986,145.9448 540.3472,144.4291 544.8958,142.9311 549.4444,141.5506 553.9931,140.7807 558.5417,141.8873 563.0903,142.5624 567.6389,143.0986 572.1875,143.5468 576.7361,143.9418 581.2847,144.3413 585.8333,144.8491 590.3819,145.2782 594.9306,145.2405 599.4792,144.9515 604.0278,143.8226 608.5764,142.8126 613.125,141.9278 617.6736,141.1593 622.2222,140.4513 622.2222,176.6013 617.6736,175.9188 613.125,175.4101 608.5764,175.6002 604.0278,175.9719 599.4792,176.2669 594.9306,175.9842 590.3819,175.3034 585.8333,174.3032 581.2847,172.9504 576.7361,171.1927 572.1875,170.8386 567.6389,170.8156 563.0903,170.6178 558.5417,169.8934 553.9931,168.3447 549.4444,169.813 544.8958,172.095 540.3472,174.2867 535.7986,176.1603 531.25,177.3035 526.7014,177.9994 522.1528,179.0318 517.6042,180.2263 513.0556,181.4427 508.5069,182.5915 503.9583,183.6412 499.4097,184.5832 494.8611,185.4081 490.3125,186.1051 485.7639,186.662 481.2153,187.0658 476.6667,187.3013 472.1181,187.3514 467.5694,187.1951 463.0208,187.7035 458.4722,188.5141 453.9236,189.4266 449.375,190.1825 444.8264,190.8081 440.2778,191.3149 435.7292,191.7003 431.1806,191.9394 426.6319,192.5425 422.0833,193.2865 417.5347,194.0352 412.9861,194.7071 408.4375,195.2642 403.8889,196.0698 399.3403,197.0429 394.7917,197.7331 390.2431,198.3131 385.6944,198.8516 381.1458,199.3726 376.5972,199.8754 372.0486,200.351 367.5,200.7894 362.9514,201.1791 358.4028,201.5063 353.8542,201.7544 349.3056,202.1907 344.7569,202.7397 340.2083,203.3501 335.6597,203.9836 331.1111,204.613 326.5625,205.2222 322.0139,205.8042 317.4653,206.3555 312.9167,206.8716 308.3681,207.3468 303.8194,207.7744 299.2708,208.1464 294.7222,208.4529 290.1736,208.682 285.625,208.8192 281.0764,208.8463 276.5278,208.7404 271.9792,208.9444 267.4306,209.2795 262.8819,209.6384 258.3333,209.9507 253.7847,210.1738 249.2361,210.2855 244.6875,210.2675 240.1389,210.6436 235.5903,211.177 231.0417,211.7377 226.4931,212.2589 221.9444,212.7218 217.3958,213.125 212.8472,213.4658 208.2986,213.7398 203.75,213.9411 199.2014,214.0623 194.6528,214.0939 190.1042,214.0245 185.5556,213.8401 181.0069,213.5235 176.4583,213.7937 171.9097,214.3428 167.3611,215.0015 162.8125,215.6673 158.2639,216.2875 153.7153,216.848 149.1667,217.3485 144.6181,217.7881 140.0694,218.1645 135.5208,218.4747 130.9722,218.7147 126.4236,218.8795 121.875,218.9634 117.3264,218.9595 112.7778,218.8601 108.2292,218.6565 103.6806,218.3389 99.1319,217.8964 94.5833,217.3168 90.0347,216.5868 85.4861,215.6911 80.9375,215.6584 76.3889,216.0981 71.8403,216.8302 67.2917,217.7462 62.7431,218.7671 58.1944,219.8311 53.6458,220.8937 49.0972,221.6171 44.5486,222.0536 40,222.4803"></polyline>
<text class = "party cs" x="631.1111" y="162"><tspan class="party_name">C's</tspan><tspan class="party_result"> (21.6±2.2%)</tspan></text>
<polyline id="media-pp"  class="pp media" points=" 40,257.7777 44.5486,257.6931 49.0972,257.608 53.6458,257.5227 58.1944,257.4381 62.7431,257.3561 67.2917,257.2798 71.8403,257.2121 76.3889,257.1564 80.9375,257.1163 85.4861,257.0982 90.0347,257.1187 94.5833,257.1251 99.1319,257.1166 103.6806,257.0925 108.2292,257.0527 112.7778,256.9966 117.3264,256.9242 121.875,256.8353 126.4236,256.7296 130.9722,256.6071 135.5208,256.4673 140.0694,256.3101 144.6181,256.135 149.1667,255.9413 153.7153,255.7283 158.2639,255.4952 162.8125,255.2408 167.3611,254.9727 171.9097,254.7211 176.4583,254.5437 181.0069,254.5377 185.5556,254.8979 190.1042,255.207 194.6528,255.4681 199.2014,255.6844 203.75,255.8587 208.2986,255.9941 212.8472,256.0933 217.3958,256.1592 221.9444,256.1943 226.4931,256.2016 231.0417,256.1841 235.5903,256.1417 240.1389,256.0641 244.6875,255.9214 249.2361,255.6336 253.7847,255.2985 258.3333,254.9102 262.8819,254.4803 267.4306,254.0643 271.9792,253.7684 276.5278,253.7744 281.0764,254.5006 285.625,255.1549 290.1736,255.7422 294.7222,256.2665 299.2708,256.7315 303.8194,257.1402 308.3681,257.4955 312.9167,257.7996 317.4653,258.0545 322.0139,258.2619 326.5625,258.4228 331.1111,258.538 335.6597,258.6113 340.2083,258.657 344.7569,258.7036 349.3056,258.7986 353.8542,259.0169 358.4028,259.4931 362.9514,259.9175 367.5,260.2936 372.0486,260.6247 376.5972,260.9143 381.1458,261.1664 385.6944,261.385 390.2431,261.5628 394.7917,261.6625 399.3403,261.603 403.8889,261.2136 408.4375,261.1143 412.9861,261.4824 417.5347,261.7988 422.0833,262.0629 426.6319,262.271 431.1806,262.4193 435.7292,262.501 440.2778,262.5515 444.8264,262.5689 449.375,262.5598 453.9236,262.5476 458.4722,262.5937 463.0208,262.6914 467.5694,262.9896 472.1181,263.8351 476.6667,264.6998 481.2153,265.5771 485.7639,266.4607 490.3125,267.3443 494.8611,268.2217 499.4097,269.0871 503.9583,269.9348 508.5069,270.7596 513.0556,271.5568 517.6042,272.325 522.1528,273.0783 526.7014,273.8498 531.25,274.6984 535.7986,275.4263 540.3472,275.8998 544.8958,276.5637 549.4444,277.3543 553.9931,278.0417 558.5417,278.1367 563.0903,278.7261 567.6389,279.4224 572.1875,280.0569 576.7361,280.4309 581.2847,280.1451 585.8333,280.0707 590.3819,280.1258 594.9306,280.1959 599.4792,280.3001 604.0278,280.2943 608.5764,280.3676 613.125,280.4596 617.6736,280.4564 622.2222,280.3708"></polyline>
<polyline id="error-pp" class="pp error" points=" 40,230.5776 44.5486,231.0429 49.0972,231.5221 53.6458,232.2101 58.1944,233.1421 62.7431,234.0747 67.2917,234.9656 71.8403,235.7565 76.3889,236.3732 80.9375,236.713 85.4861,236.6009 90.0347,235.6432 94.5833,234.8155 99.1319,234.1084 103.6806,233.5127 108.2292,233.0203 112.7778,232.6233 117.3264,232.3145 121.875,232.0872 126.4236,231.9351 130.9722,231.8528 135.5208,231.8351 140.0694,231.8774 144.6181,231.976 149.1667,232.1273 153.7153,232.3286 158.2639,232.5778 162.8125,232.8733 167.3611,233.2078 171.9097,233.5568 176.4583,233.8728 181.0069,234.0794 185.5556,234.0504 190.1042,234.1056 194.6528,234.2345 199.2014,234.4293 203.75,234.6839 208.2986,234.9936 212.8472,235.3553 217.3958,235.7673 221.9444,236.2289 226.4931,236.7412 231.0417,237.3066 235.5903,237.8986 240.1389,238.414 244.6875,238.6446 249.2361,238.175 253.7847,237.8385 258.3333,237.6147 262.8819,237.488 267.4306,237.4427 271.9792,237.4557 276.5278,237.4956 281.0764,237.5465 285.625,237.6726 290.1736,237.8609 294.7222,238.1009 299.2708,238.3842 303.8194,238.7039 308.3681,239.0539 312.9167,239.4295 317.4653,239.8263 322.0139,240.2407 326.5625,240.6695 331.1111,241.11 335.6597,241.5587 340.2083,242.0108 344.7569,242.4606 349.3056,242.9041 353.8542,243.3427 358.4028,243.7934 362.9514,244.2927 367.5,244.832 372.0486,245.4056 376.5972,246.0096 381.1458,246.6421 385.6944,247.3029 390.2431,247.9663 394.7917,248.5388 399.3403,248.8385 403.8889,248.5237 408.4375,248.4856 412.9861,248.7972 417.5347,249.1851 422.0833,249.627 426.6319,250.065 431.1806,250.394 435.7292,250.4309 440.2778,250.5657 444.8264,250.7649 449.375,250.9882 453.9236,251.1859 458.4722,251.2914 463.0208,251.4622 467.5694,251.701 472.1181,252.0736 476.6667,252.5679 481.2153,253.1714 485.7639,253.8733 490.3125,254.6631 494.8611,255.531 499.4097,256.4676 503.9583,257.464 508.5069,258.5116 513.0556,259.6027 517.6042,260.7251 522.1528,261.8625 526.7014,262.9877 531.25,264.0532 535.7986,265.0162 540.3472,265.6499 544.8958,266.5991 549.4444,267.7496 553.9931,268.7132 558.5417,268.6446 563.0903,269.2291 567.6389,270.0623 572.1875,270.8629 576.7361,271.2594 581.2847,270.4812 585.8333,270.0998 590.3819,269.9496 594.9306,269.7667 599.4792,269.6738 604.0278,269.3822 608.5764,269.2411 613.125,269.0979 617.6736,268.6458 622.2222,268.0654 622.2222,292.6762 617.6736,292.267 613.125,291.8213 608.5764,291.494 604.0278,291.2064 599.4792,290.9265 594.9306,290.6251 590.3819,290.302 585.8333,290.0415 581.2847,289.8089 576.7361,289.6023 572.1875,289.251 567.6389,288.7825 563.0903,288.2232 558.5417,287.6288 553.9931,287.3702 549.4444,286.959 544.8958,286.5283 540.3472,286.1496 535.7986,285.8363 531.25,285.3437 526.7014,284.7119 522.1528,284.2942 517.6042,283.9249 513.0556,283.5109 508.5069,283.0076 503.9583,282.4056 499.4097,281.7065 494.8611,280.9124 490.3125,280.0255 485.7639,279.0482 481.2153,277.9828 476.6667,276.8317 472.1181,275.5965 467.5694,274.2782 463.0208,273.9205 458.4722,273.896 453.9236,273.9094 449.375,274.1315 444.8264,274.373 440.2778,274.5373 435.7292,274.5711 431.1806,274.4445 426.6319,274.477 422.0833,274.4987 417.5347,274.4126 412.9861,274.1676 408.4375,273.7431 403.8889,273.9035 399.3403,274.3676 394.7917,274.7862 390.2431,275.1593 385.6944,275.467 381.1458,275.6907 376.5972,275.8191 372.0486,275.8438 367.5,275.7552 362.9514,275.5424 358.4028,275.1927 353.8542,274.6911 349.3056,274.6931 344.7569,274.9467 340.2083,275.3032 335.6597,275.6639 331.1111,275.9659 326.5625,276.176 322.0139,276.283 317.4653,276.2827 312.9167,276.1697 308.3681,275.937 303.8194,275.5766 299.2708,275.0788 294.7222,274.4322 290.1736,273.6236 285.625,272.6372 281.0764,271.4546 276.5278,270.0531 271.9792,270.0812 267.4306,270.6858 262.8819,271.4725 258.3333,272.2056 253.7847,272.7584 249.2361,273.0921 244.6875,273.1982 240.1389,273.7142 235.5903,274.3847 231.0417,275.0615 226.4931,275.662 221.9444,276.1597 217.3958,276.5511 212.8472,276.8314 208.2986,276.9946 203.75,277.0336 199.2014,276.9394 194.6528,276.7017 190.1042,276.3084 185.5556,275.7453 181.0069,274.9959 176.4583,275.2145 171.9097,275.8853 167.3611,276.7375 162.8125,277.6082 158.2639,278.4126 153.7153,279.128 149.1667,279.7552 144.6181,280.2939 140.0694,280.7428 135.5208,281.0996 130.9722,281.3613 126.4236,281.5241 121.875,281.5834 117.3264,281.5339 112.7778,281.3699 108.2292,281.085 103.6806,280.6724 99.1319,280.1248 94.5833,279.4347 90.0347,278.5943 85.4861,277.5955 80.9375,277.5195 76.3889,277.9396 71.8403,278.6678 67.2917,279.594 62.7431,280.6376 58.1944,281.7341 53.6458,282.8353 49.0972,283.6939 44.5486,284.3433 40,284.9778"></polyline>
<text class = "party pp" x="631.1111" y="275"><tspan class="party_name">PP</tspan><tspan class="party_result"> (6.6±1.5%)</tspan></text>
<polyline id="media-otros"  class="otros media" points=" 40,310.2558 44.5486,310.2923 49.0972,310.3317 53.6458,310.3741 58.1944,310.4191 62.7431,310.4647 67.2917,310.5069 71.8403,310.5405 76.3889,310.5586 80.9375,310.551 85.4861,310.4987 90.0347,310.3534 94.5833,310.2065 99.1319,310.0588 103.6806,309.9107 108.2292,309.7625 112.7778,309.6142 117.3264,309.4658 121.875,309.3172 126.4236,309.168 130.9722,309.0176 135.5208,308.8656 140.0694,308.7111 144.6181,308.5533 149.1667,308.3911 153.7153,308.2233 158.2639,308.0484 162.8125,307.8648 167.3611,307.6775 171.9097,307.5093 176.4583,307.4052 181.0069,307.4435 185.5556,307.7851 190.1042,308.1019 194.6528,308.397 199.2014,308.6739 203.75,308.9357 208.2986,309.1858 212.8472,309.4274 217.3958,309.6637 221.9444,309.8984 226.4931,310.1352 231.0417,310.3782 235.5903,310.6137 240.1389,310.782 244.6875,310.7599 249.2361,310.285 253.7847,309.8561 258.3333,309.4657 262.8819,309.1129 267.4306,308.8075 271.9792,308.5682 276.5278,308.424 281.0764,308.4435 285.625,308.4358 290.1736,308.4056 294.7222,308.3562 299.2708,308.2901 303.8194,308.2092 308.3681,308.1147 312.9167,308.0075 317.4653,307.8879 322.0139,307.7562 326.5625,307.6122 331.1111,307.4553 335.6597,307.2877 340.2083,307.1191 344.7569,306.9685 349.3056,306.8659 353.8542,306.8567 358.4028,307.0202 362.9514,307.1379 367.5,307.2132 372.0486,307.2483 376.5972,307.245 381.1458,307.204 385.6944,307.125 390.2431,307.0219 394.7917,306.9465 399.3403,307.0026 403.8889,307.3898 408.4375,307.7571 412.9861,308.1791 417.5347,308.5562 422.0833,308.8863 426.6319,309.1752 431.1806,309.4458 435.7292,309.7546 440.2778,310.045 444.8264,310.327 449.375,310.634 453.9236,311.0238 458.4722,311.5938 463.0208,312.0615 467.5694,312.3608 472.1181,312.3571 476.6667,312.4004 481.2153,312.482 485.7639,312.5952 490.3125,312.7344 494.8611,312.8952 499.4097,313.0739 503.9583,313.2673 508.5069,313.4734 513.0556,313.6903 517.6042,313.9112 522.1528,314.1149 526.7014,314.2631 531.25,314.2929 535.7986,314.378 540.3472,314.525 544.8958,314.7664 549.4444,315.057 553.9931,315.1856 558.5417,314.6044 563.0903,314.23 567.6389,313.9401 572.1875,313.7458 576.7361,313.6891 581.2847,313.9232 585.8333,314.1723 590.3819,314.5422 594.9306,315.2461 599.4792,315.9424 604.0278,316.5966 608.5764,317.2289 613.125,317.7018 617.6736,317.7632 622.2222,317.7592"></polyline>
<polyline id="error-otros" class="otros error" points=" 40,289.243 44.5486,289.7536 49.0972,290.2769 53.6458,290.9681 58.1944,291.8535 62.7431,292.7342 67.2917,293.5691 71.8403,294.3033 76.3889,294.8676 80.9375,295.167 85.4861,295.0356 90.0347,294.089 94.5833,293.2545 99.1319,292.5273 103.6806,291.902 108.2292,291.3735 112.7778,290.9361 117.3264,290.5847 121.875,290.3138 126.4236,290.1185 130.9722,289.9938 135.5208,289.9351 140.0694,289.9382 144.6181,289.9991 149.1667,290.1143 153.7153,290.2805 158.2639,290.495 162.8125,290.7553 167.3611,291.0542 171.9097,291.3702 176.4583,291.6645 181.0069,291.8777 185.5556,291.9166 190.1042,292.0399 194.6528,292.2405 199.2014,292.513 203.75,292.8531 208.2986,293.2581 212.8472,293.7263 217.3958,294.2571 221.9444,294.8511 226.4931,295.5102 231.0417,296.2377 235.5903,296.997 240.1389,297.6503 244.6875,297.9267 249.2361,297.2846 253.7847,296.8359 258.3333,296.5619 262.8819,296.4391 267.4306,296.4196 271.9792,296.4177 276.5278,296.291 281.0764,295.7551 285.625,295.3063 290.1736,294.9365 294.7222,294.6386 299.2708,294.4065 303.8194,294.2342 308.3681,294.1166 312.9167,294.0488 317.4653,294.0263 322.0139,294.0451 326.5625,294.1013 331.1111,294.1916 335.6597,294.3122 340.2083,294.4574 344.7569,294.619 349.3056,294.7862 353.8542,294.9459 358.4028,295.0843 362.9514,295.2559 367.5,295.4548 372.0486,295.6759 376.5972,295.9149 381.1458,296.1678 385.6944,296.4307 390.2431,296.7035 394.7917,296.9971 399.3403,297.3428 403.8889,297.8201 408.4375,298.258 412.9861,298.6485 417.5347,299.0939 422.0833,299.5749 426.6319,300.0545 431.1806,300.4773 435.7292,300.7654 440.2778,301.1359 444.8264,301.5743 449.375,302.0787 453.9236,302.652 458.4722,303.2967 463.0208,303.8431 467.5694,304.1053 472.1181,303.7154 476.6667,303.4513 481.2153,303.3009 485.7639,303.2545 490.3125,303.3038 494.8611,303.4419 499.4097,303.6626 503.9583,303.9603 508.5069,304.3304 513.0556,304.7688 517.6042,305.2596 522.1528,305.7559 526.7014,306.1691 531.25,306.3482 535.7986,306.6035 540.3472,306.8716 544.8958,307.3323 549.4444,307.8997 553.9931,308.2338 558.5417,307.4931 563.0903,307.0812 567.6389,306.8675 572.1875,306.7791 576.7361,306.7282 581.2847,306.5908 585.8333,306.611 590.3819,306.8356 594.9306,307.3748 599.4792,307.9504 604.0278,308.4159 608.5764,308.9136 613.125,309.2263 617.6736,308.9367 622.2222,308.543 622.2222,326.9755 617.6736,326.5897 613.125,326.1773 608.5764,325.5442 604.0278,324.7773 599.4792,323.9343 594.9306,323.1174 590.3819,322.2487 585.8333,321.7337 581.2847,321.2557 576.7361,320.65 572.1875,320.7126 567.6389,321.0127 563.0903,321.3787 558.5417,321.7158 553.9931,322.1373 549.4444,322.2143 544.8958,322.2004 540.3472,322.1783 535.7986,322.1525 531.25,322.2375 526.7014,322.3571 522.1528,322.474 517.6042,322.5628 513.0556,322.6118 508.5069,322.6163 503.9583,322.5744 499.4097,322.4852 494.8611,322.3486 490.3125,322.1651 485.7639,321.9359 481.2153,321.6631 476.6667,321.3494 472.1181,320.9988 467.5694,320.6163 463.0208,320.2799 458.4722,319.8909 453.9236,319.3956 449.375,319.1893 444.8264,319.0797 440.2778,318.954 435.7292,318.7438 431.1806,318.4142 426.6319,318.2959 422.0833,318.1976 417.5347,318.0185 412.9861,317.7098 408.4375,317.2562 403.8889,316.9595 399.3403,316.6623 394.7917,316.8959 390.2431,317.3403 385.6944,317.8192 381.1458,318.2401 376.5972,318.5751 372.0486,318.8207 367.5,318.9715 362.9514,319.0199 358.4028,318.956 353.8542,318.7674 349.3056,318.9456 344.7569,319.318 340.2083,319.7808 335.6597,320.2632 331.1111,320.719 326.5625,321.1231 322.0139,321.4674 317.4653,321.7496 312.9167,321.9661 308.3681,322.1128 303.8194,322.1842 299.2708,322.1738 294.7222,322.0738 290.1736,321.8748 285.625,321.5654 281.0764,321.1319 276.5278,320.557 271.9792,320.7186 267.4306,321.1953 262.8819,321.7867 258.3333,322.3696 253.7847,322.8762 249.2361,323.2855 244.6875,323.5931 240.1389,323.9137 235.5903,324.2305 231.0417,324.5187 226.4931,324.7602 221.9444,324.9457 217.3958,325.0704 212.8472,325.1285 208.2986,325.1136 203.75,325.0184 199.2014,324.8348 194.6528,324.5535 190.1042,324.1638 185.5556,323.6536 181.0069,323.0093 176.4583,323.1459 171.9097,323.6484 167.3611,324.3009 162.8125,324.9743 158.2639,325.6018 153.7153,326.1661 149.1667,326.6679 144.6181,327.1075 140.0694,327.484 135.5208,327.7961 130.9722,328.0415 126.4236,328.2174 121.875,328.3206 117.3264,328.347 112.7778,328.2922 108.2292,328.1515 103.6806,327.9194 99.1319,327.5904 94.5833,327.1585 90.0347,326.6178 85.4861,325.9618 80.9375,325.9351 76.3889,326.2495 71.8403,326.7777 67.2917,327.4446 62.7431,328.1952 58.1944,328.9848 53.6458,329.7801 49.0972,330.3865 44.5486,330.831 40,331.2685"></polyline>
<text class = "party otros" x="631.1111" y="318"><tspan class="party_name">Otros</tspan><tspan class="party_result"> (1.9±1.1%)</tspan></text>
<g id="encuesta-1">
<circle id="encuesta-1-cup" class="encuesta feedback cup" cx="622.2222" cy="275.9596" r="3" ></circle>
<circle id="encuesta-1-erc" class="encuesta feedback erc" cx="622.2222" cy="146.6667" r="3" ></circle>
<circle id="encuesta-1-jxcat" class="encuesta feedback jxcat" cx="622.2222" cy="195.9596" r="3" ></circle>
<circle id="encuesta-1-cec" class="encuesta feedback cec" cx="622.2222" cy="268.6869" r="3" ></circle>
<circle id="encuesta-1-psc" class="encuesta feedback psc" cx="622.2222" cy="209.697" r="3" ></circle>
<circle id="encuesta-1-cs" class="encuesta feedback cs" cx="622.2222" cy="147.4747" r="3" ></circle>
<circle id="encuesta-1-pp" class="encuesta feedback pp" cx="622.2222" cy="288.8889" r="3" ></circle>
<circle id="encuesta-1-otros" class="encuesta feedback otros" cx="622.2222" cy="325.2525" r="3" ></circle>
</g>
<g id="encuesta-2">
<circle id="encuesta-2-cup" class="encuesta feedback cup" cx="613.125" cy="281.6162" r="3.1623" ></circle>
<circle id="encuesta-2-erc" class="encuesta feedback erc" cx="613.125" cy="139.3939" r="3.1623" ></circle>
<circle id="encuesta-2-jxcat" class="encuesta feedback jxcat" cx="613.125" cy="195.1515" r="3.1623" ></circle>
<circle id="encuesta-2-cec" class="encuesta feedback cec" cx="613.125" cy="258.1818" r="3.1623" ></circle>
<circle id="encuesta-2-psc" class="encuesta feedback psc" cx="613.125" cy="224.2424" r="3.1623" ></circle>
<circle id="encuesta-2-cs" class="encuesta feedback cs" cx="613.125" cy="149.0909" r="3.1623" ></circle>
<circle id="encuesta-2-pp" class="encuesta feedback pp" cx="613.125" cy="283.2323" r="3.1623" ></circle>
<circle id="encuesta-2-otros" class="encuesta feedback otros" cx="613.125" cy="327.6768" r="3.1623" ></circle>
</g>
<g id="encuesta-3">
<circle id="encuesta-3-cup" class="encuesta gesop cup" cx="599.4792" cy="284.8485" r="2.8284" ></circle>
<circle id="encuesta-3-erc" class="encuesta gesop erc" cx="599.4792" cy="167.6768" r="2.8284" ></circle>
<circle id="encuesta-3-jxcat" class="encuesta gesop jxcat" cx="599.4792" cy="177.3737" r="2.8284" ></circle>
<circle id="encuesta-3-cec" class="encuesta gesop cec" cx="599.4792" cy="264.6465" r="2.8284" ></circle>
<circle id="encuesta-3-psc" class="encuesta gesop psc" cx="599.4792" cy="179.798" r="2.8284" ></circle>
<circle id="encuesta-3-cs" class="encuesta gesop cs" cx="599.4792" cy="179.798" r="2.8284" ></circle>
<circle id="encuesta-3-pp" class="encuesta gesop pp" cx="599.4792" cy="286.4646" r="2.8284" ></circle>
<circle id="encuesta-3-otros" class="encuesta gesop otros" cx="599.4792" cy="317.9798" r="2.8284" ></circle>
</g>
<g id="encuesta-4">
<circle id="encuesta-4-cup" class="encuesta sociometrica cup" cx="590.3819" cy="284.8485" r="2.8284" ></circle>
<circle id="encuesta-4-erc" class="encuesta sociometrica erc" cx="590.3819" cy="146.6667" r="2.8284" ></circle>
<circle id="encuesta-4-jxcat" class="encuesta sociometrica jxcat" cx="590.3819" cy="179.798" r="2.8284" ></circle>
<circle id="encuesta-4-cec" class="encuesta sociometrica cec" cx="590.3819" cy="281.6162" r="2.8284" ></circle>
<circle id="encuesta-4-psc" class="encuesta sociometrica psc" cx="590.3819" cy="210.5051" r="2.8284" ></circle>
<circle id="encuesta-4-cs" class="encuesta sociometrica cs" cx="590.3819" cy="167.6768" r="2.8284" ></circle>
<circle id="encuesta-4-pp" class="encuesta sociometrica pp" cx="590.3819" cy="283.2323" r="2.8284" ></circle>
<circle id="encuesta-4-otros" class="encuesta sociometrica otros" cx="590.3819" cy="304.2424" r="2.8284" ></circle>
</g>
<g id="encuesta-5">
<circle id="encuesta-5-cup" class="encuesta cis cup" cx="576.7361" cy="279.1919" r="5.4772" ></circle>
<circle id="encuesta-5-erc" class="encuesta cis erc" cx="576.7361" cy="165.2525" r="5.4772" ></circle>
<circle id="encuesta-5-jxcat" class="encuesta cis jxcat" cx="576.7361" cy="196.7677" r="5.4772" ></circle>
<circle id="encuesta-5-cec" class="encuesta cis cec" cx="576.7361" cy="263.8384" r="5.4772" ></circle>
<circle id="encuesta-5-psc" class="encuesta cis psc" cx="576.7361" cy="204.0404" r="5.4772" ></circle>
<circle id="encuesta-5-cs" class="encuesta cis cs" cx="576.7361" cy="151.5152" r="5.4772" ></circle>
<circle id="encuesta-5-pp" class="encuesta cis pp" cx="576.7361" cy="286.4646" r="5.4772" ></circle>
<circle id="encuesta-5-otros" class="encuesta cis otros" cx="576.7361" cy="311.5152" r="5.4772" ></circle>
</g>
<g id="encuesta-6">
<circle id="encuesta-6-cup" class="encuesta nc_report cup" cx="558.5417" cy="287.2727" r="3.1623" ></circle>
<circle id="encuesta-6-erc" class="encuesta nc_report erc" cx="558.5417" cy="138.5859" r="3.1623" ></circle>
<circle id="encuesta-6-jxcat" class="encuesta nc_report jxcat" cx="558.5417" cy="223.4343" r="3.1623" ></circle>
<circle id="encuesta-6-cec" class="encuesta nc_report cec" cx="558.5417" cy="265.4545" r="3.1623" ></circle>
<circle id="encuesta-6-psc" class="encuesta nc_report psc" cx="558.5417" cy="214.5455" r="3.1623" ></circle>
<circle id="encuesta-6-cs" class="encuesta nc_report cs" cx="558.5417" cy="164.4444" r="3.1623" ></circle>
<circle id="encuesta-6-pp" class="encuesta nc_report pp" cx="558.5417" cy="258.1818" r="3.1623" ></circle>
<circle id="encuesta-6-otros" class="encuesta nc_report otros" cx="558.5417" cy="306.6667" r="3.1623" ></circle>
</g>
<g id="encuesta-7">
<circle id="encuesta-7-cup" class="encuesta metroscopica cup" cx="553.9931" cy="285.6566" r="4.2426" ></circle>
<circle id="encuesta-7-erc" class="encuesta metroscopica erc" cx="553.9931" cy="119.1919" r="4.2426" ></circle>
<circle id="encuesta-7-jxcat" class="encuesta metroscopica jxcat" cx="553.9931" cy="223.4343" r="4.2426" ></circle>
<circle id="encuesta-7-cec" class="encuesta metroscopica cec" cx="553.9931" cy="279.1919" r="4.2426" ></circle>
<circle id="encuesta-7-psc" class="encuesta metroscopica psc" cx="553.9931" cy="212.9293" r="4.2426" ></circle>
<circle id="encuesta-7-cs" class="encuesta metroscopica cs" cx="553.9931" cy="128.8889" r="4.2426" ></circle>
<circle id="encuesta-7-pp" class="encuesta metroscopica pp" cx="553.9931" cy="286.4646" r="4.2426" ></circle>
<circle id="encuesta-7-otros" class="encuesta metroscopica otros" cx="553.9931" cy="322.8283" r="4.2426" ></circle>
</g>
<g id="encuesta-8">
<circle id="encuesta-8-cup" class="encuesta gesop cup" cx="535.7986" cy="282.4242" r="2.8284" ></circle>
<circle id="encuesta-8-erc" class="encuesta gesop erc" cx="535.7986" cy="140.202" r="2.8284" ></circle>
<circle id="encuesta-8-jxcat" class="encuesta gesop jxcat" cx="535.7986" cy="200" r="2.8284" ></circle>
<circle id="encuesta-8-cec" class="encuesta gesop cec" cx="535.7986" cy="263.8384" r="2.8284" ></circle>
<circle id="encuesta-8-psc" class="encuesta gesop psc" cx="535.7986" cy="187.0707" r="2.8284" ></circle>
<circle id="encuesta-8-cs" class="encuesta gesop cs" cx="535.7986" cy="183.0303" r="2.8284" ></circle>
<circle id="encuesta-8-pp" class="encuesta gesop pp" cx="535.7986" cy="287.2727" r="2.8284" ></circle>
<circle id="encuesta-8-otros" class="encuesta gesop otros" cx="535.7986" cy="314.7475" r="2.8284" ></circle>
</g>
<g id="encuesta-9">
<circle id="encuesta-9-cup" class="encuesta gad3 cup" cx="526.7014" cy="288.0808" r="2.8302" ></circle>
<circle id="encuesta-9-erc" class="encuesta gad3 erc" cx="526.7014" cy="146.6667" r="2.8302" ></circle>
<circle id="encuesta-9-jxcat" class="encuesta gad3 jxcat" cx="526.7014" cy="198.3838" r="2.8302" ></circle>
<circle id="encuesta-9-cec" class="encuesta gad3 cec" cx="526.7014" cy="271.9192" r="2.8302" ></circle>
<circle id="encuesta-9-psc" class="encuesta gad3 psc" cx="526.7014" cy="211.3131" r="2.8302" ></circle>
<circle id="encuesta-9-cs" class="encuesta gad3 cs" cx="526.7014" cy="153.1313" r="2.8302" ></circle>
<circle id="encuesta-9-pp" class="encuesta gad3 pp" cx="526.7014" cy="270.303" r="2.8302" ></circle>
<circle id="encuesta-9-otros" class="encuesta gad3 otros" cx="526.7014" cy="318.7879" r="2.8302" ></circle>
</g>
<g id="encuesta-10">
<circle id="encuesta-10-cup" class="encuesta nc_report cup" cx="467.5694" cy="282.4242" r="3.1623" ></circle>
<circle id="encuesta-10-erc" class="encuesta nc_report erc" cx="467.5694" cy="120.8081" r="3.1623" ></circle>
<circle id="encuesta-10-jxcat" class="encuesta nc_report jxcat" cx="467.5694" cy="246.8687" r="3.1623" ></circle>
<circle id="encuesta-10-cec" class="encuesta nc_report cec" cx="467.5694" cy="249.2929" r="3.1623" ></circle>
<circle id="encuesta-10-psc" class="encuesta nc_report psc" cx="467.5694" cy="223.4343" r="3.1623" ></circle>
<circle id="encuesta-10-cs" class="encuesta nc_report cs" cx="467.5694" cy="174.9495" r="3.1623" ></circle>
<circle id="encuesta-10-pp" class="encuesta nc_report pp" cx="467.5694" cy="248.4848" r="3.1623" ></circle>
<circle id="encuesta-10-otros" class="encuesta nc_report otros" cx="467.5694" cy="312.3232" r="3.1623" ></circle>
</g>
<g id="encuesta-11">
<circle id="encuesta-11-cup" class="encuesta gad3 cup" cx="467.5694" cy="282.4242" r="3.5114" ></circle>
<circle id="encuesta-11-erc" class="encuesta gad3 erc" cx="467.5694" cy="96.5657" r="3.5114" ></circle>
<circle id="encuesta-11-jxcat" class="encuesta gad3 jxcat" cx="467.5694" cy="249.2929" r="3.5114" ></circle>
<circle id="encuesta-11-cec" class="encuesta gad3 cec" cx="467.5694" cy="266.2626" r="3.5114" ></circle>
<circle id="encuesta-11-psc" class="encuesta gad3 psc" cx="467.5694" cy="215.3535" r="3.5114" ></circle>
<circle id="encuesta-11-cs" class="encuesta gad3 cs" cx="467.5694" cy="166.8687" r="3.5114" ></circle>
<circle id="encuesta-11-pp" class="encuesta gad3 pp" cx="467.5694" cy="263.0303" r="3.5114" ></circle>
<circle id="encuesta-11-otros" class="encuesta gad3 otros" cx="467.5694" cy="318.7879" r="3.5114" ></circle>
</g>
<g id="encuesta-12">
<circle id="encuesta-12-cup" class="encuesta sociometrica cup" cx="453.9236" cy="287.2727" r="3.1623" ></circle>
<circle id="encuesta-12-erc" class="encuesta sociometrica erc" cx="453.9236" cy="81.2121" r="3.1623" ></circle>
<circle id="encuesta-12-jxcat" class="encuesta sociometrica jxcat" cx="453.9236" cy="251.7172" r="3.1623" ></circle>
<circle id="encuesta-12-cec" class="encuesta sociometrica cec" cx="453.9236" cy="252.5253" r="3.1623" ></circle>
<circle id="encuesta-12-psc" class="encuesta sociometrica psc" cx="453.9236" cy="234.7475" r="3.1623" ></circle>
<circle id="encuesta-12-cs" class="encuesta sociometrica cs" cx="453.9236" cy="185.4545" r="3.1623" ></circle>
<circle id="encuesta-12-pp" class="encuesta sociometrica pp" cx="453.9236" cy="260.6061" r="3.1623" ></circle>
<circle id="encuesta-12-otros" class="encuesta sociometrica otros" cx="453.9236" cy="305.0505" r="3.1623" ></circle>
</g>
<g id="encuesta-13">
<circle id="encuesta-13-cup" class="encuesta sigmados cup" cx="431.1806" cy="282.4242" r="3.1623" ></circle>
<circle id="encuesta-13-erc" class="encuesta sigmados erc" cx="431.1806" cy="120" r="3.1623" ></circle>
<circle id="encuesta-13-jxcat" class="encuesta sigmados jxcat" cx="431.1806" cy="254.1414" r="3.1623" ></circle>
<circle id="encuesta-13-cec" class="encuesta sigmados cec" cx="431.1806" cy="244.4444" r="3.1623" ></circle>
<circle id="encuesta-13-psc" class="encuesta sigmados psc" cx="431.1806" cy="211.3131" r="3.1623" ></circle>
<circle id="encuesta-13-cs" class="encuesta sigmados cs" cx="431.1806" cy="174.9495" r="3.1623" ></circle>
<circle id="encuesta-13-pp" class="encuesta sigmados pp" cx="431.1806" cy="263.0303" r="3.1623" ></circle>
<circle id="encuesta-13-otros" class="encuesta sigmados otros" cx="431.1806" cy="308.2828" r="3.1623" ></circle>
</g>
<g id="encuesta-14">
<circle id="encuesta-14-cup" class="encuesta nc_report cup" cx="408.4375" cy="288.0808" r="3.1623" ></circle>
<circle id="encuesta-14-erc" class="encuesta nc_report erc" cx="408.4375" cy="134.5455" r="3.1623" ></circle>
<circle id="encuesta-14-jxcat" class="encuesta nc_report jxcat" cx="408.4375" cy="235.5556" r="3.1623" ></circle>
<circle id="encuesta-14-cec" class="encuesta nc_report cec" cx="408.4375" cy="241.2121" r="3.1623" ></circle>
<circle id="encuesta-14-psc" class="encuesta nc_report psc" cx="408.4375" cy="227.4747" r="3.1623" ></circle>
<circle id="encuesta-14-cs" class="encuesta nc_report cs" cx="408.4375" cy="178.1818" r="3.1623" ></circle>
<circle id="encuesta-14-pp" class="encuesta nc_report pp" cx="408.4375" cy="248.4848" r="3.1623" ></circle>
<circle id="encuesta-14-otros" class="encuesta nc_report otros" cx="408.4375" cy="305.0505" r="3.1623" ></circle>
</g>
<g id="encuesta-15">
<circle id="encuesta-15-cup" class="encuesta gesop cup" cx="399.3403" cy="270.303" r="2.8284" ></circle>
<circle id="encuesta-15-erc" class="encuesta gesop erc" cx="399.3403" cy="106.2626" r="2.8284" ></circle>
<circle id="encuesta-15-jxcat" class="encuesta gesop jxcat" cx="399.3403" cy="236.3636" r="2.8284" ></circle>
<circle id="encuesta-15-cec" class="encuesta gesop cec" cx="399.3403" cy="260.6061" r="2.8284" ></circle>
<circle id="encuesta-15-psc" class="encuesta gesop psc" cx="399.3403" cy="216.1616" r="2.8284" ></circle>
<circle id="encuesta-15-cs" class="encuesta gesop cs" cx="399.3403" cy="197.5758" r="2.8284" ></circle>
<circle id="encuesta-15-pp" class="encuesta gesop pp" cx="399.3403" cy="272.7273" r="2.8284" ></circle>
<circle id="encuesta-15-otros" class="encuesta gesop otros" cx="399.3403" cy="298.5859" r="2.8284" ></circle>
</g>
<g id="encuesta-16">
<circle id="encuesta-16-cup" class="encuesta sociometrica cup" cx="353.8542" cy="282.4242" r="2.8284" ></circle>
<circle id="encuesta-16-erc" class="encuesta sociometrica erc" cx="353.8542" cy="76.3636" r="2.8284" ></circle>
<circle id="encuesta-16-jxcat" class="encuesta sociometrica jxcat" cx="353.8542" cy="267.8788" r="2.8284" ></circle>
<circle id="encuesta-16-cec" class="encuesta sociometrica cec" cx="353.8542" cy="236.3636" r="2.8284" ></circle>
<circle id="encuesta-16-psc" class="encuesta sociometrica psc" cx="353.8542" cy="256.5657" r="2.8284" ></circle>
<circle id="encuesta-16-cs" class="encuesta sociometrica cs" cx="353.8542" cy="185.4545" r="2.8284" ></circle>
<circle id="encuesta-16-pp" class="encuesta sociometrica pp" cx="353.8542" cy="251.7172" r="2.8284" ></circle>
<circle id="encuesta-16-otros" class="encuesta sociometrica otros" cx="353.8542" cy="301.8182" r="2.8284" ></circle>
</g>
<g id="encuesta-17">
<circle id="encuesta-17-cup" class="encuesta nc_report cup" cx="276.5278" cy="288.0808" r="3.5426" ></circle>
<circle id="encuesta-17-erc" class="encuesta nc_report erc" cx="276.5278" cy="130.5051" r="3.5426" ></circle>
<circle id="encuesta-17-jxcat" class="encuesta nc_report jxcat" cx="276.5278" cy="230.7071" r="3.5426" ></circle>
<circle id="encuesta-17-cec" class="encuesta nc_report cec" cx="276.5278" cy="239.596" r="3.5426" ></circle>
<circle id="encuesta-17-psc" class="encuesta nc_report psc" cx="276.5278" cy="222.6263" r="3.5426" ></circle>
<circle id="encuesta-17-cs" class="encuesta nc_report cs" cx="276.5278" cy="194.3434" r="3.5426" ></circle>
<circle id="encuesta-17-pp" class="encuesta nc_report pp" cx="276.5278" cy="246.0606" r="3.5426" ></circle>
<circle id="encuesta-17-otros" class="encuesta nc_report otros" cx="276.5278" cy="306.6667" r="3.5426" ></circle>
</g>
<g id="encuesta-18">
<circle id="encuesta-18-cup" class="encuesta celeste-tel cup" cx="244.6875" cy="285.6566" r="2.8284" ></circle>
<circle id="encuesta-18-erc" class="encuesta celeste-tel erc" cx="244.6875" cy="133.7374" r="2.8284" ></circle>
<circle id="encuesta-18-jxcat" class="encuesta celeste-tel jxcat" cx="244.6875" cy="223.4343" r="2.8284" ></circle>
<circle id="encuesta-18-cec" class="encuesta celeste-tel cec" cx="244.6875" cy="234.7475" r="2.8284" ></circle>
<circle id="encuesta-18-psc" class="encuesta celeste-tel psc" cx="244.6875" cy="213.7374" r="2.8284" ></circle>
<circle id="encuesta-18-cs" class="encuesta celeste-tel cs" cx="244.6875" cy="192.7273" r="2.8284" ></circle>
<circle id="encuesta-18-pp" class="encuesta celeste-tel pp" cx="244.6875" cy="257.3737" r="2.8284" ></circle>
<circle id="encuesta-18-otros" class="encuesta celeste-tel otros" cx="244.6875" cy="317.1717" r="2.8284" ></circle>
</g>
<g id="encuesta-19">
<circle id="encuesta-19-cup" class="encuesta sociometrica cup" cx="181.0069" cy="278.3838" r="2.6458" ></circle>
<circle id="encuesta-19-erc" class="encuesta sociometrica erc" cx="181.0069" cy="107.0707" r="2.6458" ></circle>
<circle id="encuesta-19-jxcat" class="encuesta sociometrica jxcat" cx="181.0069" cy="230.7071" r="2.6458" ></circle>
<circle id="encuesta-19-cec" class="encuesta sociometrica cec" cx="181.0069" cy="249.2929" r="2.6458" ></circle>
<circle id="encuesta-19-psc" class="encuesta sociometrica psc" cx="181.0069" cy="251.7172" r="2.6458" ></circle>
<circle id="encuesta-19-cs" class="encuesta sociometrica cs" cx="181.0069" cy="190.303" r="2.6458" ></circle>
<circle id="encuesta-19-pp" class="encuesta sociometrica pp" cx="181.0069" cy="248.4848" r="2.6458" ></circle>
<circle id="encuesta-19-otros" class="encuesta sociometrica otros" cx="181.0069" cy="302.6263" r="2.6458" ></circle>
</g>
<g id="encuesta-20">
<circle id="encuesta-20-cup" class="encuesta nc_report cup" cx="85.4861" cy="280.8081" r="3.5426" ></circle>
<circle id="encuesta-20-erc" class="encuesta nc_report erc" cx="85.4861" cy="140.202" r="3.5426" ></circle>
<circle id="encuesta-20-jxcat" class="encuesta nc_report jxcat" cx="85.4861" cy="221.0101" r="3.5426" ></circle>
<circle id="encuesta-20-cec" class="encuesta nc_report cec" cx="85.4861" cy="235.5556" r="3.5426" ></circle>
<circle id="encuesta-20-psc" class="encuesta nc_report psc" cx="85.4861" cy="221.0101" r="3.5426" ></circle>
<circle id="encuesta-20-cs" class="encuesta nc_report cs" cx="85.4861" cy="191.9192" r="3.5426" ></circle>
<circle id="encuesta-20-pp" class="encuesta nc_report pp" cx="85.4861" cy="256.5657" r="3.5426" ></circle>
<circle id="encuesta-20-otros" class="encuesta nc_report otros" cx="85.4861" cy="311.5152" r="3.5426" ></circle>
</g>
  
<text class="pie izquierda" x="0" y="390">Datos: Electograph | Modelo propio</text>
<text class="pie derecha" x="800" y="390">Jesús Carro | <tspan style="font-weight:bold">1datomas</tspan>.com</text>
</svg>
