<?xml version="1.0" encoding="utf-8"?><!DOCTYPE svg PUBLIC "-//W3C//DTD SVG 1.1//EN" "http://www.w3.org/Graphics/SVG/1.1/DTD/svg11.dtd">
<svg xmlns="http://www.w3.org/2000/svg" xmlns:xlink="http://www.w3.org/1999/xlink" version="1.1" viewBox="0 0 800 400" style="max-width:800;max-height:400">
<text x="0" y="20" style="font-size:large;font-weight:bold;color:black">Intención de voto en Elecciones Autonómicas en Cataluña</text>
<text x="0" y="40" style="color:gray">Promedio de encuestas y estimación de error</text>
<text x="800" y="60" class="note derecha">Última actualización: 29/10/2017</text>
  
<text class="horizontal axis" x="36" y="333.3333">0%</text>
<line class="horizontal axis" x1="40" y1="333.3333" x2="622.2222" y2="333.3333"></line>
<text class="horizontal axis" x="36" y="250">10%</text>
<line class="horizontal axis" x1="40" y1="250" x2="622.2222" y2="250"></line>
<text class="horizontal axis" x="36" y="166.6667">20%</text>
<line class="horizontal axis" x1="40" y1="166.6667" x2="622.2222" y2="166.6667"></line>
<text class="horizontal axis" x="36" y="83.3333">30%</text>
<line class="horizontal axis" x1="40" y1="83.3333" x2="622.2222" y2="83.3333"></line>
<line class="vertical axis" x1="40" y1="336.6667" x2="40" y2="66.6667"></line>
<text class="vertical axis" x="40" y="343.3333">Ago-2017</text>
<line class="vertical axis" x1="249.8708" y1="336.6667" x2="249.8708" y2="66.6667"></line>
<text class="vertical axis" x="249.8708" y="343.3333">Sep-2017</text>
<line class="vertical axis" x1="452.9716" y1="336.6667" x2="452.9716" y2="66.6667"></line>
<text class="vertical axis" x="452.9716" y="343.3333">Oct-2017</text>
<circle class="encuesta cup" cx="622.2222" cy="280.8333" r="3.1623"></circle>
<circle class="encuesta erc" cx="622.2222" cy="113.3333" r="3.1623"></circle>
<circle class="encuesta pdecat" cx="622.2222" cy="251.6667" r="3.1623"></circle>
<circle class="encuesta cec" cx="622.2222" cy="241.6667" r="3.1623"></circle>
<circle class="encuesta psc" cx="622.2222" cy="207.5" r="3.1623"></circle>
<circle class="encuesta cs" cx="622.2222" cy="170" r="3.1623"></circle>
<circle class="encuesta pp" cx="622.2222" cy="260.8333" r="3.1623"></circle>
<circle class="encuesta otros" cx="622.2222" cy="307.5" r="3.1623"></circle>
<circle class="encuesta cup" cx="588.3721" cy="286.6667" r="3.1623"></circle>
<circle class="encuesta erc" cx="588.3721" cy="128.3333" r="3.1623"></circle>
<circle class="encuesta pdecat" cx="588.3721" cy="232.5" r="3.1623"></circle>
<circle class="encuesta cec" cx="588.3721" cy="238.3333" r="3.1623"></circle>
<circle class="encuesta psc" cx="588.3721" cy="224.1667" r="3.1623"></circle>
<circle class="encuesta cs" cx="588.3721" cy="173.3333" r="3.1623"></circle>
<circle class="encuesta pp" cx="588.3721" cy="245.8333" r="3.1623"></circle>
<circle class="encuesta otros" cx="588.3721" cy="304.1667" r="3.1623"></circle>
<circle class="encuesta cup" cx="574.832" cy="268.3333" r="2.8284"></circle>
<circle class="encuesta erc" cx="574.832" cy="99.1667" r="2.8284"></circle>
<circle class="encuesta pdecat" cx="574.832" cy="233.3333" r="2.8284"></circle>
<circle class="encuesta cec" cx="574.832" cy="258.3333" r="2.8284"></circle>
<circle class="encuesta psc" cx="574.832" cy="212.5" r="2.8284"></circle>
<circle class="encuesta cs" cx="574.832" cy="193.3333" r="2.8284"></circle>
<circle class="encuesta pp" cx="574.832" cy="270.8333" r="2.8284"></circle>
<circle class="encuesta otros" cx="574.832" cy="297.5" r="2.8284"></circle>
<circle class="encuesta cup" cx="507.1318" cy="280.8333" r="2.8284"></circle>
<circle class="encuesta erc" cx="507.1318" cy="68.3333" r="2.8284"></circle>
<circle class="encuesta pdecat" cx="507.1318" cy="265.8333" r="2.8284"></circle>
<circle class="encuesta cec" cx="507.1318" cy="233.3333" r="2.8284"></circle>
<circle class="encuesta psc" cx="507.1318" cy="254.1667" r="2.8284"></circle>
<circle class="encuesta cs" cx="507.1318" cy="180.8333" r="2.8284"></circle>
<circle class="encuesta pp" cx="507.1318" cy="249.1667" r="2.8284"></circle>
<circle class="encuesta otros" cx="507.1318" cy="300.8333" r="2.8284"></circle>
<circle class="encuesta cup" cx="392.0413" cy="286.6667" r="3.5426"></circle>
<circle class="encuesta erc" cx="392.0413" cy="124.1667" r="3.5426"></circle>
<circle class="encuesta pdecat" cx="392.0413" cy="227.5" r="3.5426"></circle>
<circle class="encuesta cec" cx="392.0413" cy="236.6667" r="3.5426"></circle>
<circle class="encuesta psc" cx="392.0413" cy="219.1667" r="3.5426"></circle>
<circle class="encuesta cs" cx="392.0413" cy="190" r="3.5426"></circle>
<circle class="encuesta pp" cx="392.0413" cy="243.3333" r="3.5426"></circle>
<circle class="encuesta otros" cx="392.0413" cy="305.8333" r="3.5426"></circle>
<circle class="encuesta cup" cx="344.6512" cy="284.1667" r="2.8284"></circle>
<circle class="encuesta erc" cx="344.6512" cy="127.5" r="2.8284"></circle>
<circle class="encuesta pdecat" cx="344.6512" cy="220" r="2.8284"></circle>
<circle class="encuesta cec" cx="344.6512" cy="231.6667" r="2.8284"></circle>
<circle class="encuesta psc" cx="344.6512" cy="210" r="2.8284"></circle>
<circle class="encuesta cs" cx="344.6512" cy="188.3333" r="2.8284"></circle>
<circle class="encuesta pp" cx="344.6512" cy="255" r="2.8284"></circle>
<circle class="encuesta otros" cx="344.6512" cy="316.6667" r="2.8284"></circle>
<circle class="encuesta cup" cx="249.8708" cy="276.6667" r="2.6458"></circle>
<circle class="encuesta erc" cx="249.8708" cy="100" r="2.6458"></circle>
<circle class="encuesta pdecat" cx="249.8708" cy="227.5" r="2.6458"></circle>
<circle class="encuesta cec" cx="249.8708" cy="246.6667" r="2.6458"></circle>
<circle class="encuesta psc" cx="249.8708" cy="249.1667" r="2.6458"></circle>
<circle class="encuesta cs" cx="249.8708" cy="185.8333" r="2.6458"></circle>
<circle class="encuesta pp" cx="249.8708" cy="245.8333" r="2.6458"></circle>
<circle class="encuesta otros" cx="249.8708" cy="301.6667" r="2.6458"></circle>
<circle class="encuesta cup" cx="107.7003" cy="279.1667" r="3.5426"></circle>
<circle class="encuesta erc" cx="107.7003" cy="134.1667" r="3.5426"></circle>
<circle class="encuesta pdecat" cx="107.7003" cy="217.5" r="3.5426"></circle>
<circle class="encuesta cec" cx="107.7003" cy="232.5" r="3.5426"></circle>
<circle class="encuesta psc" cx="107.7003" cy="217.5" r="3.5426"></circle>
<circle class="encuesta cs" cx="107.7003" cy="187.5" r="3.5426"></circle>
<circle class="encuesta pp" cx="107.7003" cy="254.1667" r="3.5426"></circle>
<circle class="encuesta otros" cx="107.7003" cy="310.8333" r="3.5426"></circle>
<polyline class="cup" points=" 40,279.8288 46.77,279.8068 53.5401,279.7838 60.3101,279.76 67.0801,279.7353 73.8501,279.7109 80.6202,279.688 87.3902,279.6688 94.1602,279.6562 100.9302,279.654 107.7003,279.669 114.4703,279.7164 121.2403,279.7622 128.0103,279.8059 134.7804,279.8473 141.5504,279.8858 148.3204,279.9212 155.0904,279.953 161.8605,279.9809 168.6305,280.0047 175.4005,280.0239 182.1705,280.0382 188.9406,280.0473 195.7106,280.0509 202.4806,280.0484 209.2506,280.0396 216.0207,280.0237 222.7907,280.0004 229.5607,279.972 236.3307,279.95 243.1008,279.9586 249.8708,280.0413 256.6408,280.2828 263.4109,280.5192 270.1809,280.7505 276.9509,280.9765 283.7209,281.1973 290.491,281.4129 297.261,281.6233 304.031,281.8286 310.801,282.029 317.5711,282.2245 324.3411,282.4153 331.1111,282.5982 337.8811,282.7636 344.6512,282.8959 351.4212,282.9707 358.1912,283.0686 364.9612,283.1885 371.7313,283.3243 378.5013,283.4566 385.2713,283.5488 392.0413,283.5386 398.8114,283.2939 405.5814,283.0598 412.3514,282.8358 419.1214,282.6216 425.8915,282.417 432.6615,282.2216 439.4315,282.0353 446.2016,281.8581 452.9716,281.6898 459.7416,281.5303 466.5116,281.3795 473.2817,281.2375 480.0517,281.1042 486.8217,280.9797 493.5917,280.8634 500.3618,280.7529 507.1318,280.6428 513.9018,280.522 520.6718,280.3945 527.4419,280.261 534.2119,280.1218 540.9819,279.9773 547.7519,279.8276 554.522,279.6723 561.292,279.5255 568.062,279.4398 574.832,279.5255 581.6021,280.0068 588.3721,280.3117 595.1421,280.3445 601.9121,280.3805 608.6822,280.4178 615.4522,280.4523 622.2222,280.4764"></polyline>
<polyline class="cup error" points=" 40,255.8917 46.77,256.6112 53.5401,257.3415 60.3101,258.0836 67.0801,258.8335 73.8501,259.5755 80.6202,260.2811 87.3902,260.9094 94.1602,261.4068 100.9302,261.6996 107.7003,261.6698 114.4703,261.0827 121.2403,260.5772 128.0103,260.1506 134.7804,259.8002 141.5504,259.5231 148.3204,259.3163 155.0904,259.1769 161.8605,259.1017 168.6305,259.0876 175.4005,259.1315 182.1705,259.2305 188.9406,259.3817 195.7106,259.582 202.4806,259.829 209.2506,260.1199 216.0207,260.4525 222.7907,260.8245 229.5607,261.2275 236.3307,261.6361 243.1008,262.0033 249.8708,262.2553 256.6408,262.273 263.4109,262.3678 270.1809,262.5353 276.9509,262.7713 283.7209,263.0722 290.491,263.4346 297.261,263.8554 304.031,264.3318 310.801,264.8614 317.5711,265.4421 324.3411,266.0722 331.1111,266.7293 337.8811,267.3394 344.6512,267.7624 351.4212,267.7498 358.1912,267.8726 364.9612,268.1249 371.7313,268.4842 378.5013,268.8806 385.2713,269.1795 392.0413,269.1531 398.8114,268.3439 405.5814,267.6256 412.3514,266.9948 419.1214,266.4482 425.8915,265.9834 432.6615,265.598 439.4315,265.2898 446.2016,265.0566 452.9716,264.8965 459.7416,264.8073 466.5116,264.7871 473.2817,264.8337 480.0517,264.9414 486.8217,265.0934 493.5917,265.2572 500.3618,265.381 507.1318,265.3865 513.9018,265.1475 520.6718,264.982 527.4419,264.8885 534.2119,264.865 540.9819,264.9093 547.7519,265.0192 554.522,265.1916 561.292,265.423 568.062,265.7088 574.832,266.0509 581.6021,266.4839 588.3721,266.6675 595.1421,266.3581 601.9121,266.155 608.6822,266.0484 615.4522,265.968 622.2222,265.7345 622.2222,295.2184 615.4522,294.9366 608.6822,294.7872 601.9121,294.6061 595.1421,294.331 588.3721,293.9559 581.6021,293.5297 574.832,293 568.062,293.1707 561.292,293.628 554.522,294.153 547.7519,294.636 540.9819,295.0453 534.2119,295.3786 527.4419,295.6334 520.6718,295.807 513.9018,295.8966 507.1318,295.8991 500.3618,296.1248 493.5917,296.4696 486.8217,296.866 480.0517,297.267 473.2817,297.6413 466.5116,297.972 459.7416,298.2532 452.9716,298.4831 446.2016,298.6596 439.4315,298.7809 432.6615,298.8452 425.8915,298.8505 419.1214,298.7951 412.3514,298.6769 405.5814,298.4939 398.8114,298.2439 392.0413,297.9242 385.2713,297.9181 378.5013,298.0326 371.7313,298.1643 364.9612,298.2521 358.1912,298.2647 351.4212,298.1916 344.6512,298.0293 337.8811,298.1879 331.1111,298.4672 324.3411,298.7584 317.5711,299.0069 310.801,299.1966 304.031,299.3255 297.261,299.3912 290.491,299.3912 283.7209,299.3224 276.9509,299.1817 270.1809,298.9656 263.4109,298.6706 256.6408,298.2926 249.8708,297.8273 243.1008,297.9138 236.3307,298.2639 229.5607,298.7165 222.7907,299.1763 216.0207,299.595 209.2506,299.9592 202.4806,300.2679 195.7106,300.5197 188.9406,300.713 182.1705,300.8458 175.4005,300.9162 168.6305,300.9217 161.8605,300.8602 155.0904,300.7291 148.3204,300.526 141.5504,300.2486 134.7804,299.8944 128.0103,299.4613 121.2403,298.9472 114.4703,298.3501 107.7003,297.6682 100.9302,297.6084 94.1602,297.9056 87.3902,298.4283 80.6202,299.0949 73.8501,299.8462 67.0801,300.6372 60.3101,301.4363 53.5401,302.2261 46.77,303.0024 40,303.766"></polyline>
<text class = "party cup" x="631.1111" y="287"><tspan class="party_name">CUP</tspan> (6.3±1.8%)</text>
<polyline class="erc" points=" 40,124.4492 46.77,124.7205 53.5401,125.0055 60.3101,125.305 67.0801,125.6161 73.8501,125.9265 80.6202,126.2133 87.3902,126.4436 94.1602,126.5731 100.9302,126.5371 107.7003,126.2226 114.4703,125.38 121.2403,124.5371 128.0103,123.6984 134.7804,122.8678 141.5504,122.0488 148.3204,121.2444 155.0904,120.4568 161.8605,119.6881 168.6305,118.9395 175.4005,118.212 182.1705,117.506 188.9406,116.8213 195.7106,116.1576 202.4806,115.5141 209.2506,114.8894 216.0207,114.2818 222.7907,113.6894 229.5607,113.1223 236.3307,112.6232 243.1008,112.2773 249.8708,112.2304 256.6408,112.7578 263.4109,113.2549 270.1809,113.727 276.9509,114.1789 283.7209,114.6154 290.491,115.0407 297.261,115.4591 304.031,115.8745 310.801,116.2907 317.5711,116.7116 324.3411,117.1407 331.1111,117.5617 337.8811,117.9065 344.6512,118.0381 351.4212,117.6902 358.1912,117.4235 364.9612,117.239 371.7313,117.1275 378.5013,117.0483 385.2713,116.9124 392.0413,116.5531 398.8114,115.6009 405.5814,114.6298 412.3514,113.6419 419.1214,112.6391 425.8915,111.6232 432.6615,110.5958 439.4315,109.5585 446.2016,108.5123 452.9716,107.4581 459.7416,106.3962 466.5116,105.3267 473.2817,104.2487 480.0517,103.1765 486.8217,102.1661 493.5917,101.3299 500.3618,100.849 507.1318,101.0064 513.9018,102.294 520.6718,103.4856 527.4419,104.5864 534.2119,105.6004 540.9819,106.5308 547.7519,107.3802 554.522,108.1503 561.292,108.8485 568.062,109.5082 574.832,110.2187 581.6021,111.1904 588.3721,111.7752 595.1421,111.6978 601.9121,111.6648 608.6822,111.6684 615.4522,111.689 622.2222,111.6873"></polyline>
<polyline class="erc error" points=" 40,82.7939 46.77,84.2737 53.5401,85.7905 60.3101,87.347 67.0801,88.9335 73.8501,90.5106 80.6202,92.0052 87.3902,93.3118 94.1602,94.2904 100.9302,94.7437 107.7003,94.347 114.4703,92.43 121.2403,90.6529 128.0103,89.0156 134.7804,87.5176 141.5504,86.1578 148.3204,84.9344 155.0904,83.8453 161.8605,82.8878 168.6305,82.0586 175.4005,81.3544 182.1705,80.7711 188.9406,80.3049 195.7106,79.9515 202.4806,79.7066 209.2506,79.5659 216.0207,79.525 222.7907,79.5796 229.5607,79.7223 236.3307,79.9345 243.1008,80.1812 249.8708,80.4092 256.6408,80.5486 263.4109,80.7953 270.1809,81.1473 276.9509,81.6027 283.7209,82.1602 290.491,82.8188 297.261,83.5777 304.031,84.4368 310.801,85.3961 317.5711,86.4564 324.3411,87.6189 331.1111,88.8353 337.8811,89.9283 344.6512,90.5468 351.4212,90.0371 358.1912,89.7998 364.9612,89.8281 371.7313,90.0858 378.5013,90.4468 385.2713,90.6561 392.0413,90.264 398.8114,88.3483 405.5814,86.5534 412.3514,84.8747 419.1214,83.3086 425.8915,81.8522 432.6615,80.5028 439.4315,79.2582 446.2016,78.1159 452.9716,77.0734 459.7416,76.1278 466.5116,75.276 473.2817,74.514 480.0517,73.8467 486.8217,73.3029 493.5917,72.9425 500.3618,72.8649 507.1318,73.2319 513.9018,74.347 520.6718,75.5028 527.4419,76.7003 534.2119,77.9391 540.9819,79.2185 547.7519,80.5369 554.522,81.8921 561.292,83.2606 568.062,84.5745 574.832,85.7294 581.6021,86.5943 588.3721,86.9548 595.1421,86.2854 601.9121,85.8387 608.6822,85.5927 615.4522,85.414 622.2222,84.9697 622.2222,138.405 615.4522,137.9639 608.6822,137.744 601.9121,137.4909 595.1421,137.1103 588.3721,136.5957 581.6021,135.7865 574.832,134.708 568.062,134.4419 561.292,134.4364 554.522,134.4085 547.7519,134.2235 540.9819,133.8431 534.2119,133.2616 527.4419,132.4725 520.6718,131.4684 513.9018,130.241 507.1318,128.7808 500.3618,128.8332 493.5917,129.7172 486.8217,131.0293 480.0517,132.5063 473.2817,133.9835 466.5116,135.3774 459.7416,136.6646 452.9716,137.8427 446.2016,138.9087 439.4315,139.8588 432.6615,140.6889 425.8915,141.3942 419.1214,141.9695 412.3514,142.409 405.5814,142.7062 398.8114,142.8535 392.0413,142.8422 385.2713,143.1686 378.5013,143.6498 371.7313,144.1693 364.9612,144.6499 358.1912,145.0473 351.4212,145.3434 344.6512,145.5294 337.8811,145.8846 331.1111,146.288 324.3411,146.6625 317.5711,146.9667 310.801,147.1853 304.031,147.3122 297.261,147.3405 290.491,147.2627 283.7209,147.0706 276.9509,146.7551 270.1809,146.3067 263.4109,145.7145 256.6408,144.967 249.8708,144.0516 243.1008,144.3734 236.3307,145.3119 229.5607,146.5223 222.7907,147.7992 216.0207,149.0387 209.2506,150.2128 202.4806,151.3215 195.7106,152.3637 188.9406,153.3377 182.1705,154.2408 175.4005,155.0697 168.6305,155.8205 161.8605,156.4884 155.0904,157.0683 148.3204,157.5543 141.5504,157.9398 134.7804,158.2179 128.0103,158.3811 121.2403,158.4213 114.4703,158.33 107.7003,158.0982 100.9302,158.3306 94.1602,158.8559 87.3902,159.5754 80.6202,160.4213 73.8501,161.3423 67.0801,162.2988 60.3101,163.2631 53.5401,164.2205 46.77,165.1674 40,166.1045"></polyline>
<text class = "party erc" x="631.1111" y="112"><tspan class="party_name">ERC</tspan> (26.6±3.2%)</text>
<polyline class="pdecat" points=" 40,223.1568 46.77,222.9896 53.5401,222.8139 60.3101,222.6294 67.0801,222.4379 73.8501,222.2467 80.6202,222.0688 87.3902,221.9231 94.1602,221.8348 100.9302,221.84 107.7003,222.0016 114.4703,222.4587 121.2403,222.9103 128.0103,223.3536 134.7804,223.7857 141.5504,224.2043 148.3204,224.6073 155.0904,224.9928 161.8605,225.3593 168.6305,225.7056 175.4005,226.0306 182.1705,226.3335 188.9406,226.6139 195.7106,226.8712 202.4806,227.1052 209.2506,227.3159 216.0207,227.5032 222.7907,227.6673 229.5607,227.8087 236.3307,227.9295 243.1008,228.0357 249.8708,228.139 256.6408,228.2625 263.4109,228.3764 270.1809,228.4776 276.9509,228.5632 283.7209,228.6305 290.491,228.677 297.261,228.7004 304.031,228.6982 310.801,228.6682 317.5711,228.6082 324.3411,228.5156 331.1111,228.4052 337.8811,228.338 344.6512,228.443 351.4212,228.9805 358.1912,229.4595 364.9612,229.8762 371.7313,230.2307 378.5013,230.5389 385.2713,230.8442 392.0413,231.2383 398.8114,231.9335 405.5814,232.6613 412.3514,233.4175 419.1214,234.1979 425.8915,234.9989 432.6615,235.8168 439.4315,236.6486 446.2016,237.4913 452.9716,238.3422 459.7416,239.1993 466.5116,240.0609 473.2817,240.9256 480.0517,241.7823 486.8217,242.591 493.5917,243.2742 500.3618,243.7092 507.1318,243.7068 513.9018,242.94 520.6718,242.2407 527.4419,241.6025 534.2119,241.0197 540.9819,240.4871 547.7519,239.9997 554.522,239.5528 561.292,239.1545 568.062,238.8431 574.832,238.6961 581.6021,238.8654 588.3721,239.1816 595.1421,239.806 601.9121,240.4803 608.6822,241.1844 615.4522,241.8281 622.2222,242.2192"></polyline>
<polyline class="pdecat error" points=" 40,190.5205 46.77,191.3133 53.5401,192.115 60.3101,192.9267 67.0801,193.7449 73.8501,194.5557 80.6202,195.3328 87.3902,196.0385 94.1602,196.6231 100.9302,197.0197 107.7003,197.1268 114.4703,196.7571 121.2403,196.4942 128.0103,196.3314 134.7804,196.2621 141.5504,196.28 148.3204,196.3791 155.0904,196.5536 161.8605,196.7981 168.6305,197.1075 175.4005,197.4772 182.1705,197.9026 188.9406,198.3798 195.7106,198.9053 202.4806,199.4759 209.2506,200.0889 216.0207,200.7419 222.7907,201.4333 229.5607,202.1492 236.3307,202.8429 243.1008,203.4247 249.8708,203.7488 256.6408,203.5643 263.4109,203.4784 270.1809,203.482 276.9509,203.5671 283.7209,203.7259 290.491,203.9516 297.261,204.2379 304.031,204.5788 310.801,204.969 317.5711,205.4034 324.3411,205.8777 331.1111,206.3822 337.8811,206.8949 344.6512,207.3834 351.4212,207.817 358.1912,208.339 364.9612,208.9388 371.7313,209.5952 378.5013,210.2583 385.2713,210.8446 392.0413,211.2308 398.8114,211.2113 405.5814,211.3357 412.3514,211.5943 419.1214,211.9784 425.8915,212.4804 432.6615,213.0931 439.4315,213.8099 446.2016,214.6246 452.9716,215.5317 459.7416,216.526 466.5116,217.6027 473.2817,218.7577 480.0517,219.9716 486.8217,221.1807 493.5917,222.2631 500.3618,223.0273 507.1318,223.1827 513.9018,222.2409 520.6718,221.4742 527.4419,220.873 534.2119,220.4287 540.9819,220.1328 547.7519,219.9771 554.522,219.9538 561.292,220.0472 568.062,220.2188 574.832,220.3994 581.6021,220.4818 588.3721,220.6301 595.1421,220.823 601.9121,221.2042 608.6822,221.7419 615.4522,222.2557 622.2222,222.3223 622.2222,262.1161 615.4522,261.4005 608.6822,260.6269 601.9121,259.7564 595.1421,258.789 588.3721,257.7331 581.6021,257.2491 574.832,256.9929 568.062,257.4673 561.292,258.2618 554.522,259.1518 547.7519,260.0222 540.9819,260.8413 534.2119,261.6107 527.4419,262.332 520.6718,263.0073 513.9018,263.6392 507.1318,264.2308 500.3618,264.391 493.5917,264.2853 486.8217,264.0013 480.0517,263.5931 473.2817,263.0936 466.5116,262.5191 459.7416,261.8727 452.9716,261.1527 446.2016,260.3579 439.4315,259.4874 432.6615,258.5406 425.8915,257.5173 419.1214,256.4174 412.3514,255.2407 405.5814,253.9869 398.8114,252.6557 392.0413,251.2459 385.2713,250.8437 378.5013,250.8195 371.7313,250.8663 364.9612,250.8136 358.1912,250.5801 351.4212,250.144 344.6512,249.5027 337.8811,249.7811 331.1111,250.4283 324.3411,251.1535 317.5711,251.8129 310.801,252.3675 304.031,252.8176 297.261,253.1628 290.491,253.4024 283.7209,253.5351 276.9509,253.5593 270.1809,253.4732 263.4109,253.2745 256.6408,252.9607 249.8708,252.5291 243.1008,252.6467 236.3307,253.0162 229.5607,253.4682 222.7907,253.9013 216.0207,254.2645 209.2506,254.5429 202.4806,254.7345 195.7106,254.837 188.9406,254.8479 182.1705,254.7645 175.4005,254.584 168.6305,254.3037 161.8605,253.9206 155.0904,253.4321 148.3204,252.8355 141.5504,252.1287 134.7804,251.3093 128.0103,250.3757 121.2403,249.3264 114.4703,248.1602 107.7003,246.8765 100.9302,246.6602 94.1602,247.0465 87.3902,247.8078 80.6202,248.8048 73.8501,249.9376 67.0801,251.1309 60.3101,252.3322 53.5401,253.5128 46.77,254.6659 40,255.7931"></polyline>
<text class = "party pdecat" x="631.1111" y="247"><tspan class="party_name">PDeCAT</tspan> (10.9±2.4%)</text>
<polyline class="cec" points=" 40,235.569 46.77,235.487 53.5401,235.4007 60.3101,235.3097 67.0801,235.215 73.8501,235.1205 80.6202,235.0334 87.3902,234.9642 94.1602,234.9273 100.9302,234.9434 107.7003,235.0493 114.4703,235.3258 121.2403,235.6039 128.0103,235.8823 134.7804,236.1599 141.5504,236.4358 148.3204,236.7091 155.0904,236.9792 161.8605,237.2456 168.6305,237.5081 175.4005,237.7665 182.1705,238.021 188.9406,238.2717 195.7106,238.519 202.4806,238.7635 209.2506,239.0059 216.0207,239.2471 222.7907,239.4882 229.5607,239.7237 236.3307,239.9307 243.1008,240.0624 249.8708,240.0381 256.6408,239.7042 263.4109,239.387 270.1809,239.0848 276.9509,238.7959 283.7209,238.5187 290.491,238.2516 297.261,237.9931 304.031,237.7417 310.801,237.4959 317.5711,237.2542 324.3411,237.0151 331.1111,236.7874 337.8811,236.6063 344.6512,236.5426 351.4212,236.7352 358.1912,236.8978 364.9612,237.0322 371.7313,237.1406 378.5013,237.2282 385.2713,237.3056 392.0413,237.3929 398.8114,237.533 405.5814,237.674 412.3514,237.8143 419.1214,237.9526 425.8915,238.0874 432.6615,238.2177 439.4315,238.3423 446.2016,238.46 452.9716,238.5696 459.7416,238.6702 466.5116,238.7605 473.2817,238.8393 480.0517,238.9079 486.8217,238.9749 493.5917,239.0604 500.3618,239.2001 507.1318,239.4537 513.9018,239.9298 520.6718,240.4049 527.4419,240.878 534.2119,241.3482 540.9819,241.8148 547.7519,242.277 554.522,242.7346 561.292,243.1657 568.062,243.4924 574.832,243.5588 581.6021,243.0586 588.3721,242.7106 595.1421,242.5665 601.9121,242.4312 608.6822,242.307 615.4522,242.199 622.2222,242.1146"></polyline>
<polyline class="cec error" points=" 40,210.8855 46.77,211.5457 53.5401,212.2143 60.3101,212.8919 67.0801,213.5753 73.8501,214.2521 80.6202,214.8992 87.3902,215.4837 94.1602,215.963 100.9302,216.2792 107.7003,216.343 114.4703,215.9848 121.2403,215.7139 128.0103,215.5262 134.7804,215.4179 141.5504,215.3852 148.3204,215.4245 155.0904,215.5324 161.8605,215.7053 168.6305,215.9403 175.4005,216.2342 182.1705,216.5846 188.9406,216.9889 195.7106,217.4451 202.4806,217.9514 209.2506,218.5066 216.0207,219.1097 222.7907,219.7602 229.5607,220.4414 236.3307,221.0916 243.1008,221.5893 249.8708,221.7297 256.6408,221.1428 263.4109,220.6561 270.1809,220.2636 276.9509,219.9596 283.7209,219.739 290.491,219.5969 297.261,219.5287 304.031,219.5304 310.801,219.598 317.5711,219.7279 324.3411,219.9169 331.1111,220.155 337.8811,220.4134 344.6512,220.6384 351.4212,220.7443 358.1912,220.9331 364.9612,221.2018 371.7313,221.5363 378.5013,221.8911 385.2713,222.1789 392.0413,222.2529 398.8114,221.8315 405.5814,221.4943 412.3514,221.2359 419.1214,221.0519 425.8915,220.9381 432.6615,220.8908 439.4315,220.9065 446.2016,220.9819 452.9716,221.1136 459.7416,221.2983 466.5116,221.5328 473.2817,221.8138 480.0517,222.1367 486.8217,222.4934 493.5917,222.8724 500.3618,223.2607 507.1318,223.6466 513.9018,224.0265 520.6718,224.4873 527.4419,225.0253 534.2119,225.6369 540.9819,226.3184 547.7519,227.0667 554.522,227.8786 561.292,228.7129 568.062,229.429 574.832,229.7519 581.6021,229.1639 588.3721,228.6673 595.1421,228.171 601.9121,227.7877 608.6822,227.5119 615.4522,227.2823 622.2222,226.9335 622.2222,257.2957 615.4522,257.1157 608.6822,257.1021 601.9121,257.0748 595.1421,256.9621 588.3721,256.7539 581.6021,256.9533 574.832,257.3658 568.062,257.5558 561.292,257.6185 554.522,257.5905 547.7519,257.4872 540.9819,257.3111 534.2119,257.0596 527.4419,256.7307 520.6718,256.3224 513.9018,255.833 507.1318,255.2608 500.3618,255.1394 493.5917,255.2484 486.8217,255.4565 480.0517,255.6791 473.2817,255.8648 466.5116,255.9882 459.7416,256.0421 452.9716,256.0257 446.2016,255.938 439.4315,255.778 432.6615,255.5446 425.8915,255.2368 419.1214,254.8532 412.3514,254.3927 405.5814,253.8538 398.8114,253.2346 392.0413,252.5328 385.2713,252.4324 378.5013,252.5653 371.7313,252.7449 364.9612,252.8626 358.1912,252.8625 351.4212,252.7261 344.6512,252.4468 337.8811,252.7992 331.1111,253.4199 324.3411,254.1133 317.5711,254.7805 310.801,255.3938 304.031,255.9529 297.261,256.4574 290.491,256.9063 283.7209,257.2984 276.9509,257.6322 270.1809,257.906 263.4109,258.1179 256.6408,258.2656 249.8708,258.3466 243.1008,258.5356 236.3307,258.7698 229.5607,259.006 222.7907,259.2161 216.0207,259.3845 209.2506,259.5052 202.4806,259.5755 195.7106,259.5929 188.9406,259.5545 182.1705,259.4574 175.4005,259.2988 168.6305,259.0759 161.8605,258.7859 155.0904,258.426 148.3204,257.9936 141.5504,257.4864 134.7804,256.902 128.0103,256.2384 121.2403,255.4938 114.4703,254.6667 107.7003,253.7557 100.9302,253.6077 94.1602,253.8916 87.3902,254.4447 80.6202,255.1676 73.8501,255.9889 67.0801,256.8547 60.3101,257.7275 53.5401,258.5871 46.77,259.4283 40,260.2525"></polyline>
<text class = "party cec" x="631.1111" y="227"><tspan class="party_name">CeC</tspan> (10.9±1.8%)</text>
<polyline class="psc" points=" 40,222.4922 46.77,222.3681 53.5401,222.237 60.3101,222.0983 67.0801,221.9536 73.8501,221.809 80.6202,221.6765 87.3902,221.5736 94.1602,221.5241 100.9302,221.5632 107.7003,221.7529 114.4703,222.23 121.2403,222.714 128.0103,223.203 134.7804,223.6955 141.5504,224.1901 148.3204,224.6858 155.0904,225.182 161.8605,225.6782 168.6305,226.1742 175.4005,226.6704 182.1705,227.1673 188.9406,227.6657 195.7106,228.1669 202.4806,228.6724 209.2506,229.1841 216.0207,229.7044 222.7907,230.2361 229.5607,230.7646 236.3307,231.2285 243.1008,231.5014 249.8708,231.3636 256.6408,230.3962 263.4109,229.4737 270.1809,228.5928 276.9509,227.7502 283.7209,226.9427 290.491,226.167 297.261,225.42 304.031,224.6983 310.801,223.9987 317.5711,223.3176 324.3411,222.6517 331.1111,222.0216 337.8811,221.5085 344.6512,221.274 351.4212,221.6301 358.1912,221.9109 364.9612,222.1216 371.7313,222.2712 378.5013,222.3828 385.2713,222.5022 392.0413,222.7127 398.8114,223.1939 405.5814,223.6815 412.3514,224.1747 419.1214,224.6729 425.8915,225.1758 432.6615,225.6836 439.4315,226.1963 446.2016,226.7147 452.9716,227.2394 459.7416,227.7718 466.5116,228.3133 473.2817,228.8658 480.0517,229.4207 486.8217,229.939 493.5917,230.3395 500.3618,230.4882 507.1318,230.1717 513.9018,229.0143 520.6718,227.9111 527.4419,226.8606 534.2119,225.8616 540.9819,224.9134 547.7519,224.0158 554.522,223.1686 561.292,222.3865 568.062,221.7165 574.832,221.2388 581.6021,221.0919 588.3721,220.8133 595.1421,220.3182 601.9121,219.7315 608.6822,219.0786 615.4522,218.4638 622.2222,218.1087"></polyline>
<polyline class="psc error" points=" 40,190.6809 46.77,191.4952 53.5401,192.3195 60.3101,193.1544 67.0801,193.9962 73.8501,194.8306 80.6202,195.6311 87.3902,196.3598 94.1602,196.9677 100.9302,197.3898 107.7003,197.5274 114.4703,197.1997 121.2403,196.9888 128.0103,196.8893 134.7804,196.8958 141.5504,197.0033 148.3204,197.2071 155.0904,197.5027 161.8605,197.8859 168.6305,198.3528 175.4005,198.9002 182.1705,199.525 188.9406,200.2248 195.7106,200.9977 202.4806,201.8425 209.2506,202.7584 216.0207,203.7456 222.7907,204.8051 229.5607,205.9076 236.3307,206.9414 243.1008,207.6826 249.8708,207.7498 256.6408,206.4409 263.4109,205.2837 270.1809,204.2696 276.9509,203.3904 283.7209,202.6385 290.491,202.0064 297.261,201.4873 304.031,201.0746 310.801,200.762 317.5711,200.5436 324.3411,200.4138 331.1111,200.3696 337.8811,200.4116 344.6512,200.5429 351.4212,200.7903 358.1912,201.1064 364.9612,201.4901 371.7313,201.9298 378.5013,202.3842 385.2713,202.7742 392.0413,202.9704 398.8114,202.7396 405.5814,202.6235 412.3514,202.616 419.1214,202.7123 425.8915,202.9083 432.6615,203.2007 439.4315,203.5868 446.2016,204.064 452.9716,204.6304 459.7416,205.2844 466.5116,206.0249 473.2817,206.8512 480.0517,207.7466 486.8217,208.6491 493.5917,209.4335 500.3618,209.8975 507.1318,209.7268 513.9018,208.3845 520.6718,207.2028 527.4419,206.1772 534.2119,205.3038 540.9819,204.5793 547.7519,204.0003 554.522,203.5637 561.292,203.2612 568.062,203.0632 574.832,202.903 581.6021,202.6595 588.3721,202.1946 595.1421,201.2321 601.9121,200.3107 608.6822,199.4462 615.4522,198.6592 622.2222,197.9524 622.2222,238.2649 615.4522,238.2684 608.6822,238.7109 601.9121,239.1522 595.1421,239.4043 588.3721,239.4321 581.6021,239.5243 574.832,239.5745 568.062,240.3698 561.292,241.5118 554.522,242.7734 547.7519,244.0314 540.9819,245.2476 534.2119,246.4193 527.4419,247.544 520.6718,248.6195 513.9018,249.6441 507.1318,250.6167 500.3618,251.0789 493.5917,251.2455 486.8217,251.2289 480.0517,251.0947 473.2817,250.8803 466.5116,250.6016 459.7416,250.2592 452.9716,249.8485 446.2016,249.3653 439.4315,248.8059 432.6615,248.1664 425.8915,247.4434 419.1214,246.6335 412.3514,245.7334 405.5814,244.7395 398.8114,243.6481 392.0413,242.4549 385.2713,242.2303 378.5013,242.3814 371.7313,242.6126 364.9612,242.753 358.1912,242.7153 351.4212,242.4698 344.6512,242.0051 337.8811,242.6055 331.1111,243.6735 324.3411,244.8897 317.5711,246.0917 310.801,247.2353 304.031,248.322 297.261,249.3526 290.491,250.3276 283.7209,251.2469 276.9509,252.11 270.1809,252.916 263.4109,253.6637 256.6408,254.3515 249.8708,254.9774 243.1008,255.3202 236.3307,255.5156 229.5607,255.6217 222.7907,255.667 216.0207,255.6631 209.2506,255.6098 202.4806,255.5023 195.7106,255.3361 188.9406,255.1066 182.1705,254.8096 175.4005,254.4407 168.6305,253.9956 161.8605,253.4705 155.0904,252.8613 148.3204,252.1646 141.5504,251.3769 134.7804,250.4952 128.0103,249.5167 121.2403,248.4391 114.4703,247.2602 107.7003,245.9783 100.9302,245.7366 94.1602,246.0804 87.3902,246.7874 80.6202,247.7219 73.8501,248.7873 67.0801,249.9109 60.3101,251.0423 53.5401,252.1545 46.77,253.241 40,254.3035"></polyline>
<text class = "party psc" x="631.1111" y="207"><tspan class="party_name">PSC</tspan> (13.8±2.4%)</text>
<polyline class="cs" points=" 40,186.6171 46.77,186.6432 53.5401,186.6709 60.3101,186.7 67.0801,186.7305 73.8501,186.761 80.6202,186.7896 87.3902,186.8132 94.1602,186.8281 100.9302,186.8286 107.7003,186.8052 114.4703,186.7365 121.2403,186.6692 128.0103,186.6038 134.7804,186.5408 141.5504,186.4805 148.3204,186.4232 155.0904,186.3694 161.8605,186.3191 168.6305,186.2726 175.4005,186.2301 182.1705,186.1916 188.9406,186.1571 195.7106,186.1267 202.4806,186.1003 209.2506,186.0779 216.0207,186.0593 222.7907,186.0444 229.5607,186.0333 236.3307,186.0263 243.1008,186.0247 249.8708,186.0308 256.6408,186.05 263.4109,186.0733 270.1809,186.1013 276.9509,186.1343 283.7209,186.173 290.491,186.2176 297.261,186.2686 304.031,186.3263 310.801,186.391 317.5711,186.4631 324.3411,186.5428 331.1111,186.6268 337.8811,186.7033 344.6512,186.7497 351.4212,186.7241 358.1912,186.7229 364.9612,186.747 371.7313,186.7927 378.5013,186.8422 385.2713,186.8586 392.0413,186.7751 398.8114,186.4453 405.5814,186.1176 412.3514,185.7929 419.1214,185.4721 425.8915,185.1561 432.6615,184.846 439.4315,184.5427 446.2016,184.2473 452.9716,183.9607 459.7416,183.6839 466.5116,183.4178 473.2817,183.1632 480.0517,182.9217 486.8217,182.6971 493.5917,182.4947 500.3618,182.321 507.1318,182.1834 513.9018,182.0928 520.6718,181.9962 527.4419,181.897 534.2119,181.7984 540.9819,181.7038 547.7519,181.6166 554.522,181.5402 561.292,181.4633 568.062,181.3308 574.832,181.017 581.6021,180.2531 588.3721,179.6462 595.1421,179.2655 601.9121,178.8226 608.6822,178.336 615.4522,177.8804 622.2222,177.6145"></polyline>
<polyline class="cs error" points=" 40,156.7517 46.77,157.6588 53.5401,158.5836 60.3101,159.5272 67.0801,160.4845 73.8501,161.4349 80.6202,162.3396 87.3902,163.1438 94.1602,163.7745 100.9302,164.1311 107.7003,164.0519 114.4703,163.2128 121.2403,162.4768 128.0103,161.8413 134.7804,161.3033 141.5504,160.8601 148.3204,160.5085 155.0904,160.2457 161.8605,160.0683 168.6305,159.9733 175.4005,159.9575 182.1705,160.0179 188.9406,160.1515 195.7106,160.3556 202.4806,160.6274 209.2506,160.9646 216.0207,161.365 222.7907,161.8268 229.5607,162.3369 236.3307,162.8508 243.1008,163.2818 249.8708,163.4872 256.6408,163.2199 263.4109,163.0564 270.1809,162.992 276.9509,163.0224 283.7209,163.1439 290.491,163.3527 297.261,163.6458 304.031,164.0203 310.801,164.4738 317.5711,165.0042 324.3411,165.6099 331.1111,166.2647 337.8811,166.8782 344.6512,167.2749 351.4212,167.1363 358.1912,167.1595 364.9612,167.3397 371.7313,167.6534 378.5013,168.0217 385.2713,168.2884 392.0413,168.1832 398.8114,167.1634 405.5814,166.246 412.3514,165.4272 419.1214,164.7041 425.8915,164.0744 432.6615,163.5362 439.4315,163.0878 446.2016,162.7278 452.9716,162.4545 459.7416,162.2667 466.5116,162.1627 473.2817,162.1413 480.0517,162.197 486.8217,162.3133 493.5917,162.4568 500.3618,162.5733 507.1318,162.5811 513.9018,162.3504 520.6718,162.2128 527.4419,162.1684 534.2119,162.218 540.9819,162.3619 547.7519,162.6008 554.522,162.9354 561.292,163.3315 568.062,163.6595 574.832,163.6508 581.6021,162.7827 588.3721,161.9941 595.1421,161.1783 601.9121,160.4266 608.6822,159.7481 615.4522,159.1373 622.2222,158.5446 622.2222,196.6844 615.4522,196.6235 608.6822,196.9238 601.9121,197.2186 595.1421,197.3527 588.3721,197.2982 581.6021,197.7234 574.832,198.3831 568.062,199.002 561.292,199.5952 554.522,200.1451 547.7519,200.6323 540.9819,201.0457 534.2119,201.3789 527.4419,201.6256 520.6718,201.7797 513.9018,201.8351 507.1318,201.7856 500.3618,202.0686 493.5917,202.5326 486.8217,203.0809 480.0517,203.6464 473.2817,204.1851 466.5116,204.6729 459.7416,205.1012 452.9716,205.467 446.2016,205.7669 439.4315,205.9976 432.6615,206.1558 425.8915,206.2379 419.1214,206.2401 412.3514,206.1587 405.5814,205.9893 398.8114,205.7271 392.0413,205.3669 385.2713,205.4289 378.5013,205.6626 371.7313,205.9319 364.9612,206.1544 358.1912,206.2863 351.4212,206.3119 344.6512,206.2244 337.8811,206.5284 331.1111,206.9889 324.3411,207.4756 317.5711,207.9219 310.801,208.3082 304.031,208.6322 297.261,208.8914 290.491,209.0825 283.7209,209.2021 276.9509,209.2462 270.1809,209.2106 263.4109,209.0903 256.6408,208.8802 249.8708,208.5745 243.1008,208.7676 236.3307,209.2019 229.5607,209.7297 222.7907,210.262 216.0207,210.7536 209.2506,211.1912 202.4806,211.5732 195.7106,211.8978 188.9406,212.1626 182.1705,212.3652 175.4005,212.5027 168.6305,212.572 161.8605,212.5699 155.0904,212.4931 148.3204,212.3379 141.5504,212.1009 134.7804,211.7782 128.0103,211.3664 121.2403,210.8616 114.4703,210.2602 107.7003,209.5585 100.9302,209.5261 94.1602,209.8817 87.3902,210.4827 80.6202,211.2395 73.8501,212.0872 67.0801,212.9764 60.3101,213.8729 53.5401,214.7582 46.77,215.6277 40,216.4826"></polyline>
<text class = "party cs" x="631.1111" y="178"><tspan class="party_name">C's</tspan> (18.7±2.3%)</text>
<polyline class="pp" points=" 40,252.7171 46.77,252.7439 53.5401,252.7733 60.3101,252.8056 67.0801,252.8404 73.8501,252.8759 80.6202,252.9083 87.3902,252.9325 94.1602,252.9409 100.9302,252.9225 107.7003,252.8579 114.4703,252.7041 121.2403,252.547 128.0103,252.3873 134.7804,252.2256 141.5504,252.0625 148.3204,251.8983 155.0904,251.7336 161.8605,251.5685 168.6305,251.4033 175.4005,251.2383 182.1705,251.0733 188.9406,250.9086 195.7106,250.7439 202.4806,250.5791 209.2506,250.414 216.0207,250.2482 222.7907,250.0814 229.5607,249.9171 236.3307,249.7688 243.1008,249.6636 249.8708,249.6472 256.6408,249.8051 263.4109,249.948 270.1809,250.0771 276.9509,250.1934 283.7209,250.2981 290.491,250.3921 297.261,250.4767 304.031,250.5529 310.801,250.6222 317.5711,250.6857 324.3411,250.7451 331.1111,250.7934 337.8811,250.8005 344.6512,250.7001 351.4212,250.3525 358.1912,250.0008 364.9612,249.6424 371.7313,249.2843 378.5013,248.9566 385.2713,248.7178 392.0413,248.6682 398.8114,249.0227 405.5814,249.3586 412.3514,249.6774 419.1214,249.9802 425.8915,250.2675 432.6615,250.5398 439.4315,250.7972 446.2016,251.0396 452.9716,251.267 459.7416,251.479 466.5116,251.6752 473.2817,251.8552 480.0517,252.0198 486.8217,252.1738 493.5917,252.3291 500.3618,252.5076 507.1318,252.7477 513.9018,253.1193 520.6718,253.4943 527.4419,253.8709 534.2119,254.2478 540.9819,254.6238 547.7519,254.998 554.522,255.3699 561.292,255.7199 568.062,255.9781 574.832,256.0044 581.6021,255.5199 588.3721,255.3043 595.1421,255.5205 601.9121,255.7696 608.6822,256.0425 615.4522,256.2973 622.2222,256.4431"></polyline>
<polyline class="pp error" points=" 40,228.6557 46.77,229.4184 53.5401,230.196 60.3101,230.9897 67.0801,231.7949 73.8501,232.5933 80.6202,233.3512 87.3902,234.0201 94.1602,234.5361 100.9302,234.8101 107.7003,234.6972 114.4703,233.9032 121.2403,233.1884 128.0103,232.5514 134.7804,231.9903 141.5504,231.5034 148.3204,231.0885 155.0904,230.7434 161.8605,230.4659 168.6305,230.2533 175.4005,230.1033 182.1705,230.0134 188.9406,229.9811 195.7106,230.0039 202.4806,230.0795 209.2506,230.2056 216.0207,230.3803 222.7907,230.6015 229.5607,230.8618 236.3307,231.1384 243.1008,231.3866 249.8708,231.5342 256.6408,231.4616 263.4109,231.4558 270.1809,231.5136 276.9509,231.6322 283.7209,231.8091 290.491,232.0421 297.261,232.3293 304.031,232.6692 310.801,233.0607 317.5711,233.5032 324.3411,233.9963 331.1111,234.5142 337.8811,234.961 344.6512,235.143 351.4212,234.6895 358.1912,234.3438 364.9612,234.0991 371.7313,233.9465 378.5013,233.8673 385.2713,233.8248 392.0413,233.7574 398.8114,233.5648 405.5814,233.4357 412.3514,233.3679 419.1214,233.3592 425.8915,233.4076 432.6615,233.5108 439.4315,233.6668 446.2016,233.8732 452.9716,234.1278 459.7416,234.4281 466.5116,234.7717 473.2817,235.1559 480.0517,235.5758 486.8217,236.0194 493.5917,236.4674 500.3618,236.8932 507.1318,237.2641 513.9018,237.5388 520.6718,237.8975 527.4419,238.3361 534.2119,238.8505 540.9819,239.4368 547.7519,240.0914 554.522,240.811 561.292,241.5569 568.062,242.1976 574.832,242.4753 581.6021,241.9031 588.3721,241.5447 595.1421,241.427 601.9121,241.4462 608.6822,241.5851 615.4522,241.7342 622.2222,241.6289 622.2222,271.2573 615.4522,270.8605 608.6822,270.5 601.9121,270.093 595.1421,269.614 588.3721,269.0639 581.6021,269.1367 574.832,269.5334 568.062,269.7586 561.292,269.8828 554.522,269.9288 547.7519,269.9047 540.9819,269.8108 534.2119,269.6451 527.4419,269.4056 520.6718,269.091 513.9018,268.6999 507.1318,268.2312 500.3618,268.122 493.5917,268.1908 486.8217,268.3282 480.0517,268.4639 473.2817,268.5545 466.5116,268.5787 459.7416,268.5298 452.9716,268.4061 446.2016,268.206 439.4315,267.9276 432.6615,267.5688 425.8915,267.1274 419.1214,266.6011 412.3514,265.9869 405.5814,265.2814 398.8114,264.4806 392.0413,263.5791 385.2713,263.6108 378.5013,264.0459 371.7313,264.6221 364.9612,265.1857 358.1912,265.6577 351.4212,266.0156 344.6512,266.2571 337.8811,266.6401 331.1111,267.0727 324.3411,267.4938 317.5711,267.8683 310.801,268.1837 304.031,268.4367 297.261,268.6241 290.491,268.7421 283.7209,268.787 276.9509,268.7546 270.1809,268.6406 263.4109,268.4403 256.6408,268.1486 249.8708,267.7602 243.1008,267.9406 236.3307,268.3992 229.5607,268.9723 222.7907,269.5614 216.0207,270.1161 209.2506,270.6223 202.4806,271.0786 195.7106,271.4838 188.9406,271.836 182.1705,272.1332 175.4005,272.3732 168.6305,272.5534 161.8605,272.6712 155.0904,272.7237 148.3204,272.7082 141.5504,272.6216 134.7804,272.4609 128.0103,272.2233 121.2403,271.9056 114.4703,271.505 107.7003,271.0187 100.9302,271.035 94.1602,271.3457 87.3902,271.8448 80.6202,272.4655 73.8501,273.1584 67.0801,273.8859 60.3101,274.6215 53.5401,275.3505 46.77,276.0693 40,276.7785"></polyline>
<text class = "party pp" x="631.1111" y="267"><tspan class="party_name">PP</tspan> (9.2±1.8%)</text>
<polyline class="otros" points=" 40,308.503 46.77,308.5742 53.5401,308.6482 60.3101,308.7252 67.0801,308.8045 73.8501,308.883 80.6202,308.9555 87.3902,309.0142 94.1602,309.0489 100.9302,309.0445 107.7003,308.9748 114.4703,308.782 121.2403,308.5897 128.0103,308.399 134.7804,308.2107 141.5504,308.0255 148.3204,307.844 155.0904,307.6666 161.8605,307.4936 168.6305,307.3252 175.4005,307.1616 182.1705,307.0025 188.9406,306.8478 195.7106,306.6972 202.4806,306.5504 209.2506,306.4067 216.0207,306.2655 222.7907,306.1261 229.5607,305.9916 236.3307,305.8763 243.1008,305.8096 249.8708,305.8429 256.6408,306.0747 263.4109,306.3007 270.1809,306.5223 276.9509,306.7408 283.7209,306.9577 290.491,307.1744 297.261,307.3923 304.031,307.6128 310.801,307.8377 317.5711,308.0684 324.3411,308.307 331.1111,308.5389 337.8811,308.7065 344.6512,308.69 351.4212,308.2499 358.1912,307.8493 364.9612,307.4864 371.7313,307.162 378.5013,306.8799 385.2713,306.6437 392.0413,306.4544 398.8114,306.3102 405.5814,306.1507 412.3514,305.9788 419.1214,305.797 425.8915,305.6074 432.6615,305.412 439.4315,305.2124 446.2016,305.0101 452.9716,304.8065 459.7416,304.6026 466.5116,304.3995 473.2817,304.198 480.0517,304.0002 486.8217,303.8117 493.5917,303.6422 500.3618,303.5054 507.1318,303.421 513.9018,303.4211 520.6718,303.406 527.4419,303.377 534.2119,303.3354 540.9819,303.2823 547.7519,303.2185 554.522,303.1446 561.292,303.0695 568.062,303.0245 574.832,303.0741 581.6021,303.3473 588.3721,303.5904 595.1421,303.8142 601.9121,304.0528 608.6822,304.2986 615.4522,304.5234 622.2222,304.6696"></polyline>
<polyline class="otros error" points=" 40,288.2305 46.77,288.967 53.5401,289.7155 60.3101,290.4769 67.0801,291.2466 73.8501,292.0067 80.6202,292.7251 87.3902,293.356 94.1602,293.8394 100.9302,294.0921 107.7003,293.9774 114.4703,293.2134 121.2403,292.5213 128.0103,291.9007 134.7804,291.3509 141.5504,290.871 148.3204,290.4595 155.0904,290.1149 161.8605,289.8352 168.6305,289.6185 175.4005,289.4624 182.1705,289.3646 188.9406,289.3227 195.7106,289.3341 202.4806,289.3964 209.2506,289.5072 216.0207,289.6639 222.7907,289.8643 229.5607,290.102 236.3307,290.3591 243.1008,290.6032 249.8708,290.7838 256.6408,290.8234 263.4109,290.9293 270.1809,291.0993 276.9509,291.3313 283.7209,291.6237 290.491,291.9748 297.261,292.3832 304.031,292.8481 310.801,293.3686 317.5711,293.9444 324.3411,294.5756 331.1111,295.2299 337.8811,295.7896 344.6512,296.0196 351.4212,295.4702 358.1912,295.06 364.9612,294.7836 371.7313,294.6276 378.5013,294.5527 385.2713,294.4787 392.0413,294.2636 398.8114,293.6251 405.5814,293.0399 412.3514,292.5085 419.1214,292.0314 425.8915,291.609 432.6615,291.2417 439.4315,290.9295 446.2016,290.6725 452.9716,290.4702 459.7416,290.3223 466.5116,290.228 473.2817,290.1864 480.0517,290.1948 486.8217,290.2439 493.5917,290.316 500.3618,290.3822 507.1318,290.3994 513.9018,290.3006 520.6718,290.2567 527.4419,290.2671 534.2119,290.331 540.9819,290.4472 547.7519,290.6143 554.522,290.8306 561.292,291.0892 568.062,291.3708 574.832,291.6444 581.6021,291.8719 588.3721,292.0107 595.1421,291.9464 601.9121,291.9882 608.6822,292.1213 615.4522,292.2578 622.2222,292.1862 622.2222,317.1529 615.4522,316.789 608.6822,316.4759 601.9121,316.1174 595.1421,315.682 588.3721,315.1701 581.6021,314.8226 574.832,314.5037 568.062,314.6783 561.292,315.0499 554.522,315.4586 547.7519,315.8226 540.9819,316.1174 534.2119,316.3399 527.4419,316.4869 520.6718,316.5552 513.9018,316.5416 507.1318,316.4426 500.3618,316.6285 493.5917,316.9683 486.8217,317.3796 480.0517,317.8057 473.2817,318.2096 466.5116,318.5711 459.7416,318.883 452.9716,319.1428 446.2016,319.3478 439.4315,319.4953 432.6615,319.5823 425.8915,319.6058 419.1214,319.5626 412.3514,319.4492 405.5814,319.2616 398.8114,318.9954 392.0413,318.6453 385.2713,318.8087 378.5013,319.207 371.7313,319.6965 364.9612,320.1893 358.1912,320.6385 351.4212,321.0296 344.6512,321.3604 337.8811,321.6234 331.1111,321.848 324.3411,322.0383 317.5711,322.1924 310.801,322.3067 304.031,322.3776 297.261,322.4014 290.491,322.3741 283.7209,322.2918 276.9509,322.1503 270.1809,321.9453 263.4109,321.6722 256.6408,321.3261 249.8708,320.902 243.1008,321.0161 236.3307,321.3935 229.5607,321.8812 222.7907,322.3879 216.0207,322.8672 209.2506,323.3063 202.4806,323.7044 195.7106,324.0604 188.9406,324.3729 182.1705,324.6403 175.4005,324.8607 168.6305,325.032 161.8605,325.152 155.0904,325.2183 148.3204,325.2285 141.5504,325.1801 134.7804,325.0705 128.0103,324.8974 121.2403,324.6582 114.4703,324.3505 107.7003,323.9722 100.9302,323.9969 94.1602,324.2584 87.3902,324.6725 80.6202,325.1859 73.8501,325.7593 67.0801,326.3623 60.3101,326.9736 53.5401,327.581 46.77,328.1815 40,328.7755"></polyline>
<text class = "party otros" x="631.1111" y="308"><tspan class="party_name">Otros</tspan> (3.4±1.5%)</text>
  
<text class="pie izquierda" x="0" y="395">Datos: Electograph | Modelo propio</text>
<text class="pie derecha" x="800" y="395">Jesús Carro | <tspan style="font-weight:bold">1datomas</tspan>.com</text>
</svg>
