<?xml version="1.0" encoding="utf-8"?><!DOCTYPE svg PUBLIC "-//W3C//DTD SVG 1.1//EN" "http://www.w3.org/Graphics/SVG/1.1/DTD/svg11.dtd">
<svg xmlns="http://www.w3.org/2000/svg" xmlns:xlink="http://www.w3.org/1999/xlink" version="1.1" viewBox="0 0 800 400">

<text class="horizontal axis" x="36" y="333.3333">0%</text>
<line class="horizontal axis" x1="40" y1="333.3333" x2="622.2222" y2="333.3333"></line>
<text class="horizontal axis" x="36" y="250">10%</text>
<line class="horizontal axis" x1="40" y1="250" x2="622.2222" y2="250"></line>
<text class="horizontal axis" x="36" y="166.6667">20%</text>
<line class="horizontal axis" x1="40" y1="166.6667" x2="622.2222" y2="166.6667"></line>
<text class="horizontal axis" x="36" y="83.3333">30%</text>
<line class="horizontal axis" x1="40" y1="83.3333" x2="622.2222" y2="83.3333"></line>
<line class="vertical axis" x1="40" y1="336.6667" x2="40" y2="66.6667"></line>
<text class="vertical axis" x="40" y="343.3333">Ago-2017</text>
<line class="vertical axis" x1="205.5861" y1="336.6667" x2="205.5861" y2="66.6667"></line>
<text class="vertical axis" x="205.5861" y="343.3333">Sep-2017</text>
<line class="vertical axis" x1="365.8308" y1="336.6667" x2="365.8308" y2="66.6667"></line>
<text class="vertical axis" x="365.8308" y="343.3333">Oct-2017</text>
<line class="vertical axis" x1="531.4169" y1="336.6667" x2="531.4169" y2="66.6667"></line>
<text class="vertical axis" x="531.4169" y="343.3333">Nov-2017</text>
<polyline id="media-cup"  class="cup media" points=" 40,279.9543 45.3415,279.9195 50.683,279.8832 56.0245,279.8454 61.366,279.8067 66.7074,279.7683 72.0489,279.7326 77.3904,279.7027 82.7319,279.6819 88.0734,279.6754 93.4149,279.6926 98.7564,279.7581 104.0979,279.8207 109.4393,279.8797 114.7808,279.9341 120.1223,279.9834 125.4638,280.027 130.8053,280.0642 136.1468,280.0946 141.4883,280.1177 146.8298,280.1329 152.1713,280.1399 157.5127,280.138 162.8542,280.1267 168.1957,280.1053 173.5372,280.073 178.8787,280.029 184.2202,279.9721 189.5617,279.906 194.9032,279.8469 200.2446,279.8278 205.5861,279.9077 210.9276,280.2114 216.2691,280.5031 221.6106,280.7829 226.9521,281.0512 232.2936,281.3087 237.6351,281.5559 242.9766,281.7935 248.318,282.022 253.6595,282.2423 259.001,282.4549 264.3425,282.6604 269.684,282.8551 275.0255,283.0282 280.367,283.1639 285.7085,283.2381 291.0499,283.3451 296.3914,283.4827 301.7329,283.6427 307.0744,283.8003 312.4159,283.9125 317.7574,283.9081 323.0989,283.6207 328.4404,283.3545 333.7819,283.1079 339.1233,282.8793 344.4648,282.6675 349.8063,282.4711 355.1478,282.289 360.4893,282.12 365.8308,281.963 371.1723,281.8172 376.5138,281.6815 381.8552,281.5551 387.1967,281.4376 392.5382,281.3293 397.8797,281.2306 403.2212,281.1414 408.5627,281.0602 413.9042,280.9832 419.2457,280.896 424.5872,280.7991 429.9286,280.6921 435.2701,280.5745 440.6116,280.445 445.9531,280.3014 451.2946,280.1595 456.6361,280.0819 461.9776,280.197 467.3191,280.7664 472.6606,281.1298 478.002,281.2254 483.3435,281.3197 488.685,281.4095 494.0265,281.4977 499.368,281.598 504.7095,281.7466 510.051,281.8936 515.3925,282.0236 520.7339,282.109 526.0754,282.1081 531.4169,281.9537 536.7584,281.8401 542.0999,281.7856 547.4414,281.8402 552.7829,281.8984 558.1244,281.9621 563.4659,282.0325 568.8073,282.111 574.1488,282.1987 579.4903,282.2963 584.8318,282.4048 590.1733,282.5248 595.5148,282.6568 600.8563,282.792 606.1978,282.8961 611.5392,282.9028 616.8807,282.6836 622.2222,282.5293"></polyline>
<polyline id="error-cup" class="cup error" points=" 40,256.0398 45.3415,256.6047 50.683,257.1794 56.0245,257.7648 61.366,258.5368 66.7074,259.4654 72.0489,260.3442 77.3904,261.1194 82.7319,261.7242 88.0734,262.067 93.4149,261.9892 98.7564,261.1244 104.0979,260.383 109.4393,259.7595 114.7808,259.248 120.1223,258.8428 125.4638,258.5383 130.8053,258.3287 136.1468,258.2533 141.4883,258.2386 146.8298,258.2719 152.1713,258.35 157.5127,258.5177 162.8542,258.7689 168.1957,259.0814 173.5372,259.4519 178.8787,259.8774 184.2202,260.3555 189.5617,260.8739 194.9032,261.3941 200.2446,261.8463 205.5861,262.1219 210.9276,262.0318 216.2691,262.0596 221.6106,262.1947 226.9521,262.4282 232.2936,262.7524 237.6351,263.161 242.9766,263.6486 248.318,264.2109 253.6595,264.8446 259.001,265.5471 264.3425,266.317 269.684,267.1231 275.0255,267.8639 280.367,268.3549 285.7085,268.255 291.0499,268.3635 296.3914,268.6655 301.7329,269.1251 307.0744,269.6449 312.4159,270.0521 317.7574,270.0641 323.0989,269.0684 328.4404,268.225 333.7819,267.5207 339.1233,266.9445 344.4648,266.4866 349.8063,266.1384 355.1478,265.8919 360.4893,265.7402 365.8308,265.6768 371.1723,265.6958 376.5138,265.7919 381.8552,265.9606 387.1967,266.1932 392.5382,266.4689 397.8797,266.7506 403.2212,266.983 408.5627,267.0854 413.9042,266.9247 419.2457,266.8587 424.5872,266.8773 429.9286,266.9714 435.2701,267.1328 440.6116,267.3536 445.9531,267.6263 451.2946,267.9469 456.6361,268.3228 461.9776,268.786 467.3191,269.4386 472.6606,269.8513 478.002,269.8431 483.3435,269.9674 488.685,270.2012 494.0265,270.4904 499.368,270.7415 504.7095,270.8 510.051,270.9949 515.3925,271.2789 520.7339,271.5724 526.0754,271.7508 531.4169,271.5982 536.7584,271.4979 542.0999,271.2933 547.4414,270.6646 552.7829,270.1061 558.1244,269.6209 563.4659,269.2132 568.8073,268.8889 574.1488,268.6549 579.4903,268.5191 584.8318,268.4899 590.1733,268.5766 595.5148,268.7882 600.8563,269.1065 606.1978,269.4364 611.5392,269.5621 616.8807,269.0251 622.2222,268.4706 622.2222,296.5879 616.8807,296.342 611.5392,296.2435 606.1978,296.3558 600.8563,296.4775 595.5148,296.5254 590.1733,296.473 584.8318,296.3197 579.4903,296.0736 574.1488,295.7424 568.8073,295.3332 563.4659,294.8518 558.1244,294.3033 552.7829,293.6907 547.4414,293.0158 542.0999,292.2779 536.7584,292.1823 531.4169,292.3092 526.0754,292.4654 520.7339,292.6455 515.3925,292.7684 510.051,292.7922 504.7095,292.6933 499.368,292.4546 494.0265,292.505 488.685,292.6178 483.3435,292.672 478.002,292.6077 472.6606,292.4083 467.3191,292.0941 461.9776,291.608 456.6361,291.8409 451.2946,292.3721 445.9531,292.9766 440.6116,293.5364 435.2701,294.0163 429.9286,294.4128 424.5872,294.7209 419.2457,294.9334 413.9042,295.0417 408.5627,295.035 403.2212,295.2998 397.8797,295.7106 392.5382,296.1897 387.1967,296.6819 381.8552,297.1495 376.5138,297.571 371.1723,297.9386 365.8308,298.2493 360.4893,298.4997 355.1478,298.686 349.8063,298.8039 344.4648,298.8484 339.1233,298.8142 333.7819,298.695 328.4404,298.4841 323.0989,298.1731 317.7574,297.7521 312.4159,297.7729 307.0744,297.9558 301.7329,298.1603 296.3914,298.3 291.0499,298.3267 285.7085,298.2212 280.367,297.9728 275.0255,298.1924 269.684,298.5871 264.3425,299.0038 259.001,299.3627 253.6595,299.6401 248.318,299.8331 242.9766,299.9383 237.6351,299.9508 232.2936,299.865 226.9521,299.6743 221.6106,299.371 216.2691,298.9465 210.9276,298.391 205.5861,297.6936 200.2446,297.8094 194.9032,298.2997 189.5617,298.938 184.2202,299.5887 178.8787,300.1806 173.5372,300.6942 168.1957,301.1291 162.8542,301.4844 157.5127,301.7582 152.1713,301.9297 146.8298,301.9939 141.4883,301.9968 136.1468,301.9359 130.8053,301.7997 125.4638,301.5157 120.1223,301.1241 114.7808,300.6203 109.4393,299.9999 104.0979,299.2585 98.7564,298.3919 93.4149,297.3961 88.0734,297.2838 82.7319,297.6396 77.3904,298.2859 72.0489,299.121 66.7074,300.0711 61.366,301.0765 56.0245,301.9261 50.683,302.587 45.3415,303.2343 40,303.8689"></polyline>
<text class = "party cup" x="631.1111" y="291"><tspan class="party_name">CUP</tspan><tspan class="party_result"> (6.1±1.7%)</tspan></text>
<polyline id="media-erc"  class="erc media" points=" 40,124.1014 45.3415,124.4768 50.683,124.8725 56.0245,125.2896 61.366,125.7232 66.7074,126.155 72.0489,126.5539 77.3904,126.8794 82.7319,127.0803 88.0734,127.0823 93.4149,126.7435 98.7564,125.6969 104.0979,124.6509 109.4393,123.6136 114.7808,122.5919 120.1223,121.5915 125.4638,120.6167 130.8053,119.671 136.1468,118.7565 141.4883,117.8744 146.8298,117.0252 152.1713,116.2083 157.5127,115.4226 162.8542,114.6663 168.1957,113.9367 173.5372,113.2309 178.8787,112.545 184.2202,111.8748 189.5617,111.2323 194.9032,110.6697 200.2446,110.2874 205.5861,110.2563 210.9276,110.9353 216.2691,111.5667 221.6106,112.1599 226.9521,112.7239 232.2936,113.2671 237.6351,113.7976 242.9766,114.3229 248.318,114.8502 253.6595,115.3866 259.001,115.9389 264.3425,116.514 269.684,117.0869 275.0255,117.5576 280.367,117.7319 285.7085,117.2118 291.0499,116.842 296.3914,116.6206 301.7329,116.5303 307.0744,116.5065 312.4159,116.4193 317.7574,116.0349 323.0989,114.7917 328.4404,113.5552 333.7819,112.329 339.1233,111.1158 344.4648,109.9167 349.8063,108.7321 355.1478,107.5612 360.4893,106.4023 365.8308,105.2527 371.1723,104.1085 376.5138,102.9647 381.8552,101.8148 387.1967,100.671 392.5382,99.5953 397.8797,98.7125 403.2212,98.2205 408.5627,98.4304 413.9042,99.9165 419.2457,101.2185 424.5872,102.3601 429.9286,103.3618 435.2701,104.2415 440.6116,105.0147 445.9531,105.6947 451.2946,106.2936 456.6361,106.8332 461.9776,107.3651 467.3191,108.0133 472.6606,108.1649 478.002,107.468 483.3435,106.855 488.685,106.3086 494.0265,105.7621 499.368,105.054 504.7095,103.8167 510.051,102.5803 515.3925,101.4434 520.7339,100.5962 526.0754,100.3408 531.4169,101.2031 536.7584,101.9043 542.0999,102.5847 547.4414,103.5712 552.7829,104.6355 558.1244,105.7861 563.4659,107.0311 568.8073,108.3778 574.1488,109.832 579.4903,111.398 584.8318,113.0772 590.1733,114.8682 595.5148,116.7655 600.8563,118.706 606.1978,120.497 611.5392,121.7751 616.8807,121.8372 622.2222,121.7855"></polyline>
<polyline id="error-erc" class="erc error" points=" 40,79.8601 45.3415,81.0232 50.683,82.2264 56.0245,83.4723 61.366,85.2113 66.7074,87.364 72.0489,89.3977 77.3904,91.1684 82.7319,92.4952 88.0734,93.1246 93.4149,92.6063 98.7564,89.8642 104.0979,87.3551 109.4393,85.0757 114.7808,83.0224 120.1223,81.1904 125.4638,79.5742 130.8053,78.1674 136.1468,77.0776 141.4883,76.1232 146.8298,75.2772 152.1713,74.5356 157.5127,74.0172 162.8542,73.7092 168.1957,73.5573 173.5372,73.5547 178.8787,73.695 184.2202,73.9725 189.5617,74.3713 194.9032,74.8454 200.2446,75.3079 205.5861,75.6217 210.9276,75.5695 216.2691,75.7055 221.6106,76.0189 226.9521,76.5016 232.2936,77.1476 237.6351,77.9524 242.9766,78.9138 248.318,80.0307 253.6595,81.3039 259.001,82.7361 264.3425,84.3318 269.684,86.0171 275.0255,87.5251 280.367,88.346 285.7085,87.4873 291.0499,87.103 296.3914,87.1686 301.7329,87.6173 307.0744,88.2519 312.4159,88.7033 317.7574,88.3437 323.0989,85.7869 328.4404,83.4846 333.7819,81.4162 339.1233,79.5641 344.4648,77.9132 349.8063,76.4491 355.1478,75.1587 360.4893,74.0292 365.8308,73.048 371.1723,72.2027 376.5138,71.481 381.8552,70.8701 387.1967,70.3678 392.5382,69.9988 397.8797,69.8205 403.2212,69.9301 408.5627,70.494 413.9042,71.8522 419.2457,73.2209 424.5872,74.6041 429.9286,76.006 435.2701,77.431 440.6116,78.8833 445.9531,80.367 451.2946,81.8572 456.6361,83.2672 461.9776,84.4562 467.3191,85.2251 472.6606,85.4429 478.002,84.5317 483.3435,83.9602 488.685,83.6738 494.0265,83.4971 499.368,83.0606 504.7095,81.6236 510.051,80.4523 515.3925,79.5868 520.7339,79.1236 526.0754,79.211 531.4169,80.0987 536.7584,80.8423 542.0999,81.2458 547.4414,80.9293 552.7829,80.8265 558.1244,80.9458 563.4659,81.2991 568.8073,81.9006 574.1488,82.7656 579.4903,83.91 584.8318,85.3487 590.1733,87.095 595.5148,89.159 600.8563,91.4601 606.1978,93.692 611.5392,95.2126 616.8807,94.7035 622.2222,93.9216 622.2222,149.6494 616.8807,148.9709 611.5392,148.3375 606.1978,147.302 600.8563,145.9519 595.5148,144.3719 590.1733,142.6415 584.8318,140.8058 579.4903,138.886 574.1488,136.8984 568.8073,134.855 563.4659,132.7631 558.1244,130.6264 552.7829,128.4445 547.4414,126.2131 542.0999,123.9235 536.7584,122.9662 531.4169,122.3076 526.0754,121.4707 520.7339,122.0688 515.3925,123.2999 510.051,124.7084 504.7095,126.0098 499.368,127.0475 494.0265,128.027 488.685,128.9433 483.3435,129.7498 478.002,130.4044 472.6606,130.8868 467.3191,130.8016 461.9776,130.2741 456.6361,130.3993 451.2946,130.73 445.9531,131.0223 440.6116,131.1461 435.2701,131.052 429.9286,130.7175 424.5872,130.1161 419.2457,129.2161 413.9042,127.9808 408.5627,126.3669 403.2212,126.511 397.8797,127.6046 392.5382,129.1918 387.1967,130.9742 381.8552,132.7596 376.5138,134.4483 371.1723,136.0142 365.8308,137.4574 360.4893,138.7754 355.1478,139.9636 349.8063,141.015 344.4648,141.9202 339.1233,142.6674 333.7819,143.2419 328.4404,143.6257 323.0989,143.7964 317.7574,143.726 312.4159,144.1353 307.0744,144.7611 301.7329,145.4434 296.3914,146.0726 291.0499,146.5809 285.7085,146.9364 280.367,147.1178 275.0255,147.5901 269.684,148.1567 264.3425,148.6961 259.001,149.1417 253.6595,149.4692 248.318,149.6697 242.9766,149.732 237.6351,149.6428 232.2936,149.3867 226.9521,148.9461 221.6106,148.3008 216.2691,147.4279 210.9276,146.3012 205.5861,144.891 200.2446,145.2668 194.9032,146.4939 189.5617,148.0933 184.2202,149.7772 178.8787,151.395 173.5372,152.907 168.1957,154.3161 162.8542,155.6234 157.5127,156.8281 152.1713,157.8811 146.8298,158.7732 141.4883,159.6257 136.1468,160.4354 130.8053,161.1746 125.4638,161.6593 120.1223,161.9926 114.7808,162.1614 109.4393,162.1515 104.0979,161.9468 98.7564,161.5296 93.4149,160.8807 88.0734,161.04 82.7319,161.6655 77.3904,162.5904 72.0489,163.7101 66.7074,164.946 61.366,166.2352 56.0245,167.1069 50.683,167.5186 45.3415,167.9303 40,168.3427"></polyline>
<text class = "party erc" x="631.1111" y="122"><tspan class="party_name">ERC</tspan><tspan class="party_result"> (25.4±3.3%)</tspan></text>
<polyline id="media-jxcat"  class="jxcat media" points=" 40,223.0335 45.3415,222.8198 50.683,222.5946 56.0245,222.3573 61.366,222.1109 66.7074,221.8654 72.0489,221.6378 77.3904,221.4502 82.7319,221.3298 88.0734,221.3162 93.4149,221.4843 98.7564,222.0282 104.0979,222.5657 109.4393,223.0917 114.7808,223.6019 120.1223,224.0927 125.4638,224.561 130.8053,225.0044 136.1468,225.4211 141.4883,225.8096 146.8298,226.1689 152.1713,226.4985 157.5127,226.798 162.8542,227.0673 168.1957,227.3064 173.5372,227.5157 178.8787,227.6953 184.2202,227.8458 189.5617,227.9684 194.9032,228.0671 200.2446,228.1515 205.5861,228.2397 210.9276,228.3681 216.2691,228.4833 221.6106,228.5808 226.9521,228.6567 232.2936,228.7073 237.6351,228.7291 242.9766,228.7188 248.318,228.6729 253.6595,228.5881 259.001,228.4605 264.3425,228.2861 269.684,228.0851 275.0255,227.9399 280.367,228.0191 285.7085,228.6813 291.0499,229.2468 296.3914,229.7129 301.7329,230.0826 307.0744,230.3794 312.4159,230.6611 317.7574,231.044 323.0989,231.8138 328.4404,232.6107 333.7819,233.4276 339.1233,234.2589 344.4648,235.1002 349.8063,235.9485 355.1478,236.8017 360.4893,237.6586 365.8308,238.5192 371.1723,239.3845 376.5138,240.2565 381.8552,241.1382 387.1967,242.0194 392.5382,242.853 397.8797,243.5466 403.2212,243.9553 408.5627,243.8527 413.9042,242.8233 419.2457,241.9347 424.5872,241.168 429.9286,240.5062 435.2701,239.9342 440.6116,239.4383 445.9531,239.0058 451.2946,238.638 456.6361,238.3682 461.9776,238.2681 467.3191,238.4846 472.6606,238.8358 478.002,239.4768 483.3435,240.1379 488.685,240.8007 494.0265,241.3846 499.368,241.7303 504.7095,241.5335 510.051,241.4572 515.3925,241.4616 520.7339,241.4806 526.0754,241.4078 531.4169,241.048 536.7584,240.6965 542.0999,240.1719 547.4414,239.0145 552.7829,237.7418 558.1244,236.3441 563.4659,234.8124 568.8073,233.1384 574.1488,231.3154 579.4903,229.339 584.8318,227.208 590.1733,224.9256 595.5148,222.5003 600.8563,220.0087 606.1978,217.676 611.5392,215.9257 616.8807,215.5778 622.2222,215.4734"></polyline>
<polyline id="error-jxcat" class="jxcat error" points=" 40,187.8938 45.3415,188.3561 50.683,188.8222 56.0245,189.2928 61.366,190.1114 66.7074,191.2404 72.0489,192.3177 77.3904,193.2837 82.7319,194.0631 88.0734,194.5546 93.4149,194.5903 98.7564,193.8072 104.0979,193.2051 109.4393,192.7699 114.7808,192.4884 120.1223,192.3481 125.4638,192.3379 130.8053,192.4472 136.1468,192.752 141.4883,193.1132 146.8298,193.5087 152.1713,193.9344 157.5127,194.4792 162.8542,195.1342 168.1957,195.8602 173.5372,196.6541 178.8787,197.5139 184.2202,198.4385 189.5617,199.4065 194.9032,200.3429 200.2446,201.1078 205.5861,201.4736 210.9276,201.0165 216.2691,200.7331 221.6106,200.6031 226.9521,200.6086 232.2936,200.7345 237.6351,200.9672 242.9766,201.295 248.318,201.7079 253.6595,202.1969 259.001,202.7547 264.3425,203.3749 269.684,204.0399 275.0255,204.7043 280.367,205.2955 285.7085,205.7205 291.0499,206.2999 296.3914,207.0122 301.7329,207.8211 307.0744,208.6469 312.4159,209.363 317.7574,209.7834 323.0989,209.5645 328.4404,209.5696 333.7819,209.7722 339.1233,210.1507 344.4648,210.687 349.8063,211.3663 355.1478,212.1761 360.4893,213.1061 365.8308,214.1482 371.1723,215.2961 376.5138,216.5455 381.8552,217.8943 387.1967,219.3198 392.5382,220.7431 397.8797,222.0146 403.2212,222.9054 408.5627,223.0676 413.9042,221.8855 419.2457,221.0006 424.5872,220.3786 429.9286,219.9897 435.2701,219.8074 440.6116,219.8087 445.9531,219.9731 451.2946,220.2728 456.6361,220.6582 461.9776,221.0545 467.3191,221.3637 472.6606,221.775 478.002,222.2781 483.3435,222.9974 488.685,223.8849 494.0265,224.7743 499.368,225.3441 504.7095,225.0008 510.051,224.9834 515.3925,225.2049 520.7339,225.5241 526.0754,225.7116 531.4169,225.3533 536.7584,225.0178 542.0999,224.2612 547.4414,222.0654 552.7829,219.8477 558.1244,217.5992 563.4659,215.3142 568.8073,212.9907 574.1488,210.6302 579.4903,208.2384 584.8318,205.8263 590.1733,203.4105 595.5148,201.0141 600.8563,198.7048 606.1978,196.6285 611.5392,195.0028 616.8807,194.1855 622.2222,193.4924 622.2222,237.4544 616.8807,236.9701 611.5392,236.8486 606.1978,238.7234 600.8563,241.3126 595.5148,243.9866 590.1733,246.4408 584.8318,248.5898 579.4903,250.4396 574.1488,252.0007 568.8073,253.2861 563.4659,254.3106 558.1244,255.089 552.7829,255.6358 547.4414,255.9637 542.0999,256.0825 536.7584,256.3753 531.4169,256.7428 526.0754,257.1039 520.7339,257.4371 515.3925,257.7182 510.051,257.931 504.7095,258.0661 499.368,258.1165 494.0265,257.995 488.685,257.7166 483.3435,257.2784 478.002,256.6756 472.6606,255.8966 467.3191,255.6055 461.9776,255.4818 456.6361,256.0783 451.2946,257.0032 445.9531,258.0384 440.6116,259.0679 435.2701,260.061 429.9286,261.0227 424.5872,261.9573 419.2457,262.8689 413.9042,263.7611 408.5627,264.6377 403.2212,265.0052 397.8797,265.0786 392.5382,264.9629 387.1967,264.7189 381.8552,264.3821 376.5138,263.9674 371.1723,263.473 365.8308,262.8903 360.4893,262.2111 355.1478,261.4273 349.8063,260.5308 344.4648,259.5135 339.1233,258.3671 333.7819,257.083 328.4404,255.6518 323.0989,254.0631 317.7574,252.3047 312.4159,251.9593 307.0744,252.1118 301.7329,252.3442 296.3914,252.4136 291.0499,252.1936 285.7085,251.6421 280.367,250.7426 275.0255,251.1755 269.684,252.1303 264.3425,253.1973 259.001,254.1663 253.6595,254.9792 248.318,255.638 242.9766,256.1425 237.6351,256.491 232.2936,256.6801 226.9521,256.7047 221.6106,256.5585 216.2691,256.2334 210.9276,255.7197 205.5861,255.0058 200.2446,255.1952 194.9032,255.7912 189.5617,256.5302 184.2202,257.2532 178.8787,257.8768 173.5372,258.3772 168.1957,258.7527 162.8542,259.0004 157.5127,259.1168 152.1713,259.0627 146.8298,258.8292 141.4883,258.5059 136.1468,258.0902 130.8053,257.5617 125.4638,256.7841 120.1223,255.8372 114.7808,254.7155 109.4393,253.4135 104.0979,251.9262 98.7564,250.2493 93.4149,248.3784 88.0734,248.0777 82.7319,248.5964 77.3904,249.6167 72.0489,250.9579 66.7074,252.4904 61.366,254.1104 56.0245,255.4219 50.683,256.367 45.3415,257.2836 40,258.1732"></polyline>
<text class = "party jxcat" x="631.1111" y="220"><tspan class="party_name">JxCAT</tspan><tspan class="party_result"> (14.1±2.6%)</tspan></text>
<polyline id="media-cec"  class="cec media" points=" 40,236.9321 45.3415,236.7563 50.683,236.5724 56.0245,236.3798 61.366,236.1808 66.7074,235.9834 72.0489,235.8012 77.3904,235.6515 82.7319,235.5562 88.0734,235.5468 93.4149,235.6835 98.7564,236.1219 104.0979,236.5574 109.4393,236.9865 114.7808,237.4063 120.1223,237.8144 125.4638,238.2091 130.8053,238.5891 136.1468,238.9536 141.4883,239.3022 146.8298,239.6351 152.1713,239.9527 157.5127,240.2556 162.8542,240.545 168.1957,240.8223 173.5372,241.089 178.8787,241.3472 184.2202,241.599 189.5617,241.8398 194.9032,242.0472 200.2446,242.1772 205.5861,242.1531 210.9276,241.812 216.2691,241.4848 221.6106,241.1679 226.9521,240.8576 232.2936,240.5506 237.6351,240.2436 242.9766,239.9336 248.318,239.6176 253.6595,239.2926 259.001,238.9557 264.3425,238.6037 269.684,238.2537 275.0255,237.9702 280.367,237.8782 285.7085,238.2354 291.0499,238.509 296.3914,238.7033 301.7329,238.8269 307.0744,238.9028 312.4159,238.9747 317.7574,239.1186 323.0989,239.5089 328.4404,239.8842 333.7819,240.24 339.1233,240.5729 344.4648,240.8797 349.8063,241.1583 355.1478,241.4064 360.4893,241.6222 365.8308,241.8041 371.1723,241.9503 376.5138,242.0591 381.8552,242.1286 387.1967,242.162 392.5382,242.1773 397.8797,242.2137 403.2212,242.3368 408.5627,242.6537 413.9042,243.3639 419.2457,244.0206 424.5872,244.6255 429.9286,245.1809 435.2701,245.6892 440.6116,246.1535 445.9531,246.5774 451.2946,246.9483 456.6361,247.2153 461.9776,247.2761 467.3191,246.9228 472.6606,246.8135 478.002,247.0767 483.3435,247.3074 488.685,247.5086 494.0265,247.7232 499.368,248.0629 504.7095,248.78 510.051,249.4639 515.3925,250.1099 520.7339,250.7247 526.0754,251.3273 531.4169,251.956 536.7584,252.4994 542.0999,252.8628 547.4414,252.8613 552.7829,252.9482 558.1244,253.1194 563.4659,253.3734 568.8073,253.7099 574.1488,254.1293 579.4903,254.6321 584.8318,255.2182 590.1733,255.8868 595.5148,256.6355 600.8563,257.4299 606.1978,258.1579 611.5392,258.6041 616.8807,258.3478 622.2222,258.1116"></polyline>
<polyline id="error-cec" class="cec error" points=" 40,209.2231 45.3415,209.7063 50.683,210.1958 56.0245,210.6923 61.366,211.3965 66.7074,212.2813 72.0489,213.1253 77.3904,213.8819 82.7319,214.493 88.0734,214.8801 93.4149,214.9135 98.7564,214.312 104.0979,213.8538 109.4393,213.5289 114.7808,213.3276 120.1223,213.2411 125.4638,213.2613 130.8053,213.3808 136.1468,213.643 141.4883,213.9653 146.8298,214.334 152.1713,214.7461 157.5127,215.2538 162.8542,215.852 168.1957,216.5178 173.5372,217.2504 178.8787,218.0497 184.2202,218.9166 189.5617,219.8282 194.9032,220.6987 200.2446,221.3648 205.5861,221.5542 210.9276,220.7352 216.2691,220.077 221.6106,219.5639 226.9521,219.1818 232.2936,218.9184 237.6351,218.7627 242.9766,218.7053 248.318,218.7377 253.6595,218.8529 259.001,219.0447 264.3425,219.3082 269.684,219.6306 275.0255,219.9761 280.367,220.2804 285.7085,220.4464 291.0499,220.7255 296.3914,221.1075 301.7329,221.5704 307.0744,222.0566 312.4159,222.4645 317.7574,222.6328 323.0989,222.2395 328.4404,221.9833 333.7819,221.8452 339.1233,221.8091 344.4648,221.8619 349.8063,221.9918 355.1478,222.1889 360.4893,222.4442 365.8308,222.7497 371.1723,223.0981 376.5138,223.4828 381.8552,223.8976 387.1967,224.3367 392.5382,224.7951 397.8797,225.271 403.2212,225.7697 408.5627,226.3119 413.9042,226.9576 419.2457,227.6677 424.5872,228.4317 429.9286,229.2414 435.2701,230.0905 440.6116,230.9749 445.9531,231.8922 451.2946,232.8065 456.6361,233.5995 461.9776,234.051 467.3191,233.7534 472.6606,233.6791 478.002,233.8281 483.3435,234.0958 488.685,234.4628 494.0265,234.9088 499.368,235.426 504.7095,236.0563 510.051,236.8096 515.3925,237.6447 520.7339,238.5111 526.0754,239.3359 531.4169,239.9932 536.7584,240.5737 542.0999,240.7816 547.4414,240.0072 552.7829,239.4003 558.1244,238.9578 563.4659,238.6813 568.8073,238.5754 574.1488,238.6467 579.4903,238.9032 584.8318,239.3534 590.1733,240.0052 595.5148,240.8656 600.8563,241.8883 606.1978,242.8909 611.5392,243.4867 616.8807,242.8796 622.2222,242.1988 622.2222,274.0244 616.8807,273.816 611.5392,273.7214 606.1978,273.425 600.8563,272.9714 595.5148,272.4054 590.1733,271.7684 584.8318,271.083 579.4903,270.3609 574.1488,269.6119 568.8073,268.8445 563.4659,268.0655 558.1244,267.281 552.7829,266.4961 547.4414,265.7155 542.0999,264.9441 536.7584,264.425 531.4169,263.9188 526.0754,263.3188 520.7339,262.9382 515.3925,262.5751 510.051,262.1183 504.7095,261.5037 499.368,260.6998 494.0265,260.5376 488.685,260.5543 483.3435,260.5191 478.002,260.3254 472.6606,259.9479 467.3191,260.0921 461.9776,260.5011 456.6361,260.831 451.2946,261.0902 445.9531,261.2625 440.6116,261.3321 435.2701,261.2879 429.9286,261.1204 424.5872,260.8193 419.2457,260.3734 413.9042,259.7702 408.5627,258.9956 403.2212,258.9039 397.8797,259.1563 392.5382,259.5594 387.1967,259.9872 381.8552,260.3597 376.5138,260.6355 371.1723,260.8025 365.8308,260.8585 360.4893,260.8003 355.1478,260.6239 349.8063,260.3248 344.4648,259.8976 339.1233,259.3366 333.7819,258.6349 328.4404,257.7851 323.0989,256.7784 317.7574,255.6044 312.4159,255.4849 307.0744,255.7491 301.7329,256.0834 296.3914,256.2991 291.0499,256.2925 285.7085,256.0244 280.367,255.476 275.0255,255.9643 269.684,256.8768 264.3425,257.8993 259.001,258.8667 253.6595,259.7323 248.318,260.4974 242.9766,261.1618 237.6351,261.7244 232.2936,262.1827 226.9521,262.5334 221.6106,262.7719 216.2691,262.8927 210.9276,262.8888 205.5861,262.7521 200.2446,262.9897 194.9032,263.3958 189.5617,263.8515 184.2202,264.2815 178.8787,264.6447 173.5372,264.9276 168.1957,265.1267 162.8542,265.2381 157.5127,265.2574 152.1713,265.1592 146.8298,264.9363 141.4883,264.6391 136.1468,264.2642 130.8053,263.7974 125.4638,263.1569 120.1223,262.3877 114.7808,261.485 109.4393,260.4442 104.0979,259.261 98.7564,257.9319 93.4149,256.4535 88.0734,256.2136 82.7319,256.6194 77.3904,257.4211 72.0489,258.477 66.7074,259.6855 61.366,260.9651 56.0245,262.0673 50.683,262.949 45.3415,263.8064 40,264.641"></polyline>
<text class = "party cec" x="631.1111" y="249"><tspan class="party_name">CeC</tspan><tspan class="party_result"> (9.0±1.9%)</tspan></text>
<polyline id="media-psc"  class="psc media" points=" 40,221.3468 45.3415,221.2341 50.683,221.1128 56.0245,220.9819 61.366,220.8432 66.7074,220.7036 72.0489,220.5754 77.3904,220.4756 82.7319,220.426 88.0734,220.4594 93.4149,220.6388 98.7564,221.1269 104.0979,221.6291 109.4393,222.1428 114.7808,222.6661 120.1223,223.1976 125.4638,223.7364 130.8053,224.2821 136.1468,224.8347 141.4883,225.3949 146.8298,225.9638 152.1713,226.5429 157.5127,227.1346 162.8542,227.7416 168.1957,228.3671 173.5372,229.0152 178.8787,229.6908 184.2202,230.3993 189.5617,231.1201 194.9032,231.7649 200.2446,232.161 205.5861,232.0101 210.9276,230.6871 216.2691,229.454 221.6106,228.3037 226.9521,227.2288 232.2936,226.2219 237.6351,225.2753 242.9766,224.3817 248.318,223.5336 253.6595,222.7236 259.001,221.9441 264.3425,221.1874 269.684,220.4775 275.0255,219.9118 280.367,219.6783 285.7085,220.1667 291.0499,220.5465 296.3914,220.8298 301.7329,221.0303 307.0744,221.1737 312.4159,221.3052 317.7574,221.5029 323.0989,221.9476 328.4404,222.3994 333.7819,222.8574 339.1233,223.3216 344.4648,223.7928 349.8063,224.2728 355.1478,224.7638 360.4893,225.2687 365.8308,225.791 371.1723,226.3349 376.5138,226.9056 381.8552,227.5088 387.1967,228.1359 392.5382,228.7365 397.8797,229.2063 403.2212,229.3767 408.5627,228.9784 413.9042,227.5121 419.2457,226.195 424.5872,225.0129 429.9286,223.9526 435.2701,223.0024 440.6116,222.1516 445.9531,221.3903 451.2946,220.7227 456.6361,220.1807 461.9776,219.8232 467.3191,219.7616 472.6606,219.5499 478.002,219.0978 483.3435,218.615 488.685,218.1297 494.0265,217.7315 499.368,217.5942 504.7095,218.0598 510.051,218.4597 515.3925,218.7685 520.7339,218.9104 526.0754,218.7518 531.4169,218.0503 536.7584,217.462 542.0999,217.005 547.4414,216.7049 552.7829,216.3195 558.1244,215.8494 563.4659,215.2939 568.8073,214.6517 574.1488,213.922 579.4903,213.105 584.8318,212.2027 590.1733,211.2196 595.5148,210.1635 600.8563,209.0502 606.1978,207.8924 611.5392,206.7086 616.8807,205.5381 622.2222,204.8374"></polyline>
<polyline id="error-psc" class="psc error" points=" 40,187.2075 45.3415,187.7779 50.683,188.3548 56.0245,188.9388 61.366,189.8488 66.7074,191.0461 72.0489,192.1868 77.3904,193.2083 82.7319,194.0333 88.0734,194.5579 93.4149,194.6095 98.7564,193.8102 104.0979,193.2073 109.4393,192.7894 114.7808,192.5465 120.1223,192.4688 125.4638,192.5475 130.8053,192.7745 136.1468,193.2224 141.4883,193.7631 146.8298,194.3777 152.1713,195.0644 157.5127,195.9087 162.8542,196.9048 168.1957,198.0192 173.5372,199.2528 178.8787,200.6079 184.2202,202.0887 189.5617,203.6513 194.9032,205.127 200.2446,206.1918 205.5861,206.2987 210.9276,204.3515 216.2691,202.6777 221.6106,201.2554 226.9521,200.0648 232.2936,199.0873 237.6351,198.3061 242.9766,197.7058 248.318,197.2723 253.6595,196.9933 259.001,196.8573 264.3425,196.8544 269.684,196.972 275.0255,197.1828 280.367,197.4392 285.7085,197.6891 291.0499,198.0756 296.3914,198.5929 301.7329,199.217 307.0744,199.8727 312.4159,200.4241 317.7574,200.6521 323.0989,200.1167 328.4404,199.7799 333.7819,199.6218 339.1233,199.6273 344.4648,199.7842 349.8063,200.0829 355.1478,200.516 360.4893,201.0775 365.8308,201.7634 371.1723,202.571 376.5138,203.4995 381.8552,204.5498 387.1967,205.7013 392.5382,206.8721 397.8797,207.9018 403.2212,208.5383 408.5627,208.3917 413.9042,206.7631 419.2457,205.4383 424.5872,204.3882 429.9286,203.587 435.2701,203.0123 440.6116,202.6443 445.9531,202.4657 451.2946,202.4521 456.6361,202.5529 461.9776,202.6811 467.3191,202.7034 472.6606,202.5352 478.002,201.9145 483.3435,201.4565 488.685,201.1623 494.0265,201.0411 499.368,201.1141 504.7095,201.4511 510.051,201.9223 515.3925,202.4559 520.7339,202.9006 526.0754,203.0002 531.4169,202.2932 536.7584,201.7166 542.0999,201.0316 547.4414,199.7212 552.7829,198.4229 558.1244,197.1374 563.4659,195.8673 568.8073,194.6172 574.1488,193.394 579.4903,192.2075 584.8318,191.0709 590.1733,190.001 595.5148,189.0192 600.8563,188.1297 606.1978,187.2603 611.5392,186.2165 616.8807,184.5637 622.2222,183.2694 622.2222,226.4054 616.8807,226.5125 611.5392,227.2007 606.1978,228.5245 600.8563,229.9706 595.5148,231.3077 590.1733,232.4382 584.8318,233.3346 579.4903,234.0025 574.1488,234.4499 568.8073,234.6861 563.4659,234.7204 558.1244,234.5615 552.7829,234.2162 547.4414,233.6886 542.0999,232.9785 536.7584,233.2075 531.4169,233.8075 526.0754,234.5033 520.7339,234.9203 515.3925,235.0811 510.051,234.997 504.7095,234.6685 499.368,234.0743 494.0265,234.4219 488.685,235.0972 483.3435,235.7735 478.002,236.2812 472.6606,236.5646 467.3191,236.8197 461.9776,236.9652 456.6361,237.8085 451.2946,238.9933 445.9531,240.3148 440.6116,241.6589 435.2701,242.9925 429.9286,244.3182 424.5872,245.6376 419.2457,246.9517 413.9042,248.261 408.5627,249.5652 403.2212,250.2151 397.8797,250.5108 392.5382,250.6008 387.1967,250.5705 381.8552,250.4678 376.5138,250.3116 371.1723,250.0989 365.8308,249.8186 360.4893,249.4598 355.1478,249.0116 349.8063,248.4627 344.4648,247.8014 339.1233,247.0158 333.7819,246.093 328.4404,245.019 323.0989,243.7784 317.7574,242.3536 312.4159,242.1862 307.0744,242.4747 301.7329,242.8436 296.3914,243.0666 291.0499,243.0174 285.7085,242.6443 280.367,241.9175 275.0255,242.6408 269.684,243.9829 264.3425,245.5203 259.001,247.031 253.6595,248.454 248.318,249.795 242.9766,251.0577 237.6351,252.2446 232.2936,253.3564 226.9521,254.3929 221.6106,255.352 216.2691,256.2303 210.9276,257.0227 205.5861,257.7216 200.2446,258.1302 194.9032,258.4027 189.5617,258.5889 184.2202,258.7099 178.8787,258.7737 173.5372,258.7777 168.1957,258.7149 162.8542,258.5783 157.5127,258.3605 152.1713,258.0214 146.8298,257.5499 141.4883,257.0267 136.1468,256.4471 130.8053,255.7897 125.4638,254.9253 120.1223,253.9264 114.7808,252.7857 109.4393,251.4961 104.0979,250.0509 98.7564,248.4436 93.4149,246.668 88.0734,246.3609 82.7319,246.8187 77.3904,247.7429 72.0489,248.964 66.7074,250.361 61.366,251.8376 56.0245,253.0251 50.683,253.8707 45.3415,254.6904 40,255.4861"></polyline>
<text class = "party psc" x="631.1111" y="200"><tspan class="party_name">PSC</tspan><tspan class="party_result"> (15.4±2.6%)</tspan></text>
<polyline id="media-cs"  class="cs media" points=" 40,185.2835 45.3415,185.383 50.683,185.4863 56.0245,185.5935 61.366,185.7034 66.7074,185.8118 72.0489,185.9123 77.3904,185.9966 82.7319,186.0547 88.0734,186.0725 93.4149,186.0232 98.7564,185.8377 104.0979,185.6589 109.4393,185.4888 114.7808,185.3292 120.1223,185.1813 125.4638,185.0463 130.8053,184.925 136.1468,184.818 141.4883,184.7256 146.8298,184.6482 152.1713,184.5858 157.5127,184.5384 162.8542,184.5059 168.1957,184.4881 173.5372,184.4848 178.8787,184.4958 184.2202,184.5205 189.5617,184.5569 194.9032,184.5976 200.2446,184.6295 205.5861,184.6313 210.9276,184.5613 216.2691,184.5106 221.6106,184.4804 226.9521,184.4712 232.2936,184.4839 237.6351,184.5189 242.9766,184.5767 248.318,184.6578 253.6595,184.7625 259.001,184.8912 264.3425,185.0443 269.684,185.2126 275.0255,185.3644 280.367,185.4414 285.7085,185.3299 291.0499,185.2846 296.3914,185.3068 301.7329,185.3874 307.0744,185.4897 312.4159,185.5421 317.7574,185.4192 323.0989,184.824 328.4404,184.2539 333.7819,183.7109 339.1233,183.1969 344.4648,182.7132 349.8063,182.261 355.1478,181.841 360.4893,181.454 365.8308,181.1003 371.1723,180.7802 376.5138,180.4939 381.8552,180.2414 387.1967,180.0224 392.5382,179.8343 397.8797,179.6703 403.2212,179.5177 408.5627,179.3546 413.9042,179.1412 419.2457,178.9483 424.5872,178.7809 429.9286,178.6435 435.2701,178.5404 440.6116,178.4761 445.9531,178.4555 451.2946,178.459 456.6361,178.401 461.9776,178.0992 467.3191,177.1794 472.6606,176.436 478.002,175.8557 483.3435,175.2744 488.685,174.7134 494.0265,174.2152 499.368,173.843 504.7095,173.6973 510.051,173.5133 515.3925,173.2822 520.7339,172.9577 526.0754,172.4535 531.4169,171.6144 536.7584,170.9202 542.0999,170.4941 547.4414,170.5983 552.7829,170.625 558.1244,170.5782 563.4659,170.4594 568.8073,170.2687 574.1488,170.005 579.4903,169.6668 584.8318,169.2521 590.1733,168.7591 595.5148,168.1864 600.8563,167.5804 606.1978,167.1205 611.5392,167.1552 616.8807,168.3617 622.2222,169.2189"></polyline>
<polyline id="error-cs" class="cs error" points=" 40,152.2408 45.3415,153.0727 50.683,153.9256 56.0245,154.8009 61.366,155.9577 66.7074,157.3494 72.0489,158.6676 77.3904,159.8274 82.7319,160.7231 88.0734,161.2087 93.4149,161.0295 98.7564,159.5917 104.0979,158.3331 109.4393,157.2477 114.7808,156.3296 120.1223,155.5724 125.4638,154.9701 130.8053,154.5162 136.1468,154.2705 141.4883,154.1265 146.8298,154.0674 152.1713,154.0896 157.5127,154.2613 162.8542,154.5746 168.1957,154.9988 173.5372,155.5305 178.8787,156.1673 184.2202,156.9075 189.5617,157.7278 194.9032,158.5467 200.2446,159.2107 205.5861,159.4681 210.9276,158.8451 216.2691,158.4167 221.6106,158.1694 226.9521,158.0915 232.2936,158.1727 237.6351,158.4047 242.9766,158.7802 248.318,159.2935 253.6595,159.9401 259.001,160.7169 264.3425,161.6224 269.684,162.6106 275.0255,163.5271 280.367,164.0815 285.7085,163.7236 291.0499,163.6712 296.3914,163.9086 301.7329,164.3902 307.0744,164.981 312.4159,165.4327 317.7574,165.3297 323.0989,163.766 328.4404,162.4097 333.7819,161.2454 339.1233,160.2607 344.4648,159.4448 349.8063,158.7885 355.1478,158.2834 360.4893,157.922 365.8308,157.6974 371.1723,157.6036 376.5138,157.6351 381.8552,157.7874 387.1967,158.0491 392.5382,158.389 397.8797,158.7491 403.2212,159.0405 408.5627,159.1315 413.9042,158.8029 419.2457,158.6404 424.5872,158.6345 429.9286,158.7779 435.2701,159.0647 440.6116,159.491 445.9531,160.0549 451.2946,160.7086 456.6361,161.2844 461.9776,161.4545 467.3191,160.5985 472.6606,159.8873 478.002,159.144 483.3435,158.5874 488.685,158.2121 494.0265,157.982 499.368,157.8092 504.7095,157.5248 510.051,157.3963 515.3925,157.3709 520.7339,157.3303 526.0754,157.0711 531.4169,156.2281 536.7584,155.5465 542.0999,154.9022 547.4414,154.0364 552.7829,153.1895 558.1244,152.3655 563.4659,151.569 568.8073,150.8053 574.1488,150.0806 579.4903,149.4021 584.8318,148.7785 590.1733,148.2192 595.5148,147.7351 600.8563,147.3619 606.1978,147.2008 611.5392,147.4027 616.8807,148.2062 622.2222,148.5353 622.2222,189.9025 616.8807,188.5172 611.5392,186.9076 606.1978,187.0402 600.8563,187.7988 595.5148,188.6376 590.1733,189.2991 584.8318,189.7257 579.4903,189.9314 574.1488,189.9294 568.8073,189.732 563.4659,189.3497 558.1244,188.7908 552.7829,188.0605 547.4414,187.1602 542.0999,186.0859 536.7584,186.294 531.4169,187.0008 526.0754,187.8358 520.7339,188.5851 515.3925,189.1936 510.051,189.6303 504.7095,189.8698 499.368,189.8767 494.0265,190.4485 488.685,191.2147 483.3435,191.9614 478.002,192.5674 472.6606,192.9846 467.3191,193.7603 461.9776,194.7439 456.6361,195.5176 451.2946,196.2094 445.9531,196.8561 440.6116,197.4612 435.2701,198.0162 429.9286,198.5092 424.5872,198.9273 419.2457,199.2562 413.9042,199.4794 408.5627,199.5778 403.2212,199.9949 397.8797,200.5915 392.5382,201.2796 387.1967,201.9957 381.8552,202.6954 376.5138,203.3526 371.1723,203.9568 365.8308,204.5032 360.4893,204.9861 355.1478,205.3987 349.8063,205.7334 344.4648,205.9816 339.1233,206.1331 333.7819,206.1764 328.4404,206.0981 323.0989,205.882 317.7574,205.5088 312.4159,205.6514 307.0744,205.9983 301.7329,206.3845 296.3914,206.7049 291.0499,206.898 285.7085,206.9362 280.367,206.8012 275.0255,207.2017 269.684,207.8146 264.3425,208.4663 259.001,209.0655 253.6595,209.5848 248.318,210.022 242.9766,210.3731 237.6351,210.633 232.2936,210.795 226.9521,210.851 221.6106,210.7913 216.2691,210.6046 210.9276,210.2775 205.5861,209.7944 200.2446,210.0483 194.9032,210.6486 189.5617,211.386 184.2202,212.1336 178.8787,212.8242 173.5372,213.4392 168.1957,213.9775 162.8542,214.4372 157.5127,214.8156 152.1713,215.082 146.8298,215.2291 141.4883,215.3247 136.1468,215.3655 130.8053,215.3338 125.4638,215.1226 120.1223,214.7902 114.7808,214.3288 109.4393,213.7299 104.0979,212.9846 98.7564,212.0836 93.4149,211.017 88.0734,210.9363 82.7319,211.3864 77.3904,212.1659 72.0489,213.1571 66.7074,214.2743 61.366,215.449 56.0245,216.3862 50.683,217.0471 45.3415,217.6933 40,218.3262"></polyline>
<text class = "party cs" x="631.1111" y="169"><tspan class="party_name">C's</tspan><tspan class="party_result"> (19.7±2.5%)</tspan></text>
<polyline id="media-pp"  class="pp media" points=" 40,253.5659 45.3415,253.5655 50.683,253.5677 56.0245,253.5727 61.366,253.5804 66.7074,253.5896 72.0489,253.5981 77.3904,253.6025 82.7319,253.5981 88.0734,253.5777 93.4149,253.5274 98.7564,253.4113 104.0979,253.2879 109.4393,253.1576 114.7808,253.0208 120.1223,252.8779 125.4638,252.7291 130.8053,252.5746 136.1468,252.4146 141.4883,252.249 146.8298,252.0779 152.1713,251.9009 157.5127,251.7179 162.8542,251.5284 168.1957,251.332 173.5372,251.128 178.8787,250.9156 184.2202,250.694 189.5617,250.4689 194.9032,250.2634 200.2446,250.1209 205.5861,250.1141 210.9276,250.3931 216.2691,250.6399 221.6106,250.8564 226.9521,251.0449 232.2936,251.2076 237.6351,251.3467 242.9766,251.4647 248.318,251.5638 253.6595,251.6467 259.001,251.7163 264.3425,251.7757 269.684,251.8187 275.0255,251.8142 280.367,251.6915 285.7085,251.2864 291.0499,250.8648 296.3914,250.4214 301.7329,249.966 307.0744,249.5444 312.4159,249.2418 317.7574,249.2017 323.0989,249.7664 328.4404,250.2841 333.7819,250.7582 339.1233,251.1911 344.4648,251.5851 349.8063,251.9416 355.1478,252.2622 360.4893,252.5479 365.8308,252.7995 371.1723,253.0177 376.5138,253.203 381.8552,253.3553 387.1967,253.4773 392.5382,253.5788 397.8797,253.6814 403.2212,253.8209 408.5627,254.0572 413.9042,254.5016 419.2457,254.922 424.5872,255.3189 429.9286,255.6932 435.2701,256.0466 440.6116,256.3814 445.9531,256.7007 451.2946,256.9887 456.6361,257.1816 461.9776,257.1494 467.3191,256.6267 472.6606,256.4276 478.002,256.7157 483.3435,256.9948 488.685,257.2579 494.0265,257.4779 499.368,257.6027 504.7095,257.532 510.051,257.4788 515.3925,257.432 520.7339,257.3777 526.0754,257.3027 531.4169,257.1968 536.7584,257.1477 542.0999,257.2331 547.4414,257.6501 552.7829,258.1203 558.1244,258.6469 563.4659,259.2335 568.8073,259.8832 574.1488,260.5984 579.4903,261.3803 584.8318,262.2284 590.1733,263.1398 595.5148,264.1088 600.8563,265.1182 606.1978,266.1413 611.5392,267.1317 616.8807,267.9971 622.2222,268.5104"></polyline>
<polyline id="error-pp" class="pp error" points=" 40,226.2615 45.3415,226.9057 50.683,227.5658 56.0245,228.2433 61.366,229.1478 66.7074,230.2423 72.0489,231.2786 77.3904,232.189 82.7319,232.8889 88.0734,233.2609 93.4149,233.1002 98.7564,231.9279 104.0979,230.8911 109.4393,229.9844 114.7808,229.2021 120.1223,228.5389 125.4638,227.989 130.8053,227.5471 136.1468,227.2607 141.4883,227.0436 146.8298,226.8815 152.1713,226.7713 157.5127,226.7673 162.8542,226.8629 168.1957,227.0325 173.5372,227.2727 178.8787,227.5807 184.2202,227.9545 189.5617,228.3822 194.9032,228.8251 200.2446,229.21 205.5861,229.4192 210.9276,229.2453 216.2691,229.1855 221.6106,229.2296 226.9521,229.3692 232.2936,229.5975 237.6351,229.9091 242.9766,230.2996 248.318,230.7663 253.6595,231.3076 259.001,231.9233 264.3425,232.6146 269.684,233.3446 275.0255,233.9781 280.367,234.2487 285.7085,233.6226 291.0499,233.1786 296.3914,232.8972 301.7329,232.7582 307.0744,232.7278 312.4159,232.7476 317.7574,232.7253 323.0989,232.5119 328.4404,232.4033 333.7819,232.3881 339.1233,232.4565 344.4648,232.6004 349.8063,232.8124 355.1478,233.0858 360.4893,233.4149 365.8308,233.7941 371.1723,234.2186 376.5138,234.6838 381.8552,235.1858 387.1967,235.7178 392.5382,236.2665 397.8797,236.8115 403.2212,237.3278 408.5627,237.787 413.9042,238.1585 419.2457,238.6248 424.5872,239.1743 429.9286,239.7976 435.2701,240.4876 440.6116,241.2393 445.9531,242.0499 451.2946,242.8799 456.6361,243.5975 461.9776,243.9534 467.3191,243.4797 472.6606,243.3122 478.002,243.4874 483.3435,243.8058 488.685,244.2377 494.0265,244.6901 499.368,244.9861 504.7095,244.8032 510.051,244.796 515.3925,244.9171 520.7339,245.095 526.0754,245.2225 531.4169,245.1223 536.7584,245.092 542.0999,245.0111 547.4414,244.6599 552.7829,244.442 558.1244,244.3617 563.4659,244.4255 568.8073,244.6414 574.1488,245.0182 579.4903,245.5643 584.8318,246.2876 590.1733,247.1938 595.5148,248.2862 600.8563,249.5365 606.1978,250.85 611.5392,252.0152 616.8807,252.5769 622.2222,252.678 622.2222,284.3429 616.8807,283.4172 611.5392,282.2482 606.1978,281.4327 600.8563,280.7 595.5148,279.9313 590.1733,279.0859 584.8318,278.1693 579.4903,277.1963 574.1488,276.1786 568.8073,275.1249 563.4659,274.0414 558.1244,272.9321 552.7829,271.7985 547.4414,270.6404 542.0999,269.4551 536.7584,269.2034 531.4169,269.2713 526.0754,269.383 520.7339,269.6605 515.3925,269.9468 510.051,270.1617 504.7095,270.2608 499.368,270.2193 494.0265,270.2658 488.685,270.2781 483.3435,270.1837 478.002,269.944 472.6606,269.5429 467.3191,269.7737 461.9776,270.3454 456.6361,270.7657 451.2946,271.0976 445.9531,271.3515 440.6116,271.5235 435.2701,271.6056 429.9286,271.5888 424.5872,271.4635 419.2457,271.2192 413.9042,270.8447 408.5627,270.3274 403.2212,270.3141 397.8797,270.5512 392.5382,270.8912 387.1967,271.2367 381.8552,271.5249 376.5138,271.7221 371.1723,271.8169 365.8308,271.8049 360.4893,271.6809 355.1478,271.4386 349.8063,271.0709 344.4648,270.5697 339.1233,269.9257 333.7819,269.1283 328.4404,268.1649 323.0989,267.0209 317.7574,265.6782 312.4159,265.7359 307.0744,266.3609 301.7329,267.1738 296.3914,267.9457 291.0499,268.551 285.7085,268.9501 280.367,269.1342 275.0255,269.6504 269.684,270.2928 264.3425,270.9367 259.001,271.5094 253.6595,271.9859 248.318,272.3613 242.9766,272.6297 237.6351,272.7844 232.2936,272.8177 226.9521,272.7206 221.6106,272.4832 216.2691,272.0943 210.9276,271.541 205.5861,270.8091 200.2446,271.0318 194.9032,271.7018 189.5617,272.5556 184.2202,273.4334 178.8787,274.2505 173.5372,274.9833 168.1957,275.6315 162.8542,276.1939 157.5127,276.6685 152.1713,277.0305 146.8298,277.2742 141.4883,277.4545 136.1468,277.5685 130.8053,277.6022 125.4638,277.4692 120.1223,277.2169 114.7808,276.8395 109.4393,276.3308 104.0979,275.6846 98.7564,274.8947 93.4149,273.9547 88.0734,273.8945 82.7319,274.3073 77.3904,275.0159 72.0489,275.9176 66.7074,276.9369 61.366,278.0131 56.0245,278.9022 50.683,279.5696 45.3415,280.2254 40,280.8703"></polyline>
<text class = "party pp" x="631.1111" y="270"><tspan class="party_name">PP</tspan><tspan class="party_result"> (7.8±1.9%)</tspan></text>
<polyline id="media-otros"  class="otros media" points=" 40,309.1159 45.3415,309.1782 50.683,309.2439 56.0245,309.313 61.366,309.3848 66.7074,309.4562 72.0489,309.522 77.3904,309.575 82.7319,309.6064 88.0734,309.603 93.4149,309.5399 98.7564,309.3522 104.0979,309.1628 109.4393,308.9727 114.7808,308.783 120.1223,308.5945 125.4638,308.4076 130.8053,308.2229 136.1468,308.0403 141.4883,307.8599 146.8298,307.6813 152.1713,307.5043 157.5127,307.3282 162.8542,307.1522 168.1957,306.9754 173.5372,306.7967 178.8787,306.6146 184.2202,306.4277 189.5617,306.241 194.9032,306.0765 200.2446,305.9779 205.5861,306.0209 210.9276,306.3649 216.2691,306.691 221.6106,307.0014 226.9521,307.299 232.2936,307.5863 237.6351,307.8662 242.9766,308.1416 248.318,308.4154 253.6595,308.6909 259.001,308.9717 264.3425,309.2617 269.684,309.5436 275.0255,309.747 280.367,309.7291 285.7085,309.1837 291.0499,308.6946 296.3914,308.2558 301.7329,307.8672 307.0744,307.5366 312.4159,307.2766 317.7574,307.1039 323.0989,307.0601 328.4404,306.9913 333.7819,306.9023 339.1233,306.797 344.4648,306.6781 349.8063,306.5479 355.1478,306.408 360.4893,306.2596 365.8308,306.1035 371.1723,305.9399 376.5138,305.7692 381.8552,305.591 387.1967,305.4078 392.5382,305.2289 397.8797,305.0719 403.2212,304.964 408.5627,304.946 413.9042,305.0916 419.2457,305.1981 424.5872,305.268 429.9286,305.303 435.2701,305.3044 440.6116,305.2727 445.9531,305.2077 451.2946,305.1234 456.6361,305.0715 461.9776,305.1552 467.3191,305.5786 472.6606,305.9759 478.002,306.4171 483.3435,306.8292 488.685,307.2049 494.0265,307.541 499.368,307.8483 504.7095,308.1674 510.051,308.4865 515.3925,308.8121 520.7339,309.1771 526.0754,309.6413 531.4169,310.3108 536.7584,310.8631 542.0999,311.1961 547.4414,311.0927 552.7829,311.0447 558.1244,311.0472 563.4659,311.0972 568.8073,311.1927 574.1488,311.3325 579.4903,311.5158 584.8318,311.7418 590.1733,312.0093 595.5148,312.3167 600.8563,312.6481 606.1978,312.9521 611.5392,313.1302 616.8807,312.9901 622.2222,312.867"></polyline>
<polyline id="error-otros" class="otros error" points=" 40,288.1207 45.3415,288.7375 50.683,289.3661 56.0245,290.0073 61.366,290.8254 66.7074,291.7879 72.0489,292.6935 77.3904,293.4835 82.7319,294.0851 88.0734,294.3977 93.4149,294.2429 98.7564,293.194 104.0979,292.2549 109.4393,291.4237 114.7808,290.6978 120.1223,290.0743 125.4638,289.5497 130.8053,289.1201 136.1468,288.8236 141.4883,288.5918 146.8298,288.4133 152.1713,288.285 157.5127,288.2495 162.8542,288.3007 168.1957,288.4175 173.5372,288.5961 178.8787,288.8332 184.2202,289.1257 189.5617,289.4641 194.9032,289.8209 200.2446,290.1472 205.5861,290.3681 210.9276,290.3616 216.2691,290.4552 221.6106,290.6418 226.9521,290.9157 232.2936,291.2724 237.6351,291.7082 242.9766,292.2207 248.318,292.8081 253.6595,293.47 259.001,294.2071 264.3425,295.0212 269.684,295.8686 275.0255,296.592 280.367,296.8874 285.7085,296.1425 291.0499,295.615 296.3914,295.2883 301.7329,295.1376 307.0744,295.1067 312.4159,295.0928 317.7574,294.9239 323.0989,294.2454 328.4404,293.6581 333.7819,293.1572 339.1233,292.7382 344.4648,292.3966 349.8063,292.1282 355.1478,291.9289 360.4893,291.7944 365.8308,291.7207 371.1723,291.7039 376.5138,291.7401 381.8552,291.8257 387.1967,291.9555 392.5382,292.1203 397.8797,292.3046 403.2212,292.487 408.5627,292.6388 413.9042,292.7209 419.2457,292.8575 424.5872,293.0412 429.9286,293.2659 435.2701,293.5255 440.6116,293.8147 445.9531,294.1283 451.2946,294.4625 456.6361,294.8193 461.9776,295.2166 467.3191,295.7165 472.6606,296.1663 478.002,296.5352 483.3435,296.9939 488.685,297.5163 494.0265,298.0476 499.368,298.5027 504.7095,298.7539 510.051,299.1281 515.3925,299.6041 520.7339,300.1711 526.0754,300.8198 531.4169,301.5334 536.7584,302.1322 542.0999,302.3541 547.4414,301.6414 552.7829,301.0435 558.1244,300.5573 563.4659,300.1829 568.8073,299.9229 574.1488,299.7817 579.4903,299.7649 584.8318,299.8788 590.1733,300.1297 595.5148,300.5235 600.8563,301.035 606.1978,301.5561 611.5392,301.8517 616.8807,301.4296 622.2222,300.9491 622.2222,324.7848 616.8807,324.5505 611.5392,324.4086 606.1978,324.3481 600.8563,324.2611 595.5148,324.1098 590.1733,323.8888 584.8318,323.6048 579.4903,323.2668 574.1488,322.8833 568.8073,322.4625 563.4659,322.0115 558.1244,321.5371 552.7829,321.0459 547.4414,320.5441 542.0999,320.0382 536.7584,319.594 531.4169,319.0883 526.0754,318.4629 520.7339,318.183 515.3925,318.0201 510.051,317.8448 504.7095,317.581 499.368,317.1938 494.0265,317.0344 488.685,316.8935 483.3435,316.6645 478.002,316.2989 472.6606,315.7855 467.3191,315.4406 461.9776,315.0938 456.6361,315.3236 451.2946,315.7844 445.9531,316.2871 440.6116,316.7306 435.2701,317.0833 429.9286,317.3402 424.5872,317.4947 419.2457,317.5387 413.9042,317.4622 408.5627,317.2532 403.2212,317.441 397.8797,317.8392 392.5382,318.3374 387.1967,318.8601 381.8552,319.3564 376.5138,319.7983 371.1723,320.176 365.8308,320.4862 360.4893,320.7249 355.1478,320.8872 349.8063,320.9676 344.4648,320.9596 339.1233,320.8558 333.7819,320.6474 328.4404,320.3245 323.0989,319.8749 317.7574,319.2839 312.4159,319.4605 307.0744,319.9665 301.7329,320.5967 296.3914,321.2234 291.0499,321.7741 285.7085,322.225 280.367,322.5709 275.0255,322.902 269.684,323.2186 264.3425,323.5021 259.001,323.7363 253.6595,323.9118 248.318,324.0227 242.9766,324.0625 237.6351,324.0242 232.2936,323.9002 226.9521,323.6822 221.6106,323.361 216.2691,322.9267 210.9276,322.3683 205.5861,321.6736 200.2446,321.8087 194.9032,322.3322 189.5617,323.0179 184.2202,323.7297 178.8787,324.3961 173.5372,324.9973 168.1957,325.5333 162.8542,326.0037 157.5127,326.4068 152.1713,326.7236 146.8298,326.9494 141.4883,327.1279 136.1468,327.257 130.8053,327.3256 125.4638,327.2656 120.1223,327.1146 114.7808,326.8681 109.4393,326.5216 104.0979,326.0706 98.7564,325.5105 93.4149,324.8369 88.0734,324.8083 82.7319,325.1276 77.3904,325.6665 72.0489,326.3504 66.7074,327.1246 61.366,327.9442 56.0245,328.6187 50.683,329.1216 45.3415,329.619 40,330.1111"></polyline>
<text class = "party otros" x="631.1111" y="313"><tspan class="party_name">Otros</tspan><tspan class="party_result"> (2.5±1.4%)</tspan></text>
<g id="encuesta-1">
<circle id="encuesta-1-cup" class="encuesta gesop cup" cx="622.2222" cy="280.8333" r="2.8284" ></circle>
<circle id="encuesta-1-erc" class="encuesta gesop erc" cx="622.2222" cy="134.1667" r="2.8284" ></circle>
<circle id="encuesta-1-jxcat" class="encuesta gesop jxcat" cx="622.2222" cy="195.8333" r="2.8284" ></circle>
<circle id="encuesta-1-cec" class="encuesta gesop cec" cx="622.2222" cy="261.6667" r="2.8284" ></circle>
<circle id="encuesta-1-psc" class="encuesta gesop psc" cx="622.2222" cy="182.5" r="2.8284" ></circle>
<circle id="encuesta-1-cs" class="encuesta gesop cs" cx="622.2222" cy="178.3333" r="2.8284" ></circle>
<circle id="encuesta-1-pp" class="encuesta gesop pp" cx="622.2222" cy="285.8333" r="2.8284" ></circle>
<circle id="encuesta-1-otros" class="encuesta gesop otros" cx="622.2222" cy="314.1667" r="2.8284" ></circle>
</g>
<g id="encuesta-2">
<circle id="encuesta-2-cup" class="encuesta gad3 cup" cx="611.5392" cy="286.6667" r="2.8302" ></circle>
<circle id="encuesta-2-erc" class="encuesta gad3 erc" cx="611.5392" cy="140.8333" r="2.8302" ></circle>
<circle id="encuesta-2-jxcat" class="encuesta gad3 jxcat" cx="611.5392" cy="194.1667" r="2.8302" ></circle>
<circle id="encuesta-2-cec" class="encuesta gad3 cec" cx="611.5392" cy="270" r="2.8302" ></circle>
<circle id="encuesta-2-psc" class="encuesta gad3 psc" cx="611.5392" cy="207.5" r="2.8302" ></circle>
<circle id="encuesta-2-cs" class="encuesta gad3 cs" cx="611.5392" cy="147.5" r="2.8302" ></circle>
<circle id="encuesta-2-pp" class="encuesta gad3 pp" cx="611.5392" cy="268.3333" r="2.8302" ></circle>
<circle id="encuesta-2-otros" class="encuesta gad3 otros" cx="611.5392" cy="318.3333" r="2.8302" ></circle>
</g>
<g id="encuesta-3">
<circle id="encuesta-3-cup" class="encuesta nc_report cup" cx="542.0999" cy="280.8333" r="3.1623" ></circle>
<circle id="encuesta-3-erc" class="encuesta nc_report erc" cx="542.0999" cy="114.1667" r="3.1623" ></circle>
<circle id="encuesta-3-jxcat" class="encuesta nc_report jxcat" cx="542.0999" cy="244.1667" r="3.1623" ></circle>
<circle id="encuesta-3-cec" class="encuesta nc_report cec" cx="542.0999" cy="246.6667" r="3.1623" ></circle>
<circle id="encuesta-3-psc" class="encuesta nc_report psc" cx="542.0999" cy="220" r="3.1623" ></circle>
<circle id="encuesta-3-cs" class="encuesta nc_report cs" cx="542.0999" cy="170" r="3.1623" ></circle>
<circle id="encuesta-3-pp" class="encuesta nc_report pp" cx="542.0999" cy="245.8333" r="3.1623" ></circle>
<circle id="encuesta-3-otros" class="encuesta nc_report otros" cx="542.0999" cy="311.6667" r="3.1623" ></circle>
</g>
<g id="encuesta-4">
<circle id="encuesta-4-cup" class="encuesta gad3 cup" cx="542.0999" cy="280.8333" r="3.5114" ></circle>
<circle id="encuesta-4-erc" class="encuesta gad3 erc" cx="542.0999" cy="89.1667" r="3.5114" ></circle>
<circle id="encuesta-4-jxcat" class="encuesta gad3 jxcat" cx="542.0999" cy="246.6667" r="3.5114" ></circle>
<circle id="encuesta-4-cec" class="encuesta gad3 cec" cx="542.0999" cy="264.1667" r="3.5114" ></circle>
<circle id="encuesta-4-psc" class="encuesta gad3 psc" cx="542.0999" cy="211.6667" r="3.5114" ></circle>
<circle id="encuesta-4-cs" class="encuesta gad3 cs" cx="542.0999" cy="161.6667" r="3.5114" ></circle>
<circle id="encuesta-4-pp" class="encuesta gad3 pp" cx="542.0999" cy="260.8333" r="3.5114" ></circle>
<circle id="encuesta-4-otros" class="encuesta gad3 otros" cx="542.0999" cy="318.3333" r="3.5114" ></circle>
</g>
<g id="encuesta-5">
<circle id="encuesta-5-cup" class="encuesta sociometrica cup" cx="526.0754" cy="285.8333" r="3.1623" ></circle>
<circle id="encuesta-5-erc" class="encuesta sociometrica erc" cx="526.0754" cy="73.3333" r="3.1623" ></circle>
<circle id="encuesta-5-jxcat" class="encuesta sociometrica jxcat" cx="526.0754" cy="249.1667" r="3.1623" ></circle>
<circle id="encuesta-5-cec" class="encuesta sociometrica cec" cx="526.0754" cy="250" r="3.1623" ></circle>
<circle id="encuesta-5-psc" class="encuesta sociometrica psc" cx="526.0754" cy="231.6667" r="3.1623" ></circle>
<circle id="encuesta-5-cs" class="encuesta sociometrica cs" cx="526.0754" cy="180.8333" r="3.1623" ></circle>
<circle id="encuesta-5-pp" class="encuesta sociometrica pp" cx="526.0754" cy="258.3333" r="3.1623" ></circle>
<circle id="encuesta-5-otros" class="encuesta sociometrica otros" cx="526.0754" cy="304.1667" r="3.1623" ></circle>
</g>
<g id="encuesta-6">
<circle id="encuesta-6-cup" class="encuesta sigmados cup" cx="499.368" cy="280.8333" r="3.1623" ></circle>
<circle id="encuesta-6-erc" class="encuesta sigmados erc" cx="499.368" cy="113.3333" r="3.1623" ></circle>
<circle id="encuesta-6-jxcat" class="encuesta sigmados jxcat" cx="499.368" cy="251.6667" r="3.1623" ></circle>
<circle id="encuesta-6-cec" class="encuesta sigmados cec" cx="499.368" cy="241.6667" r="3.1623" ></circle>
<circle id="encuesta-6-psc" class="encuesta sigmados psc" cx="499.368" cy="207.5" r="3.1623" ></circle>
<circle id="encuesta-6-cs" class="encuesta sigmados cs" cx="499.368" cy="170" r="3.1623" ></circle>
<circle id="encuesta-6-pp" class="encuesta sigmados pp" cx="499.368" cy="260.8333" r="3.1623" ></circle>
<circle id="encuesta-6-otros" class="encuesta sigmados otros" cx="499.368" cy="307.5" r="3.1623" ></circle>
</g>
<g id="encuesta-7">
<circle id="encuesta-7-cup" class="encuesta nc_report cup" cx="472.6606" cy="286.6667" r="3.1623" ></circle>
<circle id="encuesta-7-erc" class="encuesta nc_report erc" cx="472.6606" cy="128.3333" r="3.1623" ></circle>
<circle id="encuesta-7-jxcat" class="encuesta nc_report jxcat" cx="472.6606" cy="232.5" r="3.1623" ></circle>
<circle id="encuesta-7-cec" class="encuesta nc_report cec" cx="472.6606" cy="238.3333" r="3.1623" ></circle>
<circle id="encuesta-7-psc" class="encuesta nc_report psc" cx="472.6606" cy="224.1667" r="3.1623" ></circle>
<circle id="encuesta-7-cs" class="encuesta nc_report cs" cx="472.6606" cy="173.3333" r="3.1623" ></circle>
<circle id="encuesta-7-pp" class="encuesta nc_report pp" cx="472.6606" cy="245.8333" r="3.1623" ></circle>
<circle id="encuesta-7-otros" class="encuesta nc_report otros" cx="472.6606" cy="304.1667" r="3.1623" ></circle>
</g>
<g id="encuesta-8">
<circle id="encuesta-8-cup" class="encuesta gesop cup" cx="461.9776" cy="268.3333" r="2.8284" ></circle>
<circle id="encuesta-8-erc" class="encuesta gesop erc" cx="461.9776" cy="99.1667" r="2.8284" ></circle>
<circle id="encuesta-8-jxcat" class="encuesta gesop jxcat" cx="461.9776" cy="233.3333" r="2.8284" ></circle>
<circle id="encuesta-8-cec" class="encuesta gesop cec" cx="461.9776" cy="258.3333" r="2.8284" ></circle>
<circle id="encuesta-8-psc" class="encuesta gesop psc" cx="461.9776" cy="212.5" r="2.8284" ></circle>
<circle id="encuesta-8-cs" class="encuesta gesop cs" cx="461.9776" cy="193.3333" r="2.8284" ></circle>
<circle id="encuesta-8-pp" class="encuesta gesop pp" cx="461.9776" cy="270.8333" r="2.8284" ></circle>
<circle id="encuesta-8-otros" class="encuesta gesop otros" cx="461.9776" cy="297.5" r="2.8284" ></circle>
</g>
<g id="encuesta-9">
<circle id="encuesta-9-cup" class="encuesta sociometrica cup" cx="408.5627" cy="280.8333" r="2.8284" ></circle>
<circle id="encuesta-9-erc" class="encuesta sociometrica erc" cx="408.5627" cy="68.3333" r="2.8284" ></circle>
<circle id="encuesta-9-jxcat" class="encuesta sociometrica jxcat" cx="408.5627" cy="265.8333" r="2.8284" ></circle>
<circle id="encuesta-9-cec" class="encuesta sociometrica cec" cx="408.5627" cy="233.3333" r="2.8284" ></circle>
<circle id="encuesta-9-psc" class="encuesta sociometrica psc" cx="408.5627" cy="254.1667" r="2.8284" ></circle>
<circle id="encuesta-9-cs" class="encuesta sociometrica cs" cx="408.5627" cy="180.8333" r="2.8284" ></circle>
<circle id="encuesta-9-pp" class="encuesta sociometrica pp" cx="408.5627" cy="249.1667" r="2.8284" ></circle>
<circle id="encuesta-9-otros" class="encuesta sociometrica otros" cx="408.5627" cy="300.8333" r="2.8284" ></circle>
</g>
<g id="encuesta-10">
<circle id="encuesta-10-cup" class="encuesta nc_report cup" cx="317.7574" cy="286.6667" r="3.5426" ></circle>
<circle id="encuesta-10-erc" class="encuesta nc_report erc" cx="317.7574" cy="124.1667" r="3.5426" ></circle>
<circle id="encuesta-10-jxcat" class="encuesta nc_report jxcat" cx="317.7574" cy="227.5" r="3.5426" ></circle>
<circle id="encuesta-10-cec" class="encuesta nc_report cec" cx="317.7574" cy="236.6667" r="3.5426" ></circle>
<circle id="encuesta-10-psc" class="encuesta nc_report psc" cx="317.7574" cy="219.1667" r="3.5426" ></circle>
<circle id="encuesta-10-cs" class="encuesta nc_report cs" cx="317.7574" cy="190" r="3.5426" ></circle>
<circle id="encuesta-10-pp" class="encuesta nc_report pp" cx="317.7574" cy="243.3333" r="3.5426" ></circle>
<circle id="encuesta-10-otros" class="encuesta nc_report otros" cx="317.7574" cy="305.8333" r="3.5426" ></circle>
</g>
<g id="encuesta-11">
<circle id="encuesta-11-cup" class="encuesta celeste-tel cup" cx="280.367" cy="284.1667" r="2.8284" ></circle>
<circle id="encuesta-11-erc" class="encuesta celeste-tel erc" cx="280.367" cy="127.5" r="2.8284" ></circle>
<circle id="encuesta-11-jxcat" class="encuesta celeste-tel jxcat" cx="280.367" cy="220" r="2.8284" ></circle>
<circle id="encuesta-11-cec" class="encuesta celeste-tel cec" cx="280.367" cy="231.6667" r="2.8284" ></circle>
<circle id="encuesta-11-psc" class="encuesta celeste-tel psc" cx="280.367" cy="210" r="2.8284" ></circle>
<circle id="encuesta-11-cs" class="encuesta celeste-tel cs" cx="280.367" cy="188.3333" r="2.8284" ></circle>
<circle id="encuesta-11-pp" class="encuesta celeste-tel pp" cx="280.367" cy="255" r="2.8284" ></circle>
<circle id="encuesta-11-otros" class="encuesta celeste-tel otros" cx="280.367" cy="316.6667" r="2.8284" ></circle>
</g>
<g id="encuesta-12">
<circle id="encuesta-12-cup" class="encuesta sociometrica cup" cx="205.5861" cy="276.6667" r="2.6458" ></circle>
<circle id="encuesta-12-erc" class="encuesta sociometrica erc" cx="205.5861" cy="100" r="2.6458" ></circle>
<circle id="encuesta-12-jxcat" class="encuesta sociometrica jxcat" cx="205.5861" cy="227.5" r="2.6458" ></circle>
<circle id="encuesta-12-cec" class="encuesta sociometrica cec" cx="205.5861" cy="246.6667" r="2.6458" ></circle>
<circle id="encuesta-12-psc" class="encuesta sociometrica psc" cx="205.5861" cy="249.1667" r="2.6458" ></circle>
<circle id="encuesta-12-cs" class="encuesta sociometrica cs" cx="205.5861" cy="185.8333" r="2.6458" ></circle>
<circle id="encuesta-12-pp" class="encuesta sociometrica pp" cx="205.5861" cy="245.8333" r="2.6458" ></circle>
<circle id="encuesta-12-otros" class="encuesta sociometrica otros" cx="205.5861" cy="301.6667" r="2.6458" ></circle>
</g>
<g id="encuesta-13">
<circle id="encuesta-13-cup" class="encuesta nc_report cup" cx="93.4149" cy="279.1667" r="3.5426" ></circle>
<circle id="encuesta-13-erc" class="encuesta nc_report erc" cx="93.4149" cy="134.1667" r="3.5426" ></circle>
<circle id="encuesta-13-jxcat" class="encuesta nc_report jxcat" cx="93.4149" cy="217.5" r="3.5426" ></circle>
<circle id="encuesta-13-cec" class="encuesta nc_report cec" cx="93.4149" cy="232.5" r="3.5426" ></circle>
<circle id="encuesta-13-psc" class="encuesta nc_report psc" cx="93.4149" cy="217.5" r="3.5426" ></circle>
<circle id="encuesta-13-cs" class="encuesta nc_report cs" cx="93.4149" cy="187.5" r="3.5426" ></circle>
<circle id="encuesta-13-pp" class="encuesta nc_report pp" cx="93.4149" cy="254.1667" r="3.5426" ></circle>
<circle id="encuesta-13-otros" class="encuesta nc_report otros" cx="93.4149" cy="310.8333" r="3.5426" ></circle>
</g>
  
<text class="pie izquierda" x="0" y="395">Datos: Electograph | Modelo propio</text>
<text class="pie derecha" x="800" y="395">Jesús Carro | <tspan style="font-weight:bold">1datomas</tspan>.com</text>
</svg>
