<?xml version="1.0" encoding="utf-8"?><!DOCTYPE svg PUBLIC "-//W3C//DTD SVG 1.1//EN" "http://www.w3.org/Graphics/SVG/1.1/DTD/svg11.dtd">
<svg xmlns="http://www.w3.org/2000/svg" xmlns:xlink="http://www.w3.org/1999/xlink" version="1.1" viewBox="0 0 800 400">
<text x="0" y="20" style="font-size:large;font-weight:bold;color:black">Intención de voto en Elecciones Autonómicas en Cataluña</text>
<text x="0" y="40" style="color:gray">Promedio de encuestas y estimación de error</text>

<text class="horizontal axis" x="36" y="333.3333">0%</text>
<line class="horizontal axis" x1="40" y1="333.3333" x2="622.2222" y2="333.3333"></line>
<text class="horizontal axis" x="36" y="274.0741">10%</text>
<line class="horizontal axis" x1="40" y1="274.0741" x2="622.2222" y2="274.0741"></line>
<text class="horizontal axis" x="36" y="214.8148">20%</text>
<line class="horizontal axis" x1="40" y1="214.8148" x2="622.2222" y2="214.8148"></line>
<text class="horizontal axis" x="36" y="155.5556">30%</text>
<line class="horizontal axis" x1="40" y1="155.5556" x2="622.2222" y2="155.5556"></line>
<text class="horizontal axis" x="36" y="96.2963">40%</text>
<line class="horizontal axis" x1="40" y1="96.2963" x2="622.2222" y2="96.2963"></line>
<line class="vertical axis" x1="40" y1="336.6667" x2="40" y2="66.6667"></line>
<text class="vertical axis" x="40" y="343.3333">Ago-2017</text>
<line class="vertical axis" x1="238.3394" y1="336.6667" x2="238.3394" y2="66.6667"></line>
<text class="vertical axis" x="238.3394" y="343.3333">Sep-2017</text>
<line class="vertical axis" x1="430.2808" y1="336.6667" x2="430.2808" y2="66.6667"></line>
<text class="vertical axis" x="430.2808" y="343.3333">Oct-2017</text>
<g id="encuesta-1">
<circle class="encuesta cup" cx="622.2222" cy="299.5556" r="3.1623" ></circle>
<circle class="encuesta cec" cx="622.2222" cy="274.0741" r="3.1623" ></circle>
<circle class="encuesta psc" cx="622.2222" cy="261.037" r="3.1623" ></circle>
<circle class="encuesta cs" cx="622.2222" cy="224.8889" r="3.1623" ></circle>
<circle class="encuesta pp" cx="622.2222" cy="280" r="3.1623" ></circle>
<circle class="encuesta jxsi" cx="622.2222" cy="88.5926" r="3.1623" ></circle>
<circle class="encuesta otros" cx="622.2222" cy="312.5926" r="3.1623" ></circle>
</g>
<g id="encuesta-2">
<circle class="encuesta cup" cx="609.4261" cy="296" r="3.873" ></circle>
<circle class="encuesta cec" cx="609.4261" cy="271.1111" r="3.873" ></circle>
<circle class="encuesta psc" cx="609.4261" cy="250.963" r="3.873" ></circle>
<circle class="encuesta cs" cx="609.4261" cy="225.4815" r="3.873" ></circle>
<circle class="encuesta pp" cx="609.4261" cy="284.1481" r="3.873" ></circle>
<circle class="encuesta jxsi" cx="609.4261" cy="98.0741" r="3.873" ></circle>
<circle class="encuesta otros" cx="609.4261" cy="314.963" r="3.873" ></circle>
</g>
<g id="encuesta-3">
<circle class="encuesta cup" cx="590.232" cy="296" r="3.1623" ></circle>
<circle class="encuesta cec" cx="590.232" cy="268.1481" r="3.1623" ></circle>
<circle class="encuesta psc" cx="590.232" cy="243.8519" r="3.1623" ></circle>
<circle class="encuesta cs" cx="590.232" cy="217.1852" r="3.1623" ></circle>
<circle class="encuesta pp" cx="590.232" cy="281.7778" r="3.1623" ></circle>
<circle class="encuesta jxsi" cx="590.232" cy="118.8148" r="3.1623" ></circle>
<circle class="encuesta otros" cx="590.232" cy="314.963" r="3.1623" ></circle>
</g>
<g id="encuesta-4">
<circle class="encuesta cup" cx="558.2418" cy="300.1481" r="3.1623" ></circle>
<circle class="encuesta cec" cx="558.2418" cy="265.7778" r="3.1623" ></circle>
<circle class="encuesta psc" cx="558.2418" cy="255.7037" r="3.1623" ></circle>
<circle class="encuesta cs" cx="558.2418" cy="219.5556" r="3.1623" ></circle>
<circle class="encuesta pp" cx="558.2418" cy="271.1111" r="3.1623" ></circle>
<circle class="encuesta jxsi" cx="558.2418" cy="115.8519" r="3.1623" ></circle>
<circle class="encuesta otros" cx="558.2418" cy="312.5926" r="3.1623" ></circle>
</g>
<g id="encuesta-5">
<circle class="encuesta cup" cx="545.4457" cy="287.1111" r="2.8284" ></circle>
<circle class="encuesta cec" cx="545.4457" cy="280" r="2.8284" ></circle>
<circle class="encuesta psc" cx="545.4457" cy="247.4074" r="2.8284" ></circle>
<circle class="encuesta cs" cx="545.4457" cy="233.7778" r="2.8284" ></circle>
<circle class="encuesta pp" cx="545.4457" cy="288.8889" r="2.8284" ></circle>
<circle class="encuesta jxsi" cx="545.4457" cy="95.7037" r="2.8284" ></circle>
<circle class="encuesta otros" cx="545.4457" cy="307.8519" r="2.8284" ></circle>
</g>
<g id="encuesta-6">
<circle class="encuesta cup" cx="481.4652" cy="296" r="2.8284" ></circle>
<circle class="encuesta cec" cx="481.4652" cy="262.2222" r="2.8284" ></circle>
<circle class="encuesta psc" cx="481.4652" cy="277.037" r="2.8284" ></circle>
<circle class="encuesta cs" cx="481.4652" cy="224.8889" r="2.8284" ></circle>
<circle class="encuesta pp" cx="481.4652" cy="273.4815" r="2.8284" ></circle>
<circle class="encuesta jxsi" cx="481.4652" cy="96.8889" r="2.8284" ></circle>
<circle class="encuesta otros" cx="481.4652" cy="310.2222" r="2.8284" ></circle>
</g>
<g id="encuesta-7">
<circle class="encuesta cup" cx="372.6984" cy="300.1481" r="3.5426" ></circle>
<circle class="encuesta cec" cx="372.6984" cy="264.5926" r="3.5426" ></circle>
<circle class="encuesta psc" cx="372.6984" cy="252.1481" r="3.5426" ></circle>
<circle class="encuesta cs" cx="372.6984" cy="231.4074" r="3.5426" ></circle>
<circle class="encuesta pp" cx="372.6984" cy="269.3333" r="3.5426" ></circle>
<circle class="encuesta jxsi" cx="372.6984" cy="109.3333" r="3.5426" ></circle>
<circle class="encuesta otros" cx="372.6984" cy="313.7778" r="3.5426" ></circle>
</g>
<g id="encuesta-8">
<circle class="encuesta cup" cx="327.9121" cy="298.3704" r="2.8284" ></circle>
<circle class="encuesta cec" cx="327.9121" cy="261.037" r="2.8284" ></circle>
<circle class="encuesta psc" cx="327.9121" cy="245.6296" r="2.8284" ></circle>
<circle class="encuesta cs" cx="327.9121" cy="230.2222" r="2.8284" ></circle>
<circle class="encuesta pp" cx="327.9121" cy="277.6296" r="2.8284" ></circle>
<circle class="encuesta jxsi" cx="327.9121" cy="106.3704" r="2.8284" ></circle>
<circle class="encuesta otros" cx="327.9121" cy="321.4815" r="2.8284" ></circle>
</g>
<g id="encuesta-9">
<circle class="encuesta cup" cx="238.3394" cy="293.037" r="2.6458" ></circle>
<circle class="encuesta cec" cx="238.3394" cy="271.7037" r="2.6458" ></circle>
<circle class="encuesta psc" cx="238.3394" cy="273.4815" r="2.6458" ></circle>
<circle class="encuesta cs" cx="238.3394" cy="228.4444" r="2.6458" ></circle>
<circle class="encuesta pp" cx="238.3394" cy="271.1111" r="2.6458" ></circle>
<circle class="encuesta jxsi" cx="238.3394" cy="92.1481" r="2.6458" ></circle>
<circle class="encuesta otros" cx="238.3394" cy="310.8148" r="2.6458" ></circle>
</g>
<g id="encuesta-10">
<circle class="encuesta cup" cx="103.9805" cy="294.8148" r="3.5426" ></circle>
<circle class="encuesta cec" cx="103.9805" cy="261.6296" r="3.5426" ></circle>
<circle class="encuesta psc" cx="103.9805" cy="250.963" r="3.5426" ></circle>
<circle class="encuesta cs" cx="103.9805" cy="229.6296" r="3.5426" ></circle>
<circle class="encuesta pp" cx="103.9805" cy="277.037" r="3.5426" ></circle>
<circle class="encuesta jxsi" cx="103.9805" cy="109.3333" r="3.5426" ></circle>
<circle class="encuesta otros" cx="103.9805" cy="317.3333" r="3.5426" ></circle>
</g>
<polyline class="cup" points=" 40,296.6966 46.398,296.5656 52.7961,296.4372 59.1941,296.3113 65.5922,296.1887 71.9902,296.0719 78.3883,295.9649 84.7863,295.8725 91.1844,295.8001 97.5824,295.7549 103.9805,295.7498 110.3785,295.8175 116.7766,295.8755 123.1746,295.9239 129.5726,295.9632 135.9707,295.9937 142.3687,296.0157 148.7668,296.0295 155.1648,296.0355 161.5629,296.0337 167.9609,296.0244 174.359,296.0077 180.757,295.9836 187.1551,295.9519 193.5531,295.9124 199.9512,295.8648 206.3492,295.8086 212.7473,295.7433 219.1453,295.6715 225.5433,295.6056 231.9414,295.5703 238.3394,295.6088 244.7375,295.8107 251.1355,296.0011 257.5336,296.1809 263.9316,296.3513 270.3297,296.5134 276.7277,296.668 283.1258,296.8162 289.5238,296.9588 295.9219,297.0965 302.3199,297.23 308.7179,297.3598 315.116,297.4839 321.514,297.595 327.9121,297.6826 334.3101,297.7302 340.7082,297.7997 347.1062,297.89 353.5043,297.9959 359.9023,298.1009 366.3004,298.1752 372.6984,298.169 379.0965,297.9668 385.4945,297.7796 391.8926,297.606 398.2906,297.445 404.6886,297.2954 411.0867,297.1563 417.4847,297.0268 423.8828,296.9062 430.2808,296.7938 436.6789,296.6889 443.0769,296.591 449.475,296.4996 455.873,296.4143 462.2711,296.3356 468.6691,296.2636 475.0672,296.1982 481.4652,296.138 487.8632,296.0799 494.2613,296.0152 500.6593,295.9443 507.0574,295.8673 513.4554,295.7839 519.8535,295.6931 526.2515,295.5937 532.6496,295.4963 539.0476,295.4428 545.4457,295.5191 551.8437,295.8975 558.2418,296.1347 564.6398,296.1901 571.0379,296.2458 577.4359,296.3008 583.8339,296.3576 590.232,296.4252 596.63,296.5278 603.0281,296.6461 609.4261,296.7791 615.8242,296.9191 622.2222,297.0047"></polyline>
<polyline class="cup error" points=" 40,278.5662 46.398,278.6365 52.7961,278.9129 59.1941,279.2657 65.5922,279.665 71.9902,280.0966 78.3883,280.5334 84.7863,280.9367 91.1844,281.256 97.5824,281.4214 103.9805,281.3185 110.3785,280.7022 116.7766,280.169 123.1746,279.713 129.5726,279.3291 135.9707,279.0131 142.3687,278.7613 148.7668,278.5703 155.1648,278.4373 161.5629,278.3597 167.9609,278.3353 174.359,278.3621 180.757,278.4384 187.1551,278.5626 193.5531,278.7337 199.9512,278.9506 206.3492,279.2127 212.7473,279.5197 219.1453,279.8638 225.5433,280.2167 231.9414,280.5241 238.3394,280.6981 244.7375,280.5841 251.1355,280.5579 257.5336,280.6123 263.9316,280.7414 270.3297,280.9404 276.7277,281.2056 283.1258,281.5341 289.5238,281.9239 295.9219,282.3736 302.3199,282.8824 308.7179,283.4503 315.116,284.0543 321.514,284.6149 327.9121,284.9839 334.3101,284.8855 340.7082,284.9512 347.1062,285.1699 353.5043,285.5149 359.9023,285.9114 366.3004,286.2241 372.6984,286.2292 379.0965,285.4469 385.4945,284.7893 391.8926,284.2445 398.2906,283.8026 404.6886,283.4551 411.0867,283.1948 417.4847,283.0154 423.8828,282.9111 430.2808,282.8771 436.6789,282.9089 443.0769,283.0027 449.475,283.1551 455.873,283.3594 462.2711,283.599 468.6691,283.8438 475.0672,284.0487 481.4652,284.1479 487.8632,284.0337 494.2613,284.0002 500.6593,284.0389 507.0574,284.1422 513.4554,284.3034 519.8535,284.5163 526.2515,284.7751 532.6496,285.074 539.0476,285.4098 545.4457,285.7897 551.8437,286.2577 558.2418,286.557 564.6398,286.5517 571.0379,286.6417 577.4359,286.8032 583.8339,286.9878 590.232,287.1112 596.63,287.0218 603.0281,286.9805 609.4261,286.9336 615.8242,286.7788 622.2222,286.4996 622.2222,307.5099 615.8242,307.0594 609.4261,306.6246 603.0281,306.3118 596.63,306.0338 590.232,305.7391 583.8339,305.7274 577.4359,305.7984 571.0379,305.8498 564.6398,305.8284 558.2418,305.7124 551.8437,305.5373 545.4457,305.2485 539.0476,305.4759 532.6496,305.9187 526.2515,306.4124 519.8535,306.8698 513.4554,307.2643 507.0574,307.5925 500.6593,307.8498 494.2613,308.0302 487.8632,308.126 481.4652,308.128 475.0672,308.3476 468.6691,308.6834 462.2711,309.0722 455.873,309.4693 449.475,309.844 443.0769,310.1793 436.6789,310.4689 430.2808,310.7105 423.8828,310.9013 417.4847,311.0382 411.0867,311.1177 404.6886,311.1356 398.2906,311.0874 391.8926,310.9675 385.4945,310.7698 379.0965,310.4867 372.6984,310.1089 366.3004,310.1264 359.9023,310.2904 353.5043,310.477 347.1062,310.6101 340.7082,310.6481 334.3101,310.5749 327.9121,310.3814 321.514,310.5751 315.116,310.9134 308.7179,311.2693 302.3199,311.5776 295.9219,311.8194 289.5238,311.9937 283.1258,312.0983 276.7277,312.1305 270.3297,312.0863 263.9316,311.9612 257.5336,311.7494 251.1355,311.4442 244.7375,311.0374 238.3394,310.5194 231.9414,310.6164 225.5433,310.9946 219.1453,311.4792 212.7473,311.9668 206.3492,312.4046 199.9512,312.779 193.5531,313.0911 187.1551,313.3411 180.757,313.5288 174.359,313.6533 167.9609,313.7136 161.5629,313.7077 155.1648,313.6336 148.7668,313.4888 142.3687,313.2701 135.9707,312.9743 129.5726,312.5974 123.1746,312.1349 116.7766,311.5819 110.3785,310.9328 103.9805,310.1811 97.5824,310.0883 91.1844,310.3442 84.7863,310.8083 78.3883,311.3965 71.9902,312.0473 65.5922,312.7123 59.1941,313.3569 52.7961,313.9615 46.398,314.4948 40,314.827"></polyline>
<text class = "party cup" x="631.1111" y="305"><tspan class="party_name">CUP</tspan> (6.1±1.8%)</text>
<polyline class="cec" points=" 40,262.5062 46.398,262.5477 52.7961,262.5806 59.1941,262.6043 65.5922,262.6188 71.9902,262.6257 78.3883,262.6286 84.7863,262.6335 91.1844,262.6484 97.5824,262.6859 103.9805,262.7688 110.3785,262.9521 116.7766,263.1416 123.1746,263.3364 129.5726,263.5358 135.9707,263.7392 142.3687,263.9458 148.7668,264.1554 155.1648,264.3676 161.5629,264.5821 167.9609,264.7989 174.359,265.018 180.757,265.2396 187.1551,265.4641 193.5531,265.6918 199.9512,265.9234 206.3492,266.1598 212.7473,266.4022 219.1453,266.6447 225.5433,266.8646 231.9414,267.0175 238.3394,267.0282 244.7375,266.7435 251.1355,266.485 257.5336,266.2487 263.9316,266.0308 270.3297,265.8279 276.7277,265.6367 283.1258,265.4541 289.5238,265.2771 295.9219,265.103 302.3199,264.9289 308.7179,264.752 315.116,264.5799 321.514,264.4451 327.9121,264.4131 334.3101,264.6211 340.7082,264.7931 347.1062,264.9316 353.5043,265.0394 359.9023,265.1229 366.3004,265.1948 372.6984,265.2793 379.0965,265.4317 385.4945,265.5843 391.8926,265.735 398.2906,265.8816 404.6886,266.0227 411.0867,266.1566 417.4847,266.2821 423.8828,266.3977 430.2808,266.5023 436.6789,266.5946 443.0769,266.673 449.475,266.7361 455.873,266.7847 462.2711,266.8274 468.6691,266.8834 475.0672,266.9865 481.4652,267.1925 487.8632,267.6067 494.2613,268.0014 500.6593,268.3778 507.0574,268.737 513.4554,269.0805 519.8535,269.4101 526.2515,269.7282 532.6496,270.0218 539.0476,270.2411 545.4457,270.2882 551.8437,269.9712 558.2418,269.8015 564.6398,269.8195 571.0379,269.8394 577.4359,269.8603 583.8339,269.8918 590.232,269.9614 596.63,270.1377 603.0281,270.3114 609.4261,270.4747 615.8242,270.6046 622.2222,270.6668"></polyline>
<polyline class="cec error" points=" 40,240.697 46.398,240.9793 52.7961,241.4942 59.1941,242.0863 65.5922,242.7195 71.9902,243.3755 78.3883,244.0221 84.7863,244.614 91.1844,245.0935 97.5824,245.3826 103.9805,245.3544 110.3785,244.7392 116.7766,244.2413 123.1746,243.8523 129.5726,243.5644 135.9707,243.3713 142.3687,243.2673 148.7668,243.2476 155.1648,243.3079 161.5629,243.4446 167.9609,243.6547 174.359,243.9358 180.757,244.286 187.1551,244.704 193.5531,245.1891 199.9512,245.7414 206.3492,246.3615 212.7473,247.0511 219.1453,247.7918 225.5433,248.5116 231.9414,249.0714 238.3394,249.2374 244.7375,248.5599 251.1355,248.0258 257.5336,247.621 263.9316,247.3338 270.3297,247.1539 276.7277,247.0726 283.1258,247.0823 289.5238,247.1769 295.9219,247.3512 302.3199,247.6009 308.7179,247.9229 315.116,248.3008 321.514,248.6839 327.9121,248.9775 334.3101,249.0178 340.7082,249.1874 347.1062,249.4769 353.5043,249.8647 359.9023,250.2897 366.3004,250.642 372.6984,250.7432 379.0965,250.2271 385.4945,249.8421 391.8926,249.5725 398.2906,249.4051 404.6886,249.3292 411.0867,249.3355 417.4847,249.4159 423.8828,249.5632 430.2808,249.7711 436.6789,250.0336 443.0769,250.3456 449.475,250.7022 455.873,251.0969 462.2711,251.5189 468.6691,251.9527 475.0672,252.3804 481.4652,252.7842 487.8632,253.1509 494.2613,253.6 500.6593,254.1221 507.0574,254.7093 513.4554,255.3558 519.8535,256.0569 526.2515,256.8097 532.6496,257.5814 539.0476,258.2659 545.4457,258.6662 551.8437,258.4261 558.2418,258.3127 564.6398,258.2572 571.0379,258.3154 577.4359,258.4595 583.8339,258.6395 590.232,258.7738 596.63,258.7244 603.0281,258.71 609.4261,258.6603 615.8242,258.4409 622.2222,258.0725 622.2222,283.261 615.8242,282.7682 609.4261,282.2891 603.0281,281.9129 596.63,281.551 590.232,281.1491 583.8339,281.144 577.4359,281.2612 571.0379,281.3634 564.6398,281.3818 558.2418,281.2903 551.8437,281.5162 545.4457,281.9101 539.0476,282.2163 532.6496,282.4622 526.2515,282.6467 519.8535,282.7634 513.4554,282.8052 507.0574,282.7646 500.6593,282.6335 494.2613,282.4028 487.8632,282.0625 481.4652,281.6008 475.0672,281.5926 468.6691,281.8142 462.2711,282.1359 455.873,282.4725 449.475,282.7699 443.0769,283.0004 436.6789,283.1555 430.2808,283.2336 423.8828,283.2322 417.4847,283.1482 411.0867,282.9777 404.6886,282.7161 398.2906,282.3582 391.8926,281.8975 385.4945,281.3265 379.0965,280.6363 372.6984,279.8154 366.3004,279.7476 359.9023,279.9561 353.5043,280.2141 347.1062,280.3862 340.7082,280.3988 334.3101,280.2244 327.9121,279.8487 321.514,280.2064 315.116,280.8591 308.7179,281.5812 302.3199,282.2569 295.9219,282.8548 289.5238,283.3773 283.1258,283.8258 276.7277,284.2009 270.3297,284.502 263.9316,284.7278 257.5336,284.8763 251.1355,284.9442 244.7375,284.927 238.3394,284.819 231.9414,284.9636 225.5433,285.2176 219.1453,285.4977 212.7473,285.7532 206.3492,285.9581 199.9512,286.1054 193.5531,286.1944 187.1551,286.2241 180.757,286.1933 174.359,286.1002 167.9609,285.943 161.5629,285.7195 155.1648,285.4272 148.7668,285.0632 142.3687,284.6243 135.9707,284.107 129.5726,283.5073 123.1746,282.8206 116.7766,282.0418 110.3785,281.165 103.9805,280.1833 97.5824,279.9892 91.1844,280.2033 84.7863,280.6529 78.3883,281.2352 71.9902,281.8758 65.5922,282.5181 59.1941,283.1222 52.7961,283.667 46.398,284.1161 40,284.3153"></polyline>
<text class = "party cec" x="631.1111" y="263"><tspan class="party_name">CeC</tspan> (10.6±2.1%)</text>
<polyline class="psc" points=" 40,253.2034 46.398,253.2156 52.7961,253.2136 59.1941,253.1968 65.5922,253.1661 71.9902,253.1253 78.3883,253.0823 84.7863,253.0488 91.1844,253.0407 97.5824,253.0814 103.9805,253.2135 110.3785,253.5405 116.7766,253.8747 123.1746,254.2153 129.5726,254.5619 135.9707,254.9141 142.3687,255.272 148.7668,255.6359 155.1648,256.0062 161.5629,256.3838 167.9609,256.7695 174.359,257.1648 180.757,257.5713 187.1551,257.9909 193.5531,258.4259 199.9512,258.8791 206.3492,259.3539 212.7473,259.8542 219.1453,260.3664 225.5433,260.8311 231.9414,261.1308 238.3394,261.0617 244.7375,260.2056 251.1355,259.4135 257.5336,258.6775 263.9316,257.9903 270.3297,257.3449 276.7277,256.735 283.1258,256.1545 289.5238,255.5976 295.9219,255.0588 302.3199,254.5326 308.7179,254.0134 315.116,253.5185 321.514,253.1193 327.9121,252.9547 334.3101,253.3104 340.7082,253.5834 347.1062,253.7825 353.5043,253.9181 359.9023,254.0111 366.3004,254.0993 372.6984,254.2483 379.0965,254.609 385.4945,254.9693 391.8926,255.3285 398.2906,255.6868 404.6886,256.0447 411.0867,256.4035 417.4847,256.7648 423.8828,257.1306 430.2808,257.5033 436.6789,257.8859 443.0769,258.282 449.475,258.6956 455.873,259.1213 462.2711,259.526 468.6691,259.8408 475.0672,259.9537 481.4652,259.6861 487.8632,258.7093 494.2613,257.8297 500.6593,257.0364 507.0574,256.3196 513.4554,255.6707 519.8535,255.082 526.2515,254.5466 532.6496,254.0691 539.0476,253.6778 545.4457,253.4254 551.8437,253.41 558.2418,253.3024 564.6398,253.0634 571.0379,252.7965 577.4359,252.5206 583.8339,252.3016 590.232,252.2781 596.63,252.7472 603.0281,253.2085 609.4261,253.6789 615.8242,254.1587 622.2222,254.4777"></polyline>
<polyline class="psc error" points=" 40,231.0833 46.398,231.3414 52.7961,231.8251 59.1941,232.3807 65.5922,232.973 71.9902,233.5863 78.3883,234.1922 84.7863,234.7508 91.1844,235.2117 97.5824,235.5067 103.9805,235.5279 110.3785,235.0521 116.7766,234.6964 123.1746,234.4521 129.5726,234.3117 135.9707,234.269 142.3687,234.319 148.7668,234.4572 155.1648,234.6803 161.5629,234.9857 167.9609,235.3712 174.359,235.8359 180.757,236.3791 187.1551,237.0014 193.5531,237.7039 199.9512,238.4888 206.3492,239.3594 212.7473,240.32 219.1453,241.3438 225.5433,242.321 231.9414,243.0353 238.3394,243.1192 244.7375,241.8458 251.1355,240.7554 257.5336,239.8303 263.9316,239.0549 270.3297,238.4157 276.7277,237.9009 283.1258,237.5 289.5238,237.2038 295.9219,237.0045 302.3199,236.8952 308.7179,236.87 315.116,236.9226 321.514,237.0407 327.9121,237.2025 334.3101,237.3919 340.7082,237.6651 347.1062,238.019 353.5043,238.4393 359.9023,238.8791 366.3004,239.2523 372.6984,239.42 379.0965,239.108 385.4945,238.9291 391.8926,238.8687 398.2906,238.9155 404.6886,239.0609 411.0867,239.2981 417.4847,239.6218 423.8828,240.0283 430.2808,240.5149 436.6789,241.0801 443.0769,241.7235 449.475,242.446 455.873,243.2344 462.2711,244.0344 468.6691,244.739 475.0672,245.1795 481.4652,245.0951 487.8632,244.0228 494.2613,243.1551 500.6593,242.4702 507.0574,241.9497 513.4554,241.5772 519.8535,241.3386 526.2515,241.2216 532.6496,241.2112 539.0476,241.2801 545.4457,241.3831 551.8437,241.4566 558.2418,241.4094 564.6398,241.0879 571.0379,240.8529 577.4359,240.6961 583.8339,240.6238 590.232,240.6641 596.63,240.907 603.0281,241.1808 609.4261,241.4391 615.8242,241.5682 622.2222,241.4513 622.2222,267.5041 615.8242,266.7491 609.4261,265.9187 603.0281,265.2362 596.63,264.5874 590.232,263.8921 583.8339,263.9794 577.4359,264.3451 571.0379,264.7402 564.6398,265.0389 558.2418,265.1954 551.8437,265.3635 545.4457,265.4677 539.0476,266.0755 532.6496,266.927 526.2515,267.8716 519.8535,268.8255 513.4554,269.7642 507.0574,270.6895 500.6593,271.6026 494.2613,272.5044 487.8632,273.3958 481.4652,274.2772 475.0672,274.728 468.6691,274.9425 462.2711,275.0175 455.873,275.0081 449.475,274.9452 443.0769,274.8405 436.6789,274.6918 430.2808,274.4916 423.8828,274.2328 417.4847,273.9078 411.0867,273.509 404.6886,273.0286 398.2906,272.4581 391.8926,271.7883 385.4945,271.0094 379.0965,270.1099 372.6984,269.0766 366.3004,268.9463 359.9023,269.1431 353.5043,269.3968 347.1062,269.546 340.7082,269.5018 334.3101,269.2289 327.9121,268.7069 321.514,269.198 315.116,270.1145 308.7179,271.1567 302.3199,272.17 295.9219,273.1131 289.5238,273.9915 283.1258,274.8091 276.7277,275.5691 270.3297,276.2741 263.9316,276.9257 257.5336,277.5248 251.1355,278.0716 244.7375,278.5654 238.3394,279.0042 231.9414,279.2262 225.5433,279.3413 219.1453,279.3889 212.7473,279.3884 206.3492,279.3485 199.9512,279.2694 193.5531,279.1478 187.1551,278.9803 180.757,278.7634 174.359,278.4938 167.9609,278.1678 161.5629,277.7819 155.1648,277.3321 148.7668,276.8146 142.3687,276.2251 135.9707,275.5592 129.5726,274.8121 123.1746,273.9786 116.7766,273.053 110.3785,272.0289 103.9805,270.8991 97.5824,270.656 91.1844,270.8698 84.7863,271.3469 78.3883,271.9725 71.9902,272.6642 65.5922,273.3591 59.1941,274.0129 52.7961,274.602 46.398,275.0897 40,275.3234"></polyline>
<text class = "party psc" x="631.1111" y="242"><tspan class="party_name">PSC</tspan> (13.3±2.2%)</text>
<polyline class="cs" points=" 40,232.1798 46.398,231.9394 52.7961,231.7097 59.1941,231.4909 65.5922,231.284 71.9902,231.0921 78.3883,230.9194 84.7863,230.7701 91.1844,230.6484 97.5824,230.559 103.9805,230.5104 110.3785,230.5265 116.7766,230.5267 123.1746,230.5125 129.5726,230.4854 135.9707,230.4469 142.3687,230.3984 148.7668,230.3414 155.1648,230.2771 161.5629,230.2068 167.9609,230.1316 174.359,230.0526 180.757,229.9706 187.1551,229.8867 193.5531,229.8015 199.9512,229.7157 206.3492,229.6299 212.7473,229.5447 219.1453,229.4617 225.5433,229.386 231.9414,229.3259 238.3394,229.2941 244.7375,229.3153 251.1355,229.3299 257.5336,229.3397 263.9316,229.3465 270.3297,229.3518 276.7277,229.357 283.1258,229.3637 289.5238,229.373 295.9219,229.3861 302.3199,229.4043 308.7179,229.4286 315.116,229.4578 321.514,229.4849 327.9121,229.4963 334.3101,229.4643 340.7082,229.4511 347.1062,229.4586 353.5043,229.4848 359.9023,229.5163 366.3004,229.525 372.6984,229.4595 379.0965,229.1957 385.4945,228.9369 391.8926,228.6835 398.2906,228.4361 404.6886,228.1951 411.0867,227.961 417.4847,227.7342 423.8828,227.5151 430.2808,227.3041 436.6789,227.1014 443.0769,226.9073 449.475,226.722 455.873,226.5466 462.2711,226.3843 468.6691,226.2403 475.0672,226.1207 481.4652,226.0338 487.8632,225.9932 494.2613,225.944 500.6593,225.89 507.0574,225.8347 513.4554,225.7812 519.8535,225.733 526.2515,225.6933 532.6496,225.6547 539.0476,225.5792 545.4457,225.383 551.8437,224.8894 558.2418,224.5431 564.6398,224.3914 571.0379,224.2029 577.4359,223.9896 583.8339,223.7994 590.232,223.7349 596.63,224.0124 603.0281,224.2272 609.4261,224.3864 615.8242,224.4927 622.2222,224.5795"></polyline>
<polyline class="cs error" points=" 40,205.7216 46.398,205.7312 52.7961,206.0635 59.1941,206.5155 65.5922,207.0414 71.9902,207.6207 78.3883,208.2144 84.7863,208.7653 91.1844,209.1976 97.5824,209.4063 103.9805,209.2187 110.3785,208.266 116.7766,207.4308 123.1746,206.7049 129.5726,206.0814 135.9707,205.555 142.3687,205.1209 148.7668,204.7752 155.1648,204.5147 161.5629,204.3366 167.9609,204.2386 174.359,204.2189 180.757,204.2762 187.1551,204.4096 193.5531,204.6187 199.9512,204.9035 206.3492,205.2647 212.7473,205.7036 219.1453,206.2072 225.5433,206.7229 231.9414,207.1463 238.3394,207.3014 244.7375,206.8616 251.1355,206.5562 257.5336,206.3749 263.9316,206.3094 270.3297,206.3533 276.7277,206.5014 283.1258,206.7502 289.5238,207.097 295.9219,207.5405 302.3199,208.0803 308.7179,208.7172 315.116,209.4211 321.514,210.0824 327.9121,210.4901 334.3101,210.2447 340.7082,210.2204 347.1062,210.4052 353.5043,210.767 359.9023,211.2104 366.3004,211.5571 372.6984,211.5067 379.0965,210.4167 385.4945,209.4909 391.8926,208.713 398.2906,208.0704 404.6886,207.5524 411.0867,207.1501 417.4847,206.8561 423.8828,206.6637 430.2808,206.5672 436.6789,206.5617 443.0769,206.643 449.475,206.8076 455.873,207.0476 462.2711,207.3424 468.6691,207.654 475.0672,207.9243 481.4652,208.0686 487.8632,207.9505 494.2613,207.9494 500.6593,208.0564 507.0574,208.2645 513.4554,208.5679 519.8535,208.9625 526.2515,209.4456 532.6496,209.9858 539.0476,210.4765 545.4457,210.7129 551.8437,210.3169 558.2418,210.04 564.6398,209.7932 571.0379,209.6477 577.4359,209.5825 583.8339,209.5723 590.232,209.5843 596.63,209.5798 603.0281,209.5581 609.4261,209.4494 615.8242,209.1185 622.2222,208.6699 622.2222,240.4892 615.8242,239.8668 609.4261,239.3235 603.0281,238.8962 596.63,238.445 590.232,237.8855 583.8339,238.0265 577.4359,238.3966 571.0379,238.7581 564.6398,238.9895 558.2418,239.0462 551.8437,239.4618 545.4457,240.0531 539.0476,240.6819 532.6496,241.3236 526.2515,241.9411 519.8535,242.5035 513.4554,242.9946 507.0574,243.4049 500.6593,243.7236 494.2613,243.9386 487.8632,244.036 481.4652,243.9991 475.0672,244.3171 468.6691,244.8265 462.2711,245.4263 455.873,246.0456 449.475,246.6365 443.0769,247.1716 436.6789,247.6411 430.2808,248.0411 423.8828,248.3666 417.4847,248.6123 411.0867,248.7718 404.6886,248.8378 398.2906,248.8018 391.8926,248.654 385.4945,248.3829 379.0965,247.9748 372.6984,247.4124 366.3004,247.4929 359.9023,247.8221 353.5043,248.2025 347.1062,248.512 340.7082,248.6818 334.3101,248.6839 327.9121,248.5025 321.514,248.8875 315.116,249.4945 308.7179,250.14 302.3199,250.7284 295.9219,251.2318 289.5238,251.6489 283.1258,251.9771 276.7277,252.2126 270.3297,252.3503 263.9316,252.3835 257.5336,252.3045 251.1355,252.1035 244.7375,251.769 238.3394,251.2869 231.9414,251.5056 225.5433,252.0491 219.1453,252.7162 212.7473,253.3857 206.3492,253.9952 199.9512,254.5279 193.5531,254.9843 187.1551,255.3638 180.757,255.6651 174.359,255.8862 167.9609,256.0246 161.5629,256.077 155.1648,256.0394 148.7668,255.9075 142.3687,255.6759 135.9707,255.3387 129.5726,254.8893 123.1746,254.3201 116.7766,253.6225 110.3785,252.7869 103.9805,251.8022 97.5824,251.7116 91.1844,252.0993 84.7863,252.775 78.3883,253.6244 71.9902,254.5636 65.5922,255.5267 59.1941,256.4662 52.7961,257.356 46.398,258.1477 40,258.638"></polyline>
<text class = "party cs" x="631.1111" y="222"><tspan class="party_name">C's</tspan> (18.4±2.7%)</text>
<polyline class="pp" points=" 40,276.3427 46.398,276.3675 52.7961,276.3925 59.1941,276.418 65.5922,276.4439 71.9902,276.4693 78.3883,276.4925 84.7863,276.5109 91.1844,276.5209 97.5824,276.5173 103.9805,276.4903 110.3785,276.4155 116.7766,276.3385 123.1746,276.2591 129.5726,276.1772 135.9707,276.0926 142.3687,276.0048 148.7668,275.9138 155.1648,275.8191 161.5629,275.7203 167.9609,275.6172 174.359,275.5093 180.757,275.3961 187.1551,275.2771 193.5531,275.1518 199.9512,275.0195 206.3492,274.8794 212.7473,274.7308 219.1453,274.5775 225.5433,274.4354 231.9414,274.3352 238.3394,274.3289 244.7375,274.5217 251.1355,274.6913 257.5336,274.8396 263.9316,274.9683 270.3297,275.0791 276.7277,275.1738 283.1258,275.2538 289.5238,275.3208 295.9219,275.3763 302.3199,275.4223 308.7179,275.4606 315.116,275.4875 321.514,275.4825 327.9121,275.3997 334.3101,275.1321 340.7082,274.8509 347.1062,274.5515 353.5043,274.2404 359.9023,273.95 366.3004,273.7422 372.6984,273.7222 379.0965,274.1387 385.4945,274.5204 391.8926,274.8703 398.2906,275.1905 404.6886,275.4829 411.0867,275.7488 417.4847,275.9894 423.8828,276.2055 430.2808,276.3975 436.6789,276.566 443.0769,276.7108 449.475,276.832 455.873,276.9312 462.2711,277.0156 468.6691,277.1016 475.0672,277.2167 481.4652,277.407 487.8632,277.7578 494.2613,278.0897 500.6593,278.4027 507.0574,278.6972 513.4554,278.9742 519.8535,279.2345 526.2515,279.48 532.6496,279.7006 539.0476,279.8578 545.4457,279.8752 551.8437,279.5991 558.2418,279.5503 564.6398,279.8514 571.0379,280.1285 577.4359,280.3746 583.8339,280.5772 590.232,280.7188 596.63,280.7697 603.0281,280.7872 609.4261,280.7522 615.8242,280.6387 622.2222,280.5501"></polyline>
<polyline class="pp error" points=" 40,257.4281 46.398,257.6822 52.7961,258.1334 59.1941,258.6587 65.5922,259.2285 71.9902,259.8244 78.3883,260.4128 84.7863,260.946 91.1844,261.3626 97.5824,261.5777 103.9805,261.4493 110.3785,260.6653 116.7766,259.9749 123.1746,259.3716 129.5726,258.8496 135.9707,258.4038 142.3687,258.0298 148.7668,257.7234 155.1648,257.4811 161.5629,257.2997 167.9609,257.1764 174.359,257.1085 180.757,257.0939 187.1551,257.1308 193.5531,257.2175 199.9512,257.353 206.3492,257.5363 212.7473,257.7671 219.1453,258.0383 225.5433,258.3244 231.9414,258.5746 238.3394,258.7053 244.7375,258.5694 251.1355,258.5125 257.5336,258.5277 263.9316,258.6094 270.3297,258.7536 276.7277,258.9571 283.1258,259.2177 289.5238,259.534 295.9219,259.9058 302.3199,260.3334 308.7179,260.8188 315.116,261.3364 321.514,261.7908 327.9121,261.9916 334.3101,261.5589 340.7082,261.2584 347.1062,261.0754 353.5043,260.995 359.9023,260.9915 366.3004,261.0207 372.6984,261.0121 379.0965,260.8503 385.4945,260.7681 391.8926,260.7567 398.2906,260.8085 404.6886,260.9174 411.0867,261.0777 417.4847,261.2848 423.8828,261.5341 430.2808,261.8219 436.6789,262.1445 443.0769,262.4986 449.475,262.8811 455.873,263.2871 462.2711,263.7071 468.6691,264.1266 475.0672,264.5282 481.4652,264.8932 487.8632,265.2031 494.2613,265.5835 500.6593,266.025 507.0574,266.52 513.4554,267.0628 519.8535,267.6487 526.2515,268.2749 532.6496,268.9138 539.0476,269.4775 545.4457,269.8032 551.8437,269.5936 558.2418,269.5969 564.6398,269.8435 571.0379,270.1629 577.4359,270.5244 583.8339,270.8625 590.232,271.0633 596.63,270.9147 603.0281,270.764 609.4261,270.5375 615.8242,270.1112 622.2222,269.641 622.2222,291.4592 615.8242,291.1662 609.4261,290.967 603.0281,290.8104 596.63,290.6247 590.232,290.3743 583.8339,290.2918 577.4359,290.2249 571.0379,290.0941 564.6398,289.8593 558.2418,289.5038 551.8437,289.6047 545.4457,289.9471 539.0476,290.2381 532.6496,290.4874 526.2515,290.6851 519.8535,290.8204 513.4554,290.8856 507.0574,290.8745 500.6593,290.7804 494.2613,290.5958 487.8632,290.3125 481.4652,289.9209 475.0672,289.9053 468.6691,290.0766 462.2711,290.3242 455.873,290.5752 449.475,290.783 443.0769,290.9231 436.6789,290.9874 430.2808,290.9732 423.8828,290.8768 417.4847,290.6941 411.0867,290.42 404.6886,290.0484 398.2906,289.5724 391.8926,288.9838 385.4945,288.2727 379.0965,287.4271 372.6984,286.4323 366.3004,286.4636 359.9023,286.9085 353.5043,287.4858 347.1062,288.0276 340.7082,288.4433 334.3101,288.7052 327.9121,288.8078 321.514,289.1743 315.116,289.6385 308.7179,290.1025 302.3199,290.5111 295.9219,290.8469 289.5238,291.1075 283.1258,291.2899 276.7277,291.3905 270.3297,291.4047 263.9316,291.3271 257.5336,291.1515 251.1355,290.8701 244.7375,290.474 238.3394,289.9525 231.9414,290.0958 225.5433,290.5465 219.1453,291.1168 212.7473,291.6946 206.3492,292.2226 199.9512,292.686 193.5531,293.0861 187.1551,293.4235 180.757,293.6983 174.359,293.9101 167.9609,294.0581 161.5629,294.1409 155.1648,294.157 148.7668,294.1042 142.3687,293.9799 135.9707,293.7813 129.5726,293.5049 123.1746,293.1467 116.7766,292.7021 110.3785,292.1657 103.9805,291.5314 97.5824,291.457 91.1844,291.6793 84.7863,292.0758 78.3883,292.5723 71.9902,293.1143 65.5922,293.6593 59.1941,294.1772 52.7961,294.6515 46.398,295.0527 40,295.2574"></polyline>
<text class = "party pp" x="631.1111" y="284"><tspan class="party_name">PP</tspan> (8.9±1.8%)</text>
<polyline class="jxsi" points=" 40,104.9257 46.398,105.1105 52.7961,105.301 59.1941,105.4976 65.5922,105.6988 71.9902,105.8981 78.3883,106.0842 84.7863,106.2415 91.1844,106.3504 97.5824,106.3828 103.9805,106.2878 110.3785,105.9395 116.7766,105.5984 123.1746,105.2643 129.5726,104.9371 135.9707,104.6162 142.3687,104.3008 148.7668,103.9903 155.1648,103.6835 161.5629,103.3794 167.9609,103.0767 174.359,102.774 180.757,102.4697 187.1551,102.1621 193.5531,101.8492 199.9512,101.5288 206.3492,101.1986 212.7473,100.8555 219.1453,100.5081 225.5433,100.1937 231.9414,99.9863 238.3394,100.0142 244.7375,100.5399 251.1355,101.0235 257.5336,101.4701 263.9316,101.8841 270.3297,102.2696 276.7277,102.6302 283.1258,102.9693 289.5238,103.2898 295.9219,103.5942 302.3199,103.8848 308.7179,104.1636 315.116,104.4265 321.514,104.6583 327.9121,104.8353 334.3101,104.9177 340.7082,105.0421 347.1062,105.206 353.5043,105.3991 359.9023,105.5908 366.3004,105.7265 372.6984,105.7148 379.0965,105.3444 385.4945,105.0007 391.8926,104.6812 398.2906,104.3833 404.6886,104.1048 411.0867,103.8435 417.4847,103.5975 423.8828,103.3648 430.2808,103.1435 436.6789,102.9318 443.0769,102.7277 449.475,102.5292 455.873,102.3373 462.2711,102.1612 468.6691,102.0205 475.0672,101.9471 481.4652,101.9916 487.8632,102.2478 494.2613,102.478 500.6593,102.686 507.0574,102.8751 513.4554,103.0479 519.8535,103.206 526.2515,103.3508 532.6496,103.49 539.0476,103.6529 545.4457,103.9054 551.8437,104.392 558.2418,104.6217 564.6398,104.4419 571.0379,104.3609 577.4359,104.3623 583.8339,104.3451 590.232,104.0703 596.63,103.0051 603.0281,102.0421 609.4261,101.1944 615.8242,100.5257 622.2222,100.1116"></polyline>
<polyline class="jxsi error" points=" 40,76.0105 46.398,76.4938 52.7961,77.2964 59.1941,78.218 65.5922,79.2103 71.9902,80.242 78.3883,81.2553 84.7863,82.1685 91.1844,82.8759 97.5824,83.2312 103.9805,82.9878 110.3785,81.5985 116.7766,80.361 123.1746,79.2643 129.5726,78.299 135.9707,77.4566 142.3687,76.7297 148.7668,76.1114 155.1648,75.5958 161.5629,75.1772 167.9609,74.8508 174.359,74.612 180.757,74.4567 187.1551,74.3813 193.5531,74.3828 199.9512,74.4582 206.3492,74.6054 212.7473,74.8224 219.1453,75.102 225.5433,75.4204 231.9414,75.7311 238.3394,75.9602 244.7375,75.9952 251.1355,76.1392 257.5336,76.384 263.9316,76.7233 270.3297,77.1524 276.7277,77.668 283.1258,78.2681 289.5238,78.9514 295.9219,79.718 302.3199,80.5687 308.7179,81.5055 315.116,82.4934 321.514,83.4074 327.9121,84.0114 334.3101,83.8658 340.7082,83.9794 347.1062,84.3347 353.5043,84.8895 359.9023,85.5251 366.3004,86.0254 372.6984,86.0317 379.0965,84.7767 385.4945,83.7212 391.8926,82.8439 398.2906,82.1275 404.6886,81.5575 411.0867,81.1214 417.4847,80.8086 423.8828,80.6096 430.2808,80.5158 436.6789,80.5199 443.0769,80.6152 449.475,80.7956 455.873,81.0527 462.2711,81.3703 468.6691,81.7217 475.0672,82.0696 481.4652,82.365 487.8632,82.5405 494.2613,82.825 500.6593,83.2087 507.0574,83.6833 513.4554,84.2419 519.8535,84.8785 526.2515,85.5877 532.6496,86.3521 539.0476,87.1281 545.4457,87.8531 551.8437,88.4585 558.2418,88.7717 564.6398,88.4918 571.0379,88.4609 577.4359,88.6264 583.8339,88.8071 590.232,88.6148 596.63,87.2343 603.0281,86.0069 609.4261,84.8626 615.8242,83.717 622.2222,82.722 622.2222,117.5013 615.8242,117.3343 609.4261,117.5263 603.0281,118.0773 596.63,118.7758 590.232,119.5258 583.8339,119.883 577.4359,120.0981 571.0379,120.261 564.6398,120.392 558.2418,120.4717 551.8437,120.3255 545.4457,119.9576 539.0476,120.1777 532.6496,120.6278 526.2515,121.1139 519.8535,121.5336 513.4554,121.8538 507.0574,122.067 500.6593,122.1634 494.2613,122.131 487.8632,121.9551 481.4652,121.6182 475.0672,121.8246 468.6691,122.3193 462.2711,122.9521 455.873,123.6218 449.475,124.2628 443.0769,124.8402 436.6789,125.3436 430.2808,125.7712 423.8828,126.12 417.4847,126.3863 411.0867,126.5656 404.6886,126.6521 398.2906,126.6392 391.8926,126.5185 385.4945,126.2803 379.0965,125.9121 372.6984,125.398 366.3004,125.4276 359.9023,125.6566 353.5043,125.9086 347.1062,126.0772 340.7082,126.1048 334.3101,125.9697 327.9121,125.6592 321.514,125.9093 315.116,126.3596 308.7179,126.8217 302.3199,127.2009 295.9219,127.4703 289.5238,127.6281 283.1258,127.6706 276.7277,127.5924 270.3297,127.3868 263.9316,127.0449 257.5336,126.5561 251.1355,125.9078 244.7375,125.0845 238.3394,124.0681 231.9414,124.2415 225.5433,124.9669 219.1453,125.9142 212.7473,126.8887 206.3492,127.7918 199.9512,128.5995 193.5531,129.3156 187.1551,129.9428 180.757,130.4827 174.359,130.936 167.9609,131.3026 161.5629,131.5816 155.1648,131.7713 148.7668,131.8692 142.3687,131.872 135.9707,131.7757 129.5726,131.5753 123.1746,131.2644 116.7766,130.8358 110.3785,130.2806 103.9805,129.5877 97.5824,129.5344 91.1844,129.8249 84.7863,130.3146 78.3883,130.9132 71.9902,131.5543 65.5922,132.1873 59.1941,132.7772 52.7961,133.3056 46.398,133.7273 40,133.8409"></polyline>
<text class = "party jxsi" x="631.1111" y="100"><tspan class="party_name">JxSí</tspan> (39.4±2.9%)</text>
<polyline class="otros" points=" 40,314.8864 46.398,314.9944 52.7961,315.1062 59.1941,315.222 65.5922,315.3406 71.9902,315.4583 78.3883,315.5687 84.7863,315.6633 91.1844,315.7318 97.5824,315.7595 103.9805,315.7201 110.3785,315.5491 116.7766,315.3854 123.1746,315.2291 129.5726,315.0801 135.9707,314.9382 142.3687,314.8031 148.7668,314.6745 155.1648,314.5518 161.5629,314.4347 167.9609,314.3224 174.359,314.2143 180.757,314.1098 187.1551,314.0081 193.5531,313.9082 199.9512,313.8094 206.3492,313.7104 212.7473,313.6101 219.1453,313.5108 225.5433,313.4243 231.9414,313.3747 238.3394,313.4049 244.7375,313.6041 251.1355,313.7965 257.5336,313.9843 263.9316,314.1695 270.3297,314.354 276.7277,314.5399 283.1258,314.7291 289.5238,314.9237 295.9219,315.1258 302.3199,315.3379 308.7179,315.5627 315.116,315.7867 321.514,315.9555 327.9121,315.959 334.3101,315.5649 340.7082,315.2204 347.1062,314.9206 353.5043,314.6631 359.9023,314.4488 366.3004,314.2778 372.6984,314.1476 379.0965,314.0545 385.4945,313.9495 391.8926,313.8363 398.2906,313.7175 404.6886,313.5952 411.0867,313.471 417.4847,313.3459 423.8828,313.2208 430.2808,313.0962 436.6789,312.9722 443.0769,312.8489 449.475,312.7263 455.873,312.6054 462.2711,312.4906 468.6691,312.3905 475.0672,312.3178 481.4652,312.2916 487.8632,312.346 494.2613,312.3827 500.6593,312.4035 507.0574,312.4098 513.4554,312.4025 519.8535,312.3819 526.2515,312.3481 532.6496,312.3083 539.0476,312.2891 545.4457,312.3446 551.8437,312.5815 558.2418,312.7871 564.6398,312.9831 571.0379,313.1667 577.4359,313.3325 583.8339,313.4681 590.232,313.5521 596.63,313.5409 603.0281,313.5182 609.4261,313.4749 615.8242,313.4014 622.2222,313.3503"></polyline>
<polyline class="otros error" points=" 40,296.8639 46.398,297.1721 52.7961,297.7095 59.1941,298.3285 65.5922,298.993 71.9902,299.6817 78.3883,300.3561 84.7863,300.9632 91.1844,301.4352 97.5824,301.6793 103.9805,301.539 110.3785,300.6627 116.7766,299.8866 123.1746,299.2054 129.5726,298.614 135.9707,298.1078 142.3687,297.6827 148.7668,297.3349 155.1648,297.0608 161.5629,296.8571 167.9609,296.7208 174.359,296.6492 180.757,296.6398 187.1551,296.6904 193.5531,296.7991 199.9512,296.9641 206.3492,297.1842 212.7473,297.4584 219.1453,297.7781 225.5433,298.1139 231.9414,298.4105 238.3394,298.5779 244.7375,298.4596 251.1355,298.4355 257.5336,298.4994 263.9316,298.6463 270.3297,298.8726 276.7277,299.1753 283.1258,299.5528 289.5238,300.004 295.9219,300.529 302.3199,301.1288 308.7179,301.8053 315.116,302.523 321.514,303.1508 327.9121,303.4333 334.3101,302.8626 340.7082,302.4869 347.1062,302.2916 353.5043,302.2533 359.9023,302.3146 366.3004,302.3703 372.6984,302.2435 379.0965,301.5665 385.4945,300.9871 391.8926,300.4987 398.2906,300.0953 404.6886,299.7719 411.0867,299.5237 417.4847,299.3464 423.8828,299.236 430.2808,299.1887 436.6789,299.201 443.0769,299.2695 449.475,299.3914 455.873,299.5611 462.2711,299.7663 468.6691,299.9852 475.0672,300.1856 481.4652,300.3224 487.8632,300.3262 494.2613,300.4 500.6593,300.5365 507.0574,300.7296 513.4554,300.9735 519.8535,301.2631 526.2515,301.5938 532.6496,301.9561 539.0476,302.3308 545.4457,302.6921 551.8437,303.0162 558.2418,303.2854 564.6398,303.4284 571.0379,303.654 577.4359,303.9335 583.8339,304.2026 590.232,304.3443 596.63,304.1353 603.0281,303.9458 609.4261,303.7133 615.8242,303.3323 622.2222,302.9061 622.2222,323.7944 615.8242,323.4704 609.4261,323.2365 603.0281,323.0906 596.63,322.9465 590.232,322.7599 583.8339,322.7337 577.4359,322.7314 571.0379,322.6793 564.6398,322.5378 558.2418,322.2888 551.8437,322.1469 545.4457,321.997 539.0476,322.2474 532.6496,322.6604 526.2515,323.1024 519.8535,323.5007 513.4554,323.8314 507.0574,324.09 500.6593,324.2705 494.2613,324.3654 487.8632,324.3658 481.4652,324.2608 475.0672,324.4501 468.6691,324.7959 462.2711,325.2149 455.873,325.6496 449.475,326.0612 443.0769,326.4284 436.6789,326.7434 430.2808,327.0036 423.8828,327.2057 417.4847,327.3455 411.0867,327.4183 404.6886,327.4185 398.2906,327.3396 391.8926,327.1739 385.4945,326.9119 379.0965,326.5425 372.6984,326.0517 366.3004,326.1853 359.9023,326.583 353.5043,327.073 347.1062,327.5496 340.7082,327.954 334.3101,328.2673 327.9121,328.4847 321.514,328.7602 315.116,329.0504 308.7179,329.32 302.3199,329.547 295.9219,329.7225 289.5238,329.8433 283.1258,329.9054 276.7277,329.9045 270.3297,329.8355 263.9316,329.6927 257.5336,329.4693 251.1355,329.1576 244.7375,328.7486 238.3394,328.2318 231.9414,328.339 225.5433,328.7346 219.1453,329.2434 212.7473,329.7617 206.3492,330.2365 199.9512,330.6546 193.5531,331.0174 187.1551,331.3258 180.757,331.5798 174.359,331.7795 167.9609,331.9239 161.5629,332.0122 155.1648,332.0429 148.7668,332.014 142.3687,331.9235 135.9707,331.7685 129.5726,331.5462 123.1746,331.2528 116.7766,330.8842 110.3785,330.4356 103.9805,329.9012 97.5824,329.8396 91.1844,330.0284 84.7863,330.3635 78.3883,330.7812 71.9902,331.2348 65.5922,331.6881 59.1941,332.1155 52.7961,332.5029 46.398,332.8167 40,332.9089"></polyline>
<text class = "party otros" x="631.1111" y="325"><tspan class="party_name">Otros</tspan> (3.4±1.8%)</text>

<text class="pie izquierda" x="0" y="395">Datos: Electograph | Modelo propio</text>
<text class="pie derecha" x="800" y="395">Jesús Carro | <tspan style="font-weight:bold">1datomas</tspan>.com</text>
</svg>
