<?xml version="1.0" encoding="utf-8"?><!DOCTYPE svg PUBLIC "-//W3C//DTD SVG 1.1//EN" "http://www.w3.org/Graphics/SVG/1.1/DTD/svg11.dtd">
<svg xmlns="http://www.w3.org/2000/svg" xmlns:xlink="http://www.w3.org/1999/xlink" version="1.1" viewBox="0 0 800 400">

<text x="0" y="20" style="font-size:large;font-weight:bold;color:black">Intención de voto en Elecciones Autonómicas en Cataluña</text>
<text x="0" y="40" style="color:gray">Promedio de encuestas y estimación de error</text>

<text class="horizontal axis" x="36" y="333.3333">0%</text>
<line class="horizontal axis" x1="40" y1="333.3333" x2="622.2222" y2="333.3333"></line>
<text class="horizontal axis" x="36" y="252.5253">10%</text>
<line class="horizontal axis" x1="40" y1="252.5253" x2="622.2222" y2="252.5253"></line>
<text class="horizontal axis" x="36" y="171.7172">20%</text>
<line class="horizontal axis" x1="40" y1="171.7172" x2="622.2222" y2="171.7172"></line>
<text class="horizontal axis" x="36" y="90.9091">30%</text>
<line class="horizontal axis" x1="40" y1="90.9091" x2="622.2222" y2="90.9091"></line>
<line class="vertical axis" x1="40" y1="336.6667" x2="40" y2="66.6667"></line>
<text class="vertical axis" x="40" y="343.3333">Ago-2017</text>
<line class="vertical axis" x1="178.8376" y1="336.6667" x2="178.8376" y2="66.6667"></line>
<text class="vertical axis" x="178.8376" y="343.3333">Sep-2017</text>
<line class="vertical axis" x1="313.1966" y1="336.6667" x2="313.1966" y2="66.6667"></line>
<text class="vertical axis" x="313.1966" y="343.3333">Oct-2017</text>
<line class="vertical axis" x1="452.0342" y1="336.6667" x2="452.0342" y2="66.6667"></line>
<text class="vertical axis" x="452.0342" y="343.3333">Nov-2017</text>
<line class="vertical axis" x1="586.3932" y1="336.6667" x2="586.3932" y2="66.6667"></line>
<text class="vertical axis" x="586.3932" y="343.3333">Dic-2017</text>
<polyline id="media-cup"  class="cup media" points=" 40,281.8638 44.4786,281.8218 48.9573,281.7776 53.4359,281.7312 57.9145,281.683 62.3932,281.6347 66.8718,281.5892 71.3504,281.5504 75.8291,281.5228 80.3077,281.5131 84.7863,281.5332 89.265,281.6123 93.7436,281.6861 98.2222,281.7539 102.7009,281.8151 107.1795,281.8695 111.6581,281.9167 116.1368,281.9564 120.6154,281.9885 125.094,282.0127 129.5726,282.0288 134.0513,282.0364 138.5299,282.0352 143.0085,282.0248 147.4872,282.0046 151.9658,281.9738 156.4444,281.9316 160.9231,281.8768 165.4017,281.8126 169.8803,281.7537 174.359,281.7306 178.8376,281.7977 183.3162,282.066 187.7949,282.3181 192.2735,282.5557 196.7521,282.7803 201.2308,282.9935 205.7094,283.1968 210.188,283.3916 214.6667,283.5793 219.1453,283.761 223.6239,283.938 228.1026,284.1113 232.5812,284.2782 237.0598,284.4285 241.5385,284.5457 246.0171,284.6029 250.4957,284.6898 254.9744,284.8049 259.453,284.9417 263.9316,285.0788 268.4103,285.1766 272.8889,285.1687 277.3675,284.9062 281.8462,284.6705 286.3248,284.4583 290.8034,284.2667 295.2821,284.0932 299.7607,283.9356 304.2393,283.7917 308.7179,283.6598 313.1966,283.5383 317.6752,283.4258 322.1538,283.321 326.6325,283.2229 331.1111,283.1306 335.5897,283.0445 340.0684,282.9652 344.547,282.8938 349.0256,282.831 353.5043,282.7775 357.9829,282.7149 362.4615,282.6431 366.9402,282.5617 371.4188,282.4697 375.8974,282.3655 380.3761,282.2469 384.8547,282.126 389.3333,282.0545 393.812,282.1403 398.2906,282.5975 402.7692,282.8894 407.2479,282.9722 411.7265,283.0501 416.2051,283.1216 420.6838,283.1907 425.1624,283.2696 429.641,283.3875 434.1197,283.5006 438.5983,283.5993 443.0769,283.6639 447.5556,283.6641 452.0342,283.5517 456.5128,283.4715 460.9915,283.4379 465.4701,283.4882 469.9487,283.5372 474.4274,283.5861 478.906,283.6353 483.3846,283.6852 487.8632,283.7364 492.3419,283.789 496.8205,283.8436 501.2991,283.9007 505.7778,283.9608 510.2564,284.0206 514.735,284.0644 519.2137,284.0621 523.6923,283.9629 528.1709,283.8985 532.6496,283.8804 537.1282,283.8631 541.6068,283.8346 546.0855,283.7459 550.5641,283.4599 555.0427,283.1452 559.5214,282.8595 564,282.646 568.4786,282.5766 572.9573,282.8202 577.4359,282.994 581.9145,283.1067 586.3932,283.1493 590.8718,283.16 595.3504,283.128 599.8291,283.1054 604.3077,283.111 608.7863,283.1595 613.265,283.1969 617.7436,283.1613 622.2222,283.1928"></polyline>
<polyline id="error-cup" class="cup error" points=" 40,259.1737 44.4786,259.6309 48.9573,260.2124 53.4359,260.9748 57.9145,261.7559 62.3932,262.537 66.8718,263.2842 71.3504,263.951 75.8291,264.4784 80.3077,264.7856 84.7863,264.7367 89.265,264.031 93.7436,263.4419 98.2222,262.9603 102.7009,262.5777 107.1795,262.2863 111.6581,262.0786 116.1368,261.9481 120.6154,261.8886 125.094,261.8946 129.5726,261.9609 134.0513,262.0833 138.5299,262.2579 143.0085,262.4812 147.4872,262.7505 151.9658,263.0635 156.4444,263.4183 160.9231,263.8137 165.4017,264.2411 169.8803,264.672 174.359,265.0533 178.8376,265.3015 183.3162,265.2743 187.7949,265.3398 192.2735,265.4883 196.7521,265.7119 201.2308,266.0044 205.7094,266.3612 210.188,266.7786 214.6667,267.2545 219.1453,267.7875 223.6239,268.3772 228.1026,269.0246 232.5812,269.7062 237.0598,270.3392 241.5385,270.7675 246.0171,270.7034 250.4957,270.8132 254.9744,271.0833 259.453,271.4845 263.9316,271.9371 268.4103,272.2963 272.8889,272.3228 277.3675,271.5145 281.8462,270.8525 286.3248,270.3186 290.8034,269.8977 295.2821,269.5771 299.7607,269.3459 304.2393,269.1949 308.7179,269.1163 313.1966,269.1034 317.6752,269.1506 322.1538,269.2531 326.6325,269.407 331.1111,269.6062 335.5897,269.8362 340.0684,270.071 344.547,270.2714 349.0256,270.3803 353.5043,270.3061 357.9829,270.2997 362.4615,270.3521 366.9402,270.4554 371.4188,270.6031 375.8974,270.7893 380.3761,271.0085 384.8547,271.26 389.3333,271.5559 393.812,271.9329 398.2906,272.4864 402.7692,272.8508 407.2479,272.8981 411.7265,273.0386 416.2051,273.2541 420.6838,273.5073 425.1624,273.7353 429.641,273.8367 434.1197,274.0308 438.5983,274.2831 443.0769,274.5381 447.5556,274.7097 452.0342,274.6523 456.5128,274.6376 460.9915,274.5701 465.4701,274.2802 469.9487,274.0698 474.4274,273.9336 478.906,273.867 483.3846,273.8656 487.8632,273.9258 492.3419,274.0442 496.8205,274.2182 501.2991,274.4453 505.7778,274.7239 510.2564,275.0429 514.735,275.366 519.2137,275.6214 523.6923,275.6844 528.1709,275.799 532.6496,275.9182 537.1282,276.117 541.6068,276.3509 546.0855,276.4709 550.5641,276.1166 555.0427,275.8312 559.5214,275.6661 564,275.5972 568.4786,275.5983 572.9573,275.6491 577.4359,275.7572 581.9145,275.8759 586.3932,275.9214 590.8718,275.9815 595.3504,275.9835 599.8291,276.0379 604.3077,276.1162 608.7863,276.1544 613.265,276.104 617.7436,275.7392 622.2222,275.3442 622.2222,291.0415 617.7436,290.5835 613.265,290.2898 608.7863,290.1645 604.3077,290.1057 599.8291,290.1729 595.3504,290.2726 590.8718,290.3385 586.3932,290.3771 581.9145,290.3376 577.4359,290.2307 572.9573,289.9914 568.4786,289.5549 564,289.6949 559.5214,290.0529 555.0427,290.4593 550.5641,290.8031 546.0855,291.0209 541.6068,291.3182 537.1282,291.6092 532.6496,291.8426 528.1709,291.9981 523.6923,292.2414 519.2137,292.5028 514.735,292.7627 510.2564,292.9982 505.7778,293.1978 501.2991,293.356 496.8205,293.469 492.3419,293.5338 487.8632,293.547 483.3846,293.5049 478.906,293.4035 474.4274,293.2385 469.9487,293.0047 465.4701,292.6961 460.9915,292.3057 456.5128,292.3054 452.0342,292.4511 447.5556,292.6185 443.0769,292.7896 438.5983,292.9155 434.1197,292.9705 429.641,292.9383 425.1624,292.8039 420.6838,292.8741 416.2051,292.9892 411.7265,293.0615 407.2479,293.0463 402.7692,292.928 398.2906,292.7087 393.812,292.3477 389.3333,292.553 384.8547,292.992 380.3761,293.4852 375.8974,293.9417 371.4188,294.3362 366.9402,294.6679 362.4615,294.9341 357.9829,295.1301 353.5043,295.249 349.0256,295.2817 344.547,295.5162 340.0684,295.8595 335.5897,296.2528 331.1111,296.655 326.6325,297.0387 322.1538,297.389 317.6752,297.7011 313.1966,297.9732 308.7179,298.2033 304.2393,298.3884 299.7607,298.5253 295.2821,298.6094 290.8034,298.6357 286.3248,298.5979 281.8462,298.4884 277.3675,298.2979 272.8889,298.0145 268.4103,298.0568 263.9316,298.2205 259.453,298.399 254.9744,298.5266 250.4957,298.5663 246.0171,298.5023 241.5385,298.3238 237.0598,298.5177 232.5812,298.8502 228.1026,299.1981 223.6239,299.4988 219.1453,299.7346 214.6667,299.9041 210.188,300.0046 205.7094,300.0325 201.2308,299.9826 196.7521,299.8487 192.2735,299.6231 187.7949,299.2964 183.3162,298.8577 178.8376,298.2939 174.359,298.4078 169.8803,298.8354 165.4017,299.3842 160.9231,299.94 156.4444,300.4449 151.9658,300.8842 147.4872,301.2587 143.0085,301.5684 138.5299,301.8126 134.0513,301.9895 129.5726,302.0966 125.094,302.1309 120.6154,302.0884 116.1368,301.9647 111.6581,301.7547 107.1795,301.4527 102.7009,301.0525 98.2222,300.5475 93.7436,299.9303 89.265,299.1937 84.7863,298.3297 80.3077,298.2406 75.8291,298.5672 71.3504,299.1497 66.8718,299.8942 62.3932,300.7324 57.9145,301.6101 53.4359,302.4876 48.9573,303.3428 44.4786,304.0127 40,304.554"></polyline>
<text class = "party cup" x="631.1111" y="298"><tspan class="party_name">CUP</tspan><tspan class="party_result"> (6.2±1.0%)</tspan></text>
<polyline id="media-erc"  class="erc media" points=" 40,133.245 44.4786,133.4331 48.9573,133.6386 53.4359,133.8629 57.9145,134.1038 62.3932,134.35 66.8718,134.5813 71.3504,134.7691 75.8291,134.8763 80.3077,134.8488 84.7863,134.5864 89.265,133.8416 93.7436,133.1025 98.2222,132.3724 102.7009,131.6535 107.1795,130.9472 111.6581,130.2538 116.1368,129.5732 120.6154,128.9044 125.094,128.2462 129.5726,127.5966 134.0513,126.9533 138.5299,126.3138 143.0085,125.6749 147.4872,125.0331 151.9658,124.3845 156.4444,123.7246 160.9231,123.0483 165.4017,122.3697 169.8803,121.7524 174.359,121.3215 178.8376,121.2904 183.3162,122.0863 187.7949,122.7903 192.2735,123.4153 196.7521,123.9728 201.2308,124.4734 205.7094,124.9271 210.188,125.3428 214.6667,125.729 219.1453,126.0938 223.6239,126.4449 228.1026,126.7902 232.5812,127.12 237.0598,127.3818 241.5385,127.4675 246.0171,127.1523 250.4957,126.907 254.9744,126.7281 259.453,126.6076 263.9316,126.5171 268.4103,126.3968 272.8889,126.1341 277.3675,125.4628 281.8462,124.7846 286.3248,124.0978 290.8034,123.3998 295.2821,122.6875 299.7607,121.9574 304.2393,121.2055 308.7179,120.4272 313.1966,119.6171 317.6752,118.7694 322.1538,117.8769 326.6325,116.9313 331.1111,115.9422 335.5897,114.9701 340.0684,114.1418 344.547,113.6631 349.0256,113.8552 353.5043,115.2825 357.9829,116.4671 362.4615,117.4417 366.9402,118.2333 371.4188,118.8641 375.8974,119.3521 380.3761,119.7122 384.8547,119.9702 389.3333,120.1908 393.812,120.4998 398.2906,121.1402 402.7692,121.4121 407.2479,121.1541 411.7265,120.8595 416.2051,120.5195 420.6838,120.1282 425.1624,119.6684 429.641,119.0808 434.1197,118.373 438.5983,117.6336 443.0769,117.0502 447.5556,116.9462 452.0342,117.9036 456.5128,118.7325 460.9915,119.7729 465.4701,121.7443 469.9487,123.6502 474.4274,125.4822 478.906,127.2333 483.3846,128.8971 487.8632,130.4687 492.3419,131.9439 496.8205,133.3199 501.2991,134.5942 505.7778,135.7655 510.2564,136.8218 514.735,137.7286 519.2137,138.4274 523.6923,138.8269 528.1709,139.171 532.6496,139.4228 537.1282,139.5688 541.6068,139.6918 546.0855,140.2782 550.5641,142.7013 555.0427,144.9749 559.5214,147.003 564,148.6002 568.4786,149.4678 572.9573,148.9064 577.4359,148.711 581.9145,148.7613 586.3932,148.9566 590.8718,149.0931 595.3504,148.9468 599.8291,148.9372 604.3077,149.0805 608.7863,149.4214 613.265,149.656 617.7436,149.6298 622.2222,149.4825"></polyline>
<polyline id="error-erc" class="erc error" points=" 40,91.4141 44.4786,92.2336 48.9573,93.38 53.4359,94.9979 57.9145,96.6747 62.3932,98.3639 66.8718,99.9806 71.3504,101.4067 75.8291,102.4907 80.3077,103.0202 84.7863,102.6295 89.265,100.4863 93.7436,98.5681 98.2222,96.8608 102.7009,95.3511 107.1795,94.0259 111.6581,92.8729 116.1368,91.88 120.6154,91.0358 125.094,90.3298 129.5726,89.7519 134.0513,89.293 138.5299,88.9445 143.0085,88.6987 147.4872,88.5488 151.9658,88.4885 156.4444,88.5126 160.9231,88.6165 165.4017,88.7945 169.8803,89.0345 174.359,89.313 178.8376,89.5959 183.3162,89.8573 187.7949,90.2203 192.2735,90.6766 196.7521,91.2209 201.2308,91.8505 205.7094,92.5643 210.188,93.3634 214.6667,94.2504 219.1453,95.2295 223.6239,96.3071 228.1026,97.4915 232.5812,98.7375 237.0598,99.862 241.5385,100.5025 246.0171,99.9573 250.4957,99.7419 254.9744,99.8314 259.453,100.1781 263.9316,100.6501 268.4103,100.998 272.8889,100.795 277.3675,99.138 281.8462,97.6939 286.3248,96.4312 290.8034,95.3239 295.2821,94.3496 299.7607,93.4891 304.2393,92.7251 308.7179,92.0424 313.1966,91.4265 317.6752,90.8642 322.1538,90.3426 326.6325,89.8491 331.1111,89.3838 335.5897,88.9818 340.0684,88.7233 344.547,88.7428 349.0256,89.2583 353.5043,90.6709 357.9829,91.9801 362.4615,93.202 366.9402,94.3507 371.4188,95.4388 375.8974,96.4773 380.3761,97.4761 384.8547,98.4372 389.3333,99.3496 393.812,100.2 398.2906,100.9962 402.7692,101.3869 407.2479,101.0534 411.7265,100.8674 416.2051,100.7887 420.6838,100.7347 425.1624,100.5454 429.641,99.9119 434.1197,99.3415 438.5983,98.8781 443.0769,98.6455 447.5556,98.8663 452.0342,99.946 456.5128,100.9137 460.9915,101.903 465.4701,103.2472 469.9487,104.6812 474.4274,106.1831 478.906,107.7341 483.3846,109.3187 487.8632,110.9234 492.3419,112.537 496.8205,114.1504 501.2991,115.7561 505.7778,117.3483 510.2564,118.902 514.735,120.3441 519.2137,121.5386 523.6923,122.2564 528.1709,122.9481 532.6496,123.4648 537.1282,124.0248 541.6068,124.6517 546.0855,125.6484 550.5641,127.983 555.0427,130.3545 559.5214,132.6501 564,134.5512 568.4786,135.5661 572.9573,134.6189 577.4359,134.2871 581.9145,134.3429 586.3932,134.5438 590.8718,134.7751 595.3504,134.6934 599.8291,134.8316 604.3077,135.1148 608.7863,135.4371 613.265,135.5049 617.7436,134.8548 622.2222,133.8972 622.2222,165.0678 617.7436,164.4047 613.265,163.807 608.7863,163.4057 604.3077,163.0462 599.8291,163.0428 595.3504,163.2001 590.8718,163.4112 586.3932,163.3695 581.9145,163.1797 577.4359,163.135 572.9573,163.194 568.4786,163.3694 564,162.6493 559.5214,161.3559 555.0427,159.5953 550.5641,157.4197 546.0855,154.908 541.6068,154.7319 537.1282,155.1128 532.6496,155.3809 528.1709,155.394 523.6923,155.3974 519.2137,155.3161 514.735,155.1132 510.2564,154.7416 505.7778,154.1826 501.2991,153.4324 496.8205,152.4893 492.3419,151.3508 487.8632,150.0139 483.3846,148.4755 478.906,146.7324 474.4274,144.7814 469.9487,142.6191 465.4701,140.2414 460.9915,137.6428 456.5128,136.5513 452.0342,135.8612 447.5556,135.026 443.0769,135.4548 438.5983,136.3891 434.1197,137.4045 429.641,138.2497 425.1624,138.7914 420.6838,139.5216 416.2051,140.2503 411.7265,140.8516 407.2479,141.2547 402.7692,141.4372 398.2906,141.2842 393.812,140.7997 389.3333,141.032 384.8547,141.5032 380.3761,141.9484 375.8974,142.227 371.4188,142.2893 366.9402,142.1159 362.4615,141.6814 357.9829,140.9541 353.5043,139.8941 349.0256,138.452 344.547,138.5833 340.0684,139.5603 335.5897,140.9584 331.1111,142.5007 326.6325,144.0135 322.1538,145.4112 317.6752,146.6746 313.1966,147.8078 308.7179,148.812 304.2393,149.6858 299.7607,150.4257 295.2821,151.0254 290.8034,151.4757 286.3248,151.7644 281.8462,151.8754 277.3675,151.7876 272.8889,151.4733 268.4103,151.7957 263.9316,152.3842 259.453,153.0372 254.9744,153.6248 250.4957,154.072 246.0171,154.3473 241.5385,154.4325 237.0598,154.9017 232.5812,155.5025 228.1026,156.0889 223.6239,156.5827 219.1453,156.958 214.6667,157.2076 210.188,157.3222 205.7094,157.2899 201.2308,157.0964 196.7521,156.7246 192.2735,156.154 187.7949,155.3604 183.3162,154.3152 178.8376,152.985 174.359,153.33 169.8803,154.4703 165.4017,155.9449 160.9231,157.4801 156.4444,158.9366 151.9658,160.2804 147.4872,161.5174 143.0085,162.651 138.5299,163.6831 134.0513,164.6136 129.5726,165.4412 125.094,166.1625 120.6154,166.7731 116.1368,167.2664 111.6581,167.6348 107.1795,167.8685 102.7009,167.956 98.2222,167.884 93.7436,167.6369 89.265,167.1968 84.7863,166.5433 80.3077,166.6775 75.8291,167.262 71.3504,168.1314 66.8718,169.182 62.3932,170.3362 57.9145,171.5329 53.4359,172.7279 48.9573,173.8972 44.4786,174.6326 40,175.0759"></polyline>
<text class = "party erc" x="631.1111" y="143"><tspan class="party_name">ERC</tspan><tspan class="party_result"> (22.8±1.9%)</tspan></text>
<polyline id="media-jxcat"  class="jxcat media" points=" 40,221.3193 44.4786,221.3675 48.9573,221.4114 53.4359,221.4506 57.9145,221.4848 62.3932,221.5144 66.8718,221.5413 71.3504,221.5687 75.8291,221.6019 80.3077,221.6493 84.7863,221.7271 89.265,221.8746 93.7436,222.0333 98.2222,222.2026 102.7009,222.3816 107.1795,222.5697 111.6581,222.7664 116.1368,222.9712 120.6154,223.1837 125.094,223.4036 129.5726,223.6308 134.0513,223.865 138.5299,224.1063 143.0085,224.3548 147.4872,224.6106 151.9658,224.8742 156.4444,225.1458 160.9231,225.426 165.4017,225.709 169.8803,225.9732 174.359,226.1787 178.8376,226.2605 183.3162,226.0931 187.7949,225.9676 192.2735,225.879 196.7521,225.8226 201.2308,225.7939 205.7094,225.7887 210.188,225.8031 214.6667,225.833 219.1453,225.8746 223.6239,225.9235 228.1026,225.9753 232.5812,226.0321 237.0598,226.115 241.5385,226.2781 246.0171,226.6484 250.4957,227.025 254.9744,227.4073 259.453,227.7885 263.9316,228.1492 268.4103,228.4616 272.8889,228.6908 277.3675,228.7737 281.8462,228.925 286.3248,229.1405 290.8034,229.4168 295.2821,229.7518 299.7607,230.144 304.2393,230.5929 308.7179,231.0989 313.1966,231.6634 317.6752,232.2885 322.1538,232.9775 326.6325,233.7351 331.1111,234.5509 335.5897,235.3718 340.0684,236.089 344.547,236.5282 349.0256,236.4199 353.5043,235.2943 357.9829,234.3939 362.4615,233.6913 366.9402,233.1634 371.4188,232.791 375.8974,232.5578 380.3761,232.4502 384.8547,232.4489 389.3333,232.5168 393.812,232.5961 398.2906,232.5993 402.7692,232.6697 407.2479,232.7771 411.7265,233.0465 416.2051,233.4536 420.6838,233.8718 425.1624,234.0325 429.641,233.4204 434.1197,233.0868 438.5983,232.9633 443.0769,232.9321 447.5556,232.7898 452.0342,232.1558 456.5128,231.5324 460.9915,230.5007 465.4701,228.143 469.9487,225.8554 474.4274,223.6511 478.906,221.5411 483.3846,219.5347 487.8632,217.6396 492.3419,215.8617 496.8205,214.2055 501.2991,212.6737 505.7778,211.2683 510.2564,210.002 514.735,208.9125 519.2137,208.0688 523.6923,207.5906 528.1709,207.2253 532.6496,207.0829 537.1282,206.9893 541.6068,206.8799 546.0855,206.3624 550.5641,204.3174 555.0427,202.3235 559.5214,200.5742 564,199.0766 568.4786,197.7831 572.9573,196.5474 577.4359,195.2487 581.9145,194.0528 586.3932,193.1745 590.8718,192.3974 595.3504,191.9016 599.8291,191.3684 604.3077,190.8158 608.7863,190.2241 613.265,189.7202 617.7436,189.3251 622.2222,189.3941"></polyline>
<polyline id="error-jxcat" class="jxcat error" points=" 40,183.3338 44.4786,183.9512 48.9573,184.8564 53.4359,186.1854 57.9145,187.5463 62.3932,188.9073 66.8718,190.2111 71.3504,191.3791 75.8291,192.3121 80.3077,192.8748 84.7863,192.8417 89.265,191.7193 93.7436,190.81 98.2222,190.0976 102.7009,189.5669 107.1795,189.2044 111.6581,188.9976 116.1368,188.9352 120.6154,189.007 125.094,189.2042 129.5726,189.5188 134.0513,189.9443 138.5299,190.4752 143.0085,191.1071 147.4872,191.8369 151.9658,192.6626 156.4444,193.5838 160.9231,194.601 165.4017,195.6897 169.8803,196.7569 174.359,197.6238 178.8376,197.9951 183.3162,197.3218 187.7949,196.8691 192.2735,196.613 196.7521,196.5333 201.2308,196.6131 205.7094,196.8381 210.188,197.1965 214.6667,197.6787 219.1453,198.2767 223.6239,198.9845 228.1026,199.7978 232.5812,200.6859 237.0598,201.5526 241.5385,202.224 246.0171,202.4013 250.4957,202.8204 254.9744,203.4608 259.453,204.2791 263.9316,205.1617 268.4103,205.9088 272.8889,206.2024 277.3675,205.4056 281.8462,204.8779 286.3248,204.5886 290.8034,204.5133 295.2821,204.6324 299.7607,204.93 304.2393,205.3938 308.7179,206.0141 313.1966,206.7839 317.6752,207.6987 322.1538,208.7564 326.6325,209.9574 331.1111,211.2821 335.5897,212.6518 340.0684,213.9106 344.547,214.8134 349.0256,214.9874 353.5043,213.7973 357.9829,212.9667 362.4615,212.4523 366.9402,212.2186 371.4188,212.2369 375.8974,212.4836 380.3761,212.9399 384.8547,213.5637 389.3333,214.2484 393.812,214.809 398.2906,214.9444 402.7692,215.1196 407.2479,215.1652 411.7265,215.5412 416.2051,216.1946 420.6838,216.9272 425.1624,217.3367 429.641,216.675 434.1197,216.4624 438.5983,216.5884 443.0769,216.8733 447.5556,217.0167 452.0342,216.4676 456.5128,215.9454 460.9915,214.8351 465.4701,211.8452 469.9487,209.0631 474.4274,206.4915 478.906,204.1333 483.3846,201.9909 487.8632,200.0654 492.3419,198.3573 496.8205,196.8661 501.2991,195.5906 505.7778,194.5288 510.2564,193.6822 514.735,193.0539 519.2137,192.6433 523.6923,192.4452 528.1709,192.3901 532.6496,192.4868 537.1282,192.7719 541.6068,193.124 546.0855,192.9704 550.5641,190.7868 555.0427,188.829 559.5214,187.2808 564,186.0277 568.4786,184.8441 572.9573,183.2345 577.4359,181.7906 581.9145,180.5815 586.3932,179.6934 590.8718,178.9927 595.3504,178.552 599.8291,178.1503 604.3077,177.7202 608.7863,177.0991 613.265,176.4285 617.7436,175.4392 622.2222,174.7457 622.2222,204.0424 617.7436,203.2111 613.265,203.0119 608.7863,203.3491 604.3077,203.9114 599.8291,204.5864 595.3504,205.2511 590.8718,205.8022 586.3932,206.6555 581.9145,207.524 577.4359,208.7069 572.9573,209.8603 568.4786,210.7221 564,212.1254 559.5214,213.8676 555.0427,215.8179 550.5641,217.848 546.0855,219.7543 541.6068,220.6359 537.1282,221.2067 532.6496,221.6789 528.1709,222.0605 523.6923,222.7359 519.2137,223.4944 514.735,224.7712 510.2564,226.3218 505.7778,228.0078 501.2991,229.7569 496.8205,231.5448 492.3419,233.3662 487.8632,235.2138 483.3846,237.0786 478.906,238.9488 474.4274,240.8107 469.9487,242.6478 465.4701,244.4407 460.9915,246.1662 456.5128,247.1194 452.0342,247.8441 447.5556,248.563 443.0769,248.9909 438.5983,249.3383 434.1197,249.7112 429.641,250.1659 425.1624,250.7282 420.6838,250.8164 416.2051,250.7125 411.7265,250.5519 407.2479,250.3891 402.7692,250.2199 398.2906,250.2543 393.812,250.3831 389.3333,250.7852 384.8547,251.3341 380.3761,251.9605 375.8974,252.632 371.4188,253.345 366.9402,254.1081 362.4615,254.9303 357.9829,255.8211 353.5043,256.7912 349.0256,257.8524 344.547,258.243 340.0684,258.2674 335.5897,258.0918 331.1111,257.8196 326.6325,257.5127 322.1538,257.1986 317.6752,256.8783 313.1966,256.5429 308.7179,256.1838 304.2393,255.792 299.7607,255.3579 295.2821,254.8711 290.8034,254.3203 286.3248,253.6923 281.8462,252.9722 277.3675,252.1418 272.8889,251.1792 268.4103,251.0144 263.9316,251.1368 259.453,251.2979 254.9744,251.3539 250.4957,251.2296 246.0171,250.8956 241.5385,250.3323 237.0598,250.6775 232.5812,251.3783 228.1026,252.1529 223.6239,252.8624 219.1453,253.4724 214.6667,253.9874 210.188,254.4097 205.7094,254.7393 201.2308,254.9746 196.7521,255.1118 192.2735,255.145 187.7949,255.0661 183.3162,254.8644 178.8376,254.5258 174.359,254.7336 169.8803,255.1896 165.4017,255.7284 160.9231,256.251 156.4444,256.7078 151.9658,257.0857 147.4872,257.3844 143.0085,257.6025 138.5299,257.7374 134.0513,257.7856 129.5726,257.7427 125.094,257.6031 120.6154,257.3605 116.1368,257.0073 111.6581,256.5353 107.1795,255.935 102.7009,255.1963 98.2222,254.3076 93.7436,253.2566 89.265,252.0299 84.7863,250.6125 80.3077,250.4239 75.8291,250.8918 71.3504,251.7583 66.8718,252.8714 62.3932,254.1214 57.9145,255.4233 53.4359,256.7159 48.9573,257.9664 44.4786,258.7838 40,259.3049"></polyline>
<text class = "party jxcat" x="631.1111" y="189"><tspan class="party_name">JxCAT</tspan><tspan class="party_result"> (17.8±1.8%)</tspan></text>
<polyline id="media-cec"  class="cec media" points=" 40,244.1454 44.4786,243.8078 48.9573,243.4538 53.4359,243.0827 57.9145,242.6979 62.3932,242.3134 66.8718,241.9529 71.3504,241.6475 75.8291,241.4361 80.3077,241.3736 84.7863,241.5599 89.265,242.2426 93.7436,242.8909 98.2222,243.501 102.7009,244.0707 107.1795,244.5986 111.6581,245.0842 116.1368,245.5279 120.6154,245.9303 125.094,246.2929 129.5726,246.617 134.0513,246.9044 138.5299,247.157 143.0085,247.3767 147.4872,247.5657 151.9658,247.7261 156.4444,247.8602 160.9231,247.9703 165.4017,248.0572 169.8803,248.1182 174.359,248.1452 178.8376,248.1218 183.3162,248.0091 187.7949,247.8782 192.2735,247.7257 196.7521,247.5487 201.2308,247.3443 205.7094,247.1099 210.188,246.8427 214.6667,246.5399 219.1453,246.1986 223.6239,245.8154 228.1026,245.3866 232.5812,244.935 237.0598,244.5492 241.5385,244.4032 246.0171,244.8441 250.4957,245.1465 254.9744,245.3182 259.453,245.3763 263.9316,245.3678 268.4103,245.3811 272.8889,245.5674 277.3675,246.2602 281.8462,246.8899 286.3248,247.4558 290.8034,247.9582 295.2821,248.3979 299.7607,248.7759 304.2393,249.0932 308.7179,249.351 313.1966,249.5498 317.6752,249.6901 322.1538,249.7717 326.6325,249.7937 331.1111,249.7614 335.5897,249.6974 340.0684,249.6496 344.547,249.6967 349.0256,249.9628 353.5043,250.6666 357.9829,251.275 362.4615,251.7965 366.9402,252.2383 371.4188,252.6069 375.8974,252.9082 380.3761,253.1476 384.8547,253.3246 389.3333,253.4251 393.812,253.4141 398.2906,253.211 402.7692,253.2185 407.2479,253.5946 411.7265,253.8796 416.2051,254.0842 420.6838,254.27 425.1624,254.5796 429.641,255.3062 434.1197,255.9309 438.5983,256.4696 443.0769,256.9554 447.5556,257.4448 452.0342,258.0381 456.5128,258.5614 460.9915,259.035 465.4701,259.5227 469.9487,260.0526 474.4274,260.6108 478.906,261.1861 483.3846,261.7697 487.8632,262.3546 492.3419,262.9352 496.8205,263.5071 501.2991,264.0673 505.7778,264.6137 510.2564,265.1377 514.735,265.6149 519.2137,266.0065 523.6923,266.2609 528.1709,266.5925 532.6496,267.0521 537.1282,267.5779 541.6068,268.109 546.0855,268.3945 550.5641,267.8137 555.0427,267.4204 559.5214,267.1501 564,267.0064 568.4786,267.0373 572.9573,267.4003 577.4359,267.7001 581.9145,267.8611 586.3932,267.7386 590.8718,267.6648 595.3504,267.6775 599.8291,267.7317 604.3077,267.8702 608.7863,268.165 613.265,268.3465 617.7436,268.3197 622.2222,268.1882"></polyline>
<polyline id="error-cec" class="cec error" points=" 40,217.2445 44.4786,217.4358 48.9573,217.7677 53.4359,218.3097 57.9145,218.864 62.3932,219.4215 66.8718,219.9643 71.3504,220.4659 75.8291,220.8917 80.3077,221.1955 84.7863,221.3077 89.265,221.102 93.7436,221.0054 98.2222,221.0029 102.7009,221.082 107.1795,221.2318 111.6581,221.4434 116.1368,221.709 120.6154,222.0227 125.094,222.3792 129.5726,222.7746 134.0513,223.2061 138.5299,223.6714 143.0085,224.1695 147.4872,224.7001 151.9658,225.2636 156.4444,225.8617 160.9231,226.4967 165.4017,227.1562 169.8803,227.7868 174.359,228.282 178.8376,228.4623 183.3162,227.988 187.7949,227.6212 192.2735,227.345 196.7521,227.1455 201.2308,227.011 205.7094,226.9316 210.188,226.8991 214.6667,226.9067 219.1453,226.9486 223.6239,227.0201 228.1026,227.1176 232.5812,227.2415 237.0598,227.3993 241.5385,227.6072 246.0171,227.9177 250.4957,228.2527 254.9744,228.606 259.453,228.9693 263.9316,229.3246 268.4103,229.6414 272.8889,229.8749 277.3675,229.9629 281.8462,230.1277 286.3248,230.3495 290.8034,230.6135 295.2821,230.9078 299.7607,231.2234 304.2393,231.5527 308.7179,231.8896 313.1966,232.2289 317.6752,232.5661 322.1538,232.8972 326.6325,233.2185 331.1111,233.5288 335.5897,233.8351 340.0684,234.1557 344.547,234.525 349.0256,235.0036 353.5043,235.7095 357.9829,236.4072 362.4615,237.0943 366.9402,237.7697 371.4188,238.4337 375.8974,239.0873 380.3761,239.7328 384.8547,240.354 389.3333,240.8886 393.812,241.2128 398.2906,241.0961 402.7692,241.1759 407.2479,241.518 411.7265,241.881 416.2051,242.2567 420.6838,242.6603 425.1624,243.1498 429.641,243.8727 434.1197,244.605 438.5983,245.3343 443.0769,246.0534 447.5556,246.7563 452.0342,247.4347 456.5128,248.0519 460.9915,248.5004 465.4701,248.6047 469.9487,248.8472 474.4274,249.2058 478.906,249.6625 483.3846,250.2026 487.8632,250.8137 492.3419,251.4857 496.8205,252.2102 501.2991,252.9806 505.7778,253.7919 510.2564,254.627 514.735,255.4372 519.2137,256.1359 523.6923,256.5875 528.1709,257.1362 532.6496,257.7664 537.1282,258.5548 541.6068,259.4017 546.0855,259.9365 550.5641,259.2724 555.0427,258.9132 559.5214,258.7838 564,258.8092 568.4786,258.924 572.9573,259.0671 577.4359,259.2935 581.9145,259.4615 586.3932,259.338 590.8718,259.3185 595.3504,259.3715 599.8291,259.516 604.3077,259.7412 608.7863,260.0298 613.265,260.114 617.7436,259.7111 622.2222,259.0879 622.2222,277.2884 617.7436,276.9282 613.265,276.5789 608.7863,276.3002 604.3077,275.9992 599.8291,275.9474 595.3504,275.9835 590.8718,276.0111 586.3932,276.1392 581.9145,276.2606 577.4359,276.1068 572.9573,275.7336 568.4786,275.1506 564,275.2037 559.5214,275.5164 555.0427,275.9277 550.5641,276.355 546.0855,276.8524 541.6068,276.8162 537.1282,276.6009 532.6496,276.3377 528.1709,276.0489 523.6923,275.9343 519.2137,275.8771 514.735,275.7927 510.2564,275.6484 505.7778,275.4355 501.2991,275.1541 496.8205,274.8041 492.3419,274.3847 487.8632,273.8955 483.3846,273.3368 478.906,272.7096 474.4274,272.0157 469.9487,271.258 465.4701,270.4407 460.9915,269.5696 456.5128,269.071 452.0342,268.6415 447.5556,268.1332 443.0769,267.8574 438.5983,267.6049 434.1197,267.2567 429.641,266.7397 425.1624,266.0094 420.6838,265.8797 416.2051,265.9116 411.7265,265.8781 407.2479,265.6713 402.7692,265.261 398.2906,265.3258 393.812,265.6154 389.3333,265.9616 384.8547,266.2952 380.3761,266.5624 375.8974,266.7291 371.4188,266.7801 366.9402,266.7068 362.4615,266.4987 357.9829,266.1429 353.5043,265.6237 349.0256,264.922 344.547,264.8683 340.0684,265.1435 335.5897,265.5597 331.1111,265.9939 326.6325,266.369 322.1538,266.6462 317.6752,266.8142 313.1966,266.8708 308.7179,266.8124 304.2393,266.6338 299.7607,266.3283 295.2821,265.8879 290.8034,265.303 286.3248,264.5621 281.8462,263.6521 277.3675,262.5574 272.8889,261.2599 268.4103,261.1209 263.9316,261.411 259.453,261.7832 254.9744,262.0304 250.4957,262.0403 246.0171,261.7705 241.5385,261.1993 237.0598,261.6991 232.5812,262.6284 228.1026,263.6556 223.6239,264.6107 219.1453,265.4487 214.6667,266.1732 210.188,266.7863 205.7094,267.2882 201.2308,267.6777 196.7521,267.9519 192.2735,268.1064 187.7949,268.1351 183.3162,268.0302 178.8376,267.7814 174.359,268.0084 169.8803,268.4495 165.4017,268.9582 160.9231,269.4438 156.4444,269.8588 151.9658,270.1887 147.4872,270.4314 143.0085,270.5839 138.5299,270.6425 134.0513,270.6027 129.5726,270.4594 125.094,270.2066 120.6154,269.838 116.1368,269.3467 111.6581,268.725 107.1795,267.9653 102.7009,267.0594 98.2222,265.9991 93.7436,264.7764 89.265,263.3832 84.7863,261.8122 80.3077,261.5516 75.8291,261.9806 71.3504,262.8291 66.8718,263.9415 62.3932,265.2054 57.9145,266.5318 53.4359,267.8556 48.9573,269.14 44.4786,270.1798 40,271.0462"></polyline>
<text class = "party cec" x="631.1111" y="257"><tspan class="party_name">CeC</tspan><tspan class="party_result"> (8.1±1.1%)</tspan></text>
<polyline id="media-psc"  class="psc media" points=" 40,222.5822 44.4786,222.584 48.9573,222.5806 53.4359,222.5712 57.9145,222.556 62.3932,222.5373 66.8718,222.5204 71.3504,222.5134 75.8291,222.5279 80.3077,222.5818 84.7863,222.7089 89.265,222.9931 93.7436,223.2918 98.2222,223.6048 102.7009,223.932 107.1795,224.2738 111.6581,224.6308 116.1368,225.0039 120.6154,225.3945 125.094,225.8043 129.5726,226.2351 134.0513,226.6894 138.5299,227.1703 143.0085,227.6809 147.4872,228.2254 151.9658,228.8085 156.4444,229.4358 160.9231,230.1138 165.4017,230.823 169.8803,231.4749 174.359,231.8923 178.8376,231.7682 183.3162,230.4848 187.7949,229.3253 192.2735,228.2762 196.7521,227.325 201.2308,226.46 205.7094,225.6703 210.188,224.9459 214.6667,224.2771 219.1453,223.6551 223.6239,223.071 228.1026,222.5163 232.5812,222.0041 237.0598,221.5995 241.5385,221.4339 246.0171,221.7794 250.4957,222.0622 254.9744,222.2951 259.453,222.487 263.9316,222.6459 268.4103,222.782 272.8889,222.9129 277.3675,223.0781 281.8462,223.2616 286.3248,223.464 290.8034,223.6866 295.2821,223.9313 299.7607,224.2003 304.2393,224.4964 308.7179,224.8229 313.1966,225.1835 317.6752,225.5827 322.1538,226.0259 326.6325,226.5194 331.1111,227.0563 335.5897,227.5915 340.0684,228.0283 344.547,228.2078 349.0256,227.8785 353.5043,226.5955 357.9829,225.4851 362.4615,224.5247 366.9402,223.6951 371.4188,222.9802 375.8974,222.3665 380.3761,221.8424 384.8547,221.4031 389.3333,221.0546 393.812,220.8126 398.2906,220.7109 402.7692,220.4811 407.2479,220.0154 411.7265,219.5729 416.2051,219.1676 420.6838,218.8485 425.1624,218.7133 429.641,218.9535 434.1197,219.1805 438.5983,219.3721 443.0769,219.458 447.5556,219.3083 452.0342,218.6881 456.5128,218.1602 460.9915,217.6688 465.4701,217.0922 469.9487,216.4921 474.4274,215.8785 478.906,215.259 483.3846,214.6397 487.8632,214.0255 492.3419,213.4203 496.8205,212.8271 501.2991,212.248 505.7778,211.6848 510.2564,211.1381 514.735,210.6035 519.2137,210.0842 523.6923,209.6153 528.1709,209.3878 532.6496,209.69 537.1282,209.8933 541.6068,210.0042 546.0855,209.9693 550.5641,209.6026 555.0427,209.1767 559.5214,208.7669 564,208.4306 568.4786,208.2566 572.9573,208.4403 577.4359,208.4953 581.9145,208.453 586.3932,208.3825 590.8718,208.5088 595.3504,209.1401 599.8291,209.5946 604.3077,209.8178 608.7863,209.7227 613.265,209.7283 617.7436,210.0115 622.2222,210.2138"></polyline>
<polyline id="error-psc" class="psc error" points=" 40,188.5463 44.4786,189.1142 48.9573,189.917 53.4359,191.0646 57.9145,192.2393 62.3932,193.4144 66.8718,194.5422 71.3504,195.5576 75.8291,196.3788 80.3077,196.8953 84.7863,196.9251 89.265,196.0755 93.7436,195.4217 98.2222,194.9496 102.7009,194.6464 107.1795,194.5008 111.6581,194.5028 116.1368,194.6438 120.6154,194.9163 125.094,195.3141 129.5726,195.8326 134.0513,196.4684 138.5299,197.2195 143.0085,198.0852 147.4872,199.0668 151.9658,200.1671 156.4444,201.3905 160.9231,202.7441 165.4017,204.1907 169.8803,205.5754 174.359,206.5917 178.8376,206.7188 183.3162,204.9425 187.7949,203.4523 192.2735,202.2181 196.7521,201.2135 201.2308,200.4156 205.7094,199.8045 210.188,199.363 214.6667,199.0764 219.1453,198.9322 223.6239,198.9199 228.1026,199.0308 232.5812,199.2492 237.0598,199.5356 241.5385,199.8184 246.0171,199.99 250.4957,200.3092 254.9744,200.7708 259.453,201.3519 263.9316,201.9759 268.4103,202.4994 272.8889,202.686 277.3675,202.0605 281.8462,201.6331 286.3248,201.3804 290.8034,201.2849 295.2821,201.3326 299.7607,201.5132 304.2393,201.8187 308.7179,202.2435 313.1966,202.784 317.6752,203.4387 322.1538,204.2082 326.6325,205.0951 331.1111,206.0843 335.5897,207.1077 340.0684,208.0265 344.547,208.6178 349.0256,208.5371 353.5043,207.1899 357.9829,206.1357 362.4615,205.3375 366.9402,204.7652 371.4188,204.3944 375.8974,204.2049 380.3761,204.1807 384.8547,204.2969 389.3333,204.4976 393.812,204.6846 398.2906,204.7004 402.7692,204.5587 407.2479,204.0237 411.7265,203.6616 416.2051,203.462 420.6838,203.4125 425.1624,203.4974 429.641,203.7112 434.1197,204.0606 438.5983,204.4859 443.0769,204.8617 447.5556,204.9715 452.0342,204.4288 456.5128,203.9948 460.9915,203.443 465.4701,202.3291 469.9487,201.3156 474.4274,200.4024 478.906,199.589 483.3846,198.8746 487.8632,198.258 492.3419,197.7378 496.8205,197.3123 501.2991,196.9798 505.7778,196.7389 510.2564,196.5795 514.735,196.4658 519.2137,196.3379 523.6923,196.1185 528.1709,196.17 532.6496,196.6935 537.1282,197.2398 541.6068,197.7659 546.0855,198.0627 550.5641,197.5958 555.0427,197.2233 559.5214,197.0095 564,196.9048 568.4786,196.8424 572.9573,196.7144 577.4359,196.6591 581.9145,196.6204 586.3932,196.5515 590.8718,196.7571 595.3504,197.4535 599.8291,198.0377 604.3077,198.3789 608.7863,198.2638 613.265,198.1295 617.7436,197.9014 622.2222,197.4379 622.2222,222.9898 617.7436,222.1216 613.265,221.3271 608.7863,221.1816 604.3077,221.2568 599.8291,221.1516 595.3504,220.8267 590.8718,220.2605 586.3932,220.2135 581.9145,220.2857 577.4359,220.3314 572.9573,220.1661 568.4786,219.6708 564,219.9563 559.5214,220.5243 555.0427,221.1302 550.5641,221.6094 546.0855,221.8759 541.6068,222.2424 537.1282,222.5468 532.6496,222.6866 528.1709,222.6057 523.6923,223.112 519.2137,223.8305 514.735,224.7412 510.2564,225.6967 505.7778,226.6307 501.2991,227.5162 496.8205,228.3419 492.3419,229.1029 487.8632,229.793 483.3846,230.4048 478.906,230.929 474.4274,231.3546 469.9487,231.6687 465.4701,231.8553 460.9915,231.8946 456.5128,232.3256 452.0342,232.9475 447.5556,233.6451 443.0769,234.0543 438.5983,234.2584 434.1197,234.3004 429.641,234.1959 425.1624,233.9293 420.6838,234.2846 416.2051,234.8732 411.7265,235.4841 407.2479,236.0071 402.7692,236.4035 398.2906,236.7215 393.812,236.9406 389.3333,237.6116 384.8547,238.5092 380.3761,239.504 375.8974,240.5281 371.4188,241.566 366.9402,242.6249 362.4615,243.7119 357.9829,244.8346 353.5043,246.001 349.0256,247.22 344.547,247.7979 340.0684,248.0302 335.5897,248.0753 331.1111,248.0283 326.6325,247.9436 322.1538,247.8436 317.6752,247.7267 313.1966,247.5829 308.7179,247.4022 304.2393,247.1741 299.7607,246.8874 295.2821,246.53 290.8034,246.0884 286.3248,245.5476 281.8462,244.8901 277.3675,244.0956 272.8889,243.1399 268.4103,243.0646 263.9316,243.3159 259.453,243.6221 254.9744,243.8193 250.4957,243.8153 246.0171,243.5688 241.5385,243.0494 237.0598,243.6633 232.5812,244.7591 228.1026,246.0018 223.6239,247.2221 219.1453,248.3779 214.6667,249.4778 210.188,250.5287 205.7094,251.5362 201.2308,252.5045 196.7521,253.4366 192.2735,254.3344 187.7949,255.1983 183.3162,256.0271 178.8376,256.8175 174.359,257.1928 169.8803,257.3745 165.4017,257.4552 160.9231,257.4834 156.4444,257.481 151.9658,257.45 147.4872,257.384 143.0085,257.2766 138.5299,257.1211 134.0513,256.9105 129.5726,256.6375 125.094,256.2944 120.6154,255.8728 116.1368,255.3641 111.6581,254.7587 107.1795,254.0468 102.7009,253.2176 98.2222,252.26 93.7436,251.1619 89.265,249.9107 84.7863,248.4928 80.3077,248.2682 75.8291,248.677 71.3504,249.4692 66.8718,250.4986 62.3932,251.6602 57.9145,252.8727 53.4359,254.0779 48.9573,255.2442 44.4786,256.0538 40,256.6181"></polyline>
<text class = "party psc" x="631.1111" y="210"><tspan class="party_name">PSC</tspan><tspan class="party_result"> (15.2±1.6%)</tspan></text>
<polyline id="media-cs"  class="cs media" points=" 40,185.0466 44.4786,185.3393 48.9573,185.6444 53.4359,185.9624 57.9145,186.29 62.3932,186.6163 66.8718,186.9226 71.3504,187.1847 75.8291,187.3732 80.3077,187.4471 84.7863,187.3318 89.265,186.8435 93.7436,186.3903 98.2222,185.9754 102.7009,185.6009 107.1795,185.2679 111.6581,184.9771 116.1368,184.7285 120.6154,184.5219 125.094,184.3567 129.5726,184.2323 134.0513,184.148 138.5299,184.103 143.0085,184.0966 147.4872,184.1285 151.9658,184.1981 156.4444,184.3052 160.9231,184.4498 165.4017,184.6248 169.8803,184.8038 174.359,184.9372 178.8376,184.9419 183.3162,184.6572 187.7949,184.4331 192.2735,184.2684 196.7521,184.1618 201.2308,184.1121 205.7094,184.1185 210.188,184.1804 214.6667,184.2976 219.1453,184.4702 223.6239,184.6988 228.1026,184.9843 232.5812,185.3083 237.0598,185.6047 241.5385,185.7472 246.0171,185.491 250.4957,185.3673 254.9744,185.3744 259.453,185.4949 263.9316,185.666 268.4103,185.7656 272.8889,185.5827 277.3675,184.6441 281.8462,183.7896 286.3248,183.0169 290.8034,182.323 295.2821,181.7048 299.7607,181.1593 304.2393,180.6835 308.7179,180.2746 313.1966,179.9303 317.6752,179.6484 322.1538,179.4271 326.6325,179.2652 331.1111,179.1587 335.5897,179.0954 340.0684,179.0503 344.547,178.9833 349.0256,178.8324 353.5043,178.491 357.9829,178.2217 362.4615,178.0239 366.9402,177.8977 371.4188,177.8437 375.8974,177.8636 380.3761,177.9605 384.8547,178.1092 389.3333,178.2071 393.812,178.0434 398.2906,177.2095 402.7692,176.5007 407.2479,175.8311 411.7265,175.2446 416.2051,174.7455 420.6838,174.3302 425.1624,173.9783 429.641,173.6393 434.1197,173.354 438.5983,173.0998 443.0769,172.8111 447.5556,172.3691 452.0342,171.5603 456.5128,170.8656 460.9915,170.2502 465.4701,169.6235 469.9487,168.9548 474.4274,168.2582 478.906,167.5452 483.3846,166.8249 487.8632,166.1045 492.3419,165.3899 496.8205,164.6853 501.2991,163.9938 505.7778,163.3173 510.2564,162.667 514.735,162.0771 519.2137,161.5865 523.6923,161.2033 528.1709,160.4736 532.6496,159.0514 537.1282,157.5203 541.6068,156.0024 546.0855,155.0792 550.5641,156.1959 555.0427,156.7693 559.5214,157.0617 564,157.2444 568.4786,157.5291 572.9573,158.3086 577.4359,158.9175 581.9145,159.3271 586.3932,159.423 590.8718,159.2935 595.3504,158.7264 599.8291,158.2102 604.3077,157.8013 608.7863,157.6201 613.265,157.5814 617.7436,157.9785 622.2222,158.2462"></polyline>
<polyline id="error-cs" class="cs error" points=" 40,150.0949 44.4786,150.9936 48.9573,152.14 53.4359,153.6418 57.9145,155.1876 62.3932,156.7364 66.8718,158.2148 71.3504,159.5234 75.8291,160.5365 80.3077,161.0808 84.7863,160.8589 89.265,159.194 93.7436,157.7482 98.2222,156.5109 102.7009,155.4714 107.1795,154.6192 111.6581,153.9442 116.1368,153.4368 120.6154,153.0877 125.094,152.8888 129.5726,152.8325 134.0513,152.912 138.5299,153.1219 143.0085,153.4574 147.4872,153.9149 151.9658,154.4921 156.4444,155.1879 160.9231,156.0025 165.4017,156.9114 169.8803,157.8231 174.359,158.5602 178.8376,158.8281 183.3162,158.0769 187.7949,157.5506 192.2735,157.2306 196.7521,157.1015 201.2308,157.151 205.7094,157.3689 210.188,157.7478 214.6667,158.2822 219.1453,158.9689 223.6239,159.8068 228.1026,160.7971 232.5812,161.8908 237.0598,162.9118 241.5385,163.5199 246.0171,163.0697 250.4957,162.9715 254.9744,163.2052 259.453,163.72 263.9316,164.3654 268.4103,164.859 272.8889,164.7251 277.3675,162.9518 281.8462,161.4468 286.3248,160.1838 290.8034,159.1404 295.2821,158.2978 299.7607,157.6399 304.2393,157.1527 308.7179,156.8244 313.1966,156.6451 317.6752,156.6064 322.1538,156.7015 326.6325,156.9256 331.1111,157.2663 335.5897,157.6889 340.0684,158.1276 344.547,158.4798 349.0256,158.5928 353.5043,158.216 357.9829,158.0316 362.4615,158.0249 366.9402,158.1851 371.4188,158.5046 375.8974,158.9788 380.3761,159.6065 384.8547,160.3415 389.3333,161.0155 393.812,161.2965 398.2906,160.5714 402.7692,159.9466 407.2479,159.205 411.7265,158.7019 416.2051,158.4159 420.6838,158.2791 425.1624,158.1516 429.641,157.7742 434.1197,157.6057 438.5983,157.5846 443.0769,157.5892 447.5556,157.4121 452.0342,156.6845 456.5128,156.0878 460.9915,155.411 465.4701,154.2312 469.9487,153.1376 474.4274,152.1341 478.906,151.2233 483.3846,150.4072 487.8632,149.6866 492.3419,149.0619 496.8205,148.5327 501.2991,148.0979 505.7778,147.7561 510.2564,147.5078 514.735,147.3553 519.2137,147.2728 523.6923,147.1515 528.1709,146.7048 532.6496,145.4875 537.1282,144.2892 541.6068,143.1824 546.0855,142.5941 550.5641,143.6259 555.0427,144.2689 559.5214,144.7752 564,145.2061 568.4786,145.6127 572.9573,146.0748 577.4359,146.5757 581.9145,146.9944 586.3932,147.0943 590.8718,147.0434 595.3504,146.5266 599.8291,146.1313 604.3077,145.8366 608.7863,145.634 613.265,145.4494 617.7436,145.3153 622.2222,144.8913 622.2222,171.6012 617.7436,170.6418 613.265,169.7133 608.7863,169.6061 604.3077,169.7661 599.8291,170.2892 595.3504,170.9263 590.8718,171.5436 586.3932,171.7516 581.9145,171.6598 577.4359,171.2593 572.9573,170.5423 568.4786,169.4455 564,169.2827 559.5214,169.3482 555.0427,169.2698 550.5641,168.766 546.0855,167.5644 541.6068,168.8224 537.1282,170.7514 532.6496,172.6152 528.1709,174.2424 523.6923,175.2551 519.2137,175.9001 514.735,176.7988 510.2564,177.8261 505.7778,178.8785 501.2991,179.8898 496.8205,180.8379 492.3419,181.7178 487.8632,182.5224 483.3846,183.2426 478.906,183.867 474.4274,184.3823 469.9487,184.7719 465.4701,185.0159 460.9915,185.0894 456.5128,185.6434 452.0342,186.4361 447.5556,187.326 443.0769,188.033 438.5983,188.6151 434.1197,189.1024 429.641,189.5044 425.1624,189.8051 420.6838,190.3814 416.2051,191.0751 411.7265,191.7873 407.2479,192.4572 402.7692,193.0548 398.2906,193.8476 393.812,194.7902 389.3333,195.3988 384.8547,195.8769 380.3761,196.3145 375.8974,196.7484 371.4188,197.1827 366.9402,197.6102 362.4615,198.023 357.9829,198.4119 353.5043,198.7661 349.0256,199.072 344.547,199.4869 340.0684,199.973 335.5897,200.5019 331.1111,201.0512 326.6325,201.6048 322.1538,202.1526 317.6752,202.6904 313.1966,203.2155 308.7179,203.7248 304.2393,204.2142 299.7607,204.6787 295.2821,205.1118 290.8034,205.5056 286.3248,205.85 281.8462,206.1324 277.3675,206.3364 272.8889,206.4402 268.4103,206.6721 263.9316,206.9665 259.453,207.2698 254.9744,207.5436 250.4957,207.7631 246.0171,207.9122 241.5385,207.9744 237.0598,208.2976 232.5812,208.7258 228.1026,209.1716 223.6239,209.5909 219.1453,209.9716 214.6667,210.313 210.188,210.613 205.7094,210.868 201.2308,211.0732 196.7521,211.222 192.2735,211.3062 187.7949,211.3157 183.3162,211.2375 178.8376,211.0557 174.359,211.3142 169.8803,211.7846 165.4017,212.3382 160.9231,212.8972 156.4444,213.4225 151.9658,213.904 147.4872,214.342 143.0085,214.7359 138.5299,215.084 134.0513,215.3839 129.5726,215.6322 125.094,215.8247 120.6154,215.9561 116.1368,216.0203 111.6581,216.01 107.1795,215.9166 102.7009,215.7303 98.2222,215.4399 93.7436,215.0324 89.265,214.493 84.7863,213.8047 80.3077,213.8133 75.8291,214.2099 71.3504,214.8461 66.8718,215.6304 62.3932,216.4963 57.9145,217.3924 53.4359,218.2829 48.9573,219.1488 44.4786,219.6849 40,219.9984"></polyline>
<text class = "party cs" x="631.1111" y="164"><tspan class="party_name">C's</tspan><tspan class="party_result"> (21.7±1.7%)</tspan></text>
<polyline id="media-pp"  class="pp media" points=" 40,259.5826 44.4786,259.422 48.9573,259.2574 53.4359,259.0892 57.9145,258.9188 62.3932,258.7512 66.8718,258.594 71.3504,258.4567 75.8291,258.35 80.3077,258.2884 84.7863,258.2973 89.265,258.4398 93.7436,258.5586 98.2222,258.6523 102.7009,258.7203 107.1795,258.7618 111.6581,258.7767 116.1368,258.765 120.6154,258.7265 125.094,258.6613 129.5726,258.5694 134.0513,258.4506 138.5299,258.3048 143.0085,258.1316 147.4872,257.9303 151.9658,257.7002 156.4444,257.4401 160.9231,257.1488 165.4017,256.8352 169.8803,256.5359 174.359,256.3218 178.8376,256.3121 183.3162,256.7421 187.7949,257.1039 192.2735,257.4018 196.7521,257.6404 201.2308,257.8236 205.7094,257.9551 210.188,258.0382 214.6667,258.076 219.1453,258.0713 223.6239,258.027 228.1026,257.9458 232.5812,257.832 237.0598,257.691 241.5385,257.5236 246.0171,257.3118 250.4957,257.0267 254.9744,256.6627 259.453,256.2338 263.9316,255.8042 268.4103,255.499 272.8889,255.5326 277.3675,256.3884 281.8462,257.1486 286.3248,257.8206 290.8034,258.4108 295.2821,258.9248 299.7607,259.3678 304.2393,259.7439 308.7179,260.0568 313.1966,260.3095 317.6752,260.5046 322.1538,260.6437 326.6325,260.7279 331.1111,260.7623 335.5897,260.7636 340.0684,260.7658 344.547,260.8241 349.0256,261.0252 353.5043,261.5204 357.9829,261.9451 362.4615,262.305 366.9402,262.6054 371.4188,262.8512 375.8974,263.0471 380.3761,263.1978 384.8547,263.3007 389.3333,263.3332 393.812,263.2421 398.2906,262.9081 402.7692,262.8497 407.2479,263.2562 411.7265,263.584 416.2051,263.837 420.6838,264.0251 425.1624,264.1702 429.641,264.313 434.1197,264.3949 438.5983,264.4211 443.0769,264.4091 447.5556,264.4004 452.0342,264.4894 456.5128,264.6237 460.9915,264.9837 465.4701,265.9707 469.9487,266.9405 474.4274,267.8869 478.906,268.8047 483.3846,269.6897 487.8632,270.538 492.3419,271.347 496.8205,272.1144 501.2991,272.8383 505.7778,273.5176 510.2564,274.1559 514.735,274.7743 519.2137,275.4156 523.6923,276.1521 528.1709,276.7797 532.6496,277.2066 537.1282,277.7655 541.6068,278.4148 546.0855,278.9917 550.5641,279.148 555.0427,279.6781 559.5214,280.2629 564,280.7861 568.4786,281.1136 572.9573,280.9965 577.4359,281.0299 581.9145,281.1458 586.3932,281.2747 590.8718,281.4097 595.3504,281.4753 599.8291,281.5598 604.3077,281.6306 608.7863,281.6567 613.265,281.6659 617.7436,281.6591 622.2222,281.5274"></polyline>
<polyline id="error-pp" class="pp error" points=" 40,232.5323 44.4786,232.8915 48.9573,233.4158 53.4359,234.1817 57.9145,234.9713 62.3932,235.7658 66.8718,236.5302 71.3504,237.2149 75.8291,237.7556 80.3077,238.0637 84.7863,237.9907 89.265,237.2143 93.7436,236.5578 98.2222,236.0094 102.7009,235.5582 107.1795,235.1946 111.6581,234.9099 116.1368,234.6964 120.6154,234.547 125.094,234.4556 129.5726,234.4167 134.0513,234.4253 138.5299,234.4774 143.0085,234.5692 147.4872,234.6978 151.9658,234.8607 156.4444,235.056 160.9231,235.2824 165.4017,235.5358 169.8803,235.8029 174.359,236.057 178.8376,236.2562 183.3162,236.3399 187.7949,236.482 192.2735,236.6733 196.7521,236.907 201.2308,237.1781 205.7094,237.4832 210.188,237.8201 214.6667,238.1878 219.1453,238.5864 223.6239,239.0176 228.1026,239.4842 232.5812,239.9669 237.0598,240.3858 241.5385,240.576 246.0171,240.2081 250.4957,239.9343 254.9744,239.7348 259.453,239.5982 263.9316,239.5233 268.4103,239.5156 272.8889,239.5923 277.3675,239.8392 281.8462,240.132 286.3248,240.4587 290.8034,240.8106 295.2821,241.1807 299.7607,241.5635 304.2393,241.9549 308.7179,242.3512 313.1966,242.7496 317.6752,243.1476 322.1538,243.5431 326.6325,243.9343 331.1111,244.3198 335.5897,244.6999 340.0684,245.0783 344.547,245.4648 349.0256,245.8801 353.5043,246.3714 357.9829,246.8815 362.4615,247.4051 366.9402,247.939 371.4188,248.4817 375.8974,249.0329 380.3761,249.5942 384.8547,250.1469 389.3333,250.6191 393.812,250.8664 398.2906,250.6159 402.7692,250.629 407.2479,251.0024 411.7265,251.4116 416.2051,251.8405 420.6838,252.2506 425.1624,252.5741 429.641,252.6965 434.1197,252.8725 438.5983,253.0784 443.0769,253.2903 447.5556,253.4858 452.0342,253.6477 456.5128,253.8673 460.9915,254.1988 465.4701,254.808 469.9487,255.4976 474.4274,256.2528 478.906,257.0612 483.3846,257.9122 487.8632,258.7968 492.3419,259.7075 496.8205,260.6377 501.2991,261.5821 505.7778,262.5364 510.2564,263.4958 514.735,264.4583 519.2137,265.4203 523.6923,266.3722 528.1709,267.2295 532.6496,267.8296 537.1282,268.6567 541.6068,269.6305 546.0855,270.4687 550.5641,270.5601 555.0427,271.1497 559.5214,271.8996 564,272.6107 568.4786,273.0307 572.9573,272.6808 577.4359,272.6339 581.9145,272.7562 586.3932,272.8907 590.8718,273.086 595.3504,273.1935 599.8291,273.3696 604.3077,273.5259 608.7863,273.5392 613.265,273.4466 617.7436,273.0626 622.2222,272.4363 622.2222,290.6184 617.7436,290.2556 613.265,289.8852 608.7863,289.7741 604.3077,289.7353 599.8291,289.7499 595.3504,289.7571 590.8718,289.7334 586.3932,289.6586 581.9145,289.5355 577.4359,289.4259 572.9573,289.3122 568.4786,289.1965 564,288.9614 559.5214,288.6262 555.0427,288.2065 550.5641,287.7358 546.0855,287.5147 541.6068,287.1991 537.1282,286.8742 532.6496,286.5837 528.1709,286.3298 523.6923,285.932 519.2137,285.4109 514.735,285.0903 510.2564,284.8159 505.7778,284.4989 501.2991,284.0946 496.8205,283.5911 492.3419,282.9866 487.8632,282.2793 483.3846,281.4671 478.906,280.5483 474.4274,279.521 469.9487,278.3833 465.4701,277.1333 460.9915,275.7687 456.5128,275.38 452.0342,275.3311 447.5556,275.3149 443.0769,275.5278 438.5983,275.7639 434.1197,275.9173 429.641,275.9295 425.1624,275.7663 420.6838,275.7997 416.2051,275.8335 411.7265,275.7565 407.2479,275.5101 402.7692,275.0704 398.2906,275.2003 393.812,275.6178 389.3333,276.0474 384.8547,276.4544 380.3761,276.8014 375.8974,277.0613 371.4188,277.2207 366.9402,277.2718 362.4615,277.2049 357.9829,277.0087 353.5043,276.6694 349.0256,276.1704 344.547,276.1835 340.0684,276.4532 335.5897,276.8273 331.1111,277.2048 326.6325,277.5216 322.1538,277.7442 317.6752,277.8616 313.1966,277.8695 308.7179,277.7624 304.2393,277.5329 299.7607,277.172 295.2821,276.669 290.8034,276.0109 286.3248,275.1824 281.8462,274.1653 277.3675,272.9376 272.8889,271.473 268.4103,271.4824 263.9316,272.0851 259.453,272.8693 254.9744,273.5906 250.4957,274.1191 246.0171,274.4156 241.5385,274.4713 237.0598,274.9962 232.5812,275.6971 228.1026,276.4075 223.6239,277.0365 219.1453,277.5562 214.6667,277.9642 210.188,278.2563 205.7094,278.4269 201.2308,278.4691 196.7521,278.3738 192.2735,278.1304 187.7949,277.7257 183.3162,277.1443 178.8376,276.368 174.359,276.5865 169.8803,277.2689 165.4017,278.1345 160.9231,279.0151 156.4444,279.8242 151.9658,280.5396 147.4872,281.1628 143.0085,281.6939 138.5299,282.1323 134.0513,282.476 129.5726,282.7221 125.094,282.867 120.6154,282.906 116.1368,282.8336 111.6581,282.6435 107.1795,282.329 102.7009,281.8823 98.2222,281.2953 93.7436,280.5593 89.265,279.6653 84.7863,278.6038 80.3077,278.5131 75.8291,278.9444 71.3504,279.6985 66.8718,280.6578 62.3932,281.7365 57.9145,282.8663 53.4359,283.9967 48.9573,285.0991 44.4786,285.9524 40,286.633"></polyline>
<text class = "party pp" x="631.1111" y="278"><tspan class="party_name">PP</tspan><tspan class="party_result"> (6.4±1.1%)</tspan></text>
<polyline id="media-otros"  class="otros media" points=" 40,310.8009 44.4786,310.8104 48.9573,310.8219 53.4359,310.8357 57.9145,310.8516 62.3932,310.8686 66.8718,310.8842 71.3504,310.8954 75.8291,310.8975 80.3077,310.8838 84.7863,310.8413 89.265,310.7383 93.7436,310.6323 98.2222,310.5234 102.7009,310.4118 107.1795,310.2974 111.6581,310.1801 116.1368,310.0597 120.6154,309.9359 125.094,309.8081 129.5726,309.676 134.0513,309.5387 138.5299,309.3956 143.0085,309.2456 147.4872,309.0876 151.9658,308.9205 156.4444,308.7426 160.9231,308.5521 165.4017,308.3544 169.8803,308.1737 174.359,308.0587 178.8376,308.0933 183.3162,308.4472 187.7949,308.7693 192.2735,309.0637 196.7521,309.3343 201.2308,309.585 205.7094,309.8194 210.188,310.0412 214.6667,310.2539 219.1453,310.4612 223.6239,310.6671 228.1026,310.8759 232.5812,311.0762 237.0598,311.2161 241.5385,311.1866 246.0171,310.7559 250.4957,310.3614 254.9744,309.9951 259.453,309.656 263.9316,309.3569 268.4103,309.1232 272.8889,308.9966 277.3675,309.0725 281.8462,309.116 286.3248,309.132 290.8034,309.1239 295.2821,309.0945 299.7607,309.0457 304.2393,308.9788 308.7179,308.8947 313.1966,308.7939 317.6752,308.6764 322.1538,308.5421 326.6325,308.3904 331.1111,308.2235 335.5897,308.0517 340.0684,307.8958 344.547,307.7888 349.0256,307.7809 353.5043,307.9581 357.9829,308.083 362.4615,308.1596 366.9402,308.1911 371.4188,308.1792 375.8974,308.125 380.3761,308.0283 384.8547,307.9032 389.3333,307.8037 393.812,307.8375 398.2906,308.2092 402.7692,308.5647 407.2479,308.9851 411.7265,309.3487 416.2051,309.6569 420.6838,309.9213 425.1624,310.1739 429.641,310.4851 434.1197,310.7651 438.5983,311.027 443.0769,311.3062 447.5556,311.6632 452.0342,312.1988 456.5128,312.6386 460.9915,312.9367 465.4701,313.0014 469.9487,313.103 474.4274,313.2321 478.906,313.3813 483.3846,313.5449 487.8632,313.7185 492.3419,313.8987 496.8205,314.083 501.2991,314.2697 505.7778,314.4578 510.2564,314.6429 514.735,314.8105 519.2137,314.9348 523.6923,314.9738 528.1709,315.0574 532.6496,315.1997 537.1282,315.4077 541.6068,315.6492 546.0855,315.7647 550.5641,315.347 555.0427,315.0977 559.5214,314.9075 564,314.7955 568.4786,314.8218 572.9573,315.1662 577.4359,315.4893 581.9145,315.878 586.3932,316.4868 590.8718,317.0584 595.3504,317.5902 599.8291,318.0785 604.3077,318.4586 608.7863,318.6165 613.265,318.6907 617.7436,318.5009 622.2222,318.3409"></polyline>
<polyline id="error-otros" class="otros error" points=" 40,288.7464 44.4786,289.2198 48.9573,289.8392 53.4359,290.6707 57.9145,291.5241 62.3932,292.3771 66.8718,293.1904 71.3504,293.9101 75.8291,294.468 80.3077,294.77 84.7863,294.6546 89.265,293.7564 93.7436,292.9755 98.2222,292.3043 102.7009,291.7355 107.1795,291.262 111.6581,290.8769 116.1368,290.5737 120.6154,290.3463 125.094,290.189 129.5726,290.0965 134.0513,290.0639 138.5299,290.087 143.0085,290.1619 147.4872,290.285 151.9658,290.4535 156.4444,290.6647 160.9231,290.9167 165.4017,291.2031 169.8803,291.5054 174.359,291.7901 178.8376,292.0053 183.3162,292.0722 187.7949,292.2154 192.2735,292.4278 196.7521,292.704 201.2308,293.0402 205.7094,293.4339 210.188,293.8839 214.6667,294.3902 219.1453,294.954 223.6239,295.5778 228.1026,296.2657 232.5812,296.9849 237.0598,297.608 241.5385,297.8811 246.0171,297.2996 250.4957,296.8991 254.9744,296.6595 259.453,296.5576 263.9316,296.55 268.4103,296.5598 272.8889,296.4606 277.3675,296.0062 281.8462,295.6362 286.3248,295.3409 290.8034,295.1118 295.2821,294.9415 299.7607,294.8237 304.2393,294.7525 308.7179,294.723 313.1966,294.7306 317.6752,294.7713 322.1538,294.8413 326.6325,294.9374 331.1111,295.0564 335.5897,295.1945 340.0684,295.3471 344.547,295.5089 349.0256,295.6747 353.5043,295.8434 357.9829,296.0342 362.4615,296.2421 366.9402,296.4628 371.4188,296.6927 375.8974,296.9285 380.3761,297.1669 384.8547,297.4096 389.3333,297.6719 393.812,297.9925 398.2906,298.461 402.7692,298.895 407.2479,299.2981 411.7265,299.7388 416.2051,300.2016 420.6838,300.6579 425.1624,301.0666 429.641,301.3727 434.1197,301.7419 438.5983,302.1637 443.0769,302.6407 447.5556,303.1824 452.0342,303.801 456.5128,304.3283 460.9915,304.609 465.4701,304.3447 469.9487,304.1973 474.4274,304.1512 478.906,304.1935 483.3846,304.3138 487.8632,304.5035 492.3419,304.7552 496.8205,305.0632 501.2991,305.4226 505.7778,305.8299 510.2564,306.2732 514.735,306.7175 519.2137,307.0962 523.6923,307.2964 528.1709,307.5579 532.6496,307.8391 537.1282,308.2643 541.6068,308.7684 546.0855,309.0903 550.5641,308.5971 555.0427,308.3735 559.5214,308.2978 564,308.3244 568.4786,308.4208 572.9573,308.5899 577.4359,308.86 581.9145,309.2683 586.3932,309.9057 590.8718,310.5492 595.3504,311.1377 599.8291,311.7209 604.3077,312.1863 608.7863,312.3403 613.265,312.3348 617.7436,311.8283 622.2222,311.2583 622.2222,325.4235 617.7436,325.1735 613.265,325.0467 608.7863,324.8926 604.3077,324.7309 599.8291,324.436 595.3504,324.0428 590.8718,323.5677 586.3932,323.0679 581.9145,322.4878 577.4359,322.1186 572.9573,321.7424 568.4786,321.2229 564,321.2667 559.5214,321.5172 555.0427,321.8219 550.5641,322.0969 546.0855,322.4391 541.6068,322.5301 537.1282,322.5511 532.6496,322.5602 528.1709,322.5569 523.6923,322.6513 519.2137,322.7733 514.735,322.9035 510.2564,323.0125 505.7778,323.0857 501.2991,323.1168 496.8205,323.1029 492.3419,323.0422 487.8632,322.9336 483.3846,322.776 478.906,322.5691 474.4274,322.313 469.9487,322.0087 465.4701,321.6581 460.9915,321.2644 456.5128,320.9489 452.0342,320.5966 447.5556,320.1441 443.0769,319.9716 438.5983,319.8902 434.1197,319.7883 429.641,319.5976 425.1624,319.2812 420.6838,319.1847 416.2051,319.1122 411.7265,318.9586 407.2479,318.6721 402.7692,318.2344 398.2906,317.9575 393.812,317.6824 389.3333,317.9355 384.8547,318.3969 380.3761,318.8896 375.8974,319.3216 371.4188,319.6658 366.9402,319.9194 362.4615,320.0772 357.9829,320.1317 353.5043,320.0728 349.0256,319.8871 344.547,320.0688 340.0684,320.4445 335.5897,320.9088 331.1111,321.3905 326.6325,321.8434 322.1538,322.243 317.6752,322.5816 313.1966,322.8571 308.7179,323.0663 304.2393,323.2051 299.7607,323.2677 295.2821,323.2476 290.8034,323.1361 286.3248,322.923 281.8462,322.5957 277.3675,322.1388 272.8889,321.5326 268.4103,321.6866 263.9316,322.1638 259.453,322.7544 254.9744,323.3308 250.4957,323.8237 246.0171,324.2122 241.5385,324.4922 237.0598,324.8243 232.5812,325.1675 228.1026,325.4861 223.6239,325.7564 219.1453,325.9684 214.6667,326.1175 210.188,326.1984 205.7094,326.2049 201.2308,326.1298 196.7521,325.9646 192.2735,325.6995 187.7949,325.3232 183.3162,324.8222 178.8376,324.1813 174.359,324.3272 169.8803,324.842 165.4017,325.5057 160.9231,326.1875 156.4444,326.8204 151.9658,327.3875 147.4872,327.8903 143.0085,328.3293 138.5299,328.7041 134.0513,329.0135 129.5726,329.2555 125.094,329.4273 120.6154,329.5254 116.1368,329.5457 111.6581,329.4833 107.1795,329.3328 102.7009,329.088 98.2222,328.7425 93.7436,328.2891 89.265,327.7203 84.7863,327.028 80.3077,326.9976 75.8291,327.327 71.3504,327.8806 66.8718,328.578 62.3932,329.36 57.9145,330.1792 53.4359,331.0007 48.9573,331.8047 44.4786,332.401 40,332.8553"></polyline>
<text class = "party otros" x="631.1111" y="318"><tspan class="party_name">Otros</tspan><tspan class="party_result"> (1.9±0.9%)</tspan></text>
<g id="encuesta-1">
<circle id="encuesta-1-cup" class="encuesta sociometrica cup" cx="622.2222" cy="285.6566" r="3.3166" ></circle>
<circle id="encuesta-1-erc" class="encuesta sociometrica erc" cx="622.2222" cy="160.404" r="3.3166" ></circle>
<circle id="encuesta-1-jxcat" class="encuesta sociometrica jxcat" cx="622.2222" cy="161.2121" r="3.3166" ></circle>
<circle id="encuesta-1-cec" class="encuesta sociometrica cec" cx="622.2222" cy="267.0707" r="3.3166" ></circle>
<circle id="encuesta-1-psc" class="encuesta sociometrica psc" cx="622.2222" cy="219.3939" r="3.3166" ></circle>
<circle id="encuesta-1-cs" class="encuesta sociometrica cs" cx="622.2222" cy="162.0202" r="3.3166" ></circle>
<circle id="encuesta-1-pp" class="encuesta sociometrica pp" cx="622.2222" cy="284.0404" r="3.3166" ></circle>
<circle id="encuesta-1-otros" class="encuesta sociometrica otros" cx="622.2222" cy="318.7879" r="3.3166" ></circle>
</g>
<g id="encuesta-2">
<circle id="encuesta-2-cup" class="encuesta feedback cup" cx="617.7436" cy="273.5354" r="3.1623" ></circle>
<circle id="encuesta-2-erc" class="encuesta feedback erc" cx="617.7436" cy="153.1313" r="3.1623" ></circle>
<circle id="encuesta-2-jxcat" class="encuesta feedback jxcat" cx="617.7436" cy="180.6061" r="3.1623" ></circle>
<circle id="encuesta-2-cec" class="encuesta feedback cec" cx="617.7436" cy="273.5354" r="3.1623" ></circle>
<circle id="encuesta-2-psc" class="encuesta feedback psc" cx="617.7436" cy="204.8485" r="3.1623" ></circle>
<circle id="encuesta-2-cs" class="encuesta feedback cs" cx="617.7436" cy="161.2121" r="3.1623" ></circle>
<circle id="encuesta-2-pp" class="encuesta feedback pp" cx="617.7436" cy="284.0404" r="3.1623" ></circle>
<circle id="encuesta-2-otros" class="encuesta feedback otros" cx="617.7436" cy="327.6768" r="3.1623" ></circle>
</g>
<g id="encuesta-3">
<circle id="encuesta-3-cup" class="encuesta celeste-tel cup" cx="613.265" cy="280" r="2.8284" ></circle>
<circle id="encuesta-3-erc" class="encuesta celeste-tel erc" cx="613.265" cy="148.2828" r="2.8284" ></circle>
<circle id="encuesta-3-jxcat" class="encuesta celeste-tel jxcat" cx="613.265" cy="202.4242" r="2.8284" ></circle>
<circle id="encuesta-3-cec" class="encuesta celeste-tel cec" cx="613.265" cy="267.8788" r="2.8284" ></circle>
<circle id="encuesta-3-psc" class="encuesta celeste-tel psc" cx="613.265" cy="203.2323" r="2.8284" ></circle>
<circle id="encuesta-3-cs" class="encuesta celeste-tel cs" cx="613.265" cy="153.9394" r="2.8284" ></circle>
<circle id="encuesta-3-pp" class="encuesta celeste-tel pp" cx="613.265" cy="279.1919" r="2.8284" ></circle>
<circle id="encuesta-3-otros" class="encuesta celeste-tel otros" cx="613.265" cy="323.6364" r="2.8284" ></circle>
</g>
<g id="encuesta-4">
<circle id="encuesta-4-cup" class="encuesta sociometrica cup" cx="617.7436" cy="288.8889" r="3.3166" ></circle>
<circle id="encuesta-4-erc" class="encuesta sociometrica erc" cx="617.7436" cy="151.5152" r="3.3166" ></circle>
<circle id="encuesta-4-jxcat" class="encuesta sociometrica jxcat" cx="617.7436" cy="173.3333" r="3.3166" ></circle>
<circle id="encuesta-4-cec" class="encuesta sociometrica cec" cx="617.7436" cy="273.5354" r="3.3166" ></circle>
<circle id="encuesta-4-psc" class="encuesta sociometrica psc" cx="617.7436" cy="216.9697" r="3.3166" ></circle>
<circle id="encuesta-4-cs" class="encuesta sociometrica cs" cx="617.7436" cy="159.596" r="3.3166" ></circle>
<circle id="encuesta-4-pp" class="encuesta sociometrica pp" cx="617.7436" cy="289.697" r="3.3166" ></circle>
<circle id="encuesta-4-otros" class="encuesta sociometrica otros" cx="617.7436" cy="305.0505" r="3.3166" ></circle>
</g>
<g id="encuesta-5">
<circle id="encuesta-5-cup" class="encuesta gad3 cup" cx="613.265" cy="292.9293" r="3.1623" ></circle>
<circle id="encuesta-5-erc" class="encuesta gad3 erc" cx="613.265" cy="159.596" r="3.1623" ></circle>
<circle id="encuesta-5-jxcat" class="encuesta gad3 jxcat" cx="613.265" cy="186.2626" r="3.1623" ></circle>
<circle id="encuesta-5-cec" class="encuesta gad3 cec" cx="613.265" cy="273.5354" r="3.1623" ></circle>
<circle id="encuesta-5-psc" class="encuesta gad3 psc" cx="613.265" cy="200" r="3.1623" ></circle>
<circle id="encuesta-5-cs" class="encuesta gad3 cs" cx="613.265" cy="146.6667" r="3.1623" ></circle>
<circle id="encuesta-5-pp" class="encuesta gad3 pp" cx="613.265" cy="275.9596" r="3.1623" ></circle>
<circle id="encuesta-5-otros" class="encuesta gad3 otros" cx="613.265" cy="323.6364" r="3.1623" ></circle>
</g>
<g id="encuesta-6">
<circle id="encuesta-6-cup" class="encuesta feedback cup" cx="613.265" cy="275.9596" r="3" ></circle>
<circle id="encuesta-6-erc" class="encuesta feedback erc" cx="613.265" cy="146.6667" r="3" ></circle>
<circle id="encuesta-6-jxcat" class="encuesta feedback jxcat" cx="613.265" cy="195.9596" r="3" ></circle>
<circle id="encuesta-6-cec" class="encuesta feedback cec" cx="613.265" cy="268.6869" r="3" ></circle>
<circle id="encuesta-6-psc" class="encuesta feedback psc" cx="613.265" cy="209.697" r="3" ></circle>
<circle id="encuesta-6-cs" class="encuesta feedback cs" cx="613.265" cy="147.4747" r="3" ></circle>
<circle id="encuesta-6-pp" class="encuesta feedback pp" cx="613.265" cy="288.8889" r="3" ></circle>
<circle id="encuesta-6-otros" class="encuesta feedback otros" cx="613.265" cy="325.2525" r="3" ></circle>
</g>
<g id="encuesta-7">
<circle id="encuesta-7-cup" class="encuesta feedback cup" cx="604.3077" cy="281.6162" r="3.1623" ></circle>
<circle id="encuesta-7-erc" class="encuesta feedback erc" cx="604.3077" cy="139.3939" r="3.1623" ></circle>
<circle id="encuesta-7-jxcat" class="encuesta feedback jxcat" cx="604.3077" cy="195.1515" r="3.1623" ></circle>
<circle id="encuesta-7-cec" class="encuesta feedback cec" cx="604.3077" cy="258.1818" r="3.1623" ></circle>
<circle id="encuesta-7-psc" class="encuesta feedback psc" cx="604.3077" cy="224.2424" r="3.1623" ></circle>
<circle id="encuesta-7-cs" class="encuesta feedback cs" cx="604.3077" cy="149.0909" r="3.1623" ></circle>
<circle id="encuesta-7-pp" class="encuesta feedback pp" cx="604.3077" cy="283.2323" r="3.1623" ></circle>
<circle id="encuesta-7-otros" class="encuesta feedback otros" cx="604.3077" cy="327.6768" r="3.1623" ></circle>
</g>
<g id="encuesta-8">
<circle id="encuesta-8-cup" class="encuesta gesop cup" cx="590.8718" cy="284.8485" r="2.8284" ></circle>
<circle id="encuesta-8-erc" class="encuesta gesop erc" cx="590.8718" cy="167.6768" r="2.8284" ></circle>
<circle id="encuesta-8-jxcat" class="encuesta gesop jxcat" cx="590.8718" cy="177.3737" r="2.8284" ></circle>
<circle id="encuesta-8-cec" class="encuesta gesop cec" cx="590.8718" cy="264.6465" r="2.8284" ></circle>
<circle id="encuesta-8-psc" class="encuesta gesop psc" cx="590.8718" cy="179.798" r="2.8284" ></circle>
<circle id="encuesta-8-cs" class="encuesta gesop cs" cx="590.8718" cy="179.798" r="2.8284" ></circle>
<circle id="encuesta-8-pp" class="encuesta gesop pp" cx="590.8718" cy="286.4646" r="2.8284" ></circle>
<circle id="encuesta-8-otros" class="encuesta gesop otros" cx="590.8718" cy="317.9798" r="2.8284" ></circle>
</g>
<g id="encuesta-9">
<circle id="encuesta-9-cup" class="encuesta sociometrica cup" cx="581.9145" cy="284.8485" r="2.8284" ></circle>
<circle id="encuesta-9-erc" class="encuesta sociometrica erc" cx="581.9145" cy="146.6667" r="2.8284" ></circle>
<circle id="encuesta-9-jxcat" class="encuesta sociometrica jxcat" cx="581.9145" cy="179.798" r="2.8284" ></circle>
<circle id="encuesta-9-cec" class="encuesta sociometrica cec" cx="581.9145" cy="281.6162" r="2.8284" ></circle>
<circle id="encuesta-9-psc" class="encuesta sociometrica psc" cx="581.9145" cy="210.5051" r="2.8284" ></circle>
<circle id="encuesta-9-cs" class="encuesta sociometrica cs" cx="581.9145" cy="167.6768" r="2.8284" ></circle>
<circle id="encuesta-9-pp" class="encuesta sociometrica pp" cx="581.9145" cy="283.2323" r="2.8284" ></circle>
<circle id="encuesta-9-otros" class="encuesta sociometrica otros" cx="581.9145" cy="304.2424" r="2.8284" ></circle>
</g>
<g id="encuesta-10">
<circle id="encuesta-10-cup" class="encuesta cis cup" cx="568.4786" cy="279.1919" r="5.4772" ></circle>
<circle id="encuesta-10-erc" class="encuesta cis erc" cx="568.4786" cy="165.2525" r="5.4772" ></circle>
<circle id="encuesta-10-jxcat" class="encuesta cis jxcat" cx="568.4786" cy="196.7677" r="5.4772" ></circle>
<circle id="encuesta-10-cec" class="encuesta cis cec" cx="568.4786" cy="263.8384" r="5.4772" ></circle>
<circle id="encuesta-10-psc" class="encuesta cis psc" cx="568.4786" cy="204.0404" r="5.4772" ></circle>
<circle id="encuesta-10-cs" class="encuesta cis cs" cx="568.4786" cy="151.5152" r="5.4772" ></circle>
<circle id="encuesta-10-pp" class="encuesta cis pp" cx="568.4786" cy="286.4646" r="5.4772" ></circle>
<circle id="encuesta-10-otros" class="encuesta cis otros" cx="568.4786" cy="311.5152" r="5.4772" ></circle>
</g>
<g id="encuesta-11">
<circle id="encuesta-11-cup" class="encuesta nc_report cup" cx="550.5641" cy="287.2727" r="3.1623" ></circle>
<circle id="encuesta-11-erc" class="encuesta nc_report erc" cx="550.5641" cy="138.5859" r="3.1623" ></circle>
<circle id="encuesta-11-jxcat" class="encuesta nc_report jxcat" cx="550.5641" cy="223.4343" r="3.1623" ></circle>
<circle id="encuesta-11-cec" class="encuesta nc_report cec" cx="550.5641" cy="265.4545" r="3.1623" ></circle>
<circle id="encuesta-11-psc" class="encuesta nc_report psc" cx="550.5641" cy="214.5455" r="3.1623" ></circle>
<circle id="encuesta-11-cs" class="encuesta nc_report cs" cx="550.5641" cy="164.4444" r="3.1623" ></circle>
<circle id="encuesta-11-pp" class="encuesta nc_report pp" cx="550.5641" cy="258.1818" r="3.1623" ></circle>
<circle id="encuesta-11-otros" class="encuesta nc_report otros" cx="550.5641" cy="306.6667" r="3.1623" ></circle>
</g>
<g id="encuesta-12">
<circle id="encuesta-12-cup" class="encuesta metroscopica cup" cx="546.0855" cy="285.6566" r="4.2426" ></circle>
<circle id="encuesta-12-erc" class="encuesta metroscopica erc" cx="546.0855" cy="119.1919" r="4.2426" ></circle>
<circle id="encuesta-12-jxcat" class="encuesta metroscopica jxcat" cx="546.0855" cy="223.4343" r="4.2426" ></circle>
<circle id="encuesta-12-cec" class="encuesta metroscopica cec" cx="546.0855" cy="279.1919" r="4.2426" ></circle>
<circle id="encuesta-12-psc" class="encuesta metroscopica psc" cx="546.0855" cy="212.9293" r="4.2426" ></circle>
<circle id="encuesta-12-cs" class="encuesta metroscopica cs" cx="546.0855" cy="128.8889" r="4.2426" ></circle>
<circle id="encuesta-12-pp" class="encuesta metroscopica pp" cx="546.0855" cy="286.4646" r="4.2426" ></circle>
<circle id="encuesta-12-otros" class="encuesta metroscopica otros" cx="546.0855" cy="322.8283" r="4.2426" ></circle>
</g>
<g id="encuesta-13">
<circle id="encuesta-13-cup" class="encuesta gesop cup" cx="528.1709" cy="282.4242" r="2.8284" ></circle>
<circle id="encuesta-13-erc" class="encuesta gesop erc" cx="528.1709" cy="140.202" r="2.8284" ></circle>
<circle id="encuesta-13-jxcat" class="encuesta gesop jxcat" cx="528.1709" cy="200" r="2.8284" ></circle>
<circle id="encuesta-13-cec" class="encuesta gesop cec" cx="528.1709" cy="263.8384" r="2.8284" ></circle>
<circle id="encuesta-13-psc" class="encuesta gesop psc" cx="528.1709" cy="187.0707" r="2.8284" ></circle>
<circle id="encuesta-13-cs" class="encuesta gesop cs" cx="528.1709" cy="183.0303" r="2.8284" ></circle>
<circle id="encuesta-13-pp" class="encuesta gesop pp" cx="528.1709" cy="287.2727" r="2.8284" ></circle>
<circle id="encuesta-13-otros" class="encuesta gesop otros" cx="528.1709" cy="314.7475" r="2.8284" ></circle>
</g>
<g id="encuesta-14">
<circle id="encuesta-14-cup" class="encuesta gad3 cup" cx="519.2137" cy="288.0808" r="2.8302" ></circle>
<circle id="encuesta-14-erc" class="encuesta gad3 erc" cx="519.2137" cy="146.6667" r="2.8302" ></circle>
<circle id="encuesta-14-jxcat" class="encuesta gad3 jxcat" cx="519.2137" cy="198.3838" r="2.8302" ></circle>
<circle id="encuesta-14-cec" class="encuesta gad3 cec" cx="519.2137" cy="271.9192" r="2.8302" ></circle>
<circle id="encuesta-14-psc" class="encuesta gad3 psc" cx="519.2137" cy="211.3131" r="2.8302" ></circle>
<circle id="encuesta-14-cs" class="encuesta gad3 cs" cx="519.2137" cy="153.1313" r="2.8302" ></circle>
<circle id="encuesta-14-pp" class="encuesta gad3 pp" cx="519.2137" cy="270.303" r="2.8302" ></circle>
<circle id="encuesta-14-otros" class="encuesta gad3 otros" cx="519.2137" cy="318.7879" r="2.8302" ></circle>
</g>
<g id="encuesta-15">
<circle id="encuesta-15-cup" class="encuesta nc_report cup" cx="460.9915" cy="282.4242" r="3.1623" ></circle>
<circle id="encuesta-15-erc" class="encuesta nc_report erc" cx="460.9915" cy="120.8081" r="3.1623" ></circle>
<circle id="encuesta-15-jxcat" class="encuesta nc_report jxcat" cx="460.9915" cy="246.8687" r="3.1623" ></circle>
<circle id="encuesta-15-cec" class="encuesta nc_report cec" cx="460.9915" cy="249.2929" r="3.1623" ></circle>
<circle id="encuesta-15-psc" class="encuesta nc_report psc" cx="460.9915" cy="223.4343" r="3.1623" ></circle>
<circle id="encuesta-15-cs" class="encuesta nc_report cs" cx="460.9915" cy="174.9495" r="3.1623" ></circle>
<circle id="encuesta-15-pp" class="encuesta nc_report pp" cx="460.9915" cy="248.4848" r="3.1623" ></circle>
<circle id="encuesta-15-otros" class="encuesta nc_report otros" cx="460.9915" cy="312.3232" r="3.1623" ></circle>
</g>
<g id="encuesta-16">
<circle id="encuesta-16-cup" class="encuesta gad3 cup" cx="460.9915" cy="282.4242" r="3.5114" ></circle>
<circle id="encuesta-16-erc" class="encuesta gad3 erc" cx="460.9915" cy="96.5657" r="3.5114" ></circle>
<circle id="encuesta-16-jxcat" class="encuesta gad3 jxcat" cx="460.9915" cy="249.2929" r="3.5114" ></circle>
<circle id="encuesta-16-cec" class="encuesta gad3 cec" cx="460.9915" cy="266.2626" r="3.5114" ></circle>
<circle id="encuesta-16-psc" class="encuesta gad3 psc" cx="460.9915" cy="215.3535" r="3.5114" ></circle>
<circle id="encuesta-16-cs" class="encuesta gad3 cs" cx="460.9915" cy="166.8687" r="3.5114" ></circle>
<circle id="encuesta-16-pp" class="encuesta gad3 pp" cx="460.9915" cy="263.0303" r="3.5114" ></circle>
<circle id="encuesta-16-otros" class="encuesta gad3 otros" cx="460.9915" cy="318.7879" r="3.5114" ></circle>
</g>
<g id="encuesta-17">
<circle id="encuesta-17-cup" class="encuesta sociometrica cup" cx="447.5556" cy="287.2727" r="3.1623" ></circle>
<circle id="encuesta-17-erc" class="encuesta sociometrica erc" cx="447.5556" cy="81.2121" r="3.1623" ></circle>
<circle id="encuesta-17-jxcat" class="encuesta sociometrica jxcat" cx="447.5556" cy="251.7172" r="3.1623" ></circle>
<circle id="encuesta-17-cec" class="encuesta sociometrica cec" cx="447.5556" cy="252.5253" r="3.1623" ></circle>
<circle id="encuesta-17-psc" class="encuesta sociometrica psc" cx="447.5556" cy="234.7475" r="3.1623" ></circle>
<circle id="encuesta-17-cs" class="encuesta sociometrica cs" cx="447.5556" cy="185.4545" r="3.1623" ></circle>
<circle id="encuesta-17-pp" class="encuesta sociometrica pp" cx="447.5556" cy="260.6061" r="3.1623" ></circle>
<circle id="encuesta-17-otros" class="encuesta sociometrica otros" cx="447.5556" cy="305.0505" r="3.1623" ></circle>
</g>
<g id="encuesta-18">
<circle id="encuesta-18-cup" class="encuesta sigmados cup" cx="425.1624" cy="282.4242" r="3.1623" ></circle>
<circle id="encuesta-18-erc" class="encuesta sigmados erc" cx="425.1624" cy="120" r="3.1623" ></circle>
<circle id="encuesta-18-jxcat" class="encuesta sigmados jxcat" cx="425.1624" cy="254.1414" r="3.1623" ></circle>
<circle id="encuesta-18-cec" class="encuesta sigmados cec" cx="425.1624" cy="244.4444" r="3.1623" ></circle>
<circle id="encuesta-18-psc" class="encuesta sigmados psc" cx="425.1624" cy="211.3131" r="3.1623" ></circle>
<circle id="encuesta-18-cs" class="encuesta sigmados cs" cx="425.1624" cy="174.9495" r="3.1623" ></circle>
<circle id="encuesta-18-pp" class="encuesta sigmados pp" cx="425.1624" cy="263.0303" r="3.1623" ></circle>
<circle id="encuesta-18-otros" class="encuesta sigmados otros" cx="425.1624" cy="308.2828" r="3.1623" ></circle>
</g>
<g id="encuesta-19">
<circle id="encuesta-19-cup" class="encuesta nc_report cup" cx="402.7692" cy="288.0808" r="3.1623" ></circle>
<circle id="encuesta-19-erc" class="encuesta nc_report erc" cx="402.7692" cy="134.5455" r="3.1623" ></circle>
<circle id="encuesta-19-jxcat" class="encuesta nc_report jxcat" cx="402.7692" cy="235.5556" r="3.1623" ></circle>
<circle id="encuesta-19-cec" class="encuesta nc_report cec" cx="402.7692" cy="241.2121" r="3.1623" ></circle>
<circle id="encuesta-19-psc" class="encuesta nc_report psc" cx="402.7692" cy="227.4747" r="3.1623" ></circle>
<circle id="encuesta-19-cs" class="encuesta nc_report cs" cx="402.7692" cy="178.1818" r="3.1623" ></circle>
<circle id="encuesta-19-pp" class="encuesta nc_report pp" cx="402.7692" cy="248.4848" r="3.1623" ></circle>
<circle id="encuesta-19-otros" class="encuesta nc_report otros" cx="402.7692" cy="305.0505" r="3.1623" ></circle>
</g>
<g id="encuesta-20">
<circle id="encuesta-20-cup" class="encuesta gesop cup" cx="393.812" cy="270.303" r="2.8284" ></circle>
<circle id="encuesta-20-erc" class="encuesta gesop erc" cx="393.812" cy="106.2626" r="2.8284" ></circle>
<circle id="encuesta-20-jxcat" class="encuesta gesop jxcat" cx="393.812" cy="236.3636" r="2.8284" ></circle>
<circle id="encuesta-20-cec" class="encuesta gesop cec" cx="393.812" cy="260.6061" r="2.8284" ></circle>
<circle id="encuesta-20-psc" class="encuesta gesop psc" cx="393.812" cy="216.1616" r="2.8284" ></circle>
<circle id="encuesta-20-cs" class="encuesta gesop cs" cx="393.812" cy="197.5758" r="2.8284" ></circle>
<circle id="encuesta-20-pp" class="encuesta gesop pp" cx="393.812" cy="272.7273" r="2.8284" ></circle>
<circle id="encuesta-20-otros" class="encuesta gesop otros" cx="393.812" cy="298.5859" r="2.8284" ></circle>
</g>
<g id="encuesta-21">
<circle id="encuesta-21-cup" class="encuesta sociometrica cup" cx="349.0256" cy="282.4242" r="2.8284" ></circle>
<circle id="encuesta-21-erc" class="encuesta sociometrica erc" cx="349.0256" cy="76.3636" r="2.8284" ></circle>
<circle id="encuesta-21-jxcat" class="encuesta sociometrica jxcat" cx="349.0256" cy="267.8788" r="2.8284" ></circle>
<circle id="encuesta-21-cec" class="encuesta sociometrica cec" cx="349.0256" cy="236.3636" r="2.8284" ></circle>
<circle id="encuesta-21-psc" class="encuesta sociometrica psc" cx="349.0256" cy="256.5657" r="2.8284" ></circle>
<circle id="encuesta-21-cs" class="encuesta sociometrica cs" cx="349.0256" cy="185.4545" r="2.8284" ></circle>
<circle id="encuesta-21-pp" class="encuesta sociometrica pp" cx="349.0256" cy="251.7172" r="2.8284" ></circle>
<circle id="encuesta-21-otros" class="encuesta sociometrica otros" cx="349.0256" cy="301.8182" r="2.8284" ></circle>
</g>
<g id="encuesta-22">
<circle id="encuesta-22-cup" class="encuesta nc_report cup" cx="272.8889" cy="288.0808" r="3.5426" ></circle>
<circle id="encuesta-22-erc" class="encuesta nc_report erc" cx="272.8889" cy="130.5051" r="3.5426" ></circle>
<circle id="encuesta-22-jxcat" class="encuesta nc_report jxcat" cx="272.8889" cy="230.7071" r="3.5426" ></circle>
<circle id="encuesta-22-cec" class="encuesta nc_report cec" cx="272.8889" cy="239.596" r="3.5426" ></circle>
<circle id="encuesta-22-psc" class="encuesta nc_report psc" cx="272.8889" cy="222.6263" r="3.5426" ></circle>
<circle id="encuesta-22-cs" class="encuesta nc_report cs" cx="272.8889" cy="194.3434" r="3.5426" ></circle>
<circle id="encuesta-22-pp" class="encuesta nc_report pp" cx="272.8889" cy="246.0606" r="3.5426" ></circle>
<circle id="encuesta-22-otros" class="encuesta nc_report otros" cx="272.8889" cy="306.6667" r="3.5426" ></circle>
</g>
<g id="encuesta-23">
<circle id="encuesta-23-cup" class="encuesta celeste-tel cup" cx="241.5385" cy="285.6566" r="2.8284" ></circle>
<circle id="encuesta-23-erc" class="encuesta celeste-tel erc" cx="241.5385" cy="133.7374" r="2.8284" ></circle>
<circle id="encuesta-23-jxcat" class="encuesta celeste-tel jxcat" cx="241.5385" cy="223.4343" r="2.8284" ></circle>
<circle id="encuesta-23-cec" class="encuesta celeste-tel cec" cx="241.5385" cy="234.7475" r="2.8284" ></circle>
<circle id="encuesta-23-psc" class="encuesta celeste-tel psc" cx="241.5385" cy="213.7374" r="2.8284" ></circle>
<circle id="encuesta-23-cs" class="encuesta celeste-tel cs" cx="241.5385" cy="192.7273" r="2.8284" ></circle>
<circle id="encuesta-23-pp" class="encuesta celeste-tel pp" cx="241.5385" cy="257.3737" r="2.8284" ></circle>
<circle id="encuesta-23-otros" class="encuesta celeste-tel otros" cx="241.5385" cy="317.1717" r="2.8284" ></circle>
</g>
<g id="encuesta-24">
<circle id="encuesta-24-cup" class="encuesta sociometrica cup" cx="178.8376" cy="278.3838" r="2.6458" ></circle>
<circle id="encuesta-24-erc" class="encuesta sociometrica erc" cx="178.8376" cy="107.0707" r="2.6458" ></circle>
<circle id="encuesta-24-jxcat" class="encuesta sociometrica jxcat" cx="178.8376" cy="230.7071" r="2.6458" ></circle>
<circle id="encuesta-24-cec" class="encuesta sociometrica cec" cx="178.8376" cy="249.2929" r="2.6458" ></circle>
<circle id="encuesta-24-psc" class="encuesta sociometrica psc" cx="178.8376" cy="251.7172" r="2.6458" ></circle>
<circle id="encuesta-24-cs" class="encuesta sociometrica cs" cx="178.8376" cy="190.303" r="2.6458" ></circle>
<circle id="encuesta-24-pp" class="encuesta sociometrica pp" cx="178.8376" cy="248.4848" r="2.6458" ></circle>
<circle id="encuesta-24-otros" class="encuesta sociometrica otros" cx="178.8376" cy="302.6263" r="2.6458" ></circle>
</g>
<g id="encuesta-25">
<circle id="encuesta-25-cup" class="encuesta nc_report cup" cx="84.7863" cy="280.8081" r="3.5426" ></circle>
<circle id="encuesta-25-erc" class="encuesta nc_report erc" cx="84.7863" cy="140.202" r="3.5426" ></circle>
<circle id="encuesta-25-jxcat" class="encuesta nc_report jxcat" cx="84.7863" cy="221.0101" r="3.5426" ></circle>
<circle id="encuesta-25-cec" class="encuesta nc_report cec" cx="84.7863" cy="235.5556" r="3.5426" ></circle>
<circle id="encuesta-25-psc" class="encuesta nc_report psc" cx="84.7863" cy="221.0101" r="3.5426" ></circle>
<circle id="encuesta-25-cs" class="encuesta nc_report cs" cx="84.7863" cy="191.9192" r="3.5426" ></circle>
<circle id="encuesta-25-pp" class="encuesta nc_report pp" cx="84.7863" cy="256.5657" r="3.5426" ></circle>
<circle id="encuesta-25-otros" class="encuesta nc_report otros" cx="84.7863" cy="311.5152" r="3.5426" ></circle>
</g>

  
<text class="pie izquierda" x="0" y="390">Datos: Electograph | Modelo propio</text>
<text class="pie derecha" x="800" y="390">Jesús Carro | <tspan style="font-weight:bold">1datomas</tspan>.com</text>
</svg>
