<?xml version="1.0" encoding="utf-8"?><!DOCTYPE svg PUBLIC "-//W3C//DTD SVG 1.1//EN" "http://www.w3.org/Graphics/SVG/1.1/DTD/svg11.dtd">
<svg xmlns="http://www.w3.org/2000/svg" xmlns:xlink="http://www.w3.org/1999/xlink" version="1.1" viewBox="0 0 800 400">
<text x="0" y="20" style="font-size:large;font-weight:bold;color:black">Intención de voto en Elecciones Autonómicas en Cataluña</text>
<text x="0" y="40" style="color:gray">Promedio de encuestas y estimación de error</text>

<text class="horizontal axis" x="36" y="333.3333">0%</text>
<line class="horizontal axis" x1="40" y1="333.3333" x2="622.2222" y2="333.3333"></line>
<text class="horizontal axis" x="36" y="250">10%</text>
<line class="horizontal axis" x1="40" y1="250" x2="622.2222" y2="250"></line>
<text class="horizontal axis" x="36" y="166.6667">20%</text>
<line class="horizontal axis" x1="40" y1="166.6667" x2="622.2222" y2="166.6667"></line>
<text class="horizontal axis" x="36" y="83.3333">30%</text>
<line class="horizontal axis" x1="40" y1="83.3333" x2="622.2222" y2="83.3333"></line>
<line class="vertical axis" x1="40" y1="336.6667" x2="40" y2="66.6667"></line>
<text class="vertical axis" x="40" y="343.3333">Ago-2017</text>
<line class="vertical axis" x1="249.8708" y1="336.6667" x2="249.8708" y2="66.6667"></line>
<text class="vertical axis" x="249.8708" y="343.3333">Sep-2017</text>
<line class="vertical axis" x1="452.9716" y1="336.6667" x2="452.9716" y2="66.6667"></line>
<text class="vertical axis" x="452.9716" y="343.3333">Oct-2017</text>
<g id="encuesta-1">
<circle class="encuesta cup" cx="622.2222" cy="280.8333" r="3.1623" ></circle>
<circle class="encuesta erc" cx="622.2222" cy="113.3333" r="3.1623" ></circle>
<circle class="encuesta pdecat" cx="622.2222" cy="251.6667" r="3.1623" ></circle>
<circle class="encuesta cec" cx="622.2222" cy="241.6667" r="3.1623" ></circle>
<circle class="encuesta psc" cx="622.2222" cy="207.5" r="3.1623" ></circle>
<circle class="encuesta cs" cx="622.2222" cy="170" r="3.1623" ></circle>
<circle class="encuesta pp" cx="622.2222" cy="260.8333" r="3.1623" ></circle>
<circle class="encuesta otros" cx="622.2222" cy="307.5" r="3.1623" ></circle>
</g>
<g id="encuesta-2">
<circle class="encuesta cup" cx="588.3721" cy="286.6667" r="3.1623" ></circle>
<circle class="encuesta erc" cx="588.3721" cy="128.3333" r="3.1623" ></circle>
<circle class="encuesta pdecat" cx="588.3721" cy="232.5" r="3.1623" ></circle>
<circle class="encuesta cec" cx="588.3721" cy="238.3333" r="3.1623" ></circle>
<circle class="encuesta psc" cx="588.3721" cy="224.1667" r="3.1623" ></circle>
<circle class="encuesta cs" cx="588.3721" cy="173.3333" r="3.1623" ></circle>
<circle class="encuesta pp" cx="588.3721" cy="245.8333" r="3.1623" ></circle>
<circle class="encuesta otros" cx="588.3721" cy="304.1667" r="3.1623" ></circle>
</g>
<g id="encuesta-3">
<circle class="encuesta cup" cx="574.832" cy="268.3333" r="2.8284" ></circle>
<circle class="encuesta erc" cx="574.832" cy="99.1667" r="2.8284" ></circle>
<circle class="encuesta pdecat" cx="574.832" cy="233.3333" r="2.8284" ></circle>
<circle class="encuesta cec" cx="574.832" cy="258.3333" r="2.8284" ></circle>
<circle class="encuesta psc" cx="574.832" cy="212.5" r="2.8284" ></circle>
<circle class="encuesta cs" cx="574.832" cy="193.3333" r="2.8284" ></circle>
<circle class="encuesta pp" cx="574.832" cy="270.8333" r="2.8284" ></circle>
<circle class="encuesta otros" cx="574.832" cy="297.5" r="2.8284" ></circle>
</g>
<g id="encuesta-4">
<circle class="encuesta cup" cx="507.1318" cy="280.8333" r="2.8284" ></circle>
<circle class="encuesta erc" cx="507.1318" cy="68.3333" r="2.8284" ></circle>
<circle class="encuesta pdecat" cx="507.1318" cy="265.8333" r="2.8284" ></circle>
<circle class="encuesta cec" cx="507.1318" cy="233.3333" r="2.8284" ></circle>
<circle class="encuesta psc" cx="507.1318" cy="254.1667" r="2.8284" ></circle>
<circle class="encuesta cs" cx="507.1318" cy="180.8333" r="2.8284" ></circle>
<circle class="encuesta pp" cx="507.1318" cy="249.1667" r="2.8284" ></circle>
<circle class="encuesta otros" cx="507.1318" cy="300.8333" r="2.8284" ></circle>
</g>
<g id="encuesta-5">
<circle class="encuesta cup" cx="392.0413" cy="286.6667" r="3.5426" ></circle>
<circle class="encuesta erc" cx="392.0413" cy="124.1667" r="3.5426" ></circle>
<circle class="encuesta pdecat" cx="392.0413" cy="227.5" r="3.5426" ></circle>
<circle class="encuesta cec" cx="392.0413" cy="236.6667" r="3.5426" ></circle>
<circle class="encuesta psc" cx="392.0413" cy="219.1667" r="3.5426" ></circle>
<circle class="encuesta cs" cx="392.0413" cy="190" r="3.5426" ></circle>
<circle class="encuesta pp" cx="392.0413" cy="243.3333" r="3.5426" ></circle>
<circle class="encuesta otros" cx="392.0413" cy="305.8333" r="3.5426" ></circle>
</g>
<g id="encuesta-6">
<circle class="encuesta cup" cx="344.6512" cy="284.1667" r="2.8284" ></circle>
<circle class="encuesta erc" cx="344.6512" cy="127.5" r="2.8284" ></circle>
<circle class="encuesta pdecat" cx="344.6512" cy="220" r="2.8284" ></circle>
<circle class="encuesta cec" cx="344.6512" cy="231.6667" r="2.8284" ></circle>
<circle class="encuesta psc" cx="344.6512" cy="210" r="2.8284" ></circle>
<circle class="encuesta cs" cx="344.6512" cy="188.3333" r="2.8284" ></circle>
<circle class="encuesta pp" cx="344.6512" cy="255" r="2.8284" ></circle>
<circle class="encuesta otros" cx="344.6512" cy="316.6667" r="2.8284" ></circle>
</g>
<g id="encuesta-7">
<circle class="encuesta cup" cx="249.8708" cy="276.6667" r="2.6458" ></circle>
<circle class="encuesta erc" cx="249.8708" cy="100" r="2.6458" ></circle>
<circle class="encuesta pdecat" cx="249.8708" cy="227.5" r="2.6458" ></circle>
<circle class="encuesta cec" cx="249.8708" cy="246.6667" r="2.6458" ></circle>
<circle class="encuesta psc" cx="249.8708" cy="249.1667" r="2.6458" ></circle>
<circle class="encuesta cs" cx="249.8708" cy="185.8333" r="2.6458" ></circle>
<circle class="encuesta pp" cx="249.8708" cy="245.8333" r="2.6458" ></circle>
<circle class="encuesta otros" cx="249.8708" cy="301.6667" r="2.6458" ></circle>
</g>
<g id="encuesta-8">
<circle class="encuesta cup" cx="107.7003" cy="279.1667" r="3.5426" ></circle>
<circle class="encuesta erc" cx="107.7003" cy="134.1667" r="3.5426" ></circle>
<circle class="encuesta pdecat" cx="107.7003" cy="217.5" r="3.5426" ></circle>
<circle class="encuesta cec" cx="107.7003" cy="232.5" r="3.5426" ></circle>
<circle class="encuesta psc" cx="107.7003" cy="217.5" r="3.5426" ></circle>
<circle class="encuesta cs" cx="107.7003" cy="187.5" r="3.5426" ></circle>
<circle class="encuesta pp" cx="107.7003" cy="254.1667" r="3.5426" ></circle>
<circle class="encuesta otros" cx="107.7003" cy="310.8333" r="3.5426" ></circle>
</g>
<polyline class="cup" points=" 40,279.9084 46.77,279.9032 53.5401,279.8963 60.3101,279.887 67.0801,279.8741 73.8501,279.8579 80.6202,279.8393 87.3902,279.8203 94.1602,279.8036 100.9302,279.7931 107.7003,279.7963 114.4703,279.8775 121.2403,279.9144 128.0103,279.943 134.7804,279.9671 141.5504,279.9881 148.3204,280.0066 155.0904,280.023 161.8605,280.0377 168.6305,280.0505 175.4005,280.0614 182.1705,280.0703 188.9406,280.0769 195.7106,280.0806 202.4806,280.0807 209.2506,280.0758 216.0207,280.0637 222.7907,280.0376 229.5607,279.991 236.3307,279.9286 243.1008,279.8683 249.8708,279.8491 256.6408,280.1352 263.4109,280.269 270.1809,280.3793 276.9509,280.479 283.7209,280.5739 290.491,280.667 297.261,280.7608 304.031,280.8577 310.801,280.9603 317.5711,281.0726 324.3411,281.2064 331.1111,281.3697 337.8811,281.5461 344.6512,281.6948 351.4212,281.5466 358.1912,281.5775 364.9612,281.6724 371.7313,281.8339 378.5013,282.0414 385.2713,282.2477 392.0413,282.3701 398.8114,281.758 405.5814,281.5343 412.3514,281.374 419.1214,281.2464 425.8915,281.1393 432.6615,281.0465 439.4315,280.9645 446.2016,280.8907 452.9716,280.8236 459.7416,280.7619 466.5116,280.705 473.2817,280.6525 480.0517,280.6044 486.8217,280.5605 493.5917,280.5201 500.3618,280.4809 507.1318,280.4379 513.9018,280.3588 520.6718,280.292 527.4419,280.2227 534.2119,280.1476 540.9819,280.0624 547.7519,279.9594 554.522,279.8084 561.292,279.5901 568.062,279.3567 574.832,279.2456 581.6021,280.2988 588.3721,280.657 595.1421,280.3411 601.9121,280.3118 608.6822,280.3183 615.4522,280.3391 622.2222,280.3581"></polyline>
<polyline class="cup error" points=" 40,258.0376 46.77,258.2828 53.5401,258.5515 60.3101,258.8562 67.0801,259.21 73.8501,259.6124 80.6202,260.0479 87.3902,260.4882 94.1602,260.8934 100.9302,261.2055 107.7003,261.3138 114.4703,260.3295 121.2403,260.0038 128.0103,259.8036 134.7804,259.6736 141.5504,259.591 148.3204,259.544 155.0904,259.5256 161.8605,259.5311 168.6305,259.5577 175.4005,259.6034 182.1705,259.6671 188.9406,259.7483 195.7106,259.8471 202.4806,259.9645 209.2506,260.1026 216.0207,260.2656 222.7907,260.4667 229.5607,260.7187 236.3307,261.0116 243.1008,261.3083 249.8708,261.5305 256.6408,261.1739 263.4109,261.1478 270.1809,261.1914 276.9509,261.2798 283.7209,261.4044 290.491,261.5624 297.261,261.7544 304.031,261.9834 310.801,262.2567 317.5711,262.5884 324.3411,263.029 331.1111,263.6159 337.8811,264.2817 344.6512,264.8375 351.4212,264.0022 358.1912,263.9671 364.9612,264.1697 371.7313,264.5997 378.5013,265.1924 385.2713,265.8053 392.0413,266.1828 398.8114,264.3694 405.5814,263.7475 412.3514,263.3284 419.1214,263.0194 425.8915,262.7848 432.6615,262.6066 439.4315,262.4748 446.2016,262.3836 452.9716,262.3303 459.7416,262.3146 466.5116,262.3388 473.2817,262.414 480.0517,262.5524 486.8217,262.7505 493.5917,262.9838 500.3618,263.2035 507.1318,263.3143 513.9018,262.6863 520.6718,262.4935 527.4419,262.396 534.2119,262.3623 540.9819,262.3831 547.7519,262.4578 554.522,262.5965 561.292,262.8118 568.062,263.1036 574.832,263.4649 581.6021,264.155 588.3721,264.4853 595.1421,263.3807 601.9121,263.1613 608.6822,263.2237 615.4522,263.4546 622.2222,263.6383 622.2222,297.078 615.4522,297.2235 608.6822,297.413 601.9121,297.4623 595.1421,297.3016 588.3721,296.8287 581.6021,296.4425 574.832,295.0264 568.062,295.6099 561.292,296.3683 554.522,297.0203 547.7519,297.461 540.9819,297.7418 534.2119,297.9329 527.4419,298.0494 520.6718,298.0905 513.9018,298.0313 507.1318,297.5614 500.3618,297.7583 493.5917,298.0564 486.8217,298.3706 480.0517,298.6563 473.2817,298.8911 466.5116,299.0712 459.7416,299.2093 452.9716,299.3168 446.2016,299.3978 439.4315,299.4542 432.6615,299.4865 425.8915,299.4937 419.1214,299.4733 412.3514,299.4197 405.5814,299.3212 398.8114,299.1466 392.0413,298.5573 385.2713,298.6901 378.5013,298.8905 371.7313,299.0681 364.9612,299.1751 358.1912,299.188 351.4212,299.0911 344.6512,298.5521 337.8811,298.8104 331.1111,299.1235 324.3411,299.3839 317.5711,299.5568 310.801,299.664 304.031,299.7321 297.261,299.7673 290.491,299.7715 283.7209,299.7433 276.9509,299.6783 270.1809,299.5672 263.4109,299.3902 256.6408,299.0964 249.8708,298.1677 243.1008,298.4283 236.3307,298.8455 229.5607,299.2633 222.7907,299.6085 216.0207,299.8618 209.2506,300.049 202.4806,300.1968 195.7106,300.3141 188.9406,300.4055 182.1705,300.4736 175.4005,300.5194 168.6305,300.5432 161.8605,300.5442 155.0904,300.5205 148.3204,300.4691 141.5504,300.3851 134.7804,300.2607 128.0103,300.0825 121.2403,299.825 114.4703,299.4256 107.7003,298.2789 100.9302,298.3806 94.1602,298.7138 87.3902,299.1524 80.6202,299.6307 73.8501,300.1034 67.0801,300.5383 60.3101,300.9177 53.5401,301.2411 46.77,301.5236 40,301.7792"></polyline>
<text class = "party cup" x="631.1111" y="287"><tspan class="party_name">CUP</tspan> (6.4±2.0%)</text>
<polyline class="erc" points=" 40,120.7765 46.77,120.9144 53.5401,121.0802 60.3101,121.289 67.0801,121.5567 73.8501,121.8822 80.6202,122.2459 87.3902,122.6129 94.1602,122.9355 100.9302,123.1455 107.7003,123.1099 114.4703,121.705 121.2403,121.0762 128.0103,120.5874 134.7804,120.173 141.5504,119.8059 148.3204,119.4716 155.0904,119.1609 161.8605,118.8673 168.6305,118.586 175.4005,118.313 182.1705,118.0446 188.9406,117.7772 195.7106,117.5069 202.4806,117.2286 209.2506,116.9353 216.0207,116.6158 222.7907,116.2381 229.5607,115.7733 236.3307,115.2467 243.1008,114.7438 249.8708,114.4395 256.6408,115.5063 263.4109,115.8683 270.1809,116.1137 276.9509,116.303 283.7209,116.4612 290.491,116.6028 297.261,116.7377 304.031,116.8749 310.801,117.0242 317.5711,117.1997 324.3411,117.4433 331.1111,117.7858 337.8811,118.1749 344.6512,118.4632 351.4212,117.6223 358.1912,117.3781 364.9612,117.2776 371.7313,117.3017 378.5013,117.4155 385.2713,117.5472 392.0413,117.566 398.8114,116.4353 405.5814,115.8788 412.3514,115.402 419.1214,114.9574 425.8915,114.5249 432.6615,114.0921 439.4315,113.6494 446.2016,113.1876 452.9716,112.6963 459.7416,112.1614 466.5116,111.5618 473.2817,110.8445 480.0517,109.9554 486.8217,108.9128 493.5917,107.8195 500.3618,106.8723 507.1318,106.4448 513.9018,109.0838 520.6718,110.0551 527.4419,110.7301 534.2119,111.2473 540.9819,111.6603 547.7519,111.9925 554.522,112.2352 561.292,112.3794 568.062,112.4787 574.832,112.6844 581.6021,114.2974 588.3721,114.9461 595.1421,114.1613 601.9121,114.0317 608.6822,113.9755 615.4522,113.9467 622.2222,113.9391"></polyline>
<polyline class="erc error" points=" 40,84.0891 46.77,84.6272 53.5401,85.2344 60.3101,85.9472 67.0801,86.8045 73.8501,87.8047 80.6202,88.9017 87.3902,90.0117 94.1602,91.0172 100.9302,91.7494 107.7003,91.8815 114.4703,88.7364 121.2403,87.5132 128.0103,86.6473 134.7804,85.9769 141.5504,85.436 148.3204,84.9892 155.0904,84.6154 161.8605,84.3005 168.6305,84.0348 175.4005,83.8112 182.1705,83.6245 188.9406,83.4707 195.7106,83.347 202.4806,83.2512 209.2506,83.1818 216.0207,83.1379 222.7907,83.1199 229.5607,83.1301 236.3307,83.1708 243.1008,83.2392 249.8708,83.3205 256.6408,83.3462 263.4109,83.4458 270.1809,83.579 276.9509,83.7447 283.7209,83.9456 290.491,84.1861 297.261,84.4731 304.031,84.8173 310.801,85.2355 317.5711,85.7584 324.3411,86.4904 331.1111,87.5107 337.8811,88.6858 344.6512,89.6285 351.4212,87.6694 358.1912,87.3115 364.9612,87.3765 371.7313,87.8239 378.5013,88.5496 385.2713,89.3303 392.0413,89.7566 398.8114,86.6986 405.5814,85.5048 412.3514,84.614 419.1214,83.8792 425.8915,83.2421 432.6615,82.6717 439.4315,82.148 446.2016,81.6567 452.9716,81.1851 459.7416,80.7207 466.5116,80.2471 473.2817,79.7291 480.0517,79.1319 486.8217,78.4687 493.5917,77.8065 500.3618,77.2692 507.1318,77.0893 513.9018,78.8822 520.6718,79.6698 527.4419,80.3154 534.2119,80.9141 540.9819,81.5124 547.7519,82.1463 554.522,82.8749 561.292,83.7429 568.062,84.7162 574.832,85.7035 581.6021,86.669 588.3721,87.2546 595.1421,85.1975 601.9121,84.7594 608.6822,84.7926 615.4522,85.1033 622.2222,85.362 622.2222,142.5163 615.4522,142.7901 608.6822,143.1584 601.9121,143.3039 595.1421,143.125 588.3721,142.6376 581.6021,141.9258 574.832,139.6653 568.062,140.2413 561.292,141.0159 554.522,141.5955 547.7519,141.8387 540.9819,141.8083 534.2119,141.5805 527.4419,141.1448 520.6718,140.4405 513.9018,139.2854 507.1318,135.8003 500.3618,136.4754 493.5917,137.8326 486.8217,139.3568 480.0517,140.7789 473.2817,141.9599 466.5116,142.8764 459.7416,143.6022 452.9716,144.2074 446.2016,144.7186 439.4315,145.1508 432.6615,145.5125 425.8915,145.8076 419.1214,146.0356 412.3514,146.19 405.5814,146.2528 398.8114,146.172 392.0413,145.3753 385.2713,145.7641 378.5013,146.2813 371.7313,146.7795 364.9612,147.1787 358.1912,147.4446 351.4212,147.5753 344.6512,147.2979 337.8811,147.664 331.1111,148.0608 324.3411,148.3961 317.5711,148.6409 310.801,148.8129 304.031,148.9326 297.261,149.0023 290.491,149.0195 283.7209,148.9769 276.9509,148.8612 270.1809,148.6484 263.4109,148.2908 256.6408,147.6663 249.8708,145.5584 243.1008,146.2484 236.3307,147.3225 229.5607,148.4165 222.7907,149.3563 216.0207,150.0937 209.2506,150.6888 202.4806,151.2059 195.7106,151.6667 188.9406,152.0838 182.1705,152.4647 175.4005,152.8148 168.6305,153.1372 161.8605,153.434 155.0904,153.7063 148.3204,153.954 141.5504,154.1759 134.7804,154.369 128.0103,154.5274 121.2403,154.6392 114.4703,154.6735 107.7003,154.3384 100.9302,154.5416 94.1602,154.8538 87.3902,155.2142 80.6202,155.59 73.8501,155.9596 67.0801,156.3088 60.3101,156.6308 53.5401,156.926 46.77,157.2016 40,157.464"></polyline>
<text class = "party erc" x="631.1111" y="114"><tspan class="party_name">ERC</tspan> (26.3±3.4%)</text>
<polyline class="pdecat" points=" 40,224.7576 46.77,224.7025 53.5401,224.6313 60.3101,224.5355 67.0801,224.4062 73.8501,224.2438 80.6202,224.0589 87.3902,223.8706 94.1602,223.7052 100.9302,223.6007 107.7003,223.6311 114.4703,224.4212 121.2403,224.7809 128.0103,225.0622 134.7804,225.3012 141.5504,225.5124 148.3204,225.7037 155.0904,225.8798 161.8605,226.0436 168.6305,226.1973 175.4005,226.3425 182.1705,226.4802 188.9406,226.6114 195.7106,226.7365 202.4806,226.8561 209.2506,226.9704 216.0207,227.0797 222.7907,227.1841 229.5607,227.2831 236.3307,227.3752 243.1008,227.459 249.8708,227.5353 256.6408,227.616 263.4109,227.6949 270.1809,227.7709 276.9509,227.8427 283.7209,227.9089 290.491,227.9676 297.261,228.0166 304.031,228.0525 310.801,228.0701 317.5711,228.0598 324.3411,227.9889 331.1111,227.8319 337.8811,227.6298 344.6512,227.5051 351.4212,228.3316 358.1912,228.6812 364.9612,228.9416 371.7313,229.1397 378.5013,229.2891 385.2713,229.4119 392.0413,229.5525 398.8114,230.0651 405.5814,230.4137 412.3514,230.7476 419.1214,231.0806 425.8915,231.4196 432.6615,231.7692 439.4315,232.1342 446.2016,232.5197 452.9716,232.9323 459.7416,233.3813 466.5116,233.8818 473.2817,234.4718 480.0517,235.1905 486.8217,236.0232 493.5917,236.8933 500.3618,237.6564 507.1318,238.0404 513.9018,236.1957 520.6718,235.574 527.4419,235.1733 534.2119,234.8907 540.9819,234.6845 547.7519,234.5321 554.522,234.4154 561.292,234.3229 568.062,234.2564 574.832,234.2304 581.6021,234.3437 588.3721,234.4817 595.1421,234.8978 601.9121,235.3778 608.6822,236.0756 615.4522,236.8977 622.2222,237.5474"></polyline>
<polyline class="pdecat error" points=" 40,194.4422 46.77,194.7201 53.5401,195.0154 60.3101,195.3372 67.0801,195.6954 73.8501,196.0899 80.6202,196.5098 87.3902,196.9341 94.1602,197.3325 100.9302,197.6604 107.7003,197.8333 114.4703,197.2095 121.2403,197.0922 128.0103,197.0744 134.7804,197.1137 141.5504,197.1924 148.3204,197.3017 155.0904,197.4362 161.8605,197.5929 168.6305,197.7699 175.4005,197.9663 182.1705,198.1819 188.9406,198.4174 195.7106,198.6743 202.4806,198.9556 209.2506,199.2661 216.0207,199.6149 222.7907,200.0297 229.5607,200.5363 236.3307,201.1131 243.1008,201.6838 249.8708,202.0886 256.6408,201.2885 263.4109,201.1458 270.1809,201.1273 276.9509,201.1793 283.7209,201.281 290.491,201.4224 297.261,201.5982 304.031,201.8062 310.801,202.0467 317.5711,202.3234 324.3411,202.6541 331.1111,203.0521 337.8811,203.4929 344.6512,203.9055 351.4212,203.8394 358.1912,204.1096 364.9612,204.5179 371.7313,205.0745 378.5013,205.736 385.2713,206.4001 392.0413,206.8832 398.8114,205.8276 405.5814,205.6665 412.3514,205.6747 419.1214,205.7847 425.8915,205.9719 432.6615,206.2258 439.4315,206.543 446.2016,206.9243 452.9716,207.375 459.7416,207.9059 466.5116,208.537 473.2817,209.3227 480.0517,210.3201 486.8217,211.5088 493.5917,212.7783 500.3618,213.9167 507.1318,214.5223 513.9018,211.8847 520.6718,211.077 527.4419,210.629 534.2119,210.3967 540.9819,210.3304 547.7519,210.4171 554.522,210.6939 561.292,211.1929 568.062,211.8426 574.832,212.4563 581.6021,212.0206 588.3721,212.1031 595.1421,211.4948 601.9121,211.7388 608.6822,212.5352 615.4522,213.6655 622.2222,214.5564 622.2222,260.5384 615.4522,260.13 608.6822,259.6161 601.9121,259.0168 595.1421,258.3007 588.3721,256.8603 581.6021,256.6668 574.832,256.0046 568.062,256.6703 561.292,257.4528 554.522,258.1369 547.7519,258.647 540.9819,259.0386 534.2119,259.3847 527.4419,259.7177 520.6718,260.0711 513.9018,260.5066 507.1318,261.5585 500.3618,261.3962 493.5917,261.0084 486.8217,260.5376 480.0517,260.061 473.2817,259.6209 466.5116,259.2265 459.7416,258.8567 452.9716,258.4896 446.2016,258.1152 439.4315,257.7255 432.6615,257.3126 425.8915,256.8673 419.1214,256.3766 412.3514,255.8204 405.5814,255.161 398.8114,254.3025 392.0413,252.2218 385.2713,252.4237 378.5013,252.8422 371.7313,253.2049 364.9612,253.3652 358.1912,253.2528 351.4212,252.8238 344.6512,251.1047 337.8811,251.7666 331.1111,252.6117 324.3411,253.3237 317.5711,253.7961 310.801,254.0935 304.031,254.2989 297.261,254.435 290.491,254.5128 283.7209,254.5367 276.9509,254.5062 270.1809,254.4146 263.4109,254.2439 256.6408,253.9435 249.8708,252.9821 243.1008,253.2342 236.3307,253.6372 229.5607,254.03 222.7907,254.3385 216.0207,254.5444 209.2506,254.6748 202.4806,254.7566 195.7106,254.7987 188.9406,254.8054 182.1705,254.7786 175.4005,254.7187 168.6305,254.6247 161.8605,254.4942 155.0904,254.3233 148.3204,254.1058 141.5504,253.8325 134.7804,253.4887 128.0103,253.05 121.2403,252.4696 114.4703,251.6329 107.7003,249.4289 100.9302,249.541 94.1602,250.0779 87.3902,250.807 80.6202,251.6081 73.8501,252.3978 67.0801,253.117 60.3101,253.7338 53.5401,254.2472 46.77,254.6849 40,255.0729"></polyline>
<text class = "party pdecat" x="631.1111" y="226"><tspan class="party_name">PDeCAT</tspan> (11.5±2.8%)</text>
<polyline class="cec" points=" 40,237.2626 46.77,237.2085 53.5401,237.1448 60.3101,237.0659 67.0801,236.9664 73.8501,236.8467 80.6202,236.7137 87.3902,236.5799 94.1602,236.4621 100.9302,236.3844 107.7003,236.3932 114.4703,236.884 121.2403,237.1012 128.0103,237.2691 134.7804,237.4108 141.5504,237.5359 148.3204,237.6497 155.0904,237.7554 161.8605,237.8556 168.6305,237.9519 175.4005,238.0459 182.1705,238.1393 188.9406,238.2334 195.7106,238.3301 202.4806,238.4317 209.2506,238.5415 216.0207,238.6649 222.7907,238.8176 229.5607,239.0138 236.3307,239.2417 243.1008,239.4597 249.8708,239.582 256.6408,239.03 263.4109,238.8221 270.1809,238.6706 276.9509,238.5459 283.7209,238.4356 290.491,238.3328 297.261,238.2324 304.031,238.1299 310.801,238.02 317.5711,237.8948 324.3411,237.7299 331.1111,237.5077 337.8811,237.2607 344.6512,237.0784 351.4212,237.5772 358.1912,237.7277 364.9612,237.8127 371.7313,237.8544 378.5013,237.8659 385.2713,237.8639 392.0413,237.8752 398.8114,238.0932 405.5814,238.2021 412.3514,238.2918 419.1214,238.3707 425.8915,238.442 432.6615,238.5071 439.4315,238.5667 446.2016,238.6211 452.9716,238.6696 459.7416,238.7114 466.5116,238.744 473.2817,238.7609 480.0517,238.7548 486.8217,238.7274 493.5917,238.692 500.3618,238.676 507.1318,238.7345 513.9018,239.2429 520.6718,239.5324 527.4419,239.7982 534.2119,240.0641 540.9819,240.3454 547.7519,240.661 554.522,241.0675 561.292,241.6008 568.062,242.1725 574.832,242.5606 581.6021,241.2517 588.3721,240.8613 595.1421,240.8427 601.9121,240.7576 608.6822,240.7059 615.4522,240.6831 622.2222,240.666"></polyline>
<polyline class="cec error" points=" 40,214.6884 46.77,214.8856 53.5401,215.0984 60.3101,215.3347 67.0801,215.6032 73.8501,215.9038 80.6202,216.2272 87.3902,216.5556 94.1602,216.8628 100.9302,217.1108 107.7003,217.2266 114.4703,216.649 121.2403,216.5049 128.0103,216.4459 134.7804,216.4357 141.5504,216.4598 148.3204,216.5108 155.0904,216.5846 161.8605,216.6787 168.6305,216.7922 175.4005,216.9246 182.1705,217.0767 188.9406,217.2497 195.7106,217.4464 202.4806,217.6708 209.2506,217.9299 216.0207,218.2362 222.7907,218.6263 229.5607,219.135 236.3307,219.7347 243.1008,220.3256 249.8708,220.6978 256.6408,219.459 263.4109,219.0739 270.1809,218.843 276.9509,218.6965 283.7209,218.6071 290.491,218.5612 297.261,218.5514 304.031,218.574 310.801,218.6279 317.5711,218.7151 324.3411,218.8492 331.1111,219.0421 337.8811,219.2768 344.6512,219.4966 351.4212,219.3186 358.1912,219.4056 364.9612,219.5987 371.7313,219.9076 378.5013,220.3025 385.2713,220.7061 392.0413,220.9729 398.8114,220.0012 405.5814,219.7195 412.3514,219.5573 419.1214,219.4614 425.8915,219.4112 432.6615,219.3968 439.4315,219.4125 446.2016,219.4551 452.9716,219.5231 459.7416,219.6162 466.5116,219.7355 473.2817,219.8854 480.0517,220.0711 486.8217,220.2907 493.5917,220.5343 500.3618,220.7829 507.1318,221.002 513.9018,220.975 520.6718,221.1507 527.4419,221.4011 534.2119,221.7226 540.9819,222.1259 547.7519,222.6381 554.522,223.3601 561.292,224.3617 568.062,225.4951 574.832,226.3789 581.6021,224.6088 588.3721,224.1596 595.1421,223.3555 601.9121,223.0763 608.6822,223.079 615.4522,223.2675 622.2222,223.4157 622.2222,257.9163 615.4522,258.0988 608.6822,258.3328 601.9121,258.4389 595.1421,258.3298 588.3721,257.5629 581.6021,257.8946 574.832,258.7423 568.062,258.8498 561.292,258.84 554.522,258.7749 547.7519,258.6838 540.9819,258.5649 534.2119,258.4055 527.4419,258.1953 520.6718,257.9142 513.9018,257.5108 507.1318,256.4669 500.3618,256.5691 493.5917,256.8497 486.8217,257.1641 480.0517,257.4385 473.2817,257.6364 466.5116,257.7525 459.7416,257.8065 452.9716,257.8162 446.2016,257.787 439.4315,257.721 432.6615,257.6174 425.8915,257.4727 419.1214,257.2801 412.3514,257.0263 405.5814,256.6846 398.8114,256.1851 392.0413,254.7774 385.2713,255.0217 378.5013,255.4292 371.7313,255.8011 364.9612,256.0266 358.1912,256.0498 351.4212,255.8358 344.6512,254.6602 337.8811,255.2446 331.1111,255.9732 324.3411,256.6105 317.5711,257.0745 310.801,257.4121 304.031,257.6858 297.261,257.9135 290.491,258.1044 283.7209,258.2641 276.9509,258.3952 270.1809,258.4982 263.4109,258.5704 256.6408,258.6009 249.8708,258.4662 243.1008,258.5939 236.3307,258.7488 229.5607,258.8927 222.7907,259.009 216.0207,259.0937 209.2506,259.153 202.4806,259.1925 195.7106,259.2138 188.9406,259.217 182.1705,259.2019 175.4005,259.1673 168.6305,259.1116 161.8605,259.0324 155.0904,258.9263 148.3204,258.7885 141.5504,258.612 134.7804,258.3858 128.0103,258.0923 121.2403,257.6975 114.4703,257.119 107.7003,255.5599 100.9302,255.6579 94.1602,256.0614 87.3902,256.6042 80.6202,257.2002 73.8501,257.7895 67.0801,258.3296 60.3101,258.7971 53.5401,259.1912 46.77,259.5315 40,259.8367"></polyline>
<text class = "party cec" x="631.1111" y="247"><tspan class="party_name">CeC</tspan> (11.1±2.1%)</text>
<polyline class="psc" points=" 40,224.2773 46.77,224.1994 53.5401,224.1081 60.3101,223.9959 67.0801,223.8549 73.8501,223.6858 80.6202,223.4983 87.3902,223.3102 94.1602,223.1455 100.9302,223.0383 107.7003,223.0554 114.4703,223.7617 121.2403,224.0795 128.0103,224.3286 134.7804,224.5424 141.5504,224.7348 148.3204,224.9136 155.0904,225.0839 161.8605,225.2495 168.6305,225.4138 175.4005,225.5797 182.1705,225.7503 188.9406,225.9292 195.7106,226.1208 202.4806,226.3313 209.2506,226.5695 216.0207,226.8506 222.7907,227.2182 229.5607,227.7127 236.3307,228.3017 243.1008,228.8684 249.8708,229.1701 256.6408,227.5688 263.4109,226.9398 270.1809,226.4718 276.9509,226.0821 283.7209,225.7368 290.491,225.4167 297.261,225.1086 304.031,224.801 310.801,224.4812 317.5711,224.1312 324.3411,223.6954 331.1111,223.1351 337.8811,222.5243 344.6512,222.0624 351.4212,223.1142 358.1912,223.3835 364.9612,223.4961 371.7313,223.4975 378.5013,223.4234 385.2713,223.3268 392.0413,223.294 398.8114,223.9704 405.5814,224.2791 412.3514,224.5308 419.1214,224.7563 425.8915,224.9687 432.6615,225.1764 439.4315,225.3857 446.2016,225.6029 452.9716,225.8348 459.7416,226.0906 466.5116,226.3843 473.2817,226.7503 480.0517,227.2244 486.8217,227.7959 493.5917,228.3987 500.3618,228.9043 507.1318,229.0647 513.9018,227.188 520.6718,226.3907 527.4419,225.7691 534.2119,225.2286 540.9819,224.7273 547.7519,224.2366 554.522,223.7097 561.292,223.1213 568.062,222.5294 574.832,222.0694 581.6021,222.6271 588.3721,222.6046 595.1421,222.282 601.9121,221.8598 608.6822,221.2265 615.4522,220.475 622.2222,219.8715"></polyline>
<polyline class="psc error" points=" 40,197.8146 46.77,198.0276 53.5401,198.2568 60.3101,198.5098 67.0801,198.7953 73.8501,199.1135 80.6202,199.4554 87.3902,199.8036 94.1602,200.1323 100.9302,200.4036 107.7003,200.5453 114.4703,200.0127 121.2403,199.9123 128.0103,199.8992 134.7804,199.9379 141.5504,200.0143 148.3204,200.1216 155.0904,200.2561 161.8605,200.4163 168.6305,200.602 175.4005,200.8142 182.1705,201.0549 188.9406,201.3276 195.7106,201.6379 202.4806,201.9939 209.2506,202.4091 216.0207,202.9069 222.7907,203.5564 229.5607,204.4225 236.3307,205.4537 243.1008,206.4635 249.8708,207.0604 256.6408,204.63 263.4109,203.7821 270.1809,203.212 276.9509,202.7888 283.7209,202.4604 290.491,202.1997 297.261,201.9906 304.031,201.8222 310.801,201.6868 317.5711,201.5774 324.3411,201.4822 331.1111,201.3964 337.8811,201.3377 344.6512,201.3379 351.4212,201.6131 358.1912,201.8108 364.9612,202.0496 371.7313,202.361 378.5013,202.7313 385.2713,203.105 392.0413,203.3691 398.8114,202.67 405.5814,202.529 412.3514,202.4918 419.1214,202.5178 425.8915,202.5931 432.6615,202.7125 439.4315,202.8752 446.2016,203.0839 452.9716,203.3443 459.7416,203.6669 466.5116,204.07 473.2817,204.6025 480.0517,205.316 486.8217,206.1949 493.5917,207.1434 500.3618,207.9735 507.1318,208.3232 513.9018,205.7408 520.6718,204.7718 527.4419,204.1002 534.2119,203.595 540.9819,203.2074 547.7519,202.9171 554.522,202.7253 561.292,202.6453 568.062,202.6722 574.832,202.7667 581.6021,202.8508 588.3721,202.7743 595.1421,201.52 601.9121,200.86 608.6822,200.273 615.4522,199.7473 622.2222,199.3206 622.2222,240.4224 615.4522,241.2027 608.6822,242.1801 601.9121,242.8595 595.1421,243.0439 588.3721,242.4348 581.6021,242.4034 574.832,241.372 568.062,242.3867 561.292,243.5973 554.522,244.6941 547.7519,245.556 540.9819,246.2471 534.2119,246.8622 527.4419,247.4381 520.6718,248.0095 513.9018,248.6352 507.1318,249.8062 500.3618,249.835 493.5917,249.6541 486.8217,249.3969 480.0517,249.1329 473.2817,248.8981 466.5116,248.6986 459.7416,248.5143 452.9716,248.3253 446.2016,248.1219 439.4315,247.8962 432.6615,247.6403 425.8915,247.3443 419.1214,246.9947 412.3514,246.5698 405.5814,246.0292 398.8114,245.2709 392.0413,243.2189 385.2713,243.5485 378.5013,244.1155 371.7313,244.634 364.9612,244.9425 358.1912,244.9561 351.4212,244.6153 344.6512,242.787 337.8811,243.7109 331.1111,244.8738 324.3411,245.9086 317.5711,246.6849 310.801,247.2757 304.031,247.7797 297.261,248.2267 290.491,248.6337 283.7209,249.0132 276.9509,249.3754 270.1809,249.7315 263.4109,250.0976 256.6408,250.5076 249.8708,251.2798 243.1008,251.2733 236.3307,251.1496 229.5607,251.003 222.7907,250.8799 216.0207,250.7943 209.2506,250.7298 202.4806,250.6686 195.7106,250.6038 188.9406,250.5307 182.1705,250.4457 175.4005,250.3452 168.6305,250.2256 161.8605,250.0828 155.0904,249.9117 148.3204,249.7056 141.5504,249.4552 134.7804,249.1468 128.0103,248.758 121.2403,248.2467 114.4703,247.5108 107.7003,245.5656 100.9302,245.673 94.1602,246.1586 87.3902,246.8168 80.6202,247.5412 73.8501,248.258 67.0801,248.9146 60.3101,249.4821 53.5401,249.9594 46.77,250.3711 40,250.7399"></polyline>
<text class = "party psc" x="631.1111" y="205"><tspan class="party_name">PSC</tspan> (13.6±2.5%)</text>
<polyline class="cs" points=" 40,186.2083 46.77,186.2156 53.5401,186.2261 60.3101,186.2412 67.0801,186.2625 73.8501,186.29 80.6202,186.3218 87.3902,186.3544 94.1602,186.3832 100.9302,186.4012 107.7003,186.3951 114.4703,186.2521 121.2403,186.187 128.0103,186.1361 134.7804,186.0932 141.5504,186.0555 148.3204,186.0217 155.0904,185.991 161.8605,185.9629 168.6305,185.937 175.4005,185.913 182.1705,185.8908 188.9406,185.8704 195.7106,185.8515 202.4806,185.8343 209.2506,185.8186 216.0207,185.8046 222.7907,185.7925 229.5607,185.7823 236.3307,185.7743 243.1008,185.7682 249.8708,185.763 256.6408,185.7525 263.4109,185.7472 270.1809,185.7446 276.9509,185.7449 283.7209,185.7486 290.491,185.7561 297.261,185.7683 304.031,185.7864 310.801,185.8121 317.5711,185.8485 324.3411,185.9057 331.1111,185.9909 337.8811,186.0917 344.6512,186.1727 351.4212,185.9914 358.1912,185.9636 364.9612,185.9895 371.7313,186.0718 378.5013,186.1951 385.2713,186.3212 392.0413,186.3804 398.8114,185.8153 405.5814,185.5722 412.3514,185.3789 419.1214,185.2101 425.8915,185.0556 432.6615,184.9104 439.4315,184.771 446.2016,184.6352 452.9716,184.5011 459.7416,184.367 466.5116,184.2308 473.2817,184.0885 480.0517,183.9364 486.8217,183.7764 493.5917,183.6167 500.3618,183.4709 507.1318,183.3628 513.9018,183.4529 520.6718,183.4278 527.4419,183.3808 534.2119,183.3227 540.9819,183.2598 547.7519,183.1991 554.522,183.1645 561.292,183.1729 568.062,183.1856 574.832,183.0859 581.6021,181.8823 588.3721,181.3414 595.1421,181.6096 601.9121,181.3676 608.6822,180.9133 615.4522,180.3469 622.2222,179.8893"></polyline>
<polyline class="cs error" points=" 40,159.032 46.77,159.3387 53.5401,159.679 60.3101,160.0705 67.0801,160.5319 73.8501,161.0625 80.6202,161.6409 87.3902,162.2272 94.1602,162.7649 100.9302,163.1724 107.7003,163.2923 114.4703,161.859 121.2403,161.3544 128.0103,161.0259 134.7804,160.7953 141.5504,160.6311 148.3204,160.5167 155.0904,160.4421 161.8605,160.4013 168.6305,160.3903 175.4005,160.4066 182.1705,160.4488 188.9406,160.5168 195.7106,160.6112 202.4806,160.7342 209.2506,160.89 216.0207,161.0865 222.7907,161.3487 229.5607,161.7002 236.3307,162.1235 243.1008,162.5509 249.8708,162.8378 256.6408,162.0348 263.4109,161.8281 270.1809,161.7382 276.9509,161.7184 283.7209,161.752 290.491,161.8319 297.261,161.9566 304.031,162.1284 310.801,162.3542 317.5711,162.6494 324.3411,163.0705 331.1111,163.6607 337.8811,164.3467 344.6512,164.9153 351.4212,163.904 358.1912,163.7936 364.9612,163.9451 371.7313,164.3456 378.5013,164.9277 385.2713,165.5398 392.0413,165.9042 398.8114,163.8997 405.5814,163.1809 412.3514,162.6789 419.1214,162.2942 425.8915,161.9881 432.6615,161.7414 439.4315,161.5433 446.2016,161.3875 452.9716,161.2708 459.7416,161.1925 466.5116,161.1545 473.2817,161.1661 480.0517,161.2389 486.8217,161.3705 493.5917,161.5411 500.3618,161.7082 507.1318,161.7868 513.9018,161.2178 520.6718,161.0433 527.4419,160.9651 534.2119,160.9603 540.9819,161.0293 547.7519,161.1888 554.522,161.5136 561.292,162.0614 568.062,162.7259 574.832,163.205 581.6021,161.4717 588.3721,160.8636 595.1421,160.1946 601.9121,159.7171 608.6822,159.3193 615.4522,158.9941 622.2222,158.7253 622.2222,201.0533 615.4522,201.6997 608.6822,202.5072 601.9121,203.0181 595.1421,203.0246 588.3721,201.8192 581.6021,202.293 574.832,202.9669 568.062,203.6454 561.292,204.2844 554.522,204.8153 547.7519,205.2095 540.9819,205.4902 534.2119,205.6851 527.4419,205.7964 520.6718,205.8123 513.9018,205.6881 507.1318,204.9388 500.3618,205.2336 493.5917,205.6923 486.8217,206.1824 480.0517,206.6339 473.2817,207.011 466.5116,207.3072 459.7416,207.5415 452.9716,207.7313 446.2016,207.8828 439.4315,207.9986 432.6615,208.0793 425.8915,208.1232 419.1214,208.126 412.3514,208.079 405.5814,207.9636 398.8114,207.731 392.0413,206.8565 385.2713,207.1027 378.5013,207.4626 371.7313,207.7981 364.9612,208.0339 358.1912,208.1336 351.4212,208.0788 344.6512,207.43 337.8811,207.8366 331.1111,208.3212 324.3411,208.7409 317.5711,209.0477 310.801,209.27 304.031,209.4444 297.261,209.58 290.491,209.6803 283.7209,209.7452 276.9509,209.7714 270.1809,209.751 263.4109,209.6663 256.6408,209.4703 249.8708,208.6883 243.1008,208.9855 236.3307,209.4252 229.5607,209.8645 222.7907,210.2363 216.0207,210.5227 209.2506,210.7473 202.4806,210.9344 195.7106,211.0919 188.9406,211.224 182.1705,211.3329 175.4005,211.4194 168.6305,211.4836 161.8605,211.5244 155.0904,211.5399 148.3204,211.5268 141.5504,211.4799 134.7804,211.3911 128.0103,211.2464 121.2403,211.0195 114.4703,210.6453 107.7003,209.4978 100.9302,209.6299 94.1602,210.0014 87.3902,210.4816 80.6202,211.0026 73.8501,211.5174 67.0801,211.9931 60.3101,212.4118 53.5401,212.7732 46.77,213.0926 40,213.3846"></polyline>
<text class = "party cs" x="631.1111" y="180"><tspan class="party_name">C's</tspan> (18.4±2.5%)</text>
<polyline class="pp" points=" 40,253.5976 46.77,253.5836 53.5401,253.5709 60.3101,253.5604 67.0801,253.5531 73.8501,253.5492 80.6202,253.548 87.3902,253.5477 94.1602,253.5458 100.9302,253.5382 107.7003,253.5164 114.4703,253.4109 121.2403,253.348 128.0103,253.291 134.7804,253.2362 141.5504,253.182 148.3204,253.1274 155.0904,253.0718 161.8605,253.0146 168.6305,252.9552 175.4005,252.8929 182.1705,252.8272 188.9406,252.7571 195.7106,252.6814 202.4806,252.5984 209.2506,252.5057 216.0207,252.3988 222.7907,252.2653 229.5607,252.0936 236.3307,251.8938 243.1008,251.6999 249.8708,251.5819 256.6408,252.0065 263.4109,252.1469 270.1809,252.2367 276.9509,252.2996 283.7209,252.345 290.491,252.3778 297.261,252.4012 304.031,252.4175 310.801,252.4291 317.5711,252.439 324.3411,252.4573 331.1111,252.4918 337.8811,252.529 344.6512,252.5272 351.4212,252.1869 358.1912,251.9664 364.9612,251.7069 371.7313,251.3708 378.5013,250.9802 385.2713,250.6061 392.0413,250.3796 398.8114,251.3603 405.5814,251.7064 412.3514,251.9508 419.1214,252.1434 425.8915,252.3035 432.6615,252.4407 439.4315,252.5603 446.2016,252.6657 452.9716,252.7586 459.7416,252.8396 466.5116,252.9082 473.2817,252.9604 480.0517,252.9915 486.8217,253.0029 493.5917,253.0041 500.3618,253.0154 507.1318,253.0771 513.9018,253.4631 520.6718,253.6888 527.4419,253.895 534.2119,254.0985 540.9819,254.3103 547.7519,254.5437 554.522,254.8427 561.292,255.2334 568.062,255.6418 574.832,255.8789 581.6021,254.529 588.3721,254.1455 595.1421,254.7282 601.9121,254.9823 608.6822,255.279 615.4522,255.6057 622.2222,255.8639"></polyline>
<polyline class="pp error" points=" 40,234.0127 46.77,234.2211 53.5401,234.4535 60.3101,234.7226 67.0801,235.042 73.8501,235.4115 80.6202,235.8155 87.3902,236.2252 94.1602,236.5998 100.9302,236.8797 107.7003,236.9504 114.4703,235.8872 121.2403,235.4969 128.0103,235.2321 134.7804,235.0363 141.5504,234.8864 148.3204,234.77 155.0904,234.68 161.8605,234.6114 168.6305,234.5609 175.4005,234.5264 182.1705,234.5061 188.9406,234.4991 195.7106,234.5047 202.4806,234.5227 209.2506,234.5537 216.0207,234.5991 222.7907,234.6639 229.5607,234.7538 236.3307,234.866 243.1008,234.9861 249.8708,235.0799 256.6408,234.9343 263.4109,234.9312 270.1809,234.9601 276.9509,235.0107 283.7209,235.0801 290.491,235.168 297.261,235.2756 304.031,235.4063 310.801,235.5662 317.5711,235.7676 324.3411,236.0552 331.1111,236.4631 337.8811,236.9325 344.6512,237.2891 351.4212,236.3256 358.1912,236.0358 364.9612,235.8583 371.7313,235.743 378.5013,235.6746 385.2713,235.6438 392.0413,235.6337 398.8114,235.5967 405.5814,235.6089 412.3514,235.6383 419.1214,235.6822 425.8915,235.7396 432.6615,235.8103 439.4315,235.8942 446.2016,235.9918 452.9716,236.1041 459.7416,236.2323 466.5116,236.3789 473.2817,236.5498 480.0517,236.7512 486.8217,236.9811 493.5917,237.2289 500.3618,237.4737 507.1318,237.6772 513.9018,237.5919 520.6718,237.7173 527.4419,237.9097 534.2119,238.1618 540.9819,238.4804 547.7519,238.886 554.522,239.4612 561.292,240.2622 568.062,241.1622 574.832,241.8317 581.6021,240.0653 588.3721,239.6274 595.1421,239.5429 601.9121,239.6392 608.6822,239.9971 615.4522,240.5228 622.2222,240.9366 622.2222,270.7912 615.4522,270.6887 608.6822,270.5609 601.9121,270.3255 595.1421,269.9135 588.3721,268.6637 581.6021,268.9928 574.832,269.9261 568.062,270.1214 561.292,270.2047 554.522,270.2241 547.7519,270.2014 540.9819,270.1402 534.2119,270.0351 527.4419,269.8802 520.6718,269.6604 513.9018,269.3343 507.1318,268.477 500.3618,268.5571 493.5917,268.7794 486.8217,269.0246 480.0517,269.2319 473.2817,269.371 466.5116,269.4374 459.7416,269.4468 452.9716,269.413 446.2016,269.3396 439.4315,269.2265 432.6615,269.0711 425.8915,268.8674 419.1214,268.6046 412.3514,268.2632 405.5814,267.8038 398.8114,267.1239 392.0413,265.1255 385.2713,265.5684 378.5013,266.2857 371.7313,266.9986 364.9612,267.5554 358.1912,267.8971 351.4212,268.0482 344.6512,267.7653 337.8811,268.1254 331.1111,268.5206 324.3411,268.8595 317.5711,269.1103 310.801,269.292 304.031,269.4288 297.261,269.5268 290.491,269.5876 283.7209,269.6098 276.9509,269.5885 270.1809,269.5134 263.4109,269.3625 256.6408,269.0787 249.8708,268.0838 243.1008,268.4137 236.3307,268.9215 229.5607,269.4334 222.7907,269.8666 216.0207,270.1985 209.2506,270.4576 202.4806,270.6741 195.7106,270.8581 188.9406,271.0151 182.1705,271.1483 175.4005,271.2595 168.6305,271.3494 161.8605,271.4178 155.0904,271.4636 148.3204,271.4847 141.5504,271.4776 134.7804,271.4361 128.0103,271.3499 121.2403,271.1991 114.4703,270.9345 107.7003,270.0823 100.9302,270.1966 94.1602,270.4919 87.3902,270.8703 80.6202,271.2805 73.8501,271.687 67.0801,272.0642 60.3101,272.3982 53.5401,272.6883 46.77,272.946 40,273.1825"></polyline>
<text class = "party pp" x="631.1111" y="267"><tspan class="party_name">PP</tspan> (9.3±1.8%)</text>
<polyline class="otros" points=" 40,306.5452 46.77,306.6061 53.5401,306.6757 60.3101,306.7585 67.0801,306.8594 73.8501,306.9778 80.6202,307.1075 87.3902,307.2373 94.1602,307.3524 100.9302,307.4321 107.7003,307.4359 114.4703,307.0209 121.2403,306.8462 128.0103,306.7159 134.7804,306.6095 141.5504,306.5188 148.3204,306.439 155.0904,306.3675 161.8605,306.3022 168.6305,306.2418 175.4005,306.1849 182.1705,306.1306 188.9406,306.0778 195.7106,306.0255 202.4806,305.9724 209.2506,305.9166 216.0207,305.8552 222.7907,305.78 229.5607,305.6834 236.3307,305.5715 243.1008,305.466 249.8708,305.4124 256.6408,305.7181 263.4109,305.8451 270.1809,305.9457 276.9509,306.0361 283.7209,306.1235 290.491,306.2126 297.261,306.3076 304.031,306.4133 310.801,306.5362 317.5711,306.6878 324.3411,306.9065 331.1111,307.2204 337.8811,307.5769 344.6512,307.8295 351.4212,306.9631 358.1912,306.6553 364.9612,306.4366 371.7313,306.2636 378.5013,306.1228 385.2713,306.0085 392.0413,305.9157 398.8114,305.8357 405.5814,305.7467 412.3514,305.6574 419.1214,305.5685 425.8915,305.4798 432.6615,305.391 439.4315,305.3015 446.2016,305.2105 452.9716,305.1171 459.7416,305.0201 466.5116,304.9175 473.2817,304.8043 480.0517,304.6758 486.8217,304.5341 493.5917,304.3888 500.3618,304.2572 507.1318,304.1712 513.9018,304.3481 520.6718,304.3725 527.4419,304.3642 534.2119,304.3339 540.9819,304.2833 547.7519,304.209 554.522,304.0901 561.292,303.9126 568.062,303.712 574.832,303.578 581.6021,304.1034 588.3721,304.2957 595.1421,304.4707 601.9121,304.6447 608.6822,304.8391 615.4522,305.0391 622.2222,305.198"></polyline>
<polyline class="otros error" points=" 40,289.9771 46.77,290.2418 53.5401,290.5355 60.3101,290.8738 67.0801,291.2729 73.8501,291.7315 80.6202,292.2295 87.3902,292.731 94.1602,293.1865 100.9302,293.5253 107.7003,293.6115 114.4703,292.327 121.2403,291.8525 128.0103,291.5309 134.7804,291.2941 141.5504,291.114 148.3204,290.9758 155.0904,290.8708 161.8605,290.793 168.6305,290.7385 175.4005,290.7046 182.1705,290.6894 188.9406,290.6917 195.7106,290.7109 202.4806,290.7469 209.2506,290.8006 216.0207,290.874 222.7907,290.9746 229.5607,291.1094 236.3307,291.2733 243.1008,291.445 249.8708,291.579 256.6408,291.3864 263.4109,291.39 270.1809,291.4402 276.9509,291.5236 283.7209,291.6366 290.491,291.7792 297.261,291.9542 304.031,292.1675 310.801,292.4292 317.5711,292.7593 324.3411,293.2289 331.1111,293.8903 337.8811,294.6473 344.6512,295.229 351.4212,293.7734 358.1912,293.3923 364.9612,293.2404 371.7313,293.2611 378.5013,293.4063 385.2713,293.5969 392.0413,293.6943 398.8114,292.687 405.5814,292.287 412.3514,291.9939 419.1214,291.7611 425.8915,291.5701 432.6615,291.4116 439.4315,291.2801 446.2016,291.1724 452.9716,291.0866 459.7416,291.0219 466.5116,290.9791 473.2817,290.9616 480.0517,290.9744 486.8217,291.0166 493.5917,291.08 500.3618,291.1461 507.1318,291.1779 513.9018,290.9354 520.6718,290.8644 527.4419,290.836 534.2119,290.8395 540.9819,290.8727 547.7519,290.9381 554.522,291.0463 561.292,291.208 568.062,291.4174 574.832,291.6507 581.6021,291.8835 588.3721,292.0522 595.1421,291.6284 601.9121,291.6647 608.6822,291.9149 615.4522,292.2921 622.2222,292.5896 622.2222,317.8064 615.4522,317.7861 608.6822,317.7632 601.9121,317.6248 595.1421,317.313 588.3721,316.5392 581.6021,316.3232 574.832,315.5053 568.062,316.0067 561.292,316.6171 554.522,317.1338 547.7519,317.4798 540.9819,317.6939 534.2119,317.8283 527.4419,317.8924 520.6718,317.8806 513.9018,317.7608 507.1318,317.1645 500.3618,317.3682 493.5917,317.6976 486.8217,318.0517 480.0517,318.3773 473.2817,318.647 466.5116,318.8559 459.7416,319.0183 452.9716,319.1477 446.2016,319.2486 439.4315,319.3228 432.6615,319.3704 425.8915,319.3895 419.1214,319.3759 412.3514,319.3209 405.5814,319.2064 398.8114,318.9843 392.0413,318.137 385.2713,318.4201 378.5013,318.8392 371.7313,319.2661 364.9612,319.6329 358.1912,319.9183 351.4212,320.1528 344.6512,320.43 337.8811,320.5066 331.1111,320.5505 324.3411,320.584 317.5711,320.6162 310.801,320.6433 304.031,320.6592 297.261,320.661 290.491,320.646 283.7209,320.6104 276.9509,320.5486 270.1809,320.4513 263.4109,320.3002 256.6408,320.0499 249.8708,319.2458 243.1008,319.487 236.3307,319.8697 229.5607,320.2574 222.7907,320.5854 216.0207,320.8363 209.2506,321.0325 202.4806,321.1978 195.7106,321.3401 188.9406,321.4639 182.1705,321.5717 175.4005,321.6652 168.6305,321.745 161.8605,321.8115 155.0904,321.8643 148.3204,321.9022 141.5504,321.9236 134.7804,321.925 128.0103,321.9009 121.2403,321.84 114.4703,321.7148 107.7003,321.2602 100.9302,321.3389 94.1602,321.5184 87.3902,321.7435 80.6202,321.9854 73.8501,322.2242 67.0801,322.4459 60.3101,322.6432 53.5401,322.8159 46.77,322.9705 40,323.1132"></polyline>
<text class = "party otros" x="631.1111" y="308"><tspan class="party_name">Otros</tspan> (3.4±1.5%)</text>
  
<text class="pie izquierda" x="0" y="395">Datos: Electograph | Modelo propio</text>
<text class="pie derecha" x="800" y="395">Jesús Carro | <tspan style="font-weight:bold">1datomas</tspan>.com</text>
</svg>
