<?xml version="1.0" encoding="utf-8"?><!DOCTYPE svg PUBLIC "-//W3C//DTD SVG 1.1//EN" "http://www.w3.org/Graphics/SVG/1.1/DTD/svg11.dtd">
<svg xmlns="http://www.w3.org/2000/svg" xmlns:xlink="http://www.w3.org/1999/xlink" version="1.1" viewBox="0 0 800 400">

<text x="0" y="20" style="font-size:large;font-weight:bold;color:black">Intención de voto en Elecciones Autonómicas en Cataluña</text>
<text x="0" y="40" style="color:gray">Promedio de encuestas y estimación de error</text>

<text class="horizontal axis" x="36" y="333.3333">0%</text>
<line class="horizontal axis" x1="40" y1="333.3333" x2="622.2222" y2="333.3333"></line>
<text class="horizontal axis" x="36" y="252.5253">10%</text>
<line class="horizontal axis" x1="40" y1="252.5253" x2="622.2222" y2="252.5253"></line>
<text class="horizontal axis" x="36" y="171.7172">20%</text>
<line class="horizontal axis" x1="40" y1="171.7172" x2="622.2222" y2="171.7172"></line>
<text class="horizontal axis" x="36" y="90.9091">30%</text>
<line class="horizontal axis" x1="40" y1="90.9091" x2="622.2222" y2="90.9091"></line>
<line class="vertical axis" x1="40" y1="336.6667" x2="40" y2="66.6667"></line>
<text class="vertical axis" x="40" y="343.3333">Ago-2017</text>
<line class="vertical axis" x1="183.2451" y1="336.6667" x2="183.2451" y2="66.6667"></line>
<text class="vertical axis" x="183.2451" y="343.3333">Sep-2017</text>
<line class="vertical axis" x1="321.8695" y1="336.6667" x2="321.8695" y2="66.6667"></line>
<text class="vertical axis" x="321.8695" y="343.3333">Oct-2017</text>
<line class="vertical axis" x1="465.1146" y1="336.6667" x2="465.1146" y2="66.6667"></line>
<text class="vertical axis" x="465.1146" y="343.3333">Nov-2017</text>
<line class="vertical axis" x1="603.739" y1="336.6667" x2="603.739" y2="66.6667"></line>
<text class="vertical axis" x="603.739" y="343.3333">Dic-2017</text>
<polyline id="media-cup"  class="cup media" points=" 40,281.7433 44.6208,281.7034 49.2416,281.6617 53.8624,281.6182 58.4832,281.5734 63.1041,281.5288 67.7249,281.4871 72.3457,281.4518 76.9665,281.4271 81.5873,281.4188 86.2081,281.4378 90.8289,281.5117 95.4497,281.5815 100.0705,281.6465 104.6914,281.7059 109.3122,281.7592 113.933,281.8059 118.5538,281.8455 123.1746,281.8777 127.7954,281.9021 132.4162,281.9183 137.037,281.926 141.6578,281.9247 146.2787,281.9138 150.8995,281.8929 155.5203,281.861 160.1411,281.8175 164.7619,281.7611 169.3827,281.6953 174.0035,281.6357 178.6243,281.614 183.2451,281.6868 187.866,281.9721 192.4868,282.243 197.1076,282.5004 201.7284,282.7452 206.3492,282.9786 210.97,283.2016 215.5908,283.4151 220.2116,283.6204 224.8325,283.8182 229.4533,284.0095 234.0741,284.1952 238.6949,284.3721 243.3157,284.5302 247.9365,284.6544 252.5573,284.7205 257.1781,284.8169 261.7989,284.9416 266.4198,285.0875 271.0406,285.232 275.6614,285.335 280.2822,285.3293 284.903,285.0612 289.5238,284.8164 294.1446,284.5927 298.7654,284.3878 303.3862,284.2 308.0071,284.0274 312.6279,283.8684 317.2487,283.7216 321.8695,283.5855 326.4903,283.459 331.1111,283.341 335.7319,283.2304 340.3527,283.1267 344.9735,283.0303 349.5944,282.9421 354.2152,282.8627 358.836,282.7925 363.4568,282.7314 368.0776,282.66 372.6984,282.5788 377.3192,282.4874 381.94,282.3848 386.5608,282.2698 391.1817,282.1402 395.8025,282.0097 400.4233,281.9347 405.0441,282.0321 409.6649,282.5359 414.2857,282.858 418.9065,282.9486 423.5273,283.0348 428.1481,283.1145 432.769,283.1915 437.3898,283.2795 442.0106,283.4122 446.6314,283.54 451.2522,283.6512 455.873,283.7238 460.4938,283.724 465.1146,283.5983 469.7354,283.5084 474.3563,283.4717 478.9771,283.5344 483.5979,283.5973 488.2187,283.6613 492.8395,283.7268 497.4603,283.794 502.0811,283.8631 506.7019,283.9341 511.3228,284.0071 515.9436,284.0821 520.5644,284.1596 525.1852,284.2346 529.806,284.2879 534.4268,284.2837 539.0476,284.1615 543.6684,284.0819 548.2892,284.0638 552.9101,284.0423 557.5309,284.0034 562.1517,283.8884 566.7725,283.518 571.3933,283.0863 576.0141,282.6775 580.6349,282.3565 585.2557,282.2184 589.8765,282.5075 594.4974,282.7273 599.1182,282.8709 603.739,282.9026 608.3598,282.9079 612.9806,282.894 617.6014,282.8741 622.2222,282.8718"></polyline>
<polyline id="error-cup" class="cup error" points=" 40,259.639 44.6208,260.1288 49.2416,260.629 53.8624,261.2113 58.4832,262.0242 63.1041,262.8327 67.7249,263.6017 72.3457,264.2837 76.9665,264.8192 81.5873,265.127 86.2081,265.0678 90.8289,264.3269 95.4497,263.7 100.0705,263.1798 104.6914,262.7597 109.3122,262.4331 113.933,262.1937 118.5538,262.0356 123.1746,261.9531 127.7954,261.9411 132.4162,261.9946 137.037,262.109 141.6578,262.2805 146.2787,262.5052 150.8995,262.7802 155.5203,263.1025 160.1411,263.47 164.7619,263.8808 169.3827,264.3254 174.0035,264.7727 178.6243,265.1665 183.2451,265.4185 187.866,265.3783 192.4868,265.4372 197.1076,265.5854 201.7284,265.8148 206.3492,266.119 210.97,266.4926 215.5908,266.9315 220.2116,267.4325 224.8325,267.9936 229.4533,268.6135 234.0741,269.2918 238.6949,270.0029 243.3157,270.6593 247.9365,271.0997 252.5573,271.0268 257.1781,271.1356 261.7989,271.4124 266.4198,271.8262 271.0406,272.2923 275.6614,272.6594 280.2822,272.6784 284.903,271.8179 289.5238,271.1001 294.1446,270.5101 298.7654,270.0351 303.3862,269.6643 308.0071,269.3881 312.6279,269.1983 317.2487,269.0875 321.8695,269.0492 326.4903,269.0778 331.1111,269.1686 335.7319,269.3174 340.3527,269.5171 344.9735,269.7514 349.5944,269.9913 354.2152,270.1929 358.836,270.2925 363.4568,270.1867 368.0776,270.156 372.6984,270.1912 377.3192,270.2841 381.94,270.4277 386.5608,270.6154 391.1817,270.8411 395.8025,271.1035 400.4233,271.4152 405.0441,271.8151 409.6649,272.4085 414.2857,272.7932 418.9065,272.8256 423.5273,272.9615 428.1481,273.1813 432.769,273.4433 437.3898,273.6772 442.0106,273.7701 446.6314,273.9669 451.2522,274.2289 455.873,274.4938 460.4938,274.6646 465.1146,274.5771 469.7354,274.5365 474.3563,274.434 478.9771,274.0674 483.5979,273.7817 488.2187,273.5747 492.8395,273.4448 497.4603,273.3907 502.0811,273.4106 506.7019,273.5032 511.3228,273.6666 515.9436,273.8994 520.5644,274.1999 525.1852,274.5538 529.806,274.9133 534.4268,275.1856 539.0476,275.2091 543.6684,275.2974 548.2892,275.3878 552.9101,275.5842 557.5309,275.8285 562.1517,275.9199 566.7725,275.349 571.3933,274.8427 576.0141,274.4893 580.6349,274.2537 585.2557,274.066 589.8765,273.7881 594.4974,273.5774 599.1182,273.3471 603.739,272.9041 608.3598,272.5257 612.9806,272.2045 617.6014,271.9053 622.2222,271.5436 622.2222,294.1999 617.6014,293.8429 612.9806,293.5834 608.3598,293.2901 603.739,292.9011 599.1182,292.3948 594.4974,291.8772 589.8765,291.2269 585.2557,290.3708 580.6349,290.4593 576.0141,290.8658 571.3933,291.3298 566.7725,291.687 562.1517,291.8568 557.5309,292.1783 552.9101,292.5005 548.2892,292.7398 543.6684,292.8665 539.0476,293.1139 534.4268,293.3818 529.806,293.6625 525.1852,293.9153 520.5644,294.1193 515.9436,294.2648 511.3228,294.3475 506.7019,294.3651 502.0811,294.3156 497.4603,294.1974 492.8395,294.0087 488.2187,293.7479 483.5979,293.4129 478.9771,293.0013 474.3563,292.5094 469.7354,292.4802 465.1146,292.6196 460.4938,292.7833 455.873,292.9537 451.2522,293.0735 446.6314,293.1131 442.0106,293.0543 437.3898,292.8818 432.769,292.9397 428.1481,293.0477 423.5273,293.1082 418.9065,293.0717 414.2857,292.9227 409.6649,292.6633 405.0441,292.2492 400.4233,292.4543 395.8025,292.9159 391.1817,293.4393 386.5608,293.9243 381.94,294.342 377.3192,294.6906 372.6984,294.9664 368.0776,295.1641 363.4568,295.276 358.836,295.2925 354.2152,295.5324 349.5944,295.8928 344.9735,296.3092 340.3527,296.7364 335.7319,297.1435 331.1111,297.5134 326.4903,297.8402 321.8695,298.1219 317.2487,298.3557 312.6279,298.5386 308.0071,298.6668 303.3862,298.7358 298.7654,298.7406 294.1446,298.6752 289.5238,298.5327 284.903,298.3044 280.2822,297.9801 275.6614,298.0106 271.0406,298.1717 266.4198,298.3488 261.7989,298.4708 257.1781,298.4981 252.5573,298.4143 247.9365,298.209 243.3157,298.4012 238.6949,298.7413 234.0741,299.0985 229.4533,299.4056 224.8325,299.6428 220.2116,299.8082 215.5908,299.8988 210.97,299.9105 206.3492,299.8382 201.7284,299.6756 197.1076,299.4153 192.4868,299.0487 187.866,298.5659 183.2451,297.9551 178.6243,298.0615 174.0035,298.4986 169.3827,299.0653 164.7619,299.6414 160.1411,300.165 155.5203,300.6196 150.8995,301.0056 146.2787,301.3224 141.6578,301.5689 137.037,301.743 132.4162,301.8421 127.7954,301.8631 123.1746,301.8022 118.5538,301.6554 113.933,301.418 109.3122,301.0853 104.6914,300.6521 100.0705,300.1131 95.4497,299.4631 90.8289,298.6964 86.2081,297.8078 81.5873,297.7106 76.9665,298.035 72.3457,298.62 67.7249,299.3725 63.1041,300.2248 58.4832,301.1225 53.8624,302.0252 49.2416,302.6944 44.6208,303.2779 40,303.8476"></polyline>
<text class = "party cup" x="631.1111" y="295"><tspan class="party_name">CUP</tspan><tspan class="party_result"> (6.2±1.4%)</tspan></text>
<polyline id="media-erc"  class="erc media" points=" 40,131.2349 44.6208,131.5386 49.2416,131.8619 53.8624,132.2063 58.4832,132.5678 63.1041,132.931 67.7249,133.2688 72.3457,133.5452 76.9665,133.7141 81.5873,133.7087 86.2081,133.4034 90.8289,132.4799 95.4497,131.5627 100.0705,130.6578 104.6914,129.7699 109.3122,128.9025 113.933,128.0581 118.5538,127.238 123.1746,126.4429 127.7954,125.6724 132.4162,124.9257 137.037,124.2012 141.6578,123.497 146.2787,122.8105 150.8995,122.1387 155.5203,121.4779 160.1411,120.8243 164.7619,120.1732 169.3827,119.537 174.0035,118.971 178.6243,118.5825 183.2451,118.5547 187.866,119.2632 192.4868,119.908 197.1076,120.4995 201.7284,121.0475 206.3492,121.5609 210.97,122.0483 215.5908,122.5178 220.2116,122.9771 224.8325,123.4335 229.4533,123.8944 234.0741,124.3672 238.6949,124.8336 243.3157,125.2147 247.9365,125.3532 252.5573,124.9276 257.1781,124.6184 261.7989,124.4226 266.4198,124.3265 271.0406,124.281 275.6614,124.1868 280.2822,123.8633 284.903,122.8832 289.5238,121.9114 294.1446,120.9482 298.7654,119.9927 303.3862,119.0434 308.0071,118.0977 312.6279,117.1527 317.2487,116.2043 321.8695,115.2481 326.4903,114.2785 331.1111,113.289 335.7319,112.2721 340.3527,111.2378 344.9735,110.2459 349.5944,109.4195 354.2152,108.9561 358.836,109.1655 363.4568,110.6049 368.0776,111.8351 372.6984,112.8836 377.3192,113.7739 381.94,114.5257 386.5608,115.1558 391.1817,115.6782 395.8025,116.1118 400.4233,116.4986 405.0441,116.9242 409.6649,117.5658 414.2857,117.7855 418.9065,117.3357 423.5273,116.9128 428.1481,116.5018 432.769,116.0668 437.3898,115.5238 442.0106,114.6769 446.6314,113.7749 451.2522,112.9055 455.873,112.2514 460.4938,112.119 465.1146,113.0548 469.7354,113.8541 474.3563,114.7716 478.9771,116.3731 483.5979,117.9947 488.2187,119.6279 492.8395,121.2628 497.4603,122.8892 502.0811,124.4964 506.7019,126.0735 511.3228,127.6099 515.9436,129.0955 520.5644,130.5208 525.1852,131.8566 529.806,133.0286 534.4268,133.9095 539.0476,134.2901 543.6684,134.6148 548.2892,134.7529 552.9101,134.8561 557.5309,134.9946 562.1517,135.6536 566.7725,138.3292 571.3933,141.0357 576.0141,143.6015 580.6349,145.6424 585.2557,146.582 589.8765,144.9305 594.4974,143.7007 599.1182,142.7409 603.739,141.8259 608.3598,141.0487 612.9806,140.3975 617.6014,139.8607 622.2222,139.4154"></polyline>
<polyline id="error-erc" class="erc error" points=" 40,89.1295 44.6208,90.1329 49.2416,91.1764 53.8624,92.4552 58.4832,94.3739 63.1041,96.2931 67.7249,98.116 72.3457,99.7115 76.9665,100.9135 81.5873,101.4897 86.2081,101.0324 90.8289,98.5867 95.4497,96.3692 100.0705,94.372 104.6914,92.5871 109.3122,91.0059 113.933,89.6196 118.5538,88.4191 123.1746,87.3951 127.7954,86.5385 132.4162,85.8403 137.037,85.2919 141.6578,84.885 146.2787,84.6119 150.8995,84.4654 155.5203,84.4391 160.1411,84.527 164.7619,84.7244 169.3827,85.0202 174.0035,85.3844 178.6243,85.7593 183.2451,86.0553 187.866,86.1435 192.4868,86.3791 197.1076,86.752 201.7284,87.2552 206.3492,87.8837 210.97,88.6349 215.5908,89.5077 220.2116,90.5028 224.8325,91.623 229.4533,92.8725 234.0741,94.258 238.6949,95.7198 243.3157,97.0332 247.9365,97.7616 252.5573,97.0582 257.1781,96.7578 261.7989,96.8352 266.4198,97.2331 271.0406,97.7867 275.6614,98.1868 280.2822,97.9061 284.903,95.803 289.5238,93.9385 294.1446,92.2864 298.7654,90.8241 303.3862,89.5319 308.0071,88.3924 312.6279,87.3894 317.2487,86.508 321.8695,85.7343 326.4903,85.0548 331.1111,84.4564 335.7319,83.9263 340.3527,83.4631 344.9735,83.0961 349.5944,82.8935 354.2152,82.9697 358.836,83.5145 363.4568,84.8943 368.0776,86.2267 372.6984,87.5211 377.3192,88.7866 381.94,90.0313 386.5608,91.2633 391.1817,92.4898 395.8025,93.7004 400.4233,94.8488 405.0441,95.8608 409.6649,96.6454 414.2857,96.9648 418.9065,96.3881 423.5273,96.0502 428.1481,95.9021 432.769,95.8189 437.3898,95.5494 442.0106,94.6036 446.6314,93.8169 451.2522,93.2265 455.873,92.9401 460.4938,93.1444 465.1146,94.1757 469.7354,95.0887 474.3563,95.8886 478.9771,96.6557 483.5979,97.6062 488.2187,98.7237 492.8395,99.9928 497.4603,101.3986 502.0811,102.9263 506.7019,104.5612 511.3228,106.2891 515.9436,108.0963 520.5644,109.9698 525.1852,111.8625 529.806,113.6451 534.4268,115.0803 539.0476,115.761 543.6684,116.4256 548.2892,116.7804 552.9101,117.3158 557.5309,118.0182 562.1517,119.1015 566.7725,121.4384 571.3933,124.0614 576.0141,126.7957 580.6349,129.0512 585.2557,129.915 589.8765,127.1168 594.4974,125.0179 599.1182,123.3089 603.739,121.4606 608.3598,119.9321 612.9806,118.6815 617.6014,117.6023 622.2222,116.4627 622.2222,162.3681 617.6014,162.1192 612.9806,162.1136 608.3598,162.1653 603.739,162.1912 599.1182,162.1729 594.4974,162.3836 589.8765,162.7441 585.2557,163.2489 580.6349,162.2336 576.0141,160.4072 571.3933,158.0101 566.7725,155.2201 562.1517,152.2056 557.5309,151.971 552.9101,152.3963 548.2892,152.7254 543.6684,152.8039 539.0476,152.8192 534.4268,152.7387 529.806,152.412 525.1852,151.8507 520.5644,151.0718 515.9436,150.0946 511.3228,148.9306 506.7019,147.5857 502.0811,146.0665 497.4603,144.3798 492.8395,142.5328 488.2187,140.532 483.5979,138.3833 478.9771,136.0904 474.3563,133.6545 469.7354,132.6196 465.1146,131.934 460.4938,131.0936 455.873,131.5627 451.2522,132.5845 446.6314,133.7329 442.0106,134.7501 437.3898,135.4982 432.769,136.3147 428.1481,137.1014 423.5273,137.7754 418.9065,138.2833 414.2857,138.6062 409.6649,138.4861 405.0441,137.9876 400.4233,138.1484 395.8025,138.5231 391.1817,138.8665 386.5608,139.0483 381.94,139.02 377.3192,138.7612 372.6984,138.2461 368.0776,137.4434 363.4568,136.3154 358.836,134.8164 354.2152,134.9426 349.5944,135.9454 344.9735,137.3956 340.3527,139.0124 335.7319,140.6178 331.1111,142.1216 326.4903,143.5021 321.8695,144.7619 317.2487,145.9006 312.6279,146.9159 308.0071,147.803 303.3862,148.5548 298.7654,149.1613 294.1446,149.61 289.5238,149.8843 284.903,149.9635 280.2822,149.8205 275.6614,150.1868 271.0406,150.7752 266.4198,151.4199 261.7989,152.01 257.1781,152.479 252.5573,152.797 247.9365,152.9449 243.3157,153.3961 238.6949,153.9474 234.0741,154.4764 229.4533,154.9164 224.8325,155.244 220.2116,155.4513 215.5908,155.528 210.97,155.4618 206.3492,155.238 201.7284,154.8398 197.1076,154.2471 192.4868,153.4369 187.866,152.3828 183.2451,151.0541 178.6243,151.4057 174.0035,152.5575 169.3827,154.0537 164.7619,155.622 160.1411,157.1216 155.5203,158.5168 150.8995,159.8119 146.2787,161.0091 141.6578,162.1091 137.037,163.1106 132.4162,164.011 127.7954,164.8063 123.1746,165.4907 118.5538,166.057 113.933,166.4966 109.3122,166.7991 104.6914,166.9527 100.0705,166.9435 95.4497,166.7561 90.8289,166.373 86.2081,165.7744 81.5873,165.9276 76.9665,166.5146 72.3457,167.3788 67.7249,168.4216 63.1041,169.5688 58.4832,170.7617 53.8624,171.9574 49.2416,172.5475 44.6208,172.9442 40,173.3404"></polyline>
<text class = "party erc" x="631.1111" y="138"><tspan class="party_name">ERC</tspan><tspan class="party_result"> (24.0±2.8%)</tspan></text>
<polyline id="media-jxcat"  class="jxcat media" points=" 40,225.1531 44.6208,225.0172 49.2416,224.8712 53.8624,224.7145 58.4832,224.549 63.1041,224.3818 67.7249,224.2256 72.3457,224.0971 76.9665,224.0178 81.5873,224.0186 86.2081,224.1573 90.8289,224.5807 95.4497,224.9989 100.0705,225.4088 104.6914,225.8076 109.3122,226.1932 113.933,226.5639 118.5538,226.9185 123.1746,227.2562 127.7954,227.5763 132.4162,227.8785 137.037,228.1628 141.6578,228.4291 146.2787,228.6776 150.8995,228.9086 155.5203,229.1224 160.1411,229.3193 164.7619,229.4997 169.3827,229.6626 174.0035,229.8042 178.6243,229.9189 183.2451,229.9991 187.866,230.0308 192.4868,230.0652 197.1076,230.0986 201.7284,230.1273 206.3492,230.1479 210.97,230.1571 215.5908,230.1517 220.2116,230.1283 224.8325,230.0833 229.4533,230.0129 234.0741,229.9127 238.6949,229.7961 243.3157,229.7234 247.9365,229.8217 252.5573,230.364 257.1781,230.8438 261.7989,231.2608 266.4198,231.6153 271.0406,231.9167 275.6614,232.1932 280.2822,232.5074 284.903,233.016 289.5238,233.5567 294.1446,234.1251 298.7654,234.7177 303.3862,235.3324 308.0071,235.968 312.6279,236.6244 317.2487,237.302 321.8695,238.0023 326.4903,238.7275 331.1111,239.4809 335.7319,240.2666 340.3527,241.0754 344.9735,241.86 349.5944,242.5246 354.2152,242.9174 358.836,242.8021 363.4568,241.7561 368.0776,240.8808 372.6984,240.1544 377.3192,239.5581 381.94,239.0752 386.5608,238.6913 391.1817,238.3933 395.8025,238.174 400.4233,238.0362 405.0441,237.9964 409.6649,238.0997 414.2857,238.302 418.9065,238.6723 423.5273,239.1165 428.1481,239.6174 432.769,240.0794 437.3898,240.3013 442.0106,239.8944 446.6314,239.6706 451.2522,239.5807 455.873,239.5385 460.4938,239.3966 465.1146,238.8784 469.7354,238.3643 474.3563,237.5623 478.9771,235.7923 483.5979,233.9826 488.2187,232.1444 492.8395,230.2899 497.4603,228.4316 502.0811,226.5819 506.7019,224.7534 511.3228,222.9579 515.9436,221.2063 520.5644,219.5083 525.1852,217.8987 529.806,216.471 534.4268,215.3971 539.0476,214.9823 543.6684,214.6883 548.2892,214.794 552.9101,214.7954 557.5309,214.6669 562.1517,214.1446 566.7725,212.3466 571.3933,210.3418 576.0141,208.4029 580.6349,206.7453 585.2557,205.6192 589.8765,205.5843 594.4974,205.2352 599.1182,204.9436 603.739,205.4091 608.3598,205.6684 612.9806,205.7638 617.6014,205.7978 622.2222,205.9699"></polyline>
<polyline id="error-jxcat" class="jxcat error" points=" 40,189.6468 44.6208,190.1152 49.2416,190.5894 53.8624,191.2331 58.4832,192.3938 63.1041,193.5507 67.7249,194.6573 72.3457,195.6505 76.9665,196.4507 81.5873,196.9498 86.2081,196.9689 90.8289,196.1213 95.4497,195.4587 100.0705,194.9659 104.6914,194.6292 109.3122,194.4359 113.933,194.3745 118.5538,194.4344 123.1746,194.6064 127.7954,194.8818 132.4162,195.2533 137.037,195.7144 141.6578,196.2597 146.2787,196.8847 150.8995,197.5859 155.5203,198.3609 160.1411,199.2083 164.7619,200.128 169.3827,201.0985 174.0035,202.0425 178.6243,202.8131 183.2451,203.1705 187.866,202.6681 192.4868,202.3475 197.1076,202.1876 201.7284,202.1705 206.3492,202.281 210.97,202.5059 215.5908,202.834 220.2116,203.2557 224.8325,203.7631 229.4533,204.3494 234.0741,205.0092 238.6949,205.7216 243.3157,206.427 247.9365,207.0237 252.5573,207.3567 257.1781,207.865 261.7989,208.5288 266.4198,209.3117 271.0406,210.1266 275.6614,210.8277 280.2822,211.1923 284.903,210.791 289.5238,210.6165 294.1446,210.6419 298.7654,210.8454 303.3862,211.2098 308.0071,211.7206 312.6279,212.3668 317.2487,213.1392 321.8695,214.0312 326.4903,215.0382 331.1111,216.1575 335.7319,217.3889 340.3527,218.7124 344.9735,220.0526 349.5944,221.2637 354.2152,222.1183 358.836,222.2715 363.4568,221.1235 368.0776,220.2876 372.6984,219.7264 377.3192,219.4085 381.94,219.3071 386.5608,219.3995 391.1817,219.6664 395.8025,220.0754 400.4233,220.556 405.0441,220.9928 409.6649,221.2099 414.2857,221.4976 418.9065,221.7787 423.5273,222.3097 428.1481,223.0446 432.769,223.8119 437.3898,224.269 442.0106,223.7784 446.6314,223.6514 451.2522,223.7952 455.873,224.0581 460.4938,224.1884 465.1146,223.726 469.7354,223.2841 474.3563,222.357 478.9771,219.8407 483.5979,217.413 488.2187,215.0811 492.8395,212.8543 497.4603,210.7432 502.0811,208.7586 506.7019,206.9116 511.3228,205.2123 515.9436,203.67 520.5644,202.2926 525.1852,201.1015 529.806,200.1466 534.4268,199.5109 539.0476,199.3387 543.6684,199.3249 548.2892,199.6162 552.9101,199.9853 557.5309,200.3336 562.1517,200.1561 566.7725,198.0053 571.3933,195.8602 576.0141,194.0009 580.6349,192.4748 585.2557,191.2514 589.8765,190.2388 594.4974,189.1424 599.1182,188.2055 603.739,187.8821 608.3598,187.5049 612.9806,187.0907 617.6014,186.6618 622.2222,186.2414 622.2222,225.6985 617.6014,224.9338 612.9806,224.437 608.3598,223.8318 603.739,222.9361 599.1182,221.6817 594.4974,221.3281 589.8765,220.9297 585.2557,219.9871 580.6349,221.0157 576.0141,222.8048 571.3933,224.8233 566.7725,226.688 562.1517,228.1332 557.5309,229.0002 552.9101,229.6055 548.2892,229.9717 543.6684,230.0517 539.0476,230.6259 534.4268,231.2834 529.806,232.7955 525.1852,234.696 520.5644,236.724 515.9436,238.7426 511.3228,240.7035 506.7019,242.5953 502.0811,244.4052 497.4603,246.12 492.8395,247.7255 488.2187,249.2077 483.5979,250.5521 478.9771,251.7439 474.3563,252.7677 469.7354,253.4444 465.1146,254.0308 460.4938,254.6048 455.873,255.0188 451.2522,255.3661 446.6314,255.6898 442.0106,256.0104 437.3898,256.3336 432.769,256.3469 428.1481,256.1902 423.5273,255.9232 418.9065,255.5658 414.2857,255.1065 409.6649,254.9896 405.0441,255.0001 400.4233,255.5164 395.8025,256.2725 391.1817,257.1202 386.5608,257.983 381.94,258.8432 377.3192,259.7076 372.6984,260.5824 368.0776,261.474 363.4568,262.3886 358.836,263.3328 354.2152,263.7165 349.5944,263.7856 344.9735,263.6674 340.3527,263.4385 335.7319,263.1444 331.1111,262.8042 326.4903,262.4168 321.8695,261.9733 317.2487,261.4648 312.6279,260.882 308.0071,260.2155 303.3862,259.455 298.7654,258.5899 294.1446,257.6082 289.5238,256.497 284.903,255.2409 280.2822,253.8224 275.6614,253.5587 271.0406,253.7069 266.4198,253.9189 261.7989,253.9928 257.1781,253.8227 252.5573,253.3712 247.9365,252.6196 243.3157,253.0197 238.6949,253.8706 234.0741,254.8162 229.4533,255.6764 224.8325,256.4036 220.2116,257.0009 215.5908,257.4695 210.97,257.8083 206.3492,258.0147 201.7284,258.084 197.1076,258.0096 192.4868,257.783 187.866,257.3935 183.2451,256.8278 178.6243,257.0246 174.0035,257.566 169.3827,258.2267 164.7619,258.8714 160.1411,259.4302 155.5203,259.8838 150.8995,260.2313 146.2787,260.4705 141.6578,260.5985 137.037,260.6112 132.4162,260.5038 127.7954,260.2708 123.1746,259.9061 118.5538,259.4027 113.933,258.7534 109.3122,257.9505 104.6914,256.986 100.0705,255.8516 95.4497,254.5391 90.8289,253.04 86.2081,251.3457 81.5873,251.0873 76.9665,251.5849 72.3457,252.5437 67.7249,253.7939 63.1041,255.213 58.4832,256.7042 53.8624,258.196 49.2416,259.1531 44.6208,259.9193 40,260.6595"></polyline>
<text class = "party jxcat" x="631.1111" y="200"><tspan class="party_name">JxCAT</tspan><tspan class="party_result"> (15.8±2.4%)</tspan></text>
<polyline id="media-cec"  class="cec media" points=" 40,241.6826 44.6208,241.4357 49.2416,241.1775 53.8624,240.9075 58.4832,240.6286 63.1041,240.3513 67.7249,240.0936 72.3457,239.8784 76.9665,239.7346 81.5873,239.7032 86.2081,239.8609 90.8289,240.4024 95.4497,240.9285 100.0705,241.4354 104.6914,241.9198 109.3122,242.3797 113.933,242.8136 118.5538,243.2206 123.1746,243.6005 127.7954,243.9535 132.4162,244.2803 137.037,244.5816 141.6578,244.8589 146.2787,245.1136 150.8995,245.3473 155.5203,245.562 160.1411,245.7597 164.7619,245.9429 169.3827,246.1097 174.0035,246.2472 178.6243,246.3291 183.2451,246.3078 187.866,246.0817 192.4868,245.855 197.1076,245.624 201.7284,245.385 206.3492,245.1347 210.97,244.8699 215.5908,244.5878 220.2116,244.2853 224.8325,243.9595 229.4533,243.6074 234.0741,243.2258 238.6949,242.8343 243.3157,242.5084 247.9365,242.3949 252.5573,242.791 257.1781,243.0785 261.7989,243.2628 266.4198,243.3563 271.0406,243.3937 275.6614,243.4397 280.2822,243.6061 284.903,244.1452 289.5238,244.6487 294.1446,245.1131 298.7654,245.5358 303.3862,245.9153 308.0071,246.2503 312.6279,246.5398 317.2487,246.7833 321.8695,246.9799 326.4903,247.1289 331.1111,247.2293 335.7319,247.2797 340.3527,247.2843 344.9735,247.2637 349.5944,247.2615 354.2152,247.3499 358.836,247.6447 363.4568,248.3547 368.0776,248.9889 372.6984,249.5524 377.3192,250.0496 381.94,250.4854 386.5608,250.8641 391.1817,251.1905 395.8025,251.4591 400.4233,251.6398 405.0441,251.669 409.6649,251.4121 414.2857,251.3799 418.9065,251.7172 423.5273,251.9898 428.1481,252.2042 432.769,252.4136 437.3898,252.7473 442.0106,253.4817 446.6314,254.1426 451.2522,254.7368 455.873,255.2864 460.4938,255.8338 465.1146,256.4568 469.7354,257.0056 474.3563,257.4613 478.9771,257.8124 483.5979,258.2395 488.2187,258.7298 492.8395,259.2727 497.4603,259.8583 502.0811,260.4779 506.7019,261.1232 511.3228,261.7866 515.9436,262.4613 520.5644,263.1411 525.1852,263.8093 529.806,264.4251 534.4268,264.9251 539.0476,265.2237 543.6684,265.628 548.2892,266.1892 552.9101,266.863 557.5309,267.557 562.1517,267.924 566.7725,267.0906 571.3933,266.4888 576.0141,266.0584 580.6349,265.7963 585.2557,265.7317 589.8765,266.0048 594.4974,266.2542 599.1182,266.3044 603.739,265.7448 608.3598,265.1708 612.9806,264.6067 617.6014,264.1035 622.2222,263.7482"></polyline>
<polyline id="error-cec" class="cec error" points=" 40,214.3146 44.6208,214.6453 49.2416,214.9797 53.8624,215.4151 58.4832,216.1568 63.1041,216.8979 67.7249,217.6109 72.3457,218.2576 76.9665,218.7896 81.5873,219.1417 86.2081,219.2095 90.8289,218.7799 95.4497,218.4809 100.0705,218.2996 104.6914,218.2245 109.3122,218.2453 113.933,218.353 118.5538,218.5397 123.1746,218.7984 127.7954,219.1233 132.4162,219.5095 137.037,219.953 141.6578,220.4507 146.2787,221.0006 150.8995,221.6014 155.5203,222.2529 160.1411,222.9558 164.7619,223.7121 169.3827,224.5038 174.0035,225.261 178.6243,225.8478 183.2451,226.0363 187.866,225.3884 192.4868,224.8773 197.1076,224.486 201.7284,224.2002 206.3492,224.0075 210.97,223.8971 215.5908,223.8601 220.2116,223.8888 224.8325,223.9768 229.4533,224.1189 234.0741,224.3109 238.6949,224.5465 243.3157,224.8099 247.9365,225.0737 252.5573,225.3091 257.1781,225.6165 261.7989,225.9869 266.4198,226.4048 271.0406,226.8313 275.6614,227.1991 280.2822,227.4024 284.903,227.2466 289.5238,227.203 294.1446,227.2506 298.7654,227.3731 303.3862,227.5567 308.0071,227.7904 312.6279,228.0647 317.2487,228.3715 321.8695,228.7039 326.4903,229.0557 331.1111,229.4214 335.7319,229.7962 340.3527,230.1766 344.9735,230.5639 349.5944,230.9669 354.2152,231.4061 358.836,231.9228 363.4568,232.6076 368.0776,233.3185 372.6984,234.0485 377.3192,234.7931 381.94,235.5491 386.5608,236.3152 391.1817,237.0915 395.8025,237.8535 400.4233,238.5141 405.0441,238.9077 409.6649,238.7271 414.2857,238.7545 418.9065,239.0265 423.5273,239.3641 428.1481,239.7524 432.769,240.1908 437.3898,240.7088 442.0106,241.4105 446.6314,242.1697 451.2522,242.9607 455.873,243.7581 460.4938,244.5299 465.1146,245.2235 469.7354,245.8528 474.3563,246.2437 478.9771,246.0821 483.5979,246.0977 488.2187,246.2736 492.8395,246.5958 497.4603,247.0518 502.0811,247.63 506.7019,248.3199 511.3228,249.1112 515.9436,249.9944 520.5644,250.9607 525.1852,251.9816 529.806,252.9816 534.4268,253.8288 539.0476,254.3167 543.6684,254.9378 548.2892,255.6469 552.9101,256.6024 557.5309,257.6565 562.1517,258.2849 566.7725,257.2033 571.3933,256.5127 576.0141,256.1522 580.6349,255.9971 585.2557,255.8772 589.8765,255.4725 594.4974,255.2093 599.1182,254.8113 603.739,253.6685 608.3598,252.6192 612.9806,251.6712 617.6014,250.8194 622.2222,250.0248 622.2222,277.4717 617.6014,277.3877 612.9806,277.5421 608.3598,277.7223 603.739,277.8212 599.1182,277.7976 594.4974,277.2991 589.8765,276.537 585.2557,275.5862 580.6349,275.5955 576.0141,275.9645 571.3933,276.4649 566.7725,276.9779 562.1517,277.563 557.5309,277.4575 552.9101,277.1237 548.2892,276.7315 543.6684,276.3182 539.0476,276.1308 534.4268,276.0215 529.806,275.8685 525.1852,275.637 520.5644,275.3215 515.9436,274.9282 511.3228,274.462 506.7019,273.9264 502.0811,273.3257 497.4603,272.6649 492.8395,271.9496 488.2187,271.1861 483.5979,270.3813 478.9771,269.5427 474.3563,268.6788 469.7354,268.1584 465.1146,267.69 460.4938,267.1377 455.873,266.8146 451.2522,266.5129 446.6314,266.1156 442.0106,265.5529 437.3898,264.7858 432.769,264.6365 428.1481,264.6559 423.5273,264.6154 418.9065,264.4078 414.2857,264.0053 409.6649,264.0971 405.0441,264.4303 400.4233,264.7654 395.8025,265.0647 391.1817,265.2895 386.5608,265.4131 381.94,265.4217 377.3192,265.3062 372.6984,265.0562 368.0776,264.6594 363.4568,264.1018 358.836,263.3665 354.2152,263.2937 349.5944,263.556 344.9735,263.9634 340.3527,264.3919 335.7319,264.7632 331.1111,265.0371 326.4903,265.2021 321.8695,265.2559 317.2487,265.195 312.6279,265.015 308.0071,264.7101 303.3862,264.2739 298.7654,263.6986 294.1446,262.9755 289.5238,262.0945 284.903,261.0439 280.2822,259.8098 275.6614,259.6803 271.0406,259.956 266.4198,260.3079 261.7989,260.5387 257.1781,260.5405 252.5573,260.273 247.9365,259.716 243.3157,260.2068 238.6949,261.1221 234.0741,262.1406 229.4533,263.096 224.8325,263.9422 220.2116,264.6817 215.5908,265.3154 210.97,265.8427 206.3492,266.2619 201.7284,266.5698 197.1076,266.762 192.4868,266.8328 187.866,266.7749 183.2451,266.5794 178.6243,266.8105 174.0035,267.2335 169.3827,267.7156 164.7619,268.1738 160.1411,268.5636 155.5203,268.871 150.8995,269.0931 146.2787,269.2265 141.6578,269.2671 137.037,269.2103 132.4162,269.051 127.7954,268.7837 123.1746,268.4026 118.5538,267.9015 113.933,267.2741 109.3122,266.5141 104.6914,265.6152 100.0705,264.5712 95.4497,263.3762 90.8289,262.0249 86.2081,260.5122 81.5873,260.2647 76.9665,260.6796 72.3457,261.4992 67.7249,262.5762 63.1041,263.8048 58.4832,265.1003 53.8624,266.3999 49.2416,267.3753 44.6208,268.2262 40,269.0506"></polyline>
<text class = "party cec" x="631.1111" y="254"><tspan class="party_name">CeC</tspan><tspan class="party_result"> (8.6±1.7%)</tspan></text>
<polyline id="media-psc"  class="psc media" points=" 40,223.9915 44.6208,223.9245 49.2416,223.85 53.8624,223.7672 58.4832,223.6769 63.1041,223.5844 67.7249,223.4992 72.3457,223.4346 76.9665,223.4085 81.5873,223.4477 86.2081,223.6032 90.8289,224.0043 95.4497,224.4175 100.0705,224.8414 104.6914,225.275 109.3122,225.7178 113.933,226.1698 118.5538,226.6312 123.1746,227.103 127.7954,227.5863 132.4162,228.0828 137.037,228.5946 141.6578,229.1243 146.2787,229.675 150.8995,230.2504 155.5203,230.8548 160.1411,231.4933 164.7619,232.1718 169.3827,232.8707 174.0035,233.5033 178.6243,233.8985 183.2451,233.7603 187.866,232.4797 192.4868,231.3023 197.1076,230.2185 201.7284,229.2186 206.3492,228.2934 210.97,227.434 215.5908,226.6316 220.2116,225.8779 224.8325,225.1647 229.4533,224.4839 234.0741,223.8274 238.6949,223.2138 243.3157,222.7254 247.9365,222.5233 252.5573,222.941 257.1781,223.2705 261.7989,223.5241 266.4198,223.714 271.0406,223.8579 275.6614,223.9859 280.2822,224.1495 284.903,224.4655 289.5238,224.7902 294.1446,225.1236 298.7654,225.4668 303.3862,225.8216 308.0071,226.1903 312.6279,226.5757 317.2487,226.9813 321.8695,227.411 326.4903,227.8693 331.1111,228.3614 335.7319,228.8938 340.3527,229.4588 344.9735,230.0097 349.5944,230.4481 354.2152,230.6133 358.836,230.2497 363.4568,228.8951 368.0776,227.6996 372.6984,226.6446 377.3192,225.714 381.94,224.8937 386.5608,224.1715 391.1817,223.5364 395.8025,222.988 400.4233,222.5451 405.0441,222.2452 409.6649,222.1611 414.2857,221.941 418.9065,221.4894 423.5273,221.0335 428.1481,220.5942 432.769,220.239 437.3898,220.0999 442.0106,220.4345 446.6314,220.7278 451.2522,220.9585 455.873,221.0568 460.4938,220.8959 465.1146,220.2458 469.7354,219.6953 474.3563,219.2229 478.9771,218.7713 483.5979,218.2645 488.2187,217.7112 492.8395,217.1193 497.4603,216.496 502.0811,215.8478 506.7019,215.1814 511.3228,214.5027 515.9436,213.8176 520.5644,213.1316 525.1852,212.4512 529.806,211.7805 534.4268,211.1372 539.0476,210.5848 543.6684,210.3362 548.2892,210.788 552.9101,211.0956 557.5309,211.2701 562.1517,211.2811 566.7725,210.9872 571.3933,210.5755 576.0141,210.1461 580.6349,209.8168 585.2557,209.7835 589.8765,210.5671 594.4974,211.2653 599.1182,211.9205 603.739,212.6293 608.3598,213.3653 612.9806,214.0984 617.6014,214.751 622.2222,215.1808"></polyline>
<polyline id="error-psc" class="psc error" points=" 40,191.7055 44.6208,192.2475 49.2416,192.7978 53.8624,193.49 58.4832,194.6064 63.1041,195.718 67.7249,196.7808 72.3457,197.7355 76.9665,198.5086 81.5873,199.001 86.2081,199.0491 90.8289,198.2987 95.4497,197.7331 100.0705,197.3405 104.6914,197.1099 109.3122,197.0315 113.933,197.0964 118.5538,197.2966 123.1746,197.6254 127.7954,198.0767 132.4162,198.6458 137.037,199.3293 141.6578,200.1245 146.2787,201.0305 150.8995,202.0477 155.5203,203.1777 160.1411,204.4241 164.7619,205.7924 169.3827,207.2432 174.0035,208.6201 178.6243,209.6183 183.2451,209.7213 187.866,207.907 192.4868,206.3605 197.1076,205.0572 201.7284,203.975 206.3492,203.0938 210.97,202.3961 215.5908,201.8659 220.2116,201.4892 224.8325,201.2537 229.4533,201.1488 234.0741,201.165 238.6949,201.2902 243.3157,201.4977 247.9365,201.7409 252.5573,201.9642 257.1781,202.3153 261.7989,202.7896 266.4198,203.3658 271.0406,203.9742 275.6614,204.4858 280.2822,204.6911 284.903,204.1699 289.5238,203.834 294.1446,203.6635 298.7654,203.6428 303.3862,203.7599 308.0071,204.0055 312.6279,204.3726 317.2487,204.8559 321.8695,205.4521 326.4903,206.1596 331.1111,206.9786 335.7319,207.9112 340.3527,208.9403 344.9735,209.9936 349.5944,210.9262 354.2152,211.5081 358.836,211.3832 363.4568,209.9253 368.0776,208.7561 372.6984,207.8432 377.3192,207.1588 381.94,206.6799 386.5608,206.3868 391.1817,206.2628 395.8025,206.2849 400.4233,206.4044 405.0441,206.5375 409.6649,206.5536 414.2857,206.4015 418.9065,205.8466 423.5273,205.4478 428.1481,205.2013 432.769,205.1086 437.3898,205.1788 442.0106,205.4542 446.6314,205.8501 451.2522,206.3052 455.873,206.6897 460.4938,206.7807 465.1146,206.18 469.7354,205.6963 474.3563,205.1163 478.9771,204.0064 483.5979,202.9612 488.2187,201.985 492.8395,201.0821 497.4603,200.2573 502.0811,199.5151 506.7019,198.8598 511.3228,198.2955 515.9436,197.8261 520.5644,197.4549 525.1852,197.1756 529.806,196.9505 534.4268,196.7137 539.0476,196.3784 543.6684,196.3852 548.2892,197.0131 552.9101,197.6612 557.5309,198.2746 562.1517,198.6081 566.7725,198.021 571.3933,197.5102 576.0141,197.1785 580.6349,196.9899 585.2557,196.8874 589.8765,196.8078 594.4974,196.8555 599.1182,196.9513 603.739,196.9593 608.3598,197.1367 612.9806,197.4289 617.6014,197.6826 622.2222,197.589 622.2222,232.7725 617.6014,231.8194 612.9806,230.7678 608.3598,229.5939 603.739,228.2993 599.1182,226.8896 594.4974,225.6751 589.8765,224.3263 585.2557,222.6797 580.6349,222.6437 576.0141,223.1138 571.3933,223.6408 566.7725,223.9534 562.1517,223.954 557.5309,224.2657 552.9101,224.5301 548.2892,224.5628 543.6684,224.2872 539.0476,224.7911 534.4268,225.5607 529.806,226.6106 525.1852,227.7269 520.5644,228.8083 515.9436,229.8092 511.3228,230.7099 506.7019,231.503 502.0811,232.1806 497.4603,232.7346 492.8395,233.1565 488.2187,233.4375 483.5979,233.5678 478.9771,233.5363 474.3563,233.3294 469.7354,233.6943 465.1146,234.3116 460.4938,235.011 455.873,235.4239 451.2522,235.6118 446.6314,235.6056 442.0106,235.4148 437.3898,235.0209 432.769,235.3694 428.1481,235.9872 423.5273,236.6193 418.9065,237.1323 414.2857,237.4804 409.6649,237.7686 405.0441,237.9529 400.4233,238.6859 395.8025,239.6912 391.1817,240.81 386.5608,241.9562 381.94,243.1075 377.3192,244.2692 372.6984,245.4461 368.0776,246.643 363.4568,247.8649 358.836,249.1162 354.2152,249.7184 349.5944,249.9701 344.9735,250.0259 340.3527,249.9773 335.7319,249.8763 331.1111,249.7442 326.4903,249.5789 321.8695,249.3699 317.2487,249.1068 312.6279,248.7789 308.0071,248.375 303.3862,247.8832 298.7654,247.2908 294.1446,246.5836 289.5238,245.7463 284.903,244.7612 280.2822,243.6078 275.6614,243.486 271.0406,243.7417 266.4198,244.0622 261.7989,244.2587 257.1781,244.2256 252.5573,243.9178 247.9365,243.3057 243.3157,243.953 238.6949,245.1375 234.0741,246.4897 229.4533,247.819 224.8325,249.0756 220.2116,250.2665 215.5908,251.3972 210.97,252.4718 206.3492,253.493 201.7284,254.4622 197.1076,255.3797 192.4868,256.2441 187.866,257.0523 183.2451,257.7993 178.6243,258.1787 174.0035,258.3865 169.3827,258.4981 164.7619,258.5512 160.1411,258.5624 155.5203,258.5319 150.8995,258.4531 146.2787,258.3194 141.6578,258.1241 137.037,257.86 132.4162,257.5198 127.7954,257.0959 123.1746,256.5807 118.5538,255.9659 113.933,255.2432 109.3122,254.4042 104.6914,253.4402 100.0705,252.3424 95.4497,251.102 90.8289,249.71 86.2081,248.1573 81.5873,247.8944 76.9665,248.3083 72.3457,249.1336 67.7249,250.2176 63.1041,251.4509 58.4832,252.7474 53.8624,254.0443 49.2416,254.9022 44.6208,255.6015 40,256.2774"></polyline>
<text class = "party psc" x="631.1111" y="221"><tspan class="party_name">PSC</tspan><tspan class="party_result"> (14.6±2.2%)</tspan></text>
<polyline id="media-cs"  class="cs media" points=" 40,187.5233 44.6208,187.7205 49.2416,187.9252 53.8624,188.1375 58.4832,188.355 63.1041,188.5702 67.7249,188.7706 72.3457,188.9405 76.9665,189.0606 81.5873,189.1042 86.2081,189.0216 90.8289,188.6861 95.4497,188.3693 100.0705,188.0741 104.6914,187.8029 109.3122,187.5575 113.933,187.3391 118.5538,187.1485 123.1746,186.9862 127.7954,186.8524 132.4162,186.7471 137.037,186.6701 141.6578,186.6211 146.2787,186.5998 150.8995,186.6057 155.5203,186.6387 160.1411,186.6982 164.7619,186.7841 169.3827,186.8913 174.0035,187.0024 178.6243,187.0848 183.2451,187.0851 187.866,186.8981 192.4868,186.7511 197.1076,186.6446 201.7284,186.5787 206.3492,186.5534 210.97,186.5687 215.5908,186.6246 220.2116,186.7213 224.8325,186.859 229.4533,187.038 234.0741,187.2587 238.6949,187.5068 243.3157,187.7319 247.9365,187.8397 252.5573,187.6464 257.1781,187.5544 261.7989,187.5637 266.4198,187.6612 271.0406,187.7959 275.6614,187.8691 280.2822,187.7091 284.903,186.9205 289.5238,186.1848 294.1446,185.5031 298.7654,184.876 303.3862,184.3035 308.0071,183.7851 312.6279,183.3204 317.2487,182.9086 321.8695,182.5488 326.4903,182.2404 331.1111,181.9825 335.7319,181.7747 340.3527,181.6143 344.9735,181.4926 349.5944,181.3917 354.2152,181.2815 358.836,181.1149 363.4568,180.8089 368.0776,180.5547 372.6984,180.3547 377.3192,180.2112 381.94,180.1266 386.5608,180.1038 391.1817,180.1464 395.8025,180.2311 400.4233,180.2601 405.0441,180.0315 409.6649,179.1452 414.2857,178.4024 418.9065,177.7408 423.5273,177.132 428.1481,176.588 432.769,176.1218 437.3898,175.7399 442.0106,175.4371 446.6314,175.1572 451.2522,174.8832 455.873,174.555 460.4938,174.0605 465.1146,173.1954 469.7354,172.4527 474.3563,171.8358 478.9771,171.3237 483.5979,170.7301 488.2187,170.0684 492.8395,169.3504 497.4603,168.5869 502.0811,167.7879 506.7019,166.963 511.3228,166.1209 515.9436,165.27 520.5644,164.4174 525.1852,163.5844 529.806,162.8234 534.4268,162.1928 539.0476,161.7115 543.6684,160.7772 548.2892,158.9355 552.9101,156.9303 557.5309,154.9407 562.1517,153.6976 566.7725,155.0122 571.3933,155.6698 576.0141,155.9817 580.6349,156.1429 585.2557,156.4076 589.8765,157.3067 594.4974,158.052 599.1182,158.5421 603.739,158.5598 608.3598,158.4722 612.9806,158.3062 617.6014,158.1394 622.2222,158.1272"></polyline>
<polyline id="error-cs" class="cs error" points=" 40,152.9514 44.6208,153.8055 49.2416,154.6849 53.8624,155.731 58.4832,157.2369 63.1041,158.7381 67.7249,160.1645 72.3457,161.4225 76.9665,162.3946 81.5873,162.9185 86.2081,162.7134 90.8289,161.13 95.4497,159.7477 100.0705,158.5584 104.6914,157.5544 109.3122,156.7276 113.933,156.0702 118.5538,155.5743 123.1746,155.2324 127.7954,155.0374 132.4162,154.9824 137.037,155.0613 141.6578,155.2687 146.2787,155.5998 150.8995,156.0507 155.5203,156.6184 160.1411,157.3011 164.7619,158.0978 169.3827,158.9839 174.0035,159.8701 178.6243,160.5864 183.2451,160.8523 187.866,160.1409 192.4868,159.6439 197.1076,159.3455 201.7284,159.2322 206.3492,159.2924 210.97,159.517 215.5908,159.8982 220.2116,160.4304 224.8325,161.1096 229.4533,161.9334 234.0741,162.9014 238.6949,163.9647 243.3157,164.9534 247.9365,165.5445 252.5573,165.125 257.1781,165.0421 261.7989,165.2778 266.4198,165.7829 271.0406,166.411 275.6614,166.8908 280.2822,166.766 284.903,165.0537 289.5238,163.5827 294.1446,162.3331 298.7654,161.2879 303.3862,160.4328 308.0071,159.7551 312.6279,159.2437 317.2487,158.889 321.8695,158.6824 326.4903,158.6166 331.1111,158.6853 335.7319,158.8835 340.3527,159.199 344.9735,159.5971 349.5944,160.0126 354.2152,160.3452 358.836,160.4457 363.4568,160.0674 368.0776,159.8763 372.6984,159.8603 377.3192,160.0096 381.94,160.3172 386.5608,160.7785 391.1817,161.3915 395.8025,162.1077 400.4233,162.7548 405.0441,162.9958 409.6649,162.2026 414.2857,161.525 418.9065,160.7517 423.5273,160.2053 428.1481,159.8705 432.769,159.688 437.3898,159.5284 442.0106,159.1476 446.6314,158.9657 451.2522,158.9234 455.873,158.8961 460.4938,158.6697 465.1146,157.8596 469.7354,157.1903 474.3563,156.4583 478.9771,155.237 483.5979,154.0646 488.2187,152.949 492.8395,151.8982 497.4603,150.9202 502.0811,150.0226 506.7019,149.2126 511.3228,148.4967 515.9436,147.8811 520.5644,147.371 525.1852,146.9734 529.806,146.697 534.4268,146.5102 539.0476,146.2685 543.6684,145.6011 548.2892,143.9121 552.9101,142.2398 557.5309,140.6953 562.1517,139.7863 566.7725,140.8057 571.3933,141.3735 576.0141,141.8049 580.6349,142.128 585.2557,142.3219 589.8765,142.2812 594.4974,142.3168 599.1182,142.1931 603.739,141.4344 608.3598,140.7209 612.9806,140.0545 617.6014,139.434 622.2222,138.8416 622.2222,177.4129 617.6014,176.8448 612.9806,176.558 608.3598,176.2235 603.739,175.6853 599.1182,174.8911 594.4974,173.7871 589.8765,172.3323 585.2557,170.4932 580.6349,170.1578 576.0141,170.1585 571.3933,169.966 566.7725,169.2186 562.1517,167.6088 557.5309,169.186 552.9101,171.6209 548.2892,173.9589 543.6684,175.9532 539.0476,177.1546 534.4268,177.8754 529.806,178.9498 525.1852,180.1954 520.5644,181.4639 515.9436,182.6588 511.3228,183.7451 506.7019,184.7134 502.0811,185.5532 497.4603,186.2535 492.8395,186.8026 488.2187,187.1879 483.5979,187.3956 478.9771,187.4104 474.3563,187.2133 469.7354,187.7152 465.1146,188.5313 460.4938,189.4512 455.873,190.2138 451.2522,190.843 446.6314,191.3486 442.0106,191.7266 437.3898,191.9514 432.769,192.5556 428.1481,193.3055 423.5273,194.0587 418.9065,194.7299 414.2857,195.2799 409.6649,196.0877 405.0441,197.0671 400.4233,197.7654 395.8025,198.3545 391.1817,198.9014 386.5608,199.429 381.94,199.9359 377.3192,200.4128 372.6984,200.8492 368.0776,201.2331 363.4568,201.5504 358.836,201.784 354.2152,202.2178 349.5944,202.7708 344.9735,203.3882 340.3527,204.0295 335.7319,204.6658 331.1111,205.2798 326.4903,205.8642 321.8695,206.4153 317.2487,206.9281 312.6279,207.3971 308.0071,207.8152 303.3862,208.1741 298.7654,208.4641 294.1446,208.6731 289.5238,208.7868 284.903,208.7873 280.2822,208.6522 275.6614,208.8474 271.0406,209.1808 266.4198,209.5395 261.7989,209.8496 257.1781,210.0666 252.5573,210.1678 247.9365,210.1349 243.3157,210.5104 238.6949,211.0489 234.0741,211.6161 229.4533,212.1425 224.8325,212.6084 220.2116,213.0122 215.5908,213.351 210.97,213.6204 206.3492,213.8143 201.7284,213.9252 197.1076,213.9437 192.4868,213.8583 187.866,213.6553 183.2451,213.3179 178.6243,213.5832 174.0035,214.1346 169.3827,214.7987 164.7619,215.4704 160.1411,216.0953 155.5203,216.6589 150.8995,217.1608 146.2787,217.5997 141.6578,217.9735 137.037,218.2789 132.4162,218.5119 127.7954,218.6675 123.1746,218.74 118.5538,218.7227 113.933,218.608 109.3122,218.3874 104.6914,218.0515 100.0705,217.5898 95.4497,216.991 90.8289,216.2423 86.2081,215.3298 81.5873,215.29 76.9665,215.7267 72.3457,216.4585 67.7249,217.3767 63.1041,218.4023 58.4832,219.4731 53.8624,220.5439 49.2416,221.1655 44.6208,221.6355 40,222.0952"></polyline>
<text class = "party cs" x="631.1111" y="159"><tspan class="party_name">C's</tspan><tspan class="party_result"> (21.7±2.4%)</tspan></text>
<polyline id="media-pp"  class="pp media" points=" 40,257.218 44.6208,257.1591 49.2416,257.1006 53.8624,257.0429 58.4832,256.9865 63.1041,256.9324 67.7249,256.8822 72.3457,256.8368 76.9665,256.7972 81.5873,256.7637 86.2081,256.7368 90.8289,256.7178 95.4497,256.6873 100.0705,256.6447 104.6914,256.5897 109.3122,256.5222 113.933,256.4419 118.5538,256.3487 123.1746,256.2424 127.7954,256.1228 132.4162,255.9897 137.037,255.8428 141.6578,255.6819 146.2787,255.5063 150.8995,255.3156 155.5203,255.109 160.1411,254.8856 164.7619,254.6444 169.3827,254.3923 174.0035,254.1572 178.6243,253.9923 183.2451,253.9869 187.866,254.3215 192.4868,254.6107 197.1076,254.8573 201.7284,255.064 206.3492,255.2337 210.97,255.369 215.5908,255.4727 220.2116,255.5472 224.8325,255.5953 229.4533,255.6198 234.0741,255.6236 238.6949,255.6053 243.3157,255.549 247.9365,255.4146 252.5573,255.1011 257.1781,254.7494 261.7989,254.3534 266.4198,253.9241 271.0406,253.5134 275.6614,253.221 280.2822,253.2165 284.903,253.8941 289.5238,254.507 294.1446,255.0597 298.7654,255.5557 303.3862,255.9983 308.0071,256.3901 312.6279,256.7335 317.2487,257.0305 321.8695,257.2828 326.4903,257.4918 331.1111,257.6583 335.7319,257.7829 340.3527,257.8692 344.9735,257.9301 349.5944,257.9919 354.2152,258.0987 358.836,258.3205 363.4568,258.784 368.0776,259.2033 372.6984,259.5809 377.3192,259.9197 381.94,260.2226 386.5608,260.4932 391.1817,260.7353 395.8025,260.9398 400.4233,261.0636 405.0441,261.0153 409.6649,260.6046 414.2857,260.4877 418.9065,260.8353 423.5273,261.1423 428.1481,261.4063 432.769,261.6185 437.3898,261.7642 442.0106,261.8168 446.6314,261.8505 451.2522,261.8609 455.873,261.8499 460.4938,261.8329 465.1146,261.8561 469.7354,261.9327 474.3563,262.1955 478.9771,262.9593 483.5979,263.7534 488.2187,264.5724 492.8395,265.4107 497.4603,266.2625 502.0811,267.1221 506.7019,267.9832 511.3228,268.84 515.9436,269.6866 520.5644,270.5173 525.1852,271.3284 529.806,272.1294 534.4268,272.9448 539.0476,273.8197 543.6684,274.5704 548.2892,275.0376 552.9101,275.7296 557.5309,276.5709 562.1517,277.2884 566.7725,277.2896 571.3933,277.8477 576.0141,278.5498 580.6349,279.1906 585.2557,279.5098 589.8765,278.9288 594.4974,278.5564 599.1182,278.2955 603.739,277.977 608.3598,277.7744 612.9806,277.6661 617.6014,277.598 622.2222,277.4627"></polyline>
<polyline id="error-pp" class="pp error" points=" 40,229.8749 44.6208,230.3821 49.2416,230.9039 53.8624,231.5459 58.4832,232.5277 63.1041,233.5085 67.7249,234.4434 72.3457,235.2712 76.9665,235.9145 81.5873,236.2657 86.2081,236.1408 90.8289,235.122 95.4497,234.2365 100.0705,233.4755 104.6914,232.8308 109.3122,232.2946 113.933,231.8594 118.5538,231.5183 123.1746,231.2648 127.7954,231.0926 132.4162,230.9962 137.037,230.9704 141.6578,231.0106 146.2787,231.1128 150.8995,231.2735 155.5203,231.4897 160.1411,231.7591 164.7619,232.0801 169.3827,232.4442 174.0035,232.8228 178.6243,233.1611 183.2451,233.3702 187.866,233.3007 192.4868,233.3241 197.1076,233.4298 201.7284,233.6097 206.3492,233.8572 210.97,234.1676 215.5908,234.5373 220.2116,234.9642 224.8325,235.4475 229.4533,235.988 234.0741,236.5878 238.6949,237.2178 243.3157,237.7668 247.9365,238.0118 252.5573,237.5083 257.1781,237.1514 261.7989,236.9208 266.4198,236.7992 271.0406,236.7657 275.6614,236.7867 280.2822,236.8135 284.903,236.7923 289.5238,236.8555 294.1446,236.9901 298.7654,237.1855 303.3862,237.433 308.0071,237.7254 312.6279,238.0564 317.2487,238.4207 321.8695,238.8136 326.4903,239.2311 331.1111,239.6697 335.7319,240.1264 340.3527,240.597 344.9735,241.0743 349.5944,241.5491 354.2152,242.012 358.836,242.4563 363.4568,242.8865 368.0776,243.3765 372.6984,243.9171 377.3192,244.5015 381.94,245.125 386.5608,245.7851 391.1817,246.4809 395.8025,247.1839 400.4233,247.7927 405.0441,248.1111 409.6649,247.7721 414.2857,247.7128 418.9065,247.9952 423.5273,248.3697 428.1481,248.8122 432.769,249.257 437.3898,249.5842 442.0106,249.5826 446.6314,249.6967 451.2522,249.8894 455.873,250.1137 460.4938,250.3084 465.1146,250.3856 469.7354,250.5302 474.3563,250.721 478.9771,250.9735 483.5979,251.3594 488.2187,251.8689 492.8395,252.4928 497.4603,253.2225 502.0811,254.0494 506.7019,254.9647 511.3228,255.9598 515.9436,257.0259 520.5644,258.1546 525.1852,259.3307 529.806,260.5297 534.4268,261.7095 539.0476,262.7967 543.6684,263.7796 548.2892,264.3946 552.9101,265.3739 557.5309,266.586 562.1517,267.5799 566.7725,267.3556 571.3933,267.8606 576.0141,268.6689 580.6349,269.4457 585.2557,269.722 589.8765,268.4351 594.4974,267.5275 599.1182,266.8052 603.739,265.9078 608.3598,265.2402 612.9806,264.7625 617.6014,264.3604 622.2222,263.7922 622.2222,291.1333 617.6014,290.8357 612.9806,290.5697 608.3598,290.3085 603.739,290.0461 599.1182,289.7858 594.4974,289.5853 589.8765,289.4225 585.2557,289.2976 580.6349,288.9356 576.0141,288.4307 571.3933,287.8348 566.7725,287.2237 562.1517,286.9969 557.5309,286.5559 552.9101,286.0854 548.2892,285.6805 543.6684,285.3611 539.0476,284.8427 534.4268,284.1801 529.806,283.7292 525.1852,283.3262 520.5644,282.8799 515.9436,282.3473 511.3228,281.7202 506.7019,281.0017 502.0811,280.1947 497.4603,279.3025 492.8395,278.3286 488.2187,277.2759 483.5979,276.1474 478.9771,274.9451 474.3563,273.67 469.7354,273.3351 465.1146,273.3266 460.4938,273.3574 455.873,273.5861 451.2522,273.8324 446.6314,274.0042 442.0106,274.051 437.3898,273.9443 432.769,273.98 428.1481,274.0003 423.5273,273.9148 418.9065,273.6754 414.2857,273.2626 409.6649,273.437 405.0441,273.9194 400.4233,274.3345 395.8025,274.6957 391.1817,274.9896 386.5608,275.2013 381.94,275.3202 377.3192,275.3378 372.6984,275.2447 368.0776,275.0301 363.4568,274.6815 358.836,274.1846 354.2152,274.1854 349.5944,274.4347 344.9735,274.7858 340.3527,275.1415 335.7319,275.4394 331.1111,275.6468 326.4903,275.7524 321.8695,275.7521 317.2487,275.6404 312.6279,275.4106 308.0071,275.0548 303.3862,274.5635 298.7654,273.9259 294.1446,273.1293 289.5238,272.1585 284.903,270.9958 280.2822,269.6195 275.6614,269.6552 271.0406,270.2611 266.4198,271.0489 261.7989,271.7861 257.1781,272.3474 252.5573,272.6939 247.9365,272.8173 243.3157,273.3313 238.6949,273.9927 234.0741,274.6595 229.4533,275.2515 224.8325,275.743 220.2116,276.1302 215.5908,276.408 210.97,276.5705 206.3492,276.6102 201.7284,276.5183 197.1076,276.2847 192.4868,275.8973 187.866,275.3423 183.2451,274.6037 178.6243,274.8235 174.0035,275.4916 169.3827,276.3404 164.7619,277.2086 160.1411,278.0122 155.5203,278.7284 150.8995,279.3578 146.2787,279.8998 141.6578,280.3531 137.037,280.7153 132.4162,280.9832 127.7954,281.1529 123.1746,281.2199 118.5538,281.179 113.933,281.0244 109.3122,280.7499 104.6914,280.3487 100.0705,279.8139 95.4497,279.1381 90.8289,278.3137 86.2081,277.3329 81.5873,277.2618 76.9665,277.6799 72.3457,278.4024 67.7249,279.3209 63.1041,280.3564 58.4832,281.4452 53.8624,282.5399 49.2416,283.2973 44.6208,283.9361 40,284.5612"></polyline>
<text class = "party pp" x="631.1111" y="274"><tspan class="party_name">PP</tspan><tspan class="party_result"> (6.9±1.7%)</tspan></text>
<polyline id="media-otros"  class="otros media" points=" 40,310.0391 44.6208,310.0868 49.2416,310.1377 53.8624,310.1918 58.4832,310.2487 63.1041,310.3059 67.7249,310.3588 72.3457,310.4014 76.9665,310.426 81.5873,310.421 86.2081,310.3649 90.8289,310.2029 95.4497,310.0401 100.0705,309.8772 104.6914,309.715 109.3122,309.5537 113.933,309.3936 118.5538,309.2348 123.1746,309.077 127.7954,308.9201 132.4162,308.7635 137.037,308.6066 141.6578,308.4489 146.2787,308.2892 150.8995,308.1267 155.5203,307.9601 160.1411,307.788 164.7619,307.6086 169.3827,307.427 174.0035,307.2649 178.6243,307.1657 183.2451,307.2051 187.866,307.5389 192.4868,307.8505 197.1076,308.143 201.7284,308.4196 206.3492,308.6833 210.97,308.9373 215.5908,309.1846 220.2116,309.4285 224.8325,309.6724 229.4533,309.92 234.0741,310.1754 238.6949,310.4239 243.3157,310.6029 247.9365,310.5841 252.5573,310.0942 257.1781,309.6541 261.7989,309.2568 266.4198,308.901 271.0406,308.5952 275.6614,308.3552 280.2822,308.2047 284.903,308.2002 289.5238,308.1706 294.1446,308.1205 298.7654,308.0533 303.3862,307.9715 308.0071,307.8769 312.6279,307.7709 317.2487,307.6542 321.8695,307.5274 326.4903,307.3906 331.1111,307.2435 335.7319,307.0858 340.3527,306.9194 344.9735,306.7536 349.5944,306.6065 354.2152,306.5063 358.836,306.496 363.4568,306.6509 368.0776,306.7634 372.6984,306.8364 377.3192,306.8721 381.94,306.8719 386.5608,306.8364 391.1817,306.7655 395.8025,306.6725 400.4233,306.6077 405.0441,306.6722 409.6649,307.0615 414.2857,307.4293 418.9065,307.8465 423.5273,308.2242 428.1481,308.5595 432.769,308.8553 437.3898,309.13 442.0106,309.4323 446.6314,309.7223 451.2522,310.009 455.873,310.3242 460.4938,310.7233 465.1146,311.3002 469.7354,311.7728 474.3563,312.0648 478.9771,312.0193 483.5979,312.0238 488.2187,312.0704 492.8395,312.1533 497.4603,312.2673 502.0811,312.4087 506.7019,312.5741 511.3228,312.7607 515.9436,312.9664 520.5644,313.1898 525.1852,313.4226 529.806,313.6399 534.4268,313.7956 539.0476,313.8122 543.6684,313.8891 548.2892,314.0249 552.9101,314.2735 557.5309,314.5823 562.1517,314.7083 566.7725,314.0124 571.3933,313.5403 576.0141,313.168 580.6349,312.8951 585.2557,312.7337 589.8765,312.7563 594.4974,312.7947 599.1182,312.9679 603.739,313.5373 608.3598,314.1783 612.9806,314.8532 617.6014,315.4612 622.2222,315.8098"></polyline>
<polyline id="error-otros" class="otros error" points=" 40,288.8561 44.6208,289.3918 49.2416,289.9402 53.8624,290.5856 58.4832,291.5029 63.1041,292.4139 67.7249,293.2763 72.3457,294.0331 76.9665,294.6137 81.5873,294.9203 86.2081,294.7818 90.8289,293.799 95.4497,292.9299 100.0705,292.1699 104.6914,291.5144 109.3122,290.9585 113.933,290.4972 118.5538,290.1253 123.1746,289.8377 127.7954,289.6293 132.4162,289.4955 137.037,289.4315 141.6578,289.4329 146.2787,289.4959 150.8995,289.6166 155.5203,289.7919 160.1411,290.0187 164.7619,290.2946 169.3827,290.6114 174.0035,290.9455 178.6243,291.2538 183.2451,291.4702 187.866,291.4886 192.4868,291.597 197.1076,291.788 201.7284,292.056 206.3492,292.3967 210.97,292.8069 215.5908,293.2846 220.2116,293.8292 224.8325,294.4407 229.4533,295.121 234.0741,295.8729 238.6949,296.6579 243.3157,297.3333 247.9365,297.6188 252.5573,296.9543 257.1781,296.4913 261.7989,296.211 266.4198,296.0895 271.0406,296.0754 275.6614,296.0771 280.2822,295.9417 284.903,295.3615 289.5238,294.8721 294.1446,294.4658 298.7654,294.136 303.3862,293.8764 308.0071,293.6815 312.6279,293.5459 317.2487,293.465 321.8695,293.434 326.4903,293.4489 331.1111,293.5058 335.7319,293.6011 340.3527,293.7306 344.9735,293.8875 349.5944,294.0613 354.2152,294.2375 358.836,294.3983 363.4568,294.5215 368.0776,294.6846 372.6984,294.8812 377.3192,295.1057 381.94,295.3535 386.5608,295.6199 391.1817,295.901 395.8025,296.1953 400.4233,296.5103 405.0441,296.8717 409.6649,297.3499 414.2857,297.7862 418.9065,298.165 423.5273,298.6086 428.1481,299.0959 432.769,299.5855 437.3898,300.0138 442.0106,300.2883 446.6314,300.6562 451.2522,301.1007 455.873,301.6167 460.4938,302.2021 465.1146,302.8506 469.7354,303.399 474.3563,303.6446 478.9771,303.1812 483.5979,302.8473 488.2187,302.6324 492.8395,302.5286 497.4603,302.5292 502.0811,302.6287 506.7019,302.8218 511.3228,303.104 515.9436,303.4711 520.5644,303.9194 525.1852,304.4311 529.806,304.9526 534.4268,305.382 539.0476,305.5433 543.6684,305.7875 548.2892,306.0347 552.9101,306.5046 557.5309,307.0998 562.1517,307.4315 566.7725,306.5221 571.3933,305.9694 576.0141,305.6441 580.6349,305.449 585.2557,305.2369 589.8765,304.7114 594.4974,304.3331 599.1182,304.1528 603.739,304.2991 608.3598,304.6108 612.9806,305.034 617.6014,305.4147 622.2222,305.443 622.2222,326.1765 617.6014,325.5078 612.9806,324.6724 608.3598,323.7457 603.739,322.7756 599.1182,321.783 594.4974,321.2563 589.8765,320.8011 585.2557,320.2305 580.6349,320.3411 576.0141,320.6919 571.3933,321.1113 566.7725,321.5026 562.1517,321.9851 557.5309,322.0647 552.9101,322.0423 548.2892,322.0151 543.6684,321.9908 539.0476,322.0812 534.4268,322.2092 529.806,322.3273 525.1852,322.4142 520.5644,322.4601 515.9436,322.4618 511.3228,322.4174 506.7019,322.3264 502.0811,322.1888 497.4603,322.0054 492.8395,321.7779 488.2187,321.5085 483.5979,321.2003 478.9771,320.8574 474.3563,320.485 469.7354,320.1465 465.1146,319.7497 460.4938,319.2446 455.873,319.0317 451.2522,318.9173 446.6314,318.7884 442.0106,318.5762 437.3898,318.2462 432.769,318.1252 428.1481,318.023 423.5273,317.8399 418.9065,317.528 414.2857,317.0725 409.6649,316.7732 405.0441,316.4727 400.4233,316.705 395.8025,317.1497 391.1817,317.63 386.5608,318.0529 381.94,318.3903 377.3192,318.6384 372.6984,318.7916 368.0776,318.8422 363.4568,318.7803 358.836,318.5936 354.2152,318.7751 349.5944,319.1517 344.9735,319.6197 340.3527,320.1081 335.7319,320.5704 331.1111,320.9812 326.4903,321.3323 321.8695,321.6208 317.2487,321.8435 312.6279,321.9958 308.0071,322.0724 303.3862,322.0666 298.7654,321.9706 294.1446,321.7752 289.5238,321.4692 284.903,321.0389 280.2822,320.4676 275.6614,320.6334 271.0406,321.115 266.4198,321.7124 261.7989,322.3025 257.1781,322.8169 252.5573,323.2341 247.9365,323.5495 243.3157,323.8726 238.6949,324.1898 234.0741,324.4779 229.4533,324.7189 224.8325,324.904 220.2116,325.0278 215.5908,325.0845 210.97,325.0677 206.3492,324.97 201.7284,324.7832 197.1076,324.4981 192.4868,324.104 187.866,323.5891 183.2451,322.94 178.6243,323.0777 174.0035,323.5842 169.3827,324.2425 164.7619,324.9227 160.1411,325.5572 155.5203,326.1283 150.8995,326.6368 146.2787,327.0826 141.6578,327.4648 137.037,327.7818 132.4162,328.0315 127.7954,328.2108 123.1746,328.3164 118.5538,328.3443 113.933,328.29 109.3122,328.1489 104.6914,327.9156 100.0705,327.5846 95.4497,327.1503 90.8289,326.6068 86.2081,325.9481 81.5873,325.9217 76.9665,326.2382 72.3457,326.7697 67.7249,327.4413 63.1041,328.1978 58.4832,328.9946 53.8624,329.7981 49.2416,330.3351 44.6208,330.7819 40,331.2221"></polyline>
<text class = "party otros" x="631.1111" y="317"><tspan class="party_name">Otros</tspan><tspan class="party_result"> (2.2±1.3%)</tspan></text>
<g id="encuesta-1">
<circle id="encuesta-1-cup" class="encuesta feedback cup" cx="622.2222" cy="281.6162" r="3.1623" ></circle>
<circle id="encuesta-1-erc" class="encuesta feedback erc" cx="622.2222" cy="139.3939" r="3.1623" ></circle>
<circle id="encuesta-1-jxcat" class="encuesta feedback jxcat" cx="622.2222" cy="195.1515" r="3.1623" ></circle>
<circle id="encuesta-1-cec" class="encuesta feedback cec" cx="622.2222" cy="258.1818" r="3.1623" ></circle>
<circle id="encuesta-1-psc" class="encuesta feedback psc" cx="622.2222" cy="224.2424" r="3.1623" ></circle>
<circle id="encuesta-1-cs" class="encuesta feedback cs" cx="622.2222" cy="149.0909" r="3.1623" ></circle>
<circle id="encuesta-1-pp" class="encuesta feedback pp" cx="622.2222" cy="283.2323" r="3.1623" ></circle>
<circle id="encuesta-1-otros" class="encuesta feedback otros" cx="622.2222" cy="327.6768" r="3.1623" ></circle>
</g>
<g id="encuesta-2">
<circle id="encuesta-2-cup" class="encuesta sociometrica cup" cx="599.1182" cy="284.8485" r="2.8284" ></circle>
<circle id="encuesta-2-erc" class="encuesta sociometrica erc" cx="599.1182" cy="146.6667" r="2.8284" ></circle>
<circle id="encuesta-2-jxcat" class="encuesta sociometrica jxcat" cx="599.1182" cy="179.798" r="2.8284" ></circle>
<circle id="encuesta-2-cec" class="encuesta sociometrica cec" cx="599.1182" cy="281.6162" r="2.8284" ></circle>
<circle id="encuesta-2-psc" class="encuesta sociometrica psc" cx="599.1182" cy="210.5051" r="2.8284" ></circle>
<circle id="encuesta-2-cs" class="encuesta sociometrica cs" cx="599.1182" cy="167.6768" r="2.8284" ></circle>
<circle id="encuesta-2-pp" class="encuesta sociometrica pp" cx="599.1182" cy="283.2323" r="2.8284" ></circle>
<circle id="encuesta-2-otros" class="encuesta sociometrica otros" cx="599.1182" cy="304.2424" r="2.8284" ></circle>
</g>
<g id="encuesta-3">
<circle id="encuesta-3-cup" class="encuesta cis cup" cx="585.2557" cy="279.1919" r="5.4772" ></circle>
<circle id="encuesta-3-erc" class="encuesta cis erc" cx="585.2557" cy="165.2525" r="5.4772" ></circle>
<circle id="encuesta-3-jxcat" class="encuesta cis jxcat" cx="585.2557" cy="196.7677" r="5.4772" ></circle>
<circle id="encuesta-3-cec" class="encuesta cis cec" cx="585.2557" cy="263.8384" r="5.4772" ></circle>
<circle id="encuesta-3-psc" class="encuesta cis psc" cx="585.2557" cy="204.0404" r="5.4772" ></circle>
<circle id="encuesta-3-cs" class="encuesta cis cs" cx="585.2557" cy="151.5152" r="5.4772" ></circle>
<circle id="encuesta-3-pp" class="encuesta cis pp" cx="585.2557" cy="286.4646" r="5.4772" ></circle>
<circle id="encuesta-3-otros" class="encuesta cis otros" cx="585.2557" cy="311.5152" r="5.4772" ></circle>
</g>
<g id="encuesta-4">
<circle id="encuesta-4-cup" class="encuesta nc_report cup" cx="566.7725" cy="287.2727" r="3.1623" ></circle>
<circle id="encuesta-4-erc" class="encuesta nc_report erc" cx="566.7725" cy="138.5859" r="3.1623" ></circle>
<circle id="encuesta-4-jxcat" class="encuesta nc_report jxcat" cx="566.7725" cy="223.4343" r="3.1623" ></circle>
<circle id="encuesta-4-cec" class="encuesta nc_report cec" cx="566.7725" cy="265.4545" r="3.1623" ></circle>
<circle id="encuesta-4-psc" class="encuesta nc_report psc" cx="566.7725" cy="214.5455" r="3.1623" ></circle>
<circle id="encuesta-4-cs" class="encuesta nc_report cs" cx="566.7725" cy="164.4444" r="3.1623" ></circle>
<circle id="encuesta-4-pp" class="encuesta nc_report pp" cx="566.7725" cy="258.1818" r="3.1623" ></circle>
<circle id="encuesta-4-otros" class="encuesta nc_report otros" cx="566.7725" cy="306.6667" r="3.1623" ></circle>
</g>
<g id="encuesta-5">
<circle id="encuesta-5-cup" class="encuesta metroscopica cup" cx="562.1517" cy="285.6566" r="4.2426" ></circle>
<circle id="encuesta-5-erc" class="encuesta metroscopica erc" cx="562.1517" cy="119.1919" r="4.2426" ></circle>
<circle id="encuesta-5-jxcat" class="encuesta metroscopica jxcat" cx="562.1517" cy="223.4343" r="4.2426" ></circle>
<circle id="encuesta-5-cec" class="encuesta metroscopica cec" cx="562.1517" cy="279.1919" r="4.2426" ></circle>
<circle id="encuesta-5-psc" class="encuesta metroscopica psc" cx="562.1517" cy="212.9293" r="4.2426" ></circle>
<circle id="encuesta-5-cs" class="encuesta metroscopica cs" cx="562.1517" cy="128.8889" r="4.2426" ></circle>
<circle id="encuesta-5-pp" class="encuesta metroscopica pp" cx="562.1517" cy="286.4646" r="4.2426" ></circle>
<circle id="encuesta-5-otros" class="encuesta metroscopica otros" cx="562.1517" cy="322.8283" r="4.2426" ></circle>
</g>
<g id="encuesta-6">
<circle id="encuesta-6-cup" class="encuesta gesop cup" cx="543.6684" cy="282.4242" r="2.8284" ></circle>
<circle id="encuesta-6-erc" class="encuesta gesop erc" cx="543.6684" cy="140.202" r="2.8284" ></circle>
<circle id="encuesta-6-jxcat" class="encuesta gesop jxcat" cx="543.6684" cy="200" r="2.8284" ></circle>
<circle id="encuesta-6-cec" class="encuesta gesop cec" cx="543.6684" cy="263.8384" r="2.8284" ></circle>
<circle id="encuesta-6-psc" class="encuesta gesop psc" cx="543.6684" cy="187.0707" r="2.8284" ></circle>
<circle id="encuesta-6-cs" class="encuesta gesop cs" cx="543.6684" cy="183.0303" r="2.8284" ></circle>
<circle id="encuesta-6-pp" class="encuesta gesop pp" cx="543.6684" cy="287.2727" r="2.8284" ></circle>
<circle id="encuesta-6-otros" class="encuesta gesop otros" cx="543.6684" cy="314.7475" r="2.8284" ></circle>
</g>
<g id="encuesta-7">
<circle id="encuesta-7-cup" class="encuesta gad3 cup" cx="534.4268" cy="288.0808" r="2.8302" ></circle>
<circle id="encuesta-7-erc" class="encuesta gad3 erc" cx="534.4268" cy="146.6667" r="2.8302" ></circle>
<circle id="encuesta-7-jxcat" class="encuesta gad3 jxcat" cx="534.4268" cy="198.3838" r="2.8302" ></circle>
<circle id="encuesta-7-cec" class="encuesta gad3 cec" cx="534.4268" cy="271.9192" r="2.8302" ></circle>
<circle id="encuesta-7-psc" class="encuesta gad3 psc" cx="534.4268" cy="211.3131" r="2.8302" ></circle>
<circle id="encuesta-7-cs" class="encuesta gad3 cs" cx="534.4268" cy="153.1313" r="2.8302" ></circle>
<circle id="encuesta-7-pp" class="encuesta gad3 pp" cx="534.4268" cy="270.303" r="2.8302" ></circle>
<circle id="encuesta-7-otros" class="encuesta gad3 otros" cx="534.4268" cy="318.7879" r="2.8302" ></circle>
</g>
<g id="encuesta-8">
<circle id="encuesta-8-cup" class="encuesta nc_report cup" cx="474.3563" cy="282.4242" r="3.1623" ></circle>
<circle id="encuesta-8-erc" class="encuesta nc_report erc" cx="474.3563" cy="120.8081" r="3.1623" ></circle>
<circle id="encuesta-8-jxcat" class="encuesta nc_report jxcat" cx="474.3563" cy="246.8687" r="3.1623" ></circle>
<circle id="encuesta-8-cec" class="encuesta nc_report cec" cx="474.3563" cy="249.2929" r="3.1623" ></circle>
<circle id="encuesta-8-psc" class="encuesta nc_report psc" cx="474.3563" cy="223.4343" r="3.1623" ></circle>
<circle id="encuesta-8-cs" class="encuesta nc_report cs" cx="474.3563" cy="174.9495" r="3.1623" ></circle>
<circle id="encuesta-8-pp" class="encuesta nc_report pp" cx="474.3563" cy="248.4848" r="3.1623" ></circle>
<circle id="encuesta-8-otros" class="encuesta nc_report otros" cx="474.3563" cy="312.3232" r="3.1623" ></circle>
</g>
<g id="encuesta-9">
<circle id="encuesta-9-cup" class="encuesta gad3 cup" cx="474.3563" cy="282.4242" r="3.5114" ></circle>
<circle id="encuesta-9-erc" class="encuesta gad3 erc" cx="474.3563" cy="96.5657" r="3.5114" ></circle>
<circle id="encuesta-9-jxcat" class="encuesta gad3 jxcat" cx="474.3563" cy="249.2929" r="3.5114" ></circle>
<circle id="encuesta-9-cec" class="encuesta gad3 cec" cx="474.3563" cy="266.2626" r="3.5114" ></circle>
<circle id="encuesta-9-psc" class="encuesta gad3 psc" cx="474.3563" cy="215.3535" r="3.5114" ></circle>
<circle id="encuesta-9-cs" class="encuesta gad3 cs" cx="474.3563" cy="166.8687" r="3.5114" ></circle>
<circle id="encuesta-9-pp" class="encuesta gad3 pp" cx="474.3563" cy="263.0303" r="3.5114" ></circle>
<circle id="encuesta-9-otros" class="encuesta gad3 otros" cx="474.3563" cy="318.7879" r="3.5114" ></circle>
</g>
<g id="encuesta-10">
<circle id="encuesta-10-cup" class="encuesta sociometrica cup" cx="460.4938" cy="287.2727" r="3.1623" ></circle>
<circle id="encuesta-10-erc" class="encuesta sociometrica erc" cx="460.4938" cy="81.2121" r="3.1623" ></circle>
<circle id="encuesta-10-jxcat" class="encuesta sociometrica jxcat" cx="460.4938" cy="251.7172" r="3.1623" ></circle>
<circle id="encuesta-10-cec" class="encuesta sociometrica cec" cx="460.4938" cy="252.5253" r="3.1623" ></circle>
<circle id="encuesta-10-psc" class="encuesta sociometrica psc" cx="460.4938" cy="234.7475" r="3.1623" ></circle>
<circle id="encuesta-10-cs" class="encuesta sociometrica cs" cx="460.4938" cy="185.4545" r="3.1623" ></circle>
<circle id="encuesta-10-pp" class="encuesta sociometrica pp" cx="460.4938" cy="260.6061" r="3.1623" ></circle>
<circle id="encuesta-10-otros" class="encuesta sociometrica otros" cx="460.4938" cy="305.0505" r="3.1623" ></circle>
</g>
<g id="encuesta-11">
<circle id="encuesta-11-cup" class="encuesta sigmados cup" cx="437.3898" cy="282.4242" r="3.1623" ></circle>
<circle id="encuesta-11-erc" class="encuesta sigmados erc" cx="437.3898" cy="120" r="3.1623" ></circle>
<circle id="encuesta-11-jxcat" class="encuesta sigmados jxcat" cx="437.3898" cy="254.1414" r="3.1623" ></circle>
<circle id="encuesta-11-cec" class="encuesta sigmados cec" cx="437.3898" cy="244.4444" r="3.1623" ></circle>
<circle id="encuesta-11-psc" class="encuesta sigmados psc" cx="437.3898" cy="211.3131" r="3.1623" ></circle>
<circle id="encuesta-11-cs" class="encuesta sigmados cs" cx="437.3898" cy="174.9495" r="3.1623" ></circle>
<circle id="encuesta-11-pp" class="encuesta sigmados pp" cx="437.3898" cy="263.0303" r="3.1623" ></circle>
<circle id="encuesta-11-otros" class="encuesta sigmados otros" cx="437.3898" cy="308.2828" r="3.1623" ></circle>
</g>
<g id="encuesta-12">
<circle id="encuesta-12-cup" class="encuesta nc_report cup" cx="414.2857" cy="288.0808" r="3.1623" ></circle>
<circle id="encuesta-12-erc" class="encuesta nc_report erc" cx="414.2857" cy="134.5455" r="3.1623" ></circle>
<circle id="encuesta-12-jxcat" class="encuesta nc_report jxcat" cx="414.2857" cy="235.5556" r="3.1623" ></circle>
<circle id="encuesta-12-cec" class="encuesta nc_report cec" cx="414.2857" cy="241.2121" r="3.1623" ></circle>
<circle id="encuesta-12-psc" class="encuesta nc_report psc" cx="414.2857" cy="227.4747" r="3.1623" ></circle>
<circle id="encuesta-12-cs" class="encuesta nc_report cs" cx="414.2857" cy="178.1818" r="3.1623" ></circle>
<circle id="encuesta-12-pp" class="encuesta nc_report pp" cx="414.2857" cy="248.4848" r="3.1623" ></circle>
<circle id="encuesta-12-otros" class="encuesta nc_report otros" cx="414.2857" cy="305.0505" r="3.1623" ></circle>
</g>
<g id="encuesta-13">
<circle id="encuesta-13-cup" class="encuesta gesop cup" cx="405.0441" cy="270.303" r="2.8284" ></circle>
<circle id="encuesta-13-erc" class="encuesta gesop erc" cx="405.0441" cy="106.2626" r="2.8284" ></circle>
<circle id="encuesta-13-jxcat" class="encuesta gesop jxcat" cx="405.0441" cy="236.3636" r="2.8284" ></circle>
<circle id="encuesta-13-cec" class="encuesta gesop cec" cx="405.0441" cy="260.6061" r="2.8284" ></circle>
<circle id="encuesta-13-psc" class="encuesta gesop psc" cx="405.0441" cy="216.1616" r="2.8284" ></circle>
<circle id="encuesta-13-cs" class="encuesta gesop cs" cx="405.0441" cy="197.5758" r="2.8284" ></circle>
<circle id="encuesta-13-pp" class="encuesta gesop pp" cx="405.0441" cy="272.7273" r="2.8284" ></circle>
<circle id="encuesta-13-otros" class="encuesta gesop otros" cx="405.0441" cy="298.5859" r="2.8284" ></circle>
</g>
<g id="encuesta-14">
<circle id="encuesta-14-cup" class="encuesta sociometrica cup" cx="358.836" cy="282.4242" r="2.8284" ></circle>
<circle id="encuesta-14-erc" class="encuesta sociometrica erc" cx="358.836" cy="76.3636" r="2.8284" ></circle>
<circle id="encuesta-14-jxcat" class="encuesta sociometrica jxcat" cx="358.836" cy="267.8788" r="2.8284" ></circle>
<circle id="encuesta-14-cec" class="encuesta sociometrica cec" cx="358.836" cy="236.3636" r="2.8284" ></circle>
<circle id="encuesta-14-psc" class="encuesta sociometrica psc" cx="358.836" cy="256.5657" r="2.8284" ></circle>
<circle id="encuesta-14-cs" class="encuesta sociometrica cs" cx="358.836" cy="185.4545" r="2.8284" ></circle>
<circle id="encuesta-14-pp" class="encuesta sociometrica pp" cx="358.836" cy="251.7172" r="2.8284" ></circle>
<circle id="encuesta-14-otros" class="encuesta sociometrica otros" cx="358.836" cy="301.8182" r="2.8284" ></circle>
</g>
<g id="encuesta-15">
<circle id="encuesta-15-cup" class="encuesta nc_report cup" cx="280.2822" cy="288.0808" r="3.5426" ></circle>
<circle id="encuesta-15-erc" class="encuesta nc_report erc" cx="280.2822" cy="130.5051" r="3.5426" ></circle>
<circle id="encuesta-15-jxcat" class="encuesta nc_report jxcat" cx="280.2822" cy="230.7071" r="3.5426" ></circle>
<circle id="encuesta-15-cec" class="encuesta nc_report cec" cx="280.2822" cy="239.596" r="3.5426" ></circle>
<circle id="encuesta-15-psc" class="encuesta nc_report psc" cx="280.2822" cy="222.6263" r="3.5426" ></circle>
<circle id="encuesta-15-cs" class="encuesta nc_report cs" cx="280.2822" cy="194.3434" r="3.5426" ></circle>
<circle id="encuesta-15-pp" class="encuesta nc_report pp" cx="280.2822" cy="246.0606" r="3.5426" ></circle>
<circle id="encuesta-15-otros" class="encuesta nc_report otros" cx="280.2822" cy="306.6667" r="3.5426" ></circle>
</g>
<g id="encuesta-16">
<circle id="encuesta-16-cup" class="encuesta celeste-tel cup" cx="247.9365" cy="285.6566" r="2.8284" ></circle>
<circle id="encuesta-16-erc" class="encuesta celeste-tel erc" cx="247.9365" cy="133.7374" r="2.8284" ></circle>
<circle id="encuesta-16-jxcat" class="encuesta celeste-tel jxcat" cx="247.9365" cy="223.4343" r="2.8284" ></circle>
<circle id="encuesta-16-cec" class="encuesta celeste-tel cec" cx="247.9365" cy="234.7475" r="2.8284" ></circle>
<circle id="encuesta-16-psc" class="encuesta celeste-tel psc" cx="247.9365" cy="213.7374" r="2.8284" ></circle>
<circle id="encuesta-16-cs" class="encuesta celeste-tel cs" cx="247.9365" cy="192.7273" r="2.8284" ></circle>
<circle id="encuesta-16-pp" class="encuesta celeste-tel pp" cx="247.9365" cy="257.3737" r="2.8284" ></circle>
<circle id="encuesta-16-otros" class="encuesta celeste-tel otros" cx="247.9365" cy="317.1717" r="2.8284" ></circle>
</g>
<g id="encuesta-17">
<circle id="encuesta-17-cup" class="encuesta sociometrica cup" cx="183.2451" cy="278.3838" r="2.6458" ></circle>
<circle id="encuesta-17-erc" class="encuesta sociometrica erc" cx="183.2451" cy="107.0707" r="2.6458" ></circle>
<circle id="encuesta-17-jxcat" class="encuesta sociometrica jxcat" cx="183.2451" cy="230.7071" r="2.6458" ></circle>
<circle id="encuesta-17-cec" class="encuesta sociometrica cec" cx="183.2451" cy="249.2929" r="2.6458" ></circle>
<circle id="encuesta-17-psc" class="encuesta sociometrica psc" cx="183.2451" cy="251.7172" r="2.6458" ></circle>
<circle id="encuesta-17-cs" class="encuesta sociometrica cs" cx="183.2451" cy="190.303" r="2.6458" ></circle>
<circle id="encuesta-17-pp" class="encuesta sociometrica pp" cx="183.2451" cy="248.4848" r="2.6458" ></circle>
<circle id="encuesta-17-otros" class="encuesta sociometrica otros" cx="183.2451" cy="302.6263" r="2.6458" ></circle>
</g>
<g id="encuesta-18">
<circle id="encuesta-18-cup" class="encuesta nc_report cup" cx="86.2081" cy="280.8081" r="3.5426" ></circle>
<circle id="encuesta-18-erc" class="encuesta nc_report erc" cx="86.2081" cy="140.202" r="3.5426" ></circle>
<circle id="encuesta-18-jxcat" class="encuesta nc_report jxcat" cx="86.2081" cy="221.0101" r="3.5426" ></circle>
<circle id="encuesta-18-cec" class="encuesta nc_report cec" cx="86.2081" cy="235.5556" r="3.5426" ></circle>
<circle id="encuesta-18-psc" class="encuesta nc_report psc" cx="86.2081" cy="221.0101" r="3.5426" ></circle>
<circle id="encuesta-18-cs" class="encuesta nc_report cs" cx="86.2081" cy="191.9192" r="3.5426" ></circle>
<circle id="encuesta-18-pp" class="encuesta nc_report pp" cx="86.2081" cy="256.5657" r="3.5426" ></circle>
<circle id="encuesta-18-otros" class="encuesta nc_report otros" cx="86.2081" cy="311.5152" r="3.5426" ></circle>
</g>

<text class="pie izquierda" x="0" y="390">Datos: Electograph | Modelo propio</text>
<text class="pie derecha" x="800" y="390">Jesús Carro | <tspan style="font-weight:bold">1datomas</tspan>.com</text>
</svg>
