<?xml version="1.0" encoding="utf-8"?><!DOCTYPE svg PUBLIC "-//W3C//DTD SVG 1.1//EN" "http://www.w3.org/Graphics/SVG/1.1/DTD/svg11.dtd">
<svg xmlns="http://www.w3.org/2000/svg" xmlns:xlink="http://www.w3.org/1999/xlink" version="1.1" viewBox="0 0 800 400">

<text x="0" y="20" style="font-size:large;font-weight:bold;color:black">Intención de voto en Elecciones Autonómicas en Cataluña</text>
<text x="0" y="40" style="color:gray">Promedio de encuestas y estimación de error</text>


<text class="horizontal axis" x="36" y="333.3333">0%</text>
<line class="horizontal axis" x1="40" y1="333.3333" x2="622.2222" y2="333.3333"></line>
<text class="horizontal axis" x="36" y="252.5253">10%</text>
<line class="horizontal axis" x1="40" y1="252.5253" x2="622.2222" y2="252.5253"></line>
<text class="horizontal axis" x="36" y="171.7172">20%</text>
<line class="horizontal axis" x1="40" y1="171.7172" x2="622.2222" y2="171.7172"></line>
<text class="horizontal axis" x="36" y="90.9091">30%</text>
<line class="horizontal axis" x1="40" y1="90.9091" x2="622.2222" y2="90.9091"></line>
<line class="vertical axis" x1="40" y1="336.6667" x2="40" y2="66.6667"></line>
<text class="vertical axis" x="40" y="343.3333">Ago-2017</text>
<line class="vertical axis" x1="175.7059" y1="336.6667" x2="175.7059" y2="66.6667"></line>
<text class="vertical axis" x="175.7059" y="343.3333">Sep-2017</text>
<line class="vertical axis" x1="307.0343" y1="336.6667" x2="307.0343" y2="66.6667"></line>
<text class="vertical axis" x="307.0343" y="343.3333">Oct-2017</text>
<line class="vertical axis" x1="442.7402" y1="336.6667" x2="442.7402" y2="66.6667"></line>
<text class="vertical axis" x="442.7402" y="343.3333">Nov-2017</text>
<line class="vertical axis" x1="574.0685" y1="336.6667" x2="574.0685" y2="66.6667"></line>
<text class="vertical axis" x="574.0685" y="343.3333">Dic-2017</text>
<polyline id="media-cup"  class="cup media" points=" 40,281.9055 44.3776,281.8635 48.7552,281.8191 53.1328,281.7723 57.5104,281.7236 61.8881,281.6746 66.2657,281.6283 70.6433,281.5885 75.0209,281.5601 79.3985,281.55 83.7761,281.5702 88.1537,281.6504 92.5313,281.7246 96.9089,281.7923 101.2865,281.8532 105.6642,281.907 110.0418,281.9535 114.4194,281.9924 118.797,282.0238 123.1746,282.0474 127.5522,282.063 131.9298,282.0704 136.3074,282.0692 140.685,282.0591 145.0627,282.0394 149.4403,282.0094 153.8179,281.9683 158.1955,281.9149 162.5731,281.8521 166.9507,281.7943 171.3283,281.771 175.7059,281.8353 180.0835,282.0942 184.4612,282.3363 188.8388,282.5637 193.2164,282.7781 197.594,282.9815 201.9716,283.1753 206.3492,283.3612 210.7268,283.5407 215.1044,283.715 219.482,283.8855 223.8596,284.0534 228.2373,284.2158 232.6149,284.3627 236.9925,284.4767 241.3701,284.5293 245.7477,284.6114 250.1253,284.722 254.5029,284.8545 258.8805,284.9881 263.2581,285.0836 267.6358,285.0745 272.0134,284.814 276.391,284.5818 280.7686,284.3743 285.1462,284.1882 289.5238,284.0207 293.9014,283.8693 298.279,283.7318 302.6566,283.6062 307.0343,283.491 311.4119,283.3846 315.7895,283.2857 320.1671,283.1932 324.5447,283.1063 328.9223,283.0251 333.2999,282.9502 337.6775,282.8826 342.0551,282.8229 346.4327,282.7719 350.8104,282.7124 355.188,282.6444 359.5656,282.5672 363.9432,282.4799 368.3208,282.3809 372.6984,282.2678 377.076,282.1521 381.4536,282.083 385.8312,282.164 390.2089,282.5998 394.5865,282.8775 398.9641,282.9555 403.3417,283.029 407.7193,283.0966 412.0969,283.162 416.4745,283.2366 420.8521,283.347 425.2297,283.4531 429.6074,283.546 433.985,283.6071 438.3626,283.6072 442.7402,283.4994 447.1178,283.4224 451.4954,283.3884 455.873,283.4298 460.2506,283.4699 464.6282,283.5098 469.0058,283.5501 473.3835,283.5913 477.7611,283.6339 482.1387,283.6784 486.5163,283.7253 490.8939,283.7751 495.2715,283.8287 499.6491,283.8829 504.0267,283.9232 508.4043,283.9213 512.782,283.8286 517.1596,283.768 521.5372,283.7481 525.9148,283.731 530.2924,283.7051 534.67,283.6231 539.0476,283.3564 543.4252,283.0692 547.8028,282.8116 552.1805,282.6196 556.5581,282.5555 560.9357,282.762 565.3133,282.903 569.6909,282.9887 574.0685,283.0117 578.4461,283.0069 582.8237,282.9641 587.2013,282.9281 591.5789,282.9109 595.9566,282.9195 600.3342,282.9114 604.7118,282.8332 609.0894,282.7945 613.467,282.7367 617.8446,282.6618 622.2222,282.6202"></polyline>
<polyline id="error-cup" class="cup error" points=" 40,259.1238 44.3776,259.5846 48.7552,260.2926 53.1328,261.0244 57.5104,261.7764 61.8881,262.5306 66.2657,263.2545 70.6433,263.9028 75.0209,264.4177 79.3985,264.7198 83.7761,264.6767 88.1537,263.9999 92.5313,263.4392 96.9089,262.9844 101.2865,262.6265 105.6642,262.3568 110.0418,262.1679 114.4194,262.0526 118.797,262.0049 123.1746,262.019 127.5522,262.0902 131.9298,262.2141 136.3074,262.3869 140.685,262.6056 145.0627,262.8675 149.4403,263.1706 153.8179,263.5132 158.1955,263.8945 162.5731,264.3064 166.9507,264.7224 171.3283,265.092 175.7059,265.3356 180.0835,265.3183 184.4612,265.3894 188.8388,265.5391 193.2164,265.7598 197.594,266.0456 201.9716,266.3923 206.3492,266.7966 210.7268,267.2567 215.1044,267.7718 219.482,268.3419 223.8596,268.9684 228.2373,269.6293 232.6149,270.245 236.9925,270.6635 241.3701,270.6049 245.7477,270.7147 250.1253,270.9795 254.5029,271.3714 258.8805,271.8137 263.2581,272.166 267.6358,272.1954 272.0134,271.4175 276.391,270.7858 280.7686,270.2807 285.1462,269.8862 289.5238,269.5888 293.9014,269.3775 298.279,269.2428 302.6566,269.1768 307.0343,269.1728 311.4119,269.2253 315.7895,269.3298 320.1671,269.4825 324.5447,269.6778 328.9223,269.9019 333.2999,270.1308 337.6775,270.3274 342.0551,270.4379 346.4327,270.3763 350.8104,270.3787 355.188,270.4363 359.5656,270.5415 363.9432,270.6881 368.3208,270.8705 372.6984,271.0838 377.076,271.3273 381.4536,271.6135 385.8312,271.9779 390.2089,272.5122 394.5865,272.866 398.9641,272.9184 403.3417,273.0591 407.7193,273.2707 412.0969,273.518 416.4745,273.7414 420.8521,273.8446 425.2297,274.0357 429.6074,274.2817 433.985,274.5305 438.3626,274.7004 442.7402,274.6534 447.1178,274.6472 451.4954,274.5916 455.873,274.3288 460.2506,274.1438 464.6282,274.0299 469.0058,273.9816 473.3835,273.9941 477.7611,274.0632 482.1387,274.1852 486.5163,274.3574 490.8939,274.5775 495.2715,274.8439 499.6491,275.1469 504.0267,275.4537 508.4043,275.6992 512.782,275.7699 517.1596,275.8876 521.5372,276.0094 525.9148,276.2034 530.2924,276.4291 534.67,276.5517 539.0476,276.2486 543.4252,276.012 547.8028,275.8846 552.1805,275.8439 556.5581,275.8695 560.9357,275.95 565.3133,276.0775 569.6909,276.2128 574.0685,276.2883 578.4461,276.3763 582.8237,276.418 587.2013,276.4983 591.5789,276.59 595.9566,276.6387 600.3342,276.5989 604.7118,276.2907 609.0894,275.985 613.467,275.6614 617.8446,275.288 622.2222,274.9164 622.2222,290.324 617.8446,290.0356 613.467,289.812 609.0894,289.6041 604.7118,289.3757 600.3342,289.224 595.9566,289.2003 591.5789,289.2319 587.2013,289.3578 582.8237,289.5103 578.4461,289.6374 574.0685,289.7352 569.6909,289.7646 565.3133,289.7284 560.9357,289.574 556.5581,289.2415 552.1805,289.3953 547.8028,289.7386 543.4252,290.1265 539.0476,290.4642 534.67,290.6945 530.2924,290.981 525.9148,291.2587 521.5372,291.4868 517.1596,291.6485 512.782,291.8873 508.4043,292.1434 504.0267,292.3928 499.6491,292.6189 495.2715,292.8135 490.8939,292.9727 486.5163,293.0931 482.1387,293.1716 477.7611,293.2047 473.3835,293.1885 469.0058,293.1186 464.6282,292.9897 460.2506,292.7961 455.873,292.5308 451.4954,292.1853 447.1178,292.1976 442.7402,292.3454 438.3626,292.5139 433.985,292.6837 429.6074,292.8103 425.2297,292.8705 420.8521,292.8493 416.4745,292.7319 412.0969,292.8061 407.7193,292.9226 403.3417,292.9989 398.9641,292.9927 394.5865,292.8889 390.2089,292.6874 385.8312,292.3501 381.4536,292.5524 377.076,292.9768 372.6984,293.4518 368.3208,293.8913 363.9432,294.2718 359.5656,294.5929 355.188,294.8525 350.8104,295.0461 346.4327,295.1676 342.0551,295.2079 337.6775,295.4377 333.2999,295.7696 328.9223,296.1482 324.5447,296.5348 320.1671,296.9038 315.7895,297.2416 311.4119,297.5439 307.0343,297.8092 302.6566,298.0356 298.279,298.2207 293.9014,298.361 289.5238,298.4526 285.1462,298.4903 280.7686,298.4679 276.391,298.3778 272.0134,298.2104 267.6358,297.9536 263.2581,298.0011 258.8805,298.1626 254.5029,298.3377 250.1253,298.4644 245.7477,298.5082 241.3701,298.4536 236.9925,298.29 232.6149,298.4804 228.2373,298.8023 223.8596,299.1383 219.482,299.4292 215.1044,299.6583 210.7268,299.8246 206.3492,299.9258 201.9716,299.9583 197.594,299.9173 193.2164,299.7965 188.8388,299.5883 184.4612,299.2832 180.0835,298.87 175.7059,298.335 171.3283,298.45 166.9507,298.8662 162.5731,299.3978 158.1955,299.9353 153.8179,300.4234 149.4403,300.8483 145.0627,301.2112 140.685,301.5125 136.3074,301.7515 131.9298,301.9267 127.5522,302.0358 123.1746,302.0758 118.797,302.0428 114.4194,301.9323 110.0418,301.739 105.6642,301.4571 101.2865,301.0799 96.9089,300.6002 92.5313,300.01 88.1537,299.3008 83.7761,298.4637 79.3985,298.3802 75.0209,298.7026 70.6433,299.2742 66.2657,300.002 61.8881,300.8186 57.5104,301.6709 53.1328,302.5203 48.7552,303.3456 44.3776,304.1423 40,304.6872"></polyline>
<text class = "party cup" x="631.1111" y="279"><tspan class="party_name">CUP</tspan><tspan class="party_result"> (6.3±1.0%)</tspan></text>
<polyline id="media-erc"  class="erc media" points=" 40,134.343 44.3776,134.475 48.7552,134.6225 53.1328,134.7871 57.5104,134.9672 61.8881,135.1538 66.2657,135.3299 70.6433,135.4713 75.0209,135.5458 79.3985,135.5062 83.7761,135.2656 88.1537,134.6125 92.5313,133.9629 96.9089,133.3192 101.2865,132.6824 105.6642,132.0532 110.0418,131.4314 114.4194,130.8161 118.797,130.2061 123.1746,129.5997 127.5522,128.9948 131.9298,128.3889 136.3074,127.7792 140.685,127.1623 145.0627,126.5347 149.4403,125.8921 153.8179,125.2299 158.1955,124.5427 162.5731,123.8451 166.9507,123.2043 171.3283,122.7535 175.7059,122.7198 180.0835,123.553 184.4612,124.2812 188.8388,124.9184 193.2164,125.4773 197.594,125.9695 201.9716,126.4055 206.3492,126.7946 210.7268,127.1457 215.1044,127.4669 219.482,127.7662 223.8596,128.0513 228.2373,128.3162 232.6149,128.5209 236.9925,128.5803 241.3701,128.3159 245.7477,128.0991 250.1253,127.9269 254.5029,127.7939 258.8805,127.6813 263.2581,127.5476 267.6358,127.312 272.0134,126.7809 276.391,126.2331 280.7686,125.6665 285.1462,125.0786 289.5238,124.4663 293.9014,123.8261 298.279,123.1542 302.6566,122.4461 307.0343,121.6964 311.4119,120.8993 315.7895,120.0476 320.1671,119.1327 324.5447,118.1641 328.9223,117.202 333.2999,116.3739 337.6775,115.8879 342.0551,116.0682 346.4327,117.4789 350.8104,118.6345 355.188,119.57 359.5656,120.314 363.9432,120.8892 368.3208,121.3143 372.6984,121.6038 377.076,121.786 381.4536,121.9342 385.8312,122.1905 390.2089,122.8235 394.5865,123.1109 398.9641,122.9261 403.3417,122.6787 407.7193,122.3633 412.0969,121.9857 416.4745,121.5551 420.8521,121.0644 425.2297,120.428 429.6074,119.7353 433.985,119.175 438.3626,119.0748 442.7402,120.0259 447.1178,120.8515 451.4954,121.9193 455.873,123.9911 460.2506,125.9589 464.6282,127.8182 469.0058,129.5658 473.3835,131.1996 477.7611,132.7188 482.1387,134.1231 486.5163,135.4132 490.8939,136.5901 495.2715,137.655 499.6491,138.6013 504.0267,139.4054 508.4043,140.0273 512.782,140.4068 517.1596,140.731 521.5372,140.9858 525.9148,141.1189 530.2924,141.2149 534.67,141.7477 539.0476,144.0216 543.4252,146.1081 547.8028,147.9361 552.1805,149.3658 556.5581,150.1544 560.9357,149.7353 565.3133,149.6233 569.6909,149.7107 574.0685,149.9189 578.4461,150.0642 582.8237,149.9811 587.2013,150.0056 591.5789,150.1638 595.9566,150.5181 600.3342,150.8533 604.7118,151.152 609.0894,151.4197 613.467,151.6382 617.8446,151.7368 622.2222,151.7208"></polyline>
<polyline id="error-erc" class="erc error" points=" 40,92.7639 44.3776,93.5748 48.7552,94.9982 53.1328,96.4887 57.5104,98.0386 61.8881,99.6056 66.2657,101.1113 70.6433,102.445 75.0209,103.4632 79.3985,103.9654 83.7761,103.6086 88.1537,101.6243 92.5313,99.8596 96.9089,98.298 101.2865,96.924 105.6642,95.723 110.0418,94.6813 114.4194,93.7859 118.797,93.0251 123.1746,92.3877 127.5522,91.8637 131.9298,91.4437 136.3074,91.1195 140.685,90.8834 145.0627,90.7288 149.4403,90.6495 153.8179,90.6405 158.1955,90.6972 162.5731,90.8163 166.9507,90.9942 171.3283,91.2236 175.7059,91.4973 180.0835,91.8384 184.4612,92.2584 188.8388,92.7503 193.2164,93.3103 197.594,93.9367 201.9716,94.6296 206.3492,95.3909 210.7268,96.224 215.1044,97.134 219.482,98.1276 223.8596,99.2139 228.2373,100.354 232.6149,101.3851 236.9925,101.9803 241.3701,101.5084 245.7477,101.3306 250.1253,101.4227 254.5029,101.7421 258.8805,102.1722 263.2581,102.4922 267.6358,102.3232 272.0134,100.8725 276.391,99.618 280.7686,98.5272 285.1462,97.5733 289.5238,96.7339 293.9014,95.9898 298.279,95.3241 302.6566,94.7217 307.0343,94.1687 311.4119,93.6523 315.7895,93.1598 320.1671,92.6789 324.5447,92.2105 328.9223,91.7915 333.2999,91.5068 337.6775,91.4983 342.0551,91.9945 346.4327,93.4086 350.8104,94.6969 355.188,95.8784 359.5656,96.9694 363.9432,97.9842 368.3208,98.935 372.6984,99.8324 377.076,100.683 381.4536,101.4902 385.8312,102.2658 390.2089,103.0587 394.5865,103.4715 398.9641,103.2317 403.3417,103.1009 407.7193,103.0438 412.0969,102.9951 416.4745,102.8314 420.8521,102.3147 425.2297,101.8225 429.6074,101.4021 433.985,101.183 438.3626,101.4001 442.7402,102.4821 447.1178,103.4541 451.4954,104.4946 455.873,106.0173 460.2506,107.5849 464.6282,109.1775 469.0058,110.7789 473.3835,112.3766 477.7611,113.9605 482.1387,115.5228 486.5163,117.0579 490.8939,118.5614 495.2715,120.0307 499.6491,121.4476 504.0267,122.7551 508.4043,123.8463 512.782,124.5412 517.1596,125.2063 521.5372,125.731 525.9148,126.263 530.2924,126.8355 534.67,127.7641 539.0476,130.0068 543.4252,132.2252 547.8028,134.3305 552.1805,136.0691 556.5581,137.0376 560.9357,136.367 565.3133,136.2214 569.6909,136.3985 574.0685,136.7064 578.4461,137.0284 582.8237,137.1056 587.2013,137.3517 591.5789,137.7177 595.9566,138.151 600.3342,138.4298 604.7118,138.3016 609.0894,138.0719 613.467,137.7977 617.8446,137.3437 622.2222,136.7155 622.2222,166.7262 617.8446,166.1299 613.467,165.4787 609.0894,164.7675 604.7118,164.0024 600.3342,163.2769 595.9566,162.8853 591.5789,162.6099 587.2013,162.6595 582.8237,162.8566 578.4461,163.1001 574.0685,163.1313 569.6909,163.0229 565.3133,163.0253 560.9357,163.1036 556.5581,163.2712 552.1805,162.6625 547.8028,161.5417 543.4252,159.9909 539.0476,158.0363 534.67,155.7313 530.2924,155.5944 525.9148,155.9749 521.5372,156.2406 517.1596,156.2556 512.782,156.2725 508.4043,156.2082 504.0267,156.0557 499.6491,155.7551 495.2715,155.2794 490.8939,154.6188 486.5163,153.7686 482.1387,152.7234 477.7611,151.4771 473.3835,150.0227 469.0058,148.3526 464.6282,146.4589 460.2506,144.3328 455.873,141.9648 451.4954,139.3439 447.1178,138.2489 442.7402,137.5697 438.3626,136.7495 433.985,137.1671 429.6074,138.0686 425.2297,139.0335 420.8521,139.814 416.4745,140.2789 412.0969,140.9763 407.7193,141.6827 403.3417,142.2566 398.9641,142.6205 394.5865,142.7503 390.2089,142.5883 385.8312,142.1151 381.4536,142.3782 377.076,142.8889 372.6984,143.3751 368.3208,143.6936 363.9432,143.7942 359.5656,143.6585 355.188,143.2617 350.8104,142.5721 346.4327,141.5491 342.0551,140.1419 337.6775,140.2775 333.2999,141.2411 328.9223,142.6124 324.5447,144.1178 320.1671,145.5866 315.7895,146.9353 311.4119,148.1463 307.0343,149.2241 302.6566,150.1704 298.279,150.9843 293.9014,151.6624 289.5238,152.1986 285.1462,152.5839 280.7686,152.8059 276.391,152.8482 272.0134,152.6892 267.6358,152.3007 263.2581,152.6031 258.8805,153.1905 254.5029,153.8458 250.1253,154.4312 245.7477,154.8677 241.3701,155.1235 236.9925,155.1804 232.6149,155.6567 228.2373,156.2783 223.8596,156.8887 219.482,157.4049 215.1044,157.7999 210.7268,158.0673 206.3492,158.1983 201.9716,158.1813 197.594,158.0024 193.2164,157.6443 188.8388,157.0864 184.4612,156.304 180.0835,155.2676 175.7059,153.9423 171.3283,154.2834 166.9507,155.4145 162.5731,156.8739 158.1955,158.3882 153.8179,159.8194 149.4403,161.1347 145.0627,162.3406 140.685,163.4412 136.3074,164.4388 131.9298,165.3341 127.5522,166.126 123.1746,166.8118 118.797,167.3872 114.4194,167.8463 110.0418,168.1815 105.6642,168.3834 101.2865,168.4408 96.9089,168.3403 92.5313,168.0663 88.1537,167.6007 83.7761,166.9225 79.3985,167.0469 75.0209,167.6284 70.6433,168.4976 66.2657,169.5485 61.8881,170.702 57.5104,171.8958 53.1328,173.0855 48.7552,174.2469 44.3776,175.3752 40,175.9221"></polyline>
<text class = "party erc" x="631.1111" y="143"><tspan class="party_name">ERC</tspan><tspan class="party_result"> (22.5±1.9%)</tspan></text>
<polyline id="media-jxcat"  class="jxcat media" points=" 40,219.1912 44.3776,219.33 48.7552,219.4685 53.1328,219.6064 57.5104,219.7424 61.8881,219.8737 66.2657,219.9964 70.6433,220.1065 75.0209,220.2 79.3985,220.2731 83.7761,220.3192 88.1537,220.3228 92.5313,220.3488 96.9089,220.3972 101.2865,220.4677 105.6642,220.5598 110.0418,220.6731 114.4194,220.807 118.797,220.961 123.1746,221.1347 127.5522,221.3276 131.9298,221.5395 136.3074,221.7703 140.685,222.0201 145.0627,222.2888 149.4403,222.577 153.8179,222.8852 158.1955,223.2141 162.5731,223.5558 166.9507,223.8804 171.3283,224.1312 175.7059,224.2152 180.0835,223.9534 184.4612,223.7534 188.8388,223.609 193.2164,223.5145 197.594,223.4646 201.9716,223.4546 206.3492,223.4801 210.7268,223.5367 215.1044,223.6205 219.482,223.7273 223.8596,223.8529 228.2373,223.9942 232.6149,224.154 236.9925,224.3503 241.3701,224.6394 245.7477,224.9683 250.1253,225.3361 254.5029,225.7319 258.8805,226.123 263.2581,226.4546 267.6358,226.6452 272.0134,226.5297 276.391,226.5041 280.7686,226.5629 285.1462,226.7018 289.5238,226.9173 293.9014,227.2071 298.279,227.5701 302.6566,228.0059 307.0343,228.5153 311.4119,229.1003 315.7895,229.7641 320.1671,230.5113 324.5447,231.3312 328.9223,232.1688 333.2999,232.91 337.6775,233.3719 342.0551,233.2716 346.4327,232.1216 350.8104,231.2192 355.188,230.5341 359.5656,230.0417 363.9432,229.7215 368.3208,229.5568 372.6984,229.5341 377.076,229.6297 381.4536,229.7899 385.8312,229.925 390.2089,229.8913 394.5865,229.9117 398.9641,229.9153 403.3417,230.1184 407.7193,230.4926 412.0969,230.8988 416.4745,231.0415 420.8521,230.357 425.2297,229.9892 429.6074,229.8616 433.985,229.8437 438.3626,229.7111 442.7402,229.0442 447.1178,228.3916 451.4954,227.2885 455.873,224.7412 460.2506,222.3165 464.6282,220.0233 469.0058,217.8681 473.3835,215.8555 477.7611,213.9884 482.1387,212.2681 486.5163,210.6947 490.8939,209.2675 495.2715,207.9853 499.6491,206.8542 504.0267,205.8957 508.4043,205.1486 512.782,204.6791 517.1596,204.3207 521.5372,204.136 525.9148,204.0433 530.2924,203.9668 534.67,203.4869 539.0476,201.4487 543.4252,199.532 547.8028,197.8992 552.1805,196.5084 556.5581,195.2549 560.9357,193.8935 565.3133,192.5635 569.6909,191.3746 574.0685,190.461 578.4461,189.667 582.8237,189.1048 587.2013,188.5521 591.5789,188.0048 595.9566,187.4106 600.3342,186.8848 604.7118,186.3669 609.0894,186.0673 613.467,185.8966 617.8446,185.9717 622.2222,186.1318"></polyline>
<polyline id="error-jxcat" class="jxcat error" points=" 40,180.6339 44.3776,181.3978 48.7552,182.7456 53.1328,184.1384 57.5104,185.5686 61.8881,187.0024 66.2657,188.3779 70.6433,189.6103 75.0209,190.5923 79.3985,191.1771 83.7761,191.1202 88.1537,189.8859 92.5313,188.8771 96.9089,188.0766 101.2865,187.4684 105.6642,187.0382 110.0418,186.7728 114.4194,186.6602 118.797,186.69 123.1746,186.8529 127.5522,187.1409 131.9298,187.5473 136.3074,188.0665 140.685,188.6945 145.0627,189.4283 149.4403,190.2664 153.8179,191.2086 158.1955,192.2564 162.5731,193.3842 166.9507,194.4934 171.3283,195.3931 175.7059,195.7662 180.0835,195.0245 184.4612,194.5187 188.8388,194.2234 193.2164,194.1173 197.594,194.1825 201.9716,194.4044 206.3492,194.7711 210.7268,195.2729 215.1044,195.9024 219.482,196.6541 223.8596,197.5244 228.2373,198.4793 232.6149,199.4078 236.9925,200.1061 241.3701,200.2154 245.7477,200.5937 250.1253,201.2198 254.5029,202.0479 258.8805,202.9539 263.2581,203.716 267.6358,203.9769 272.0134,203.0166 276.391,202.3452 280.7686,201.9295 285.1462,201.743 289.5238,201.7645 293.9014,201.9768 298.279,202.3668 302.6566,202.9243 307.0343,203.6419 311.4119,204.515 315.7895,205.5418 320.1671,206.723 324.5447,208.0393 328.9223,209.4116 333.2999,210.6814 337.6775,211.5981 342.0551,211.7802 346.4327,210.5826 350.8104,209.761 355.188,209.2695 359.5656,209.0714 363.9432,209.1371 368.3208,209.4435 372.6984,209.9722 377.076,210.6784 381.4536,211.442 385.8312,212.051 390.2089,212.1551 394.5865,212.2872 398.9641,212.2428 403.3417,212.5595 407.7193,213.1813 412.0969,213.9001 416.4745,214.293 420.8521,213.5741 425.2297,213.3352 429.6074,213.4589 433.985,213.7557 438.3626,213.9089 442.7402,213.3372 447.1178,212.7955 451.4954,211.6337 455.873,208.5099 460.2506,205.6455 464.6282,203.0371 469.0058,200.6812 473.3835,198.5738 477.7611,196.7101 482.1387,195.0852 486.5163,193.6938 490.8939,192.5305 495.2715,191.5904 499.6491,190.8691 504.0267,190.3574 508.4043,190.032 512.782,189.8472 517.1596,189.8004 521.5372,189.8642 525.9148,190.1443 530.2924,190.5144 534.67,190.3948 539.0476,188.2744 543.4252,186.4335 547.8028,185.0223 552.1805,183.8919 556.5581,182.785 560.9357,181.1688 565.3133,179.7895 569.6909,178.6695 574.0685,177.8372 578.4461,177.2007 582.8237,176.7859 587.2013,176.4388 591.5789,176.0828 595.9566,175.5538 600.3342,174.9642 604.7118,174.0259 609.0894,173.2404 613.467,172.59 617.8446,172.1319 622.2222,171.7037 622.2222,200.5599 617.8446,199.8114 613.467,199.2032 609.0894,198.8943 604.7118,198.7079 600.3342,198.8055 595.9566,199.2673 591.5789,199.9268 587.2013,200.6654 582.8237,201.4236 578.4461,202.1334 574.0685,203.0848 569.6909,204.0797 565.3133,205.3376 560.9357,206.6182 556.5581,207.7248 552.1805,209.1249 547.8028,210.7761 543.4252,212.6305 539.0476,214.6231 534.67,216.579 530.2924,217.4192 525.9148,217.9422 521.5372,218.4078 517.1596,218.8409 512.782,219.5111 508.4043,220.2652 504.0267,221.4339 499.6491,222.8393 495.2715,224.3803 490.8939,226.0046 486.5163,227.6956 482.1387,229.4509 477.7611,231.2667 473.3835,233.1373 469.0058,235.055 464.6282,237.0094 460.2506,238.9875 455.873,240.9725 451.4954,242.9433 447.1178,243.9877 442.7402,244.7513 438.3626,245.5132 433.985,245.9317 429.6074,246.2644 425.2297,246.6432 420.8521,247.1399 416.4745,247.79 412.0969,247.8975 407.7193,247.8039 403.3417,247.6772 398.9641,247.5879 394.5865,247.5362 390.2089,247.6275 385.8312,247.7991 381.4536,248.1378 377.076,248.5809 372.6984,249.096 368.3208,249.6702 363.9432,250.3058 359.5656,251.012 355.188,251.7988 350.8104,252.6773 346.4327,253.6605 342.0551,254.763 337.6775,255.1457 333.2999,255.1386 328.9223,254.926 324.5447,254.6232 320.1671,254.2996 315.7895,253.9865 311.4119,253.6856 307.0343,253.3887 302.6566,253.0875 298.279,252.7733 293.9014,252.4374 289.5238,252.0701 285.1462,251.6605 280.7686,251.1963 276.391,250.663 272.0134,250.0428 267.6358,249.3135 263.2581,249.1933 258.8805,249.2921 254.5029,249.4159 250.1253,249.4523 245.7477,249.343 241.3701,249.0634 236.9925,248.5946 232.6149,248.9002 228.2373,249.5092 223.8596,250.1815 219.482,250.8005 215.1044,251.3385 210.7268,251.8005 206.3492,252.189 201.9716,252.5048 197.594,252.7467 193.2164,252.9117 188.8388,252.9946 184.4612,252.9881 180.0835,252.8824 175.7059,252.6641 171.3283,252.8693 166.9507,253.2673 162.5731,253.7274 158.1955,254.1718 153.8179,254.5618 149.4403,254.8877 145.0627,255.1494 140.685,255.3456 136.3074,255.4741 131.9298,255.5318 127.5522,255.5142 123.1746,255.4164 118.797,255.232 114.4194,254.9538 110.0418,254.5734 105.6642,254.0814 101.2865,253.4669 96.9089,252.7178 92.5313,251.8205 88.1537,250.7597 83.7761,249.5183 79.3985,249.369 75.0209,249.8077 70.6433,250.6026 66.2657,251.6149 61.8881,252.745 57.5104,253.9161 53.1328,255.0743 48.7552,256.1913 44.3776,257.2621 40,257.7485"></polyline>
<text class = "party jxcat" x="631.1111" y="186"><tspan class="party_name">JxCAT</tspan><tspan class="party_result"> (18.2±1.8%)</tspan></text>
<polyline id="media-cec"  class="cec media" points=" 40,245.3627 44.3776,244.9873 48.7552,244.5926 53.1328,244.1777 57.5104,243.7464 61.8881,243.3139 66.2657,242.9066 70.6433,242.5595 75.0209,242.3164 79.3985,242.239 83.7761,242.4383 88.1537,243.1854 92.5313,243.8879 96.9089,244.5427 101.2865,245.1481 105.6642,245.7036 110.0418,246.2094 114.4194,246.6665 118.797,247.0764 123.1746,247.4408 127.5522,247.7618 131.9298,248.0414 136.3074,248.2819 140.685,248.4854 145.0627,248.6541 149.4403,248.7903 153.8179,248.8961 158.1955,248.9738 162.5731,249.0253 166.9507,249.0521 171.3283,249.0546 175.7059,249.0301 180.0835,248.9675 184.4612,248.8786 188.8388,248.7604 193.2164,248.6105 197.594,248.4263 201.9716,248.2055 206.3492,247.9456 210.7268,247.6438 215.1044,247.2969 219.482,246.9016 223.8596,246.4536 228.2373,245.9769 232.6149,245.5656 236.9925,245.4052 241.3701,245.8641 245.7477,246.1716 250.1253,246.3367 254.5029,246.3785 258.8805,246.3494 263.2581,246.3477 267.6358,246.5418 272.0134,247.299 276.391,247.9798 280.7686,248.5852 285.1462,249.1174 289.5238,249.5786 293.9014,249.9711 298.279,250.2971 302.6566,250.5583 307.0343,250.7561 311.4119,250.8915 315.7895,250.9645 320.1671,250.9747 324.5447,250.9274 328.9223,250.8459 333.2999,250.7796 337.6775,250.8092 342.0551,251.0617 346.4327,251.7587 350.8104,252.353 355.188,252.8543 359.5656,253.2712 363.9432,253.6106 368.3208,253.879 372.6984,254.0817 377.076,254.2202 381.4536,254.2868 385.8312,254.2587 390.2089,254.0782 394.5865,254.1016 398.9641,254.492 403.3417,254.7804 407.7193,254.9799 412.0969,255.1551 416.4745,255.4535 420.8521,256.1741 425.2297,256.7818 429.6074,257.2964 433.985,257.755 438.3626,258.2196 442.7402,258.7996 447.1178,259.3116 451.4954,259.7915 455.873,260.3313 460.2506,260.8982 464.6282,261.4791 469.0058,262.0638 473.3835,262.6448 477.7611,263.2165 482.1387,263.7745 486.5163,264.3161 490.8939,264.8393 495.2715,265.3432 499.6491,265.8217 504.0267,266.2557 508.4043,266.6151 512.782,266.8617 517.1596,267.1769 521.5372,267.6135 525.9148,268.101 530.2924,268.5885 534.67,268.8605 539.0476,268.3859 543.4252,268.0782 547.8028,267.8741 552.1805,267.7844 556.5581,267.8699 560.9357,268.3095 565.3133,268.6766 569.6909,268.9202 574.0685,268.9431 578.4461,269.0156 582.8237,269.177 587.2013,269.3539 591.5789,269.5642 595.9566,269.8444 600.3342,269.9056 604.7118,269.5767 609.0894,269.2202 613.467,268.9141 617.8446,268.6739 622.2222,268.5043"></polyline>
<polyline id="error-cec" class="cec error" points=" 40,217.3703 44.3776,217.5353 48.7552,218.0165 53.1328,218.5102 57.5104,219.0161 61.8881,219.5267 66.2657,220.0269 70.6433,220.4935 75.0209,220.8955 79.3985,221.1915 83.7761,221.3212 88.1537,221.1829 92.5313,221.1483 96.9089,221.2015 101.2865,221.329 105.6642,221.5198 110.0418,221.7647 114.4194,222.0563 118.797,222.3885 123.1746,222.7566 127.5522,223.1569 131.9298,223.5869 136.3074,224.0448 140.685,224.5296 145.0627,225.0415 149.4403,225.5812 153.8179,226.1505 158.1955,226.752 162.5731,227.3751 166.9507,227.9715 171.3283,228.4444 175.7059,228.6292 180.0835,228.2181 184.4612,227.906 188.8388,227.6758 193.2164,227.5135 197.594,227.4077 201.9716,227.3487 206.3492,227.3285 210.7268,227.3405 215.1044,227.3791 219.482,227.4399 223.8596,227.5192 228.2373,227.6194 232.6149,227.7543 236.9925,227.9525 241.3701,228.289 245.7477,228.6362 250.1253,228.9886 254.5029,229.3402 258.8805,229.6792 263.2581,229.9861 267.6358,230.2341 272.0134,230.4002 276.391,230.6319 280.7686,230.9099 285.1462,231.2199 289.5238,231.5509 293.9014,231.8944 298.279,232.2438 302.6566,232.5937 307.0343,232.9394 311.4119,233.2771 315.7895,233.6033 320.1671,233.9145 324.5447,234.2104 328.9223,234.499 333.2999,234.8013 337.6775,235.1549 342.0551,235.6248 346.4327,236.3346 350.8104,237.0265 355.188,237.6995 359.5656,238.3539 363.9432,238.9908 368.3208,239.6121 372.6984,240.2204 377.076,240.8024 381.4536,241.3034 385.8312,241.6137 390.2089,241.5278 394.5865,241.632 398.9641,241.999 403.3417,242.3741 407.7193,242.7509 412.0969,243.149 416.4745,243.6332 420.8521,244.3607 425.2297,245.0838 429.6074,245.7945 433.985,246.4907 438.3626,247.1738 442.7402,247.8475 447.1178,248.4621 451.4954,248.9302 455.873,249.1162 460.2506,249.4263 464.6282,249.8375 469.0058,250.3314 473.3835,250.8934 477.7611,251.5119 482.1387,252.1776 486.5163,252.8831 490.8939,253.623 495.2715,254.3936 499.6491,255.1808 504.0267,255.9438 508.4043,256.6088 512.782,257.0607 517.1596,257.5994 521.5372,258.2175 525.9148,258.97 530.2924,259.7711 534.67,260.2965 539.0476,259.7758 543.4252,259.5304 547.8028,259.4853 552.1805,259.5802 556.5581,259.7767 560.9357,260.0698 565.3133,260.4249 569.6909,260.7306 574.0685,260.8158 578.4461,261.0008 582.8237,261.2678 587.2013,261.5886 591.5789,261.9336 595.9566,262.2677 600.3342,262.2927 604.7118,261.6852 609.0894,261.0039 613.467,260.3763 617.8446,259.7778 622.2222,259.2134 622.2222,277.7953 617.8446,277.57 613.467,277.4519 609.0894,277.4365 604.7118,277.4682 600.3342,277.5185 595.9566,277.4211 591.5789,277.1947 587.2013,277.1193 582.8237,277.0862 578.4461,277.0304 574.0685,277.0704 569.6909,277.1098 565.3133,276.9282 560.9357,276.5493 556.5581,275.9631 552.1805,275.9887 547.8028,276.2629 543.4252,276.6259 539.0476,276.996 534.67,277.4245 530.2924,277.406 525.9148,277.2319 521.5372,277.0095 517.1596,276.7543 512.782,276.6627 508.4043,276.6214 504.0267,276.5676 499.6491,276.4625 495.2715,276.2927 490.8939,276.0555 486.5163,275.7491 482.1387,275.3715 477.7611,274.921 473.3835,274.3963 469.0058,273.7962 464.6282,273.1207 460.2506,272.3701 455.873,271.5464 451.4954,270.6529 447.1178,270.1611 442.7402,269.7517 438.3626,269.2654 433.985,269.0192 429.6074,268.7983 425.2297,268.4798 420.8521,267.9875 416.4745,267.2738 412.0969,267.1613 407.7193,267.2089 403.3417,267.1868 398.9641,266.985 394.5865,266.5712 390.2089,266.6285 385.8312,266.9038 381.4536,267.2702 377.076,267.6381 372.6984,267.943 368.3208,268.1459 363.9432,268.2305 359.5656,268.1884 355.188,268.0092 350.8104,267.6795 346.4327,267.1829 342.0551,266.4987 337.6775,266.4634 333.2999,266.7579 328.9223,267.1928 324.5447,267.6443 320.1671,268.035 315.7895,268.3258 311.4119,268.5059 307.0343,268.5729 302.6566,268.5229 298.279,268.3503 293.9014,268.0478 289.5238,267.6063 285.1462,267.0149 280.7686,266.2605 276.391,265.3276 272.0134,264.1979 267.6358,262.8494 263.2581,262.7094 258.8805,263.0195 254.5029,263.4168 250.1253,263.6849 245.7477,263.707 241.3701,263.4391 236.9925,262.8579 232.6149,263.3768 228.2373,264.3345 223.8596,265.388 219.482,266.3632 215.1044,267.2147 210.7268,267.947 206.3492,268.5627 201.9716,269.0624 197.594,269.4449 193.2164,269.7074 188.8388,269.845 184.4612,269.8511 180.0835,269.7169 175.7059,269.431 171.3283,269.6647 166.9507,270.1327 162.5731,270.6755 158.1955,271.1955 153.8179,271.6417 149.4403,271.9994 145.0627,272.2667 140.685,272.4412 136.3074,272.519 131.9298,272.496 127.5522,272.3667 123.1746,272.1251 118.797,271.7643 114.4194,271.2767 110.0418,270.6541 105.6642,269.8874 101.2865,268.9673 96.9089,267.884 92.5313,266.6275 88.1537,265.1879 83.7761,263.5554 79.3985,263.2864 75.0209,263.7374 70.6433,264.6255 66.2657,265.7863 61.8881,267.1011 57.5104,268.4767 53.1328,269.8452 48.7552,271.1688 44.3776,272.4393 40,273.3551"></polyline>
<text class = "party cec" x="631.1111" y="258"><tspan class="party_name">CeC</tspan><tspan class="party_result"> (8.0±1.1%)</tspan></text>
<polyline id="media-psc"  class="psc media" points=" 40,222.0395 44.3776,222.0647 48.7552,222.0859 53.1328,222.1023 57.5104,222.1137 61.8881,222.1216 66.2657,222.1296 70.6433,222.1439 75.0209,222.1733 79.3985,222.2323 83.7761,222.3481 88.1537,222.5871 92.5313,222.8417 96.9089,223.112 101.2865,223.3981 105.6642,223.7007 110.0418,224.0205 114.4194,224.3586 118.797,224.7165 123.1746,225.0958 127.5522,225.4986 131.9298,225.9275 136.3074,226.3855 140.685,226.8761 145.0627,227.4034 149.4403,227.9724 153.8179,228.5889 158.1955,229.2596 162.5731,229.9657 166.9507,230.619 171.3283,231.0413 175.7059,230.9242 180.0835,229.6526 184.4612,228.5122 188.8388,227.4878 193.2164,226.5655 197.594,225.7326 201.9716,224.9774 206.3492,224.2894 210.7268,223.6586 215.1044,223.0758 219.482,222.5321 223.8596,222.0189 228.2373,221.5474 232.6149,221.176 236.9925,221.0249 241.3701,221.3425 245.7477,221.6067 250.1253,221.8301 254.5029,222.0209 258.8805,222.1835 263.2581,222.3212 267.6358,222.44 272.0134,222.5528 276.391,222.6878 280.7686,222.8455 285.1462,223.0269 289.5238,223.2336 293.9014,223.4677 298.279,223.7318 302.6566,224.0289 307.0343,224.3628 311.4119,224.7378 315.7895,225.1593 320.1671,225.6334 324.5447,226.1539 328.9223,226.6769 333.2999,227.1078 337.6775,227.2906 342.0551,226.9784 346.4327,225.7385 350.8104,224.6736 355.188,223.7593 359.5656,222.9755 363.9432,222.3056 368.3208,221.7357 372.6984,221.2544 377.076,220.8556 381.4536,220.5417 385.8312,220.3215 390.2089,220.2172 394.5865,219.9892 398.9641,219.5284 403.3417,219.0986 407.7193,218.7113 412.0969,218.409 416.4745,218.2783 420.8521,218.4896 425.2297,218.6954 429.6074,218.8739 433.985,218.9558 438.3626,218.8133 442.7402,218.2152 447.1178,217.7059 451.4954,217.2228 455.873,216.6344 460.2506,216.0347 464.6282,215.4324 469.0058,214.8339 473.3835,214.244 477.7611,213.666 482.1387,213.1022 486.5163,212.5541 490.8939,212.0226 495.2715,211.5078 499.6491,211.0091 504.0267,210.5212 508.4043,210.0459 512.782,209.6158 517.1596,209.4053 521.5372,209.6744 525.9148,209.8531 530.2924,209.9483 534.67,209.9107 539.0476,209.5707 543.4252,209.1815 547.8028,208.8088 552.1805,208.5024 556.5581,208.3419 560.9357,208.4978 565.3133,208.5339 569.6909,208.482 574.0685,208.402 578.4461,208.4784 582.8237,208.9542 587.2013,209.2755 591.5789,209.4155 595.9566,209.3257 600.3342,209.3685 604.7118,209.7245 609.0894,210.0223 613.467,210.248 617.8446,210.3689 622.2222,210.4567"></polyline>
<polyline id="error-psc" class="psc error" points=" 40,188.6901 44.3776,189.3134 48.7552,190.3825 53.1328,191.4862 57.5104,192.6186 61.8881,193.7545 66.2657,194.8473 70.6433,195.8335 75.0209,196.6325 79.3985,197.1357 83.7761,197.1645 88.1537,196.3372 92.5313,195.7017 96.9089,195.2432 101.2865,194.9485 105.6642,194.806 110.0418,194.8055 114.4194,194.9384 118.797,195.1972 123.1746,195.5763 127.5522,196.0709 131.9298,196.6783 136.3074,197.3966 140.685,198.226 145.0627,199.1679 149.4403,200.2256 153.8179,201.4044 158.1955,202.7119 162.5731,204.113 166.9507,205.458 171.3283,206.448 175.7059,206.5738 180.0835,204.8503 184.4612,203.4109 188.8388,202.2239 193.2164,201.2617 197.594,200.5008 201.9716,199.921 206.3492,199.5048 210.7268,199.2377 215.1044,199.1075 219.482,199.1039 223.8596,199.2187 228.2373,199.4368 232.6149,199.7192 236.9925,199.9957 241.3701,200.1585 245.7477,200.4648 250.1253,200.9102 254.5029,201.4729 258.8805,202.0785 263.2581,202.5868 267.6358,202.7654 272.0134,202.1483 276.391,201.7254 280.7686,201.4728 285.1462,201.3724 289.5238,201.4104 293.9014,201.5763 298.279,201.8621 302.6566,202.2624 307.0343,202.7739 311.4119,203.3955 315.7895,204.128 320.1671,204.9745 324.5447,205.9213 328.9223,206.9037 333.2999,207.7887 337.6775,208.3613 342.0551,208.2893 346.4327,207.0027 350.8104,206.0016 355.188,205.2483 359.5656,204.7126 363.9432,204.37 368.3208,204.201 372.6984,204.1902 377.076,204.3136 381.4536,204.5167 385.8312,204.7032 390.2089,204.718 394.5865,204.5821 398.9641,204.0688 403.3417,203.7248 407.7193,203.5381 412.0969,203.4952 416.4745,203.5787 420.8521,203.7782 425.2297,204.109 429.6074,204.5142 433.985,204.8742 438.3626,204.9819 442.7402,204.4678 447.1178,204.0578 451.4954,203.5343 455.873,202.4775 460.2506,201.5273 464.6282,200.6811 469.0058,199.9358 473.3835,199.2884 477.7611,198.7354 482.1387,198.2736 486.5163,197.8995 490.8939,197.61 495.2715,197.4021 499.6491,197.2661 504.0267,197.1697 508.4043,197.0608 512.782,196.8755 517.1596,196.9352 521.5372,197.4257 525.9148,197.9298 530.2924,198.4121 534.67,198.6902 539.0476,198.3006 543.4252,197.9949 547.8028,197.8266 552.1805,197.7552 556.5581,197.7324 560.9357,197.689 565.3133,197.6992 569.6909,197.7189 574.0685,197.7173 578.4461,197.9376 582.8237,198.5519 587.2013,199.0582 591.5789,199.3681 595.9566,199.3385 600.3342,199.3333 604.7118,199.3444 609.0894,199.2392 613.467,199.0648 617.8446,198.736 622.2222,198.3258 622.2222,222.5876 617.8446,222.0017 613.467,221.4312 609.0894,220.8055 604.7118,220.1046 600.3342,219.4036 595.9566,219.3129 591.5789,219.4628 587.2013,219.4928 582.8237,219.3566 578.4461,219.0191 574.0685,219.0866 569.6909,219.245 565.3133,219.3687 560.9357,219.3066 556.5581,218.9514 552.1805,219.2497 547.8028,219.7911 543.4252,220.3681 539.0476,220.8408 534.67,221.1311 530.2924,221.4846 525.9148,221.7764 521.5372,221.9231 517.1596,221.8754 512.782,222.3562 508.4043,223.0311 504.0267,223.8727 499.6491,224.7522 495.2715,225.6135 490.8939,226.4353 486.5163,227.2088 482.1387,227.9308 477.7611,228.5966 473.3835,229.1997 469.0058,229.7321 464.6282,230.1837 460.2506,230.542 455.873,230.7912 451.4954,230.9113 447.1178,231.354 442.7402,231.9627 438.3626,232.6448 433.985,233.0375 429.6074,233.2336 425.2297,233.2817 420.8521,233.2009 416.4745,232.978 412.0969,233.3227 407.7193,233.8844 403.3417,234.4724 398.9641,234.9879 394.5865,235.3962 390.2089,235.7164 385.8312,235.9398 381.4536,236.5668 377.076,237.3977 372.6984,238.3186 368.3208,239.2705 363.9432,240.2411 359.5656,241.2383 355.188,242.2702 350.8104,243.3457 346.4327,244.4744 342.0551,245.6675 337.6775,246.2198 333.2999,246.427 328.9223,246.45 324.5447,246.3864 320.1671,246.2922 315.7895,246.1905 311.4119,246.0802 307.0343,245.9517 302.6566,245.7955 298.279,245.6015 293.9014,245.3591 289.5238,245.0567 285.1462,244.6814 280.7686,244.2183 276.391,243.6503 272.0134,242.9572 267.6358,242.1146 263.2581,242.0556 258.8805,242.2884 254.5029,242.569 250.1253,242.75 245.7477,242.7486 241.3701,242.5265 236.9925,242.0541 232.6149,242.6327 228.2373,243.658 223.8596,244.8192 219.482,245.9603 215.1044,247.044 210.7268,248.0794 206.3492,249.0739 201.9716,250.0339 197.594,250.9644 193.2164,251.8693 188.8388,252.7517 184.4612,253.6135 180.0835,254.4549 175.7059,255.2746 171.3283,255.6346 166.9507,255.7801 162.5731,255.8185 158.1955,255.8074 153.8179,255.7733 149.4403,255.7192 145.0627,255.639 140.685,255.5262 136.3074,255.3744 131.9298,255.1768 127.5522,254.9263 123.1746,254.6152 118.797,254.2357 114.4194,253.7789 110.0418,253.2354 105.6642,252.5953 101.2865,251.8477 96.9089,250.9807 92.5313,249.9817 88.1537,248.837 83.7761,247.5317 79.3985,247.329 75.0209,247.7141 70.6433,248.4543 66.2657,249.412 61.8881,250.4887 57.5104,251.6087 53.1328,252.7184 48.7552,253.7892 44.3776,254.8161 40,255.3889"></polyline>
<text class = "party psc" x="631.1111" y="210"><tspan class="party_name">PSC</tspan><tspan class="party_result"> (15.2±1.5%)</tspan></text>
<polyline id="media-cs"  class="cs media" points=" 40,183.3364 44.3776,183.6904 48.7552,184.0605 53.1328,184.4473 57.5104,184.8471 61.8881,185.2467 66.2657,185.6234 70.6433,185.9472 75.0209,186.1818 79.3985,186.2762 83.7761,186.1394 88.1537,185.5492 92.5313,185.006 96.9089,184.5127 101.2865,184.0709 105.6642,183.6814 110.0418,183.3439 114.4194,183.0581 118.797,182.8231 123.1746,182.6379 127.5522,182.5012 131.9298,182.4122 136.3074,182.3697 140.685,182.3729 145.0627,182.4212 149.4403,182.5143 153.8179,182.652 158.1955,182.8344 162.5731,183.0532 166.9507,183.2765 171.3283,183.4433 175.7059,183.4514 180.0835,183.1044 184.4612,182.8316 188.8388,182.6306 193.2164,182.499 197.594,182.4349 201.9716,182.4369 206.3492,182.504 210.7268,182.6356 215.1044,182.832 219.482,183.0939 223.8596,183.4224 228.2373,183.7969 232.6149,184.1408 236.9925,184.3068 241.3701,184.0102 245.7477,183.8669 250.1253,183.8736 254.5029,184.0104 258.8805,184.2062 263.2581,184.3239 267.6358,184.1261 272.0134,183.0875 276.391,182.1529 280.7686,181.3175 285.1462,180.5762 289.5238,179.9237 293.9014,179.3555 298.279,178.8672 302.6566,178.4548 307.0343,178.115 311.4119,177.845 315.7895,177.6426 320.1671,177.5062 324.5447,177.4311 328.9223,177.4027 333.2999,177.3916 337.6775,177.3508 342.0551,177.208 346.4327,176.8404 350.8104,176.5583 355.188,176.3594 359.5656,176.2425 363.9432,176.2074 368.3208,176.2552 372.6984,176.3886 377.076,176.581 381.4536,176.7249 385.8312,176.6001 390.2089,175.7847 394.5865,175.0843 398.9641,174.3963 403.3417,173.812 407.7193,173.3311 412.0969,172.94 416.4745,172.6001 420.8521,172.2291 425.2297,171.9335 429.6074,171.6864 433.985,171.4168 438.3626,170.9975 442.7402,170.2012 447.1178,169.5154 451.4954,168.8772 455.873,168.1422 460.2506,167.3876 464.6282,166.6272 469.0058,165.8714 473.3835,165.1279 477.7611,164.4026 482.1387,163.6998 486.5163,163.0223 490.8939,162.3717 495.2715,161.7488 499.6491,161.1612 504.0267,160.6339 508.4043,160.1908 512.782,159.8189 517.1596,159.1366 521.5372,157.8159 525.9148,156.4192 530.2924,155.0449 534.67,154.1965 539.0476,155.1255 543.4252,155.5729 547.8028,155.7848 552.1805,155.8994 556.5581,156.0705 560.9357,156.5532 565.3133,156.8973 569.6909,157.0699 574.0685,156.9468 578.4461,156.6359 582.8237,155.9456 587.2013,155.3298 591.5789,154.8287 595.9566,154.5201 600.3342,154.3988 604.7118,154.7039 609.0894,154.8237 613.467,154.8786 617.8446,154.8777 622.2222,154.9344"></polyline>
<polyline id="error-cs" class="cs error" points=" 40,147.7574 44.3776,148.7527 48.7552,150.2368 53.1328,151.78 57.5104,153.3729 61.8881,154.9731 66.2657,156.5045 70.6433,157.8625 75.0209,158.9149 79.3985,159.4788 83.7761,159.2422 88.1537,157.5009 92.5313,155.9928 96.9089,154.7052 101.2865,153.6257 105.6642,152.7424 110.0418,152.0435 114.4194,151.5184 118.797,151.1571 123.1746,150.9504 127.5522,150.8903 131.9298,150.9698 136.3074,151.1832 140.685,151.5257 145.0627,151.9938 149.4403,152.5857 153.8179,153.3004 158.1955,154.139 162.5731,155.0765 166.9507,156.0185 171.3283,156.7798 175.7059,157.0521 180.0835,156.2616 184.4612,155.7061 188.8388,155.3653 193.2164,155.2225 197.594,155.2644 201.9716,155.4806 206.3492,155.8632 210.7268,156.407 215.1044,157.1092 219.482,157.9692 223.8596,158.9891 228.2373,160.1191 232.6149,161.176 236.9925,161.8037 241.3701,161.3262 245.7477,161.2159 250.1253,161.4514 254.5029,161.98 258.8805,162.6458 263.2581,163.1555 267.6358,163.0133 272.0134,161.1725 276.391,159.6193 280.7686,158.3233 285.1462,157.2591 289.5238,156.4052 293.9014,155.7434 298.279,155.2582 302.6566,154.9367 307.0343,154.7679 311.4119,154.7431 315.7895,154.8552 320.1671,155.0992 324.5447,155.4628 328.9223,155.9102 333.2999,156.3732 337.6775,156.7451 342.0551,156.8671 346.4327,156.4789 350.8104,156.2912 355.188,156.2879 359.5656,156.4572 363.9432,156.791 368.3208,157.2847 372.6984,157.9375 377.076,158.7029 381.4536,159.4109 385.8312,159.7249 390.2089,159.0256 394.5865,158.4177 398.9641,157.673 403.3417,157.1812 407.7193,156.9167 412.0969,156.8045 416.4745,156.6919 420.8521,156.2976 425.2297,156.1269 429.6074,156.1153 433.985,156.1387 438.3626,155.9855 442.7402,155.2808 447.1178,154.7029 451.4954,154.0223 455.873,152.7853 460.2506,151.6558 464.6282,150.6351 469.0058,149.7234 473.3835,148.9201 477.7611,148.2238 482.1387,147.6325 486.5163,147.1438 490.8939,146.7553 495.2715,146.4642 499.6491,146.2685 504.0267,146.1648 508.4043,146.1191 512.782,146.014 517.1596,145.6177 521.5372,144.5142 525.9148,143.4485 530.2924,142.4748 534.67,141.9593 539.0476,142.8507 543.4252,143.3999 547.8028,143.8413 552.1805,144.2159 556.5581,144.5402 560.9357,144.8104 565.3133,145.1296 569.6909,145.3823 574.0685,145.3437 578.4461,145.1836 582.8237,144.628 587.2013,144.2009 591.5789,143.8765 595.9566,143.6313 600.3342,143.4562 604.7118,143.3852 609.0894,143.065 613.467,142.6835 617.8446,142.1938 622.2222,141.7108 622.2222,168.1581 617.8446,167.5616 613.467,167.0737 609.0894,166.5825 604.7118,166.0227 600.3342,165.3414 595.9566,165.4089 591.5789,165.781 587.2013,166.4588 582.8237,167.2632 578.4461,168.0881 574.0685,168.5498 569.6909,168.7575 565.3133,168.6649 560.9357,168.2959 556.5581,167.6008 552.1805,167.5828 547.8028,167.7284 543.4252,167.7458 539.0476,167.4002 534.67,166.4338 530.2924,167.615 525.9148,169.3898 521.5372,171.1176 517.1596,172.6555 512.782,173.6238 508.4043,174.2624 504.0267,175.103 499.6491,176.0539 495.2715,177.0335 490.8939,177.9882 486.5163,178.9008 482.1387,179.7671 477.7611,180.5815 473.3835,181.3356 469.0058,182.0193 464.6282,182.6193 460.2506,183.1194 455.873,183.499 451.4954,183.7321 447.1178,184.328 442.7402,185.1216 438.3626,186.0096 433.985,186.6949 429.6074,187.2574 425.2297,187.7402 420.8521,188.1606 416.4745,188.5083 412.0969,189.0754 407.7193,189.7455 403.3417,190.4428 398.9641,191.1197 394.5865,191.7509 390.2089,192.5438 385.8312,193.4753 381.4536,194.039 377.076,194.4591 372.6984,194.8398 368.3208,195.2257 363.9432,195.6239 359.5656,196.0279 355.188,196.431 350.8104,196.8254 346.4327,197.2018 342.0551,197.5488 337.6775,197.9564 333.2999,198.4099 328.9223,198.8951 324.5447,199.3994 320.1671,199.9131 315.7895,200.43 311.4119,200.947 307.0343,201.4621 302.6566,201.9729 298.279,202.4761 293.9014,202.9676 289.5238,203.4422 285.1462,203.8932 280.7686,204.3118 276.391,204.6866 272.0134,205.0025 267.6358,205.2389 263.2581,205.4924 258.8805,205.7667 254.5029,206.0407 250.1253,206.2959 245.7477,206.5178 241.3701,206.6942 236.9925,206.81 232.6149,207.1056 228.2373,207.4747 223.8596,207.8558 219.482,208.2185 215.1044,208.5549 210.7268,208.8642 206.3492,209.1447 201.9716,209.3933 197.594,209.6055 193.2164,209.7755 188.8388,209.8959 184.4612,209.9571 180.0835,209.9471 175.7059,209.8507 171.3283,210.1068 166.9507,210.5346 162.5731,211.0299 158.1955,211.5299 153.8179,212.0035 149.4403,212.4429 145.0627,212.8486 140.685,213.2201 136.3074,213.5561 131.9298,213.8545 127.5522,214.1122 123.1746,214.3253 118.797,214.4892 114.4194,214.5978 110.0418,214.6443 105.6642,214.6203 101.2865,214.5161 96.9089,214.3203 92.5313,214.0193 88.1537,213.5975 83.7761,213.0365 79.3985,213.0736 75.0209,213.4487 70.6433,214.0319 66.2657,214.7423 61.8881,215.5204 57.5104,216.3214 53.1328,217.1145 48.7552,217.8841 44.3776,218.6282 40,218.9154"></polyline>
<text class = "party cs" x="631.1111" y="164"><tspan class="party_name">C's</tspan><tspan class="party_result"> (22.1±1.6%)</tspan></text>
<polyline id="media-pp"  class="pp media" points=" 40,260.9828 44.3776,260.7683 48.7552,260.547 53.1328,260.319 57.5104,260.0863 61.8881,259.8558 66.2657,259.6388 70.6433,259.4494 75.0209,259.3043 79.3985,259.2262 83.7761,259.2548 88.1537,259.4872 92.5313,259.6876 96.9089,259.8545 101.2865,259.9872 105.6642,260.0854 110.0418,260.149 114.4194,260.1783 118.797,260.1735 123.1746,260.1349 127.5522,260.0626 131.9298,259.9568 136.3074,259.8174 140.685,259.6441 145.0627,259.4362 149.4403,259.1929 153.8179,258.913 158.1955,258.5948 162.5731,258.2485 166.9507,257.9148 171.3283,257.6741 175.7059,257.6613 180.0835,258.1403 184.4612,258.5387 188.8388,258.8622 193.2164,259.1162 197.594,259.3054 201.9716,259.4342 206.3492,259.5062 210.7268,259.5247 215.1044,259.4926 219.482,259.4125 223.8596,259.2869 228.2373,259.1229 232.6149,258.9368 236.9925,258.7508 241.3701,258.5899 245.7477,258.337 250.1253,257.9873 254.5029,257.5563 258.8805,257.1149 263.2581,256.8013 267.6358,256.8531 272.0134,257.7991 276.391,258.6321 280.7686,259.3618 285.1462,259.9965 289.5238,260.5436 293.9014,261.0095 298.279,261.3996 302.6566,261.7185 307.0343,261.97 311.4119,262.157 315.7895,262.2817 320.1671,262.3455 324.5447,262.3539 328.9223,262.3255 333.2999,262.2977 337.6775,262.3314 342.0551,262.5212 346.4327,263.0302 350.8104,263.4564 355.188,263.8068 359.5656,264.0879 363.9432,264.3054 368.3208,264.4646 372.6984,264.5703 377.076,264.6228 381.4536,264.6092 385.8312,264.4947 390.2089,264.194 394.5865,264.1608 398.9641,264.5942 403.3417,264.9301 407.7193,265.176 412.0969,265.3506 416.4745,265.4929 420.8521,265.6748 425.2297,265.7759 429.6074,265.8058 433.985,265.7895 438.3626,265.7808 442.7402,265.8957 447.1178,266.0519 451.4954,266.4513 455.873,267.5312 460.2506,268.5702 464.6282,269.5634 469.0058,270.5075 473.3835,271.3999 477.7611,272.239 482.1387,273.0239 486.5163,273.7541 490.8939,274.4295 495.2715,275.0503 499.6491,275.6223 504.0267,276.1708 508.4043,276.7459 512.782,277.4319 517.1596,278.0142 521.5372,278.4257 525.9148,278.936 530.2924,279.5162 534.67,280.044 539.0476,280.2602 543.4252,280.7886 547.8028,281.3418 552.1805,281.8337 556.5581,282.1719 560.9357,282.1961 565.3133,282.3292 569.6909,282.5204 574.0685,282.7304 578.4461,282.9379 582.8237,283.0989 587.2013,283.2625 591.5789,283.4117 595.9566,283.5435 600.3342,283.6646 604.7118,283.8155 609.0894,283.9254 613.467,284.0267 617.8446,284.0929 622.2222,284.0791"></polyline>
<polyline id="error-pp" class="pp error" points=" 40,234.034 44.3776,234.3492 48.7552,234.9861 53.1328,235.6479 57.5104,236.3322 61.8881,237.0238 66.2657,237.693 70.6433,238.2969 75.0209,238.7792 79.3985,239.062 83.7761,239.0169 88.1537,238.3735 92.5313,237.8405 96.9089,237.4045 101.2865,237.0539 105.6642,236.7786 110.0418,236.5697 114.4194,236.4193 118.797,236.3206 123.1746,236.2675 127.5522,236.255 131.9298,236.2783 136.3074,236.3337 140.685,236.4178 145.0627,236.5278 149.4403,236.6615 153.8179,236.8171 158.1955,236.9934 162.5731,237.1884 166.9507,237.3965 171.3283,237.6057 175.7059,237.7982 180.0835,237.9592 184.4612,238.1602 188.8388,238.3931 193.2164,238.6523 197.594,238.9337 201.9716,239.2348 206.3492,239.5539 210.7268,239.8907 215.1044,240.2458 219.482,240.621 223.8596,241.0193 228.2373,241.4262 232.6149,241.7774 236.9925,241.9378 241.3701,241.6364 245.7477,241.4019 250.1253,241.2154 254.5029,241.0686 258.8805,240.9704 263.2581,240.9461 267.6358,241.0462 272.0134,241.4254 276.391,241.8291 280.7686,242.2467 285.1462,242.6711 289.5238,243.0966 293.9014,243.5193 298.279,243.9362 302.6566,244.3447 307.0343,244.7431 311.4119,245.1297 315.7895,245.5031 320.1671,245.862 324.5447,246.2062 328.9223,246.5392 333.2999,246.8709 337.6775,247.2198 342.0551,247.6194 346.4327,248.1369 350.8104,248.6541 355.188,249.1678 359.5656,249.6766 363.9432,250.1802 368.3208,250.6796 372.6984,251.177 377.076,251.658 381.4536,252.0642 385.8312,252.2755 390.2089,252.0626 394.5865,252.1062 398.9641,252.5193 403.3417,252.9419 407.7193,253.3621 412.0969,253.7538 416.4745,254.0727 420.8521,254.2472 425.2297,254.447 429.6074,254.6548 433.985,254.8573 438.3626,255.049 442.7402,255.2433 447.1178,255.4907 451.4954,255.8771 455.873,256.6286 460.2506,257.4327 464.6282,258.2748 469.0058,259.1433 473.3835,260.0289 477.7611,260.924 482.1387,261.8225 486.5163,262.7197 490.8939,263.6121 495.2715,264.4968 499.6491,265.3726 504.0267,266.2447 508.4043,267.1232 512.782,268.0216 517.1596,268.8287 521.5372,269.4162 525.9148,270.1845 530.2924,271.0713 534.67,271.8511 539.0476,272.0401 543.4252,272.65 547.8028,273.3751 552.1805,274.0587 556.5581,274.5099 560.9357,274.3851 565.3133,274.502 569.6909,274.7521 574.0685,275.0268 578.4461,275.3456 582.8237,275.6081 587.2013,275.9094 591.5789,276.1865 595.9566,276.3671 600.3342,276.4554 604.7118,276.3516 609.0894,276.1629 613.467,275.9679 617.8446,275.7005 622.2222,275.3145 622.2222,292.8438 617.8446,292.4853 613.467,292.0856 609.0894,291.6879 604.7118,291.2794 600.3342,290.8738 595.9566,290.7199 591.5789,290.6369 587.2013,290.6156 582.8237,290.5897 578.4461,290.5301 574.0685,290.434 569.6909,290.2886 565.3133,290.1564 560.9357,290.0072 556.5581,289.8339 552.1805,289.6088 547.8028,289.3084 543.4252,288.9272 539.0476,288.4803 534.67,288.2368 530.2924,287.9611 525.9148,287.6875 521.5372,287.4353 517.1596,287.1997 512.782,286.8421 508.4043,286.3685 504.0267,286.0969 499.6491,285.8719 495.2715,285.6037 490.8939,285.247 486.5163,284.7885 482.1387,284.2253 477.7611,283.5541 473.3835,282.7708 469.0058,281.8716 464.6282,280.852 460.2506,279.7077 455.873,278.4338 451.4954,277.0254 447.1178,276.6131 442.7402,276.5481 438.3626,276.5127 433.985,276.7218 429.6074,276.9568 425.2297,277.1047 420.8521,277.1024 416.4745,276.9131 412.0969,276.9475 407.7193,276.9898 403.3417,276.9184 398.9641,276.669 394.5865,276.2154 390.2089,276.3255 385.8312,276.7138 381.4536,277.1542 377.076,277.5876 372.6984,277.9637 368.3208,278.2496 363.9432,278.4306 359.5656,278.4992 355.188,278.4457 350.8104,278.2586 346.4327,277.9236 342.0551,277.423 337.6775,277.4431 333.2999,277.7246 328.9223,278.1117 324.5447,278.5016 320.1671,278.8291 315.7895,279.0603 311.4119,279.1842 307.0343,279.1968 302.6566,279.0922 298.279,278.863 293.9014,278.4997 289.5238,277.9906 285.1462,277.3219 280.7686,276.4768 276.391,275.4351 272.0134,274.1727 267.6358,272.6601 263.2581,272.6565 258.8805,273.2594 254.5029,274.0441 250.1253,274.7591 245.7477,275.2721 241.3701,275.5434 236.9925,275.5638 232.6149,276.0961 228.2373,276.8196 223.8596,277.5545 219.482,278.204 215.1044,278.7394 210.7268,279.1588 206.3492,279.4586 201.9716,279.6337 197.594,279.6771 193.2164,279.58 188.8388,279.3312 184.4612,278.9171 180.0835,278.3214 175.7059,277.5244 171.3283,277.7425 166.9507,278.4332 162.5731,279.3085 158.1955,280.1963 153.8179,281.0089 149.4403,281.7243 145.0627,282.3446 140.685,282.8703 136.3074,283.3011 131.9298,283.6353 127.5522,283.8703 123.1746,284.0022 118.797,284.0264 114.4194,283.9373 110.0418,283.7283 105.6642,283.3921 101.2865,282.9205 96.9089,282.3045 92.5313,281.5347 88.1537,280.6009 83.7761,279.4926 79.3985,279.3904 75.0209,279.8295 70.6433,280.6018 66.2657,281.5845 61.8881,282.6877 57.5104,283.8403 53.1328,284.99 48.7552,286.1079 44.3776,287.1873 40,287.9316"></polyline>
<text class = "party pp" x="631.1111" y="299"><tspan class="party_name">PP</tspan><tspan class="party_result"> (6.1±1.1%)</tspan></text>
<polyline id="media-otros"  class="otros media" points=" 40,311.4247 44.3776,311.4068 48.7552,311.3898 53.1328,311.3739 57.5104,311.3592 61.8881,311.3457 66.2657,311.3329 70.6433,311.3196 75.0209,311.304 79.3985,311.2829 83.7761,311.2503 88.1537,311.1913 92.5313,311.1263 96.9089,311.0553 101.2865,310.9781 105.6642,310.8948 110.0418,310.8051 114.4194,310.7088 118.797,310.6055 123.1746,310.4948 127.5522,310.3762 131.9298,310.2491 136.3074,310.1127 140.685,309.966 145.0627,309.808 149.4403,309.6374 153.8179,309.4525 158.1955,309.2515 162.5731,309.0401 166.9507,308.8444 171.3283,308.7169 175.7059,308.7486 180.0835,309.1204 184.4612,309.4539 188.8388,309.7539 193.2164,310.0248 197.594,310.271 201.9716,310.4963 206.3492,310.7048 210.7268,310.9001 215.1044,311.0861 219.482,311.2668 223.8596,311.4463 228.2373,311.6155 232.6149,311.7292 236.9925,311.6907 241.3701,311.2945 245.7477,310.9248 250.1253,310.5731 254.5029,310.2394 258.8805,309.9394 263.2581,309.7059 267.6358,309.5931 272.0134,309.723 276.391,309.8142 280.7686,309.872 285.1462,309.9003 289.5238,309.9021 293.9014,309.8795 298.279,309.8342 302.6566,309.7672 307.0343,309.6792 311.4119,309.5703 315.7895,309.4403 320.1671,309.2888 324.5447,309.118 328.9223,308.9391 333.2999,308.7749 337.6775,308.6615 342.0551,308.6539 346.4327,308.8456 350.8104,308.9786 355.188,309.0575 359.5656,309.086 363.9432,309.0662 368.3208,308.9993 372.6984,308.8851 377.076,308.7385 381.4536,308.6161 385.8312,308.6313 390.2089,308.9971 394.5865,309.3498 398.9641,309.778 403.3417,310.1386 407.7193,310.4352 412.0969,310.6846 416.4745,310.9277 420.8521,311.2499 425.2297,311.5289 429.6074,311.7804 433.985,312.0429 438.3626,312.3814 442.7402,312.9046 447.1178,313.3355 451.4954,313.6468 455.873,313.7847 460.2506,313.9498 464.6282,314.1325 469.0058,314.3253 473.3835,314.5228 477.7611,314.7207 482.1387,314.9159 486.5163,315.1061 490.8939,315.29 495.2715,315.4667 499.6491,315.6331 504.0267,315.7799 508.4043,315.891 512.782,315.943 517.1596,316.0331 521.5372,316.1864 525.9148,316.3834 530.2924,316.6011 534.67,316.7165 539.0476,316.417 543.4252,316.2554 547.8028,316.1295 552.1805,316.0721 556.5581,316.1669 560.9357,316.6384 565.3133,317.0591 569.6909,317.5193 574.0685,318.1719 578.4461,318.78 582.8237,319.3601 587.2013,319.8783 591.5789,320.2863 595.9566,320.5039 600.3342,320.5988 604.7118,320.4132 609.0894,320.3126 613.467,320.2469 617.8446,320.2022 622.2222,320.1385"></polyline>
<polyline id="error-otros" class="otros error" points=" 40,289.2408 44.3776,289.6949 48.7552,290.4376 53.1328,291.2069 57.5104,291.9989 61.8881,292.7934 66.2657,293.5542 70.6433,294.2306 75.0209,294.7582 79.3985,295.048 83.7761,294.949 88.1537,294.125 92.5313,293.4157 96.9089,292.8119 101.2865,292.3052 105.6642,291.8877 110.0418,291.5518 114.4194,291.2907 118.797,291.0981 123.1746,290.9681 127.5522,290.8956 131.9298,290.8758 136.3074,290.9045 140.685,290.978 145.0627,291.0931 149.4403,291.247 153.8179,291.4374 158.1955,291.6624 162.5731,291.917 166.9507,292.1872 171.3283,292.4471 175.7059,292.6576 180.0835,292.7636 184.4612,292.9351 188.8388,293.1655 193.2164,293.4499 197.594,293.7851 201.9716,294.1691 206.3492,294.6011 210.7268,295.0818 215.1044,295.6126 219.482,296.1966 223.8596,296.8383 228.2373,297.5084 232.6149,298.0898 236.9925,298.3471 241.3701,297.813 245.7477,297.4439 250.1253,297.2197 254.5029,297.1188 258.8805,297.1038 263.2581,297.1094 267.6358,297.029 272.0134,296.6601 276.391,296.3673 280.7686,296.1403 285.1462,295.9704 289.5238,295.8503 293.9014,295.7736 298.279,295.735 302.6566,295.7294 307.0343,295.7528 311.4119,295.8012 315.7895,295.8714 320.1671,295.9602 324.5447,296.0652 328.9223,296.1847 333.2999,296.3176 337.6775,296.4645 342.0551,296.6288 346.4327,296.8228 350.8104,297.0274 355.188,297.2387 359.5656,297.4534 363.9432,297.6686 368.3208,297.8816 372.6984,298.0897 377.076,298.2962 381.4536,298.5221 385.8312,298.8155 390.2089,299.2808 394.5865,299.7161 398.9641,300.1372 403.3417,300.5792 407.7193,301.0298 412.0969,301.4681 416.4745,301.8666 420.8521,302.1937 425.2297,302.5659 429.6074,302.9764 433.985,303.433 438.3626,303.9535 442.7402,304.5642 447.1178,305.0869 451.4954,305.3931 455.873,305.2412 460.2506,305.1945 464.6282,305.2356 469.0058,305.3508 473.3835,305.529 477.7611,305.7613 482.1387,306.0402 486.5163,306.3601 490.8939,306.7163 495.2715,307.1057 499.6491,307.5186 504.0267,307.9278 508.4043,308.2821 512.782,308.496 517.1596,308.7629 521.5372,309.0593 525.9148,309.4672 530.2924,309.935 534.67,310.2519 539.0476,309.912 543.4252,309.799 547.8028,309.798 552.1805,309.8864 556.5581,310.0715 560.9357,310.4385 565.3133,310.8606 569.6909,311.3849 574.0685,312.1141 578.4461,312.8353 582.8237,313.5202 587.2013,314.1699 591.5789,314.6965 595.9566,314.9603 600.3342,315.0301 604.7118,314.6258 609.0894,314.2742 613.467,313.9599 617.8446,313.6369 622.2222,313.263 622.2222,327.014 617.8446,326.7675 613.467,326.5339 609.0894,326.3511 604.7118,326.2006 600.3342,326.1674 595.9566,326.0474 591.5789,325.8761 587.2013,325.5868 582.8237,325.1999 578.4461,324.7246 574.0685,324.2297 569.6909,323.6537 565.3133,323.2576 560.9357,322.8384 556.5581,322.2622 552.1805,322.2577 547.8028,322.4609 543.4252,322.7117 539.0476,322.922 534.67,323.1811 530.2924,323.2672 525.9148,323.2996 521.5372,323.3134 517.1596,323.3034 512.782,323.39 508.4043,323.5 504.0267,323.632 499.6491,323.7476 495.2715,323.8277 490.8939,323.8637 486.5163,323.8522 482.1387,323.7915 477.7611,323.6801 473.3835,323.5165 469.0058,323.2998 464.6282,323.0294 460.2506,322.7052 455.873,322.3282 451.4954,321.9005 447.1178,321.5841 442.7402,321.2449 438.3626,320.8093 433.985,320.6527 429.6074,320.5844 425.2297,320.4919 420.8521,320.3061 416.4745,319.9888 412.0969,319.9011 407.7193,319.8405 403.3417,319.698 398.9641,319.4189 394.5865,318.9836 390.2089,318.7134 385.8312,318.4471 381.4536,318.7102 377.076,319.1808 372.6984,319.6805 368.3208,320.117 363.9432,320.4638 359.5656,320.7186 355.188,320.8764 350.8104,320.9297 346.4327,320.8685 342.0551,320.679 337.6775,320.8585 333.2999,321.2323 328.9223,321.6936 324.5447,322.1707 320.1671,322.6173 315.7895,323.0093 311.4119,323.3394 307.0343,323.6056 302.6566,323.805 298.279,323.9335 293.9014,323.9854 289.5238,323.9539 285.1462,323.8303 280.7686,323.6038 276.391,323.2611 272.0134,322.7859 267.6358,322.1573 263.2581,322.3025 258.8805,322.7751 254.5029,323.3599 250.1253,323.9266 245.7477,324.4056 241.3701,324.7761 236.9925,325.0343 232.6149,325.3685 228.2373,325.7227 223.8596,326.0544 219.482,326.3369 215.1044,326.5597 210.7268,326.7185 206.3492,326.8085 201.9716,326.8236 197.594,326.7568 193.2164,326.5997 188.8388,326.3422 184.4612,325.9727 180.0835,325.4773 175.7059,324.8397 171.3283,324.9868 166.9507,325.5015 162.5731,326.1631 158.1955,326.8406 153.8179,327.4676 149.4403,328.0278 145.0627,328.5229 140.685,328.954 136.3074,329.3208 131.9298,329.6223 127.5522,329.8568 123.1746,330.0214 118.797,330.1128 114.4194,330.1268 110.0418,330.0584 105.6642,329.902 101.2865,329.6511 96.9089,329.2986 92.5313,328.8369 88.1537,328.2575 83.7761,327.5516 79.3985,327.5178 75.0209,327.8497 70.6433,328.4086 66.2657,329.1116 61.8881,329.8981 57.5104,330.7196 53.1328,331.5408 48.7552,332.342 44.3776,333.1186 40,333.3333"></polyline>
<text class = "party otros" x="631.1111" y="320"><tspan class="party_name">Otros</tspan><tspan class="party_result"> (1.6±0.9%)</tspan></text>
<g id="encuesta-1">
<circle id="encuesta-1-cup" class="encuesta sociometrica cup" cx="622.2222" cy="290.5051" r="3.3166" ></circle>
<circle id="encuesta-1-erc" class="encuesta sociometrica erc" cx="622.2222" cy="159.596" r="3.3166" ></circle>
<circle id="encuesta-1-jxcat" class="encuesta sociometrica jxcat" cx="622.2222" cy="166.8687" r="3.3166" ></circle>
<circle id="encuesta-1-cec" class="encuesta sociometrica cec" cx="622.2222" cy="259.798" r="3.3166" ></circle>
<circle id="encuesta-1-psc" class="encuesta sociometrica psc" cx="622.2222" cy="215.3535" r="3.3166" ></circle>
<circle id="encuesta-1-cs" class="encuesta sociometrica cs" cx="622.2222" cy="156.3636" r="3.3166" ></circle>
<circle id="encuesta-1-pp" class="encuesta sociometrica pp" cx="622.2222" cy="292.9293" r="3.3166" ></circle>
<circle id="encuesta-1-otros" class="encuesta sociometrica otros" cx="622.2222" cy="317.1717" r="3.3166" ></circle>
</g>
<g id="encuesta-2">
<circle id="encuesta-2-cup" class="encuesta feedback cup" cx="622.2222" cy="271.1111" r="3.1623" ></circle>
<circle id="encuesta-2-erc" class="encuesta feedback erc" cx="622.2222" cy="164.4444" r="3.1623" ></circle>
<circle id="encuesta-2-jxcat" class="encuesta feedback jxcat" cx="622.2222" cy="185.4545" r="3.1623" ></circle>
<circle id="encuesta-2-cec" class="encuesta feedback cec" cx="622.2222" cy="267.0707" r="3.1623" ></circle>
<circle id="encuesta-2-psc" class="encuesta feedback psc" cx="622.2222" cy="210.5051" r="3.1623" ></circle>
<circle id="encuesta-2-cs" class="encuesta feedback cs" cx="622.2222" cy="142.6263" r="3.1623" ></circle>
<circle id="encuesta-2-pp" class="encuesta feedback pp" cx="622.2222" cy="289.697" r="3.1623" ></circle>
<circle id="encuesta-2-otros" class="encuesta feedback otros" cx="622.2222" cy="327.6768" r="3.1623" ></circle>
</g>
<g id="encuesta-3">
<circle id="encuesta-3-cup" class="encuesta sociometrica cup" cx="613.467" cy="285.6566" r="3.3166" ></circle>
<circle id="encuesta-3-erc" class="encuesta sociometrica erc" cx="613.467" cy="160.404" r="3.3166" ></circle>
<circle id="encuesta-3-jxcat" class="encuesta sociometrica jxcat" cx="613.467" cy="161.2121" r="3.3166" ></circle>
<circle id="encuesta-3-cec" class="encuesta sociometrica cec" cx="613.467" cy="267.0707" r="3.3166" ></circle>
<circle id="encuesta-3-psc" class="encuesta sociometrica psc" cx="613.467" cy="219.3939" r="3.3166" ></circle>
<circle id="encuesta-3-cs" class="encuesta sociometrica cs" cx="613.467" cy="162.0202" r="3.3166" ></circle>
<circle id="encuesta-3-pp" class="encuesta sociometrica pp" cx="613.467" cy="284.0404" r="3.3166" ></circle>
<circle id="encuesta-3-otros" class="encuesta sociometrica otros" cx="613.467" cy="318.7879" r="3.3166" ></circle>
</g>
<g id="encuesta-4">
<circle id="encuesta-4-cup" class="encuesta feedback cup" cx="604.7118" cy="273.5354" r="3.1623" ></circle>
<circle id="encuesta-4-erc" class="encuesta feedback erc" cx="604.7118" cy="153.1313" r="3.1623" ></circle>
<circle id="encuesta-4-jxcat" class="encuesta feedback jxcat" cx="604.7118" cy="180.6061" r="3.1623" ></circle>
<circle id="encuesta-4-cec" class="encuesta feedback cec" cx="604.7118" cy="273.5354" r="3.1623" ></circle>
<circle id="encuesta-4-psc" class="encuesta feedback psc" cx="604.7118" cy="204.8485" r="3.1623" ></circle>
<circle id="encuesta-4-cs" class="encuesta feedback cs" cx="604.7118" cy="161.2121" r="3.1623" ></circle>
<circle id="encuesta-4-pp" class="encuesta feedback pp" cx="604.7118" cy="284.0404" r="3.1623" ></circle>
<circle id="encuesta-4-otros" class="encuesta feedback otros" cx="604.7118" cy="327.6768" r="3.1623" ></circle>
</g>
<g id="encuesta-5">
<circle id="encuesta-5-cup" class="encuesta infortecnica cup" cx="600.3342" cy="282.4242" r="3.4871" ></circle>
<circle id="encuesta-5-erc" class="encuesta infortecnica erc" cx="600.3342" cy="145.0505" r="3.4871" ></circle>
<circle id="encuesta-5-jxcat" class="encuesta infortecnica jxcat" cx="600.3342" cy="180.6061" r="3.4871" ></circle>
<circle id="encuesta-5-cec" class="encuesta infortecnica cec" cx="600.3342" cy="291.3131" r="3.4871" ></circle>
<circle id="encuesta-5-psc" class="encuesta infortecnica psc" cx="600.3342" cy="201.6162" r="3.4871" ></circle>
<circle id="encuesta-5-cs" class="encuesta infortecnica cs" cx="600.3342" cy="136.1616" r="3.4871" ></circle>
<circle id="encuesta-5-pp" class="encuesta infortecnica pp" cx="600.3342" cy="288.0808" r="3.4871" ></circle>
<circle id="encuesta-5-otros" class="encuesta infortecnica otros" cx="600.3342" cy="333.3333" r="3.4871" ></circle>
</g>
<g id="encuesta-6">
<circle id="encuesta-6-cup" class="encuesta celeste-tel cup" cx="600.3342" cy="280" r="2.8284" ></circle>
<circle id="encuesta-6-erc" class="encuesta celeste-tel erc" cx="600.3342" cy="148.2828" r="2.8284" ></circle>
<circle id="encuesta-6-jxcat" class="encuesta celeste-tel jxcat" cx="600.3342" cy="202.4242" r="2.8284" ></circle>
<circle id="encuesta-6-cec" class="encuesta celeste-tel cec" cx="600.3342" cy="267.8788" r="2.8284" ></circle>
<circle id="encuesta-6-psc" class="encuesta celeste-tel psc" cx="600.3342" cy="203.2323" r="2.8284" ></circle>
<circle id="encuesta-6-cs" class="encuesta celeste-tel cs" cx="600.3342" cy="153.9394" r="2.8284" ></circle>
<circle id="encuesta-6-pp" class="encuesta celeste-tel pp" cx="600.3342" cy="279.1919" r="2.8284" ></circle>
<circle id="encuesta-6-otros" class="encuesta celeste-tel otros" cx="600.3342" cy="323.6364" r="2.8284" ></circle>
</g>
<g id="encuesta-7">
<circle id="encuesta-7-cup" class="encuesta sociometrica cup" cx="604.7118" cy="288.8889" r="3.3166" ></circle>
<circle id="encuesta-7-erc" class="encuesta sociometrica erc" cx="604.7118" cy="151.5152" r="3.3166" ></circle>
<circle id="encuesta-7-jxcat" class="encuesta sociometrica jxcat" cx="604.7118" cy="173.3333" r="3.3166" ></circle>
<circle id="encuesta-7-cec" class="encuesta sociometrica cec" cx="604.7118" cy="273.5354" r="3.3166" ></circle>
<circle id="encuesta-7-psc" class="encuesta sociometrica psc" cx="604.7118" cy="216.9697" r="3.3166" ></circle>
<circle id="encuesta-7-cs" class="encuesta sociometrica cs" cx="604.7118" cy="159.596" r="3.3166" ></circle>
<circle id="encuesta-7-pp" class="encuesta sociometrica pp" cx="604.7118" cy="289.697" r="3.3166" ></circle>
<circle id="encuesta-7-otros" class="encuesta sociometrica otros" cx="604.7118" cy="305.0505" r="3.3166" ></circle>
</g>
<g id="encuesta-8">
<circle id="encuesta-8-cup" class="encuesta gad3 cup" cx="600.3342" cy="292.9293" r="3.1623" ></circle>
<circle id="encuesta-8-erc" class="encuesta gad3 erc" cx="600.3342" cy="159.596" r="3.1623" ></circle>
<circle id="encuesta-8-jxcat" class="encuesta gad3 jxcat" cx="600.3342" cy="186.2626" r="3.1623" ></circle>
<circle id="encuesta-8-cec" class="encuesta gad3 cec" cx="600.3342" cy="273.5354" r="3.1623" ></circle>
<circle id="encuesta-8-psc" class="encuesta gad3 psc" cx="600.3342" cy="200" r="3.1623" ></circle>
<circle id="encuesta-8-cs" class="encuesta gad3 cs" cx="600.3342" cy="146.6667" r="3.1623" ></circle>
<circle id="encuesta-8-pp" class="encuesta gad3 pp" cx="600.3342" cy="275.9596" r="3.1623" ></circle>
<circle id="encuesta-8-otros" class="encuesta gad3 otros" cx="600.3342" cy="323.6364" r="3.1623" ></circle>
</g>
<g id="encuesta-9">
<circle id="encuesta-9-cup" class="encuesta feedback cup" cx="600.3342" cy="275.9596" r="3" ></circle>
<circle id="encuesta-9-erc" class="encuesta feedback erc" cx="600.3342" cy="146.6667" r="3" ></circle>
<circle id="encuesta-9-jxcat" class="encuesta feedback jxcat" cx="600.3342" cy="195.9596" r="3" ></circle>
<circle id="encuesta-9-cec" class="encuesta feedback cec" cx="600.3342" cy="268.6869" r="3" ></circle>
<circle id="encuesta-9-psc" class="encuesta feedback psc" cx="600.3342" cy="209.697" r="3" ></circle>
<circle id="encuesta-9-cs" class="encuesta feedback cs" cx="600.3342" cy="147.4747" r="3" ></circle>
<circle id="encuesta-9-pp" class="encuesta feedback pp" cx="600.3342" cy="288.8889" r="3" ></circle>
<circle id="encuesta-9-otros" class="encuesta feedback otros" cx="600.3342" cy="325.2525" r="3" ></circle>
</g>
<g id="encuesta-10">
<circle id="encuesta-10-cup" class="encuesta feedback cup" cx="591.5789" cy="281.6162" r="3.1623" ></circle>
<circle id="encuesta-10-erc" class="encuesta feedback erc" cx="591.5789" cy="139.3939" r="3.1623" ></circle>
<circle id="encuesta-10-jxcat" class="encuesta feedback jxcat" cx="591.5789" cy="195.1515" r="3.1623" ></circle>
<circle id="encuesta-10-cec" class="encuesta feedback cec" cx="591.5789" cy="258.1818" r="3.1623" ></circle>
<circle id="encuesta-10-psc" class="encuesta feedback psc" cx="591.5789" cy="224.2424" r="3.1623" ></circle>
<circle id="encuesta-10-cs" class="encuesta feedback cs" cx="591.5789" cy="149.0909" r="3.1623" ></circle>
<circle id="encuesta-10-pp" class="encuesta feedback pp" cx="591.5789" cy="283.2323" r="3.1623" ></circle>
<circle id="encuesta-10-otros" class="encuesta feedback otros" cx="591.5789" cy="327.6768" r="3.1623" ></circle>
</g>
<g id="encuesta-11">
<circle id="encuesta-11-cup" class="encuesta gesop cup" cx="578.4461" cy="284.8485" r="2.8284" ></circle>
<circle id="encuesta-11-erc" class="encuesta gesop erc" cx="578.4461" cy="167.6768" r="2.8284" ></circle>
<circle id="encuesta-11-jxcat" class="encuesta gesop jxcat" cx="578.4461" cy="177.3737" r="2.8284" ></circle>
<circle id="encuesta-11-cec" class="encuesta gesop cec" cx="578.4461" cy="264.6465" r="2.8284" ></circle>
<circle id="encuesta-11-psc" class="encuesta gesop psc" cx="578.4461" cy="179.798" r="2.8284" ></circle>
<circle id="encuesta-11-cs" class="encuesta gesop cs" cx="578.4461" cy="179.798" r="2.8284" ></circle>
<circle id="encuesta-11-pp" class="encuesta gesop pp" cx="578.4461" cy="286.4646" r="2.8284" ></circle>
<circle id="encuesta-11-otros" class="encuesta gesop otros" cx="578.4461" cy="317.9798" r="2.8284" ></circle>
</g>
<g id="encuesta-12">
<circle id="encuesta-12-cup" class="encuesta sociometrica cup" cx="569.6909" cy="284.8485" r="2.8284" ></circle>
<circle id="encuesta-12-erc" class="encuesta sociometrica erc" cx="569.6909" cy="146.6667" r="2.8284" ></circle>
<circle id="encuesta-12-jxcat" class="encuesta sociometrica jxcat" cx="569.6909" cy="179.798" r="2.8284" ></circle>
<circle id="encuesta-12-cec" class="encuesta sociometrica cec" cx="569.6909" cy="281.6162" r="2.8284" ></circle>
<circle id="encuesta-12-psc" class="encuesta sociometrica psc" cx="569.6909" cy="210.5051" r="2.8284" ></circle>
<circle id="encuesta-12-cs" class="encuesta sociometrica cs" cx="569.6909" cy="167.6768" r="2.8284" ></circle>
<circle id="encuesta-12-pp" class="encuesta sociometrica pp" cx="569.6909" cy="283.2323" r="2.8284" ></circle>
<circle id="encuesta-12-otros" class="encuesta sociometrica otros" cx="569.6909" cy="304.2424" r="2.8284" ></circle>
</g>
<g id="encuesta-13">
<circle id="encuesta-13-cup" class="encuesta cis cup" cx="556.5581" cy="279.1919" r="5.4772" ></circle>
<circle id="encuesta-13-erc" class="encuesta cis erc" cx="556.5581" cy="165.2525" r="5.4772" ></circle>
<circle id="encuesta-13-jxcat" class="encuesta cis jxcat" cx="556.5581" cy="196.7677" r="5.4772" ></circle>
<circle id="encuesta-13-cec" class="encuesta cis cec" cx="556.5581" cy="263.8384" r="5.4772" ></circle>
<circle id="encuesta-13-psc" class="encuesta cis psc" cx="556.5581" cy="204.0404" r="5.4772" ></circle>
<circle id="encuesta-13-cs" class="encuesta cis cs" cx="556.5581" cy="151.5152" r="5.4772" ></circle>
<circle id="encuesta-13-pp" class="encuesta cis pp" cx="556.5581" cy="286.4646" r="5.4772" ></circle>
<circle id="encuesta-13-otros" class="encuesta cis otros" cx="556.5581" cy="311.5152" r="5.4772" ></circle>
</g>
<g id="encuesta-14">
<circle id="encuesta-14-cup" class="encuesta nc_report cup" cx="539.0476" cy="287.2727" r="3.1623" ></circle>
<circle id="encuesta-14-erc" class="encuesta nc_report erc" cx="539.0476" cy="138.5859" r="3.1623" ></circle>
<circle id="encuesta-14-jxcat" class="encuesta nc_report jxcat" cx="539.0476" cy="223.4343" r="3.1623" ></circle>
<circle id="encuesta-14-cec" class="encuesta nc_report cec" cx="539.0476" cy="265.4545" r="3.1623" ></circle>
<circle id="encuesta-14-psc" class="encuesta nc_report psc" cx="539.0476" cy="214.5455" r="3.1623" ></circle>
<circle id="encuesta-14-cs" class="encuesta nc_report cs" cx="539.0476" cy="164.4444" r="3.1623" ></circle>
<circle id="encuesta-14-pp" class="encuesta nc_report pp" cx="539.0476" cy="258.1818" r="3.1623" ></circle>
<circle id="encuesta-14-otros" class="encuesta nc_report otros" cx="539.0476" cy="306.6667" r="3.1623" ></circle>
</g>
<g id="encuesta-15">
<circle id="encuesta-15-cup" class="encuesta metroscopica cup" cx="534.67" cy="285.6566" r="4.2426" ></circle>
<circle id="encuesta-15-erc" class="encuesta metroscopica erc" cx="534.67" cy="119.1919" r="4.2426" ></circle>
<circle id="encuesta-15-jxcat" class="encuesta metroscopica jxcat" cx="534.67" cy="223.4343" r="4.2426" ></circle>
<circle id="encuesta-15-cec" class="encuesta metroscopica cec" cx="534.67" cy="279.1919" r="4.2426" ></circle>
<circle id="encuesta-15-psc" class="encuesta metroscopica psc" cx="534.67" cy="212.9293" r="4.2426" ></circle>
<circle id="encuesta-15-cs" class="encuesta metroscopica cs" cx="534.67" cy="128.8889" r="4.2426" ></circle>
<circle id="encuesta-15-pp" class="encuesta metroscopica pp" cx="534.67" cy="286.4646" r="4.2426" ></circle>
<circle id="encuesta-15-otros" class="encuesta metroscopica otros" cx="534.67" cy="322.8283" r="4.2426" ></circle>
</g>
<g id="encuesta-16">
<circle id="encuesta-16-cup" class="encuesta gesop cup" cx="517.1596" cy="282.4242" r="2.8284" ></circle>
<circle id="encuesta-16-erc" class="encuesta gesop erc" cx="517.1596" cy="140.202" r="2.8284" ></circle>
<circle id="encuesta-16-jxcat" class="encuesta gesop jxcat" cx="517.1596" cy="200" r="2.8284" ></circle>
<circle id="encuesta-16-cec" class="encuesta gesop cec" cx="517.1596" cy="263.8384" r="2.8284" ></circle>
<circle id="encuesta-16-psc" class="encuesta gesop psc" cx="517.1596" cy="187.0707" r="2.8284" ></circle>
<circle id="encuesta-16-cs" class="encuesta gesop cs" cx="517.1596" cy="183.0303" r="2.8284" ></circle>
<circle id="encuesta-16-pp" class="encuesta gesop pp" cx="517.1596" cy="287.2727" r="2.8284" ></circle>
<circle id="encuesta-16-otros" class="encuesta gesop otros" cx="517.1596" cy="314.7475" r="2.8284" ></circle>
</g>
<g id="encuesta-17">
<circle id="encuesta-17-cup" class="encuesta gad3 cup" cx="508.4043" cy="288.0808" r="2.8302" ></circle>
<circle id="encuesta-17-erc" class="encuesta gad3 erc" cx="508.4043" cy="146.6667" r="2.8302" ></circle>
<circle id="encuesta-17-jxcat" class="encuesta gad3 jxcat" cx="508.4043" cy="198.3838" r="2.8302" ></circle>
<circle id="encuesta-17-cec" class="encuesta gad3 cec" cx="508.4043" cy="271.9192" r="2.8302" ></circle>
<circle id="encuesta-17-psc" class="encuesta gad3 psc" cx="508.4043" cy="211.3131" r="2.8302" ></circle>
<circle id="encuesta-17-cs" class="encuesta gad3 cs" cx="508.4043" cy="153.1313" r="2.8302" ></circle>
<circle id="encuesta-17-pp" class="encuesta gad3 pp" cx="508.4043" cy="270.303" r="2.8302" ></circle>
<circle id="encuesta-17-otros" class="encuesta gad3 otros" cx="508.4043" cy="318.7879" r="2.8302" ></circle>
</g>
<g id="encuesta-18">
<circle id="encuesta-18-cup" class="encuesta nc_report cup" cx="451.4954" cy="282.4242" r="3.1623" ></circle>
<circle id="encuesta-18-erc" class="encuesta nc_report erc" cx="451.4954" cy="120.8081" r="3.1623" ></circle>
<circle id="encuesta-18-jxcat" class="encuesta nc_report jxcat" cx="451.4954" cy="246.8687" r="3.1623" ></circle>
<circle id="encuesta-18-cec" class="encuesta nc_report cec" cx="451.4954" cy="249.2929" r="3.1623" ></circle>
<circle id="encuesta-18-psc" class="encuesta nc_report psc" cx="451.4954" cy="223.4343" r="3.1623" ></circle>
<circle id="encuesta-18-cs" class="encuesta nc_report cs" cx="451.4954" cy="174.9495" r="3.1623" ></circle>
<circle id="encuesta-18-pp" class="encuesta nc_report pp" cx="451.4954" cy="248.4848" r="3.1623" ></circle>
<circle id="encuesta-18-otros" class="encuesta nc_report otros" cx="451.4954" cy="312.3232" r="3.1623" ></circle>
</g>
<g id="encuesta-19">
<circle id="encuesta-19-cup" class="encuesta gad3 cup" cx="451.4954" cy="282.4242" r="3.5114" ></circle>
<circle id="encuesta-19-erc" class="encuesta gad3 erc" cx="451.4954" cy="96.5657" r="3.5114" ></circle>
<circle id="encuesta-19-jxcat" class="encuesta gad3 jxcat" cx="451.4954" cy="249.2929" r="3.5114" ></circle>
<circle id="encuesta-19-cec" class="encuesta gad3 cec" cx="451.4954" cy="266.2626" r="3.5114" ></circle>
<circle id="encuesta-19-psc" class="encuesta gad3 psc" cx="451.4954" cy="215.3535" r="3.5114" ></circle>
<circle id="encuesta-19-cs" class="encuesta gad3 cs" cx="451.4954" cy="166.8687" r="3.5114" ></circle>
<circle id="encuesta-19-pp" class="encuesta gad3 pp" cx="451.4954" cy="263.0303" r="3.5114" ></circle>
<circle id="encuesta-19-otros" class="encuesta gad3 otros" cx="451.4954" cy="318.7879" r="3.5114" ></circle>
</g>
<g id="encuesta-20">
<circle id="encuesta-20-cup" class="encuesta sociometrica cup" cx="438.3626" cy="287.2727" r="3.1623" ></circle>
<circle id="encuesta-20-erc" class="encuesta sociometrica erc" cx="438.3626" cy="81.2121" r="3.1623" ></circle>
<circle id="encuesta-20-jxcat" class="encuesta sociometrica jxcat" cx="438.3626" cy="251.7172" r="3.1623" ></circle>
<circle id="encuesta-20-cec" class="encuesta sociometrica cec" cx="438.3626" cy="252.5253" r="3.1623" ></circle>
<circle id="encuesta-20-psc" class="encuesta sociometrica psc" cx="438.3626" cy="234.7475" r="3.1623" ></circle>
<circle id="encuesta-20-cs" class="encuesta sociometrica cs" cx="438.3626" cy="185.4545" r="3.1623" ></circle>
<circle id="encuesta-20-pp" class="encuesta sociometrica pp" cx="438.3626" cy="260.6061" r="3.1623" ></circle>
<circle id="encuesta-20-otros" class="encuesta sociometrica otros" cx="438.3626" cy="305.0505" r="3.1623" ></circle>
</g>
<g id="encuesta-21">
<circle id="encuesta-21-cup" class="encuesta sigmados cup" cx="416.4745" cy="282.4242" r="3.1623" ></circle>
<circle id="encuesta-21-erc" class="encuesta sigmados erc" cx="416.4745" cy="120" r="3.1623" ></circle>
<circle id="encuesta-21-jxcat" class="encuesta sigmados jxcat" cx="416.4745" cy="254.1414" r="3.1623" ></circle>
<circle id="encuesta-21-cec" class="encuesta sigmados cec" cx="416.4745" cy="244.4444" r="3.1623" ></circle>
<circle id="encuesta-21-psc" class="encuesta sigmados psc" cx="416.4745" cy="211.3131" r="3.1623" ></circle>
<circle id="encuesta-21-cs" class="encuesta sigmados cs" cx="416.4745" cy="174.9495" r="3.1623" ></circle>
<circle id="encuesta-21-pp" class="encuesta sigmados pp" cx="416.4745" cy="263.0303" r="3.1623" ></circle>
<circle id="encuesta-21-otros" class="encuesta sigmados otros" cx="416.4745" cy="308.2828" r="3.1623" ></circle>
</g>
<g id="encuesta-22">
<circle id="encuesta-22-cup" class="encuesta nc_report cup" cx="394.5865" cy="288.0808" r="3.1623" ></circle>
<circle id="encuesta-22-erc" class="encuesta nc_report erc" cx="394.5865" cy="134.5455" r="3.1623" ></circle>
<circle id="encuesta-22-jxcat" class="encuesta nc_report jxcat" cx="394.5865" cy="235.5556" r="3.1623" ></circle>
<circle id="encuesta-22-cec" class="encuesta nc_report cec" cx="394.5865" cy="241.2121" r="3.1623" ></circle>
<circle id="encuesta-22-psc" class="encuesta nc_report psc" cx="394.5865" cy="227.4747" r="3.1623" ></circle>
<circle id="encuesta-22-cs" class="encuesta nc_report cs" cx="394.5865" cy="178.1818" r="3.1623" ></circle>
<circle id="encuesta-22-pp" class="encuesta nc_report pp" cx="394.5865" cy="248.4848" r="3.1623" ></circle>
<circle id="encuesta-22-otros" class="encuesta nc_report otros" cx="394.5865" cy="305.0505" r="3.1623" ></circle>
</g>
<g id="encuesta-23">
<circle id="encuesta-23-cup" class="encuesta gesop cup" cx="385.8312" cy="270.303" r="2.8284" ></circle>
<circle id="encuesta-23-erc" class="encuesta gesop erc" cx="385.8312" cy="106.2626" r="2.8284" ></circle>
<circle id="encuesta-23-jxcat" class="encuesta gesop jxcat" cx="385.8312" cy="236.3636" r="2.8284" ></circle>
<circle id="encuesta-23-cec" class="encuesta gesop cec" cx="385.8312" cy="260.6061" r="2.8284" ></circle>
<circle id="encuesta-23-psc" class="encuesta gesop psc" cx="385.8312" cy="216.1616" r="2.8284" ></circle>
<circle id="encuesta-23-cs" class="encuesta gesop cs" cx="385.8312" cy="197.5758" r="2.8284" ></circle>
<circle id="encuesta-23-pp" class="encuesta gesop pp" cx="385.8312" cy="272.7273" r="2.8284" ></circle>
<circle id="encuesta-23-otros" class="encuesta gesop otros" cx="385.8312" cy="298.5859" r="2.8284" ></circle>
</g>
<g id="encuesta-24">
<circle id="encuesta-24-cup" class="encuesta sociometrica cup" cx="342.0551" cy="282.4242" r="2.8284" ></circle>
<circle id="encuesta-24-erc" class="encuesta sociometrica erc" cx="342.0551" cy="76.3636" r="2.8284" ></circle>
<circle id="encuesta-24-jxcat" class="encuesta sociometrica jxcat" cx="342.0551" cy="267.8788" r="2.8284" ></circle>
<circle id="encuesta-24-cec" class="encuesta sociometrica cec" cx="342.0551" cy="236.3636" r="2.8284" ></circle>
<circle id="encuesta-24-psc" class="encuesta sociometrica psc" cx="342.0551" cy="256.5657" r="2.8284" ></circle>
<circle id="encuesta-24-cs" class="encuesta sociometrica cs" cx="342.0551" cy="185.4545" r="2.8284" ></circle>
<circle id="encuesta-24-pp" class="encuesta sociometrica pp" cx="342.0551" cy="251.7172" r="2.8284" ></circle>
<circle id="encuesta-24-otros" class="encuesta sociometrica otros" cx="342.0551" cy="301.8182" r="2.8284" ></circle>
</g>
<g id="encuesta-25">
<circle id="encuesta-25-cup" class="encuesta nc_report cup" cx="267.6358" cy="288.0808" r="3.5426" ></circle>
<circle id="encuesta-25-erc" class="encuesta nc_report erc" cx="267.6358" cy="130.5051" r="3.5426" ></circle>
<circle id="encuesta-25-jxcat" class="encuesta nc_report jxcat" cx="267.6358" cy="230.7071" r="3.5426" ></circle>
<circle id="encuesta-25-cec" class="encuesta nc_report cec" cx="267.6358" cy="239.596" r="3.5426" ></circle>
<circle id="encuesta-25-psc" class="encuesta nc_report psc" cx="267.6358" cy="222.6263" r="3.5426" ></circle>
<circle id="encuesta-25-cs" class="encuesta nc_report cs" cx="267.6358" cy="194.3434" r="3.5426" ></circle>
<circle id="encuesta-25-pp" class="encuesta nc_report pp" cx="267.6358" cy="246.0606" r="3.5426" ></circle>
<circle id="encuesta-25-otros" class="encuesta nc_report otros" cx="267.6358" cy="306.6667" r="3.5426" ></circle>
</g>
<g id="encuesta-26">
<circle id="encuesta-26-cup" class="encuesta celeste-tel cup" cx="236.9925" cy="285.6566" r="2.8284" ></circle>
<circle id="encuesta-26-erc" class="encuesta celeste-tel erc" cx="236.9925" cy="133.7374" r="2.8284" ></circle>
<circle id="encuesta-26-jxcat" class="encuesta celeste-tel jxcat" cx="236.9925" cy="223.4343" r="2.8284" ></circle>
<circle id="encuesta-26-cec" class="encuesta celeste-tel cec" cx="236.9925" cy="234.7475" r="2.8284" ></circle>
<circle id="encuesta-26-psc" class="encuesta celeste-tel psc" cx="236.9925" cy="213.7374" r="2.8284" ></circle>
<circle id="encuesta-26-cs" class="encuesta celeste-tel cs" cx="236.9925" cy="192.7273" r="2.8284" ></circle>
<circle id="encuesta-26-pp" class="encuesta celeste-tel pp" cx="236.9925" cy="257.3737" r="2.8284" ></circle>
<circle id="encuesta-26-otros" class="encuesta celeste-tel otros" cx="236.9925" cy="317.1717" r="2.8284" ></circle>
</g>
<g id="encuesta-27">
<circle id="encuesta-27-cup" class="encuesta sociometrica cup" cx="175.7059" cy="278.3838" r="2.6458" ></circle>
<circle id="encuesta-27-erc" class="encuesta sociometrica erc" cx="175.7059" cy="107.0707" r="2.6458" ></circle>
<circle id="encuesta-27-jxcat" class="encuesta sociometrica jxcat" cx="175.7059" cy="230.7071" r="2.6458" ></circle>
<circle id="encuesta-27-cec" class="encuesta sociometrica cec" cx="175.7059" cy="249.2929" r="2.6458" ></circle>
<circle id="encuesta-27-psc" class="encuesta sociometrica psc" cx="175.7059" cy="251.7172" r="2.6458" ></circle>
<circle id="encuesta-27-cs" class="encuesta sociometrica cs" cx="175.7059" cy="190.303" r="2.6458" ></circle>
<circle id="encuesta-27-pp" class="encuesta sociometrica pp" cx="175.7059" cy="248.4848" r="2.6458" ></circle>
<circle id="encuesta-27-otros" class="encuesta sociometrica otros" cx="175.7059" cy="302.6263" r="2.6458" ></circle>
</g>
<g id="encuesta-28">
<circle id="encuesta-28-cup" class="encuesta nc_report cup" cx="83.7761" cy="280.8081" r="3.5426" ></circle>
<circle id="encuesta-28-erc" class="encuesta nc_report erc" cx="83.7761" cy="140.202" r="3.5426" ></circle>
<circle id="encuesta-28-jxcat" class="encuesta nc_report jxcat" cx="83.7761" cy="221.0101" r="3.5426" ></circle>
<circle id="encuesta-28-cec" class="encuesta nc_report cec" cx="83.7761" cy="235.5556" r="3.5426" ></circle>
<circle id="encuesta-28-psc" class="encuesta nc_report psc" cx="83.7761" cy="221.0101" r="3.5426" ></circle>
<circle id="encuesta-28-cs" class="encuesta nc_report cs" cx="83.7761" cy="191.9192" r="3.5426" ></circle>
<circle id="encuesta-28-pp" class="encuesta nc_report pp" cx="83.7761" cy="256.5657" r="3.5426" ></circle>
<circle id="encuesta-28-otros" class="encuesta nc_report otros" cx="83.7761" cy="311.5152" r="3.5426" ></circle>
</g>

  
<text class="pie izquierda" x="0" y="390">Datos: Electograph | Modelo propio</text>
<text class="pie derecha" x="800" y="390">Jesús Carro | <tspan style="font-weight:bold">1datomas</tspan>.com</text>
</svg>
