<?xml version="1.0" encoding="utf-8"?><!DOCTYPE svg PUBLIC "-//W3C//DTD SVG 1.1//EN" "http://www.w3.org/Graphics/SVG/1.1/DTD/svg11.dtd">
<svg xmlns="http://www.w3.org/2000/svg" xmlns:xlink="http://www.w3.org/1999/xlink" version="1.1" viewBox="0 0 800 400">

<text x="0" y="20" style="font-size:large;font-weight:bold;color:black">Intención de voto en Elecciones Autonómicas en Cataluña</text>
<text x="0" y="40" style="color:gray">Promedio de encuestas y estimación de error</text>

<text class="horizontal axis" x="36" y="333.3333">0%</text>
<line class="horizontal axis" x1="40" y1="333.3333" x2="622.2222" y2="333.3333"></line>
<text class="horizontal axis" x="36" y="252.5253">10%</text>
<line class="horizontal axis" x1="40" y1="252.5253" x2="622.2222" y2="252.5253"></line>
<text class="horizontal axis" x="36" y="171.7172">20%</text>
<line class="horizontal axis" x1="40" y1="171.7172" x2="622.2222" y2="171.7172"></line>
<text class="horizontal axis" x="36" y="90.9091">30%</text>
<line class="horizontal axis" x1="40" y1="90.9091" x2="622.2222" y2="90.9091"></line>
<line class="vertical axis" x1="40" y1="336.6667" x2="40" y2="66.6667"></line>
<text class="vertical axis" x="40" y="343.3333">Ago-2017</text>
<line class="vertical axis" x1="189.1644" y1="336.6667" x2="189.1644" y2="66.6667"></line>
<text class="vertical axis" x="189.1644" y="343.3333">Sep-2017</text>
<line class="vertical axis" x1="333.517" y1="336.6667" x2="333.517" y2="66.6667"></line>
<text class="vertical axis" x="333.517" y="343.3333">Oct-2017</text>
<line class="vertical axis" x1="482.6814" y1="336.6667" x2="482.6814" y2="66.6667"></line>
<text class="vertical axis" x="482.6814" y="343.3333">Nov-2017</text>
<polyline id="media-cup"  class="cup media" points=" 40,281.7446 44.8118,281.7043 49.6235,281.6621 54.4353,281.6182 59.247,281.573 64.0588,281.5281 68.8705,281.4862 73.6823,281.4507 78.494,281.4259 83.3058,281.4175 88.1175,281.4366 92.9293,281.5109 97.741,281.5812 102.5528,281.6467 107.3646,281.7067 112.1763,281.7606 116.9881,281.8078 121.7998,281.8479 126.6116,281.8805 131.4233,281.9052 136.2351,281.9217 141.0468,281.9295 145.8586,281.9281 150.6703,281.9172 155.4821,281.8959 160.2938,281.8637 165.1056,281.8196 169.9174,281.7626 174.7291,281.6961 179.5409,281.6359 184.3526,281.6139 189.1644,281.6875 193.9761,281.9756 198.7879,282.2494 203.5996,282.5098 208.4114,282.7575 213.2231,282.9936 218.0349,283.2191 222.8466,283.435 227.6584,283.6422 232.4702,283.8417 237.2819,284.0343 242.0937,284.2209 246.9054,284.3984 251.7172,284.5568 256.5289,284.6815 261.3407,284.7494 266.1524,284.8473 270.9642,284.9733 275.7759,285.1201 280.5877,285.2652 285.3994,285.3686 290.2112,285.3635 295.023,285.0965 299.8347,284.8522 304.6465,284.6284 309.4582,284.4231 314.27,284.2345 319.0817,284.0608 323.8935,283.9005 328.7052,283.7521 333.517,283.6144 338.3287,283.4862 343.1405,283.3664 347.9522,283.254 352.764,283.1485 357.5758,283.0503 362.3875,282.9604 367.1993,282.8797 372.011,282.8086 376.8228,282.7471 381.6345,282.6752 386.4463,282.5929 391.258,282.5001 396.0698,282.396 400.8815,282.2792 405.6933,282.1475 410.5051,282.0149 415.3168,281.9388 420.1286,282.0374 424.9403,282.5478 429.7521,282.8744 434.5638,282.9672 439.3756,283.0551 444.1873,283.1361 448.9991,283.2142 453.8108,283.3038 458.6226,283.4397 463.4343,283.5702 468.2461,283.6836 473.0579,283.7573 477.8696,283.7578 482.6814,283.6312 487.4931,283.5408 492.3049,283.5054 497.1166,283.5743 501.9284,283.6436 506.7401,283.7142 511.5519,283.7863 516.3636,283.8602 521.1754,283.9358 525.9871,284.013 530.7989,284.0917 535.6107,284.1719 540.4224,284.2538 545.2342,284.3322 550.0459,284.3876 554.8577,284.384 559.6694,284.2606 564.4812,284.1811 569.2929,284.1671 574.1047,284.1474 578.9164,284.108 583.7282,283.991 588.5399,283.6161 593.3517,283.1705 598.1635,282.7433 602.9752,282.4061 607.787,282.2638 612.5987,282.5942 617.4105,282.8629 622.2222,283.0623"></polyline>
<polyline id="error-cup" class="cup error" points=" 40,259.4412 44.8118,259.9382 49.6235,260.4455 54.4353,261.001 59.247,261.8281 64.0588,262.6503 68.8705,263.4316 73.6823,264.124 78.494,264.6673 83.3058,264.979 88.1175,264.9178 92.9293,264.1632 97.741,263.5236 102.5528,262.992 107.3646,262.5618 112.1763,262.2265 116.9881,261.98 121.7998,261.8164 126.6116,261.7299 131.4233,261.7154 136.2351,261.7679 141.0468,261.8828 145.8586,262.0561 150.6703,262.284 155.4821,262.5633 160.2938,262.8912 165.1056,263.2653 169.9174,263.6837 174.7291,264.1366 179.5409,264.5921 184.3526,264.9924 189.1644,265.2471 193.9761,265.2015 198.7879,265.257 203.5996,265.4039 208.4114,265.6339 213.2231,265.9403 218.0349,266.3177 222.8466,266.7619 227.6584,267.2695 232.4702,267.8383 237.2819,268.4668 242.0937,269.1547 246.9054,269.8755 251.7172,270.5405 256.5289,270.9861 261.3407,270.9109 266.1524,271.0199 270.9642,271.2995 275.7759,271.7179 280.5877,272.1895 285.3994,272.5607 290.2112,272.5794 295.023,271.7065 299.8347,270.9771 304.6465,270.3766 309.4582,269.8924 314.27,269.5137 319.0817,269.2312 323.8935,269.0365 328.7052,268.9224 333.517,268.8824 338.3287,268.9108 343.1405,269.0027 347.9522,269.154 352.764,269.3576 357.5758,269.5965 362.3875,269.8409 367.1993,270.0461 372.011,270.1467 376.8228,270.0367 381.6345,270.0037 386.4463,270.0382 391.258,270.1322 396.0698,270.2783 400.8815,270.4698 405.6933,270.7004 410.5051,270.9687 415.3168,271.2868 420.1286,271.6932 424.9403,272.293 429.7521,272.6815 434.5638,272.7118 439.3756,272.848 444.1873,273.0703 448.9991,273.3358 453.8108,273.5725 458.6226,273.6645 463.4343,273.863 468.2461,274.1284 473.0579,274.3971 477.8696,274.5701 482.6814,274.4795 487.4931,274.4366 492.3049,274.3295 497.1166,273.9495 501.9284,273.6511 506.7401,273.4326 511.5519,273.293 516.3636,273.2311 521.1754,273.2459 525.9871,273.336 530.7989,273.5001 535.6107,273.7367 540.4224,274.0442 545.2342,274.4075 550.0459,274.7768 554.8577,275.0556 559.6694,275.0753 564.4812,275.1622 569.2929,275.2509 574.1047,275.4505 578.9164,275.7003 583.7282,275.7901 588.5399,275.1814 593.3517,274.6339 598.1635,274.2436 602.9752,273.9738 607.787,273.7444 612.5987,273.3846 617.4105,273.0837 622.2222,272.7377 622.2222,293.3869 617.4105,292.6422 612.5987,291.8038 607.787,290.7832 602.9752,290.8383 598.1635,291.243 593.3517,291.7071 588.5399,292.0508 583.7282,292.192 578.9164,292.5156 574.1047,292.8444 569.2929,293.0834 564.4812,293.2 559.6694,293.4458 554.8577,293.7124 550.0459,293.9985 545.2342,294.2569 540.4224,294.4635 535.6107,294.6072 530.7989,294.6833 525.9871,294.69 521.1754,294.6257 516.3636,294.4893 511.5519,294.2797 506.7401,293.9957 501.9284,293.6362 497.1166,293.199 492.3049,292.6813 487.4931,292.645 482.6814,292.7829 477.8696,292.9455 473.0579,293.1175 468.2461,293.2387 463.4343,293.2775 458.6226,293.2149 453.8108,293.0351 448.9991,293.0927 444.1873,293.202 439.3756,293.2621 434.5638,293.2225 429.7521,293.0674 424.9403,292.8026 420.1286,292.3816 415.3168,292.5909 410.5051,293.0612 405.6933,293.5945 400.8815,294.0886 396.0698,294.5138 391.258,294.8681 386.4463,295.1476 381.6345,295.3466 376.8228,295.4576 372.011,295.4705 367.1993,295.7133 362.3875,296.0799 357.5758,296.5041 352.764,296.9394 347.9522,297.3539 343.1405,297.7301 338.3287,298.0617 333.517,298.3465 328.7052,298.5818 323.8935,298.7644 319.0817,298.8904 314.27,298.9552 309.4582,298.9538 304.6465,298.8802 299.8347,298.7272 295.023,298.4865 290.2112,298.1477 285.3994,298.1766 280.5877,298.341 275.7759,298.5222 270.9642,298.6471 266.1524,298.6747 261.3407,298.588 256.5289,298.3769 251.7172,298.5732 246.9054,298.9212 242.0937,299.2871 237.2819,299.6018 232.4702,299.8451 227.6584,300.0148 222.8466,300.108 218.0349,300.1205 213.2231,300.0469 208.4114,299.8811 203.5996,299.6157 198.7879,299.2418 193.9761,298.7497 189.1644,298.1279 184.3526,298.2355 179.5409,298.6796 174.7291,299.2557 169.9174,299.8415 165.1056,300.374 160.2938,300.8363 155.4821,301.2285 150.6703,301.5503 145.8586,301.8002 141.0468,301.9761 136.2351,302.0755 131.4233,302.0951 126.6116,302.0311 121.7998,301.8794 116.9881,301.6355 112.1763,301.2946 107.3646,300.8516 102.5528,300.3015 97.741,299.6389 92.9293,298.8586 88.1175,297.9555 83.3058,297.8561 78.494,298.1844 73.6823,298.7774 68.8705,299.5408 64.0588,300.4059 59.247,301.3179 54.4353,302.2355 49.6235,302.8788 44.8118,303.4703 40,304.0481"></polyline>
<text class = "party cup" x="631.1111" y="295"><tspan class="party_name">CUP</tspan><tspan class="party_result"> (6.2±1.3%)</tspan></text>
<polyline id="media-erc"  class="erc media" points=" 40,131.1493 44.8118,131.4602 49.6235,131.7908 54.4353,132.1423 59.247,132.5108 64.0588,132.8805 68.8705,133.224 73.6823,133.5049 78.494,133.6767 83.3058,133.672 88.1175,133.3639 92.9293,132.4292 97.741,131.4999 102.5528,130.5823 107.3646,129.6813 112.1763,128.8007 116.9881,127.9432 121.7998,127.1105 126.6116,126.3032 131.4233,125.5214 136.2351,124.7644 141.0468,124.0307 145.8586,123.3184 150.6703,122.6251 155.4821,121.9478 160.2938,121.2831 165.1056,120.627 169.9174,119.975 174.7291,119.3395 179.5409,118.7752 184.3526,118.3885 189.1644,118.3607 193.9761,119.0648 198.7879,119.7073 203.5996,120.2985 208.4114,120.8479 213.2231,121.3643 218.0349,121.8563 222.8466,122.3317 227.6584,122.7982 232.4702,123.2631 237.2819,123.7337 242.0937,124.2173 246.9054,124.6948 251.7172,125.0853 256.5289,125.2277 261.3407,124.7929 266.1524,124.478 270.9642,124.28 275.7759,124.185 280.5877,124.1422 285.3994,124.0492 290.2112,123.7201 295.023,122.7139 299.8347,121.7159 304.6465,120.7267 309.4582,119.7459 314.27,118.7721 319.0817,117.8033 323.8935,116.8365 328.7052,115.8681 333.517,114.8937 338.3287,113.908 343.1405,112.9047 347.9522,111.8762 352.764,110.8329 357.5758,109.8348 362.3875,109.005 367.1993,108.541 372.011,108.7521 376.8228,110.197 381.6345,111.4357 386.4463,112.4949 391.258,113.3977 396.0698,114.1636 400.8815,114.8092 405.6933,115.3483 410.5051,115.7993 415.3168,116.2022 420.1286,116.6394 424.9403,117.2833 429.7521,117.4988 434.5638,117.029 439.3756,116.5917 444.1873,116.1713 448.9991,115.7294 453.8108,115.1752 458.6226,114.2984 463.4343,113.372 468.2461,112.4844 473.0579,111.8189 477.8696,111.6817 482.6814,112.618 487.4931,113.4166 492.3049,114.3243 497.1166,115.8944 501.9284,117.4946 506.7401,119.1167 511.5519,120.7513 516.3636,122.3877 521.1754,124.0146 525.9871,125.6202 530.7989,127.1928 535.6107,128.7204 540.4224,130.1921 545.2342,131.5755 550.0459,132.7909 554.8577,133.7033 559.6694,134.0914 564.4812,134.4226 569.2929,134.557 574.1047,134.6595 578.9164,134.8019 583.7282,135.4845 588.5399,138.2743 593.3517,141.1298 598.1635,143.8623 602.9752,146.0608 607.787,147.1237 612.5987,145.469 617.4105,144.2265 622.2222,143.2514"></polyline>
<polyline id="error-erc" class="erc error" points=" 40,88.7353 44.8118,89.7556 49.6235,90.8157 54.4353,92.0192 59.247,93.9702 64.0588,95.9202 68.8705,97.7709 73.6823,99.3896 78.494,100.6083 83.3058,101.1921 88.1175,100.728 92.9293,98.246 97.741,95.993 102.5528,93.9617 107.3646,92.1445 112.1763,90.5336 116.9881,89.1204 121.7998,87.8961 126.6116,86.8518 131.4233,85.9785 136.2351,85.2674 141.0468,84.7099 145.8586,84.2978 150.6703,84.0233 155.4821,83.8793 160.2938,83.8591 165.1056,83.957 169.9174,84.1679 174.7291,84.4803 179.5409,84.8616 184.3526,85.2502 189.1644,85.5495 193.9761,85.618 198.7879,85.8396 203.5996,86.2041 208.4114,86.704 213.2231,87.3343 218.0349,88.092 222.8466,88.9757 227.6584,89.986 232.4702,91.1251 237.2819,92.3973 242.0937,93.8089 246.9054,95.2985 251.7172,96.6362 256.5289,97.3768 261.3407,96.6562 266.1524,96.3474 270.9642,96.425 275.7759,96.8306 280.5877,97.3955 285.3994,97.8034 290.2112,97.515 295.023,95.3606 299.8347,93.4475 304.6465,91.7498 309.4582,90.2457 314.27,88.9159 319.0817,87.7432 323.8935,86.7117 328.7052,85.8067 333.517,85.0142 338.3287,84.321 343.1405,83.7139 347.9522,83.1801 352.764,82.718 357.5758,82.3563 362.3875,82.1615 367.1993,82.2459 372.011,82.7961 376.8228,84.1743 381.6345,85.5121 386.4463,86.8181 391.258,88.1005 396.0698,89.3671 400.8815,90.6252 405.6933,91.8818 410.5051,93.1248 415.3168,94.3035 420.1286,95.3369 424.9403,96.1225 429.7521,96.4353 434.5638,95.8303 439.3756,95.4748 444.1873,95.319 448.9991,95.2328 453.8108,94.9539 458.6226,93.9696 463.4343,93.1556 468.2461,92.5488 473.0579,92.2553 477.8696,92.4583 482.6814,93.486 487.4931,94.3944 492.3049,95.1731 497.1166,95.8703 501.9284,96.762 506.7401,97.8333 511.5519,99.0701 516.3636,100.4581 521.1754,101.9828 525.9871,103.6296 530.7989,105.3835 535.6107,107.2299 540.4224,109.1543 545.2342,111.1059 550.0459,112.9465 554.8577,114.4242 559.6694,115.1073 564.4812,115.7752 569.2929,116.1139 574.1047,116.6505 578.9164,117.3676 583.7282,118.475 588.5399,120.8642 593.3517,123.5872 598.1635,126.457 602.9752,128.8391 607.787,129.7561 612.5987,126.7158 617.4105,124.334 622.2222,122.2781 622.2222,164.2248 617.4105,164.1189 612.5987,164.2222 607.787,164.4913 602.9752,163.2826 598.1635,161.2675 593.3517,158.6723 588.5399,155.6844 583.7282,152.4941 578.9164,152.2361 574.1047,152.6686 569.2929,153.0001 564.4812,153.0699 559.6694,153.0755 554.8577,152.9824 550.0459,152.6353 545.2342,152.0452 540.4224,151.2299 535.6107,150.211 530.7989,149.002 525.9871,147.6109 521.1754,146.0464 516.3636,144.3173 511.5519,142.4325 506.7401,140.4001 501.9284,138.2272 497.1166,135.9185 492.3049,133.4755 487.4931,132.4387 482.6814,131.7501 477.8696,130.9051 473.0579,131.3825 468.2461,132.4201 463.4343,133.5884 458.6226,134.6272 453.8108,135.3965 448.9991,136.2261 444.1873,137.0237 439.3756,137.7086 434.5638,138.2278 429.7521,138.5622 424.9403,138.4441 420.1286,137.942 415.3168,138.1009 410.5051,138.4738 405.6933,138.8149 400.8815,138.9932 396.0698,138.9602 391.258,138.695 386.4463,138.1718 381.6345,137.3593 376.8228,136.2198 372.011,134.7081 367.1993,134.836 362.3875,135.8485 357.5758,137.3133 352.764,138.9479 347.9522,140.5723 343.1405,142.0954 338.3287,143.4951 333.517,144.7733 328.7052,145.9296 323.8935,146.9613 319.0817,147.8633 314.27,148.6283 309.4582,149.246 304.6465,149.7036 299.8347,149.9843 295.023,150.0672 290.2112,149.9252 285.3994,150.2951 280.5877,150.8889 275.7759,151.5394 270.9642,152.1351 266.1524,152.6086 261.3407,152.9296 256.5289,153.0787 251.7172,153.5343 246.9054,154.0912 242.0937,154.6256 237.2819,155.0701 232.4702,155.4012 227.6584,155.6105 222.8466,155.6878 218.0349,155.6206 213.2231,155.3943 208.4114,154.9917 203.5996,154.393 198.7879,153.5751 193.9761,152.5115 189.1644,151.1719 184.3526,151.5268 179.5409,152.6888 174.7291,154.1987 169.9174,155.7821 165.1056,157.2971 160.2938,158.7071 155.4821,160.0163 150.6703,161.2268 145.8586,162.3389 141.0468,163.3514 136.2351,164.2613 131.4233,165.0644 126.6116,165.7547 121.7998,166.3249 116.9881,166.7661 112.1763,167.0679 107.3646,167.2181 102.5528,167.2029 97.741,167.0068 92.9293,166.6123 88.1175,165.9997 83.3058,166.1519 78.494,166.7451 73.6823,167.6202 68.8705,168.6771 64.0588,169.8407 59.247,171.0513 54.4353,172.2654 49.6235,172.7658 44.8118,173.1648 40,173.5633"></polyline>
<text class = "party erc" x="631.1111" y="141"><tspan class="party_name">ERC</tspan><tspan class="party_result"> (23.5±2.6%)</tspan></text>
<polyline id="media-jxcat"  class="jxcat media" points=" 40,225.4679 44.8118,225.3152 49.6235,225.152 54.4353,224.9778 59.247,224.7946 64.0588,224.6102 68.8705,224.4381 73.6823,224.2963 78.494,224.2075 83.3058,224.2045 88.1175,224.3487 92.9293,224.7964 97.741,225.2381 102.5528,225.6702 107.3646,226.0898 112.1763,226.4944 116.9881,226.8822 121.7998,227.2518 126.6116,227.6023 131.4233,227.933 136.2351,228.2434 141.0468,228.5334 145.8586,228.8031 150.6703,229.0525 155.4821,229.282 160.2938,229.4918 165.1056,229.6822 169.9174,229.8538 174.7291,230.0059 179.5409,230.1364 184.3526,230.243 189.1644,230.3236 193.9761,230.3746 198.7879,230.4248 203.5996,230.4704 208.4114,230.5078 213.2231,230.5336 218.0349,230.5447 222.8466,230.5377 227.6584,230.5094 232.4702,230.4562 237.2819,230.3743 242.0937,230.2595 246.9054,230.1263 251.7172,230.0389 256.5289,230.1316 261.3407,230.6918 266.1524,231.183 270.9642,231.6046 275.7759,231.9577 280.5877,232.2543 285.3994,232.5282 290.2112,232.8518 295.023,233.4042 299.8347,233.9863 304.6465,234.5931 309.4582,235.2211 314.27,235.868 319.0817,236.5324 323.8935,237.214 328.7052,237.9131 333.517,238.6311 338.3287,239.3702 343.1405,240.1335 347.9522,240.9251 352.764,241.7358 357.5758,242.5187 362.3875,243.1796 367.1993,243.5689 372.011,243.4538 376.8228,242.4162 381.6345,241.5434 386.4463,240.8142 391.258,240.21 396.0698,239.7146 400.8815,239.3138 405.6933,238.9948 410.5051,238.7514 415.3168,238.5913 420.1286,238.5394 424.9403,238.6555 429.7521,238.8746 434.5638,239.2774 439.3756,239.7445 444.1873,240.2592 448.9991,240.7291 453.8108,240.9607 458.6226,240.5796 463.4343,240.3707 468.2461,240.287 473.0579,240.2457 477.8696,240.106 482.6814,239.6036 487.4931,239.1046 492.3049,238.3327 497.1166,236.6374 501.9284,234.8901 506.7401,233.101 511.5519,231.2813 516.3636,229.4429 521.1754,227.5984 525.9871,225.7606 530.7989,223.9422 535.6107,222.1552 540.4224,220.4105 545.2342,218.747 550.0459,217.267 554.8577,216.1582 559.6694,215.7545 564.4812,215.4741 569.2929,215.6231 574.1047,215.6461 578.9164,215.5219 583.7282,215.0028 588.5399,213.2334 593.3517,211.212 598.1635,209.2243 602.9752,207.5216 607.787,206.4082 612.5987,206.5991 617.4105,206.4662 622.2222,206.4373"></polyline>
<polyline id="error-jxcat" class="jxcat error" points=" 40,189.8178 44.8118,190.2767 49.6235,190.7409 54.4353,191.2959 59.247,192.4555 64.0588,193.6108 68.8705,194.7157 73.6823,195.7074 78.494,196.5066 83.3058,197.0061 88.1175,197.028 92.9293,196.1886 97.741,195.5342 102.5528,195.0496 107.3646,194.7209 112.1763,194.5356 116.9881,194.482 121.7998,194.5496 126.6116,194.7288 131.4233,195.0112 136.2351,195.3893 141.0468,195.8564 145.8586,196.407 150.6703,197.0366 155.4821,197.7416 160.2938,198.5194 165.1056,199.3687 169.9174,200.289 174.7291,201.2591 179.5409,202.202 184.3526,202.9722 189.1644,203.3317 193.9761,202.8384 198.7879,202.5255 203.5996,202.3721 208.4114,202.3603 213.2231,202.4748 218.0349,202.7025 222.8466,203.0319 227.6584,203.4535 232.4702,203.9592 237.2819,204.5423 242.0937,205.1971 246.9054,205.9033 251.7172,206.6032 256.5289,207.1994 261.3407,207.5453 266.1524,208.0632 270.9642,208.7332 275.7759,209.5188 280.5877,210.3342 285.3994,211.0368 290.2112,211.4095 295.023,211.0361 299.8347,210.8886 304.6465,210.9401 309.4582,211.1687 314.27,211.5569 319.0817,212.0904 323.8935,212.7578 328.7052,213.5499 333.517,214.4598 338.3287,215.4828 343.1405,216.616 347.9522,217.8588 352.764,219.1912 357.5758,220.5377 362.3875,221.7525 367.1993,222.6093 372.011,222.7644 376.8228,221.6191 381.6345,220.7826 386.4463,220.218 391.258,219.8941 396.0698,219.7843 400.8815,219.8659 405.6933,220.1195 410.5051,220.5134 415.3168,220.9802 420.1286,221.4105 424.9403,221.6394 429.7521,221.9422 434.5638,222.2506 439.3756,222.8026 444.1873,223.5525 448.9991,224.3303 453.8108,224.7981 458.6226,224.3274 463.4343,224.2132 468.2461,224.3641 473.0579,224.6304 477.8696,224.7645 482.6814,224.3146 487.4931,223.8847 492.3049,222.9791 497.1166,220.5105 501.9284,218.1181 506.7401,215.8085 511.5519,213.5912 516.3636,211.477 521.1754,209.4778 525.9871,207.6055 530.7989,205.872 535.6107,204.2881 540.4224,202.8635 545.2342,201.6232 550.0459,200.6238 554.8577,199.9591 559.6694,199.7926 564.4812,199.7886 569.2929,200.1131 574.1047,200.5043 578.9164,200.8642 583.7282,200.6883 588.5399,198.5126 593.3517,196.3056 598.1635,194.3653 602.9752,192.7623 607.787,191.4888 612.5987,190.5038 617.4105,189.3973 622.2222,188.4445 622.2222,224.4301 617.4105,223.535 612.5987,222.6944 607.787,221.3276 602.9752,222.2808 598.1635,224.0833 593.3517,226.1185 588.5399,227.9543 583.7282,229.3173 578.9164,230.1796 574.1047,230.788 569.2929,231.1332 564.4812,231.1596 559.6694,231.7164 554.8577,232.3574 550.0459,233.9101 545.2342,235.8708 540.4224,237.9575 535.6107,240.0222 530.7989,242.0124 525.9871,243.9157 521.1754,245.719 516.3636,247.4087 511.5519,248.9713 506.7401,250.3935 501.9284,251.6622 497.1166,252.7643 492.3049,253.6863 487.4931,254.3245 482.6814,254.8925 477.8696,255.4474 473.0579,255.861 468.2461,256.2099 463.4343,256.5283 458.6226,256.8317 453.8108,257.1233 448.9991,257.128 444.1873,256.966 439.3756,256.6863 434.5638,256.3041 429.7521,255.807 424.9403,255.6717 420.1286,255.6683 415.3168,256.2025 410.5051,256.9894 405.6933,257.8701 400.8815,258.7618 396.0698,259.6449 391.258,260.5258 386.4463,261.4104 381.6345,262.3043 376.8228,263.2133 372.011,264.1432 367.1993,264.5285 362.3875,264.6067 357.5758,264.4997 352.764,264.2803 347.9522,263.9914 343.1405,263.651 338.3287,263.2576 333.517,262.8024 328.7052,262.2763 323.8935,261.6701 319.0817,260.9744 314.27,260.1791 309.4582,259.2735 304.6465,258.2461 299.8347,257.0839 295.023,255.7723 290.2112,254.294 285.3994,254.0197 280.5877,254.1744 275.7759,254.3966 270.9642,254.4761 266.1524,254.3029 261.3407,253.8382 256.5289,253.0637 251.7172,253.4745 246.9054,254.3494 242.0937,255.3219 237.2819,256.2064 232.4702,256.9531 227.6584,257.5652 222.8466,258.0435 218.0349,258.3869 213.2231,258.5924 208.4114,258.6552 203.5996,258.5686 198.7879,258.324 193.9761,257.9107 189.1644,257.3154 184.3526,257.5138 179.5409,258.0708 174.7291,258.7527 169.9174,259.4186 165.1056,259.9958 160.2938,260.4641 155.4821,260.8224 150.6703,261.0684 145.8586,261.1992 141.0468,261.2105 136.2351,261.0976 131.4233,260.8547 126.6116,260.4759 121.7998,259.9541 116.9881,259.2824 112.1763,258.4532 107.3646,257.4586 102.5528,256.2909 97.741,254.9421 92.9293,253.4042 88.1175,251.6693 83.3058,251.4029 78.494,251.9084 73.6823,252.8853 68.8705,254.1605 64.0588,255.6095 59.247,257.1336 54.4353,258.6597 49.6235,259.5631 44.8118,260.3537 40,261.1179"></polyline>
<text class = "party jxcat" x="631.1111" y="197"><tspan class="party_name">JxCAT</tspan><tspan class="party_result"> (15.7±2.2%)</tspan></text>
<polyline id="media-cec"  class="cec media" points=" 40,241.5095 44.8118,241.2687 49.6235,241.0169 54.4353,240.7537 59.247,240.4819 64.0588,240.212 68.8705,239.9614 73.6823,239.7525 78.494,239.6134 83.3058,239.5842 88.1175,239.74 92.9293,240.272 97.741,240.7903 102.5528,241.2907 107.3646,241.7702 112.1763,242.2264 116.9881,242.6579 121.7998,243.0636 126.6116,243.4433 131.4233,243.797 136.2351,244.1253 141.0468,244.429 145.8586,244.7092 150.6703,244.9674 155.4821,245.2053 160.2938,245.4247 165.1056,245.6278 169.9174,245.8167 174.7291,245.9896 179.5409,246.1328 184.3526,246.2186 189.1644,246.1973 193.9761,245.9624 198.7879,245.7281 203.5996,245.4904 208.4114,245.2458 213.2231,244.9909 218.0349,244.7225 222.8466,244.4378 227.6584,244.1339 232.4702,243.8077 237.2819,243.4563 242.0937,243.0766 246.9054,242.688 251.7172,242.3653 256.5289,242.2537 261.3407,242.6477 266.1524,242.935 270.9642,243.1207 275.7759,243.2171 280.5877,243.2579 285.3994,243.3063 290.2112,243.4717 295.023,244.0013 299.8347,244.4974 304.6465,244.9561 309.4582,245.3749 314.27,245.7518 319.0817,246.0853 323.8935,246.3743 328.7052,246.618 333.517,246.8155 338.3287,246.9659 343.1405,247.068 347.9522,247.1206 352.764,247.1276 357.5758,247.1097 362.3875,247.1105 367.1993,247.2022 372.011,247.5006 376.8228,248.2155 381.6345,248.8557 386.4463,249.4258 391.258,249.9303 396.0698,250.3733 400.8815,250.7595 405.6933,251.0933 410.5051,251.3688 415.3168,251.5551 420.1286,251.5864 424.9403,251.3245 429.7521,251.2897 434.5638,251.6273 439.3756,251.9013 444.1873,252.1179 448.9991,252.3302 453.8108,252.6679 458.6226,253.4097 463.4343,254.0791 468.2461,254.682 473.0579,255.2402 477.8696,255.7961 482.6814,256.4281 487.4931,256.9855 492.3049,257.4482 497.1166,257.8047 501.9284,258.2408 506.7401,258.744 511.5519,259.3035 516.3636,259.9093 521.1754,260.5521 525.9871,261.2232 530.7989,261.9142 535.6107,262.6172 540.4224,263.3248 545.2342,264.0192 550.0459,264.6581 554.8577,265.1787 559.6694,265.4979 564.4812,265.9275 569.2929,266.5272 574.1047,267.239 578.9164,267.9677 583.7282,268.3641 588.5399,267.55 593.3517,266.9647 598.1635,266.5466 602.9752,266.3062 607.787,266.3007 612.5987,266.7657 617.4105,267.2396 622.2222,267.5435"></polyline>
<polyline id="error-cec" class="cec error" points=" 40,214.2341 44.8118,214.5796 49.6235,214.9291 54.4353,215.3325 59.247,216.0865 64.0588,216.8393 68.8705,217.5626 73.6823,218.2179 78.494,218.7558 83.3058,219.1101 88.1175,219.1747 92.9293,218.7306 97.741,218.4181 102.5528,218.2245 107.3646,218.1387 112.1763,218.1505 116.9881,218.2508 121.7998,218.432 126.6116,218.6869 131.4233,219.0098 136.2351,219.3956 141.0468,219.8404 145.8586,220.341 150.6703,220.8951 155.4821,221.5015 160.2938,222.1597 165.1056,222.8706 169.9174,223.6357 174.7291,224.4369 179.5409,225.2029 184.3526,225.7956 189.1644,225.9836 193.9761,225.3217 198.7879,224.7982 203.5996,224.3964 208.4114,224.1021 213.2231,223.9028 218.0349,223.788 222.8466,223.7485 227.6584,223.7765 232.4702,223.8658 237.2819,224.0109 242.0937,224.2076 246.9054,224.4492 251.7172,224.7184 256.5289,224.9849 261.3407,225.2152 266.1524,225.5205 270.9642,225.8919 275.7759,226.3132 280.5877,226.7442 285.3994,227.1149 290.2112,227.3156 295.023,227.1427 299.8347,227.084 304.6465,227.1189 309.4582,227.2308 314.27,227.4061 319.0817,227.6336 323.8935,227.9036 328.7052,228.208 333.517,228.5397 338.3287,228.8924 343.1405,229.2604 347.9522,229.6388 352.764,230.0238 357.5758,230.4164 362.3875,230.825 367.1993,231.2691 372.011,231.7892 376.8228,232.4752 381.6345,233.1898 386.4463,233.9256 391.258,234.6776 396.0698,235.4423 400.8815,236.2182 405.6933,237.0051 410.5051,237.7776 415.3168,238.447 420.1286,238.8442 424.9403,238.6566 429.7521,238.6791 434.5638,238.9474 439.3756,239.284 444.1873,239.6737 448.9991,240.1148 453.8108,240.6362 458.6226,241.3412 463.4343,242.1067 468.2461,242.9059 473.0579,243.7123 477.8696,244.4924 482.6814,245.1923 487.4931,245.8274 492.3049,246.2197 497.1166,246.047 501.9284,246.0547 506.7401,246.2267 511.5519,246.5496 516.3636,247.0113 521.1754,247.6007 525.9871,248.3067 530.7989,249.119 535.6107,250.0273 540.4224,251.0218 545.2342,252.0724 550.0459,253.1005 554.8577,253.9713 559.6694,254.4753 564.4812,255.1181 569.2929,255.8583 574.1047,256.8511 578.9164,257.9436 583.7282,258.5994 588.5399,257.5019 593.3517,256.7978 598.1635,256.428 602.9752,256.2732 607.787,256.1714 612.5987,255.8299 617.4105,255.6427 622.2222,255.3125 622.2222,279.7745 617.4105,278.8365 612.5987,277.7016 607.787,276.43 602.9752,276.3391 598.1635,276.6652 593.3517,277.1316 588.5399,277.5981 583.7282,278.1289 578.9164,277.9918 574.1047,277.6269 569.2929,277.1961 564.4812,276.7368 559.6694,276.5206 554.8577,276.386 550.0459,276.2158 545.2342,275.9659 540.4224,275.6278 535.6107,275.207 530.7989,274.7094 525.9871,274.1397 521.1754,273.5036 516.3636,272.8072 511.5519,272.0573 506.7401,271.2613 501.9284,270.427 497.1166,269.5624 492.3049,268.6767 487.4931,268.1435 482.6814,267.664 477.8696,267.0998 473.0579,266.7682 468.2461,266.4581 463.4343,266.0515 458.6226,265.4782 453.8108,264.6997 448.9991,264.5456 444.1873,264.5621 439.3756,264.5186 434.5638,264.3072 429.7521,263.9003 424.9403,263.9924 420.1286,264.3286 415.3168,264.6632 410.5051,264.9601 405.6933,265.1815 400.8815,265.3008 396.0698,265.3044 391.258,265.1829 386.4463,264.9261 381.6345,264.5217 376.8228,263.9557 372.011,263.2119 367.1993,263.1352 362.3875,263.396 357.5758,263.8029 352.764,264.2314 347.9522,264.6024 343.1405,264.8756 338.3287,265.0394 333.517,265.0913 328.7052,265.028 323.8935,264.8451 319.0817,264.537 314.27,264.0975 309.4582,263.5191 304.6465,262.7934 299.8347,261.9108 295.023,260.86 290.2112,259.6279 285.3994,259.4978 280.5877,259.7716 275.7759,260.121 270.9642,260.3495 266.1524,260.3494 261.3407,260.0803 256.5289,259.5226 251.7172,260.0123 246.9054,260.9268 242.0937,261.9455 237.2819,262.9018 232.4702,263.7496 227.6584,264.4912 222.8466,265.1272 218.0349,265.6571 213.2231,266.0789 208.4114,266.3894 203.5996,266.5844 198.7879,266.658 193.9761,266.6032 189.1644,266.411 184.3526,266.6417 179.5409,267.0628 174.7291,267.5423 169.9174,267.9978 165.1056,268.3849 160.2938,268.6897 155.4821,268.9092 150.6703,269.0398 145.8586,269.0774 141.0468,269.0175 136.2351,268.8549 131.4233,268.5842 126.6116,268.1997 121.7998,267.6953 116.9881,267.0649 112.1763,266.3024 107.3646,265.4016 102.5528,264.3568 97.741,263.1625 92.9293,261.8135 88.1175,260.3053 83.3058,260.0582 78.494,260.471 73.6823,261.287 68.8705,262.3601 64.0588,263.5848 59.247,264.8773 54.4353,266.1748 49.6235,267.1046 44.8118,267.9577 40,268.7849"></polyline>
<text class = "party cec" x="631.1111" y="254"><tspan class="party_name">CeC</tspan><tspan class="party_result"> (8.1±1.5%)</tspan></text>
<polyline id="media-psc"  class="psc media" points=" 40,223.9888 44.8118,223.9213 49.6235,223.8463 54.4353,223.7629 59.247,223.6722 64.0588,223.5793 68.8705,223.4938 73.6823,223.429 78.494,223.403 83.3058,223.4425 88.1175,223.599 92.9293,224.0026 97.741,224.4189 102.5528,224.8466 107.3646,225.2845 112.1763,225.7321 116.9881,226.1893 121.7998,226.6563 126.6116,227.1339 131.4233,227.6231 136.2351,228.1256 141.0468,228.6435 145.8586,229.1792 150.6703,229.7357 155.4821,230.3168 160.2938,230.9267 165.1056,231.5703 169.9174,232.2535 174.7291,232.9565 179.5409,233.5921 184.3526,233.9885 189.1644,233.8489 193.9761,232.5608 198.7879,231.375 203.5996,230.282 208.4114,229.2727 213.2231,228.3381 218.0349,227.4693 222.8466,226.6579 227.6584,225.8957 232.4702,225.1745 237.2819,224.4864 242.0937,223.8232 246.9054,223.204 251.7172,222.7115 256.5289,222.508 261.3407,222.9289 266.1524,223.2612 270.9642,223.5173 275.7759,223.709 280.5877,223.8544 285.3994,223.9836 290.2112,224.1486 295.023,224.4678 299.8347,224.7963 304.6465,225.1341 309.4582,225.4823 314.27,225.8426 319.0817,226.2172 323.8935,226.6089 328.7052,227.0211 333.517,227.4575 338.3287,227.9227 343.1405,228.4221 347.9522,228.9616 352.764,229.5338 357.5758,230.091 362.3875,230.5339 367.1993,230.7002 372.011,230.3319 376.8228,228.961 381.6345,227.7497 386.4463,226.6798 391.258,225.7356 396.0698,224.9032 400.8815,224.1705 405.6933,223.5266 410.5051,222.9712 415.3168,222.5232 420.1286,222.2199 424.9403,222.1342 429.7521,221.9104 434.5638,221.4512 439.3756,220.9877 444.1873,220.5416 448.9991,220.1811 453.8108,220.0394 458.6226,220.3762 463.4343,220.6725 468.2461,220.9063 473.0579,221.006 477.8696,220.8422 482.6814,220.1795 487.4931,219.6174 492.3049,219.1317 497.1166,218.6576 501.9284,218.1248 506.7401,217.5423 511.5519,216.9184 516.3636,216.2606 521.1754,215.5764 525.9871,214.8731 530.7989,214.158 535.6107,213.438 540.4224,212.72 545.2342,212.0115 550.0459,211.3153 554.8577,210.6445 559.6694,210.053 564.4812,209.7768 569.2929,210.2201 574.1047,210.5263 578.9164,210.7018 583.7282,210.6954 588.5399,210.3036 593.3517,209.7925 598.1635,209.2724 602.9752,208.8509 607.787,208.6938 612.5987,209.2368 617.4105,209.6812 622.2222,210.0408"></polyline>
<polyline id="error-psc" class="psc error" points=" 40,191.7417 44.8118,192.2915 49.6235,192.8496 54.4353,193.4847 59.247,194.6094 64.0588,195.7284 68.8705,196.7975 73.6823,197.7573 78.494,198.5338 83.3058,199.0278 88.1175,199.075 92.9293,198.3185 97.741,197.7474 102.5528,197.3499 107.3646,197.1155 112.1763,197.0345 116.9881,197.0981 121.7998,197.2985 126.6116,197.6287 131.4233,198.0829 136.2351,198.6563 141.0468,199.3452 145.8586,200.147 150.6703,201.0607 155.4821,202.0862 160.2938,203.2255 165.1056,204.4816 169.9174,205.86 174.7291,207.3207 179.5409,208.706 184.3526,209.7091 189.1644,209.8108 193.9761,207.9815 198.7879,206.4201 203.5996,205.1025 208.4114,204.007 213.2231,203.1141 218.0349,202.4062 222.8466,201.8674 227.6584,201.484 232.4702,201.2435 237.2819,201.1352 242.0937,201.1498 246.9054,201.2746 251.7172,201.4827 256.5289,201.7265 261.3407,201.9492 266.1524,202.3011 270.9642,202.7778 275.7759,203.3577 280.5877,203.9698 285.3994,204.4841 290.2112,204.6893 295.023,204.1603 299.8347,203.8178 304.6465,203.6422 309.4582,203.618 314.27,203.7334 319.0817,203.9792 323.8935,204.3482 328.7052,204.8354 333.517,205.4372 338.3287,206.152 343.1405,206.9798 347.9522,207.9225 352.764,208.9628 357.5758,210.027 362.3875,210.9685 367.1993,211.5544 372.011,211.4249 376.8228,209.945 381.6345,208.7563 386.4463,207.8267 391.258,207.1288 396.0698,206.6395 400.8815,206.3392 405.6933,206.211 410.5051,206.2315 415.3168,206.351 420.1286,206.4839 424.9403,206.4964 429.7521,206.3381 434.5638,205.7699 439.3756,205.3605 444.1873,205.1063 448.9991,205.0088 453.8108,205.076 458.6226,205.348 463.4343,205.7443 468.2461,206.2022 473.0579,206.5889 477.8696,206.6772 482.6814,206.0598 487.4931,205.5606 492.3049,204.9591 497.1166,203.8031 501.9284,202.7079 506.7401,201.6787 511.5519,200.7211 516.3636,199.8411 521.1754,199.0447 525.9871,198.3379 530.7989,197.7267 535.6107,197.2164 540.4224,196.8123 545.2342,196.5084 550.0459,196.2637 554.8577,196.0033 559.6694,195.6219 564.4812,195.5957 569.2929,196.2041 574.1047,196.8494 578.9164,197.4687 583.7282,197.782 588.5399,197.0481 593.3517,196.3965 598.1635,195.9447 602.9752,195.6347 607.787,195.3503 612.5987,194.8468 617.4105,194.4309 622.2222,193.9715 622.2222,226.1101 617.4105,224.9315 612.5987,223.6268 607.787,222.0372 602.9752,222.0671 598.1635,222.6001 593.3517,223.1885 588.5399,223.5592 583.7282,223.6089 578.9164,223.9349 574.1047,224.2031 569.2929,224.236 564.4812,223.958 559.6694,224.4841 554.8577,225.2858 550.0459,226.3669 545.2342,227.5147 540.4224,228.6278 535.6107,229.6596 530.7989,230.5892 525.9871,231.4083 521.1754,232.1081 516.3636,232.6801 511.5519,233.1156 506.7401,233.4059 501.9284,233.5416 497.1166,233.512 492.3049,233.3043 487.4931,233.6742 482.6814,234.2992 477.8696,235.0072 473.0579,235.4232 468.2461,235.6104 463.4343,235.6008 458.6226,235.4044 453.8108,235.0028 448.9991,235.3533 444.1873,235.9768 439.3756,236.6149 434.5638,237.1324 429.7521,237.4827 424.9403,237.7719 420.1286,237.9559 415.3168,238.6953 410.5051,239.7108 405.6933,240.8421 400.8815,242.0018 396.0698,243.1669 391.258,244.3424 386.4463,245.533 381.6345,246.7431 376.8228,247.977 372.011,249.2389 367.1993,249.8459 362.3875,250.0994 357.5758,250.1551 352.764,250.1047 347.9522,250.0007 343.1405,249.8643 338.3287,249.6935 333.517,249.4778 328.7052,249.2067 323.8935,248.8696 319.0817,248.4552 314.27,247.9518 309.4582,247.3467 304.6465,246.6261 299.8347,245.7748 295.023,244.7754 290.2112,243.608 285.3994,243.483 280.5877,243.739 275.7759,244.0604 270.9642,244.2567 266.1524,244.2213 261.3407,243.9087 256.5289,243.2894 251.7172,243.9403 246.9054,245.1335 242.0937,246.4967 237.2819,247.8376 232.4702,249.1055 227.6584,250.3073 222.8466,251.4484 218.0349,252.5324 213.2231,253.562 208.4114,254.5384 203.5996,255.4616 198.7879,256.3299 193.9761,257.1402 189.1644,257.8869 184.3526,258.2679 179.5409,258.4782 174.7291,258.5923 169.9174,258.6471 165.1056,258.6589 160.2938,258.6279 155.4821,258.5474 150.6703,258.4108 145.8586,258.2113 141.0468,257.9418 136.2351,257.5949 131.4233,257.1633 126.6116,256.639 121.7998,256.0141 116.9881,255.2805 112.1763,254.4298 107.3646,253.4535 102.5528,252.3433 97.741,251.0905 92.9293,249.6867 88.1175,248.123 83.3058,247.8573 78.494,248.2722 73.6823,249.1008 68.8705,250.19 64.0588,251.4302 59.247,252.735 54.4353,254.0411 49.6235,254.843 44.8118,255.5512 40,256.236"></polyline>
<text class = "party psc" x="631.1111" y="219"><tspan class="party_name">PSC</tspan><tspan class="party_result"> (15.3±2.0%)</tspan></text>
<polyline id="media-cs"  class="cs media" points=" 40,187.9265 44.8118,188.1059 49.6235,188.2921 54.4353,188.4852 59.247,188.683 64.0588,188.8786 68.8705,189.0606 73.6823,189.2147 78.494,189.3233 83.3058,189.3619 88.1175,189.2851 92.9293,188.9764 97.741,188.6841 102.5528,188.411 107.3646,188.1593 112.1763,187.9307 116.9881,187.7266 121.7998,187.5478 126.6116,187.3948 131.4233,187.2678 136.2351,187.1669 141.0468,187.092 145.8586,187.0429 150.6703,187.0192 155.4821,187.0207 160.2938,187.0469 165.1056,187.0977 169.9174,187.1727 174.7291,187.2673 179.5409,187.3658 184.3526,187.439 189.1644,187.4389 193.9761,187.2707 198.7879,187.1389 203.5996,187.0441 208.4114,186.9865 213.2231,186.9663 218.0349,186.9836 222.8466,187.0385 227.6584,187.1313 232.4702,187.2621 237.2819,187.4314 242.0937,187.6395 246.9054,187.8729 251.7172,188.0846 256.5289,188.186 261.3407,188.0054 266.1524,187.9199 270.9642,187.9301 275.7759,188.0233 280.5877,188.1513 285.3994,188.2198 290.2112,188.0652 295.023,187.3084 299.8347,186.5996 304.6465,185.9404 309.4582,185.3313 314.27,184.7728 319.0817,184.2648 323.8935,183.807 328.7052,183.3989 333.517,183.0398 338.3287,182.7293 343.1405,182.4668 347.9522,182.2517 352.764,182.0819 357.5758,181.9496 362.3875,181.8383 367.1993,181.7206 372.011,181.5528 376.8228,181.2582 381.6345,181.0107 386.4463,180.8131 391.258,180.6681 396.0698,180.5784 400.8815,180.5472 405.6933,180.5784 410.5051,180.649 415.3168,180.6636 420.1286,180.4236 424.9403,179.5341 429.7521,178.7914 434.5638,178.1392 439.3756,177.5325 444.1873,176.9849 448.9991,176.5127 453.8108,176.1291 458.6226,175.8406 463.4343,175.5671 468.2461,175.2932 473.0579,174.9607 477.8696,174.4608 482.6814,173.5952 487.4931,172.853 492.3049,172.2489 497.1166,171.786 501.9284,171.2359 506.7401,170.6109 511.5519,169.922 516.3636,169.1793 521.1754,168.3926 525.9871,167.5711 530.7989,166.7238 535.6107,165.8591 540.4224,164.9852 545.2342,164.1249 550.0459,163.336 554.8577,162.6853 559.6694,162.2029 564.4812,161.2472 569.2929,159.3511 574.1047,157.2698 578.9164,155.1969 583.7282,153.9057 588.5399,155.3175 593.3517,156.0467 598.1635,156.4088 602.9752,156.615 607.787,156.959 612.5987,158.1059 617.4105,159.1459 622.2222,159.9838"></polyline>
<polyline id="error-cs" class="cs error" points=" 40,153.4406 44.8118,154.2849 49.6235,155.1535 54.4353,156.1198 59.247,157.613 64.0588,159.1007 68.8705,160.5138 73.6823,161.7596 78.494,162.7224 83.3058,163.2419 88.1175,163.0408 92.9293,161.4774 97.741,160.1121 102.5528,158.9374 107.3646,157.9454 112.1763,157.1287 116.9881,156.4793 121.7998,155.9898 126.6116,155.6528 131.4233,155.4612 136.2351,155.4084 141.0468,155.4882 145.8586,155.6954 150.6703,156.025 155.4821,156.4732 160.2938,157.0371 165.1056,157.7145 169.9174,158.5045 174.7291,159.3826 179.5409,160.2605 184.3526,160.9705 189.1644,161.2359 193.9761,160.5368 198.7879,160.0496 203.5996,159.7585 208.4114,159.6504 213.2231,159.7139 218.0349,159.9398 222.8466,160.3207 227.6584,160.8506 232.4702,161.5257 237.2819,162.3433 242.0937,163.303 246.9054,164.3562 251.7172,165.3352 256.5289,165.9215 261.3407,165.511 266.1524,165.4325 270.9642,165.6687 275.7759,166.1706 280.5877,166.7937 285.3994,167.2698 290.2112,167.1485 295.023,165.4581 299.8347,164.0043 304.6465,162.7678 309.4582,161.7323 314.27,160.8839 319.0817,160.2105 323.8935,159.7013 328.7052,159.3469 333.517,159.1391 338.3287,159.0706 343.1405,159.1354 347.9522,159.3284 352.764,159.6376 357.5758,160.0286 362.3875,160.4372 367.1993,160.7647 372.011,160.8641 376.8228,160.492 381.6345,160.3044 386.4463,160.2894 391.258,160.4375 396.0698,160.7418 400.8815,161.1979 405.6933,161.8037 410.5051,162.5109 415.3168,163.1482 420.1286,163.3803 424.9403,162.5815 429.7521,161.9011 434.5638,161.1317 439.3756,160.5843 444.1873,160.2448 448.9991,160.0563 453.8108,159.8941 458.6226,159.5219 463.4343,159.3434 468.2461,159.3003 473.0579,159.2691 477.8696,159.0369 482.6814,158.222 487.4931,157.5491 492.3049,156.8219 497.1166,155.6269 501.9284,154.4743 506.7401,153.3719 511.5519,152.3277 516.3636,151.3499 521.1754,150.4463 525.9871,149.6249 530.7989,148.8931 535.6107,148.2575 540.4224,147.7244 545.2342,147.3026 550.0459,147.0039 554.8577,146.8004 559.6694,146.5504 564.4812,145.8553 569.2929,144.0983 574.1047,142.3459 578.9164,140.7206 583.7282,139.7588 588.5399,140.8271 593.3517,141.4255 598.1635,141.878 602.9752,142.2168 607.787,142.4315 612.5987,142.4528 617.4105,142.5706 622.2222,142.531 622.2222,177.4366 617.4105,175.7211 612.5987,173.759 607.787,171.4866 602.9752,171.0133 598.1635,170.9397 593.3517,170.6679 588.5399,169.808 583.7282,168.0526 578.9164,169.6733 574.1047,172.1938 569.2929,174.6038 564.4812,176.6391 559.6694,177.8554 554.8577,178.5703 550.0459,179.6682 545.2342,180.9471 540.4224,182.2459 535.6107,183.4608 530.7989,184.5545 525.9871,185.5172 521.1754,186.3388 516.3636,187.0088 511.5519,187.5162 506.7401,187.8499 501.9284,187.9974 497.1166,187.9451 492.3049,187.676 487.4931,188.1568 482.6814,188.9683 477.8696,189.8847 473.0579,190.6524 468.2461,191.2862 463.4343,191.7908 458.6226,192.1592 453.8108,192.364 448.9991,192.9691 444.1873,193.725 439.3756,194.4808 434.5638,195.1466 429.7521,195.6817 424.9403,196.4866 420.1286,197.4668 415.3168,198.179 410.5051,198.7871 405.6933,199.3531 400.8815,199.8965 396.0698,200.415 391.258,200.8987 386.4463,201.3368 381.6345,201.7169 376.8228,202.0244 372.011,202.2416 367.1993,202.6765 362.3875,203.2394 357.5758,203.8706 352.764,204.5262 347.9522,205.1749 343.1405,205.7981 338.3287,206.388 333.517,206.9406 328.7052,207.4508 323.8935,207.9127 319.0817,208.3192 314.27,208.6618 309.4582,208.9304 304.6465,209.1129 299.8347,209.195 295.023,209.1587 290.2112,208.9818 285.3994,209.1699 280.5877,209.5089 275.7759,209.8761 270.9642,210.1914 266.1524,210.4073 261.3407,210.4998 256.5289,210.4505 251.7172,210.8339 246.9054,211.3897 242.0937,211.976 237.2819,212.5194 232.4702,212.9986 227.6584,213.412 222.8466,213.7564 218.0349,214.0274 213.2231,214.2187 208.4114,214.3226 203.5996,214.3297 198.7879,214.2283 193.9761,214.0046 189.1644,213.6418 184.3526,213.9075 179.5409,214.4711 174.7291,215.152 169.9174,215.8408 165.1056,216.4809 160.2938,217.0568 155.4821,217.5681 150.6703,218.0134 145.8586,218.3904 141.0468,218.6958 136.2351,218.9255 131.4233,219.0744 126.6116,219.1368 121.7998,219.1058 116.9881,218.9739 112.1763,218.7328 107.3646,218.3731 102.5528,217.8846 97.741,217.2561 92.9293,216.4755 88.1175,215.5293 83.3058,215.482 78.494,215.9242 73.6823,216.6698 68.8705,217.6075 64.0588,218.6565 59.247,219.7529 54.4353,220.8505 49.6235,221.4307 44.8118,221.927 40,222.4124"></polyline>
<text class = "party cs" x="631.1111" y="162"><tspan class="party_name">C's</tspan><tspan class="party_result"> (21.5±2.2%)</tspan></text>
<polyline id="media-pp"  class="pp media" points=" 40,256.9451 44.8118,256.8989 49.6235,256.8537 54.4353,256.8097 59.247,256.7672 64.0588,256.727 68.8705,256.6896 73.6823,256.6552 78.494,256.6235 83.3058,256.5933 88.1175,256.562 92.9293,256.5234 97.741,256.4745 102.5528,256.4149 107.3646,256.3445 112.1763,256.2631 116.9881,256.1705 121.7998,256.0666 126.6116,255.9514 131.4233,255.8245 136.2351,255.686 141.0468,255.5353 145.8586,255.3722 150.6703,255.1963 155.4821,255.0069 160.2938,254.8032 165.1056,254.5845 169.9174,254.3497 174.7291,254.1055 179.5409,253.8785 184.3526,253.7197 189.1644,253.7147 193.9761,254.0366 198.7879,254.3159 203.5996,254.5554 208.4114,254.7576 213.2231,254.9251 218.0349,255.0606 222.8466,255.1665 227.6584,255.2456 232.4702,255.3003 237.2819,255.3335 242.0937,255.3482 246.9054,255.3419 251.7172,255.2964 256.5289,255.1659 261.3407,254.8392 266.1524,254.4787 270.9642,254.0784 275.7759,253.6489 280.5877,253.2405 285.3994,252.9495 290.2112,252.9398 295.023,253.5932 299.8347,254.1857 304.6465,254.7214 309.4582,255.2036 314.27,255.6353 319.0817,256.019 323.8935,256.3568 328.7052,256.6507 333.517,256.902 338.3287,257.1121 343.1405,257.2818 347.9522,257.4115 352.764,257.5045 357.5758,257.5732 362.3875,257.643 367.1993,257.7559 372.011,257.9798 376.8228,258.4377 381.6345,258.8551 386.4463,259.2342 391.258,259.5774 396.0698,259.8876 400.8815,260.168 405.6933,260.4224 410.5051,260.6406 415.3168,260.7766 420.1286,260.7337 424.9403,260.3118 429.7521,260.1859 434.5638,260.5239 439.3756,260.8267 444.1873,261.0912 448.9991,261.3059 453.8108,261.4507 458.6226,261.4889 463.4343,261.5142 468.2461,261.5211 473.0579,261.5092 477.8696,261.4898 482.6814,261.5016 487.4931,261.5678 492.3049,261.8134 497.1166,262.5378 501.9284,263.2982 506.7401,264.0899 511.5519,264.9079 516.3636,265.7469 521.1754,266.601 525.9871,267.4644 530.7989,268.3306 535.6107,269.1933 540.4224,270.0463 545.2342,270.8845 550.0459,271.7149 554.8577,272.5581 559.6694,273.4532 564.4812,274.222 569.2929,274.6916 574.1047,275.4047 578.9164,276.2791 583.7282,277.0199 588.5399,276.9832 593.3517,277.5392 598.1635,278.2595 602.9752,278.92 607.787,279.2293 612.5987,278.5102 617.4105,277.9856 622.2222,277.5425"></polyline>
<polyline id="error-pp" class="pp error" points=" 40,229.4618 44.8118,229.9909 49.6235,230.535 54.4353,231.1496 59.247,232.16 64.0588,233.1683 68.8705,234.1284 73.6823,234.9773 78.494,235.6358 83.3058,235.9938 88.1175,235.8621 92.9293,234.8094 97.741,233.8918 102.5528,233.1011 107.3646,232.4293 112.1763,231.8689 116.9881,231.4128 121.7998,231.054 126.6116,230.7861 131.4233,230.6031 136.2351,230.4992 141.0468,230.4693 145.8586,230.5088 150.6703,230.6135 155.4821,230.7798 160.2938,231.0048 165.1056,231.286 169.9174,231.6218 174.7291,232.0028 179.5409,232.3984 184.3526,232.7494 189.1644,232.9604 193.9761,232.8689 198.7879,232.8751 203.5996,232.9684 208.4114,233.1405 213.2231,233.3847 218.0349,233.6959 222.8466,234.0706 227.6584,234.5064 232.4702,235.0023 237.2819,235.5589 242.0937,236.1782 246.9054,236.8297 251.7172,237.3977 256.5289,237.6512 261.3407,237.1292 266.1524,236.7614 270.9642,236.5274 275.7759,236.409 280.5877,236.3822 285.3994,236.4081 290.2112,236.4281 295.023,236.3678 299.8347,236.397 304.6465,236.5027 309.4582,236.6741 314.27,236.9026 319.0817,237.1806 323.8935,237.5018 328.7052,237.8605 333.517,238.252 338.3287,238.672 343.1405,239.1168 347.9522,239.5832 352.764,240.0665 357.5758,240.5584 362.3875,241.0477 367.1993,241.5218 372.011,241.97 376.8228,242.3899 381.6345,242.8758 386.4463,243.418 391.258,244.0092 396.0698,244.6443 400.8815,245.3203 405.6933,246.036 410.5051,246.7613 415.3168,247.3904 420.1286,247.7195 424.9403,247.3677 429.7521,247.2974 434.5638,247.565 439.3756,247.9333 444.1873,248.377 448.9991,248.8264 453.8108,249.1533 458.6226,249.1318 463.4343,249.2355 468.2461,249.4254 473.0579,249.651 477.8696,249.8448 482.6814,249.9076 487.4931,250.0389 492.3049,250.205 497.1166,250.3943 501.9284,250.7231 506.7401,251.1831 511.5519,251.7666 516.3636,252.4658 521.1754,253.273 525.9871,254.1799 530.7989,255.1781 535.6107,256.2587 540.4224,257.4128 545.2342,258.6231 550.0459,259.861 554.8577,261.0758 559.6694,262.1807 564.4812,263.1804 569.2929,263.7904 574.1047,264.7924 578.9164,266.0452 583.7282,267.0632 588.5399,266.7612 593.3517,267.2332 598.1635,268.0398 602.9752,268.8167 607.787,269.0392 612.5987,267.4631 617.4105,266.2314 622.2222,265.1143 622.2222,289.9706 617.4105,289.7398 612.5987,289.5572 607.787,289.4193 602.9752,289.0233 598.1635,288.4793 593.3517,287.8453 588.5399,287.2051 583.7282,286.9765 578.9164,286.5129 574.1047,286.017 569.2929,285.5929 564.4812,285.2636 559.6694,284.7257 554.8577,284.0403 550.0459,283.5689 545.2342,283.1459 540.4224,282.6798 535.6107,282.1279 530.7989,281.483 525.9871,280.7488 521.1754,279.9291 516.3636,279.0279 511.5519,278.0492 506.7401,276.9966 501.9284,275.8732 497.1166,274.6813 492.3049,273.4218 487.4931,273.0966 482.6814,273.0956 477.8696,273.1348 473.0579,273.3674 468.2461,273.6169 463.4343,273.7929 458.6226,273.8459 453.8108,273.7481 448.9991,273.7855 444.1873,273.8055 439.3756,273.7201 434.5638,273.4828 429.7521,273.0743 424.9403,273.2558 420.1286,273.748 415.3168,274.1629 410.5051,274.5199 405.6933,274.8087 400.8815,275.0158 396.0698,275.1309 391.258,275.1456 386.4463,275.0503 381.6345,274.8344 376.8228,274.4855 372.011,273.9895 367.1993,273.9899 362.3875,274.2382 357.5758,274.588 352.764,274.9426 347.9522,275.2398 343.1405,275.4467 338.3287,275.5522 333.517,275.552 328.7052,275.4408 323.8935,275.2119 319.0817,274.8573 314.27,274.3679 309.4582,273.733 304.6465,272.9401 299.8347,271.9745 295.023,270.8187 290.2112,269.4515 285.3994,269.4909 280.5877,270.0988 275.7759,270.8888 270.9642,271.6295 266.1524,272.1959 261.3407,272.5492 256.5289,272.6807 251.7172,273.195 246.9054,273.8541 242.0937,274.5181 237.2819,275.1081 232.4702,275.5983 227.6584,275.9848 222.8466,276.2625 218.0349,276.4252 213.2231,276.4655 208.4114,276.3746 203.5996,276.1424 198.7879,275.7568 193.9761,275.2042 189.1644,274.4689 184.3526,274.69 179.5409,275.3586 174.7291,276.2081 169.9174,277.0776 165.1056,277.883 160.2938,278.6017 155.4821,279.2339 150.6703,279.7791 145.8586,280.2357 141.0468,280.6013 136.2351,280.8727 131.4233,281.046 126.6116,281.1166 121.7998,281.0792 116.9881,280.9282 112.1763,280.6572 107.3646,280.2598 102.5528,279.7288 97.741,279.0572 92.9293,278.2375 88.1175,277.2619 83.3058,277.1928 78.494,277.6111 73.6823,278.333 68.8705,279.2508 64.0588,280.2857 59.247,281.3744 54.4353,282.4698 49.6235,283.1724 44.8118,283.807 40,284.4284"></polyline>
<text class = "party pp" x="631.1111" y="275"><tspan class="party_name">PP</tspan><tspan class="party_result"> (6.9±1.5%)</tspan></text>
<polyline id="media-otros"  class="otros media" points=" 40,309.854 44.8118,309.9113 49.6235,309.9719 54.4353,310.0361 59.247,310.1032 64.0588,310.1702 68.8705,310.2322 73.6823,310.2826 78.494,310.3126 83.3058,310.3099 88.1175,310.2507 92.9293,310.0748 97.741,309.8987 102.5528,309.7234 107.3646,309.5496 112.1763,309.3779 116.9881,309.2084 121.7998,309.0413 126.6116,308.8765 131.4233,308.7137 136.2351,308.5526 141.0468,308.3925 145.8586,308.2328 150.6703,308.0724 155.4821,307.9105 160.2938,307.7457 165.1056,307.5767 169.9174,307.4018 174.7291,307.2256 179.5409,307.0692 184.3526,306.9745 189.1644,307.0145 193.9761,307.3404 198.7879,307.6463 203.5996,307.9352 208.4114,308.2101 213.2231,308.474 218.0349,308.7298 222.8466,308.9806 227.6584,309.2297 232.4702,309.4802 237.2819,309.7359 242.0937,310.0008 246.9054,310.2594 251.7172,310.4471 256.5289,310.4314 261.3407,309.9305 266.1524,309.4828 270.9642,309.0814 275.7759,308.7247 280.5877,308.42 285.3994,308.1805 290.2112,308.0251 295.023,308.0005 299.8347,307.9525 304.6465,307.8857 309.4582,307.8036 314.27,307.7088 319.0817,307.6031 323.8935,307.4879 328.7052,307.364 333.517,307.2317 338.3287,307.0914 343.1405,306.9427 347.9522,306.7852 352.764,306.6209 357.5758,306.4585 362.3875,306.3152 367.1993,306.2176 372.011,306.2063 376.8228,306.3531 381.6345,306.4604 386.4463,306.5309 391.258,306.5667 396.0698,306.569 400.8815,306.5384 405.6933,306.4747 410.5051,306.3906 415.3168,306.335 420.1286,306.406 424.9403,306.7948 429.7521,307.1607 434.5638,307.5708 439.3756,307.9464 444.1873,308.2836 448.9991,308.5831 453.8108,308.8591 458.6226,309.1529 463.4343,309.4399 468.2461,309.7282 473.0579,310.0477 477.8696,310.4515 482.6814,311.0286 487.4931,311.5003 492.3049,311.7812 497.1166,311.6937 501.9284,311.6579 506.7401,311.6669 511.5519,311.7153 516.3636,311.7991 521.1754,311.915 525.9871,312.0602 530.7989,312.2327 535.6107,312.4307 540.4224,312.6531 545.2342,312.8911 550.0459,313.1159 554.8577,313.2737 559.6694,313.2724 564.4812,313.3346 569.2929,313.4487 574.1047,313.693 578.9164,314.0086 583.7282,314.1224 588.5399,313.3077 593.3517,312.7304 598.1635,312.2687 602.9752,311.9053 607.787,311.6074 612.5987,311.3049 617.4105,310.978 622.2222,310.7242"></polyline>
<polyline id="error-otros" class="otros error" points=" 40,289.3815 44.8118,289.9353 49.6235,290.5017 54.4353,291.1211 59.247,292.0292 64.0588,292.9301 68.8705,293.7816 73.6823,294.5278 78.494,295.099 83.3058,295.3987 88.1175,295.2581 92.9293,294.2804 97.741,293.4127 102.5528,292.6515 107.3646,291.9926 112.1763,291.4318 116.9881,290.9644 121.7998,290.5856 126.6116,290.2907 131.4233,290.0748 136.2351,289.9334 141.0468,289.862 145.8586,289.8562 150.6703,289.9122 155.4821,290.0262 160.2938,290.195 165.1056,290.4155 169.9174,290.6853 174.7291,290.996 179.5409,291.324 184.3526,291.6266 189.1644,291.8384 193.9761,291.8542 198.7879,291.9595 203.5996,292.1473 208.4114,292.4123 213.2231,292.7502 218.0349,293.1579 222.8466,293.6336 227.6584,294.1763 232.4702,294.7863 237.2819,295.465 242.0937,296.2153 246.9054,296.9982 251.7172,297.6702 256.5289,297.9503 261.3407,297.2761 266.1524,296.8033 270.9642,296.5138 275.7759,296.3839 280.5877,296.3623 285.3994,296.3569 290.2112,296.2145 295.023,295.6243 299.8347,295.123 304.6465,294.7038 309.4582,294.3605 314.27,294.0875 319.0817,293.8797 323.8935,293.732 328.7052,293.6398 333.517,293.5987 338.3287,293.6047 343.1405,293.654 347.9522,293.743 352.764,293.8675 357.5758,294.0202 362.3875,294.1902 367.1993,294.3621 372.011,294.5165 376.8228,294.6292 381.6345,294.7834 386.4463,294.9727 391.258,295.1918 396.0698,295.4357 400.8815,295.6999 405.6933,295.9801 410.5051,296.2746 415.3168,296.5901 420.1286,296.9506 424.9403,297.4247 429.7521,297.8558 434.5638,298.226 439.3756,298.6639 444.1873,299.1485 448.9991,299.6364 453.8108,300.0611 458.6226,300.3247 463.4343,300.6856 468.2461,301.1265 473.0579,301.6413 477.8696,302.2262 482.6814,302.8713 487.4931,303.4149 492.3049,303.6461 497.1166,303.1385 501.9284,302.759 506.7401,302.4988 511.5519,302.3513 516.3636,302.3114 521.1754,302.3749 525.9871,302.5378 530.7989,302.7965 535.6107,303.1476 540.4224,303.5881 545.2342,304.0994 550.0459,304.6235 554.8577,305.0492 559.6694,305.1832 564.4812,305.4036 569.2929,305.618 574.1047,306.0759 578.9164,306.6722 583.7282,306.9828 588.5399,305.9261 593.3517,305.2409 598.1635,304.8029 602.9752,304.4933 607.787,304.1056 612.5987,303.145 617.4105,302.2668 622.2222,301.4871 622.2222,319.9614 617.4105,319.6892 612.5987,319.4648 607.787,319.1092 602.9752,319.3173 598.1635,319.7345 593.3517,320.22 588.5399,320.6892 583.7282,321.2619 578.9164,321.345 574.1047,321.3101 569.2929,321.2793 564.4812,321.2656 559.6694,321.3616 554.8577,321.4982 550.0459,321.6083 545.2342,321.6828 540.4224,321.7181 535.6107,321.7138 530.7989,321.6689 525.9871,321.5827 521.1754,321.455 516.3636,321.2867 511.5519,321.0793 506.7401,320.835 501.9284,320.5569 497.1166,320.2489 492.3049,319.9164 487.4931,319.5857 482.6814,319.1859 477.8696,318.6768 473.0579,318.454 468.2461,318.3298 463.4343,318.1943 458.6226,317.9811 453.8108,317.6571 448.9991,317.5299 444.1873,317.4186 439.3756,317.2288 434.5638,316.9156 429.7521,316.4655 424.9403,316.1648 420.1286,315.8614 415.3168,316.0798 410.5051,316.5065 405.6933,316.9692 400.8815,317.377 396.0698,317.7023 391.258,317.9415 386.4463,318.089 381.6345,318.1374 376.8228,318.077 372.011,317.8961 367.1993,318.073 362.3875,318.4402 357.5758,318.8968 352.764,319.3744 347.9522,319.8274 343.1405,320.2314 338.3287,320.578 333.517,320.8648 328.7052,321.0882 323.8935,321.2439 319.0817,321.3266 314.27,321.3301 309.4582,321.2467 304.6465,321.0676 299.8347,320.7819 295.023,320.3767 290.2112,319.8358 285.3994,320.0041 280.5877,320.4778 275.7759,321.0655 270.9642,321.649 266.1524,322.1624 261.3407,322.5849 256.5289,322.9124 251.7172,323.2241 246.9054,323.5207 242.0937,323.7863 237.2819,324.0068 232.4702,324.1741 227.6584,324.283 222.8466,324.3277 218.0349,324.3017 213.2231,324.1978 208.4114,324.008 203.5996,323.7232 198.7879,323.3332 193.9761,322.8266 189.1644,322.1905 184.3526,322.3224 179.5409,322.8144 174.7291,323.4552 169.9174,324.1182 165.1056,324.7378 160.2938,325.2964 155.4821,325.7947 150.6703,326.2326 145.8586,326.6093 141.0468,326.9231 136.2351,327.1718 131.4233,327.3526 126.6116,327.4623 121.7998,327.497 116.9881,327.4524 112.1763,327.3239 107.3646,327.1066 102.5528,326.7954 97.741,326.3848 92.9293,325.8693 88.1175,325.2432 83.3058,325.221 78.494,325.5263 73.6823,326.0373 68.8705,326.6828 64.0588,327.4103 59.247,328.1771 54.4353,328.9511 49.6235,329.4422 44.8118,329.8874 40,330.3266"></polyline>
<text class = "party otros" x="631.1111" y="316"><tspan class="party_name">Otros</tspan><tspan class="party_result"> (2.8±1.1%)</tspan></text>
<g id="encuesta-1">
<circle id="encuesta-1-cup" class="encuesta sociometrica cup" cx="622.2222" cy="284.8485" r="2.8284" ></circle>
<circle id="encuesta-1-erc" class="encuesta sociometrica erc" cx="622.2222" cy="146.6667" r="2.8284" ></circle>
<circle id="encuesta-1-jxcat" class="encuesta sociometrica jxcat" cx="622.2222" cy="179.798" r="2.8284" ></circle>
<circle id="encuesta-1-cec" class="encuesta sociometrica cec" cx="622.2222" cy="281.6162" r="2.8284" ></circle>
<circle id="encuesta-1-psc" class="encuesta sociometrica psc" cx="622.2222" cy="210.5051" r="2.8284" ></circle>
<circle id="encuesta-1-cs" class="encuesta sociometrica cs" cx="622.2222" cy="167.6768" r="2.8284" ></circle>
<circle id="encuesta-1-pp" class="encuesta sociometrica pp" cx="622.2222" cy="283.2323" r="2.8284" ></circle>
<circle id="encuesta-1-otros" class="encuesta sociometrica otros" cx="622.2222" cy="304.2424" r="2.8284" ></circle>
</g>
<g id="encuesta-2">
<circle id="encuesta-2-cup" class="encuesta cis cup" cx="607.787" cy="279.1919" r="5.4772" ></circle>
<circle id="encuesta-2-erc" class="encuesta cis erc" cx="607.787" cy="165.2525" r="5.4772" ></circle>
<circle id="encuesta-2-jxcat" class="encuesta cis jxcat" cx="607.787" cy="196.7677" r="5.4772" ></circle>
<circle id="encuesta-2-cec" class="encuesta cis cec" cx="607.787" cy="263.8384" r="5.4772" ></circle>
<circle id="encuesta-2-psc" class="encuesta cis psc" cx="607.787" cy="204.0404" r="5.4772" ></circle>
<circle id="encuesta-2-cs" class="encuesta cis cs" cx="607.787" cy="151.5152" r="5.4772" ></circle>
<circle id="encuesta-2-pp" class="encuesta cis pp" cx="607.787" cy="286.4646" r="5.4772" ></circle>
<circle id="encuesta-2-otros" class="encuesta cis otros" cx="607.787" cy="311.5152" r="5.4772" ></circle>
</g>
<g id="encuesta-3">
<circle id="encuesta-3-cup" class="encuesta nc_report cup" cx="588.5399" cy="287.2727" r="3.1623" ></circle>
<circle id="encuesta-3-erc" class="encuesta nc_report erc" cx="588.5399" cy="138.5859" r="3.1623" ></circle>
<circle id="encuesta-3-jxcat" class="encuesta nc_report jxcat" cx="588.5399" cy="223.4343" r="3.1623" ></circle>
<circle id="encuesta-3-cec" class="encuesta nc_report cec" cx="588.5399" cy="265.4545" r="3.1623" ></circle>
<circle id="encuesta-3-psc" class="encuesta nc_report psc" cx="588.5399" cy="214.5455" r="3.1623" ></circle>
<circle id="encuesta-3-cs" class="encuesta nc_report cs" cx="588.5399" cy="164.4444" r="3.1623" ></circle>
<circle id="encuesta-3-pp" class="encuesta nc_report pp" cx="588.5399" cy="258.1818" r="3.1623" ></circle>
<circle id="encuesta-3-otros" class="encuesta nc_report otros" cx="588.5399" cy="306.6667" r="3.1623" ></circle>
</g>
<g id="encuesta-4">
<circle id="encuesta-4-cup" class="encuesta metroscopica cup" cx="583.7282" cy="285.6566" r="4.2426" ></circle>
<circle id="encuesta-4-erc" class="encuesta metroscopica erc" cx="583.7282" cy="119.1919" r="4.2426" ></circle>
<circle id="encuesta-4-jxcat" class="encuesta metroscopica jxcat" cx="583.7282" cy="223.4343" r="4.2426" ></circle>
<circle id="encuesta-4-cec" class="encuesta metroscopica cec" cx="583.7282" cy="279.1919" r="4.2426" ></circle>
<circle id="encuesta-4-psc" class="encuesta metroscopica psc" cx="583.7282" cy="212.9293" r="4.2426" ></circle>
<circle id="encuesta-4-cs" class="encuesta metroscopica cs" cx="583.7282" cy="128.8889" r="4.2426" ></circle>
<circle id="encuesta-4-pp" class="encuesta metroscopica pp" cx="583.7282" cy="286.4646" r="4.2426" ></circle>
<circle id="encuesta-4-otros" class="encuesta metroscopica otros" cx="583.7282" cy="322.8283" r="4.2426" ></circle>
</g>
<g id="encuesta-5">
<circle id="encuesta-5-cup" class="encuesta gesop cup" cx="564.4812" cy="282.4242" r="2.8284" ></circle>
<circle id="encuesta-5-erc" class="encuesta gesop erc" cx="564.4812" cy="140.202" r="2.8284" ></circle>
<circle id="encuesta-5-jxcat" class="encuesta gesop jxcat" cx="564.4812" cy="200" r="2.8284" ></circle>
<circle id="encuesta-5-cec" class="encuesta gesop cec" cx="564.4812" cy="263.8384" r="2.8284" ></circle>
<circle id="encuesta-5-psc" class="encuesta gesop psc" cx="564.4812" cy="187.0707" r="2.8284" ></circle>
<circle id="encuesta-5-cs" class="encuesta gesop cs" cx="564.4812" cy="183.0303" r="2.8284" ></circle>
<circle id="encuesta-5-pp" class="encuesta gesop pp" cx="564.4812" cy="287.2727" r="2.8284" ></circle>
<circle id="encuesta-5-otros" class="encuesta gesop otros" cx="564.4812" cy="314.7475" r="2.8284" ></circle>
</g>
<g id="encuesta-6">
<circle id="encuesta-6-cup" class="encuesta gad3 cup" cx="554.8577" cy="288.0808" r="2.8302" ></circle>
<circle id="encuesta-6-erc" class="encuesta gad3 erc" cx="554.8577" cy="146.6667" r="2.8302" ></circle>
<circle id="encuesta-6-jxcat" class="encuesta gad3 jxcat" cx="554.8577" cy="198.3838" r="2.8302" ></circle>
<circle id="encuesta-6-cec" class="encuesta gad3 cec" cx="554.8577" cy="271.9192" r="2.8302" ></circle>
<circle id="encuesta-6-psc" class="encuesta gad3 psc" cx="554.8577" cy="211.3131" r="2.8302" ></circle>
<circle id="encuesta-6-cs" class="encuesta gad3 cs" cx="554.8577" cy="153.1313" r="2.8302" ></circle>
<circle id="encuesta-6-pp" class="encuesta gad3 pp" cx="554.8577" cy="270.303" r="2.8302" ></circle>
<circle id="encuesta-6-otros" class="encuesta gad3 otros" cx="554.8577" cy="318.7879" r="2.8302" ></circle>
</g>
<g id="encuesta-7">
<circle id="encuesta-7-cup" class="encuesta nc_report cup" cx="492.3049" cy="282.4242" r="3.1623" ></circle>
<circle id="encuesta-7-erc" class="encuesta nc_report erc" cx="492.3049" cy="120.8081" r="3.1623" ></circle>
<circle id="encuesta-7-jxcat" class="encuesta nc_report jxcat" cx="492.3049" cy="246.8687" r="3.1623" ></circle>
<circle id="encuesta-7-cec" class="encuesta nc_report cec" cx="492.3049" cy="249.2929" r="3.1623" ></circle>
<circle id="encuesta-7-psc" class="encuesta nc_report psc" cx="492.3049" cy="223.4343" r="3.1623" ></circle>
<circle id="encuesta-7-cs" class="encuesta nc_report cs" cx="492.3049" cy="174.9495" r="3.1623" ></circle>
<circle id="encuesta-7-pp" class="encuesta nc_report pp" cx="492.3049" cy="248.4848" r="3.1623" ></circle>
<circle id="encuesta-7-otros" class="encuesta nc_report otros" cx="492.3049" cy="312.3232" r="3.1623" ></circle>
</g>
<g id="encuesta-8">
<circle id="encuesta-8-cup" class="encuesta gad3 cup" cx="492.3049" cy="282.4242" r="3.5114" ></circle>
<circle id="encuesta-8-erc" class="encuesta gad3 erc" cx="492.3049" cy="96.5657" r="3.5114" ></circle>
<circle id="encuesta-8-jxcat" class="encuesta gad3 jxcat" cx="492.3049" cy="249.2929" r="3.5114" ></circle>
<circle id="encuesta-8-cec" class="encuesta gad3 cec" cx="492.3049" cy="266.2626" r="3.5114" ></circle>
<circle id="encuesta-8-psc" class="encuesta gad3 psc" cx="492.3049" cy="215.3535" r="3.5114" ></circle>
<circle id="encuesta-8-cs" class="encuesta gad3 cs" cx="492.3049" cy="166.8687" r="3.5114" ></circle>
<circle id="encuesta-8-pp" class="encuesta gad3 pp" cx="492.3049" cy="263.0303" r="3.5114" ></circle>
<circle id="encuesta-8-otros" class="encuesta gad3 otros" cx="492.3049" cy="318.7879" r="3.5114" ></circle>
</g>
<g id="encuesta-9">
<circle id="encuesta-9-cup" class="encuesta sociometrica cup" cx="477.8696" cy="287.2727" r="3.1623" ></circle>
<circle id="encuesta-9-erc" class="encuesta sociometrica erc" cx="477.8696" cy="81.2121" r="3.1623" ></circle>
<circle id="encuesta-9-jxcat" class="encuesta sociometrica jxcat" cx="477.8696" cy="251.7172" r="3.1623" ></circle>
<circle id="encuesta-9-cec" class="encuesta sociometrica cec" cx="477.8696" cy="252.5253" r="3.1623" ></circle>
<circle id="encuesta-9-psc" class="encuesta sociometrica psc" cx="477.8696" cy="234.7475" r="3.1623" ></circle>
<circle id="encuesta-9-cs" class="encuesta sociometrica cs" cx="477.8696" cy="185.4545" r="3.1623" ></circle>
<circle id="encuesta-9-pp" class="encuesta sociometrica pp" cx="477.8696" cy="260.6061" r="3.1623" ></circle>
<circle id="encuesta-9-otros" class="encuesta sociometrica otros" cx="477.8696" cy="305.0505" r="3.1623" ></circle>
</g>
<g id="encuesta-10">
<circle id="encuesta-10-cup" class="encuesta sigmados cup" cx="453.8108" cy="282.4242" r="3.1623" ></circle>
<circle id="encuesta-10-erc" class="encuesta sigmados erc" cx="453.8108" cy="120" r="3.1623" ></circle>
<circle id="encuesta-10-jxcat" class="encuesta sigmados jxcat" cx="453.8108" cy="254.1414" r="3.1623" ></circle>
<circle id="encuesta-10-cec" class="encuesta sigmados cec" cx="453.8108" cy="244.4444" r="3.1623" ></circle>
<circle id="encuesta-10-psc" class="encuesta sigmados psc" cx="453.8108" cy="211.3131" r="3.1623" ></circle>
<circle id="encuesta-10-cs" class="encuesta sigmados cs" cx="453.8108" cy="174.9495" r="3.1623" ></circle>
<circle id="encuesta-10-pp" class="encuesta sigmados pp" cx="453.8108" cy="263.0303" r="3.1623" ></circle>
<circle id="encuesta-10-otros" class="encuesta sigmados otros" cx="453.8108" cy="308.2828" r="3.1623" ></circle>
</g>
<g id="encuesta-11">
<circle id="encuesta-11-cup" class="encuesta nc_report cup" cx="429.7521" cy="288.0808" r="3.1623" ></circle>
<circle id="encuesta-11-erc" class="encuesta nc_report erc" cx="429.7521" cy="134.5455" r="3.1623" ></circle>
<circle id="encuesta-11-jxcat" class="encuesta nc_report jxcat" cx="429.7521" cy="235.5556" r="3.1623" ></circle>
<circle id="encuesta-11-cec" class="encuesta nc_report cec" cx="429.7521" cy="241.2121" r="3.1623" ></circle>
<circle id="encuesta-11-psc" class="encuesta nc_report psc" cx="429.7521" cy="227.4747" r="3.1623" ></circle>
<circle id="encuesta-11-cs" class="encuesta nc_report cs" cx="429.7521" cy="178.1818" r="3.1623" ></circle>
<circle id="encuesta-11-pp" class="encuesta nc_report pp" cx="429.7521" cy="248.4848" r="3.1623" ></circle>
<circle id="encuesta-11-otros" class="encuesta nc_report otros" cx="429.7521" cy="305.0505" r="3.1623" ></circle>
</g>
<g id="encuesta-12">
<circle id="encuesta-12-cup" class="encuesta gesop cup" cx="420.1286" cy="270.303" r="2.8284" ></circle>
<circle id="encuesta-12-erc" class="encuesta gesop erc" cx="420.1286" cy="106.2626" r="2.8284" ></circle>
<circle id="encuesta-12-jxcat" class="encuesta gesop jxcat" cx="420.1286" cy="236.3636" r="2.8284" ></circle>
<circle id="encuesta-12-cec" class="encuesta gesop cec" cx="420.1286" cy="260.6061" r="2.8284" ></circle>
<circle id="encuesta-12-psc" class="encuesta gesop psc" cx="420.1286" cy="216.1616" r="2.8284" ></circle>
<circle id="encuesta-12-cs" class="encuesta gesop cs" cx="420.1286" cy="197.5758" r="2.8284" ></circle>
<circle id="encuesta-12-pp" class="encuesta gesop pp" cx="420.1286" cy="272.7273" r="2.8284" ></circle>
<circle id="encuesta-12-otros" class="encuesta gesop otros" cx="420.1286" cy="298.5859" r="2.8284" ></circle>
</g>
<g id="encuesta-13">
<circle id="encuesta-13-cup" class="encuesta sociometrica cup" cx="372.011" cy="282.4242" r="2.8284" ></circle>
<circle id="encuesta-13-erc" class="encuesta sociometrica erc" cx="372.011" cy="76.3636" r="2.8284" ></circle>
<circle id="encuesta-13-jxcat" class="encuesta sociometrica jxcat" cx="372.011" cy="267.8788" r="2.8284" ></circle>
<circle id="encuesta-13-cec" class="encuesta sociometrica cec" cx="372.011" cy="236.3636" r="2.8284" ></circle>
<circle id="encuesta-13-psc" class="encuesta sociometrica psc" cx="372.011" cy="256.5657" r="2.8284" ></circle>
<circle id="encuesta-13-cs" class="encuesta sociometrica cs" cx="372.011" cy="185.4545" r="2.8284" ></circle>
<circle id="encuesta-13-pp" class="encuesta sociometrica pp" cx="372.011" cy="251.7172" r="2.8284" ></circle>
<circle id="encuesta-13-otros" class="encuesta sociometrica otros" cx="372.011" cy="301.8182" r="2.8284" ></circle>
</g>
<g id="encuesta-14">
<circle id="encuesta-14-cup" class="encuesta nc_report cup" cx="290.2112" cy="288.0808" r="3.5426" ></circle>
<circle id="encuesta-14-erc" class="encuesta nc_report erc" cx="290.2112" cy="130.5051" r="3.5426" ></circle>
<circle id="encuesta-14-jxcat" class="encuesta nc_report jxcat" cx="290.2112" cy="230.7071" r="3.5426" ></circle>
<circle id="encuesta-14-cec" class="encuesta nc_report cec" cx="290.2112" cy="239.596" r="3.5426" ></circle>
<circle id="encuesta-14-psc" class="encuesta nc_report psc" cx="290.2112" cy="222.6263" r="3.5426" ></circle>
<circle id="encuesta-14-cs" class="encuesta nc_report cs" cx="290.2112" cy="194.3434" r="3.5426" ></circle>
<circle id="encuesta-14-pp" class="encuesta nc_report pp" cx="290.2112" cy="246.0606" r="3.5426" ></circle>
<circle id="encuesta-14-otros" class="encuesta nc_report otros" cx="290.2112" cy="306.6667" r="3.5426" ></circle>
</g>
<g id="encuesta-15">
<circle id="encuesta-15-cup" class="encuesta celeste-tel cup" cx="256.5289" cy="285.6566" r="2.8284" ></circle>
<circle id="encuesta-15-erc" class="encuesta celeste-tel erc" cx="256.5289" cy="133.7374" r="2.8284" ></circle>
<circle id="encuesta-15-jxcat" class="encuesta celeste-tel jxcat" cx="256.5289" cy="223.4343" r="2.8284" ></circle>
<circle id="encuesta-15-cec" class="encuesta celeste-tel cec" cx="256.5289" cy="234.7475" r="2.8284" ></circle>
<circle id="encuesta-15-psc" class="encuesta celeste-tel psc" cx="256.5289" cy="213.7374" r="2.8284" ></circle>
<circle id="encuesta-15-cs" class="encuesta celeste-tel cs" cx="256.5289" cy="192.7273" r="2.8284" ></circle>
<circle id="encuesta-15-pp" class="encuesta celeste-tel pp" cx="256.5289" cy="257.3737" r="2.8284" ></circle>
<circle id="encuesta-15-otros" class="encuesta celeste-tel otros" cx="256.5289" cy="317.1717" r="2.8284" ></circle>
</g>
<g id="encuesta-16">
<circle id="encuesta-16-cup" class="encuesta sociometrica cup" cx="189.1644" cy="278.3838" r="2.6458" ></circle>
<circle id="encuesta-16-erc" class="encuesta sociometrica erc" cx="189.1644" cy="107.0707" r="2.6458" ></circle>
<circle id="encuesta-16-jxcat" class="encuesta sociometrica jxcat" cx="189.1644" cy="230.7071" r="2.6458" ></circle>
<circle id="encuesta-16-cec" class="encuesta sociometrica cec" cx="189.1644" cy="249.2929" r="2.6458" ></circle>
<circle id="encuesta-16-psc" class="encuesta sociometrica psc" cx="189.1644" cy="251.7172" r="2.6458" ></circle>
<circle id="encuesta-16-cs" class="encuesta sociometrica cs" cx="189.1644" cy="190.303" r="2.6458" ></circle>
<circle id="encuesta-16-pp" class="encuesta sociometrica pp" cx="189.1644" cy="248.4848" r="2.6458" ></circle>
<circle id="encuesta-16-otros" class="encuesta sociometrica otros" cx="189.1644" cy="302.6263" r="2.6458" ></circle>
</g>
<g id="encuesta-17">
<circle id="encuesta-17-cup" class="encuesta nc_report cup" cx="88.1175" cy="280.8081" r="3.5426" ></circle>
<circle id="encuesta-17-erc" class="encuesta nc_report erc" cx="88.1175" cy="140.202" r="3.5426" ></circle>
<circle id="encuesta-17-jxcat" class="encuesta nc_report jxcat" cx="88.1175" cy="221.0101" r="3.5426" ></circle>
<circle id="encuesta-17-cec" class="encuesta nc_report cec" cx="88.1175" cy="235.5556" r="3.5426" ></circle>
<circle id="encuesta-17-psc" class="encuesta nc_report psc" cx="88.1175" cy="221.0101" r="3.5426" ></circle>
<circle id="encuesta-17-cs" class="encuesta nc_report cs" cx="88.1175" cy="191.9192" r="3.5426" ></circle>
<circle id="encuesta-17-pp" class="encuesta nc_report pp" cx="88.1175" cy="256.5657" r="3.5426" ></circle>
<circle id="encuesta-17-otros" class="encuesta nc_report otros" cx="88.1175" cy="311.5152" r="3.5426" ></circle>
</g>

<text class="pie izquierda" x="0" y="390">Datos: Electograph | Modelo propio</text>
<text class="pie derecha" x="800" y="390">Jesús Carro | <tspan style="font-weight:bold">1datomas</tspan>.com</text>
</svg>
