<?xml version="1.0" encoding="utf-8"?><!DOCTYPE svg PUBLIC "-//W3C//DTD SVG 1.1//EN" "http://www.w3.org/Graphics/SVG/1.1/DTD/svg11.dtd">
<svg xmlns="http://www.w3.org/2000/svg" xmlns:xlink="http://www.w3.org/1999/xlink" version="1.1" viewBox="0 0 800 400">

<text x="0" y="20" style="font-size:large;font-weight:bold;color:black">Intención de voto en Elecciones Autonómicas en Cataluña</text>
<text x="0" y="40" style="color:gray">Promedio de encuestas y estimación de error</text>

<text class="horizontal axis" x="36" y="333.3333">0%</text>
<line class="horizontal axis" x1="40" y1="333.3333" x2="622.2222" y2="333.3333"></line>
<text class="horizontal axis" x="36" y="252.5253">10%</text>
<line class="horizontal axis" x1="40" y1="252.5253" x2="622.2222" y2="252.5253"></line>
<text class="horizontal axis" x="36" y="171.7172">20%</text>
<line class="horizontal axis" x1="40" y1="171.7172" x2="622.2222" y2="171.7172"></line>
<text class="horizontal axis" x="36" y="90.9091">30%</text>
<line class="horizontal axis" x1="40" y1="90.9091" x2="622.2222" y2="90.9091"></line>
<line class="vertical axis" x1="40" y1="336.6667" x2="40" y2="66.6667"></line>
<text class="vertical axis" x="40" y="343.3333">Ago-2017</text>
<line class="vertical axis" x1="179.9139" y1="336.6667" x2="179.9139" y2="66.6667"></line>
<text class="vertical axis" x="179.9139" y="343.3333">Sep-2017</text>
<line class="vertical axis" x1="315.3144" y1="336.6667" x2="315.3144" y2="66.6667"></line>
<text class="vertical axis" x="315.3144" y="343.3333">Oct-2017</text>
<line class="vertical axis" x1="455.2283" y1="336.6667" x2="455.2283" y2="66.6667"></line>
<text class="vertical axis" x="455.2283" y="343.3333">Nov-2017</text>
<line class="vertical axis" x1="590.6288" y1="336.6667" x2="590.6288" y2="66.6667"></line>
<text class="vertical axis" x="590.6288" y="343.3333">Dic-2017</text>
<polyline id="media-cup"  class="cup media" points=" 40,281.8305 44.5134,281.7889 49.0267,281.7452 53.5401,281.6993 58.0534,281.6519 62.5668,281.6044 67.0801,281.5599 71.5935,281.522 76.1068,281.4951 80.6202,281.4858 85.1335,281.5056 89.6469,281.5835 94.1602,281.6565 98.6736,281.7237 103.1869,281.7847 107.7003,281.839 112.2136,281.8863 116.727,281.9262 121.2403,281.9585 125.7537,281.9829 130.267,281.9991 134.7804,282.0068 139.2937,282.0056 143.8071,281.9951 148.3204,281.9746 152.8338,281.9434 157.3471,281.9006 161.8605,281.8452 166.3738,281.7803 170.8872,281.7209 175.4005,281.6981 179.9139,281.767 184.4272,282.0409 188.9406,282.2991 193.4539,282.5429 197.9673,282.7738 202.4806,282.9933 206.994,283.2026 211.5073,283.4032 216.0207,283.5962 220.534,283.7828 225.0474,283.9641 229.5607,284.1411 234.0741,284.311 238.5874,284.4636 243.1008,284.5829 247.6141,284.6429 252.1275,284.7328 256.6408,284.8508 261.1542,284.9904 265.6675,285.1297 270.1809,285.2291 274.6942,285.2219 279.2076,284.9578 283.7209,284.7194 288.2343,284.5038 292.7476,284.3084 297.261,284.1307 301.7743,283.9686 306.2877,283.8203 310.801,283.684 315.3144,283.5583 319.8277,283.4416 324.3411,283.3329 328.8544,283.231 333.3678,283.1353 337.8811,283.046 342.3945,282.964 346.9078,282.8901 351.4212,282.8252 355.9345,282.7697 360.4479,282.7046 364.9612,282.6301 369.4746,282.5458 373.9879,282.4507 378.5013,282.3432 383.0146,282.2212 387.528,282.0972 392.0413,282.0244 396.5547,282.1136 401.068,282.5848 405.5814,282.8858 410.0947,282.9712 414.6081,283.0518 419.1214,283.1258 423.6348,283.1972 428.1481,283.2789 432.6615,283.4014 437.1748,283.5189 441.6882,283.6213 446.2016,283.6882 450.7149,283.6885 455.2283,283.5725 459.7416,283.4897 464.255,283.4557 468.7683,283.5103 473.2817,283.5641 477.795,283.6179 482.3084,283.6722 486.8217,283.7274 491.3351,283.7838 495.8484,283.8416 500.3618,283.9013 504.8751,283.9633 509.3885,284.028 513.9018,284.0917 518.4152,284.138 522.9285,284.1353 527.4419,284.0306 531.9552,283.9627 536.4686,283.9451 540.9819,283.9271 545.4953,283.8963 550.0086,283.8017 554.522,283.4978 559.0353,283.1586 563.5487,282.8479 568.062,282.6143 572.5754,282.5361 577.0887,282.8014 581.6021,282.9954 586.1154,283.1247 590.6288,283.1761 595.1421,283.191 599.6555,283.1543 604.1688,283.1247 608.6822,283.1238 613.1955,283.1687 617.7089,283.1873 622.2222,283.0871"></polyline>
<polyline id="error-cup" class="cup error" points=" 40,259.3992 44.5134,259.8439 49.0267,260.3026 53.5401,261.0655 58.0534,261.8465 62.5668,262.6267 67.0801,263.3721 71.5935,264.0365 76.1068,264.5611 80.6202,264.8655 85.1335,264.8141 89.6469,264.1052 94.1602,263.5114 98.6736,263.024 103.1869,262.6351 107.7003,262.3371 112.2136,262.1231 116.727,261.9865 121.2403,261.9213 125.7537,261.9223 130.267,261.9843 134.7804,262.1031 139.2937,262.2747 143.8071,262.4958 148.3204,262.7635 152.8338,263.0754 157.3471,263.4296 161.8605,263.8247 166.3738,264.2521 170.8872,264.6829 175.4005,265.0642 179.9139,265.3122 184.4272,265.2848 188.9406,265.3511 193.4539,265.5014 197.9673,265.7276 202.4806,266.0237 206.994,266.3848 211.5073,266.8073 216.0207,267.2886 220.534,267.8274 225.0474,268.4231 229.5607,269.0763 234.0741,269.763 238.5874,270.3997 243.1008,270.8297 247.6141,270.7641 252.1275,270.8737 256.6408,271.1449 261.1542,271.5484 265.6675,272.0032 270.1809,272.3633 274.6942,272.3874 279.2076,271.5664 283.7209,270.8903 288.2343,270.3416 292.7476,269.9061 297.261,269.5714 301.7743,269.3273 306.2877,269.1647 310.801,269.076 315.3144,269.0546 319.8277,269.0949 324.3411,269.1922 328.8544,269.3425 333.3678,269.5396 337.8811,269.7685 342.3945,270.0025 346.9078,270.2015 351.4212,270.3067 355.9345,270.2235 360.4479,270.2099 364.9612,270.2566 369.4746,270.3559 373.9879,270.5011 378.5013,270.686 383.0146,270.9053 387.528,271.1581 392.0413,271.4571 396.5547,271.84 401.068,272.406 405.5814,272.7769 410.0947,272.8206 414.6081,272.96 419.1214,273.1767 423.6348,273.4322 428.1481,273.6619 432.6615,273.7615 437.1748,273.9568 441.6882,274.2119 446.2016,274.4697 450.7149,274.641 455.2283,274.5751 459.7416,274.5534 464.255,274.4768 468.7683,274.1679 473.2817,273.9392 477.795,273.7863 482.3084,273.705 486.8217,273.6918 491.3351,273.7433 495.8484,273.8567 500.3618,274.0294 504.8751,274.259 509.3885,274.5439 513.9018,274.8724 518.4152,275.2052 522.9285,275.4655 527.4419,275.5199 531.9552,275.6296 536.4686,275.7439 540.9819,275.944 545.4953,276.1821 550.0086,276.2975 554.522,275.8978 559.0353,275.5681 563.5487,275.3675 568.062,275.2702 572.5754,275.2436 577.0887,275.254 581.6021,275.3305 586.1154,275.4191 590.6288,275.4185 595.1421,275.4309 599.6555,275.3668 604.1688,275.3639 608.6822,275.3909 613.1955,275.3672 617.7089,275.2408 622.2222,274.7159 622.2222,291.4582 617.7089,291.1337 613.1955,290.9702 608.6822,290.8568 604.1688,290.8854 599.6555,290.9418 595.1421,290.951 590.6288,290.9337 586.1154,290.8302 581.6021,290.6604 577.0887,290.3488 572.5754,289.8285 568.062,289.9584 563.5487,290.3284 559.0353,290.7491 554.522,291.0977 550.0086,291.3059 545.4953,291.6104 540.9819,291.9102 536.4686,292.1462 531.9552,292.2959 527.4419,292.5412 522.9285,292.8052 518.4152,293.0709 513.9018,293.3111 509.3885,293.5122 504.8751,293.6675 500.3618,293.7733 495.8484,293.8266 491.3351,293.8242 486.8217,293.763 482.3084,293.6394 477.795,293.4495 473.2817,293.189 468.7683,292.8528 464.255,292.4345 459.7416,292.426 455.2283,292.5698 450.7149,292.7361 446.2016,292.9067 441.6882,293.0307 437.1748,293.0811 432.6615,293.0412 428.1481,292.8958 423.6348,292.9622 419.1214,293.0749 414.6081,293.1435 410.0947,293.1219 405.5814,292.9947 401.068,292.7637 396.5547,292.3872 392.0413,292.5918 387.528,293.0363 383.0146,293.537 378.5013,294.0004 373.9879,294.4003 369.4746,294.7357 364.9612,295.0036 360.4479,295.1993 355.9345,295.3158 351.4212,295.3437 346.9078,295.5787 342.3945,295.9254 337.8811,296.3236 333.3678,296.731 328.8544,297.1195 324.3411,297.4736 319.8277,297.7883 315.3144,298.0619 310.801,298.292 306.2877,298.4759 301.7743,298.6099 297.261,298.6899 292.7476,298.7106 288.2343,298.666 283.7209,298.5485 279.2076,298.3491 274.6942,298.0564 270.1809,298.0948 265.6675,298.2563 261.1542,298.4325 256.6408,298.5568 252.1275,298.5919 247.6141,298.5218 243.1008,298.336 238.5874,298.5274 234.0741,298.859 229.5607,299.206 225.0474,299.5051 220.534,299.7382 216.0207,299.9037 211.5073,299.9991 206.994,300.0205 202.4806,299.9629 197.9673,299.82 193.4539,299.5844 188.9406,299.247 184.4272,298.797 179.9139,298.2219 175.4005,298.332 170.8872,298.7589 166.3738,299.3085 161.8605,299.8657 157.3471,300.3717 152.8338,300.8113 148.3204,301.1856 143.8071,301.4943 139.2937,301.7365 134.7804,301.9106 130.267,302.0139 125.7537,302.0436 121.2403,301.9957 116.727,301.866 112.2136,301.6495 107.7003,301.3409 103.1869,300.9343 98.6736,300.4234 94.1602,299.8016 89.6469,299.0619 85.1335,298.1972 80.6202,298.1061 76.1068,298.4292 71.5935,299.0074 67.0801,299.7477 62.5668,300.5822 58.0534,301.4572 53.5401,302.3331 49.0267,303.1877 44.5134,303.7338 40,304.2619"></polyline>
<text class = "party cup" x="631.1111" y="298"><tspan class="party_name">CUP</tspan><tspan class="party_result"> (6.2±1.0%)</tspan></text>
<polyline id="media-erc"  class="erc media" points=" 40,132.6156 44.5134,132.8383 49.0267,133.0792 53.5401,133.3398 58.0534,133.6173 62.5668,133.8993 67.0801,134.1632 71.5935,134.3783 76.1068,134.5047 80.6202,134.4841 85.1335,134.2084 89.6469,133.4087 94.1602,132.6151 98.6736,131.8319 103.1869,131.062 107.7003,130.3073 112.2136,129.5686 116.727,128.8463 121.2403,128.1398 125.7537,127.448 130.267,126.7693 134.7804,126.1017 139.2937,125.4426 143.8071,124.7891 148.3204,124.1378 152.8338,123.4849 157.3471,122.8261 161.8605,122.1564 166.3738,121.4896 170.8872,120.8869 175.4005,120.4683 179.9139,120.4385 184.4272,121.21 188.9406,121.8981 193.4539,122.5147 197.9673,123.0707 202.4806,123.5763 206.994,124.0408 211.5073,124.4732 216.0207,124.8816 220.534,125.2739 225.0474,125.6578 229.5607,126.0411 234.0741,126.4117 238.5874,126.7092 243.1008,126.8109 247.6141,126.4633 252.1275,126.1993 256.6408,126.0156 261.1542,125.9025 265.6675,125.8255 270.1809,125.7132 274.6942,125.4328 279.2076,124.6711 283.7209,123.9078 288.2343,123.1415 292.7476,122.3699 297.261,121.5902 301.7743,120.799 306.2877,119.9924 310.801,119.1659 315.3144,118.3143 319.8277,117.4317 324.3411,116.511 328.8544,115.5443 333.3678,114.5412 337.8811,113.5621 342.3945,112.7334 346.9078,112.259 351.4212,112.4575 355.9345,113.8931 360.4479,115.0946 364.9612,116.0934 369.4746,116.9154 373.9879,117.5823 378.5013,118.1118 383.0146,118.5186 387.528,118.8268 392.0413,119.0951 396.5547,119.4384 401.068,120.0818 405.5814,120.3413 410.0947,120.0316 414.6081,119.7029 419.1214,119.3445 423.6348,118.9421 428.1481,118.4605 432.6615,117.8036 437.1748,117.0441 441.6882,116.2703 446.2016,115.6688 450.7149,115.5595 455.2283,116.517 459.7416,117.3437 464.255,118.3591 468.7683,120.2482 473.2817,122.0975 477.795,123.8972 482.3084,125.6381 486.8217,127.3119 491.3351,128.911 495.8484,130.429 500.3618,131.8602 504.8751,133.2001 509.3885,134.445 513.9018,135.5788 518.4152,136.5581 522.9285,137.3094 527.4419,137.7163 531.9552,138.0678 536.4686,138.3077 540.9819,138.4554 545.4953,138.592 550.0086,139.2107 554.522,141.7323 559.0353,144.1387 563.5487,146.3143 568.062,148.0346 572.5754,148.9518 577.0887,148.2445 581.6021,147.9441 586.1154,147.9227 590.6288,148.0565 595.1421,148.1257 599.6555,147.8442 604.1688,147.7274 608.6822,147.7941 613.1955,148.0833 617.7089,148.2375 622.2222,147.9985"></polyline>
<polyline id="error-erc" class="erc error" points=" 40,90.6909 44.5134,91.558 49.0267,92.4719 53.5401,94.1628 58.0534,95.9117 62.5668,97.67 67.0801,99.3488 71.5935,100.8262 76.1068,101.946 80.6202,102.4896 85.1335,102.0782 89.6469,99.8425 94.1602,97.833 98.6736,96.0378 103.1869,94.4449 107.7003,93.0425 112.2136,91.8192 116.727,90.7638 121.2403,89.8655 125.7537,89.114 130.267,88.4995 134.7804,88.0131 139.2937,87.6462 143.8071,87.3911 148.3204,87.2409 152.8338,87.1893 157.3471,87.231 161.8605,87.3612 166.3738,87.573 170.8872,87.8489 175.4005,88.1557 179.9139,88.4428 184.4272,88.6547 188.9406,88.9819 193.4539,89.4155 197.9673,89.9494 202.4806,90.5802 206.994,91.3065 211.5073,92.1284 216.0207,93.0483 220.534,94.0699 225.0474,95.1991 229.5607,96.4438 234.0741,97.7546 238.5874,98.936 243.1008,99.6033 247.6141,99.0111 252.1275,98.7707 256.6408,98.8569 261.1542,99.2192 265.6675,99.7159 270.1809,100.0797 274.6942,99.8539 279.2076,98.065 283.7209,96.4978 288.2343,95.122 292.7476,93.9123 297.261,92.8469 301.7743,91.9066 306.2877,91.0746 310.801,90.3353 315.3144,89.6745 319.8277,89.0786 324.3411,88.5348 328.8544,88.0302 333.3678,87.5646 337.8811,87.1718 342.3945,86.9289 346.9078,86.9651 351.4212,87.4913 355.9345,88.9 360.4479,90.2207 364.9612,91.4674 369.4746,92.6527 373.9879,93.7881 378.5013,94.8838 383.0146,95.9492 387.528,96.9828 392.0413,97.9641 396.5547,98.8627 401.068,99.659 405.5814,100.0324 410.0947,99.6327 414.6081,99.4063 419.1214,99.3103 423.6348,99.25 428.1481,99.0405 432.6615,98.323 437.1748,97.6952 441.6882,97.199 446.2016,96.954 450.7149,97.1739 455.2283,98.2472 459.7416,99.2068 464.255,100.1536 468.7683,101.3598 473.2817,102.685 477.795,104.1073 482.3084,105.6074 486.8217,107.1683 491.3351,108.775 495.8484,110.4144 500.3618,112.0751 504.8751,113.7475 509.3885,115.4237 513.9018,117.0732 518.4152,118.6099 522.9285,119.8749 527.4419,120.5996 531.9552,121.3009 536.4686,121.7988 540.9819,122.3696 545.4953,123.0288 550.0086,124.0664 554.522,126.4498 559.0353,128.9224 563.5487,131.3532 568.062,133.3686 572.5754,134.4 577.0887,133.18 581.6021,132.6393 586.1154,132.5318 590.6288,132.5644 595.1421,132.629 599.6555,132.2937 604.1688,132.2285 608.6822,132.3493 613.1955,132.5081 617.7089,132.3856 622.2222,131.3396 622.2222,164.6574 617.7089,164.0894 613.1955,163.6586 608.6822,163.2388 604.1688,163.2263 599.6555,163.3948 595.1421,163.6225 590.6288,163.5485 586.1154,163.3135 581.6021,163.249 577.0887,163.3089 572.5754,163.5036 568.062,162.7005 563.5487,161.2754 559.0353,159.3551 554.522,157.0149 550.0086,154.355 545.4953,154.1551 540.9819,154.5413 536.4686,154.8166 531.9552,154.8346 527.4419,154.833 522.9285,154.7438 518.4152,154.5063 513.9018,154.0843 509.3885,153.4662 504.8751,152.6527 500.3618,151.6454 495.8484,150.4436 491.3351,149.0471 486.8217,147.4555 482.3084,145.6688 477.795,143.687 473.2817,141.5099 468.7683,139.1366 464.255,136.5645 459.7416,135.4807 455.2283,134.7868 450.7149,133.9452 446.2016,134.3836 441.6882,135.3416 437.1748,136.393 432.6615,137.2842 428.1481,137.8805 423.6348,138.6341 419.1214,139.3787 414.6081,139.9996 410.0947,140.4305 405.5814,140.6502 401.068,140.5046 396.5547,140.014 392.0413,140.2261 387.528,140.6708 383.0146,141.0881 378.5013,141.3399 373.9879,141.3765 369.4746,141.1782 364.9612,140.7194 360.4479,139.9685 355.9345,138.8861 351.4212,137.4238 346.9078,137.5528 342.3945,138.538 337.8811,139.9524 333.3678,141.5177 328.8544,143.0584 324.3411,144.4873 319.8277,145.7848 315.3144,146.9542 310.801,147.9965 306.2877,148.9103 301.7743,149.6914 297.261,150.3336 292.7476,150.8275 288.2343,151.1609 283.7209,151.3178 279.2076,151.2771 274.6942,151.0116 270.1809,151.3466 265.6675,151.9352 261.1542,152.5859 256.6408,153.1743 252.1275,153.6278 247.6141,153.9154 243.1008,154.0186 238.5874,154.4825 234.0741,155.0688 229.5607,155.6384 225.0474,156.1165 220.534,156.4778 216.0207,156.7148 211.5073,156.8179 206.994,156.7752 202.4806,156.5723 197.9673,156.1919 193.4539,155.6139 188.9406,154.8143 184.4272,153.7653 179.9139,152.4342 175.4005,152.7809 170.8872,153.9249 166.3738,155.4063 161.8605,156.9517 157.3471,158.4212 152.8338,159.7805 148.3204,161.0347 143.8071,162.187 139.2937,163.239 134.7804,164.1903 130.267,165.0391 125.7537,165.782 121.2403,166.4141 116.727,166.9288 112.2136,167.318 107.7003,167.572 103.1869,167.6792 98.6736,167.6261 94.1602,167.3972 89.6469,166.9749 85.1335,166.3386 80.6202,166.4786 76.1068,167.0633 71.5935,167.9304 67.0801,168.9776 62.5668,170.1286 58.0534,171.3228 53.5401,172.5168 49.0267,173.6865 44.5134,174.1186 40,174.5404"></polyline>
<text class = "party erc" x="631.1111" y="142"><tspan class="party_name">ERC</tspan><tspan class="party_result"> (22.9±2.1%)</tspan></text>
<polyline id="media-jxcat"  class="jxcat media" points=" 40,222.5141 44.5134,222.508 49.0267,222.4957 53.5401,222.4765 58.0534,222.4507 62.5668,222.4209 67.0801,222.3922 71.5935,222.3721 76.1068,222.3708 80.6202,222.4037 85.1335,222.5001 89.6469,222.7315 94.1602,222.9686 98.6736,223.2099 103.1869,223.4543 107.7003,223.7009 112.2136,223.9488 116.727,224.1975 121.2403,224.4465 125.7537,224.6956 130.267,224.9446 134.7804,225.1934 139.2937,225.442 143.8071,225.6906 148.3204,225.9393 152.8338,226.1885 157.3471,226.4385 161.8605,226.6897 166.3738,226.9375 170.8872,227.1657 175.4005,227.3443 179.9139,227.4253 184.4272,227.316 188.9406,227.2367 193.4539,227.1831 197.9673,227.1508 202.4806,227.1359 206.994,227.1344 211.5073,227.1427 216.0207,227.1567 220.534,227.1728 225.0474,227.1866 229.5607,227.1937 234.0741,227.1993 238.5874,227.236 243.1008,227.3798 247.6141,227.8007 252.1275,228.2076 256.6408,228.6 261.1542,228.9733 265.6675,229.3165 270.1809,229.6181 274.6942,229.872 279.2076,230.0787 283.7209,230.342 288.2343,230.658 292.7476,231.0237 297.261,231.4372 301.7743,231.8975 306.2877,232.4042 310.801,232.9581 315.3144,233.5605 319.8277,234.2137 324.3411,234.9211 328.8544,235.6873 333.3678,236.502 337.8811,237.3136 342.3945,238.0166 346.9078,238.4426 351.4212,238.3307 355.9345,237.223 360.4479,236.3258 364.9612,235.6133 369.4746,235.0637 373.9879,234.6584 378.5013,234.3817 383.0146,234.2198 387.528,234.1565 392.0413,234.1658 396.5547,234.2104 401.068,234.2399 405.5814,234.3453 410.0947,234.5236 414.6081,234.8396 419.1214,235.2711 423.6348,235.7001 428.1481,235.8754 432.6615,235.315 437.1748,235.0075 441.6882,234.8899 446.2016,234.8528 450.7149,234.7073 455.2283,234.0992 459.7416,233.4996 464.255,232.5212 468.7683,230.3019 473.2817,228.1192 477.795,225.9873 482.3084,223.9195 486.8217,221.9273 491.3351,220.0212 495.8484,218.2097 500.3618,216.5002 504.8751,214.8981 509.3885,213.4075 513.9018,212.0464 518.4152,210.8653 522.9285,209.956 527.4419,209.4788 531.9552,209.1165 536.4686,209.0154 540.9819,208.9303 545.4953,208.8048 550.0086,208.2683 554.522,206.2314 559.0353,204.1898 563.5487,202.36 568.062,200.789 572.5754,199.4769 577.0887,198.3672 581.6021,197.1206 586.1154,195.9468 590.6288,195.138 595.1421,194.4255 599.6555,194.0641 604.1688,193.6405 608.6822,193.1977 613.1955,192.7653 617.7089,192.4922 622.2222,192.5606"></polyline>
<polyline id="error-jxcat" class="jxcat error" points=" 40,186.3854 44.5134,186.9449 49.0267,187.5213 53.5401,188.753 58.0534,190.0124 62.5668,191.2704 67.0801,192.4748 71.5935,193.5544 76.1068,194.419 80.6202,194.9464 85.1335,194.9326 89.6469,193.9329 94.1602,193.1311 98.6736,192.5118 103.1869,192.0611 107.7003,191.766 112.2136,191.6148 116.727,191.5968 121.2403,191.7025 125.7537,191.9234 130.267,192.2522 134.7804,192.6824 139.2937,193.2088 143.8071,193.8272 148.3204,194.5344 152.8338,195.3284 157.3471,196.2084 161.8605,197.1748 166.3738,198.2044 170.8872,199.2109 175.4005,200.0291 179.9139,200.3871 184.4272,199.7785 188.9406,199.3733 193.4539,199.1493 197.9673,199.0875 202.4806,199.1719 206.994,199.389 211.5073,199.7273 216.0207,200.1775 220.534,200.7315 225.0474,201.3833 229.5607,202.1281 234.0741,202.939 238.5874,203.7341 243.1008,204.368 247.6141,204.5974 252.1275,205.0419 256.6408,205.6818 261.1542,206.4769 265.6675,207.3242 270.1809,208.0449 274.6942,208.3573 279.2076,207.7018 283.7209,207.2962 288.2343,207.1118 292.7476,207.1261 297.261,207.3207 301.7743,207.6811 306.2877,208.1957 310.801,208.8554 315.3144,209.6538 319.8277,210.5866 324.3411,211.6517 328.8544,212.8495 333.3678,214.1605 337.8811,215.5073 342.3945,216.7378 346.9078,217.6132 351.4212,217.7705 355.9345,216.5873 360.4479,215.7472 364.9612,215.2092 369.4746,214.9393 373.9879,214.9095 378.5013,215.0966 383.0146,215.4816 387.528,216.0255 392.0413,216.6337 396.5547,217.144 401.068,217.2962 405.5814,217.4977 410.0947,217.6082 414.6081,218.0221 419.1214,218.6896 423.6348,219.4214 428.1481,219.8345 432.6615,219.2153 437.1748,219.0178 441.6882,219.1377 446.2016,219.4042 450.7149,219.5319 455.2283,218.9974 459.7416,218.4871 464.255,217.4184 468.7683,214.5515 473.2817,211.8528 477.795,209.3284 482.3084,206.985 486.8217,204.8288 491.3351,202.865 495.8484,201.0979 500.3618,199.5306 504.8751,198.1652 509.3885,197.0025 513.9018,196.0489 518.4152,195.319 522.9285,194.8323 527.4419,194.6194 531.9552,194.5527 536.4686,194.673 540.9819,194.9553 545.4953,195.2838 550.0086,195.0984 554.522,192.8803 559.0353,190.8378 563.5487,189.181 568.062,187.8287 572.5754,186.5879 577.0887,185.0109 581.6021,183.5327 586.1154,182.2631 590.6288,181.3492 595.1421,180.6202 599.6555,180.2077 604.1688,179.8248 608.6822,179.4227 613.1955,178.8632 617.7089,178.3357 622.2222,177.6836 622.2222,207.4375 617.7089,206.6486 613.1955,206.6675 608.6822,206.9726 604.1688,207.4562 599.6555,207.9204 595.1421,208.2308 590.6288,208.9267 586.1154,209.6304 581.6021,210.7085 577.0887,211.7236 572.5754,212.366 568.062,213.7493 563.5487,215.539 559.0353,217.5418 554.522,219.5826 550.0086,221.4381 545.4953,222.3259 540.9819,222.9053 536.4686,223.3577 531.9552,223.6804 527.4419,224.3382 522.9285,225.0797 518.4152,226.4117 513.9018,228.044 509.3885,229.8124 504.8751,231.631 500.3618,233.4698 495.8484,235.3216 491.3351,237.1774 486.8217,239.0259 482.3084,240.8539 477.795,242.6463 473.2817,244.3856 468.7683,246.0524 464.255,247.624 459.7416,248.512 455.2283,249.2011 450.7149,249.8827 446.2016,250.3014 441.6882,250.6421 437.1748,250.9971 432.6615,251.4148 428.1481,251.9164 423.6348,251.9787 419.1214,251.8526 414.6081,251.657 410.0947,251.439 405.5814,251.193 401.068,251.1836 396.5547,251.2769 392.0413,251.6979 387.528,252.2874 383.0146,252.9579 378.5013,253.6667 373.9879,254.4073 369.4746,255.1881 364.9612,256.0174 360.4479,256.9044 355.9345,257.8587 351.4212,258.8909 346.9078,259.272 342.3945,259.2954 337.8811,259.1199 333.3678,258.8434 328.8544,258.525 324.3411,258.1905 319.8277,257.8408 315.3144,257.4671 310.801,257.0607 306.2877,256.6128 301.7743,256.1138 297.261,255.5538 292.7476,254.9214 288.2343,254.2042 283.7209,253.3879 279.2076,252.4555 274.6942,251.3867 270.1809,251.1914 265.6675,251.3088 261.1542,251.4697 256.6408,251.5183 252.1275,251.3733 247.6141,251.004 243.1008,250.3916 238.5874,250.738 234.0741,251.4595 229.5607,252.2593 225.0474,252.9898 220.534,253.614 216.0207,254.136 211.5073,254.558 206.994,254.8799 202.4806,255.0998 197.9673,255.2141 193.4539,255.2168 188.9406,255.1001 184.4272,254.8535 179.9139,254.4636 175.4005,254.6594 170.8872,255.1205 166.3738,255.6707 161.8605,256.2045 157.3471,256.6686 152.8338,257.0486 148.3204,257.3443 143.8071,257.554 139.2937,257.6752 134.7804,257.7044 130.267,257.637 125.7537,257.4679 121.2403,257.1906 116.727,256.7982 112.2136,256.2828 107.7003,255.6357 103.1869,254.8475 98.6736,253.908 94.1602,252.8061 89.6469,251.5302 85.1335,250.0675 80.6202,249.8611 76.1068,250.3225 71.5935,251.1898 67.0801,252.3097 62.5668,253.5715 58.0534,254.889 53.5401,256.1999 49.0267,257.47 44.5134,258.0712 40,258.6429"></polyline>
<text class = "party jxcat" x="631.1111" y="191"><tspan class="party_name">JxCAT</tspan><tspan class="party_result"> (17.4±1.8%)</tspan></text>
<polyline id="media-cec"  class="cec media" points=" 40,243.4621 44.5134,243.1469 49.0267,242.8168 53.5401,242.4712 58.0534,242.1136 62.5668,241.7569 67.0801,241.4234 71.5935,241.142 76.1068,240.9487 80.6202,240.8947 85.1335,241.0737 89.6469,241.7197 94.1602,242.337 98.6736,242.9217 103.1869,243.471 107.7003,243.9832 112.2136,244.4576 116.727,244.894 121.2403,245.2927 125.7537,245.6548 130.267,245.9814 134.7804,246.2741 139.2937,246.5344 143.8071,246.7644 148.3204,246.9659 152.8338,247.1411 157.3471,247.2922 161.8605,247.4216 166.3738,247.5295 170.8872,247.6105 175.4005,247.6519 179.9139,247.6292 184.4272,247.487 188.9406,247.3311 193.4539,247.1581 197.9673,246.9647 202.4806,246.7478 206.994,246.5047 211.5073,246.2326 216.0207,245.9286 220.534,245.5898 225.0474,245.213 229.5607,244.7947 234.0741,244.357 238.5874,243.9857 243.1008,243.8479 247.6141,244.2789 252.1275,244.5789 256.6408,244.7548 261.1542,244.8225 265.6675,244.8262 270.1809,244.8483 274.6942,245.0304 279.2076,245.6866 283.7209,246.2875 288.2343,246.8313 292.7476,247.3171 297.261,247.7451 301.7743,248.1155 306.2877,248.4287 310.801,248.6852 315.3144,248.8854 319.8277,249.0292 324.3411,249.1162 328.8544,249.1456 333.3678,249.1221 337.8811,249.0685 342.3945,249.0317 346.9078,249.0894 351.4212,249.3646 355.9345,250.0752 360.4479,250.6946 364.9612,251.2302 369.4746,251.6887 373.9879,252.0762 378.5013,252.3982 383.0146,252.6599 387.528,252.8598 392.0413,252.98 396.5547,252.9787 401.068,252.7621 405.5814,252.7608 410.0947,253.1312 414.6081,253.4159 419.1214,253.6249 423.6348,253.818 428.1481,254.136 432.6615,254.8709 437.1748,255.5096 441.6882,256.0659 446.2016,256.5704 450.7149,257.0774 455.2283,257.6835 459.7416,258.2183 464.255,258.6945 468.7683,259.1629 473.2817,259.6828 477.795,260.2398 482.3084,260.8224 486.8217,261.4208 491.3351,262.0271 495.8484,262.6347 500.3618,263.238 504.8751,263.8328 509.3885,264.4159 513.9018,264.9769 518.4152,265.4883 522.9285,265.9073 527.4419,266.1777 531.9552,266.5316 536.4686,267.0229 540.9819,267.5872 545.4953,268.1572 550.0086,268.4643 554.522,267.843 559.0353,267.4177 563.5487,267.1231 568.062,266.965 572.5754,266.9962 577.0887,267.3943 581.6021,267.732 586.1154,267.919 590.6288,267.7836 595.1421,267.7015 599.6555,267.7209 604.1688,267.7908 608.6822,267.966 613.1955,268.3415 617.7089,268.5838 622.2222,268.5724"></polyline>
<polyline id="error-cec" class="cec error" points=" 40,216.6919 44.5134,216.9022 49.0267,217.1171 53.5401,217.6942 58.0534,218.2843 62.5668,218.8773 67.0801,219.4531 71.5935,219.983 76.1068,220.4293 80.6202,220.7417 85.1335,220.8432 89.6469,220.5896 94.1602,220.4502 98.6736,220.4103 103.1869,220.4574 107.7003,220.5808 112.2136,220.7713 116.727,221.0213 121.2403,221.3244 125.7537,221.6752 130.267,222.0695 134.7804,222.5042 139.2937,222.977 143.8071,223.4865 148.3204,224.0322 152.8338,224.6146 157.3471,225.2349 161.8605,225.8956 166.3738,226.5831 170.8872,227.2402 175.4005,227.7539 179.9139,227.9336 184.4272,227.4172 188.9406,227.0145 193.4539,226.7087 197.9673,226.4857 202.4806,226.3337 206.994,226.2428 211.5073,226.2045 216.0207,226.2119 220.534,226.2592 225.0474,226.3417 229.5607,226.4557 234.0741,226.6004 238.5874,226.7785 243.1008,226.9969 247.6141,227.2911 252.1275,227.62 256.6408,227.9769 261.1542,228.3519 265.6675,228.7224 270.1809,229.0498 274.6942,229.2758 279.2076,229.3096 283.7209,229.4287 288.2343,229.613 292.7476,229.8469 297.261,230.1181 301.7743,230.4168 306.2877,230.7349 310.801,231.0658 315.3144,231.4038 319.8277,231.744 324.3411,232.0821 328.8544,232.4141 333.3678,232.7385 337.8811,233.061 342.3945,233.3985 346.9078,233.7829 351.4212,234.2712 355.9345,234.9775 360.4479,235.6827 364.9612,236.3833 369.4746,237.0773 373.9879,237.7643 378.5013,238.4448 383.0146,239.1207 387.528,239.774 392.0413,240.3366 396.5547,240.6753 401.068,240.5413 405.5814,240.6083 410.0947,240.9369 414.6081,241.2959 419.1214,241.6754 423.6348,242.0876 428.1481,242.5854 432.6615,243.3098 437.1748,244.0535 441.6882,244.8009 446.2016,245.5412 450.7149,246.2634 455.2283,246.9507 459.7416,247.5758 464.255,248.0175 468.7683,248.0734 473.2817,248.2781 477.795,248.61 482.3084,249.0514 486.8217,249.5874 491.3351,250.2053 495.8484,250.8942 500.3618,251.6449 504.8751,252.4496 509.3885,253.3022 513.9018,254.1831 518.4152,255.0383 522.9285,255.7728 527.4419,256.2387 531.9552,256.8098 536.4686,257.4678 540.9819,258.2992 545.4953,259.1948 550.0086,259.7545 554.522,259.0175 559.0353,258.6037 563.5487,258.4385 568.062,258.4407 572.5754,258.5346 577.0887,258.6419 581.6021,258.8472 586.1154,258.9881 590.6288,258.7875 595.1421,258.6999 599.6555,258.6897 604.1688,258.7932 608.6822,259.0051 613.1955,259.311 617.7089,259.3939 622.2222,258.9013 622.2222,278.2434 617.7089,277.7737 613.1955,277.3719 608.6822,276.9268 604.1688,276.7884 599.6555,276.7521 595.1421,276.7032 590.6288,276.7796 586.1154,276.8499 581.6021,276.6168 577.0887,276.1468 572.5754,275.4578 568.062,275.4894 563.5487,275.8077 559.0353,276.2317 554.522,276.6685 550.0086,277.1741 545.4953,277.1195 540.9819,276.8752 536.4686,276.5781 531.9552,276.2533 527.4419,276.1167 522.9285,276.0418 518.4152,275.9384 513.9018,275.7707 509.3885,275.5296 504.8751,275.2161 500.3618,274.8311 495.8484,274.3751 491.3351,273.8489 486.8217,273.2542 482.3084,272.5934 477.795,271.8697 473.2817,271.0876 468.7683,270.2525 464.255,269.3714 459.7416,268.8608 455.2283,268.4163 450.7149,267.8914 446.2016,267.5997 441.6882,267.3308 437.1748,266.9658 432.6615,266.4321 428.1481,265.6866 423.6348,265.5485 419.1214,265.5744 414.6081,265.536 410.0947,265.3255 405.5814,264.9134 401.068,264.9828 396.5547,265.2821 392.0413,265.6233 387.528,265.9456 383.0146,266.1991 378.5013,266.3515 373.9879,266.3881 369.4746,266.3002 364.9612,266.0772 360.4479,265.7065 355.9345,265.1729 351.4212,264.458 346.9078,264.396 342.3945,264.6649 337.8811,265.0759 333.3678,265.5058 328.8544,265.877 324.3411,266.1502 319.8277,266.3143 315.3144,266.367 310.801,266.3047 306.2877,266.1225 301.7743,265.8142 297.261,265.3721 292.7476,264.7874 288.2343,264.0495 283.7209,263.1464 279.2076,262.0637 274.6942,260.7849 270.1809,260.6468 265.6675,260.9299 261.1542,261.2931 256.6408,261.5326 252.1275,261.5377 247.6141,261.2668 243.1008,260.6989 238.5874,261.1928 234.0741,262.1136 229.5607,263.1336 225.0474,264.0843 220.534,264.9203 216.0207,265.6452 211.5073,266.2606 206.994,266.7666 202.4806,267.1619 197.9673,267.4437 193.4539,267.6076 188.9406,267.6478 184.4272,267.5567 179.9139,267.3247 175.4005,267.55 170.8872,267.9809 166.3738,268.4759 161.8605,268.9475 157.3471,269.3495 152.8338,269.6676 148.3204,269.8996 143.8071,270.0423 139.2937,270.0919 134.7804,270.0439 130.267,269.8933 125.7537,269.6345 121.2403,269.2611 116.727,268.7666 112.2136,268.1439 107.7003,267.3857 103.1869,266.4846 98.6736,265.433 94.1602,264.2238 89.6469,262.8497 85.1335,261.3043 80.6202,261.0478 76.1068,261.4682 71.5935,262.3009 67.0801,263.3936 62.5668,264.6366 58.0534,265.9429 53.5401,267.2483 49.0267,268.5166 44.5134,269.3916 40,270.2323"></polyline>
<text class = "party cec" x="631.1111" y="257"><tspan class="party_name">CeC</tspan><tspan class="party_result"> (8.0±1.2%)</tspan></text>
<polyline id="media-psc"  class="psc media" points=" 40,222.8982 44.5134,222.8853 49.0267,222.8667 53.5401,222.8414 58.0534,222.8098 62.5668,222.7749 67.0801,222.7429 71.5935,222.7232 76.1068,222.7288 80.6202,222.7797 85.1335,222.9137 89.6469,223.2252 94.1602,223.5509 98.6736,223.8903 103.1869,224.2431 107.7003,224.6095 112.2136,224.9901 116.727,225.3856 121.2403,225.7972 125.7537,226.2264 130.267,226.6753 134.7804,227.1461 139.2937,227.6416 143.8071,228.1652 148.3204,228.7207 152.8338,229.3129 157.3471,229.947 161.8605,230.6294 166.3738,231.3404 170.8872,231.9914 175.4005,232.4055 179.9139,232.277 184.4272,230.9865 188.9406,229.8149 193.4539,228.7502 197.9673,227.7805 202.4806,226.8948 206.994,226.0829 211.5073,225.3349 216.0207,224.6417 220.534,223.9945 225.0474,223.3847 229.5607,222.8036 234.0741,222.2659 238.5874,221.8404 243.1008,221.6659 247.6141,222.0287 252.1275,222.3232 256.6408,222.5621 261.1542,222.755 265.6675,222.9118 270.1809,223.0469 274.6942,223.1855 279.2076,223.3831 283.7209,223.5972 288.2343,223.8281 292.7476,224.0774 297.261,224.3467 301.7743,224.6386 306.2877,224.9558 310.801,225.3016 315.3144,225.68 319.8277,226.0954 324.3411,226.5531 328.8544,227.0595 333.3678,227.6073 337.8811,228.1507 342.3945,228.5914 346.9078,228.7688 351.4212,228.4283 355.9345,227.1166 360.4479,225.976 364.9612,224.9848 369.4746,224.1245 373.9879,223.3797 378.5013,222.7369 383.0146,222.1846 387.528,221.7189 392.0413,221.3481 396.5547,221.092 401.068,220.9917 405.5814,220.76 410.0947,220.29 414.6081,219.8382 419.1214,219.4206 423.6348,219.0901 428.1481,218.9514 432.6615,219.2098 437.1748,219.4502 441.6882,219.6504 446.2016,219.7387 450.7149,219.5838 455.2283,218.9475 459.7416,218.4056 464.255,217.9062 468.7683,217.3322 473.2817,216.7266 477.795,216.0996 482.3084,215.4598 486.8217,214.8141 491.3351,214.1686 495.8484,213.5282 500.3618,212.8973 504.8751,212.2793 509.3885,211.677 513.9018,211.0924 518.4152,210.5215 522.9285,209.9669 527.4419,209.4631 531.9552,209.2172 536.4686,209.5369 540.9819,209.7541 545.4953,209.8738 550.0086,209.8351 554.522,209.4268 559.0353,208.9531 563.5487,208.4976 568.062,208.1203 572.5754,207.9095 577.0887,208.0596 581.6021,208.0762 586.1154,207.9853 590.6288,207.8526 595.1421,207.9467 599.6555,208.6339 604.1688,209.1262 608.6822,209.339 613.1955,209.1375 617.7089,209.0277 622.2222,209.1882"></polyline>
<polyline id="error-psc" class="psc error" points=" 40,189.0495 44.5134,189.6015 49.0267,190.1701 53.5401,191.3172 58.0534,192.4899 62.5668,193.6615 67.0801,194.7848 71.5935,195.7953 76.1068,196.6123 80.6202,197.127 85.1335,197.1595 89.6469,196.3214 94.1602,195.6781 98.6736,195.216 103.1869,194.9228 107.7003,194.7876 112.2136,194.8006 116.727,194.9533 121.2403,195.2383 125.7537,195.6497 130.267,196.1826 134.7804,196.8335 139.2937,197.6002 143.8071,198.4821 148.3204,199.48 152.8338,200.5964 157.3471,201.8356 161.8605,203.204 166.3738,204.6635 170.8872,206.0575 175.4005,207.0771 179.9139,207.1986 184.4272,205.3969 188.9406,203.8786 193.4539,202.6153 197.9673,201.5817 202.4806,200.7557 206.994,200.1179 211.5073,199.6514 216.0207,199.3417 220.534,199.1761 225.0474,199.1442 229.5607,199.2369 234.0741,199.4392 238.5874,199.7131 243.1008,199.9905 247.6141,200.1712 252.1275,200.4978 256.6408,200.9653 261.1542,201.5506 265.6675,202.1772 270.1809,202.7028 274.6942,202.8932 279.2076,202.2771 283.7209,201.8584 288.2343,201.6146 292.7476,201.5284 297.261,201.5865 301.7743,201.7786 306.2877,202.0969 310.801,202.5359 315.3144,203.092 319.8277,203.7636 324.3411,204.5512 328.8544,205.4571 333.3678,206.4656 337.8811,207.5066 342.3945,208.4382 346.9078,209.0332 351.4212,208.9408 355.9345,207.5519 360.4479,206.4586 364.9612,205.625 369.4746,205.0214 373.9879,204.6234 378.5013,204.4109 383.0146,204.3675 387.528,204.4683 392.0413,204.6572 396.5547,204.8365 401.068,204.8498 405.5814,204.7013 410.0947,204.1507 414.6081,203.7734 419.1214,203.5602 423.6348,203.5005 428.1481,203.5816 432.6615,203.8034 437.1748,204.1621 441.6882,204.5963 446.2016,204.9772 450.7149,205.083 455.2283,204.517 459.7416,204.0625 464.255,203.4884 468.7683,202.336 473.2817,201.277 477.795,200.3131 482.3084,199.4457 486.8217,198.676 491.3351,198.0046 495.8484,197.432 500.3618,196.9582 504.8751,196.5831 509.3885,196.3065 513.9018,196.1189 518.4152,195.9818 522.9285,195.8289 527.4419,195.5714 531.9552,195.604 536.4686,196.1388 540.9819,196.7049 545.4953,197.2533 550.0086,197.551 554.522,196.9991 559.0353,196.5489 563.5487,196.2749 568.062,196.118 572.5754,195.9891 577.0887,195.7255 581.6021,195.547 586.1154,195.3838 590.6288,195.1638 595.1421,195.2551 599.6555,195.9129 604.1688,196.4578 608.6822,196.7184 613.1955,196.4028 617.7089,196.0613 622.2222,195.5616 622.2222,222.8147 617.7089,221.994 613.1955,221.8722 608.6822,221.9596 604.1688,221.7946 599.6555,221.3548 595.1421,220.6383 590.6288,220.5413 586.1154,220.5868 581.6021,220.6053 577.0887,220.3936 572.5754,219.8298 568.062,220.1226 563.5487,220.7204 559.0353,221.3574 554.522,221.8545 550.0086,222.1193 545.4953,222.4942 540.9819,222.8032 536.4686,222.9351 531.9552,222.8305 527.4419,223.3548 522.9285,224.1048 518.4152,225.0612 513.9018,226.066 509.3885,227.0476 504.8751,227.9755 500.3618,228.8365 495.8484,229.6245 491.3351,230.3325 486.8217,230.9522 482.3084,231.4738 477.795,231.8862 473.2817,232.1763 468.7683,232.3285 464.255,232.3239 459.7416,232.7486 455.2283,233.3779 450.7149,234.0845 446.2016,234.5002 441.6882,234.7044 437.1748,234.7383 432.6615,234.6161 428.1481,234.3213 423.6348,234.6797 419.1214,235.2811 414.6081,235.9029 410.0947,236.4292 405.5814,236.8188 401.068,237.1336 396.5547,237.3475 392.0413,238.0391 387.528,238.9695 383.0146,240.0016 378.5013,241.0629 373.9879,242.136 369.4746,243.2277 364.9612,244.3445 360.4479,245.4933 355.9345,246.6812 351.4212,247.9157 346.9078,248.5043 342.3945,248.7446 337.8811,248.7947 333.3678,248.749 328.8544,248.6618 324.3411,248.555 319.8277,248.4271 315.3144,248.268 310.801,248.0674 306.2877,247.8147 301.7743,247.4986 297.261,247.1069 292.7476,246.6263 288.2343,246.0417 283.7209,245.3359 279.2076,244.4891 274.6942,243.4778 270.1809,243.3911 265.6675,243.6463 261.1542,243.9593 256.6408,244.1588 252.1275,244.1487 247.6141,243.8862 243.1008,243.3414 238.5874,243.9678 234.0741,245.0926 229.5607,246.3703 225.0474,247.6252 220.534,248.8129 216.0207,249.9418 211.5073,251.0184 206.994,252.0478 202.4806,253.0339 197.9673,253.9792 193.4539,254.885 188.9406,255.7513 184.4272,256.5761 179.9139,257.3554 175.4005,257.7339 170.8872,257.9254 166.3738,258.0174 161.8605,258.0549 157.3471,258.0584 152.8338,258.0294 148.3204,257.9615 143.8071,257.8482 139.2937,257.683 134.7804,257.4587 130.267,257.168 125.7537,256.8032 121.2403,256.356 116.727,255.8179 112.2136,255.1796 107.7003,254.4315 103.1869,253.5634 98.6736,252.5645 94.1602,251.4237 89.6469,250.129 85.1335,248.6679 80.6202,248.4324 76.1068,248.8453 71.5935,249.6512 67.0801,250.7011 62.5668,251.8882 58.0534,253.1297 53.5401,254.3656 49.0267,255.5632 44.5134,256.1692 40,256.7469"></polyline>
<text class = "party psc" x="631.1111" y="211"><tspan class="party_name">PSC</tspan><tspan class="party_result"> (15.4±1.7%)</tspan></text>
<polyline id="media-cs"  class="cs media" points=" 40,185.833 44.5134,186.0972 49.0267,186.3722 53.5401,186.6583 58.0534,186.9525 62.5668,187.2448 67.0801,187.5185 71.5935,187.7521 76.1068,187.9193 80.6202,187.9837 85.1335,187.8784 89.6469,187.4371 94.1602,187.0255 98.6736,186.6468 103.1869,186.3031 107.7003,185.9961 112.2136,185.7266 116.727,185.4949 121.2403,185.301 125.7537,185.1448 130.267,185.0257 134.7804,184.9432 139.2937,184.8968 143.8071,184.8858 148.3204,184.9098 152.8338,184.9684 157.3471,185.0614 161.8605,185.1884 166.3738,185.3431 170.8872,185.5017 175.4005,185.6197 179.9139,185.6229 184.4272,185.3671 188.9406,185.1656 193.4539,185.0178 197.9673,184.9229 202.4806,184.8801 206.994,184.8889 211.5073,184.9489 216.0207,185.0599 220.534,185.2221 225.0474,185.4359 229.5607,185.7022 234.0741,186.0035 238.5874,186.2784 243.1008,186.4103 247.6141,186.1726 252.1275,186.058 256.6408,186.0655 261.1542,186.179 265.6675,186.339 270.1809,186.4304 274.6942,186.254 279.2076,185.3591 283.7209,184.5386 288.2343,183.7912 292.7476,183.1155 297.261,182.5092 301.7743,181.9702 306.2877,181.4964 310.801,181.0857 315.3144,180.736 319.8277,180.4456 324.3411,180.2131 328.8544,180.0375 333.3678,179.9152 337.8811,179.8347 342.3945,179.7731 346.9078,179.6933 351.4212,179.5372 355.9345,179.2051 360.4479,178.9393 364.9612,178.7401 369.4746,178.6083 373.9879,178.545 378.5013,178.5524 383.0146,178.6335 387.528,178.7635 392.0413,178.8413 396.5547,178.6582 401.068,177.808 405.5814,177.0883 410.0947,176.4199 414.6081,175.826 419.1214,175.3131 423.6348,174.8825 428.1481,174.5213 432.6615,174.1918 437.1748,173.9072 441.6882,173.6467 446.2016,173.3461 450.7149,172.8884 455.2283,172.0627 459.7416,171.3535 464.255,170.7368 468.7683,170.1409 473.2817,169.4912 477.795,168.8024 482.3084,168.0864 486.8217,167.3531 491.3351,166.611 495.8484,165.8669 500.3618,165.1264 504.8751,164.3939 509.3885,163.6726 513.9018,162.976 518.4152,162.343 522.9285,161.8178 527.4419,161.4121 531.9552,160.6338 536.4686,159.1123 540.9819,157.4691 545.4953,155.8402 550.0086,154.8471 554.522,156.033 559.0353,156.6452 563.5487,156.9589 568.062,157.1549 572.5754,157.4622 577.0887,158.3207 581.6021,159.0098 586.1154,159.4875 590.6288,159.6165 595.1421,159.4834 599.6555,158.8251 604.1688,158.2032 608.6822,157.6894 613.1955,157.4325 617.7089,157.3316 622.2222,157.743"></polyline>
<polyline id="error-cs" class="cs error" points=" 40,150.838 44.5134,151.7127 49.0267,152.6225 53.5401,154.1178 58.0534,155.6545 62.5668,157.1918 67.0801,158.6574 71.5935,159.9532 76.1068,160.956 80.6202,161.4952 85.1335,161.2779 89.6469,159.6341 94.1602,158.2043 98.6736,156.9786 103.1869,155.9472 107.7003,155.1004 112.2136,154.4288 116.727,153.9232 121.2403,153.5752 125.7537,153.3766 130.267,153.3202 134.7804,153.3995 139.2937,153.6089 143.8071,153.9437 148.3204,154.4002 152.8338,154.976 157.3471,155.6695 161.8605,156.4809 166.3738,157.3853 170.8872,158.2918 175.4005,159.0246 179.9139,159.2925 184.4272,158.5509 188.9406,158.0316 193.4539,157.7168 197.9673,157.5918 202.4806,157.6443 206.994,157.8646 211.5073,158.2451 216.0207,158.7803 220.534,159.4667 225.0474,160.3028 229.5607,161.2893 234.0741,162.3772 238.5874,163.3916 243.1008,163.9964 247.6141,163.554 252.1275,163.46 256.6408,163.6949 261.1542,164.2084 265.6675,164.8506 270.1809,165.3417 274.6942,165.2102 279.2076,163.4496 283.7209,161.95 288.2343,160.6868 292.7476,159.6394 297.261,158.7904 301.7743,158.1245 306.2877,157.6288 310.801,157.2919 315.3144,157.1043 319.8277,157.058 324.3411,157.1463 328.8544,157.3642 333.3678,157.6994 337.8811,158.1171 342.3945,158.5512 346.9078,158.8995 351.4212,159.0097 355.9345,158.6312 360.4479,158.4444 364.9612,158.4353 369.4746,158.5934 373.9879,158.9111 378.5013,159.3839 383.0146,160.0103 387.528,160.7432 392.0413,161.4127 396.5547,161.6843 401.068,160.9389 405.5814,160.2982 410.0947,159.5459 414.6081,159.0299 419.1214,158.7304 423.6348,158.5815 428.1481,158.4456 432.6615,158.0664 437.1748,157.8942 441.6882,157.8681 446.2016,157.8651 450.7149,157.6752 455.2283,156.924 459.7416,156.3068 464.255,155.6137 468.7683,154.4185 473.2817,153.3002 477.795,152.2641 482.3084,151.3147 486.8217,150.4555 491.3351,149.6894 495.8484,149.0184 500.3618,148.4438 504.8751,147.9662 509.3885,147.5857 513.9018,147.3041 518.4152,147.1251 522.9285,147.0216 527.4419,146.8766 531.9552,146.3821 536.4686,145.0573 540.9819,143.7523 545.4953,142.5485 550.0086,141.896 554.522,142.9538 559.0353,143.6069 563.5487,144.1223 568.062,144.5576 572.5754,144.9579 577.0887,145.3928 581.6021,145.887 586.1154,146.2972 590.6288,146.3395 595.1421,146.1999 599.6555,145.4897 604.1688,144.9055 608.6822,144.4309 613.1955,144.0554 617.7089,143.7134 622.2222,143.438 622.2222,172.048 617.7089,170.9498 613.1955,170.8096 608.6822,170.9478 604.1688,171.501 599.6555,172.1604 595.1421,172.767 590.6288,172.8936 586.1154,172.6779 581.6021,172.1326 577.0887,171.2486 572.5754,169.9665 568.062,169.7521 563.5487,169.7955 559.0353,169.6836 554.522,169.1122 550.0086,167.7982 545.4953,169.132 540.9819,171.186 536.4686,173.1672 531.9552,174.8856 527.4419,175.9476 522.9285,176.6139 518.4152,177.561 513.9018,178.648 509.3885,179.7595 504.8751,180.8216 500.3618,181.809 495.8484,182.7154 491.3351,183.5326 486.8217,184.2507 482.3084,184.858 477.795,185.3406 473.2817,185.6821 468.7683,185.8632 464.255,185.8599 459.7416,186.4002 455.2283,187.2014 450.7149,188.1016 446.2016,188.8271 441.6882,189.4253 437.1748,189.9203 432.6615,190.3172 428.1481,190.5969 423.6348,191.1835 419.1214,191.8959 414.6081,192.6222 410.0947,193.294 405.5814,193.8784 401.068,194.6771 396.5547,195.632 392.0413,196.2699 387.528,196.7838 383.0146,197.2566 378.5013,197.7208 373.9879,198.179 369.4746,198.6232 364.9612,199.0449 360.4479,199.4342 355.9345,199.779 351.4212,200.0647 346.9078,200.4871 342.3945,200.9951 337.8811,201.5523 333.3678,202.1309 328.8544,202.7108 324.3411,203.28 319.8277,203.8332 315.3144,204.3676 310.801,204.8794 306.2877,205.3641 301.7743,205.816 297.261,206.228 292.7476,206.5915 288.2343,206.8957 283.7209,207.1272 279.2076,207.2686 274.6942,207.2978 270.1809,207.5192 265.6675,207.8273 261.1542,208.1495 256.6408,208.4362 252.1275,208.6561 247.6141,208.7911 243.1008,208.8242 238.5874,209.1653 234.0741,209.6297 229.5607,210.115 225.0474,210.5691 220.534,210.9775 216.0207,211.3395 211.5073,211.6526 206.994,211.9131 202.4806,212.1158 197.9673,212.2539 193.4539,212.3188 188.9406,212.2996 184.4272,212.1833 179.9139,211.9532 175.4005,212.2148 170.8872,212.7117 166.3738,213.3009 161.8605,213.896 157.3471,214.4532 152.8338,214.9609 148.3204,215.4194 143.8071,215.8279 139.2937,216.1847 134.7804,216.487 130.267,216.7312 125.7537,216.913 121.2403,217.0269 116.727,217.0665 112.2136,217.0243 107.7003,216.8918 103.1869,216.659 98.6736,216.3149 94.1602,215.8468 89.6469,215.2402 85.1335,214.4789 80.6202,214.4721 76.1068,214.8827 71.5935,215.551 67.0801,216.3797 62.5668,217.2979 58.0534,218.2506 53.5401,219.1988 49.0267,220.122 44.5134,220.4818 40,220.828"></polyline>
<text class = "party cs" x="631.1111" y="164"><tspan class="party_name">C's</tspan><tspan class="party_result"> (21.7±1.8%)</tspan></text>
<polyline id="media-pp"  class="pp media" points=" 40,258.9323 44.5134,258.7974 49.0267,258.66 53.5401,258.5202 58.0534,258.3795 62.5668,258.2417 67.0801,258.1128 71.5935,258 76.1068,257.9114 80.6202,257.8573 85.1335,257.8566 89.6469,257.956 94.1602,258.0352 98.6736,258.0932 103.1869,258.1291 107.7003,258.1424 112.2136,258.1328 116.727,258.1 121.2403,258.0439 125.7537,257.9646 130.267,257.8618 134.7804,257.7354 139.2937,257.5852 143.8071,257.4107 148.3204,257.2113 152.8338,256.9864 157.3471,256.7349 161.8605,256.4554 166.3738,256.1568 170.8872,255.8734 175.4005,255.6717 179.9139,255.6633 184.4272,256.0701 188.9406,256.4146 193.4539,256.7008 197.9673,256.9325 202.4806,257.1133 206.994,257.2467 211.5073,257.3357 216.0207,257.3834 220.534,257.3926 225.0474,257.3661 229.5607,257.3069 234.0741,257.2177 238.5874,257.0986 243.1008,256.9395 247.6141,256.7005 252.1275,256.3971 256.6408,256.0237 261.1542,255.5933 265.6675,255.1674 270.1809,254.8649 274.6942,254.8889 279.2076,255.7016 283.7209,256.4274 288.2343,257.0727 292.7476,257.6427 297.261,258.1423 301.7743,258.5757 306.2877,258.9467 310.801,259.2583 315.3144,259.5131 319.8277,259.7133 324.3411,259.8605 328.8544,259.9557 333.3678,260.0034 337.8811,260.0196 342.3945,260.0369 346.9078,260.1079 351.4212,260.3158 355.9345,260.807 360.4479,261.2339 364.9612,261.6011 369.4746,261.9133 373.9879,262.175 378.5013,262.3906 383.0146,262.5647 387.528,262.6931 392.0413,262.7483 396.5547,262.6675 401.068,262.3136 405.5814,262.2415 410.0947,262.6372 414.6081,262.963 419.1214,263.221 423.6348,263.4168 428.1481,263.5638 432.6615,263.6875 437.1748,263.7598 441.6882,263.7835 446.2016,263.7725 450.7149,263.7629 455.2283,263.8387 459.7416,263.9621 464.255,264.3047 468.7683,265.254 473.2817,266.1995 477.795,267.1344 482.3084,268.0525 486.8217,268.9482 491.3351,269.8168 495.8484,270.6539 500.3618,271.456 504.8751,272.2198 509.3885,272.9429 513.9018,273.6273 518.4152,274.2925 522.9285,274.9798 527.4419,275.7598 531.9552,276.4259 536.4686,276.8744 540.9819,277.4717 545.4953,278.1698 550.0086,278.787 554.522,278.9372 559.0353,279.4994 563.5487,280.1293 568.062,280.6962 572.5754,281.0504 577.0887,280.9101 581.6021,280.9375 586.1154,281.0606 590.6288,281.2005 595.1421,281.3512 599.6555,281.4215 604.1688,281.515 608.6822,281.5907 613.1955,281.6059 617.7089,281.5898 622.2222,281.5296"></polyline>
<polyline id="error-pp" class="pp error" points=" 40,232.0832 44.5134,232.4626 49.0267,232.8583 53.5401,233.6605 58.0534,234.4867 62.5668,235.3167 67.0801,236.1136 71.5935,236.8252 76.1068,237.3847 80.6202,237.6993 85.1335,237.613 89.6469,236.7832 94.1602,236.0755 98.6736,235.4789 103.1869,234.9833 107.7003,234.5793 112.2136,234.2587 116.727,234.014 121.2403,233.8382 125.7537,233.7252 130.267,233.6695 134.7804,233.6663 139.2937,233.7114 143.8071,233.8009 148.3204,233.9319 152.8338,234.1019 157.3471,234.3088 161.8605,234.5516 166.3738,234.8251 170.8872,235.1129 175.4005,235.3824 179.9139,235.5816 184.4272,235.6312 188.9406,235.7467 193.4539,235.9186 197.9673,236.1398 202.4806,236.4048 206.994,236.7101 211.5073,237.053 216.0207,237.4325 220.534,237.8486 225.0474,238.3027 229.5607,238.7976 234.0741,239.3119 238.5874,239.7584 243.1008,239.9584 247.6141,239.555 252.1275,239.2575 256.6408,239.0461 261.1542,238.9083 265.6675,238.8386 270.1809,238.8343 274.6942,238.8974 279.2076,239.084 283.7209,239.326 288.2343,239.6109 292.7476,239.9293 297.261,240.2736 301.7743,240.6378 306.2877,241.017 310.801,241.4072 315.3144,241.805 319.8277,242.2077 324.3411,242.6128 328.8544,243.0182 333.3678,243.422 337.8811,243.8229 342.3945,244.2222 346.9078,244.6254 351.4212,245.0478 355.9345,245.528 360.4479,246.0361 364.9612,246.5657 369.4746,247.1127 373.9879,247.6748 378.5013,248.2516 383.0146,248.844 387.528,249.431 392.0413,249.9339 396.5547,250.1959 401.068,249.9211 405.5814,249.916 410.0947,250.2708 414.6081,250.6739 419.1214,251.1073 423.6348,251.5262 428.1481,251.8511 432.6615,251.9458 437.1748,252.1079 441.6882,252.3106 446.2016,252.5248 450.7149,252.7197 455.2283,252.8631 459.7416,253.0669 464.255,253.3705 468.7683,253.9123 473.2817,254.5494 477.795,255.2673 482.3084,256.0533 486.8217,256.8964 491.3351,257.7868 495.8484,258.7159 500.3618,259.676 504.8751,260.6605 509.3885,261.6638 513.9018,262.6789 518.4152,263.6998 522.9285,264.7173 527.4419,265.7128 531.9552,266.6098 536.4686,267.2268 540.9819,268.097 545.4953,269.1301 550.0086,270.0127 554.522,270.0678 559.0353,270.6701 563.5487,271.4569 568.062,272.2056 572.5754,272.6323 577.0887,272.1861 581.6021,272.0725 586.1154,272.148 590.6288,272.2307 595.1421,272.3829 599.6555,272.4252 604.1688,272.5534 608.6822,272.6634 613.1955,272.5989 617.7089,272.4155 622.2222,271.8707 622.2222,291.1885 617.7089,290.7641 613.1955,290.6129 608.6822,290.518 604.1688,290.4766 599.6555,290.4178 595.1421,290.3195 590.6288,290.1702 586.1154,289.9731 581.6021,289.8025 577.0887,289.6341 572.5754,289.4685 568.062,289.1868 563.5487,288.8016 559.0353,288.3286 554.522,287.8067 550.0086,287.5612 545.4953,287.2095 540.9819,286.8463 536.4686,286.5219 531.9552,286.242 527.4419,285.8069 522.9285,285.2423 518.4152,284.8853 513.9018,284.5756 509.3885,284.2219 504.8751,283.7791 500.3618,283.2359 495.8484,282.592 491.3351,281.8468 486.8217,281.0001 482.3084,280.0517 477.795,279.0015 473.2817,277.8495 468.7683,276.5956 464.255,275.239 459.7416,274.8573 455.2283,274.8142 450.7149,274.806 446.2016,275.0202 441.6882,275.2564 437.1748,275.4116 432.6615,275.4292 428.1481,275.2765 423.6348,275.3074 419.1214,275.3347 414.6081,275.252 410.0947,275.0037 405.5814,274.567 401.068,274.7062 396.5547,275.139 392.0413,275.5627 387.528,275.9551 383.0146,276.2854 378.5013,276.5295 373.9879,276.6751 369.4746,276.7139 364.9612,276.6365 360.4479,276.4316 355.9345,276.086 351.4212,275.5838 346.9078,275.5904 342.3945,275.8515 337.8811,276.2163 333.3678,276.5847 328.8544,276.8932 324.3411,277.1083 319.8277,277.219 315.3144,277.2212 310.801,277.1094 306.2877,276.8764 301.7743,276.5137 297.261,276.011 292.7476,275.356 288.2343,274.5344 283.7209,273.5289 279.2076,272.3192 274.6942,270.8804 270.1809,270.8955 265.6675,271.4962 261.1542,272.2783 256.6408,273.0012 252.1275,273.5367 247.6141,273.846 243.1008,273.9206 238.5874,274.4388 234.0741,275.1235 229.5607,275.8161 225.0474,276.4295 220.534,276.9365 216.0207,277.3342 211.5073,277.6183 206.994,277.7832 202.4806,277.8218 197.9673,277.7252 193.4539,277.483 188.9406,277.0825 184.4272,276.509 179.9139,275.745 175.4005,275.9609 170.8872,276.634 166.3738,277.4886 161.8605,278.3593 157.3471,279.1609 152.8338,279.871 148.3204,280.4908 143.8071,281.0205 139.2937,281.459 134.7804,281.8045 130.267,282.0541 125.7537,282.204 121.2403,282.2497 116.727,282.1859 112.2136,282.0068 107.7003,281.7055 103.1869,281.275 98.6736,280.7075 94.1602,279.995 89.6469,279.1288 85.1335,278.1002 80.6202,278.0154 76.1068,278.4381 71.5935,279.1749 67.0801,280.1121 62.5668,281.1667 58.0534,282.2723 53.5401,283.3799 49.0267,284.4617 44.5134,285.1323 40,285.7814"></polyline>
<text class = "party pp" x="631.1111" y="278"><tspan class="party_name">PP</tspan><tspan class="party_result"> (6.4±1.2%)</tspan></text>
<polyline id="media-otros"  class="otros media" points=" 40,310.4999 44.5134,310.5238 49.0267,310.55 53.5401,310.5791 58.0534,310.6106 62.5668,310.6428 67.0801,310.6728 71.5935,310.6962 76.1068,310.707 80.6202,310.6968 85.1335,310.6493 89.6469,310.5241 94.1602,310.397 98.6736,310.2684 103.1869,310.1385 107.7003,310.0074 112.2136,309.8752 116.727,309.7415 121.2403,309.6061 125.7537,309.4687 130.267,309.3286 134.7804,309.1851 139.2937,309.0376 143.8071,308.8851 148.3204,308.7264 152.8338,308.5603 157.3471,308.3853 161.8605,308.1997 166.3738,308.0085 170.8872,307.8352 175.4005,307.7263 179.9139,307.7627 184.4272,308.1084 188.9406,308.4257 193.4539,308.7183 197.9673,308.9901 202.4806,309.2444 206.994,309.4848 211.5073,309.7148 216.0207,309.9378 220.534,310.1575 225.0474,310.3776 229.5607,310.6026 234.0741,310.8198 238.5874,310.9738 243.1008,310.9486 247.6141,310.4982 252.1275,310.089 256.6408,309.7133 261.1542,309.3699 265.6675,309.0698 270.1809,308.8349 274.6942,308.7005 279.2076,308.7479 283.7209,308.766 288.2343,308.7593 292.7476,308.7312 297.261,308.6844 301.7743,308.6207 306.2877,308.5413 310.801,308.447 315.3144,308.3384 319.8277,308.2154 324.3411,308.0778 328.8544,307.9251 333.3678,307.7595 337.8811,307.5907 342.3945,307.4387 346.9078,307.3348 351.4212,307.3265 355.9345,307.4963 360.4479,307.6171 364.9612,307.6928 369.4746,307.726 373.9879,307.7186 378.5013,307.6712 383.0146,307.5837 387.528,307.4701 392.0413,307.3829 396.5547,307.4271 401.068,307.804 405.5814,308.1628 410.0947,308.5811 414.6081,308.9485 419.1214,309.2649 423.6348,309.5391 428.1481,309.7985 432.6615,310.1059 437.1748,310.3885 441.6882,310.6579 446.2016,310.9482 450.7149,311.318 455.2283,311.8648 459.7416,312.3133 464.255,312.6078 468.7683,312.6354 473.2817,312.705 477.795,312.8072 482.3084,312.9351 486.8217,313.083 491.3351,313.2464 495.8484,313.4217 500.3618,313.6064 504.8751,313.7985 509.3885,313.997 513.9018,314.1963 518.4152,314.379 522.9285,314.5134 527.4419,314.5474 531.9552,314.6303 536.4686,314.7712 540.9819,314.991 545.4953,315.2518 550.0086,315.3717 554.522,314.8843 559.0353,314.5833 563.5487,314.3548 568.062,314.2117 572.5754,314.2028 577.0887,314.488 581.6021,314.7703 586.1154,315.1394 590.6288,315.7622 595.1421,316.3608 599.6555,316.922 604.1688,317.4581 608.6822,317.8852 613.1955,318.0512 617.7089,318.1361 622.2222,317.9066"></polyline>
<polyline id="error-otros" class="otros error" points=" 40,288.9156 44.5134,289.384 49.0267,289.8689 53.5401,290.7095 58.0534,291.5711 62.5668,292.431 67.0801,293.2494 71.5935,293.9719 76.1068,294.5301 80.6202,294.8294 85.1335,294.7068 89.6469,293.7899 94.1602,292.988 98.6736,292.2947 103.1869,291.7033 107.7003,291.2074 112.2136,290.8008 116.727,290.4774 121.2403,290.2314 125.7537,290.0574 130.267,289.9503 134.7804,289.9053 139.2937,289.9182 143.8071,289.9851 148.3204,290.1025 152.8338,290.2675 157.3471,290.4774 161.8605,290.7301 166.3738,291.019 170.8872,291.3246 175.4005,291.6115 179.9139,291.8249 184.4272,291.8807 188.9406,292.0159 193.4539,292.2233 197.9673,292.4976 202.4806,292.8349 206.994,293.2325 211.5073,293.6891 216.0207,294.2045 220.534,294.7798 225.0474,295.4173 229.5607,296.1209 234.0741,296.8562 238.5874,297.4915 243.1008,297.7653 247.6141,297.1569 252.1275,296.7349 256.6408,296.4798 261.1542,296.3684 265.6675,296.3552 270.1809,296.3595 274.6942,296.248 279.2076,295.7577 283.7209,295.3535 288.2343,295.0261 292.7476,294.7674 297.261,294.5705 301.7743,294.4293 306.2877,294.338 310.801,294.2918 315.3144,294.2861 319.8277,294.3168 324.3411,294.3804 328.8544,294.4734 333.3678,294.5925 337.8811,294.7331 342.3945,294.8892 346.9078,295.0529 351.4212,295.2158 355.9345,295.3711 360.4479,295.5532 364.9612,295.7568 369.4746,295.9773 373.9879,296.2109 378.5013,296.454 383.0146,296.7032 387.528,296.9593 392.0413,297.2359 396.5547,297.5677 401.068,298.0392 405.5814,298.474 410.0947,298.8702 414.6081,299.3118 419.1214,299.7817 423.6348,300.2477 428.1481,300.662 432.6615,300.9587 437.1748,301.3274 441.6882,301.7556 446.2016,302.2439 450.7149,302.7984 455.2283,303.4259 459.7416,303.9592 464.255,304.2292 468.7683,303.9064 473.2817,303.7056 477.795,303.6121 482.3084,303.6143 486.8217,303.7024 491.3351,303.8682 495.8484,304.1049 500.3618,304.4065 504.8751,304.7685 509.3885,305.1871 513.9018,305.6489 518.4152,306.1141 522.9285,306.5069 527.4419,306.698 531.9552,306.9564 536.4686,307.2305 540.9819,307.6688 545.4953,308.198 550.0086,308.5247 554.522,307.9327 559.0353,307.6363 563.5487,307.5101 568.062,307.4957 572.5754,307.5373 577.0887,307.5877 581.6021,307.7668 586.1154,308.1115 590.6288,308.7143 595.1421,309.3398 599.6555,309.9046 604.1688,310.4937 608.6822,310.9687 613.1955,311.0781 617.7089,311.032 622.2222,310.3973 622.2222,325.4158 617.7089,325.2402 613.1955,325.0243 608.6822,324.8018 604.1688,324.4224 599.6555,323.9394 595.1421,323.3818 590.6288,322.8102 586.1154,322.1673 581.6021,321.7738 577.0887,321.3884 572.5754,320.8682 568.062,320.9276 563.5487,321.1995 559.0353,321.5304 554.522,321.8359 550.0086,322.2187 545.4953,322.3056 540.9819,322.3131 536.4686,322.3118 531.9552,322.3042 527.4419,322.3968 522.9285,322.5199 518.4152,322.644 513.9018,322.7436 509.3885,322.8069 504.8751,322.8286 500.3618,322.8063 495.8484,322.7386 491.3351,322.6245 486.8217,322.4636 482.3084,322.256 477.795,322.0024 473.2817,321.7044 468.7683,321.3644 464.255,320.9864 459.7416,320.6675 455.2283,320.3037 450.7149,319.8377 446.2016,319.6526 441.6882,319.5601 437.1748,319.4496 432.6615,319.2532 428.1481,318.9351 423.6348,318.8306 419.1214,318.748 414.6081,318.5852 410.0947,318.292 405.5814,317.8516 401.068,317.5687 396.5547,317.2866 392.0413,317.5299 387.528,317.981 383.0146,318.4643 378.5013,318.8884 373.9879,319.2262 369.4746,319.4748 364.9612,319.6289 360.4479,319.6811 355.9345,319.6215 351.4212,319.4372 346.9078,319.6166 342.3945,319.9882 337.8811,320.4483 333.3678,320.9264 328.8544,321.3769 324.3411,321.7753 319.8277,322.114 315.3144,322.3907 310.801,322.6023 306.2877,322.7446 301.7743,322.8121 297.261,322.7983 292.7476,322.6951 288.2343,322.4924 283.7209,322.1784 279.2076,321.7381 274.6942,321.153 270.1809,321.3103 265.6675,321.7844 261.1542,322.3713 256.6408,322.9468 252.1275,323.4431 247.6141,323.8394 243.1008,324.1319 238.5874,324.4561 234.0741,324.7835 229.5607,325.0843 225.0474,325.3379 220.534,325.5351 216.0207,325.6711 211.5073,325.7405 206.994,325.7372 202.4806,325.654 197.9673,325.4825 193.4539,325.2134 188.9406,324.8355 184.4272,324.3361 179.9139,323.7005 175.4005,323.8412 170.8872,324.3458 166.3738,324.9981 161.8605,325.6693 157.3471,326.2932 152.8338,326.8531 148.3204,327.3502 143.8071,327.785 139.2937,328.1571 134.7804,328.465 130.267,328.7069 125.7537,328.8799 121.2403,328.9808 116.727,329.0055 112.2136,328.9495 107.7003,328.8074 103.1869,328.5737 98.6736,328.2421 94.1602,327.806 89.6469,327.2584 85.1335,326.5918 80.6202,326.5643 76.1068,326.884 71.5935,327.4204 67.0801,328.0962 62.5668,328.8546 58.0534,329.65 53.5401,330.4486 49.0267,331.2312 44.5134,331.6635 40,332.0842"></polyline>
<text class = "party otros" x="631.1111" y="319"><tspan class="party_name">Otros</tspan><tspan class="party_result"> (1.9±0.9%)</tspan></text>
<g id="encuesta-1">
<circle id="encuesta-1-cup" class="encuesta feedback cup" cx="622.2222" cy="273.5354" r="3.1623" ></circle>
<circle id="encuesta-1-erc" class="encuesta feedback erc" cx="622.2222" cy="153.1313" r="3.1623" ></circle>
<circle id="encuesta-1-jxcat" class="encuesta feedback jxcat" cx="622.2222" cy="180.6061" r="3.1623" ></circle>
<circle id="encuesta-1-cec" class="encuesta feedback cec" cx="622.2222" cy="273.5354" r="3.1623" ></circle>
<circle id="encuesta-1-psc" class="encuesta feedback psc" cx="622.2222" cy="204.8485" r="3.1623" ></circle>
<circle id="encuesta-1-cs" class="encuesta feedback cs" cx="622.2222" cy="161.2121" r="3.1623" ></circle>
<circle id="encuesta-1-pp" class="encuesta feedback pp" cx="622.2222" cy="284.0404" r="3.1623" ></circle>
<circle id="encuesta-1-otros" class="encuesta feedback otros" cx="622.2222" cy="327.6768" r="3.1623" ></circle>
</g>
<g id="encuesta-2">
<circle id="encuesta-2-cup" class="encuesta sociometrica cup" cx="622.2222" cy="288.8889" r="3.3166" ></circle>
<circle id="encuesta-2-erc" class="encuesta sociometrica erc" cx="622.2222" cy="151.5152" r="3.3166" ></circle>
<circle id="encuesta-2-jxcat" class="encuesta sociometrica jxcat" cx="622.2222" cy="173.3333" r="3.3166" ></circle>
<circle id="encuesta-2-cec" class="encuesta sociometrica cec" cx="622.2222" cy="273.5354" r="3.3166" ></circle>
<circle id="encuesta-2-psc" class="encuesta sociometrica psc" cx="622.2222" cy="216.9697" r="3.3166" ></circle>
<circle id="encuesta-2-cs" class="encuesta sociometrica cs" cx="622.2222" cy="159.596" r="3.3166" ></circle>
<circle id="encuesta-2-pp" class="encuesta sociometrica pp" cx="622.2222" cy="289.697" r="3.3166" ></circle>
<circle id="encuesta-2-otros" class="encuesta sociometrica otros" cx="622.2222" cy="305.0505" r="3.3166" ></circle>
</g>
<g id="encuesta-3">
<circle id="encuesta-3-cup" class="encuesta gad3 cup" cx="617.7089" cy="292.9293" r="3.1623" ></circle>
<circle id="encuesta-3-erc" class="encuesta gad3 erc" cx="617.7089" cy="159.596" r="3.1623" ></circle>
<circle id="encuesta-3-jxcat" class="encuesta gad3 jxcat" cx="617.7089" cy="186.2626" r="3.1623" ></circle>
<circle id="encuesta-3-cec" class="encuesta gad3 cec" cx="617.7089" cy="273.5354" r="3.1623" ></circle>
<circle id="encuesta-3-psc" class="encuesta gad3 psc" cx="617.7089" cy="200" r="3.1623" ></circle>
<circle id="encuesta-3-cs" class="encuesta gad3 cs" cx="617.7089" cy="146.6667" r="3.1623" ></circle>
<circle id="encuesta-3-pp" class="encuesta gad3 pp" cx="617.7089" cy="275.9596" r="3.1623" ></circle>
<circle id="encuesta-3-otros" class="encuesta gad3 otros" cx="617.7089" cy="323.6364" r="3.1623" ></circle>
</g>
<g id="encuesta-4">
<circle id="encuesta-4-cup" class="encuesta feedback cup" cx="617.7089" cy="275.9596" r="3" ></circle>
<circle id="encuesta-4-erc" class="encuesta feedback erc" cx="617.7089" cy="146.6667" r="3" ></circle>
<circle id="encuesta-4-jxcat" class="encuesta feedback jxcat" cx="617.7089" cy="195.9596" r="3" ></circle>
<circle id="encuesta-4-cec" class="encuesta feedback cec" cx="617.7089" cy="268.6869" r="3" ></circle>
<circle id="encuesta-4-psc" class="encuesta feedback psc" cx="617.7089" cy="209.697" r="3" ></circle>
<circle id="encuesta-4-cs" class="encuesta feedback cs" cx="617.7089" cy="147.4747" r="3" ></circle>
<circle id="encuesta-4-pp" class="encuesta feedback pp" cx="617.7089" cy="288.8889" r="3" ></circle>
<circle id="encuesta-4-otros" class="encuesta feedback otros" cx="617.7089" cy="325.2525" r="3" ></circle>
</g>
<g id="encuesta-5">
<circle id="encuesta-5-cup" class="encuesta feedback cup" cx="608.6822" cy="281.6162" r="3.1623" ></circle>
<circle id="encuesta-5-erc" class="encuesta feedback erc" cx="608.6822" cy="139.3939" r="3.1623" ></circle>
<circle id="encuesta-5-jxcat" class="encuesta feedback jxcat" cx="608.6822" cy="195.1515" r="3.1623" ></circle>
<circle id="encuesta-5-cec" class="encuesta feedback cec" cx="608.6822" cy="258.1818" r="3.1623" ></circle>
<circle id="encuesta-5-psc" class="encuesta feedback psc" cx="608.6822" cy="224.2424" r="3.1623" ></circle>
<circle id="encuesta-5-cs" class="encuesta feedback cs" cx="608.6822" cy="149.0909" r="3.1623" ></circle>
<circle id="encuesta-5-pp" class="encuesta feedback pp" cx="608.6822" cy="283.2323" r="3.1623" ></circle>
<circle id="encuesta-5-otros" class="encuesta feedback otros" cx="608.6822" cy="327.6768" r="3.1623" ></circle>
</g>
<g id="encuesta-6">
<circle id="encuesta-6-cup" class="encuesta gesop cup" cx="595.1421" cy="284.8485" r="2.8284" ></circle>
<circle id="encuesta-6-erc" class="encuesta gesop erc" cx="595.1421" cy="167.6768" r="2.8284" ></circle>
<circle id="encuesta-6-jxcat" class="encuesta gesop jxcat" cx="595.1421" cy="177.3737" r="2.8284" ></circle>
<circle id="encuesta-6-cec" class="encuesta gesop cec" cx="595.1421" cy="264.6465" r="2.8284" ></circle>
<circle id="encuesta-6-psc" class="encuesta gesop psc" cx="595.1421" cy="179.798" r="2.8284" ></circle>
<circle id="encuesta-6-cs" class="encuesta gesop cs" cx="595.1421" cy="179.798" r="2.8284" ></circle>
<circle id="encuesta-6-pp" class="encuesta gesop pp" cx="595.1421" cy="286.4646" r="2.8284" ></circle>
<circle id="encuesta-6-otros" class="encuesta gesop otros" cx="595.1421" cy="317.9798" r="2.8284" ></circle>
</g>
<g id="encuesta-7">
<circle id="encuesta-7-cup" class="encuesta sociometrica cup" cx="586.1154" cy="284.8485" r="2.8284" ></circle>
<circle id="encuesta-7-erc" class="encuesta sociometrica erc" cx="586.1154" cy="146.6667" r="2.8284" ></circle>
<circle id="encuesta-7-jxcat" class="encuesta sociometrica jxcat" cx="586.1154" cy="179.798" r="2.8284" ></circle>
<circle id="encuesta-7-cec" class="encuesta sociometrica cec" cx="586.1154" cy="281.6162" r="2.8284" ></circle>
<circle id="encuesta-7-psc" class="encuesta sociometrica psc" cx="586.1154" cy="210.5051" r="2.8284" ></circle>
<circle id="encuesta-7-cs" class="encuesta sociometrica cs" cx="586.1154" cy="167.6768" r="2.8284" ></circle>
<circle id="encuesta-7-pp" class="encuesta sociometrica pp" cx="586.1154" cy="283.2323" r="2.8284" ></circle>
<circle id="encuesta-7-otros" class="encuesta sociometrica otros" cx="586.1154" cy="304.2424" r="2.8284" ></circle>
</g>
<g id="encuesta-8">
<circle id="encuesta-8-cup" class="encuesta cis cup" cx="572.5754" cy="279.1919" r="5.4772" ></circle>
<circle id="encuesta-8-erc" class="encuesta cis erc" cx="572.5754" cy="165.2525" r="5.4772" ></circle>
<circle id="encuesta-8-jxcat" class="encuesta cis jxcat" cx="572.5754" cy="196.7677" r="5.4772" ></circle>
<circle id="encuesta-8-cec" class="encuesta cis cec" cx="572.5754" cy="263.8384" r="5.4772" ></circle>
<circle id="encuesta-8-psc" class="encuesta cis psc" cx="572.5754" cy="204.0404" r="5.4772" ></circle>
<circle id="encuesta-8-cs" class="encuesta cis cs" cx="572.5754" cy="151.5152" r="5.4772" ></circle>
<circle id="encuesta-8-pp" class="encuesta cis pp" cx="572.5754" cy="286.4646" r="5.4772" ></circle>
<circle id="encuesta-8-otros" class="encuesta cis otros" cx="572.5754" cy="311.5152" r="5.4772" ></circle>
</g>
<g id="encuesta-9">
<circle id="encuesta-9-cup" class="encuesta nc_report cup" cx="554.522" cy="287.2727" r="3.1623" ></circle>
<circle id="encuesta-9-erc" class="encuesta nc_report erc" cx="554.522" cy="138.5859" r="3.1623" ></circle>
<circle id="encuesta-9-jxcat" class="encuesta nc_report jxcat" cx="554.522" cy="223.4343" r="3.1623" ></circle>
<circle id="encuesta-9-cec" class="encuesta nc_report cec" cx="554.522" cy="265.4545" r="3.1623" ></circle>
<circle id="encuesta-9-psc" class="encuesta nc_report psc" cx="554.522" cy="214.5455" r="3.1623" ></circle>
<circle id="encuesta-9-cs" class="encuesta nc_report cs" cx="554.522" cy="164.4444" r="3.1623" ></circle>
<circle id="encuesta-9-pp" class="encuesta nc_report pp" cx="554.522" cy="258.1818" r="3.1623" ></circle>
<circle id="encuesta-9-otros" class="encuesta nc_report otros" cx="554.522" cy="306.6667" r="3.1623" ></circle>
</g>
<g id="encuesta-10">
<circle id="encuesta-10-cup" class="encuesta metroscopica cup" cx="550.0086" cy="285.6566" r="4.2426" ></circle>
<circle id="encuesta-10-erc" class="encuesta metroscopica erc" cx="550.0086" cy="119.1919" r="4.2426" ></circle>
<circle id="encuesta-10-jxcat" class="encuesta metroscopica jxcat" cx="550.0086" cy="223.4343" r="4.2426" ></circle>
<circle id="encuesta-10-cec" class="encuesta metroscopica cec" cx="550.0086" cy="279.1919" r="4.2426" ></circle>
<circle id="encuesta-10-psc" class="encuesta metroscopica psc" cx="550.0086" cy="212.9293" r="4.2426" ></circle>
<circle id="encuesta-10-cs" class="encuesta metroscopica cs" cx="550.0086" cy="128.8889" r="4.2426" ></circle>
<circle id="encuesta-10-pp" class="encuesta metroscopica pp" cx="550.0086" cy="286.4646" r="4.2426" ></circle>
<circle id="encuesta-10-otros" class="encuesta metroscopica otros" cx="550.0086" cy="322.8283" r="4.2426" ></circle>
</g>
<g id="encuesta-11">
<circle id="encuesta-11-cup" class="encuesta gesop cup" cx="531.9552" cy="282.4242" r="2.8284" ></circle>
<circle id="encuesta-11-erc" class="encuesta gesop erc" cx="531.9552" cy="140.202" r="2.8284" ></circle>
<circle id="encuesta-11-jxcat" class="encuesta gesop jxcat" cx="531.9552" cy="200" r="2.8284" ></circle>
<circle id="encuesta-11-cec" class="encuesta gesop cec" cx="531.9552" cy="263.8384" r="2.8284" ></circle>
<circle id="encuesta-11-psc" class="encuesta gesop psc" cx="531.9552" cy="187.0707" r="2.8284" ></circle>
<circle id="encuesta-11-cs" class="encuesta gesop cs" cx="531.9552" cy="183.0303" r="2.8284" ></circle>
<circle id="encuesta-11-pp" class="encuesta gesop pp" cx="531.9552" cy="287.2727" r="2.8284" ></circle>
<circle id="encuesta-11-otros" class="encuesta gesop otros" cx="531.9552" cy="314.7475" r="2.8284" ></circle>
</g>
<g id="encuesta-12">
<circle id="encuesta-12-cup" class="encuesta gad3 cup" cx="522.9285" cy="288.0808" r="2.8302" ></circle>
<circle id="encuesta-12-erc" class="encuesta gad3 erc" cx="522.9285" cy="146.6667" r="2.8302" ></circle>
<circle id="encuesta-12-jxcat" class="encuesta gad3 jxcat" cx="522.9285" cy="198.3838" r="2.8302" ></circle>
<circle id="encuesta-12-cec" class="encuesta gad3 cec" cx="522.9285" cy="271.9192" r="2.8302" ></circle>
<circle id="encuesta-12-psc" class="encuesta gad3 psc" cx="522.9285" cy="211.3131" r="2.8302" ></circle>
<circle id="encuesta-12-cs" class="encuesta gad3 cs" cx="522.9285" cy="153.1313" r="2.8302" ></circle>
<circle id="encuesta-12-pp" class="encuesta gad3 pp" cx="522.9285" cy="270.303" r="2.8302" ></circle>
<circle id="encuesta-12-otros" class="encuesta gad3 otros" cx="522.9285" cy="318.7879" r="2.8302" ></circle>
</g>
<g id="encuesta-13">
<circle id="encuesta-13-cup" class="encuesta nc_report cup" cx="464.255" cy="282.4242" r="3.1623" ></circle>
<circle id="encuesta-13-erc" class="encuesta nc_report erc" cx="464.255" cy="120.8081" r="3.1623" ></circle>
<circle id="encuesta-13-jxcat" class="encuesta nc_report jxcat" cx="464.255" cy="246.8687" r="3.1623" ></circle>
<circle id="encuesta-13-cec" class="encuesta nc_report cec" cx="464.255" cy="249.2929" r="3.1623" ></circle>
<circle id="encuesta-13-psc" class="encuesta nc_report psc" cx="464.255" cy="223.4343" r="3.1623" ></circle>
<circle id="encuesta-13-cs" class="encuesta nc_report cs" cx="464.255" cy="174.9495" r="3.1623" ></circle>
<circle id="encuesta-13-pp" class="encuesta nc_report pp" cx="464.255" cy="248.4848" r="3.1623" ></circle>
<circle id="encuesta-13-otros" class="encuesta nc_report otros" cx="464.255" cy="312.3232" r="3.1623" ></circle>
</g>
<g id="encuesta-14">
<circle id="encuesta-14-cup" class="encuesta gad3 cup" cx="464.255" cy="282.4242" r="3.5114" ></circle>
<circle id="encuesta-14-erc" class="encuesta gad3 erc" cx="464.255" cy="96.5657" r="3.5114" ></circle>
<circle id="encuesta-14-jxcat" class="encuesta gad3 jxcat" cx="464.255" cy="249.2929" r="3.5114" ></circle>
<circle id="encuesta-14-cec" class="encuesta gad3 cec" cx="464.255" cy="266.2626" r="3.5114" ></circle>
<circle id="encuesta-14-psc" class="encuesta gad3 psc" cx="464.255" cy="215.3535" r="3.5114" ></circle>
<circle id="encuesta-14-cs" class="encuesta gad3 cs" cx="464.255" cy="166.8687" r="3.5114" ></circle>
<circle id="encuesta-14-pp" class="encuesta gad3 pp" cx="464.255" cy="263.0303" r="3.5114" ></circle>
<circle id="encuesta-14-otros" class="encuesta gad3 otros" cx="464.255" cy="318.7879" r="3.5114" ></circle>
</g>
<g id="encuesta-15">
<circle id="encuesta-15-cup" class="encuesta sociometrica cup" cx="450.7149" cy="287.2727" r="3.1623" ></circle>
<circle id="encuesta-15-erc" class="encuesta sociometrica erc" cx="450.7149" cy="81.2121" r="3.1623" ></circle>
<circle id="encuesta-15-jxcat" class="encuesta sociometrica jxcat" cx="450.7149" cy="251.7172" r="3.1623" ></circle>
<circle id="encuesta-15-cec" class="encuesta sociometrica cec" cx="450.7149" cy="252.5253" r="3.1623" ></circle>
<circle id="encuesta-15-psc" class="encuesta sociometrica psc" cx="450.7149" cy="234.7475" r="3.1623" ></circle>
<circle id="encuesta-15-cs" class="encuesta sociometrica cs" cx="450.7149" cy="185.4545" r="3.1623" ></circle>
<circle id="encuesta-15-pp" class="encuesta sociometrica pp" cx="450.7149" cy="260.6061" r="3.1623" ></circle>
<circle id="encuesta-15-otros" class="encuesta sociometrica otros" cx="450.7149" cy="305.0505" r="3.1623" ></circle>
</g>
<g id="encuesta-16">
<circle id="encuesta-16-cup" class="encuesta sigmados cup" cx="428.1481" cy="282.4242" r="3.1623" ></circle>
<circle id="encuesta-16-erc" class="encuesta sigmados erc" cx="428.1481" cy="120" r="3.1623" ></circle>
<circle id="encuesta-16-jxcat" class="encuesta sigmados jxcat" cx="428.1481" cy="254.1414" r="3.1623" ></circle>
<circle id="encuesta-16-cec" class="encuesta sigmados cec" cx="428.1481" cy="244.4444" r="3.1623" ></circle>
<circle id="encuesta-16-psc" class="encuesta sigmados psc" cx="428.1481" cy="211.3131" r="3.1623" ></circle>
<circle id="encuesta-16-cs" class="encuesta sigmados cs" cx="428.1481" cy="174.9495" r="3.1623" ></circle>
<circle id="encuesta-16-pp" class="encuesta sigmados pp" cx="428.1481" cy="263.0303" r="3.1623" ></circle>
<circle id="encuesta-16-otros" class="encuesta sigmados otros" cx="428.1481" cy="308.2828" r="3.1623" ></circle>
</g>
<g id="encuesta-17">
<circle id="encuesta-17-cup" class="encuesta nc_report cup" cx="405.5814" cy="288.0808" r="3.1623" ></circle>
<circle id="encuesta-17-erc" class="encuesta nc_report erc" cx="405.5814" cy="134.5455" r="3.1623" ></circle>
<circle id="encuesta-17-jxcat" class="encuesta nc_report jxcat" cx="405.5814" cy="235.5556" r="3.1623" ></circle>
<circle id="encuesta-17-cec" class="encuesta nc_report cec" cx="405.5814" cy="241.2121" r="3.1623" ></circle>
<circle id="encuesta-17-psc" class="encuesta nc_report psc" cx="405.5814" cy="227.4747" r="3.1623" ></circle>
<circle id="encuesta-17-cs" class="encuesta nc_report cs" cx="405.5814" cy="178.1818" r="3.1623" ></circle>
<circle id="encuesta-17-pp" class="encuesta nc_report pp" cx="405.5814" cy="248.4848" r="3.1623" ></circle>
<circle id="encuesta-17-otros" class="encuesta nc_report otros" cx="405.5814" cy="305.0505" r="3.1623" ></circle>
</g>
<g id="encuesta-18">
<circle id="encuesta-18-cup" class="encuesta gesop cup" cx="396.5547" cy="270.303" r="2.8284" ></circle>
<circle id="encuesta-18-erc" class="encuesta gesop erc" cx="396.5547" cy="106.2626" r="2.8284" ></circle>
<circle id="encuesta-18-jxcat" class="encuesta gesop jxcat" cx="396.5547" cy="236.3636" r="2.8284" ></circle>
<circle id="encuesta-18-cec" class="encuesta gesop cec" cx="396.5547" cy="260.6061" r="2.8284" ></circle>
<circle id="encuesta-18-psc" class="encuesta gesop psc" cx="396.5547" cy="216.1616" r="2.8284" ></circle>
<circle id="encuesta-18-cs" class="encuesta gesop cs" cx="396.5547" cy="197.5758" r="2.8284" ></circle>
<circle id="encuesta-18-pp" class="encuesta gesop pp" cx="396.5547" cy="272.7273" r="2.8284" ></circle>
<circle id="encuesta-18-otros" class="encuesta gesop otros" cx="396.5547" cy="298.5859" r="2.8284" ></circle>
</g>
<g id="encuesta-19">
<circle id="encuesta-19-cup" class="encuesta sociometrica cup" cx="351.4212" cy="282.4242" r="2.8284" ></circle>
<circle id="encuesta-19-erc" class="encuesta sociometrica erc" cx="351.4212" cy="76.3636" r="2.8284" ></circle>
<circle id="encuesta-19-jxcat" class="encuesta sociometrica jxcat" cx="351.4212" cy="267.8788" r="2.8284" ></circle>
<circle id="encuesta-19-cec" class="encuesta sociometrica cec" cx="351.4212" cy="236.3636" r="2.8284" ></circle>
<circle id="encuesta-19-psc" class="encuesta sociometrica psc" cx="351.4212" cy="256.5657" r="2.8284" ></circle>
<circle id="encuesta-19-cs" class="encuesta sociometrica cs" cx="351.4212" cy="185.4545" r="2.8284" ></circle>
<circle id="encuesta-19-pp" class="encuesta sociometrica pp" cx="351.4212" cy="251.7172" r="2.8284" ></circle>
<circle id="encuesta-19-otros" class="encuesta sociometrica otros" cx="351.4212" cy="301.8182" r="2.8284" ></circle>
</g>
<g id="encuesta-20">
<circle id="encuesta-20-cup" class="encuesta nc_report cup" cx="274.6942" cy="288.0808" r="3.5426" ></circle>
<circle id="encuesta-20-erc" class="encuesta nc_report erc" cx="274.6942" cy="130.5051" r="3.5426" ></circle>
<circle id="encuesta-20-jxcat" class="encuesta nc_report jxcat" cx="274.6942" cy="230.7071" r="3.5426" ></circle>
<circle id="encuesta-20-cec" class="encuesta nc_report cec" cx="274.6942" cy="239.596" r="3.5426" ></circle>
<circle id="encuesta-20-psc" class="encuesta nc_report psc" cx="274.6942" cy="222.6263" r="3.5426" ></circle>
<circle id="encuesta-20-cs" class="encuesta nc_report cs" cx="274.6942" cy="194.3434" r="3.5426" ></circle>
<circle id="encuesta-20-pp" class="encuesta nc_report pp" cx="274.6942" cy="246.0606" r="3.5426" ></circle>
<circle id="encuesta-20-otros" class="encuesta nc_report otros" cx="274.6942" cy="306.6667" r="3.5426" ></circle>
</g>
<g id="encuesta-21">
<circle id="encuesta-21-cup" class="encuesta celeste-tel cup" cx="243.1008" cy="285.6566" r="2.8284" ></circle>
<circle id="encuesta-21-erc" class="encuesta celeste-tel erc" cx="243.1008" cy="133.7374" r="2.8284" ></circle>
<circle id="encuesta-21-jxcat" class="encuesta celeste-tel jxcat" cx="243.1008" cy="223.4343" r="2.8284" ></circle>
<circle id="encuesta-21-cec" class="encuesta celeste-tel cec" cx="243.1008" cy="234.7475" r="2.8284" ></circle>
<circle id="encuesta-21-psc" class="encuesta celeste-tel psc" cx="243.1008" cy="213.7374" r="2.8284" ></circle>
<circle id="encuesta-21-cs" class="encuesta celeste-tel cs" cx="243.1008" cy="192.7273" r="2.8284" ></circle>
<circle id="encuesta-21-pp" class="encuesta celeste-tel pp" cx="243.1008" cy="257.3737" r="2.8284" ></circle>
<circle id="encuesta-21-otros" class="encuesta celeste-tel otros" cx="243.1008" cy="317.1717" r="2.8284" ></circle>
</g>
<g id="encuesta-22">
<circle id="encuesta-22-cup" class="encuesta sociometrica cup" cx="179.9139" cy="278.3838" r="2.6458" ></circle>
<circle id="encuesta-22-erc" class="encuesta sociometrica erc" cx="179.9139" cy="107.0707" r="2.6458" ></circle>
<circle id="encuesta-22-jxcat" class="encuesta sociometrica jxcat" cx="179.9139" cy="230.7071" r="2.6458" ></circle>
<circle id="encuesta-22-cec" class="encuesta sociometrica cec" cx="179.9139" cy="249.2929" r="2.6458" ></circle>
<circle id="encuesta-22-psc" class="encuesta sociometrica psc" cx="179.9139" cy="251.7172" r="2.6458" ></circle>
<circle id="encuesta-22-cs" class="encuesta sociometrica cs" cx="179.9139" cy="190.303" r="2.6458" ></circle>
<circle id="encuesta-22-pp" class="encuesta sociometrica pp" cx="179.9139" cy="248.4848" r="2.6458" ></circle>
<circle id="encuesta-22-otros" class="encuesta sociometrica otros" cx="179.9139" cy="302.6263" r="2.6458" ></circle>
</g>
<g id="encuesta-23">
<circle id="encuesta-23-cup" class="encuesta nc_report cup" cx="85.1335" cy="280.8081" r="3.5426" ></circle>
<circle id="encuesta-23-erc" class="encuesta nc_report erc" cx="85.1335" cy="140.202" r="3.5426" ></circle>
<circle id="encuesta-23-jxcat" class="encuesta nc_report jxcat" cx="85.1335" cy="221.0101" r="3.5426" ></circle>
<circle id="encuesta-23-cec" class="encuesta nc_report cec" cx="85.1335" cy="235.5556" r="3.5426" ></circle>
<circle id="encuesta-23-psc" class="encuesta nc_report psc" cx="85.1335" cy="221.0101" r="3.5426" ></circle>
<circle id="encuesta-23-cs" class="encuesta nc_report cs" cx="85.1335" cy="191.9192" r="3.5426" ></circle>
<circle id="encuesta-23-pp" class="encuesta nc_report pp" cx="85.1335" cy="256.5657" r="3.5426" ></circle>
<circle id="encuesta-23-otros" class="encuesta nc_report otros" cx="85.1335" cy="311.5152" r="3.5426" ></circle>
</g>
  
<text class="pie izquierda" x="0" y="390">Datos: Electograph | Modelo propio</text>
<text class="pie derecha" x="800" y="390">Jesús Carro | <tspan style="font-weight:bold">1datomas</tspan>.com</text>
</svg>
