<?xml version="1.0" encoding="utf-8"?><!DOCTYPE svg PUBLIC "-//W3C//DTD SVG 1.1//EN" "http://www.w3.org/Graphics/SVG/1.1/DTD/svg11.dtd">
<svg xmlns="http://www.w3.org/2000/svg" xmlns:xlink="http://www.w3.org/1999/xlink" version="1.1" viewBox="0 0 800 400">

<text x="0" y="20" style="font-size:large;font-weight:bold;color:black">Intención de voto en Elecciones Autonómicas en Cataluña</text>
<text x="0" y="40" style="color:gray">Promedio de encuestas y estimación de error</text>

<text class="horizontal axis" x="36" y="333.3333">0%</text>
<line class="horizontal axis" x1="40" y1="333.3333" x2="622.2222" y2="333.3333"></line>
<text class="horizontal axis" x="36" y="252.5253">10%</text>
<line class="horizontal axis" x1="40" y1="252.5253" x2="622.2222" y2="252.5253"></line>
<text class="horizontal axis" x="36" y="171.7172">20%</text>
<line class="horizontal axis" x1="40" y1="171.7172" x2="622.2222" y2="171.7172"></line>
<text class="horizontal axis" x="36" y="90.9091">30%</text>
<line class="horizontal axis" x1="40" y1="90.9091" x2="622.2222" y2="90.9091"></line>
<line class="vertical axis" x1="40" y1="336.6667" x2="40" y2="66.6667"></line>
<text class="vertical axis" x="40" y="343.3333">Ago-2017</text>
<line class="vertical axis" x1="178.8376" y1="336.6667" x2="178.8376" y2="66.6667"></line>
<text class="vertical axis" x="178.8376" y="343.3333">Sep-2017</text>
<line class="vertical axis" x1="313.1966" y1="336.6667" x2="313.1966" y2="66.6667"></line>
<text class="vertical axis" x="313.1966" y="343.3333">Oct-2017</text>
<line class="vertical axis" x1="452.0342" y1="336.6667" x2="452.0342" y2="66.6667"></line>
<text class="vertical axis" x="452.0342" y="343.3333">Nov-2017</text>
<line class="vertical axis" x1="586.3932" y1="336.6667" x2="586.3932" y2="66.6667"></line>
<text class="vertical axis" x="586.3932" y="343.3333">Dic-2017</text>
<polyline id="media-cup"  class="cup media" points=" 40,281.865 44.4786,281.823 48.9573,281.7789 53.4359,281.7324 57.9145,281.6842 62.3932,281.636 66.8718,281.5905 71.3504,281.5516 75.8291,281.5241 80.3077,281.5144 84.7863,281.5344 89.265,281.6136 93.7436,281.6873 98.2222,281.7551 102.7009,281.8163 107.1795,281.8706 111.6581,281.9177 116.1368,281.9574 120.6154,281.9895 125.094,282.0136 129.5726,282.0297 134.0513,282.0373 138.5299,282.0361 143.0085,282.0258 147.4872,282.0056 151.9658,281.9748 156.4444,281.9327 160.9231,281.878 165.4017,281.8139 169.8803,281.755 174.359,281.7319 178.8376,281.7989 183.3162,282.0667 187.7949,282.3184 192.2735,282.5554 196.7521,282.7795 201.2308,282.9922 205.7094,283.195 210.188,283.3894 214.6667,283.5766 219.1453,283.758 223.6239,283.9347 228.1026,284.1078 232.5812,284.2744 237.0598,284.4245 241.5385,284.5416 246.0171,284.5985 250.4957,284.6851 254.9744,284.8 259.453,284.9366 263.9316,285.0735 268.4103,285.1711 272.8889,285.1631 277.3675,284.9007 281.8462,284.6651 286.3248,284.4531 290.8034,284.2617 295.2821,284.0885 299.7607,283.9311 304.2393,283.7876 308.7179,283.656 313.1966,283.5348 317.6752,283.4227 322.1538,283.3182 326.6325,283.2204 331.1111,283.1284 335.5897,283.0426 340.0684,282.9636 344.547,282.8924 349.0256,282.8298 353.5043,282.7764 357.9829,282.714 362.4615,282.6424 366.9402,282.5612 371.4188,282.4695 375.8974,282.3657 380.3761,282.2474 384.8547,282.1269 389.3333,282.0556 393.812,282.1411 398.2906,282.597 402.7692,282.888 407.2479,282.9705 411.7265,283.048 416.2051,283.1193 420.6838,283.1881 425.1624,283.2667 429.641,283.3841 434.1197,283.4967 438.5983,283.5949 443.0769,283.6592 447.5556,283.6594 452.0342,283.5473 456.5128,283.4672 460.9915,283.4336 465.4701,283.483 469.9487,283.5313 474.4274,283.5792 478.906,283.6276 483.3846,283.6767 487.8632,283.7269 492.3419,283.7787 496.8205,283.8325 501.2991,283.8887 505.7778,283.9481 510.2564,284.0071 514.735,284.0503 519.2137,284.0478 523.6923,283.9489 528.1709,283.8846 532.6496,283.8659 537.1282,283.8483 541.6068,283.8197 546.0855,283.7313 550.5641,283.4471 555.0427,283.1354 559.5214,282.8531 564,282.6425 568.4786,282.5739 572.9573,282.8118 577.4359,282.9798 581.9145,283.087 586.3932,283.1245 590.8718,283.1303 595.3504,283.0939 599.8291,283.0652 604.3077,283.0604 608.7863,283.0884 613.265,283.0933 617.7436,283.0828 622.2222,283.1237"></polyline>
<polyline id="error-cup" class="cup error" points=" 40,259.3057 44.4786,259.7615 48.9573,260.3481 53.4359,261.1046 57.9145,261.8798 62.3932,262.6552 66.8718,263.3969 71.3504,264.0589 75.8291,264.5826 80.3077,264.8878 84.7863,264.8396 89.265,264.1397 93.7436,263.5557 98.2222,263.0785 102.7009,262.6996 107.1795,262.4111 111.6581,262.2059 116.1368,262.0771 120.6154,262.0187 125.094,262.0252 129.5726,262.0916 134.0513,262.2135 138.5299,262.387 143.0085,262.6089 147.4872,262.8763 151.9658,263.1869 156.4444,263.5389 160.9231,263.9311 165.4017,264.355 169.8803,264.7824 174.359,265.1609 178.8376,265.4079 183.3162,265.383 187.7949,265.45 192.2735,265.5992 196.7521,265.8228 201.2308,266.1146 205.7094,266.4701 210.188,266.8857 214.6667,267.3592 219.1453,267.8894 223.6239,268.4759 228.1026,269.1195 232.5812,269.7971 237.0598,270.4265 241.5385,270.8525 246.0171,270.7895 250.4957,270.8992 254.9744,271.1681 259.453,271.5673 263.9316,272.0175 268.4103,272.3749 272.8889,272.4014 277.3675,271.5979 281.8462,270.94 286.3248,270.4096 290.8034,269.9914 295.2821,269.6729 299.7607,269.4433 304.2393,269.2933 308.7179,269.2151 313.1966,269.2021 317.6752,269.2487 322.1538,269.3501 326.6325,269.5026 331.1111,269.6999 335.5897,269.9277 340.0684,270.1603 344.547,270.359 349.0256,270.467 353.5043,270.3937 357.9829,270.3876 362.4615,270.4396 366.9402,270.5421 371.4188,270.6883 375.8974,270.8726 380.3761,271.0894 384.8547,271.3382 389.3333,271.6313 393.812,272.0059 398.2906,272.5578 402.7692,272.9213 407.2479,272.9693 411.7265,273.1095 416.2051,273.324 420.6838,273.5757 425.1624,273.8026 429.641,273.9044 434.1197,274.0979 438.5983,274.3489 443.0769,274.6025 447.5556,274.773 452.0342,274.716 456.5128,274.7017 460.9915,274.6355 465.4701,274.35 469.9487,274.1436 474.4274,274.0106 478.906,273.9465 483.3846,273.947 487.8632,274.0084 492.3419,274.1272 496.8205,274.3008 501.2991,274.5267 505.7778,274.8033 510.2564,275.1198 514.735,275.4401 519.2137,275.6933 523.6923,275.7566 528.1709,275.8709 532.6496,275.9902 537.1282,276.1879 541.6068,276.4199 546.0855,276.5396 550.5641,276.1931 555.0427,275.9151 559.5214,275.7561 564,275.6926 568.4786,275.7001 572.9573,275.7617 577.4359,275.8792 581.9145,276.0077 586.3932,276.0681 590.8718,276.1456 595.3504,276.1737 599.8291,276.2595 604.3077,276.38 608.7863,276.4861 613.265,276.5552 617.7436,276.1289 622.2222,275.6989 622.2222,290.5486 617.7436,290.0366 613.265,289.6315 608.7863,289.6907 604.3077,289.7408 599.8291,289.8709 595.3504,290.014 590.8718,290.115 586.3932,290.181 581.9145,290.1662 577.4359,290.0804 572.9573,289.862 568.4786,289.4477 564,289.5924 559.5214,289.9501 555.0427,290.3557 550.5641,290.701 546.0855,290.9231 541.6068,291.2194 537.1282,291.5088 532.6496,291.7416 528.1709,291.8983 523.6923,292.1413 519.2137,292.4023 514.735,292.6606 510.2564,292.8944 505.7778,293.0928 501.2991,293.2506 496.8205,293.3641 492.3419,293.4302 487.8632,293.4455 483.3846,293.4063 478.906,293.3086 474.4274,293.1478 469.9487,292.919 465.4701,292.616 460.9915,292.2317 456.5128,292.2328 452.0342,292.3785 447.5556,292.5459 443.0769,292.716 438.5983,292.8409 434.1197,292.8955 429.641,292.8638 425.1624,292.7309 420.6838,292.8005 416.2051,292.9147 411.7265,292.9865 407.2479,292.9717 402.7692,292.8547 398.2906,292.6363 393.812,292.2764 389.3333,292.4798 384.8547,292.9156 380.3761,293.4054 375.8974,293.8588 371.4188,294.2507 366.9402,294.5804 362.4615,294.8451 357.9829,295.0403 353.5043,295.1592 349.0256,295.1926 344.547,295.4258 340.0684,295.7669 335.5897,296.1575 331.1111,296.557 326.6325,296.9382 322.1538,297.2864 317.6752,297.5967 313.1966,297.8676 308.7179,298.0969 304.2393,298.2818 299.7607,298.419 295.2821,298.5041 290.8034,298.532 286.3248,298.4965 281.8462,298.3901 277.3675,298.2035 272.8889,297.9249 268.4103,297.9673 263.9316,298.1294 259.453,298.3059 254.9744,298.432 250.4957,298.4711 246.0171,298.4075 241.5385,298.2306 237.0598,298.4226 232.5812,298.7517 228.1026,299.096 223.6239,299.3936 219.1453,299.6267 214.6667,299.794 210.188,299.893 205.7094,299.92 201.2308,299.8698 196.7521,299.7362 192.2735,299.5116 187.7949,299.1867 183.3162,298.7505 178.8376,298.1899 174.359,298.303 169.8803,298.7276 165.4017,299.2728 160.9231,299.8249 156.4444,300.3265 151.9658,300.7628 147.4872,301.1348 143.0085,301.4426 138.5299,301.6853 134.0513,301.8611 129.5726,301.9678 125.094,302.0021 120.6154,301.9602 116.1368,301.8377 111.6581,301.6296 107.1795,301.3301 102.7009,300.933 98.2222,300.4317 93.7436,299.819 89.265,299.0875 84.7863,298.2293 80.3077,298.1409 75.8291,298.4655 71.3504,299.0443 66.8718,299.7841 62.3932,300.6168 57.9145,301.4887 53.4359,302.3603 48.9573,303.2096 44.4786,303.8845 40,304.4243"></polyline>
<text class = "party cup" x="631.1111" y="299"><tspan class="party_name">CUP</tspan><tspan class="party_result"> (6.2±0.9%)</tspan></text>
<polyline id="media-erc"  class="erc media" points=" 40,133.27 44.4786,133.4567 48.9573,133.6606 53.4359,133.8834 57.9145,134.1227 62.3932,134.3675 66.8718,134.5973 71.3504,134.7839 75.8291,134.8904 80.3077,134.8627 84.7863,134.601 89.265,133.8589 93.7436,133.1225 98.2222,132.3952 102.7009,131.6791 107.1795,130.9754 111.6581,130.2847 116.1368,129.6066 120.6154,128.9401 125.094,128.284 129.5726,127.6364 134.0513,126.9949 138.5299,126.357 143.0085,125.7194 147.4872,125.0787 151.9658,124.4309 156.4444,123.7715 160.9231,123.0955 165.4017,122.4169 169.8803,121.7993 174.359,121.3681 178.8376,121.3371 183.3162,122.1339 187.7949,122.8384 192.2735,123.4635 196.7521,124.0207 201.2308,124.5209 205.7094,124.9738 210.188,125.3884 214.6667,125.7733 219.1453,126.1365 223.6239,126.4858 228.1026,126.829 232.5812,127.1566 237.0598,127.4166 241.5385,127.5015 246.0171,127.1883 250.4957,126.9442 254.9744,126.7658 259.453,126.6452 263.9316,126.5542 268.4103,126.4337 272.8889,126.1722 277.3675,125.5063 281.8462,124.8335 286.3248,124.1518 290.8034,123.4586 295.2821,122.7509 299.7607,122.0252 304.2393,121.2774 308.7179,120.5029 313.1966,119.6964 317.6752,118.8519 322.1538,117.9622 326.6325,117.0192 331.1111,116.0322 335.5897,115.0618 340.0684,114.2346 344.547,113.7565 349.0256,113.9485 353.5043,115.3747 357.9829,116.5577 362.4615,117.5303 366.9402,118.3198 371.4188,118.9482 375.8974,119.4337 380.3761,119.791 384.8547,120.046 389.3333,120.2638 393.812,120.5709 398.2906,121.211 402.7692,121.4839 407.2479,121.2301 411.7265,120.9386 416.2051,120.6009 420.6838,120.2114 425.1624,119.7543 429.641,119.1728 434.1197,118.4703 438.5983,117.7351 443.0769,117.1546 447.5556,117.0522 452.0342,118.0097 456.5128,118.839 460.9915,119.8811 465.4701,121.857 469.9487,123.7651 474.4274,125.5972 478.906,127.3465 483.3846,129.0068 487.8632,130.5736 492.3419,132.0429 496.8205,133.4121 501.2991,134.6791 505.7778,135.8427 510.2564,136.8914 514.735,137.7913 519.2137,138.4851 523.6923,138.8834 528.1709,139.2265 532.6496,139.4787 537.1282,139.6252 541.6068,139.7484 546.0855,140.3308 550.5641,142.7304 555.0427,144.9759 559.5214,146.9743 564,148.5439 568.4786,149.3898 572.9573,148.8246 577.4359,148.6198 581.9145,148.6538 586.3932,148.8233 590.8718,148.9303 595.3504,148.7577 599.8291,148.7079 604.3077,148.7838 608.7863,148.9989 613.265,149.0388 617.7436,149.1416 622.2222,149.084"></polyline>
<polyline id="error-erc" class="erc error" points=" 40,91.6485 44.4786,92.4648 48.9573,93.6259 53.4359,95.2326 57.9145,96.8981 62.3932,98.5761 66.8718,100.1823 71.3504,101.5994 75.8291,102.6765 80.3077,103.2025 84.7863,102.8136 89.265,100.6829 93.7436,98.776 98.2222,97.0789 102.7009,95.5782 107.1795,94.2609 111.6581,93.1146 116.1368,92.1272 120.6154,91.2874 125.094,90.5847 129.5726,90.0089 134.0513,89.551 138.5299,89.2025 143.0085,88.9556 147.4872,88.8036 151.9658,88.7402 156.4444,88.7601 160.9231,88.8588 165.4017,89.0308 169.8803,89.2646 174.359,89.5381 178.8376,89.8193 183.3162,90.0864 187.7949,90.4533 192.2735,90.9118 196.7521,91.4569 201.2308,92.0857 205.7094,92.7975 210.188,93.5933 214.6667,94.4758 219.1453,95.4493 223.6239,96.5201 228.1026,97.6966 232.5812,98.934 237.0598,100.0508 241.5385,100.687 246.0171,100.1461 250.4957,99.9324 254.9744,100.0209 259.453,100.3645 263.9316,100.8324 268.4103,101.1772 272.8889,100.9756 277.3675,99.3324 281.8462,97.9005 286.3248,96.6485 290.8034,95.5505 295.2821,94.5842 299.7607,93.7302 304.2393,92.9716 308.7179,92.2929 313.1966,91.6799 317.6752,91.1194 322.1538,90.5984 326.6325,90.1044 331.1111,89.6376 335.5897,89.2331 340.0684,88.9717 344.547,88.9884 349.0256,89.5021 353.5043,90.9149 357.9829,92.2228 362.4615,93.4418 366.9402,94.5864 371.4188,95.6691 375.8974,96.7011 380.3761,97.6925 384.8547,98.6453 389.3333,99.5499 393.812,100.3945 398.2906,101.1903 402.7692,101.5821 407.2479,101.2548 411.7265,101.0721 416.2051,100.9945 420.6838,100.9404 425.1624,100.7525 429.641,100.1271 434.1197,99.562 438.5983,99.1016 443.0769,98.8699 447.5556,99.0906 452.0342,100.1709 456.5128,101.1393 460.9915,102.1329 465.4701,103.4912 469.9487,104.936 474.4274,106.4454 478.906,108.001 483.3846,109.5872 487.8632,111.1908 492.3419,112.8009 496.8205,114.4085 501.2991,116.0064 505.7778,117.5891 510.2564,119.132 514.735,120.5634 519.2137,121.7499 523.6923,122.4665 528.1709,123.1569 532.6496,123.6756 537.1282,124.235 541.6068,124.8592 546.0855,125.8511 550.5641,128.1729 555.0427,130.5243 559.5214,132.7949 564,134.6729 568.4786,135.6766 572.9573,134.7567 577.4359,134.4445 581.9145,134.5137 586.3932,134.7264 590.8718,134.971 595.3504,134.9216 599.8291,135.0913 604.3077,135.4078 608.7863,135.7732 613.265,135.9361 617.7436,135.2459 622.2222,134.2896 622.2222,163.8784 617.7436,163.0372 613.265,162.1415 608.7863,162.2246 604.3077,162.1597 599.8291,162.3244 595.3504,162.5937 590.8718,162.8896 586.3932,162.9202 581.9145,162.7939 577.4359,162.7952 572.9573,162.8925 568.4786,163.103 564,162.4148 559.5214,161.1537 555.0427,159.4275 550.5641,157.2878 546.0855,154.8106 541.6068,154.6376 537.1282,155.0155 532.6496,155.2819 528.1709,155.2961 523.6923,155.3003 519.2137,155.2204 514.735,155.0192 510.2564,154.6507 505.7778,154.0962 501.2991,153.3518 496.8205,152.4156 492.3419,151.2849 487.8632,149.9563 483.3846,148.4265 478.906,146.6919 474.4274,144.749 469.9487,142.5941 465.4701,140.2228 460.9915,137.6294 456.5128,136.5386 452.0342,135.8485 447.5556,135.0138 443.0769,135.4393 438.5983,136.3686 434.1197,137.3786 429.641,138.2186 425.1624,138.756 420.6838,139.4823 416.2051,140.2073 411.7265,140.8052 407.2479,141.2054 402.7692,141.3857 398.2906,141.2317 393.812,140.7472 389.3333,140.9777 384.8547,141.4466 380.3761,141.8895 375.8974,142.1662 371.4188,142.2273 366.9402,142.0532 362.4615,141.6189 357.9829,140.8925 353.5043,139.8344 349.0256,138.3949 344.547,138.5245 340.0684,139.4975 335.5897,140.8904 331.1111,142.4269 326.6325,143.9339 322.1538,145.326 317.6752,146.5843 313.1966,147.7128 308.7179,148.7128 304.2393,149.5832 299.7607,150.3202 295.2821,150.9177 290.8034,151.3667 286.3248,151.655 281.8462,151.7665 277.3675,151.6803 272.8889,151.3688 268.4103,151.6902 263.9316,152.2759 259.453,152.9258 254.9744,153.5107 250.4957,153.956 246.0171,154.2305 241.5385,154.3159 237.0598,154.7824 232.5812,155.3792 228.1026,155.9615 223.6239,156.4516 219.1453,156.8237 214.6667,157.0708 210.188,157.1835 205.7094,157.15 201.2308,156.9561 196.7521,156.5846 192.2735,156.0152 187.7949,155.2235 183.3162,154.1813 178.8376,152.855 174.359,153.1982 169.8803,154.334 165.4017,155.803 160.9231,157.3322 156.4444,158.783 151.9658,160.1216 147.4872,161.3538 143.0085,162.4831 138.5299,163.5115 134.0513,164.4389 129.5726,165.2639 125.094,165.9834 120.6154,166.5928 116.1368,167.0859 111.6581,167.4548 107.1795,167.69 102.7009,167.78 98.2222,167.7115 93.7436,167.469 89.265,167.0348 84.7863,166.3883 80.3077,166.523 75.8291,167.1044 71.3504,167.9685 66.8718,169.0123 62.3932,170.1588 57.9145,171.3473 53.4359,172.5342 48.9573,173.6954 44.4786,174.4485 40,174.8915"></polyline>
<text class = "party erc" x="631.1111" y="142"><tspan class="party_name">ERC</tspan><tspan class="party_result"> (22.8±1.8%)</tspan></text>
<polyline id="media-jxcat"  class="jxcat media" points=" 40,221.2329 44.4786,221.2848 48.9573,221.3326 53.4359,221.3758 57.9145,221.4141 62.3932,221.4478 66.8718,221.4786 71.3504,221.5094 75.8291,221.545 80.3077,221.5934 84.7863,221.6697 89.265,221.811 93.7436,221.9639 98.2222,222.1278 102.7009,222.3019 107.1795,222.4857 111.6581,222.6785 116.1368,222.8799 120.6154,223.0896 125.094,223.3072 129.5726,223.5325 134.0513,223.7654 138.5299,224.006 143.0085,224.2542 147.4872,224.5104 151.9658,224.7748 156.4444,225.0477 160.9231,225.3299 165.4017,225.6153 169.8803,225.8819 174.359,226.0891 178.8376,226.1707 183.3162,225.9988 187.7949,225.8696 192.2735,225.7782 196.7521,225.7196 201.2308,225.6896 205.7094,225.6839 210.188,225.6985 214.6667,225.7294 219.1453,225.7725 223.6239,225.8238 228.1026,225.8789 232.5812,225.9392 237.0598,226.0255 241.5385,226.1898 246.0171,226.5559 250.4957,226.9298 254.9744,227.311 259.453,227.6924 263.9316,228.0542 268.4103,228.3671 272.8889,228.5939 277.3675,228.6666 281.8462,228.8086 286.3248,229.0155 290.8034,229.2842 295.2821,229.6124 299.7607,229.9985 304.2393,230.4422 308.7179,230.9437 313.1966,231.5043 317.6752,232.1263 322.1538,232.8131 326.6325,233.5691 331.1111,234.3841 335.5897,235.2048 340.0684,235.9223 344.547,236.3618 349.0256,236.2529 353.5043,235.125 357.9829,234.2235 362.4615,233.5209 366.9402,232.9939 371.4188,232.6233 375.8974,232.393 380.3761,232.2891 384.8547,232.2922 389.3333,232.3643 393.812,232.4456 398.2906,232.4454 402.7692,232.5115 407.2479,232.6112 411.7265,232.8749 416.2051,233.2782 420.6838,233.694 425.1624,233.8517 429.641,233.2332 434.1197,232.8953 438.5983,232.7695 443.0769,232.7369 447.5556,232.593 452.0342,231.9543 456.5128,231.3264 460.9915,230.287 465.4701,227.913 469.9487,225.6125 474.4274,223.3982 478.906,221.281 483.3846,219.2703 487.8632,217.3732 492.3419,215.5955 496.8205,213.9414 501.2991,212.4135 505.7778,211.0135 510.2564,209.7536 514.735,208.6702 519.2137,207.8294 523.6923,207.3456 528.1709,206.9741 532.6496,206.8199 537.1282,206.7177 541.6068,206.6022 546.0855,206.0785 550.5641,204.0243 555.0427,202.0282 559.5214,200.2807 564,198.7831 568.4786,197.4799 572.9573,196.2089 577.4359,194.8841 581.9145,193.6631 586.3932,192.7456 590.8718,191.9224 595.3504,191.3534 599.8291,190.7332 604.3077,190.0641 608.7863,189.2944 613.265,188.4989 617.7436,188.3956 622.2222,188.6039"></polyline>
<polyline id="error-jxcat" class="jxcat error" points=" 40,183.4464 44.4786,184.0662 48.9573,184.991 53.4359,186.3149 57.9145,187.6709 62.3932,189.027 66.8718,190.3262 71.3504,191.49 75.8291,192.4196 80.3077,192.9802 84.7863,192.9467 89.265,191.8271 93.7436,190.9199 98.2222,190.2089 102.7009,189.679 107.1795,189.3168 111.6581,189.1098 116.1368,189.0467 120.6154,189.1174 125.094,189.3131 129.5726,189.6259 134.0513,190.0493 138.5299,190.5778 143.0085,191.2071 147.4872,191.9341 151.9658,192.7569 156.4444,193.675 160.9231,194.689 165.4017,195.7745 169.8803,196.8386 174.359,197.7028 178.8376,198.0723 183.3162,197.3988 187.7949,196.9455 192.2735,196.6884 196.7521,196.6074 201.2308,196.6857 205.7094,196.9089 210.188,197.2654 214.6667,197.7455 219.1453,198.3414 223.6239,199.047 228.1026,199.8581 232.5812,200.744 237.0598,201.6086 241.5385,202.2779 246.0171,202.453 250.4957,202.8696 254.9744,203.5074 259.453,204.3233 263.9316,205.2035 268.4103,205.9484 272.8889,206.2397 277.3675,205.44 281.8462,204.909 286.3248,204.6161 290.8034,204.537 295.2821,204.6519 299.7607,204.9453 304.2393,205.4046 308.7179,206.0203 313.1966,206.7855 317.6752,207.6956 322.1538,208.7487 326.6325,209.9452 331.1111,211.2656 335.5897,212.6312 340.0684,213.8864 344.547,214.7862 349.0256,214.958 353.5043,213.767 357.9829,212.9355 362.4615,212.4202 366.9402,212.1858 371.4188,212.2033 375.8974,212.4493 380.3761,212.9051 384.8547,213.5286 389.3333,214.2129 393.812,214.7722 398.2906,214.9038 402.7692,215.0746 407.2479,215.114 411.7265,215.4843 416.2051,216.1328 420.6838,216.861 425.1624,217.2663 429.641,216.5996 434.1197,216.3827 438.5983,216.505 443.0769,216.7867 447.5556,216.9268 452.0342,216.3734 456.5128,215.847 460.9915,214.7312 465.4701,211.7335 469.9487,208.946 474.4274,206.3712 478.906,204.0118 483.3846,201.8697 487.8632,199.946 492.3419,198.2406 496.8205,196.7527 501.2991,195.481 505.7778,194.4233 510.2564,193.5805 514.735,192.9551 519.2137,192.5447 523.6923,192.3412 528.1709,192.2796 532.6496,192.3657 537.1282,192.6409 541.6068,192.9841 546.0855,192.8237 550.5641,190.6412 555.0427,188.6893 559.5214,187.1479 564,185.8997 568.4786,184.7164 572.9573,183.1004 577.4359,181.6574 581.9145,180.4513 586.3932,179.5592 590.8718,178.8525 595.3504,178.3931 599.8291,177.9714 604.3077,177.5189 608.7863,176.8784 613.265,176.1879 617.7436,175.3338 622.2222,174.6973 622.2222,202.5106 617.7436,201.4573 613.265,200.8099 608.7863,201.7105 604.3077,202.6093 599.8291,203.4951 595.3504,204.3136 590.8718,204.9923 586.3932,205.9319 581.9145,206.875 577.4359,208.1107 572.9573,209.3175 568.4786,210.2434 564,211.6665 559.5214,213.4135 555.0427,215.3671 550.5641,217.4073 546.0855,219.3334 541.6068,220.2204 537.1282,220.7945 532.6496,221.2741 528.1709,221.6686 523.6923,222.3501 519.2137,223.1141 514.735,224.3853 510.2564,225.9267 505.7778,227.6036 501.2991,229.346 496.8205,231.13 492.3419,232.9505 487.8632,234.8004 483.3846,236.6708 478.906,238.5503 474.4274,240.4251 469.9487,242.279 465.4701,244.0925 460.9915,245.8428 456.5128,246.8058 452.0342,247.5352 447.5556,248.2591 443.0769,248.6871 438.5983,249.0339 434.1197,249.408 429.641,249.8668 425.1624,250.4371 420.6838,250.527 416.2051,250.4237 411.7265,250.2655 407.2479,250.1084 402.7692,249.9484 398.2906,249.9871 393.812,250.119 389.3333,250.5157 384.8547,251.0558 380.3761,251.6731 375.8974,252.3367 371.4188,253.0434 366.9402,253.802 362.4615,254.6215 357.9829,255.5115 353.5043,256.4829 349.0256,257.5477 344.547,257.9373 340.0684,257.9582 335.5897,257.7785 331.1111,257.5026 326.6325,257.193 322.1538,256.8775 317.6752,256.5571 313.1966,256.2232 308.7179,255.8671 304.2393,255.4797 299.7607,255.0517 295.2821,254.5728 290.8034,254.0315 286.3248,253.415 281.8462,252.7082 277.3675,251.8932 272.8889,250.9482 268.4103,250.7858 263.9316,250.9049 259.453,251.0615 254.9744,251.1145 250.4957,250.9899 246.0171,250.6588 241.5385,250.1018 237.0598,250.4424 232.5812,251.1345 228.1026,251.8996 223.6239,252.6007 219.1453,253.2037 214.6667,253.7133 210.188,254.1316 205.7094,254.459 201.2308,254.6936 196.7521,254.8319 192.2735,254.8679 187.7949,254.7938 183.3162,254.5989 178.8376,254.2692 174.359,254.4754 169.8803,254.9253 165.4017,255.456 160.9231,255.9707 156.4444,256.4205 151.9658,256.7926 147.4872,257.0867 143.0085,257.3014 138.5299,257.4342 134.0513,257.4816 129.5726,257.4391 125.094,257.3013 120.6154,257.0618 116.1368,256.7132 111.6581,256.2472 107.1795,255.6545 102.7009,254.9247 98.2222,254.0467 93.7436,253.0079 89.265,251.7948 84.7863,250.3926 80.3077,250.2066 75.8291,250.6703 71.3504,251.5287 66.8718,252.631 62.3932,253.8687 57.9145,255.1573 53.4359,256.4367 48.9573,257.6742 44.4786,258.5034 40,259.0195"></polyline>
<text class = "party jxcat" x="631.1111" y="189"><tspan class="party_name">JxCAT</tspan><tspan class="party_result"> (17.9±1.7%)</tspan></text>
<polyline id="media-cec"  class="cec media" points=" 40,244.2454 44.4786,243.9042 48.9573,243.5463 53.4359,243.171 57.9145,242.782 62.3932,242.3931 66.8718,242.0285 71.3504,241.7194 75.8291,241.5054 80.3077,241.4417 84.7863,241.6294 89.265,242.3183 93.7436,242.972 98.2222,243.587 102.7009,244.1608 107.1795,244.6922 111.6581,245.1806 116.1368,245.6265 120.6154,246.0307 125.094,246.3943 129.5726,246.7191 134.0513,247.0066 138.5299,247.2588 143.0085,247.4777 147.4872,247.6654 151.9658,247.824 156.4444,247.9559 160.9231,248.0632 165.4017,248.1471 169.8803,248.2051 174.359,248.23 178.8376,248.2067 183.3162,248.0988 187.7949,247.972 192.2735,247.8228 196.7521,247.6483 201.2308,247.4457 205.7094,247.2124 210.188,246.9456 214.6667,246.6426 219.1453,246.3003 223.6239,245.9154 228.1026,245.4842 232.5812,245.0297 237.0598,244.6412 241.5385,244.4939 246.0171,244.9375 250.4957,245.2412 254.9744,245.4129 259.453,245.4698 263.9316,245.4596 268.4103,245.4718 272.8889,245.6595 277.3675,246.3604 281.8462,246.997 286.3248,247.5687 290.8034,248.076 295.2821,248.5196 299.7607,248.9008 304.2393,249.2206 308.7179,249.48 313.1966,249.6799 317.6752,249.8207 322.1538,249.9021 326.6325,249.9235 331.1111,249.8898 335.5897,249.8242 340.0684,249.7748 344.547,249.8205 349.0256,250.0865 353.5043,250.7924 357.9829,251.4019 362.4615,251.9233 366.9402,252.3643 371.4188,252.7312 375.8974,253.0301 380.3761,253.2662 384.8547,253.4394 389.3333,253.5364 393.812,253.5238 398.2906,253.3237 402.7692,253.3342 407.2479,253.7146 411.7265,254.002 416.2051,254.2077 420.6838,254.3937 425.1624,254.7039 429.641,255.4339 434.1197,256.0599 438.5983,256.5986 443.0769,257.0836 447.5556,257.5726 452.0342,258.1682 456.5128,258.6939 460.9915,259.1732 465.4701,259.6765 469.9487,260.2205 474.4274,260.7912 478.906,261.3774 483.3846,261.9704 487.8632,262.5629 492.3419,263.1495 496.8205,263.7257 501.2991,264.2884 505.7778,264.8356 510.2564,265.3589 514.735,265.835 519.2137,266.2272 523.6923,266.4883 528.1709,266.8258 532.6496,267.293 537.1282,267.8222 541.6068,268.3542 546.0855,268.647 550.5641,268.1042 555.0427,267.7453 559.5214,267.5053 564,267.3926 568.4786,267.4658 572.9573,267.908 577.4359,268.2882 581.9145,268.5406 586.3932,268.5431 590.8718,268.6175 595.3504,268.8246 599.8291,269.1233 604.3077,269.5963 608.7863,270.4025 613.265,271.4241 617.7436,270.771 622.2222,270.2673"></polyline>
<polyline id="error-cec" class="cec error" points=" 40,216.1944 44.4786,216.3802 48.9573,216.7333 53.4359,217.3075 57.9145,217.8952 62.3932,218.4864 66.8718,219.0617 71.3504,219.5927 75.8291,220.0421 80.3077,220.3599 84.7863,220.4705 89.265,220.2345 93.7436,220.1131 98.2222,220.0907 102.7009,220.1542 107.1795,220.2923 111.6581,220.4957 116.1368,220.7566 120.6154,221.0683 125.094,221.4256 129.5726,221.8244 134.0513,222.2615 138.5299,222.7348 143.0085,223.243 147.4872,223.7856 151.9658,224.3632 156.4444,224.9774 160.9231,225.6306 165.4017,226.3099 169.8803,226.9603 174.359,227.4724 178.8376,227.6614 183.3162,227.1783 187.7949,226.807 192.2735,226.5301 196.7521,226.3332 201.2308,226.2041 205.7094,226.1329 210.188,226.1111 214.6667,226.1316 219.1453,226.1887 223.6239,226.2776 228.1026,226.3948 232.5812,226.5399 237.0598,226.7178 241.5385,226.9393 246.0171,227.2471 250.4957,227.5848 254.9744,227.9456 259.453,228.3205 263.9316,228.6892 268.4103,229.0176 272.8889,229.2547 277.3675,229.326 281.8462,229.4789 286.3248,229.6928 290.8034,229.9523 295.2821,230.2451 299.7607,230.5617 304.2393,230.8943 308.7179,231.2365 313.1966,231.5828 317.6752,231.9288 322.1538,232.2702 326.6325,232.6032 331.1111,232.9265 335.5897,233.2465 340.0684,233.5807 344.547,233.9622 349.0256,234.4494 353.5043,235.1574 357.9829,235.8597 362.4615,236.5535 366.9402,237.2375 371.4188,237.9118 375.8974,238.5773 380.3761,239.2362 384.8547,239.8721 389.3333,240.4212 393.812,240.7582 398.2906,240.6492 402.7692,240.7358 407.2479,241.0811 411.7265,241.4504 416.2051,241.8347 420.6838,242.2479 425.1624,242.7458 429.641,243.4721 434.1197,244.2104 438.5983,244.9477 443.0769,245.6758 447.5556,246.3874 452.0342,247.0719 456.5128,247.6959 460.9915,248.1501 465.4701,248.2561 469.9487,248.5032 474.4274,248.8685 478.906,249.3337 483.3846,249.8836 487.8632,250.5055 492.3419,251.1889 496.8205,251.9254 501.2991,252.7081 505.7778,253.5318 510.2564,254.3794 514.735,255.2025 519.2137,255.9153 523.6923,256.3837 528.1709,256.949 532.6496,257.5964 537.1282,258.4003 541.6068,259.2621 546.0855,259.8167 550.5641,259.195 555.0427,258.8786 559.5214,258.7912 564,258.8606 568.4786,259.0298 572.9573,259.2619 577.4359,259.585 581.9145,259.8657 586.3932,259.8945 590.8718,260.057 595.3504,260.3483 599.8291,260.7932 604.3077,261.4287 608.7863,262.3473 613.265,263.4703 617.7436,262.303 622.2222,261.22 622.2222,279.3145 617.7436,279.239 613.265,279.3778 608.7863,278.4577 604.3077,277.7639 599.8291,277.4535 595.3504,277.3009 590.8718,277.178 586.3932,277.1918 581.9145,277.2154 577.4359,276.9915 572.9573,276.5541 568.4786,275.9017 564,275.9246 559.5214,276.2193 555.0427,276.612 550.5641,277.0135 546.0855,277.4774 541.6068,277.4463 537.1282,277.244 532.6496,276.9897 528.1709,276.7026 523.6923,276.593 519.2137,276.5391 514.735,276.4674 510.2564,276.3384 505.7778,276.1393 501.2991,275.8688 496.8205,275.526 492.3419,275.11 487.8632,274.6204 483.3846,274.0572 478.906,273.4212 474.4274,272.7138 469.9487,271.9377 465.4701,271.0968 460.9915,270.1964 456.5128,269.6919 452.0342,269.2644 447.5556,268.7577 443.0769,268.4913 438.5983,268.2495 434.1197,267.9094 429.641,267.3956 425.1624,266.662 420.6838,266.5395 416.2051,266.5806 411.7265,266.5537 407.2479,266.3481 402.7692,265.9327 398.2906,265.9983 393.812,266.2894 389.3333,266.6516 384.8547,267.0068 380.3761,267.2962 375.8974,267.4828 371.4188,267.5506 366.9402,267.491 362.4615,267.2932 357.9829,266.944 353.5043,266.4274 349.0256,265.7236 344.547,265.6789 340.0684,265.9688 335.5897,266.4019 331.1111,266.8531 326.6325,267.2437 322.1538,267.534 317.6752,267.7126 313.1966,267.7771 308.7179,267.7236 304.2393,267.5468 299.7607,267.2398 295.2821,266.7941 290.8034,266.1996 286.3248,265.4446 281.8462,264.515 277.3675,263.3947 272.8889,262.0643 268.4103,261.926 263.9316,262.23 259.453,262.6191 254.9744,262.8802 250.4957,262.8976 246.0171,262.6279 241.5385,262.0486 237.0598,262.5646 232.5812,263.5195 228.1026,264.5737 223.6239,265.5532 219.1453,266.4119 214.6667,267.1536 210.188,267.7802 205.7094,268.2919 201.2308,268.6873 196.7521,268.9634 192.2735,269.1155 187.7949,269.1369 183.3162,269.0194 178.8376,268.7521 174.359,268.9877 169.8803,269.4499 165.4017,269.9844 160.9231,270.4959 156.4444,270.9344 151.9658,271.2848 147.4872,271.5451 143.0085,271.7124 138.5299,271.7827 134.0513,271.7516 129.5726,271.6137 125.094,271.3631 120.6154,270.9931 116.1368,270.4965 111.6581,269.8655 107.1795,269.092 102.7009,268.1675 98.2222,267.0834 93.7436,265.831 89.265,264.402 84.7863,262.7883 80.3077,262.5234 75.8291,262.9686 71.3504,263.8461 66.8718,264.9952 62.3932,266.2999 57.9145,267.6688 53.4359,269.0345 48.9573,270.3594 44.4786,271.4281 40,272.2965"></polyline>
<text class = "party cec" x="631.1111" y="257"><tspan class="party_name">CeC</tspan><tspan class="party_result"> (7.8±1.1%)</tspan></text>
<polyline id="media-psc"  class="psc media" points=" 40,222.5377 44.4786,222.5415 48.9573,222.5401 53.4359,222.5328 57.9145,222.5198 62.3932,222.5032 66.8718,222.4884 71.3504,222.4832 75.8291,222.4989 80.3077,222.5532 84.7863,222.6795 89.265,222.9601 93.7436,223.2555 98.2222,223.5652 102.7009,223.8894 107.1795,224.2284 111.6581,224.5828 116.1368,224.9535 120.6154,225.342 125.094,225.7497 129.5726,226.1789 134.0513,226.6318 138.5299,227.1113 143.0085,227.621 147.4872,228.1648 151.9658,228.7475 156.4444,229.3745 160.9231,230.0526 165.4017,230.7622 169.8803,231.4148 174.359,231.8328 178.8376,231.7089 183.3162,230.425 187.7949,229.2654 192.2735,228.2168 196.7521,227.2665 201.2308,226.4027 205.7094,225.6146 210.188,224.8919 214.6667,224.2252 219.1453,223.6054 223.6239,223.0239 228.1026,222.4719 232.5812,221.9625 237.0598,221.5602 241.5385,221.3956 246.0171,221.7389 250.4957,222.0203 254.9744,222.2525 259.453,222.4445 263.9316,222.6039 268.4103,222.7402 272.8889,222.87 277.3675,223.0303 281.8462,223.2094 286.3248,223.4078 290.8034,223.6267 295.2821,223.868 299.7607,224.134 304.2393,224.4274 308.7179,224.7515 313.1966,225.1101 317.6752,225.5075 322.1538,225.9492 326.6325,226.4416 331.1111,226.9776 335.5897,227.5123 340.0684,227.949 344.547,228.1287 349.0256,227.8 353.5043,226.5182 357.9829,225.4095 362.4615,224.4512 366.9402,223.6239 371.4188,222.9116 375.8974,222.3007 380.3761,221.7795 384.8547,221.3433 389.3333,220.9975 393.812,220.757 398.2906,220.6544 402.7692,220.4238 407.2479,219.9569 411.7265,219.5141 416.2051,219.1094 420.6838,218.791 425.1624,218.6555 429.641,218.8921 434.1197,219.1164 438.5983,219.3064 443.0769,219.3914 447.5556,219.2415 452.0342,218.6214 456.5128,218.0933 460.9915,217.6 465.4701,217.0173 469.9487,216.4123 474.4274,215.7947 478.906,215.1723 483.3846,214.5512 487.8632,213.9362 492.3419,213.3312 496.8205,212.739 501.2991,212.1618 505.7778,211.6011 510.2564,211.0576 514.735,210.5266 519.2137,210.0103 523.6923,209.5427 528.1709,209.3145 532.6496,209.6098 537.1282,209.8081 541.6068,209.9155 546.0855,209.8772 550.5641,209.5039 555.0427,209.0739 559.5214,208.6618 564,208.3223 568.4786,208.1394 572.9573,208.2954 577.4359,208.3239 581.9145,208.2549 586.3932,208.1516 590.8718,208.2312 595.3504,208.7749 599.8291,209.1238 604.3077,209.2139 608.7863,208.9391 613.265,208.6413 617.7436,209.1165 622.2222,209.4408"></polyline>
<polyline id="error-psc" class="psc error" points=" 40,188.6459 44.4786,189.2144 48.9573,190.0319 53.4359,191.1746 57.9145,192.3445 62.3932,193.5149 66.8718,194.6383 71.3504,195.6498 75.8291,196.4679 80.3077,196.9825 84.7863,197.0122 89.265,196.1661 93.7436,195.5151 98.2222,195.045 102.7009,194.7432 107.1795,194.5985 111.6581,194.6009 116.1368,194.7416 120.6154,195.0133 125.094,195.4099 129.5726,195.9268 134.0513,196.5605 138.5299,197.3091 143.0085,198.1721 147.4872,199.1506 151.9658,200.2475 156.4444,201.4673 160.9231,202.8171 165.4017,204.2597 169.8803,205.6408 174.359,206.6543 178.8376,206.7805 183.3162,205.0072 187.7949,203.5195 192.2735,202.2875 196.7521,201.2846 201.2308,200.4879 205.7094,199.8776 210.188,199.4364 214.6667,199.1497 219.1453,199.005 223.6239,198.9917 228.1026,199.1012 232.5812,199.318 237.0598,199.6026 241.5385,199.884 246.0171,200.055 250.4957,200.373 254.9744,200.833 259.453,201.4121 263.9316,202.034 268.4103,202.5556 272.8889,202.7413 277.3675,202.1169 281.8462,201.6899 286.3248,201.4372 290.8034,201.3411 295.2821,201.3879 299.7607,201.567 304.2393,201.8707 308.7179,202.2932 313.1966,202.8312 317.6752,203.483 322.1538,204.2493 326.6325,205.1328 331.1111,206.1184 335.5897,207.1383 340.0684,208.0539 344.547,208.643 349.0256,208.5618 353.5043,207.2171 357.9829,206.1649 362.4615,205.3683 366.9402,204.7972 371.4188,204.4269 375.8974,204.2376 380.3761,204.2131 384.8547,204.3287 389.3333,204.5285 393.812,204.7145 398.2906,204.7292 402.7692,204.5868 407.2479,204.0521 411.7265,203.6901 416.2051,203.4902 420.6838,203.4401 425.1624,203.5238 429.641,203.7353 434.1197,204.0822 438.5983,204.5049 443.0769,204.8784 447.5556,204.9869 452.0342,204.4447 456.5128,204.0109 460.9915,203.4593 465.4701,202.3465 469.9487,201.3346 474.4274,200.4233 478.906,199.6121 483.3846,198.9 487.8632,198.2858 492.3419,197.7679 496.8205,197.3446 501.2991,197.0141 505.7778,196.7747 510.2564,196.6165 514.735,196.5038 519.2137,196.3769 523.6923,196.1592 528.1709,196.21 532.6496,196.7279 537.1282,197.2684 541.6068,197.789 546.0855,198.082 550.5641,197.6175 555.0427,197.2479 559.5214,197.0363 564,196.9327 568.4786,196.8702 572.9573,196.7397 577.4359,196.6815 581.9145,196.6403 586.3932,196.5695 590.8718,196.7635 595.3504,197.4196 599.8291,197.956 604.3077,198.246 608.7863,198.0894 613.265,197.8885 617.7436,197.7137 622.2222,197.2995 622.2222,221.5821 617.7436,220.5192 613.265,219.394 608.7863,219.7888 604.3077,220.1819 599.8291,220.2916 595.3504,220.1303 590.8718,219.6988 586.3932,219.7336 581.9145,219.8696 577.4359,219.9664 572.9573,219.8511 568.4786,219.4086 564,219.7118 559.5214,220.2874 555.0427,220.9 550.5641,221.3902 546.0855,221.6724 541.6068,222.042 537.1282,222.3478 532.6496,222.4918 528.1709,222.419 523.6923,222.9262 519.2137,223.6438 514.735,224.5494 510.2564,225.4988 505.7778,226.4275 501.2991,227.3094 496.8205,228.1333 492.3419,228.8944 487.8632,229.5867 483.3846,230.2024 478.906,230.7326 474.4274,231.1661 469.9487,231.49 465.4701,231.6881 460.9915,231.7408 456.5128,232.1756 452.0342,232.7981 447.5556,233.4962 443.0769,233.9044 438.5983,234.1079 434.1197,234.1507 429.641,234.0488 425.1624,233.7872 420.6838,234.1419 416.2051,234.7286 411.7265,235.3381 407.2479,235.8617 402.7692,236.2607 398.2906,236.5797 393.812,236.7996 389.3333,237.4665 384.8547,238.3578 380.3761,239.3459 375.8974,240.3637 371.4188,241.3962 366.9402,242.4506 362.4615,243.534 357.9829,244.6541 353.5043,245.8192 349.0256,247.0382 344.547,247.6143 340.0684,247.8441 335.5897,247.8863 331.1111,247.8368 326.6325,247.7503 322.1538,247.6492 317.6752,247.5321 313.1966,247.3889 308.7179,247.2098 304.2393,246.9842 299.7607,246.701 295.2821,246.3481 290.8034,245.9123 286.3248,245.3783 281.8462,244.7289 277.3675,243.9438 272.8889,242.9988 268.4103,242.9247 263.9316,243.1737 259.453,243.4769 254.9744,243.6719 250.4957,243.6676 246.0171,243.4227 241.5385,242.9073 237.0598,243.5177 232.5812,244.607 228.1026,245.8425 223.6239,247.056 219.1453,248.2058 214.6667,249.3006 210.188,250.3474 205.7094,251.3516 201.2308,252.3176 196.7521,253.2485 192.2735,254.1462 187.7949,255.0113 183.3162,255.8428 178.8376,256.6374 174.359,257.0113 169.8803,257.1889 165.4017,257.2647 160.9231,257.2882 156.4444,257.2818 151.9658,257.2475 147.4872,257.179 143.0085,257.0699 138.5299,256.9136 134.0513,256.703 129.5726,256.4309 125.094,256.0895 120.6154,255.6707 116.1368,255.1655 111.6581,254.5647 107.1795,253.8582 102.7009,253.0356 98.2222,252.0855 93.7436,250.9959 89.265,249.7542 84.7863,248.3467 80.3077,248.1239 75.8291,248.5299 71.3504,249.3165 66.8718,250.3385 62.3932,251.4916 57.9145,252.6951 53.4359,253.8911 48.9573,255.0484 44.4786,255.8686 40,256.4296"></polyline>
<text class = "party psc" x="631.1111" y="209"><tspan class="party_name">PSC</tspan><tspan class="party_result"> (15.3±1.5%)</tspan></text>
<polyline id="media-cs"  class="cs media" points=" 40,184.9429 44.4786,185.2395 48.9573,185.5488 53.4359,185.8711 57.9145,186.2033 62.3932,186.5342 66.8718,186.8449 71.3504,187.1108 75.8291,187.3021 80.3077,187.3771 84.7863,187.2604 89.265,186.7653 93.7436,186.3061 98.2222,185.8858 102.7009,185.5066 107.1795,185.1695 111.6581,184.8753 116.1368,184.6239 120.6154,184.415 125.094,184.2481 129.5726,184.1225 134.0513,184.0376 138.5299,183.9924 143.0085,183.9865 147.4872,184.0192 151.9658,184.0902 156.4444,184.1992 160.9231,184.3462 165.4017,184.524 169.8803,184.7059 174.359,184.8413 178.8376,184.846 183.3162,184.5567 187.7949,184.3289 192.2735,184.1613 196.7521,184.0525 201.2308,184.0015 205.7094,184.0073 210.188,184.0693 214.6667,184.1873 219.1453,184.3614 223.6239,184.5921 228.1026,184.8805 232.5812,185.2079 237.0598,185.5075 241.5385,185.6513 246.0171,185.3918 250.4957,185.2663 254.9744,185.2731 259.453,185.3945 263.9316,185.567 268.4103,185.6676 272.8889,185.4831 277.3675,184.5363 281.8462,183.6749 286.3248,182.8963 290.8034,182.1976 295.2821,181.5756 299.7607,181.0271 304.2393,180.5492 308.7179,180.139 313.1966,179.794 317.6752,179.512 322.1538,179.2912 326.6325,179.1305 331.1111,179.0258 335.5897,178.9645 340.0684,178.9215 344.547,178.8559 349.0256,178.7047 353.5043,178.36 357.9829,178.0885 362.4615,177.8896 366.9402,177.7631 371.4188,177.7098 375.8974,177.7313 380.3761,177.8306 384.8547,177.9824 389.3333,178.0836 393.812,177.9222 398.2906,177.088 402.7692,176.3781 407.2479,175.7049 411.7265,175.1168 416.2051,174.6175 420.6838,174.2028 425.1624,173.8504 429.641,173.5064 434.1197,173.2184 438.5983,172.9631 443.0769,172.6744 447.5556,172.2324 452.0342,171.4219 456.5128,170.7252 460.9915,170.1042 465.4701,169.4617 469.9487,168.7787 474.4274,168.0696 478.906,167.3458 483.3846,166.6166 487.8632,165.8891 492.3419,165.1692 496.8205,164.4611 501.2991,163.7679 505.7778,163.0916 510.2564,162.443 514.735,161.8552 519.2137,161.3647 523.6923,160.976 528.1709,160.2442 532.6496,158.824 537.1282,157.3005 541.6068,155.7927 546.0855,154.8708 550.5641,155.9483 555.0427,156.4891 559.5214,156.7545 564,156.9094 568.4786,157.152 572.9573,157.8383 577.4359,158.3508 581.9145,158.6559 586.3932,158.6291 590.8718,158.3616 595.3504,157.6313 599.8291,156.9091 604.3077,156.208 608.7863,155.5459 613.265,154.7111 617.7436,155.6526 622.2222,156.2607"></polyline>
<polyline id="error-cs" class="cs error" points=" 40,149.5181 44.4786,150.4194 48.9573,151.5909 53.4359,153.1107 57.9145,154.6753 62.3932,156.243 66.8718,157.7399 71.3504,159.065 75.8291,160.0911 80.3077,160.6426 84.7863,160.4182 89.265,158.7329 93.7436,157.2699 98.2222,156.0183 102.7009,154.9671 107.1795,154.1057 111.6581,153.4236 116.1368,152.9111 120.6154,152.5589 125.094,152.3586 129.5726,152.3025 134.0513,152.3838 138.5299,152.5969 143.0085,152.9371 147.4872,153.4006 151.9658,153.9853 156.4444,154.6898 160.9231,155.5146 165.4017,156.4349 169.8803,157.358 174.359,158.1045 178.8376,158.3758 183.3162,157.6153 187.7949,157.0826 192.2735,156.7586 196.7521,156.6279 201.2308,156.6777 205.7094,156.8979 210.188,157.2808 214.6667,157.8211 219.1453,158.5154 223.6239,159.3626 228.1026,160.364 232.5812,161.4703 237.0598,162.503 241.5385,163.1183 246.0171,162.6632 250.4957,162.5639 254.9744,162.8003 259.453,163.321 263.9316,163.9737 268.4103,164.4733 272.8889,164.3389 277.3675,162.5488 281.8462,161.0306 286.3248,159.7574 290.8034,158.7066 295.2821,157.8589 299.7607,157.1979 304.2393,156.7096 308.7179,156.3818 313.1966,156.2044 317.6752,156.1691 322.1538,156.2689 326.6325,156.4989 331.1111,156.8467 335.5897,157.2771 340.0684,157.7235 344.547,158.0822 349.0256,158.1986 353.5043,157.8191 357.9829,157.6343 362.4615,157.6294 366.9402,157.7932 371.4188,158.118 375.8974,158.5992 380.3761,159.2355 384.8547,159.9803 389.3333,160.6642 393.812,160.953 398.2906,160.2297 402.7692,159.6058 407.2479,158.861 411.7265,158.3582 416.2051,158.0752 420.6838,157.9428 425.1624,157.8181 429.641,157.4367 434.1197,157.2676 438.5983,157.2488 443.0769,157.2575 447.5556,157.0842 452.0342,156.3571 456.5128,155.7607 460.9915,155.0794 465.4701,153.8814 469.9487,152.7729 474.4274,151.7574 478.906,150.8377 483.3846,150.0153 487.8632,149.2912 492.3419,148.6653 496.8205,148.137 501.2991,147.7054 505.7778,147.369 510.2564,147.1277 514.735,146.9826 519.2137,146.9056 523.6923,146.7839 528.1709,146.3405 532.6496,145.131 537.1282,143.9462 541.6068,142.8554 546.0855,142.2744 550.5641,143.2743 555.0427,143.8928 559.5214,144.3804 564,144.7923 568.4786,145.1678 572.9573,145.5567 577.4359,145.9831 581.9145,146.3222 586.3932,146.3313 590.8718,146.1801 595.3504,145.5509 599.8291,145.0131 604.3077,144.5144 608.7863,143.9748 613.265,143.2387 617.7436,143.494 622.2222,143.3217 622.2222,169.1996 617.7436,167.8112 613.265,166.1835 608.7863,167.1169 604.3077,167.9016 599.8291,168.805 595.3504,169.7117 590.8718,170.5432 586.3932,170.9269 581.9145,170.9895 577.4359,170.7185 572.9573,170.1199 568.4786,169.1361 564,169.0266 559.5214,169.1286 555.0427,169.0854 550.5641,168.6222 546.0855,167.4672 541.6068,168.73 537.1282,170.6548 532.6496,172.517 528.1709,174.1478 523.6923,175.1681 519.2137,175.8239 514.735,176.7277 510.2564,177.7583 505.7778,178.8143 501.2991,179.8305 496.8205,180.7852 492.3419,181.6731 487.8632,182.487 483.3846,183.2178 478.906,183.8539 474.4274,184.3817 469.9487,184.7845 465.4701,185.042 460.9915,185.1289 456.5128,185.6897 452.0342,186.4868 447.5556,187.3806 443.0769,188.0913 438.5983,188.6773 434.1197,189.1691 429.641,189.5762 425.1624,189.8827 420.6838,190.4628 416.2051,191.1598 411.7265,191.8753 407.2479,192.5488 402.7692,193.1504 398.2906,193.9463 393.812,194.8914 389.3333,195.5031 384.8547,195.9846 380.3761,196.4258 375.8974,196.8634 371.4188,197.3015 366.9402,197.733 362.4615,198.1497 357.9829,198.5427 353.5043,198.901 349.0256,199.2109 344.547,199.6296 340.0684,200.1194 335.5897,200.652 331.1111,201.2049 326.6325,201.7621 322.1538,202.3135 317.6752,202.8548 313.1966,203.3835 308.7179,203.8962 304.2393,204.3888 299.7607,204.8563 295.2821,205.2923 290.8034,205.6886 286.3248,206.0352 281.8462,206.3191 277.3675,206.5238 272.8889,206.6273 268.4103,206.8618 263.9316,207.1603 259.453,207.4679 254.9744,207.7458 250.4957,207.9687 246.0171,208.1204 241.5385,208.1843 237.0598,208.5119 232.5812,208.9455 228.1026,209.397 223.6239,209.8216 219.1453,210.2074 214.6667,210.5535 210.188,210.8578 205.7094,211.1167 201.2308,211.3253 196.7521,211.4772 192.2735,211.5639 187.7949,211.5752 183.3162,211.498 178.8376,211.3162 174.359,211.5782 169.8803,212.0538 165.4017,212.6131 160.9231,213.1779 156.4444,213.7086 151.9658,214.1951 147.4872,214.6378 143.0085,215.0359 138.5299,215.3879 134.0513,215.6913 129.5726,215.9426 125.094,216.1376 120.6154,216.271 116.1368,216.3366 111.6581,216.3269 107.1795,216.2334 102.7009,216.046 98.2222,215.7534 93.7436,215.3423 89.265,214.7978 84.7863,214.1025 80.3077,214.1117 75.8291,214.5131 71.3504,215.1566 66.8718,215.9499 62.3932,216.8254 57.9145,217.7314 53.4359,218.6315 48.9573,219.5067 44.4786,220.0597 40,220.3677"></polyline>
<text class = "party cs" x="631.1111" y="163"><tspan class="party_name">C's</tspan><tspan class="party_result"> (21.9±1.6%)</tspan></text>
<polyline id="media-pp"  class="pp media" points=" 40,259.6431 44.4786,259.4801 48.9573,259.3131 53.4359,259.1423 57.9145,258.9692 62.3932,258.7989 66.8718,258.6391 71.3504,258.4996 75.8291,258.3913 80.3077,258.329 84.7863,258.3389 89.265,258.4855 93.7436,258.6081 98.2222,258.7053 102.7009,258.7763 107.1795,258.8205 111.6581,258.8379 116.1368,258.8282 120.6154,258.7914 125.094,258.7276 129.5726,258.6368 134.0513,258.5188 138.5299,258.3735 143.0085,258.2004 147.4872,257.999 151.9658,257.7684 156.4444,257.5076 160.9231,257.2151 165.4017,256.9001 169.8803,256.5994 174.359,256.3842 178.8376,256.3745 183.3162,256.8071 187.7949,257.1708 192.2735,257.4702 196.7521,257.7097 201.2308,257.8934 205.7094,258.0249 210.188,258.1077 214.6667,258.1448 219.1453,258.139 223.6239,258.0931 228.1026,258.0099 232.5812,257.8938 237.0598,257.7508 241.5385,257.5827 246.0171,257.3737 250.4957,257.0904 254.9744,256.7274 259.453,256.2986 263.9316,255.8687 268.4103,255.5634 272.8889,255.5982 277.3675,256.4589 281.8462,257.2232 286.3248,257.8985 290.8034,258.4913 295.2821,259.0075 299.7607,259.4521 304.2393,259.8293 308.7179,260.1429 313.1966,260.396 317.6752,260.5911 322.1538,260.7298 326.6325,260.8134 331.1111,260.8468 335.5897,260.8468 340.0684,260.8478 344.547,260.9053 349.0256,261.1062 353.5043,261.6026 357.9829,262.0279 362.4615,262.3878 366.9402,262.6876 371.4188,262.9322 375.8974,263.1265 380.3761,263.2751 384.8547,263.3756 389.3333,263.4059 393.812,263.314 398.2906,262.9826 402.7692,262.9263 407.2479,263.3352 411.7265,263.6642 416.2051,263.9174 420.6838,264.1055 425.1624,264.2511 429.641,264.3972 434.1197,264.4813 438.5983,264.5087 443.0769,264.4974 447.5556,264.4897 452.0342,264.5816 456.5128,264.7186 460.9915,265.0827 465.4701,266.0776 469.9487,267.054 474.4274,268.0056 478.906,268.9272 483.3846,269.8146 487.8632,270.6643 492.3419,271.4734 496.8205,272.2399 501.2991,272.962 505.7778,273.6387 510.2564,274.2735 514.735,274.8882 519.2137,275.5261 523.6923,276.2604 528.1709,276.8863 532.6496,277.3146 537.1282,277.8716 541.6068,278.517 546.0855,279.0919 550.5641,279.2584 555.0427,279.7924 559.5214,280.3778 564,280.902 568.4786,281.2365 572.9573,281.1469 577.4359,281.2055 581.9145,281.3468 586.3932,281.5069 590.8718,281.6785 595.3504,281.7959 599.8291,281.9446 604.3077,282.1056 608.7863,282.2776 613.265,282.5255 617.7436,282.3437 622.2222,282.1166"></polyline>
<polyline id="error-pp" class="pp error" points=" 40,232.6936 44.4786,233.0488 48.9573,233.5787 53.4359,234.3369 57.9145,235.1186 62.3932,235.9053 66.8718,236.6623 71.3504,237.3406 75.8291,237.8766 80.3077,238.1824 84.7863,238.1111 89.265,237.344 93.7436,236.696 98.2222,236.1551 102.7009,235.7105 107.1795,235.3526 111.6581,235.0727 116.1368,234.8631 120.6154,234.7167 125.094,234.6274 129.5726,234.5897 134.0513,234.5988 138.5299,234.6506 143.0085,234.7414 147.4872,234.8682 151.9658,235.0285 156.4444,235.2205 160.9231,235.4429 165.4017,235.6918 169.8803,235.9542 174.359,236.2048 178.8376,236.4031 183.3162,236.4921 187.7949,236.6382 192.2735,236.8322 196.7521,237.0675 201.2308,237.3391 205.7094,237.6437 210.188,237.9791 214.6667,238.3444 219.1453,238.7398 223.6239,239.1668 228.1026,239.6283 232.5812,240.1053 237.0598,240.5191 241.5385,240.7067 246.0171,240.343 250.4957,240.0715 254.9744,239.8723 259.453,239.7344 263.9316,239.6573 268.4103,239.648 272.8889,239.7261 277.3675,239.9825 281.8462,240.2833 286.3248,240.6167 290.8034,240.9738 295.2821,241.348 299.7607,241.7338 304.2393,242.1271 308.7179,242.5243 313.1966,242.9228 317.6752,243.32 322.1538,243.714 326.6325,244.1029 331.1111,244.4854 335.5897,244.8621 340.0684,245.2371 344.547,245.6209 349.0256,246.0351 353.5043,246.5286 357.9829,247.0396 362.4615,247.5628 366.9402,248.0951 371.4188,248.6351 375.8974,249.1826 380.3761,249.7393 384.8547,250.2868 389.3333,250.754 393.812,250.9986 398.2906,250.7507 402.7692,250.7662 407.2479,251.1432 411.7265,251.5538 416.2051,251.9824 420.6838,252.3914 425.1624,252.715 429.641,252.842 434.1197,253.0203 438.5983,253.2268 443.0769,253.4385 447.5556,253.6342 452.0342,253.7994 456.5128,254.0221 460.9915,254.3593 465.4701,254.9823 469.9487,255.6837 474.4274,256.4486 478.906,257.2647 483.3846,258.1214 487.8632,259.0097 492.3419,259.9221 496.8205,260.8522 501.2991,261.7947 505.7778,262.7454 510.2564,263.6997 514.735,264.6562 519.2137,265.613 523.6923,266.5629 528.1709,267.4185 532.6496,268.0211 537.1282,268.8457 541.6068,269.8139 546.0855,270.6497 550.5641,270.7583 555.0427,271.3569 559.5214,272.1106 564,272.8258 568.4786,273.2595 572.9573,272.9566 577.4359,272.9532 581.9145,273.1195 586.3932,273.3092 590.8718,273.568 595.3504,273.7641 599.8291,274.0496 604.3077,274.3592 608.7863,274.6249 613.265,274.953 617.7436,274.2888 622.2222,273.5126 622.2222,290.7205 617.7436,290.3986 613.265,290.0981 608.7863,289.9304 604.3077,289.8519 599.8291,289.8397 595.3504,289.8276 590.8718,289.789 586.3932,289.7047 581.9145,289.574 577.4359,289.4578 572.9573,289.3372 568.4786,289.2136 564,288.9781 559.5214,288.645 555.0427,288.2278 550.5641,287.7585 546.0855,287.5341 541.6068,287.2201 537.1282,286.8976 532.6496,286.6082 528.1709,286.3541 523.6923,285.9579 519.2137,285.4391 514.735,285.1201 510.2564,284.8474 505.7778,284.5319 501.2991,284.1294 496.8205,283.6275 492.3419,283.0247 487.8632,282.3188 483.3846,281.5078 478.906,280.5897 474.4274,279.5625 469.9487,278.4243 465.4701,277.1729 460.9915,275.8061 456.5128,275.415 452.0342,275.3638 447.5556,275.3452 443.0769,275.5563 438.5983,275.7907 434.1197,275.9423 429.641,275.9525 425.1624,275.7873 420.6838,275.8195 416.2051,275.8524 411.7265,275.7746 407.2479,275.5273 402.7692,275.0864 398.2906,275.2145 393.812,275.6294 389.3333,276.0579 384.8547,276.4643 380.3761,276.8109 375.8974,277.0704 371.4188,277.2294 366.9402,277.28 362.4615,277.2127 357.9829,277.0161 353.5043,276.6765 349.0256,276.1772 344.547,276.1896 340.0684,276.4585 335.5897,276.8316 331.1111,277.2081 326.6325,277.5239 322.1538,277.7456 317.6752,277.8621 313.1966,277.8693 308.7179,277.7616 304.2393,277.5316 299.7607,277.1704 295.2821,276.6671 290.8034,276.0089 286.3248,275.1803 281.8462,274.163 277.3675,272.9352 272.8889,271.4704 268.4103,271.4787 263.9316,272.0801 259.453,272.8628 254.9744,273.5825 250.4957,274.1094 246.0171,274.4043 241.5385,274.4587 237.0598,274.9825 232.5812,275.6823 228.1026,276.3916 223.6239,277.0195 219.1453,277.5382 214.6667,277.9451 210.188,278.2363 205.7094,278.4061 201.2308,278.4477 196.7521,278.3519 192.2735,278.1082 187.7949,277.7034 183.3162,277.1221 178.8376,276.346 174.359,276.5636 169.8803,277.2446 165.4017,278.1085 160.9231,278.9873 156.4444,279.7946 151.9658,280.5083 147.4872,281.1297 143.0085,281.6594 138.5299,282.0963 134.0513,282.4388 129.5726,282.6839 125.094,282.8279 120.6154,282.8662 116.1368,282.7933 111.6581,282.603 107.1795,282.2885 102.7009,281.842 98.2222,281.2555 93.7436,280.5202 89.265,279.627 84.7863,278.5667 80.3077,278.4757 75.8291,278.906 71.3504,279.6585 66.8718,280.616 62.3932,281.6925 57.9145,282.8199 53.4359,283.9477 48.9573,285.0476 44.4786,285.9114 40,286.5926"></polyline>
<text class = "party pp" x="631.1111" y="279"><tspan class="party_name">PP</tspan><tspan class="party_result"> (6.3±1.1%)</tspan></text>
<polyline id="media-otros"  class="otros media" points=" 40,310.8487 44.4786,310.8561 48.9573,310.8654 53.4359,310.877 57.9145,310.8905 62.3932,310.9051 66.8718,310.9186 71.3504,310.9279 75.8291,310.9287 80.3077,310.9144 84.7863,310.8727 89.265,310.7732 93.7436,310.6704 98.2222,310.5644 102.7009,310.4555 107.1795,310.3435 111.6581,310.2284 116.1368,310.1099 120.6154,309.9876 125.094,309.8612 129.5726,309.73 134.0513,309.5935 138.5299,309.4508 143.0085,309.3009 147.4872,309.1429 151.9658,308.9753 156.4444,308.7967 160.9231,308.6052 165.4017,308.4063 169.8803,308.2244 174.359,308.1083 178.8376,308.1429 183.3162,308.4988 187.7949,308.8224 192.2735,309.1177 196.7521,309.3889 201.2308,309.6398 205.7094,309.8739 210.188,310.0951 214.6667,310.3068 219.1453,310.5128 223.6239,310.717 228.1026,310.9237 232.5812,311.1217 237.0598,311.2596 241.5385,311.2294 246.0171,310.8013 250.4957,310.4085 254.9744,310.0432 259.453,309.7043 263.9316,309.4048 268.4103,309.171 272.8889,309.0457 277.3675,309.1264 281.8462,309.1744 286.3248,309.1943 290.8034,309.1897 295.2821,309.1633 299.7607,309.117 304.2393,309.0522 308.7179,308.9698 313.1966,308.8703 317.6752,308.7538 322.1538,308.62 326.6325,308.4683 331.1111,308.3011 335.5897,308.1287 340.0684,307.9722 344.547,307.8649 349.0256,307.8573 353.5043,308.0366 357.9829,308.163 362.4615,308.2404 366.9402,308.2722 371.4188,308.26 375.8974,308.205 380.3761,308.1069 384.8547,307.9801 389.3333,307.8787 393.812,307.9113 398.2906,308.2836 402.7692,308.64 407.2479,309.0625 411.7265,309.4272 416.2051,309.7354 420.6838,309.9995 425.1624,310.2523 429.641,310.5661 434.1197,310.8475 438.5983,311.1096 443.0769,311.3884 447.5556,311.745 452.0342,312.2814 456.5128,312.7223 460.9915,313.0241 465.4701,313.0997 469.9487,313.2116 474.4274,313.3502 478.906,313.508 483.3846,313.6793 487.8632,313.8596 492.3419,314.0455 496.8205,314.2344 501.2991,314.4244 505.7778,314.6147 510.2564,314.8008 514.735,314.9691 519.2137,315.0952 523.6923,315.1405 528.1709,315.2299 532.6496,315.3798 537.1282,315.5922 541.6068,315.8361 546.0855,315.9583 550.5641,315.5694 555.0427,315.3456 559.5214,315.1783 564,315.0901 568.4786,315.1486 572.9573,315.5519 577.4359,315.9337 581.9145,316.3838 586.3932,317.0617 590.8718,317.7141 595.3504,318.3543 599.8291,318.9787 604.3077,319.5538 608.7863,320.039 613.265,320.6529 617.7436,320.0822 622.2222,319.6888"></polyline>
<polyline id="error-otros" class="otros error" points=" 40,288.4929 44.4786,288.9626 48.9573,289.5922 53.4359,290.4298 57.9145,291.2895 62.3932,292.1491 66.8718,292.9689 71.3504,293.6947 75.8291,294.2576 80.3077,294.5628 84.7863,294.4477 89.265,293.5446 93.7436,292.7602 98.2222,292.0866 102.7009,291.5164 107.1795,291.0423 111.6581,290.6574 116.1368,290.3549 120.6154,290.1288 125.094,289.9731 129.5726,289.8826 134.0513,289.8524 138.5299,289.8781 143.0085,289.9558 147.4872,290.082 151.9658,290.2538 156.4444,290.4686 160.9231,290.7244 165.4017,291.0149 169.8803,291.3213 174.359,291.6094 178.8376,291.8268 183.3162,291.893 187.7949,292.0361 192.2735,292.249 196.7521,292.5261 201.2308,292.8635 205.7094,293.2588 210.188,293.7107 214.6667,294.2192 219.1453,294.7854 223.6239,295.4119 228.1026,296.1027 232.5812,296.8251 237.0598,297.4516 241.5385,297.7276 246.0171,297.1479 250.4957,296.7498 254.9744,296.5131 259.453,296.4146 263.9316,296.4103 268.4103,296.4232 272.8889,296.326 277.3675,295.8714 281.8462,295.5024 286.3248,295.2087 290.8034,294.9816 295.2821,294.8138 299.7607,294.6987 304.2393,294.6305 308.7179,294.604 313.1966,294.6147 317.6752,294.6584 322.1538,294.7315 326.6325,294.8306 331.1111,294.9526 335.5897,295.0937 340.0684,295.2492 344.547,295.4137 349.0256,295.5822 353.5043,295.7537 357.9829,295.9472 362.4615,296.1578 366.9402,296.3811 371.4188,296.6136 375.8974,296.8519 380.3761,297.0928 384.8547,297.3378 389.3333,297.6023 393.812,297.925 398.2906,298.3954 402.7692,298.8317 407.2479,299.2373 411.7265,299.6803 416.2051,300.1452 420.6838,300.6035 425.1624,301.0145 429.641,301.3239 434.1197,301.696 438.5983,302.1202 443.0769,302.5993 447.5556,303.1429 452.0342,303.7637 456.5128,304.2937 460.9915,304.5789 465.4701,304.3246 469.9487,304.1877 474.4274,304.152 478.906,304.2046 483.3846,304.3347 487.8632,304.5336 492.3419,304.7938 496.8205,305.1093 501.2991,305.4752 505.7778,305.8878 510.2564,306.3353 514.735,306.7835 519.2137,307.1672 523.6923,307.377 528.1709,307.6478 532.6496,307.9404 537.1282,308.3735 541.6068,308.8834 546.0855,309.2158 550.5641,308.7573 555.0427,308.5653 559.5214,308.5184 564,308.5749 568.4786,308.7116 572.9573,308.9547 577.4359,309.2996 581.9145,309.7871 586.3932,310.5159 590.8718,311.2661 595.3504,311.9978 599.8291,312.7603 604.3077,313.4805 608.7863,314.0608 613.265,314.7628 617.7436,313.7728 622.2222,312.9112 622.2222,326.4664 617.7436,326.3915 613.265,326.5429 608.7863,326.0172 604.3077,325.6271 599.8291,325.1971 595.3504,324.7107 590.8718,324.162 586.3932,323.6076 581.9145,322.9805 577.4359,322.5679 572.9573,322.1491 568.4786,321.5856 564,321.6052 559.5214,321.8382 555.0427,322.126 550.5641,322.3815 546.0855,322.7008 541.6068,322.7889 537.1282,322.811 532.6496,322.8192 528.1709,322.8119 523.6923,322.9039 519.2137,323.0232 514.735,323.1548 510.2564,323.2663 505.7778,323.3416 501.2991,323.3737 496.8205,323.3594 492.3419,323.2972 487.8632,323.1857 483.3846,323.0239 478.906,322.8115 474.4274,322.5484 469.9487,322.2356 465.4701,321.8749 460.9915,321.4693 456.5128,321.151 452.0342,320.7991 447.5556,320.3472 443.0769,320.1774 438.5983,320.0989 434.1197,319.9989 429.641,319.8084 425.1624,319.49 420.6838,319.3954 416.2051,319.3256 411.7265,319.1741 407.2479,318.8878 402.7692,318.4483 398.2906,318.1717 393.812,317.8975 389.3333,318.1551 384.8547,318.6224 380.3761,319.121 375.8974,319.5581 371.4188,319.9064 366.9402,320.1632 362.4615,320.3231 357.9829,320.3787 353.5043,320.3196 349.0256,320.1324 344.547,320.316 340.0684,320.6952 335.5897,321.1637 331.1111,321.6495 326.6325,322.106 322.1538,322.5084 317.6752,322.8491 313.1966,323.1259 308.7179,323.3357 304.2393,323.474 299.7607,323.5353 295.2821,323.5128 290.8034,323.3978 286.3248,323.1799 281.8462,322.8463 277.3675,322.3814 272.8889,321.7653 268.4103,321.9189 263.9316,322.3994 259.453,322.9939 254.9744,323.5733 250.4957,324.0673 246.0171,324.4547 241.5385,324.7313 237.0598,325.0677 232.5812,325.4182 228.1026,325.7446 223.6239,326.0221 219.1453,326.2402 214.6667,326.3944 210.188,326.4794 205.7094,326.4891 201.2308,326.416 196.7521,326.2518 192.2735,325.9865 187.7949,325.6086 183.3162,325.1046 178.8376,324.459 174.359,324.6072 169.8803,325.1275 165.4017,325.7978 160.9231,326.4861 156.4444,327.1248 151.9658,327.6968 147.4872,328.2037 143.0085,328.6461 138.5299,329.0234 134.0513,329.3346 129.5726,329.5775 125.094,329.7493 120.6154,329.8464 116.1368,329.8648 111.6581,329.7994 107.1795,329.6447 102.7009,329.3946 98.2222,329.0423 93.7436,328.5806 89.265,328.0018 84.7863,327.2977 80.3077,327.266 75.8291,327.5997 71.3504,328.1611 66.8718,328.8683 62.3932,329.6611 57.9145,330.4916 53.4359,331.3241 48.9573,332.1387 44.4786,332.7496 40,333.2044"></polyline>
<text class = "party otros" x="631.1111" y="320"><tspan class="party_name">Otros</tspan><tspan class="party_result"> (1.7±0.8%)</tspan></text>
<g id="encuesta-1">
<circle id="encuesta-1-cup" class="encuesta sociometrica cup" cx="622.2222" cy="285.6566" r="3.3166" ></circle>
<circle id="encuesta-1-erc" class="encuesta sociometrica erc" cx="622.2222" cy="160.404" r="3.3166" ></circle>
<circle id="encuesta-1-jxcat" class="encuesta sociometrica jxcat" cx="622.2222" cy="161.2121" r="3.3166" ></circle>
<circle id="encuesta-1-cec" class="encuesta sociometrica cec" cx="622.2222" cy="267.0707" r="3.3166" ></circle>
<circle id="encuesta-1-psc" class="encuesta sociometrica psc" cx="622.2222" cy="219.3939" r="3.3166" ></circle>
<circle id="encuesta-1-cs" class="encuesta sociometrica cs" cx="622.2222" cy="162.0202" r="3.3166" ></circle>
<circle id="encuesta-1-pp" class="encuesta sociometrica pp" cx="622.2222" cy="284.0404" r="3.3166" ></circle>
<circle id="encuesta-1-otros" class="encuesta sociometrica otros" cx="622.2222" cy="318.7879" r="3.3166" ></circle>
</g>
<g id="encuesta-2">
<circle id="encuesta-2-cup" class="encuesta feedback cup" cx="617.7436" cy="273.5354" r="3.1623" ></circle>
<circle id="encuesta-2-erc" class="encuesta feedback erc" cx="617.7436" cy="153.1313" r="3.1623" ></circle>
<circle id="encuesta-2-jxcat" class="encuesta feedback jxcat" cx="617.7436" cy="180.6061" r="3.1623" ></circle>
<circle id="encuesta-2-cec" class="encuesta feedback cec" cx="617.7436" cy="273.5354" r="3.1623" ></circle>
<circle id="encuesta-2-psc" class="encuesta feedback psc" cx="617.7436" cy="204.8485" r="3.1623" ></circle>
<circle id="encuesta-2-cs" class="encuesta feedback cs" cx="617.7436" cy="161.2121" r="3.1623" ></circle>
<circle id="encuesta-2-pp" class="encuesta feedback pp" cx="617.7436" cy="284.0404" r="3.1623" ></circle>
<circle id="encuesta-2-otros" class="encuesta feedback otros" cx="617.7436" cy="327.6768" r="3.1623" ></circle>
</g>
<g id="encuesta-3">
<circle id="encuesta-3-cup" class="encuesta infortecnica cup" cx="613.265" cy="282.4242" r="3.4871" ></circle>
<circle id="encuesta-3-erc" class="encuesta infortecnica erc" cx="613.265" cy="145.0505" r="3.4871" ></circle>
<circle id="encuesta-3-jxcat" class="encuesta infortecnica jxcat" cx="613.265" cy="180.6061" r="3.4871" ></circle>
<circle id="encuesta-3-cec" class="encuesta infortecnica cec" cx="613.265" cy="291.3131" r="3.4871" ></circle>
<circle id="encuesta-3-psc" class="encuesta infortecnica psc" cx="613.265" cy="201.6162" r="3.4871" ></circle>
<circle id="encuesta-3-cs" class="encuesta infortecnica cs" cx="613.265" cy="136.1616" r="3.4871" ></circle>
<circle id="encuesta-3-pp" class="encuesta infortecnica pp" cx="613.265" cy="288.0808" r="3.4871" ></circle>
<circle id="encuesta-3-otros" class="encuesta infortecnica otros" cx="613.265" cy="333.3333" r="3.4871" ></circle>
</g>
<g id="encuesta-4">
<circle id="encuesta-4-cup" class="encuesta celeste-tel cup" cx="613.265" cy="280" r="2.8284" ></circle>
<circle id="encuesta-4-erc" class="encuesta celeste-tel erc" cx="613.265" cy="148.2828" r="2.8284" ></circle>
<circle id="encuesta-4-jxcat" class="encuesta celeste-tel jxcat" cx="613.265" cy="202.4242" r="2.8284" ></circle>
<circle id="encuesta-4-cec" class="encuesta celeste-tel cec" cx="613.265" cy="267.8788" r="2.8284" ></circle>
<circle id="encuesta-4-psc" class="encuesta celeste-tel psc" cx="613.265" cy="203.2323" r="2.8284" ></circle>
<circle id="encuesta-4-cs" class="encuesta celeste-tel cs" cx="613.265" cy="153.9394" r="2.8284" ></circle>
<circle id="encuesta-4-pp" class="encuesta celeste-tel pp" cx="613.265" cy="279.1919" r="2.8284" ></circle>
<circle id="encuesta-4-otros" class="encuesta celeste-tel otros" cx="613.265" cy="323.6364" r="2.8284" ></circle>
</g>
<g id="encuesta-5">
<circle id="encuesta-5-cup" class="encuesta sociometrica cup" cx="617.7436" cy="288.8889" r="3.3166" ></circle>
<circle id="encuesta-5-erc" class="encuesta sociometrica erc" cx="617.7436" cy="151.5152" r="3.3166" ></circle>
<circle id="encuesta-5-jxcat" class="encuesta sociometrica jxcat" cx="617.7436" cy="173.3333" r="3.3166" ></circle>
<circle id="encuesta-5-cec" class="encuesta sociometrica cec" cx="617.7436" cy="273.5354" r="3.3166" ></circle>
<circle id="encuesta-5-psc" class="encuesta sociometrica psc" cx="617.7436" cy="216.9697" r="3.3166" ></circle>
<circle id="encuesta-5-cs" class="encuesta sociometrica cs" cx="617.7436" cy="159.596" r="3.3166" ></circle>
<circle id="encuesta-5-pp" class="encuesta sociometrica pp" cx="617.7436" cy="289.697" r="3.3166" ></circle>
<circle id="encuesta-5-otros" class="encuesta sociometrica otros" cx="617.7436" cy="305.0505" r="3.3166" ></circle>
</g>
<g id="encuesta-6">
<circle id="encuesta-6-cup" class="encuesta gad3 cup" cx="613.265" cy="292.9293" r="3.1623" ></circle>
<circle id="encuesta-6-erc" class="encuesta gad3 erc" cx="613.265" cy="159.596" r="3.1623" ></circle>
<circle id="encuesta-6-jxcat" class="encuesta gad3 jxcat" cx="613.265" cy="186.2626" r="3.1623" ></circle>
<circle id="encuesta-6-cec" class="encuesta gad3 cec" cx="613.265" cy="273.5354" r="3.1623" ></circle>
<circle id="encuesta-6-psc" class="encuesta gad3 psc" cx="613.265" cy="200" r="3.1623" ></circle>
<circle id="encuesta-6-cs" class="encuesta gad3 cs" cx="613.265" cy="146.6667" r="3.1623" ></circle>
<circle id="encuesta-6-pp" class="encuesta gad3 pp" cx="613.265" cy="275.9596" r="3.1623" ></circle>
<circle id="encuesta-6-otros" class="encuesta gad3 otros" cx="613.265" cy="323.6364" r="3.1623" ></circle>
</g>
<g id="encuesta-7">
<circle id="encuesta-7-cup" class="encuesta feedback cup" cx="613.265" cy="275.9596" r="3" ></circle>
<circle id="encuesta-7-erc" class="encuesta feedback erc" cx="613.265" cy="146.6667" r="3" ></circle>
<circle id="encuesta-7-jxcat" class="encuesta feedback jxcat" cx="613.265" cy="195.9596" r="3" ></circle>
<circle id="encuesta-7-cec" class="encuesta feedback cec" cx="613.265" cy="268.6869" r="3" ></circle>
<circle id="encuesta-7-psc" class="encuesta feedback psc" cx="613.265" cy="209.697" r="3" ></circle>
<circle id="encuesta-7-cs" class="encuesta feedback cs" cx="613.265" cy="147.4747" r="3" ></circle>
<circle id="encuesta-7-pp" class="encuesta feedback pp" cx="613.265" cy="288.8889" r="3" ></circle>
<circle id="encuesta-7-otros" class="encuesta feedback otros" cx="613.265" cy="325.2525" r="3" ></circle>
</g>
<g id="encuesta-8">
<circle id="encuesta-8-cup" class="encuesta feedback cup" cx="604.3077" cy="281.6162" r="3.1623" ></circle>
<circle id="encuesta-8-erc" class="encuesta feedback erc" cx="604.3077" cy="139.3939" r="3.1623" ></circle>
<circle id="encuesta-8-jxcat" class="encuesta feedback jxcat" cx="604.3077" cy="195.1515" r="3.1623" ></circle>
<circle id="encuesta-8-cec" class="encuesta feedback cec" cx="604.3077" cy="258.1818" r="3.1623" ></circle>
<circle id="encuesta-8-psc" class="encuesta feedback psc" cx="604.3077" cy="224.2424" r="3.1623" ></circle>
<circle id="encuesta-8-cs" class="encuesta feedback cs" cx="604.3077" cy="149.0909" r="3.1623" ></circle>
<circle id="encuesta-8-pp" class="encuesta feedback pp" cx="604.3077" cy="283.2323" r="3.1623" ></circle>
<circle id="encuesta-8-otros" class="encuesta feedback otros" cx="604.3077" cy="327.6768" r="3.1623" ></circle>
</g>
<g id="encuesta-9">
<circle id="encuesta-9-cup" class="encuesta gesop cup" cx="590.8718" cy="284.8485" r="2.8284" ></circle>
<circle id="encuesta-9-erc" class="encuesta gesop erc" cx="590.8718" cy="167.6768" r="2.8284" ></circle>
<circle id="encuesta-9-jxcat" class="encuesta gesop jxcat" cx="590.8718" cy="177.3737" r="2.8284" ></circle>
<circle id="encuesta-9-cec" class="encuesta gesop cec" cx="590.8718" cy="264.6465" r="2.8284" ></circle>
<circle id="encuesta-9-psc" class="encuesta gesop psc" cx="590.8718" cy="179.798" r="2.8284" ></circle>
<circle id="encuesta-9-cs" class="encuesta gesop cs" cx="590.8718" cy="179.798" r="2.8284" ></circle>
<circle id="encuesta-9-pp" class="encuesta gesop pp" cx="590.8718" cy="286.4646" r="2.8284" ></circle>
<circle id="encuesta-9-otros" class="encuesta gesop otros" cx="590.8718" cy="317.9798" r="2.8284" ></circle>
</g>
<g id="encuesta-10">
<circle id="encuesta-10-cup" class="encuesta sociometrica cup" cx="581.9145" cy="284.8485" r="2.8284" ></circle>
<circle id="encuesta-10-erc" class="encuesta sociometrica erc" cx="581.9145" cy="146.6667" r="2.8284" ></circle>
<circle id="encuesta-10-jxcat" class="encuesta sociometrica jxcat" cx="581.9145" cy="179.798" r="2.8284" ></circle>
<circle id="encuesta-10-cec" class="encuesta sociometrica cec" cx="581.9145" cy="281.6162" r="2.8284" ></circle>
<circle id="encuesta-10-psc" class="encuesta sociometrica psc" cx="581.9145" cy="210.5051" r="2.8284" ></circle>
<circle id="encuesta-10-cs" class="encuesta sociometrica cs" cx="581.9145" cy="167.6768" r="2.8284" ></circle>
<circle id="encuesta-10-pp" class="encuesta sociometrica pp" cx="581.9145" cy="283.2323" r="2.8284" ></circle>
<circle id="encuesta-10-otros" class="encuesta sociometrica otros" cx="581.9145" cy="304.2424" r="2.8284" ></circle>
</g>
<g id="encuesta-11">
<circle id="encuesta-11-cup" class="encuesta cis cup" cx="568.4786" cy="279.1919" r="5.4772" ></circle>
<circle id="encuesta-11-erc" class="encuesta cis erc" cx="568.4786" cy="165.2525" r="5.4772" ></circle>
<circle id="encuesta-11-jxcat" class="encuesta cis jxcat" cx="568.4786" cy="196.7677" r="5.4772" ></circle>
<circle id="encuesta-11-cec" class="encuesta cis cec" cx="568.4786" cy="263.8384" r="5.4772" ></circle>
<circle id="encuesta-11-psc" class="encuesta cis psc" cx="568.4786" cy="204.0404" r="5.4772" ></circle>
<circle id="encuesta-11-cs" class="encuesta cis cs" cx="568.4786" cy="151.5152" r="5.4772" ></circle>
<circle id="encuesta-11-pp" class="encuesta cis pp" cx="568.4786" cy="286.4646" r="5.4772" ></circle>
<circle id="encuesta-11-otros" class="encuesta cis otros" cx="568.4786" cy="311.5152" r="5.4772" ></circle>
</g>
<g id="encuesta-12">
<circle id="encuesta-12-cup" class="encuesta nc_report cup" cx="550.5641" cy="287.2727" r="3.1623" ></circle>
<circle id="encuesta-12-erc" class="encuesta nc_report erc" cx="550.5641" cy="138.5859" r="3.1623" ></circle>
<circle id="encuesta-12-jxcat" class="encuesta nc_report jxcat" cx="550.5641" cy="223.4343" r="3.1623" ></circle>
<circle id="encuesta-12-cec" class="encuesta nc_report cec" cx="550.5641" cy="265.4545" r="3.1623" ></circle>
<circle id="encuesta-12-psc" class="encuesta nc_report psc" cx="550.5641" cy="214.5455" r="3.1623" ></circle>
<circle id="encuesta-12-cs" class="encuesta nc_report cs" cx="550.5641" cy="164.4444" r="3.1623" ></circle>
<circle id="encuesta-12-pp" class="encuesta nc_report pp" cx="550.5641" cy="258.1818" r="3.1623" ></circle>
<circle id="encuesta-12-otros" class="encuesta nc_report otros" cx="550.5641" cy="306.6667" r="3.1623" ></circle>
</g>
<g id="encuesta-13">
<circle id="encuesta-13-cup" class="encuesta metroscopica cup" cx="546.0855" cy="285.6566" r="4.2426" ></circle>
<circle id="encuesta-13-erc" class="encuesta metroscopica erc" cx="546.0855" cy="119.1919" r="4.2426" ></circle>
<circle id="encuesta-13-jxcat" class="encuesta metroscopica jxcat" cx="546.0855" cy="223.4343" r="4.2426" ></circle>
<circle id="encuesta-13-cec" class="encuesta metroscopica cec" cx="546.0855" cy="279.1919" r="4.2426" ></circle>
<circle id="encuesta-13-psc" class="encuesta metroscopica psc" cx="546.0855" cy="212.9293" r="4.2426" ></circle>
<circle id="encuesta-13-cs" class="encuesta metroscopica cs" cx="546.0855" cy="128.8889" r="4.2426" ></circle>
<circle id="encuesta-13-pp" class="encuesta metroscopica pp" cx="546.0855" cy="286.4646" r="4.2426" ></circle>
<circle id="encuesta-13-otros" class="encuesta metroscopica otros" cx="546.0855" cy="322.8283" r="4.2426" ></circle>
</g>
<g id="encuesta-14">
<circle id="encuesta-14-cup" class="encuesta gesop cup" cx="528.1709" cy="282.4242" r="2.8284" ></circle>
<circle id="encuesta-14-erc" class="encuesta gesop erc" cx="528.1709" cy="140.202" r="2.8284" ></circle>
<circle id="encuesta-14-jxcat" class="encuesta gesop jxcat" cx="528.1709" cy="200" r="2.8284" ></circle>
<circle id="encuesta-14-cec" class="encuesta gesop cec" cx="528.1709" cy="263.8384" r="2.8284" ></circle>
<circle id="encuesta-14-psc" class="encuesta gesop psc" cx="528.1709" cy="187.0707" r="2.8284" ></circle>
<circle id="encuesta-14-cs" class="encuesta gesop cs" cx="528.1709" cy="183.0303" r="2.8284" ></circle>
<circle id="encuesta-14-pp" class="encuesta gesop pp" cx="528.1709" cy="287.2727" r="2.8284" ></circle>
<circle id="encuesta-14-otros" class="encuesta gesop otros" cx="528.1709" cy="314.7475" r="2.8284" ></circle>
</g>
<g id="encuesta-15">
<circle id="encuesta-15-cup" class="encuesta gad3 cup" cx="519.2137" cy="288.0808" r="2.8302" ></circle>
<circle id="encuesta-15-erc" class="encuesta gad3 erc" cx="519.2137" cy="146.6667" r="2.8302" ></circle>
<circle id="encuesta-15-jxcat" class="encuesta gad3 jxcat" cx="519.2137" cy="198.3838" r="2.8302" ></circle>
<circle id="encuesta-15-cec" class="encuesta gad3 cec" cx="519.2137" cy="271.9192" r="2.8302" ></circle>
<circle id="encuesta-15-psc" class="encuesta gad3 psc" cx="519.2137" cy="211.3131" r="2.8302" ></circle>
<circle id="encuesta-15-cs" class="encuesta gad3 cs" cx="519.2137" cy="153.1313" r="2.8302" ></circle>
<circle id="encuesta-15-pp" class="encuesta gad3 pp" cx="519.2137" cy="270.303" r="2.8302" ></circle>
<circle id="encuesta-15-otros" class="encuesta gad3 otros" cx="519.2137" cy="318.7879" r="2.8302" ></circle>
</g>
<g id="encuesta-16">
<circle id="encuesta-16-cup" class="encuesta nc_report cup" cx="460.9915" cy="282.4242" r="3.1623" ></circle>
<circle id="encuesta-16-erc" class="encuesta nc_report erc" cx="460.9915" cy="120.8081" r="3.1623" ></circle>
<circle id="encuesta-16-jxcat" class="encuesta nc_report jxcat" cx="460.9915" cy="246.8687" r="3.1623" ></circle>
<circle id="encuesta-16-cec" class="encuesta nc_report cec" cx="460.9915" cy="249.2929" r="3.1623" ></circle>
<circle id="encuesta-16-psc" class="encuesta nc_report psc" cx="460.9915" cy="223.4343" r="3.1623" ></circle>
<circle id="encuesta-16-cs" class="encuesta nc_report cs" cx="460.9915" cy="174.9495" r="3.1623" ></circle>
<circle id="encuesta-16-pp" class="encuesta nc_report pp" cx="460.9915" cy="248.4848" r="3.1623" ></circle>
<circle id="encuesta-16-otros" class="encuesta nc_report otros" cx="460.9915" cy="312.3232" r="3.1623" ></circle>
</g>
<g id="encuesta-17">
<circle id="encuesta-17-cup" class="encuesta gad3 cup" cx="460.9915" cy="282.4242" r="3.5114" ></circle>
<circle id="encuesta-17-erc" class="encuesta gad3 erc" cx="460.9915" cy="96.5657" r="3.5114" ></circle>
<circle id="encuesta-17-jxcat" class="encuesta gad3 jxcat" cx="460.9915" cy="249.2929" r="3.5114" ></circle>
<circle id="encuesta-17-cec" class="encuesta gad3 cec" cx="460.9915" cy="266.2626" r="3.5114" ></circle>
<circle id="encuesta-17-psc" class="encuesta gad3 psc" cx="460.9915" cy="215.3535" r="3.5114" ></circle>
<circle id="encuesta-17-cs" class="encuesta gad3 cs" cx="460.9915" cy="166.8687" r="3.5114" ></circle>
<circle id="encuesta-17-pp" class="encuesta gad3 pp" cx="460.9915" cy="263.0303" r="3.5114" ></circle>
<circle id="encuesta-17-otros" class="encuesta gad3 otros" cx="460.9915" cy="318.7879" r="3.5114" ></circle>
</g>
<g id="encuesta-18">
<circle id="encuesta-18-cup" class="encuesta sociometrica cup" cx="447.5556" cy="287.2727" r="3.1623" ></circle>
<circle id="encuesta-18-erc" class="encuesta sociometrica erc" cx="447.5556" cy="81.2121" r="3.1623" ></circle>
<circle id="encuesta-18-jxcat" class="encuesta sociometrica jxcat" cx="447.5556" cy="251.7172" r="3.1623" ></circle>
<circle id="encuesta-18-cec" class="encuesta sociometrica cec" cx="447.5556" cy="252.5253" r="3.1623" ></circle>
<circle id="encuesta-18-psc" class="encuesta sociometrica psc" cx="447.5556" cy="234.7475" r="3.1623" ></circle>
<circle id="encuesta-18-cs" class="encuesta sociometrica cs" cx="447.5556" cy="185.4545" r="3.1623" ></circle>
<circle id="encuesta-18-pp" class="encuesta sociometrica pp" cx="447.5556" cy="260.6061" r="3.1623" ></circle>
<circle id="encuesta-18-otros" class="encuesta sociometrica otros" cx="447.5556" cy="305.0505" r="3.1623" ></circle>
</g>
<g id="encuesta-19">
<circle id="encuesta-19-cup" class="encuesta sigmados cup" cx="425.1624" cy="282.4242" r="3.1623" ></circle>
<circle id="encuesta-19-erc" class="encuesta sigmados erc" cx="425.1624" cy="120" r="3.1623" ></circle>
<circle id="encuesta-19-jxcat" class="encuesta sigmados jxcat" cx="425.1624" cy="254.1414" r="3.1623" ></circle>
<circle id="encuesta-19-cec" class="encuesta sigmados cec" cx="425.1624" cy="244.4444" r="3.1623" ></circle>
<circle id="encuesta-19-psc" class="encuesta sigmados psc" cx="425.1624" cy="211.3131" r="3.1623" ></circle>
<circle id="encuesta-19-cs" class="encuesta sigmados cs" cx="425.1624" cy="174.9495" r="3.1623" ></circle>
<circle id="encuesta-19-pp" class="encuesta sigmados pp" cx="425.1624" cy="263.0303" r="3.1623" ></circle>
<circle id="encuesta-19-otros" class="encuesta sigmados otros" cx="425.1624" cy="308.2828" r="3.1623" ></circle>
</g>
<g id="encuesta-20">
<circle id="encuesta-20-cup" class="encuesta nc_report cup" cx="402.7692" cy="288.0808" r="3.1623" ></circle>
<circle id="encuesta-20-erc" class="encuesta nc_report erc" cx="402.7692" cy="134.5455" r="3.1623" ></circle>
<circle id="encuesta-20-jxcat" class="encuesta nc_report jxcat" cx="402.7692" cy="235.5556" r="3.1623" ></circle>
<circle id="encuesta-20-cec" class="encuesta nc_report cec" cx="402.7692" cy="241.2121" r="3.1623" ></circle>
<circle id="encuesta-20-psc" class="encuesta nc_report psc" cx="402.7692" cy="227.4747" r="3.1623" ></circle>
<circle id="encuesta-20-cs" class="encuesta nc_report cs" cx="402.7692" cy="178.1818" r="3.1623" ></circle>
<circle id="encuesta-20-pp" class="encuesta nc_report pp" cx="402.7692" cy="248.4848" r="3.1623" ></circle>
<circle id="encuesta-20-otros" class="encuesta nc_report otros" cx="402.7692" cy="305.0505" r="3.1623" ></circle>
</g>
<g id="encuesta-21">
<circle id="encuesta-21-cup" class="encuesta gesop cup" cx="393.812" cy="270.303" r="2.8284" ></circle>
<circle id="encuesta-21-erc" class="encuesta gesop erc" cx="393.812" cy="106.2626" r="2.8284" ></circle>
<circle id="encuesta-21-jxcat" class="encuesta gesop jxcat" cx="393.812" cy="236.3636" r="2.8284" ></circle>
<circle id="encuesta-21-cec" class="encuesta gesop cec" cx="393.812" cy="260.6061" r="2.8284" ></circle>
<circle id="encuesta-21-psc" class="encuesta gesop psc" cx="393.812" cy="216.1616" r="2.8284" ></circle>
<circle id="encuesta-21-cs" class="encuesta gesop cs" cx="393.812" cy="197.5758" r="2.8284" ></circle>
<circle id="encuesta-21-pp" class="encuesta gesop pp" cx="393.812" cy="272.7273" r="2.8284" ></circle>
<circle id="encuesta-21-otros" class="encuesta gesop otros" cx="393.812" cy="298.5859" r="2.8284" ></circle>
</g>
<g id="encuesta-22">
<circle id="encuesta-22-cup" class="encuesta sociometrica cup" cx="349.0256" cy="282.4242" r="2.8284" ></circle>
<circle id="encuesta-22-erc" class="encuesta sociometrica erc" cx="349.0256" cy="76.3636" r="2.8284" ></circle>
<circle id="encuesta-22-jxcat" class="encuesta sociometrica jxcat" cx="349.0256" cy="267.8788" r="2.8284" ></circle>
<circle id="encuesta-22-cec" class="encuesta sociometrica cec" cx="349.0256" cy="236.3636" r="2.8284" ></circle>
<circle id="encuesta-22-psc" class="encuesta sociometrica psc" cx="349.0256" cy="256.5657" r="2.8284" ></circle>
<circle id="encuesta-22-cs" class="encuesta sociometrica cs" cx="349.0256" cy="185.4545" r="2.8284" ></circle>
<circle id="encuesta-22-pp" class="encuesta sociometrica pp" cx="349.0256" cy="251.7172" r="2.8284" ></circle>
<circle id="encuesta-22-otros" class="encuesta sociometrica otros" cx="349.0256" cy="301.8182" r="2.8284" ></circle>
</g>
<g id="encuesta-23">
<circle id="encuesta-23-cup" class="encuesta nc_report cup" cx="272.8889" cy="288.0808" r="3.5426" ></circle>
<circle id="encuesta-23-erc" class="encuesta nc_report erc" cx="272.8889" cy="130.5051" r="3.5426" ></circle>
<circle id="encuesta-23-jxcat" class="encuesta nc_report jxcat" cx="272.8889" cy="230.7071" r="3.5426" ></circle>
<circle id="encuesta-23-cec" class="encuesta nc_report cec" cx="272.8889" cy="239.596" r="3.5426" ></circle>
<circle id="encuesta-23-psc" class="encuesta nc_report psc" cx="272.8889" cy="222.6263" r="3.5426" ></circle>
<circle id="encuesta-23-cs" class="encuesta nc_report cs" cx="272.8889" cy="194.3434" r="3.5426" ></circle>
<circle id="encuesta-23-pp" class="encuesta nc_report pp" cx="272.8889" cy="246.0606" r="3.5426" ></circle>
<circle id="encuesta-23-otros" class="encuesta nc_report otros" cx="272.8889" cy="306.6667" r="3.5426" ></circle>
</g>
<g id="encuesta-24">
<circle id="encuesta-24-cup" class="encuesta celeste-tel cup" cx="241.5385" cy="285.6566" r="2.8284" ></circle>
<circle id="encuesta-24-erc" class="encuesta celeste-tel erc" cx="241.5385" cy="133.7374" r="2.8284" ></circle>
<circle id="encuesta-24-jxcat" class="encuesta celeste-tel jxcat" cx="241.5385" cy="223.4343" r="2.8284" ></circle>
<circle id="encuesta-24-cec" class="encuesta celeste-tel cec" cx="241.5385" cy="234.7475" r="2.8284" ></circle>
<circle id="encuesta-24-psc" class="encuesta celeste-tel psc" cx="241.5385" cy="213.7374" r="2.8284" ></circle>
<circle id="encuesta-24-cs" class="encuesta celeste-tel cs" cx="241.5385" cy="192.7273" r="2.8284" ></circle>
<circle id="encuesta-24-pp" class="encuesta celeste-tel pp" cx="241.5385" cy="257.3737" r="2.8284" ></circle>
<circle id="encuesta-24-otros" class="encuesta celeste-tel otros" cx="241.5385" cy="317.1717" r="2.8284" ></circle>
</g>
<g id="encuesta-25">
<circle id="encuesta-25-cup" class="encuesta sociometrica cup" cx="178.8376" cy="278.3838" r="2.6458" ></circle>
<circle id="encuesta-25-erc" class="encuesta sociometrica erc" cx="178.8376" cy="107.0707" r="2.6458" ></circle>
<circle id="encuesta-25-jxcat" class="encuesta sociometrica jxcat" cx="178.8376" cy="230.7071" r="2.6458" ></circle>
<circle id="encuesta-25-cec" class="encuesta sociometrica cec" cx="178.8376" cy="249.2929" r="2.6458" ></circle>
<circle id="encuesta-25-psc" class="encuesta sociometrica psc" cx="178.8376" cy="251.7172" r="2.6458" ></circle>
<circle id="encuesta-25-cs" class="encuesta sociometrica cs" cx="178.8376" cy="190.303" r="2.6458" ></circle>
<circle id="encuesta-25-pp" class="encuesta sociometrica pp" cx="178.8376" cy="248.4848" r="2.6458" ></circle>
<circle id="encuesta-25-otros" class="encuesta sociometrica otros" cx="178.8376" cy="302.6263" r="2.6458" ></circle>
</g>
<g id="encuesta-26">
<circle id="encuesta-26-cup" class="encuesta nc_report cup" cx="84.7863" cy="280.8081" r="3.5426" ></circle>
<circle id="encuesta-26-erc" class="encuesta nc_report erc" cx="84.7863" cy="140.202" r="3.5426" ></circle>
<circle id="encuesta-26-jxcat" class="encuesta nc_report jxcat" cx="84.7863" cy="221.0101" r="3.5426" ></circle>
<circle id="encuesta-26-cec" class="encuesta nc_report cec" cx="84.7863" cy="235.5556" r="3.5426" ></circle>
<circle id="encuesta-26-psc" class="encuesta nc_report psc" cx="84.7863" cy="221.0101" r="3.5426" ></circle>
<circle id="encuesta-26-cs" class="encuesta nc_report cs" cx="84.7863" cy="191.9192" r="3.5426" ></circle>
<circle id="encuesta-26-pp" class="encuesta nc_report pp" cx="84.7863" cy="256.5657" r="3.5426" ></circle>
<circle id="encuesta-26-otros" class="encuesta nc_report otros" cx="84.7863" cy="311.5152" r="3.5426" ></circle>
</g>
  
<text class="pie izquierda" x="0" y="390">Datos: Electograph | Modelo propio</text>
<text class="pie derecha" x="800" y="390">Jesús Carro | <tspan style="font-weight:bold">1datomas</tspan>.com</text>
</svg>
