<?xml version="1.0" encoding="utf-8"?><!DOCTYPE svg PUBLIC "-//W3C//DTD SVG 1.1//EN" "http://www.w3.org/Graphics/SVG/1.1/DTD/svg11.dtd">
<svg xmlns="http://www.w3.org/2000/svg" xmlns:xlink="http://www.w3.org/1999/xlink" version="1.1" viewBox="0 0 800 400">

<text x="0" y="20" style="font-size:large;font-weight:bold;color:black">Intención de voto en Elecciones Autonómicas en Cataluña</text>
<text x="0" y="40" style="color:gray">Promedio de encuestas y estimación de error</text>

<text class="horizontal axis" x="36" y="333.3333">0%</text>
<line class="horizontal axis" x1="40" y1="333.3333" x2="622.2222" y2="333.3333"></line>
<text class="horizontal axis" x="36" y="252.5253">10%</text>
<line class="horizontal axis" x1="40" y1="252.5253" x2="622.2222" y2="252.5253"></line>
<text class="horizontal axis" x="36" y="171.7172">20%</text>
<line class="horizontal axis" x1="40" y1="171.7172" x2="622.2222" y2="171.7172"></line>
<text class="horizontal axis" x="36" y="90.9091">30%</text>
<line class="horizontal axis" x1="40" y1="90.9091" x2="622.2222" y2="90.9091"></line>
<line class="vertical axis" x1="40" y1="336.6667" x2="40" y2="66.6667"></line>
<text class="vertical axis" x="40" y="343.3333">Ago-2017</text>
<line class="vertical axis" x1="167.1049" y1="336.6667" x2="167.1049" y2="66.6667"></line>
<text class="vertical axis" x="167.1049" y="343.3333">Sep-2017</text>
<line class="vertical axis" x1="290.1095" y1="336.6667" x2="290.1095" y2="66.6667"></line>
<text class="vertical axis" x="290.1095" y="343.3333">Oct-2017</text>
<line class="vertical axis" x1="417.2144" y1="336.6667" x2="417.2144" y2="66.6667"></line>
<text class="vertical axis" x="417.2144" y="343.3333">Nov-2017</text>
<line class="vertical axis" x1="540.2191" y1="336.6667" x2="540.2191" y2="66.6667"></line>
<text class="vertical axis" x="540.2191" y="343.3333">Dic-2017</text>
<polyline id="media-cup"  class="cup media" points=" 40,282.0911 44.1002,282.0356 48.2003,281.9769 52.3005,281.9147 56.4006,281.8523 60.5008,281.8011 64.6009,281.7725 68.7011,281.7803 72.8013,281.8241 76.9014,281.8893 81.0016,281.9636 85.1017,282.0349 89.2019,282.0995 93.302,282.1571 97.4022,282.2076 101.5023,282.2508 105.6025,282.2867 109.7027,282.3151 113.8028,282.3359 117.903,282.349 122.0031,282.3541 126.1033,282.351 130.2034,282.3393 134.3036,282.3185 138.4038,282.288 142.5039,282.2469 146.6041,282.1943 150.7042,282.1289 154.8044,282.0784 158.9045,282.0877 163.0047,282.218 167.1049,282.4098 171.205,282.6181 175.3052,282.8148 179.4053,283.0012 183.5055,283.1785 187.6056,283.3482 191.7058,283.5114 195.8059,283.6693 199.9061,283.8232 204.0063,283.974 208.1064,284.123 212.2066,284.2711 216.3067,284.4088 220.4069,284.5033 224.507,284.5693 228.6072,284.6494 232.7074,284.7526 236.8075,284.8792 240.9077,284.9936 245.0078,285.0414 249.108,284.9483 253.2081,284.7842 257.3083,284.6019 261.4085,284.4368 265.5086,284.2869 269.6088,284.1504 273.7089,284.0256 277.8091,283.911 281.9092,283.8051 286.0094,283.7066 290.1095,283.6145 294.2097,283.5275 298.3099,283.4447 302.41,283.3653 306.5102,283.29 310.6103,283.2241 314.7105,283.1728 318.8106,283.1319 322.9108,283.0911 327.011,283.0442 331.1111,282.9897 335.2113,282.9271 339.3114,282.8554 343.4116,282.7732 347.5117,282.6788 351.6119,282.5694 355.7121,282.4869 359.8122,282.6013 363.9124,282.8453 368.0125,283.0138 372.1127,283.1195 376.2128,283.2034 380.313,283.2748 384.4131,283.3386 388.5133,283.4173 392.6135,283.5154 396.7136,283.6139 400.8138,283.6936 404.9139,283.7313 409.0141,283.6987 413.1142,283.6421 417.2144,283.602 421.3146,283.6124 425.4147,283.6492 429.5149,283.695 433.615,283.7393 437.7152,283.7824 441.8153,283.8244 445.9155,283.8658 450.0156,283.9068 454.1158,283.9479 458.216,283.9896 462.3161,284.0325 466.4163,284.0774 470.5164,284.1129 474.6166,284.0954 478.7167,284.0327 482.8169,283.9816 486.9171,283.9443 491.0172,283.9008 495.1174,283.8542 499.2175,283.7762 503.3177,283.6042 507.4178,283.3918 511.518,283.2101 515.6182,283.1123 519.7183,283.1682 523.8185,283.2845 527.9186,283.3989 532.0188,283.4704 536.1189,283.5047 540.2191,283.5061 544.3192,283.4858 548.4194,283.4665 552.5196,283.4802 556.6197,283.5352 560.7199,283.5747 564.82,283.5616 568.9202,283.5406 573.0203,283.5322 577.1205,283.5455 581.2207,283.5979 585.3208,283.6728 589.421,283.7471 593.5211,283.7843 597.6213,283.7868 601.7214,283.7757 605.8216,283.7674 609.9218,283.7611 614.0219,283.7564 618.1221,283.7529 622.2222,283.7503"></polyline>
<polyline id="error-cup" class="cup error" points=" 40,260.5725 44.1002,260.9458 48.2003,261.3323 52.3005,261.7336 56.4006,262.1349 60.5008,262.4827 64.6009,262.7214 68.7011,262.7869 72.8013,262.6896 76.9014,262.5084 81.0016,262.3052 85.1017,262.131 89.2019,261.9971 93.302,261.9005 97.4022,261.8381 101.5023,261.8069 105.6025,261.8043 109.7027,261.828 113.8028,261.8755 117.903,261.945 122.0031,262.0345 126.1033,262.1423 130.2034,262.2671 134.3036,262.4076 138.4038,262.5624 142.5039,262.7307 146.6041,262.9116 150.7042,263.1042 154.8044,263.2958 158.9045,263.4692 163.0047,263.6088 167.1049,263.749 171.205,263.9102 175.3052,264.0999 179.4053,264.3162 183.5055,264.5578 187.6056,264.8238 191.7058,265.1137 195.8059,265.4277 199.9061,265.7661 204.0063,266.13 208.1064,266.5206 212.2066,266.9399 216.3067,267.3431 220.4069,267.5634 224.507,267.6374 228.6072,267.7541 232.7074,267.953 236.8075,268.2322 240.9077,268.5048 245.0078,268.6394 249.108,268.4589 253.2081,268.1327 257.3083,267.7861 261.4085,267.4999 265.5086,267.2679 269.6088,267.0844 273.7089,266.9445 277.8091,266.8438 281.9092,266.7783 286.0094,266.7448 290.1095,266.7403 294.2097,266.7624 298.3099,266.809 302.41,266.8787 306.5102,266.9641 310.6103,267.0408 314.7105,267.0777 318.8106,267.0772 322.9108,267.0715 327.011,267.0814 331.1111,267.1097 335.2113,267.6402 339.3114,268.4809 343.4116,269.4151 347.5117,269.9355 351.6119,270.2094 355.7121,270.3172 359.8122,270.5579 363.9124,271.0247 368.0125,271.5248 372.1127,272.0559 376.2128,272.424 380.313,272.6913 384.4131,272.8655 388.5133,273.0138 392.6135,273.1471 396.7136,273.3062 400.8138,273.4708 404.9139,273.5968 409.0141,273.6336 413.1142,273.6336 417.2144,273.6188 421.3146,273.5816 425.4147,273.5437 429.5149,273.523 433.615,273.5294 437.7152,273.5609 441.8153,273.6156 445.9155,273.6918 450.0156,273.8868 454.1158,274.2689 458.216,274.7705 462.3161,275.2203 466.4163,275.5435 470.5164,275.7587 474.6166,275.8546 478.7167,275.8864 482.8169,275.9164 486.9171,275.9543 491.0172,276.0006 495.1174,276.0676 499.2175,276.0945 503.3177,275.9658 507.4178,275.8068 511.518,275.7022 515.6182,275.7211 519.7183,275.8945 523.8185,276.1599 527.9186,276.3942 532.0188,276.5615 536.1189,276.6637 540.2191,276.7384 544.3192,276.8617 548.4194,277.044 552.5196,277.2903 556.6197,277.4939 560.7199,277.6054 564.82,277.6003 568.9202,277.581 573.0203,277.5638 577.1205,277.5346 581.2207,277.4989 585.3208,277.4123 589.421,277.1954 593.5211,276.8813 597.6213,276.5322 601.7214,276.2411 605.8216,275.9981 609.9218,275.8062 614.0219,275.6182 618.1221,275.433 622.2222,275.2503 622.2222,292.2504 618.1221,292.0728 614.0219,291.8947 609.9218,291.716 605.8216,291.5367 601.7214,291.3103 597.6213,291.0413 593.5211,290.6873 589.421,290.2988 585.3208,289.9334 581.2207,289.6969 577.1205,289.5564 573.0203,289.5006 568.9202,289.5003 564.82,289.5229 560.7199,289.544 556.6197,289.5764 552.5196,289.6701 548.4194,289.8891 544.3192,290.1099 540.2191,290.2738 536.1189,290.3457 532.0188,290.3793 527.9186,290.4035 523.8185,290.409 519.7183,290.4419 515.6182,290.5036 511.518,290.7181 507.4178,290.9767 503.3177,291.2425 499.2175,291.458 495.1174,291.6409 491.0172,291.801 486.9171,291.9344 482.8169,292.0468 478.7167,292.179 474.6166,292.3361 470.5164,292.467 466.4163,292.6112 462.3161,292.8446 458.216,293.2087 454.1158,293.6269 450.0156,293.9268 445.9155,294.0398 441.8153,294.0332 437.7152,294.0038 433.615,293.9493 429.5149,293.8671 425.4147,293.7546 421.3146,293.6432 417.2144,293.5851 413.1142,293.6505 409.0141,293.7638 404.9139,293.8658 400.8138,293.9164 396.7136,293.9217 392.6135,293.8836 388.5133,293.8208 384.4131,293.8118 380.313,293.8583 376.2128,293.9829 372.1127,294.1832 368.0125,294.5027 363.9124,294.6659 359.8122,294.6448 355.7121,294.6566 351.6119,294.9295 347.5117,295.4221 343.4116,296.1314 339.3114,297.2298 335.2113,298.2139 331.1111,298.8697 327.011,299.007 322.9108,299.1107 318.8106,299.1867 314.7105,299.268 310.6103,299.4074 306.5102,299.6159 302.41,299.8518 298.3099,300.0805 294.2097,300.2927 290.1095,300.4887 286.0094,300.6685 281.9092,300.8318 277.8091,300.9781 273.7089,301.1066 269.6088,301.2163 265.5086,301.3058 261.4085,301.3736 257.3083,301.4177 253.2081,301.4358 249.108,301.4376 245.0078,301.4435 240.9077,301.4824 236.8075,301.5263 232.7074,301.5522 228.6072,301.5448 224.507,301.5012 220.4069,301.4432 216.3067,301.4744 212.2066,301.6022 208.1064,301.7254 204.0063,301.8181 199.9061,301.8802 195.8059,301.911 191.7058,301.9091 187.6056,301.8727 183.5055,301.7993 179.4053,301.6861 175.3052,301.5297 171.205,301.326 167.1049,301.0706 163.0047,300.8273 158.9045,300.7063 154.8044,300.8611 150.7042,301.1536 146.6041,301.4771 142.5039,301.7631 138.4038,302.0136 134.3036,302.2295 130.2034,302.4115 126.1033,302.5597 122.0031,302.6738 117.903,302.753 113.8028,302.7963 109.7027,302.8022 105.6025,302.7691 101.5023,302.6948 97.4022,302.5772 93.302,302.4138 89.2019,302.2019 85.1017,301.9389 81.0016,301.622 76.9014,301.2702 72.8013,300.9586 68.7011,300.7737 64.6009,300.8237 60.5008,301.1196 56.4006,301.5697 52.3005,302.0958 48.2003,302.6215 44.1002,303.1255 40,303.6096"></polyline>
<text class = "party cup" x="631.1111" y="279"><tspan class="party_name">CUP</tspan><tspan class="party_result"> (6.1±1.1%)</tspan></text>
<polyline id="media-erc"  class="erc media" points=" 40,136.1479 44.1002,136.2281 48.2003,136.3232 52.3005,136.4351 56.4006,136.5534 60.5008,136.6377 64.6009,136.6431 68.7011,136.5106 72.8013,136.2289 76.9014,135.8429 81.0016,135.3937 85.1017,134.9265 89.2019,134.4556 93.302,133.9814 97.4022,133.5035 101.5023,133.0215 105.6025,132.5343 109.7027,132.0407 113.8028,131.5392 117.903,131.0279 122.0031,130.5046 126.1033,129.9669 130.2034,129.4117 134.3036,128.836 138.4038,128.2358 142.5039,127.6068 146.6041,126.9442 150.7042,126.2419 154.8044,125.6403 158.9045,125.3544 163.0047,125.6638 167.1049,126.2526 171.205,126.8947 175.3052,127.4564 179.4053,127.9464 183.5055,128.3729 187.6056,128.7432 191.7058,129.0645 195.8059,129.3434 199.9061,129.5861 204.0063,129.7988 208.1064,129.9874 212.2066,130.1583 216.3067,130.2892 220.4069,130.2792 224.507,130.1395 228.6072,129.982 232.7074,129.8334 236.8075,129.6944 240.9077,129.5558 245.0078,129.3949 249.108,129.167 253.2081,128.8777 257.3083,128.5388 261.4085,128.1646 265.5086,127.7531 269.6088,127.3019 273.7089,126.8082 277.8091,126.2685 281.9092,125.6787 286.0094,125.0339 290.1095,124.3278 294.2097,123.5533 298.3099,122.7012 302.41,121.7605 306.5102,120.8082 310.6103,120.1711 314.7105,120.2713 318.8106,121.0595 322.9108,122.0592 327.011,122.9472 331.1111,123.6597 335.2113,124.2146 339.3114,124.6265 343.4116,124.9072 347.5117,125.0661 351.6119,125.11 355.7121,125.112 359.8122,125.3421 363.9124,125.6961 368.0125,125.852 372.1127,125.8282 376.2128,125.6858 380.313,125.4356 384.4131,125.1016 388.5133,124.7788 392.6135,124.4265 396.7136,123.9133 400.8138,123.3801 404.9139,123.1005 409.0141,123.4035 413.1142,124.0017 417.2144,124.876 421.3146,126.3108 425.4147,128.0533 429.5149,129.8612 433.615,131.5498 437.7152,133.118 441.8153,134.5666 445.9155,135.8975 450.0156,137.1133 454.1158,138.2173 458.216,139.2128 462.3161,140.1033 466.4163,140.892 470.5164,141.568 474.6166,142.0913 478.7167,142.4946 482.8169,142.8589 486.9171,143.1903 491.0172,143.4432 495.1174,143.5634 499.2175,143.9631 503.3177,145.429 507.4178,147.1793 511.518,148.6334 515.6182,149.6247 519.7183,149.937 523.8185,149.9859 527.9186,150.0151 532.0188,150.1557 536.1189,150.3465 540.2191,150.4381 544.3192,150.446 548.4194,150.4963 552.5196,150.642 556.6197,150.8322 560.7199,150.9897 564.82,151.1042 568.9202,151.2438 573.0203,151.441 577.1205,151.7162 581.2207,152.0444 585.3208,152.4555 589.421,152.8938 593.5211,152.9254 597.6213,152.7589 601.7214,152.554 605.8216,152.3635 609.9218,152.1854 614.0219,152.018 618.1221,151.8601 622.2222,151.7105"></polyline>
<polyline id="error-erc" class="erc error" points=" 40,94.7005 44.1002,95.3358 48.2003,96.0109 52.3005,96.7304 56.4006,97.4605 60.5008,98.0737 64.6009,98.4339 68.7011,98.3748 72.8013,97.8982 76.9014,97.1754 81.0016,96.3476 85.1017,95.5445 89.2019,94.8006 93.302,94.1116 97.4022,93.4735 101.5023,92.8819 105.6025,92.3324 109.7027,91.8207 113.8028,91.3424 117.903,90.8935 122.0031,90.4696 126.1033,90.0667 130.2034,89.6806 134.3036,89.3072 138.4038,88.9423 142.5039,88.5816 146.6041,88.2207 150.7042,87.8548 154.8044,87.5706 158.9045,87.5 163.0047,87.8184 167.1049,88.3349 171.205,88.9105 175.3052,89.4592 179.4053,89.9853 183.5055,90.4935 187.6056,90.9887 191.7058,91.4758 195.8059,91.9602 199.9061,92.4477 204.0063,92.9445 208.1064,93.4578 212.2066,93.9956 216.3067,94.4877 220.4069,94.6466 224.507,94.5117 228.6072,94.3977 232.7074,94.3743 236.8075,94.4392 240.9077,94.5143 245.0078,94.4704 249.108,94.1217 253.2081,93.61 257.3083,93.047 261.4085,92.5082 265.5086,91.9853 269.6088,91.4704 273.7089,90.956 277.8091,90.4347 281.9092,89.8991 286.0094,89.3413 290.1095,88.7532 294.2097,88.1257 298.3099,87.4486 302.41,86.7101 306.5102,85.977 310.6103,85.5382 314.7105,85.7684 318.8106,86.6269 322.9108,87.6923 327.011,88.6756 331.1111,89.5187 335.2113,91.4696 339.3114,94.0609 343.4116,96.7609 347.5117,98.2997 351.6119,99.1156 355.7121,99.3985 359.8122,99.8095 363.9124,100.6727 368.0125,101.6482 372.1127,102.6703 376.2128,103.1821 380.313,103.3246 384.4131,103.1465 388.5133,102.9196 392.6135,102.6109 396.7136,102.1774 400.8138,101.7615 404.9139,101.6094 409.0141,102.0211 413.1142,102.7131 417.2144,103.636 421.3146,105.0135 425.4147,106.6608 429.5149,108.3867 433.615,110.0353 437.7152,111.6018 441.8153,113.0832 445.9155,114.4784 450.0156,116.0375 454.1158,117.9373 458.216,120.0102 462.3161,121.8253 466.4163,123.1952 470.5164,124.1943 474.6166,124.893 478.7167,125.4443 482.8169,125.9358 486.9171,126.3848 491.0172,126.777 495.1174,127.0714 499.2175,127.6364 503.3177,129.188 507.4178,131.0427 511.518,132.6328 515.6182,133.86 519.7183,134.441 523.8185,134.8369 527.9186,135.1212 532.0188,135.4426 536.1189,135.737 540.2191,135.9409 544.3192,136.2389 548.4194,136.7279 552.5196,137.402 556.6197,137.9216 560.7199,138.2371 564.82,138.365 568.9202,138.5089 573.0203,138.6945 577.1205,138.8826 581.2207,139.0029 585.3208,139.0328 589.421,138.8422 593.5211,138.1593 597.6213,137.2952 601.7214,136.5768 605.8216,135.9859 609.9218,135.5304 614.0219,135.0904 618.1221,134.6638 622.2222,134.249 622.2222,169.172 618.1221,169.0564 614.0219,168.9456 609.9218,168.8403 605.8216,168.7411 601.7214,168.5313 597.6213,168.2226 593.5211,167.6914 589.421,166.9453 585.3208,165.8781 581.2207,165.0859 577.1205,164.5498 573.0203,164.1875 568.9202,163.9787 564.82,163.8433 560.7199,163.7424 556.6197,163.7429 552.5196,163.8821 548.4194,164.2647 544.3192,164.6532 540.2191,164.9353 536.1189,164.956 532.0188,164.8687 527.9186,164.909 523.8185,165.1349 519.7183,165.433 515.6182,165.3895 511.518,164.634 507.4178,163.3158 503.3177,161.67 499.2175,160.2899 495.1174,160.0555 491.0172,160.1094 486.9171,159.9958 482.8169,159.782 478.7167,159.5449 474.6166,159.2897 470.5164,158.9417 466.4163,158.5887 462.3161,158.3814 458.216,158.4154 454.1158,158.4973 450.0156,158.1891 445.9155,157.3166 441.8153,156.0501 437.7152,154.6343 433.615,153.0642 429.5149,151.3357 425.4147,149.4457 421.3146,147.6081 417.2144,146.116 413.1142,145.2903 409.0141,144.7858 404.9139,144.5916 400.8138,144.9986 396.7136,145.6491 392.6135,146.242 388.5133,146.638 384.4131,147.0566 380.313,147.5466 376.2128,148.1896 372.1127,148.986 368.0125,150.0559 363.9124,150.7195 359.8122,150.8747 355.7121,150.8255 351.6119,151.1043 347.5117,151.8325 343.4116,153.0536 339.3114,155.1921 335.2113,156.9596 331.1111,157.8007 327.011,157.2187 322.9108,156.4262 318.8106,155.492 314.7105,154.7742 310.6103,154.804 306.5102,155.6393 302.41,156.8109 298.3099,157.9538 294.2097,158.9809 290.1095,159.9024 286.0094,160.7264 281.9092,161.4584 277.8091,162.1023 273.7089,162.6604 269.6088,163.1335 265.5086,163.5209 261.4085,163.821 257.3083,164.0307 253.2081,164.1455 249.108,164.2122 245.0078,164.3193 240.9077,164.5974 236.8075,164.9496 232.7074,165.2925 228.6072,165.5662 224.507,165.7672 220.4069,165.9118 216.3067,166.0908 212.2066,166.321 208.1064,166.517 204.0063,166.653 199.9061,166.7245 195.8059,166.7266 191.7058,166.6533 187.6056,166.4978 183.5055,166.2522 179.4053,165.9075 175.3052,165.4536 171.205,164.8788 167.1049,164.1704 163.0047,163.5092 158.9045,163.2088 154.8044,163.71 150.7042,164.629 146.6041,165.6676 142.5039,166.632 138.4038,167.5292 134.3036,168.3647 130.2034,169.1428 126.1033,169.867 122.0031,170.5396 117.903,171.1623 113.8028,171.736 109.7027,172.2608 105.6025,172.7362 101.5023,173.1611 97.4022,173.5336 93.302,173.8512 89.2019,174.1107 85.1017,174.3084 81.0016,174.4398 76.9014,174.5104 72.8013,174.5596 68.7011,174.6464 64.6009,174.8523 60.5008,175.2017 56.4006,175.6463 52.3005,176.1398 48.2003,176.6356 44.1002,177.1204 40,177.5952"></polyline>
<text class = "party erc" x="631.1111" y="161"><tspan class="party_name">ERC</tspan><tspan class="party_result"> (22.5±2.2%)</tspan></text>
<polyline id="media-jxcat"  class="jxcat media" points=" 40,216.9217 44.1002,217.1659 48.2003,217.4161 52.3005,217.672 56.4006,217.923 60.5008,218.1359 64.6009,218.2805 68.7011,218.323 72.8013,218.2718 76.9014,218.1731 81.0016,218.0636 85.1017,217.9762 89.2019,217.9201 93.302,217.8953 97.4022,217.9017 101.5023,217.9387 105.6025,218.0061 109.7027,218.1032 113.8028,218.2298 117.903,218.3853 122.0031,218.5698 126.1033,218.783 130.2034,219.025 134.3036,219.2963 138.4038,219.5974 142.5039,219.9291 146.6041,220.2925 150.7042,220.6892 154.8044,221.0444 158.9045,221.2462 163.0047,221.1533 167.1049,220.9339 171.205,220.7071 175.3052,220.542 179.4053,220.4347 183.5055,220.3813 187.6056,220.3783 191.7058,220.4225 195.8059,220.511 199.9061,220.6408 204.0063,220.8094 208.1064,221.014 212.2066,221.2517 216.3067,221.5035 220.4069,221.7171 224.507,221.9213 228.6072,222.1847 232.7074,222.5202 236.8075,222.9276 240.9077,223.3182 245.0078,223.5648 249.108,223.5049 253.2081,223.3203 257.3083,223.1424 261.4085,223.0551 265.5086,223.0558 269.6088,223.1426 273.7089,223.3142 277.8091,223.5701 281.9092,223.9107 286.0094,224.3373 290.1095,224.8526 294.2097,225.4606 298.3099,226.167 302.41,226.9797 306.5102,227.8271 310.6103,228.4127 314.7105,228.3555 318.8106,227.7015 322.9108,226.882 327.011,226.1894 331.1111,225.6816 335.2113,225.3434 339.3114,225.1624 343.4116,225.1286 347.5117,225.2343 351.6119,225.4739 355.7121,225.7762 359.8122,225.8929 363.9124,225.7664 368.0125,225.5971 372.1127,225.5362 376.2128,225.6666 380.313,226.0185 384.4131,226.4551 388.5133,226.3974 392.6135,225.8948 396.7136,225.5622 400.8138,225.4265 404.9139,225.2966 409.0141,224.9493 413.1142,224.4454 417.2144,223.597 421.3146,221.9289 425.4147,219.8168 429.5149,217.6003 433.615,215.5306 437.7152,213.6108 441.8153,211.8413 445.9155,210.2212 450.0156,208.7479 454.1158,207.4183 458.216,206.2286 462.3161,205.175 466.4163,204.2537 470.5164,203.4676 474.6166,202.8429 478.7167,202.3424 482.8169,201.9178 486.9171,201.5448 491.0172,201.2115 495.1174,200.9959 499.2175,200.5523 503.3177,199.1842 507.4178,197.6549 511.518,196.379 515.6182,195.2857 519.7183,194.2424 523.8185,193.2074 527.9186,192.225 532.0188,191.4128 536.1189,190.7804 540.2191,190.3358 544.3192,190.0628 548.4194,189.9055 552.5196,189.8579 556.6197,189.9664 560.7199,190.1871 564.82,190.4443 568.9202,190.604 573.0203,190.5174 577.1205,190.1635 581.2207,189.6392 585.3208,189.0241 589.421,188.5267 593.5211,188.4693 597.6213,188.5861 601.7214,188.7338 605.8216,188.8744 609.9218,189.0091 614.0219,189.139 618.1221,189.2648 622.2222,189.3871"></polyline>
<polyline id="error-jxcat" class="jxcat error" points=" 40,176.4944 44.1002,177.2473 48.2003,178.0271 52.3005,178.8357 56.4006,179.6412 60.5008,180.3322 64.6009,180.7975 68.7011,180.909 72.8013,180.6874 76.9014,180.2919 81.0016,179.8487 85.1017,179.4665 89.2019,179.1725 93.302,178.9632 97.4022,178.8349 101.5023,178.7838 105.6025,178.8065 109.7027,178.8997 113.8028,179.0605 117.903,179.2864 122.0031,179.5752 126.1033,179.9253 130.2034,180.3357 134.3036,180.8058 138.4038,181.3356 142.5039,181.9258 146.6041,182.5779 150.7042,183.2941 154.8044,183.9481 158.9045,184.3488 163.0047,184.2562 167.1049,183.9578 171.205,183.6559 175.3052,183.4657 179.4053,183.3792 183.5055,183.3893 187.6056,183.4901 191.7058,183.6763 195.8059,183.9434 199.9061,184.288 204.0063,184.707 208.1064,185.1982 212.2066,185.7601 216.3067,186.3309 220.4069,186.6972 224.507,186.9132 228.6072,187.2237 232.7074,187.6787 236.8075,188.275 240.9077,188.8618 245.0078,189.2178 249.108,189.0553 253.2081,188.6781 257.3083,188.3068 261.4085,188.08 265.5086,187.9901 269.6088,188.0304 273.7089,188.1956 277.8091,188.4816 281.9092,188.886 286.0094,189.4078 290.1095,190.0474 294.2097,190.8075 298.3099,191.6927 302.41,192.7102 306.5102,193.7765 310.6103,194.5515 314.7105,194.6006 318.8106,193.9796 322.9108,193.1827 327.011,192.5427 331.1111,192.1242 335.2113,193.2096 339.3114,195.2777 343.4116,197.745 347.5117,199.2539 351.6119,200.2533 355.7121,200.798 359.8122,201.0666 363.9124,201.4587 368.0125,202.1459 372.1127,203.1807 376.2128,203.9884 380.313,204.7364 384.4131,205.3154 388.5133,205.3391 392.6135,204.8655 396.7136,204.5968 400.8138,204.5604 404.9139,204.5361 409.0141,204.2697 413.1142,203.8288 417.2144,202.9971 421.3146,201.2368 425.4147,198.9887 429.5149,196.6435 433.615,194.4844 437.7152,192.5118 441.8153,190.7238 445.9155,189.1171 450.0156,187.9508 454.1158,187.4055 458.216,187.2974 462.3161,187.1646 466.4163,186.8025 470.5164,186.3056 474.6166,185.8232 478.7167,185.444 482.8169,185.1238 486.9171,184.848 491.0172,184.6328 495.1174,184.5696 499.2175,184.2653 503.3177,182.9443 507.4178,181.4756 511.518,180.2956 515.6182,179.4131 519.7183,178.6321 523.8185,177.9456 527.9186,177.2123 532.0188,176.569 536.1189,176.0238 540.2191,175.6778 544.3192,175.6932 548.4194,175.9825 552.5196,176.4784 556.6197,176.9248 560.7199,177.3085 564.82,177.5799 568.9202,177.7441 573.0203,177.6446 577.1205,177.1969 581.2207,176.4485 585.3208,175.4273 589.421,174.2782 593.5211,173.4983 597.6213,172.9166 601.7214,172.5609 605.8216,172.3164 609.9218,172.1952 614.0219,172.0735 618.1221,171.9513 622.2222,171.8287 622.2222,206.9455 618.1221,206.5784 614.0219,206.2046 609.9218,205.823 605.8216,205.4323 601.7214,204.9068 597.6213,204.2556 593.5211,203.4403 589.421,202.7753 585.3208,202.6209 581.2207,202.83 577.1205,203.1302 573.0203,203.3903 568.9202,203.4638 564.82,203.3087 560.7199,203.0657 556.6197,203.0079 552.5196,203.2373 548.4194,203.8286 544.3192,204.4323 540.2191,204.9939 536.1189,205.5369 532.0188,206.2567 527.9186,207.2376 523.8185,208.4691 519.7183,209.8528 515.6182,211.1584 511.518,212.4625 507.4178,213.8342 503.3177,215.424 499.2175,216.8394 495.1174,217.4221 491.0172,217.7902 486.9171,218.2415 482.8169,218.7117 478.7167,219.2409 474.6166,219.8627 470.5164,220.6296 466.4163,221.7049 462.3161,223.1853 458.216,225.1597 454.1158,227.431 450.0156,229.545 445.9155,231.3252 441.8153,232.9588 437.7152,234.7097 433.615,236.5768 429.5149,238.5571 425.4147,240.645 421.3146,242.621 417.2144,244.1968 413.1142,245.062 409.0141,245.6289 404.9139,246.057 400.8138,246.2925 396.7136,246.5276 392.6135,246.9242 388.5133,247.4557 384.4131,247.5948 380.313,247.3006 376.2128,247.3447 372.1127,247.8917 368.0125,249.0483 363.9124,250.0742 359.8122,250.7193 355.7121,250.7544 351.6119,250.6946 347.5117,251.2148 343.4116,252.5122 339.3114,255.0471 335.2113,257.4773 331.1111,259.2391 327.011,259.8361 322.9108,260.5812 318.8106,261.4233 314.7105,262.1103 310.6103,262.2738 306.5102,261.8777 302.41,261.2493 298.3099,260.6414 294.2097,260.1137 290.1095,259.6578 286.0094,259.2669 281.9092,258.9354 277.8091,258.6586 273.7089,258.4329 269.6088,258.2548 265.5086,258.1214 261.4085,258.0301 257.3083,257.9781 253.2081,257.9625 249.108,257.9545 245.0078,257.9119 240.9077,257.7745 236.8075,257.5802 232.7074,257.3618 228.6072,257.1457 224.507,256.9295 220.4069,256.737 216.3067,256.676 212.2066,256.7434 208.1064,256.8297 204.0063,256.9117 199.9061,256.9936 195.8059,257.0785 191.7058,257.1688 187.6056,257.2665 183.5055,257.3733 179.4053,257.4902 175.3052,257.6183 171.205,257.7582 167.1049,257.9099 163.0047,258.0504 158.9045,258.1436 154.8044,258.1407 150.7042,258.0842 146.6041,258.0071 142.5039,257.9324 138.4038,257.8592 134.3036,257.7869 130.2034,257.7144 126.1033,257.6406 122.0031,257.5644 117.903,257.4843 113.8028,257.399 109.7027,257.3067 105.6025,257.2056 101.5023,257.0936 97.4022,256.9684 93.302,256.8274 89.2019,256.6677 85.1017,256.4859 81.0016,256.2786 76.9014,256.0543 72.8013,255.8563 68.7011,255.7371 64.6009,255.7635 60.5008,255.9397 56.4006,256.2048 52.3005,256.5082 48.2003,256.805 44.1002,257.0845 40,257.3491"></polyline>
<text class = "party jxcat" x="631.1111" y="189"><tspan class="party_name">JxCAT</tspan><tspan class="party_result"> (17.8±2.2%)</tspan></text>
<polyline id="media-cec"  class="cec media" points=" 40,246.9746 44.1002,246.4846 48.2003,245.9663 52.3005,245.4179 56.4006,244.869 60.5008,244.4211 64.6009,244.1761 68.7011,244.2581 72.8013,244.6659 76.9014,245.2709 81.0016,245.9644 85.1017,246.6394 89.2019,247.2636 93.302,247.8361 97.4022,248.357 101.5023,248.8269 105.6025,249.247 109.7027,249.6187 113.8028,249.9437 117.903,250.2239 122.0031,250.461 126.1033,250.6568 130.2034,250.8132 134.3036,250.9319 138.4038,251.0144 142.5039,251.0624 146.6041,251.0774 150.7042,251.0608 154.8044,251.0279 158.9045,251.001 163.0047,251.0065 167.1049,251.0122 171.205,250.9933 175.3052,250.935 179.4053,250.8353 183.5055,250.6926 187.6056,250.5047 191.7058,250.2694 195.8059,249.984 199.9061,249.6452 204.0063,249.2494 208.1064,248.7917 212.2066,248.2667 216.3067,247.776 220.4069,247.7143 224.507,248.0338 228.6072,248.3067 232.7074,248.4345 236.8075,248.4207 240.9077,248.3715 245.0078,248.4572 249.108,248.9194 253.2081,249.571 257.3083,250.2583 261.4085,250.87 265.5086,251.4072 269.6088,251.8715 273.7089,252.2648 277.8091,252.5889 281.9092,252.8452 286.0094,253.0348 290.1095,253.1582 294.2097,253.2152 298.3099,253.2048 302.41,253.1247 306.5102,253.0056 310.6103,252.9741 314.7105,253.1988 318.8106,253.6709 322.9108,254.212 327.011,254.6965 331.1111,255.0977 335.2113,255.4209 339.3114,255.6705 343.4116,255.8503 347.5117,255.963 351.6119,256.0111 355.7121,256.0036 359.8122,255.9652 363.9124,256.0406 368.0125,256.3032 372.1127,256.6146 376.2128,256.8586 380.313,257.0014 384.4131,257.104 388.5133,257.4406 392.6135,258.0111 396.7136,258.538 400.8138,258.984 404.9139,259.4057 409.0141,259.8793 413.1142,260.3595 417.2144,260.8351 421.3146,261.3499 425.4147,261.9057 429.5149,262.4803 433.615,263.045 437.7152,263.594 441.8153,264.1232 445.9155,264.6297 450.0156,265.1116 454.1158,265.5682 458.216,265.9993 462.3161,266.4052 466.4163,266.7869 470.5164,267.1331 474.6166,267.4008 478.7167,267.6199 482.8169,267.8891 486.9171,268.2279 491.0172,268.607 495.1174,269.0246 499.2175,269.3031 503.3177,269.15 507.4178,268.8943 511.518,268.7302 515.6182,268.6993 519.7183,268.8822 523.8185,269.1632 527.9186,269.4443 532.0188,269.6012 536.1189,269.6571 540.2191,269.7271 544.3192,269.8243 548.4194,269.9167 552.5196,270.0055 556.6197,270.0117 560.7199,269.9626 564.82,269.9127 568.9202,269.9472 573.0203,270.126 577.1205,270.4675 581.2207,270.9459 585.3208,271.3855 589.421,271.4405 593.5211,271.3001 597.6213,271.1541 601.7214,271.0123 605.8216,270.8859 609.9218,270.7716 614.0219,270.6671 618.1221,270.5705 622.2222,270.4805"></polyline>
<polyline id="error-cec" class="cec error" points=" 40,218.9889 44.1002,218.9489 48.2003,218.8998 52.3005,218.8419 56.4006,218.7863 60.5008,218.7658 64.6009,218.8101 68.7011,218.9591 72.8013,219.2231 76.9014,219.5748 81.0016,219.9846 85.1017,220.4122 89.2019,220.8403 93.302,221.2643 97.4022,221.6807 101.5023,222.0869 105.6025,222.4811 109.7027,222.8621 113.8028,223.2293 117.903,223.5823 122.0031,223.9214 126.1033,224.2469 130.2034,224.5595 134.3036,224.8603 138.4038,225.1505 142.5039,225.4316 146.6041,225.7054 150.7042,225.9744 154.8044,226.2083 158.9045,226.36 163.0047,226.3688 167.1049,226.3075 171.205,226.2247 175.3052,226.1455 179.4053,226.0645 183.5055,225.977 187.6056,225.8787 191.7058,225.7655 195.8059,225.6334 199.9061,225.4786 204.0063,225.2973 208.1064,225.0854 212.2066,224.8386 216.3067,224.6231 220.4069,224.6967 224.507,225.0325 228.6072,225.3518 232.7074,225.587 236.8075,225.7392 240.9077,225.8623 245.0078,226.0468 249.108,226.4294 253.2081,226.9269 257.3083,227.4612 261.4085,227.966 265.5086,228.4373 269.6088,228.8722 273.7089,229.2687 277.8091,229.6253 281.9092,229.9408 286.0094,230.2139 290.1095,230.4435 294.2097,230.6279 298.3099,230.7649 302.41,230.8518 306.5102,230.9113 310.6103,231.0409 314.7105,231.3734 318.8106,231.9074 322.9108,232.5067 327.011,233.0718 331.1111,233.58 335.2113,234.7597 339.3114,236.3313 343.4116,237.9782 347.5117,238.9504 351.6119,239.504 355.7121,239.7112 359.8122,239.8079 363.9124,240.1916 368.0125,240.9446 372.1127,241.8853 376.2128,242.5354 380.313,242.9372 384.4131,243.1634 388.5133,243.5838 392.6135,244.205 396.7136,244.8098 400.8138,245.3592 404.9139,245.8889 409.0141,246.4529 413.1142,247.0103 417.2144,247.5274 421.3146,248.0023 425.4147,248.4887 429.5149,249.0034 433.615,249.54 437.7152,250.0897 441.8153,250.6455 445.9155,251.2023 450.0156,251.9032 454.1158,252.8492 458.216,253.9389 462.3161,254.9169 466.4163,255.6718 470.5164,256.2401 474.6166,256.6381 478.7167,256.967 482.8169,257.3322 486.9171,257.7615 491.0172,258.2478 495.1174,258.799 499.2175,259.1991 503.3177,259.0943 507.4178,258.8963 511.518,258.8167 515.6182,258.9328 519.7183,259.2813 523.8185,259.7766 527.9186,260.2211 532.0188,260.4976 536.1189,260.6272 540.2191,260.7776 544.3192,261.0608 548.4194,261.4261 552.5196,261.8377 556.6197,262.0451 560.7199,262.0916 564.82,262.0497 568.9202,262.087 573.0203,262.2598 577.1205,262.5514 581.2207,262.9119 585.3208,263.1283 589.421,262.7933 593.5211,262.1984 597.6213,261.605 601.7214,261.1233 605.8216,260.7236 609.9218,260.4082 614.0219,260.1052 618.1221,259.8122 622.2222,259.5277 622.2222,281.4333 618.1221,281.3287 614.0219,281.2289 609.9218,281.135 605.8216,281.0483 601.7214,280.9013 597.6213,280.7032 593.5211,280.4018 589.421,280.0878 585.3208,279.6427 581.2207,278.9799 577.1205,278.3835 573.0203,277.9923 568.9202,277.8073 564.82,277.7757 560.7199,277.8336 556.6197,277.9783 552.5196,278.1734 548.4194,278.4073 544.3192,278.5877 540.2191,278.6765 536.1189,278.6871 532.0188,278.7047 527.9186,278.6675 523.8185,278.5499 519.7183,278.4831 515.6182,278.4658 511.518,278.6437 507.4178,278.8922 503.3177,279.2057 499.2175,279.407 495.1174,279.2501 491.0172,278.9661 486.9171,278.6943 482.8169,278.4461 478.7167,278.2728 474.6166,278.1635 470.5164,278.026 466.4163,277.9021 462.3161,277.8934 458.216,278.0596 454.1158,278.2873 450.0156,278.3201 445.9155,278.057 441.8153,277.6009 437.7152,277.0984 433.615,276.5499 429.5149,275.9571 425.4147,275.3226 421.3146,274.6976 417.2144,274.1428 413.1142,273.7087 409.0141,273.3056 404.9139,272.9226 400.8138,272.6088 396.7136,272.2663 392.6135,271.8171 388.5133,271.2974 384.4131,271.0447 380.313,271.0656 376.2128,271.1818 372.1127,271.3438 368.0125,271.6619 363.9124,271.8895 359.8122,272.1225 355.7121,272.2959 351.6119,272.5183 347.5117,272.9756 343.4116,273.7223 339.3114,275.0098 335.2113,276.0821 331.1111,276.6155 327.011,276.3213 322.9108,275.9174 318.8106,275.4344 314.7105,275.0242 310.6103,274.9074 306.5102,275.0999 302.41,275.3976 298.3099,275.6447 294.2097,275.8026 290.1095,275.8729 286.0094,275.8556 281.9092,275.7496 277.8091,275.5525 273.7089,275.261 269.6088,274.8708 265.5086,274.3771 261.4085,273.774 257.3083,273.0555 253.2081,272.215 249.108,271.4094 245.0078,270.8675 240.9077,270.8808 236.8075,271.1023 232.7074,271.282 228.6072,271.2616 224.507,271.035 220.4069,270.732 216.3067,270.929 212.2066,271.6949 208.1064,272.498 204.0063,273.2014 199.9061,273.8118 195.8059,274.3345 191.7058,274.7733 187.6056,275.1307 183.5055,275.4081 179.4053,275.6061 175.3052,275.7245 171.205,275.7619 167.1049,275.7168 163.0047,275.6442 158.9045,275.642 154.8044,275.8474 150.7042,276.1472 146.6041,276.4493 142.5039,276.6932 138.4038,276.8783 134.3036,277.0034 130.2034,277.0669 126.1033,277.0668 122.0031,277.0006 117.903,276.8655 113.8028,276.6582 109.7027,276.3753 105.6025,276.0129 101.5023,275.5669 97.4022,275.0333 93.302,274.408 89.2019,273.687 85.1017,272.8666 81.0016,271.9441 76.9014,270.9671 72.8013,270.1086 68.7011,269.5571 64.6009,269.542 60.5008,270.0764 56.4006,270.9517 52.3005,271.994 48.2003,273.0328 44.1002,274.0203 40,274.9602"></polyline>
<text class = "party cec" x="631.1111" y="258"><tspan class="party_name">CeC</tspan><tspan class="party_result"> (7.8±1.4%)</tspan></text>
<polyline id="media-psc"  class="psc media" points=" 40,221.0208 44.1002,221.0851 48.2003,221.1466 52.3005,221.2047 56.4006,221.2591 60.5008,221.313 64.6009,221.3727 68.7011,221.4491 72.8013,221.551 76.9014,221.6794 81.0016,221.833 85.1017,222.0069 89.2019,222.1996 93.302,222.4115 97.4022,222.6434 101.5023,222.8962 105.6025,223.1709 109.7027,223.4689 113.8028,223.7918 117.903,224.1414 122.0031,224.52 126.1033,224.9303 130.2034,225.3754 134.3036,225.8592 138.4038,226.3861 142.5039,226.9612 146.6041,227.591 150.7042,228.2828 154.8044,228.8644 158.9045,229.0665 163.0047,228.5325 167.1049,227.6441 171.205,226.6801 175.3052,225.809 179.4053,225.0215 183.5055,224.3088 187.6056,223.6627 191.7058,223.0754 195.8059,222.5395 199.9061,222.0479 204.0063,221.5936 208.1064,221.1695 212.2066,220.7685 216.3067,220.4383 220.4069,220.3758 224.507,220.5541 228.6072,220.7596 232.7074,220.9473 236.8075,221.1243 240.9077,221.2796 245.0078,221.3975 249.108,221.4603 253.2081,221.5086 257.3083,221.5688 261.4085,221.656 265.5086,221.7715 269.6088,221.9171 273.7089,222.0947 277.8091,222.307 281.9092,222.5567 286.0094,222.8477 290.1095,223.1842 294.2097,223.5718 298.3099,224.0169 302.41,224.5279 306.5102,225.0507 310.6103,225.3521 314.7105,225.1264 318.8106,224.4004 322.9108,223.5104 327.011,222.688 331.1111,221.9797 335.2113,221.3729 339.3114,220.8573 343.4116,220.4239 347.5117,220.0654 351.6119,219.7757 355.7121,219.5501 359.8122,219.3796 363.9124,219.1634 368.0125,218.8345 372.1127,218.4614 376.2128,218.1062 380.313,217.7837 384.4131,217.5253 388.5133,217.4577 392.6135,217.57 396.7136,217.736 400.8138,217.866 404.9139,217.8554 409.0141,217.5694 413.1142,217.1671 417.2144,216.7306 421.3146,216.249 425.4147,215.7261 429.5149,215.1862 433.615,214.6574 437.7152,214.1433 441.8153,213.6461 445.9155,213.167 450.0156,212.7066 454.1158,212.2646 458.216,211.8403 462.3161,211.4326 466.4163,211.0398 470.5164,210.6566 474.6166,210.2629 478.7167,209.8955 482.8169,209.7765 486.9171,209.8748 491.0172,209.9568 495.1174,209.9921 499.2175,209.9457 503.3177,209.7308 507.4178,209.4415 511.518,209.1809 515.6182,209.0175 519.7183,209.0377 523.8185,209.1194 527.9186,209.1832 532.0188,209.1789 536.1189,209.1559 540.2191,209.2972 544.3192,209.5671 548.4194,209.7648 552.5196,209.8441 556.6197,209.9107 560.7199,210.0462 564.82,210.2469 568.9202,210.4312 573.0203,210.5797 577.1205,210.7069 581.2207,210.8315 585.3208,210.9478 589.421,210.9319 593.5211,210.839 597.6213,210.7832 601.7214,210.7539 605.8216,210.732 609.9218,210.7163 614.0219,210.7057 618.1221,210.6994 622.2222,210.6968"></polyline>
<polyline id="error-psc" class="psc error" points=" 40,188.3172 44.1002,188.8801 48.2003,189.4611 52.3005,190.0614 56.4006,190.6601 60.5008,191.1838 64.6009,191.5596 68.7011,191.7056 72.8013,191.6432 76.9014,191.4844 81.0016,191.3154 85.1017,191.2057 89.2019,191.171 93.302,191.2083 97.4022,191.3149 101.5023,191.4882 105.6025,191.7264 109.7027,192.028 113.8028,192.3922 117.903,192.8187 122.0031,193.3079 126.1033,193.8612 130.2034,194.4805 134.3036,195.1689 138.4038,195.9302 142.5039,196.7697 146.6041,197.6942 150.7042,198.7118 154.8044,199.596 158.9045,199.9942 163.0047,199.4455 167.1049,198.4565 171.205,197.3934 175.3052,196.4737 179.4053,195.6841 183.5055,195.0127 187.6056,194.4487 191.7058,193.9823 195.8059,193.6046 199.9061,193.3076 204.0063,193.0841 208.1064,192.9276 212.2066,192.8321 216.3067,192.805 220.4069,192.8877 224.507,193.0771 228.6072,193.328 232.7074,193.6315 236.8075,193.9917 240.9077,194.3376 245.0078,194.5617 249.108,194.5248 253.2081,194.386 257.3083,194.2586 261.4085,194.2109 265.5086,194.2387 269.6088,194.3392 273.7089,194.5105 277.8091,194.7517 281.9092,195.0628 286.0094,195.4452 290.1095,195.9013 294.2097,196.4351 298.3099,197.0523 302.41,197.7605 306.5102,198.4943 310.6103,198.9786 314.7105,198.8556 318.8106,198.1615 322.9108,197.2932 327.011,196.521 331.1111,195.8981 335.2113,196.3213 339.3114,197.4228 343.4116,198.791 347.5117,199.4718 351.6119,199.7777 355.7121,199.7863 359.8122,199.7638 363.9124,199.9225 368.0125,200.1927 372.1127,200.5892 376.2128,200.7206 380.313,200.6988 384.4131,200.5712 388.5133,200.5869 392.6135,200.7417 396.7136,200.9834 400.8138,201.2201 404.9139,201.3197 409.0141,201.1178 413.1142,200.7823 417.2144,200.3716 421.3146,199.8199 425.4147,199.1906 429.5149,198.5537 433.615,197.9648 437.7152,197.4245 441.8153,196.9323 445.9155,196.4873 450.0156,196.2726 454.1158,196.4165 458.216,196.7916 462.3161,197.075 466.4163,197.1242 470.5164,196.9952 474.6166,196.7443 478.7167,196.4977 482.8169,196.4855 486.9171,196.686 491.0172,196.8895 495.1174,197.0774 499.2175,197.1722 503.3177,197.0178 507.4178,196.8025 511.518,196.6469 515.6182,196.6652 519.7183,196.8885 523.8185,197.233 527.9186,197.4953 532.0188,197.6366 536.1189,197.7036 540.2191,197.9454 544.3192,198.4493 548.4194,198.9897 552.5196,199.4733 556.6197,199.7934 560.7199,200.0515 564.82,200.2656 568.9202,200.4548 573.0203,200.5934 577.1205,200.6518 581.2207,200.6189 585.3208,200.4459 589.421,199.9381 593.5211,199.2767 597.6213,198.6632 601.7214,198.2127 605.8216,197.854 609.9218,197.5931 614.0219,197.3413 618.1221,197.0971 622.2222,196.8594 622.2222,224.5341 618.1221,224.3017 614.0219,224.0701 609.9218,223.8395 605.8216,223.6101 601.7214,223.2952 597.6213,222.9033 593.5211,222.4012 589.421,221.9257 585.3208,221.4498 581.2207,221.0442 577.1205,220.762 573.0203,220.566 568.9202,220.4076 564.82,220.2282 560.7199,220.0408 556.6197,220.0281 552.5196,220.2148 548.4194,220.5398 544.3192,220.6848 540.2191,220.6491 536.1189,220.6083 532.0188,220.7212 527.9186,220.8711 523.8185,221.0058 519.7183,221.1868 515.6182,221.3698 511.518,221.7149 507.4178,222.0804 503.3177,222.4438 499.2175,222.7192 495.1174,222.9069 491.0172,223.0242 486.9171,223.0637 482.8169,223.0674 478.7167,223.2933 474.6166,223.7814 470.5164,224.3181 466.4163,224.9555 462.3161,225.7902 458.216,226.8891 454.1158,228.1127 450.0156,229.1405 445.9155,229.8468 441.8153,230.3598 437.7152,230.8622 433.615,231.3501 429.5149,231.8187 425.4147,232.2616 421.3146,232.6781 417.2144,233.0896 413.1142,233.5518 409.0141,234.021 404.9139,234.391 400.8138,234.5119 396.7136,234.4886 392.6135,234.3982 388.5133,234.3285 384.4131,234.4793 380.313,234.8685 376.2128,235.4919 372.1127,236.3336 368.0125,237.4762 363.9124,238.4044 359.8122,238.9954 355.7121,239.3139 351.6119,239.7736 347.5117,240.659 343.4116,242.0567 339.3114,244.2917 335.2113,246.4245 331.1111,248.0612 327.011,248.855 322.9108,249.7277 318.8106,250.6393 314.7105,251.3972 310.6103,251.7257 306.5102,251.6071 302.41,251.2953 298.3099,250.9815 294.2097,250.7084 290.1095,250.4672 286.0094,250.2502 281.9092,250.0507 277.8091,249.8623 273.7089,249.679 269.6088,249.4949 265.5086,249.3044 261.4085,249.1011 257.3083,248.879 253.2081,248.6311 249.108,248.3957 245.0078,248.2332 240.9077,248.2215 236.8075,248.2569 232.7074,248.2631 228.6072,248.1911 224.507,248.0312 220.4069,247.8639 216.3067,248.0716 212.2066,248.7048 208.1064,249.4114 204.0063,250.1031 199.9061,250.7883 195.8059,251.4745 191.7058,252.1686 187.6056,252.8767 183.5055,253.6049 179.4053,254.3588 175.3052,255.1443 171.205,255.9668 167.1049,256.8317 163.0047,257.6195 158.9045,258.1389 154.8044,258.1328 150.7042,257.8538 146.6041,257.4878 142.5039,257.1528 138.4038,256.842 134.3036,256.5496 130.2034,256.2703 126.1033,255.9993 122.0031,255.732 117.903,255.4641 113.8028,255.1914 109.7027,254.9099 105.6025,254.6155 101.5023,254.3042 97.4022,253.9719 93.302,253.6146 89.2019,253.2281 85.1017,252.8082 81.0016,252.3506 76.9014,251.8744 72.8013,251.4587 68.7011,251.1925 64.6009,251.1857 60.5008,251.4422 56.4006,251.8582 52.3005,252.348 48.2003,252.8322 44.1002,253.29 40,253.7245"></polyline>
<text class = "party psc" x="631.1111" y="211"><tspan class="party_name">PSC</tspan><tspan class="party_result"> (15.2±1.7%)</tspan></text>
<polyline id="media-cs"  class="cs media" points=" 40,180.6033 44.1002,181.1171 48.2003,181.6579 52.3005,182.2269 56.4006,182.795 60.5008,183.2626 64.6009,183.5316 68.7011,183.4838 72.8013,183.1241 76.9014,182.5804 81.0016,181.96 85.1017,181.3666 89.2019,180.8317 93.302,180.3564 97.4022,179.9408 101.5023,179.5845 105.6025,179.2869 109.7027,179.047 113.8028,178.8637 117.903,178.736 122.0031,178.6628 126.1033,178.6434 130.2034,178.6772 134.3036,178.7639 138.4038,178.9034 142.5039,179.0963 146.6041,179.3431 150.7042,179.6452 154.8044,179.9221 158.9045,180.05 163.0047,179.8699 167.1049,179.5601 171.205,179.2509 175.3052,179.021 179.4053,178.8689 183.5055,178.7932 187.6056,178.7932 191.7058,178.8687 195.8059,179.02 199.9061,179.2482 204.0063,179.555 208.1064,179.9431 212.2066,180.4161 216.3067,180.88 220.4069,180.9762 224.507,180.7541 228.6072,180.6073 232.7074,180.6295 236.8075,180.8216 240.9077,181.028 245.0078,181.0006 249.108,180.3878 253.2081,179.4802 257.3083,178.5095 261.4085,177.6407 265.5086,176.8704 269.6088,176.1952 273.7089,175.6111 277.8091,175.1145 281.9092,174.7021 286.0094,174.3709 290.1095,174.1186 294.2097,173.9434 298.3099,173.8444 302.41,173.8216 306.5102,173.8521 310.6103,173.8458 314.7105,173.6835 318.8106,173.3717 322.9108,173.0372 327.011,172.7707 331.1111,172.5934 335.2113,172.5044 339.3114,172.504 343.4116,172.594 347.5117,172.7775 351.6119,173.0599 355.7121,173.3281 359.8122,173.1339 363.9124,172.4645 368.0125,171.7315 372.1127,171.0735 376.2128,170.5295 380.313,170.1116 384.4131,169.7923 388.5133,169.4497 392.6135,169.0713 396.7136,168.7767 400.8138,168.5302 404.9139,168.2137 409.0141,167.6746 413.1142,167.0512 417.2144,166.3953 421.3146,165.6441 425.4147,164.8205 429.5149,163.974 433.615,163.1565 437.7152,162.3745 441.8153,161.6324 445.9155,160.9331 450.0156,160.2786 454.1158,159.6695 458.216,159.1062 462.3161,158.5881 466.4163,158.1147 470.5164,157.695 474.6166,157.3659 478.7167,157.0371 482.8169,156.3823 486.9171,155.383 491.0172,154.2717 495.1174,153.0809 499.2175,152.219 503.3177,152.3476 507.4178,152.6564 511.518,152.8036 515.6182,152.8772 519.7183,152.9473 523.8185,153.0088 527.9186,153.0338 532.0188,152.9271 536.1189,152.6671 540.2191,152.1915 544.3192,151.5456 548.4194,150.8931 552.5196,150.2539 556.6197,149.6155 560.7199,148.9812 564.82,148.3682 568.9202,147.8099 573.0203,147.3795 577.1205,147.0608 581.2207,146.7628 585.3208,146.5498 589.421,146.6288 593.5211,146.9001 597.6213,147.2209 601.7214,147.561 605.8216,147.8712 609.9218,148.1559 614.0219,148.4189 618.1221,148.6631 622.2222,148.8909"></polyline>
<polyline id="error-cs" class="cs error" points=" 40,145.3497 44.1002,146.4059 48.2003,147.5121 52.3005,148.6721 56.4006,149.8333 60.5008,150.8124 64.6009,151.4235 68.7011,151.4461 72.8013,150.8981 76.9014,150.0288 81.0016,149.0419 85.1017,148.123 89.2019,147.3235 93.302,146.6404 97.4022,146.0702 101.5023,145.6093 105.6025,145.2536 109.7027,144.9992 113.8028,144.8425 117.903,144.7801 122.0031,144.8091 126.1033,144.927 130.2034,145.1321 134.3036,145.4231 138.4038,145.7994 142.5039,146.2616 146.6041,146.8106 150.7042,147.4486 154.8044,148.0404 158.9045,148.378 163.0047,148.1971 167.1049,147.8023 171.205,147.4129 175.3052,147.156 179.4053,147.026 183.5055,147.0186 187.6056,147.1302 191.7058,147.3585 195.8059,147.7026 199.9061,148.1627 204.0063,148.7407 208.1064,149.4399 212.2066,150.2653 216.3067,151.0759 220.4069,151.3325 224.507,151.1121 228.6072,151.0052 232.7074,151.1471 236.8075,151.5358 240.9077,151.9481 245.0078,152.0316 249.108,151.2965 253.2081,150.1662 257.3083,148.9701 261.4085,147.9339 265.5086,147.0487 269.6088,146.3057 273.7089,145.697 277.8091,145.215 281.9092,144.8532 286.0094,144.6061 290.1095,144.4693 294.2097,144.4392 298.3099,144.5137 302.41,144.6922 306.5102,144.9406 310.6103,145.1274 314.7105,145.0824 318.8106,144.8208 322.9108,144.5294 327.011,144.3365 331.1111,144.2696 335.2113,145.2985 339.3114,147.0424 343.4116,149.0733 347.5117,150.3846 351.6119,151.3219 355.7121,151.8573 359.8122,151.8267 363.9124,151.5531 368.0125,151.4559 372.1127,151.6181 376.2128,151.5951 380.313,151.5029 384.4131,151.3288 388.5133,151.0745 392.6135,150.7352 396.7136,150.5164 400.8138,150.3818 404.9139,150.1833 409.0141,149.7361 413.1142,149.1867 417.2144,148.5596 421.3146,147.7305 425.4147,146.7886 429.5149,145.8344 433.615,144.9502 437.7152,144.1394 441.8153,143.4033 445.9155,142.7424 450.0156,142.3534 454.1158,142.3742 458.216,142.6696 462.3161,142.8962 466.4163,142.9027 470.5164,142.7636 474.6166,142.5966 478.7167,142.4049 482.8169,141.8639 486.9171,140.9659 491.0172,139.9774 495.1174,138.9448 499.2175,138.2338 503.3177,138.4351 507.4178,138.8345 511.518,139.1049 515.6182,139.3807 519.7183,139.67 523.8185,140.0131 527.9186,140.2524 532.0188,140.3045 536.1189,140.1437 540.2191,139.7753 544.3192,139.3765 548.4194,139.0883 552.5196,138.88 556.6197,138.5105 560.7199,138.0029 564.82,137.398 568.9202,136.8388 573.0203,136.3919 577.1205,135.994 581.2207,135.5225 585.3208,134.9948 589.421,134.5386 593.5211,134.1892 597.6213,133.8998 601.7214,133.7761 605.8216,133.7133 609.9218,133.7235 614.0219,133.7167 618.1221,133.6952 622.2222,133.6609 622.2222,164.121 618.1221,163.631 614.0219,163.1211 609.9218,162.5883 605.8216,162.029 601.7214,161.3459 597.6213,160.542 593.5211,159.6111 589.421,158.719 585.3208,158.1047 581.2207,158.003 577.1205,158.1275 573.0203,158.367 568.9202,158.7811 564.82,159.3384 560.7199,159.9594 556.6197,160.7205 552.5196,161.6278 548.4194,162.698 544.3192,163.7146 540.2191,164.6077 536.1189,165.1905 532.0188,165.5497 527.9186,165.8153 523.8185,166.0045 519.7183,166.2245 515.6182,166.3737 511.518,166.5023 507.4178,166.4783 503.3177,166.2601 499.2175,166.2041 495.1174,167.2169 491.0172,168.566 486.9171,169.8001 482.8169,170.9008 478.7167,171.6693 474.6166,172.1351 470.5164,172.6263 466.4163,173.3267 462.3161,174.2801 458.216,175.5428 454.1158,176.9649 450.0156,178.2037 445.9155,179.1239 441.8153,179.8615 437.7152,180.6096 433.615,181.3628 429.5149,182.1136 425.4147,182.8523 421.3146,183.5577 417.2144,184.2309 413.1142,184.9156 409.0141,185.6132 404.9139,186.2441 400.8138,186.6785 396.7136,187.037 392.6135,187.4073 388.5133,187.8248 384.4131,188.2557 380.313,188.7203 376.2128,189.4639 372.1127,190.5288 368.0125,192.0071 363.9124,193.3758 359.8122,194.441 355.7121,194.7989 351.6119,194.7979 347.5117,195.1704 343.4116,196.1147 339.3114,197.9657 335.2113,199.7103 331.1111,200.9171 327.011,201.205 322.9108,201.5451 318.8106,201.9225 314.7105,202.2847 310.6103,202.5642 306.5102,202.7635 302.41,202.9509 298.3099,203.1751 294.2097,203.4476 290.1095,203.7679 286.0094,204.1357 281.9092,204.551 277.8091,205.0141 273.7089,205.5252 269.6088,206.0846 265.5086,206.6922 261.4085,207.3474 257.3083,208.0489 253.2081,208.7943 249.108,209.4791 245.0078,209.9696 240.9077,210.108 236.8075,210.1073 232.7074,210.1118 228.6072,210.2095 224.507,210.396 220.4069,210.6199 216.3067,210.6841 212.2066,210.5669 208.1064,210.4464 204.0063,210.3693 199.9061,210.3336 195.8059,210.3374 191.7058,210.3789 187.6056,210.4562 183.5055,210.5677 179.4053,210.7117 175.3052,210.8861 171.205,211.089 167.1049,211.3178 163.0047,211.5428 158.9045,211.722 154.8044,211.8038 150.7042,211.8418 146.6041,211.8756 142.5039,211.9309 138.4038,212.0074 134.3036,212.1047 130.2034,212.2223 126.1033,212.3598 122.0031,212.5165 117.903,212.6918 113.8028,212.8849 109.7027,213.0948 105.6025,213.3203 101.5023,213.5597 97.4022,213.8113 93.302,214.0724 89.2019,214.34 85.1017,214.6102 81.0016,214.8781 76.9014,215.1319 72.8013,215.3501 68.7011,215.5215 64.6009,215.6398 60.5008,215.7129 56.4006,215.7566 52.3005,215.7818 48.2003,215.8036 44.1002,215.8283 40,215.8568"></polyline>
<text class = "party cs" x="631.1111" y="140"><tspan class="party_name">C's</tspan><tspan class="party_result"> (22.8±1.9%)</tspan></text>
<polyline id="media-pp"  class="pp media" points=" 40,262.7729 44.1002,262.4612 48.2003,262.1364 52.3005,261.7981 56.4006,261.4624 60.5008,261.1824 64.6009,261.0092 68.7011,261.0031 72.8013,261.1575 76.9014,261.4021 81.0016,261.6789 85.1017,261.9332 89.2019,262.1488 93.302,262.3249 97.4022,262.4616 101.5023,262.5587 105.6025,262.6165 109.7027,262.6354 113.8028,262.6156 117.903,262.5572 122.0031,262.4604 126.1033,262.3249 130.2034,262.1503 134.3036,261.9359 138.4038,261.6808 142.5039,261.3833 146.6041,261.0417 150.7042,260.6536 154.8044,260.3096 158.9045,260.1489 163.0047,260.3515 167.1049,260.7153 171.205,261.0935 175.3052,261.3989 179.4053,261.6348 183.5055,261.8045 187.6056,261.9106 191.7058,261.9557 195.8059,261.9417 199.9061,261.8702 204.0063,261.7425 208.1064,261.5596 212.2066,261.3224 216.3067,261.0624 220.4069,260.8861 224.507,260.7603 228.6072,260.5541 232.7074,260.2343 236.8075,259.7946 240.9077,259.3866 245.0078,259.2463 249.108,259.7023 253.2081,260.4526 257.3083,261.2663 261.4085,261.9846 265.5086,262.6123 269.6088,263.1543 273.7089,263.615 277.8091,263.9984 281.9092,264.3079 286.0094,264.5466 290.1095,264.7166 294.2097,264.8193 298.3099,264.8553 302.41,264.8242 306.5102,264.7511 310.6103,264.7366 314.7105,264.9138 318.8106,265.2762 322.9108,265.6838 327.011,266.0378 331.1111,266.3172 335.2113,266.5262 339.3114,266.6685 343.4116,266.747 347.5117,266.7642 351.6119,266.7226 355.7121,266.6305 359.8122,266.5076 363.9124,266.5257 368.0125,266.7824 372.1127,267.1139 376.2128,267.3849 380.313,267.562 384.4131,267.6697 388.5133,267.8117 392.6135,267.988 396.7136,268.0916 400.8138,268.1258 404.9139,268.1403 409.0141,268.1933 413.1142,268.3033 417.2144,268.5905 421.3146,269.2894 425.4147,270.2124 429.5149,271.1958 433.615,272.1205 437.7152,272.9846 441.8153,273.7872 445.9155,274.5283 450.0156,275.2083 454.1158,275.8282 458.216,276.3893 462.3161,276.8927 466.4163,277.3393 470.5164,277.7591 474.6166,278.2547 478.7167,278.8281 482.8169,279.3413 486.9171,279.8243 491.0172,280.3902 495.1174,281.0257 499.2175,281.6103 503.3177,282.0107 507.4178,282.4031 511.518,282.7995 515.6182,283.1286 519.7183,283.3354 523.8185,283.5068 527.9186,283.6863 532.0188,283.8892 536.1189,284.0995 540.2191,284.2915 544.3192,284.4632 548.4194,284.6259 552.5196,284.7822 556.6197,284.931 560.7199,285.1183 564.82,285.3444 568.9202,285.5489 573.0203,285.7176 577.1205,285.8566 581.2207,285.9957 585.3208,286.1089 589.421,286.0997 593.5211,285.9802 597.6213,285.8326 601.7214,285.6839 605.8216,285.5449 609.9218,285.4143 614.0219,285.2908 618.1221,285.1735 622.2222,285.0618"></polyline>
<polyline id="error-pp" class="pp error" points=" 40,237.5296 44.1002,237.6572 48.2003,237.79 52.3005,237.9295 56.4006,238.0736 60.5008,238.2078 64.6009,238.3133 68.7011,238.368 72.8013,238.3764 76.9014,238.3661 81.0016,238.3562 85.1017,238.3577 89.2019,238.3693 93.302,238.3871 97.4022,238.4078 101.5023,238.4284 105.6025,238.4463 109.7027,238.4594 113.8028,238.4656 117.903,238.4633 122.0031,238.4508 126.1033,238.4265 130.2034,238.389 134.3036,238.3368 138.4038,238.2685 142.5039,238.1825 146.6041,238.0773 150.7042,237.9511 154.8044,237.8539 158.9045,237.8617 163.0047,238.0757 167.1049,238.3893 171.205,238.722 175.3052,239.0222 179.4053,239.2901 183.5055,239.5261 187.6056,239.7307 191.7058,239.9048 195.8059,240.0491 199.9061,240.1648 204.0063,240.2533 208.1064,240.3161 212.2066,240.3554 216.3067,240.3666 220.4069,240.3159 224.507,240.1909 228.6072,240.0129 232.7074,239.7809 236.8075,239.4861 240.9077,239.2317 245.0078,239.1795 249.108,239.5601 253.2081,240.1673 257.3083,240.8402 261.4085,241.4616 265.5086,242.0312 269.6088,242.5496 273.7089,243.0176 277.8091,243.4361 281.9092,243.806 286.0094,244.1281 290.1095,244.4027 294.2097,244.6301 298.3099,244.8099 302.41,244.9412 306.5102,245.0412 310.6103,245.1821 314.7105,245.4624 318.8106,245.8825 322.9108,246.3437 327.011,246.7727 331.1111,247.1525 335.2113,248.1087 339.3114,249.4005 343.4116,250.7555 347.5117,251.5289 351.6119,251.9411 355.7121,252.0529 359.8122,252.0572 363.9124,252.3432 368.0125,253.0236 372.1127,253.9011 376.2128,254.5295 380.313,254.9412 384.4131,255.168 388.5133,255.3861 392.6135,255.6018 396.7136,255.7698 400.8138,255.8935 404.9139,256.002 409.0141,256.1321 413.1142,256.3079 417.2144,256.6314 421.3146,257.2979 425.4147,258.1656 429.5149,259.1044 433.615,260.0141 437.7152,260.8898 441.8153,261.7278 445.9155,262.5257 450.0156,263.4085 454.1158,264.4645 458.216,265.6077 462.3161,266.6192 466.4163,267.4032 470.5164,268.0312 474.6166,268.6579 478.7167,269.3458 482.8169,269.9573 486.9171,270.5309 491.0172,271.2043 495.1174,271.9728 499.2175,272.6804 503.3177,273.1389 507.4178,273.5999 511.518,274.0876 515.6182,274.5567 519.7183,274.9095 523.8185,275.2658 527.9186,275.588 532.0188,275.8998 536.1189,276.1818 540.2191,276.4511 544.3192,276.7897 548.4194,277.1936 552.5196,277.6332 556.6197,277.9609 560.7199,278.2364 564.82,278.4753 568.9202,278.6859 573.0203,278.8497 577.1205,278.9424 581.2207,278.9748 585.3208,278.8899 589.421,278.5376 593.5211,278.0161 597.6213,277.4705 601.7214,277.0158 605.8216,276.6277 609.9218,276.31 614.0219,276.0014 618.1221,275.7008 622.2222,275.407 622.2222,294.7167 618.1221,294.6463 614.0219,294.5801 609.9218,294.5185 605.8216,294.4621 601.7214,294.352 597.6213,294.1946 593.5211,293.9444 589.421,293.6618 585.3208,293.3279 581.2207,293.0166 577.1205,292.7707 573.0203,292.5855 568.9202,292.4118 564.82,292.2136 560.7199,292.0002 556.6197,291.9011 552.5196,291.9311 548.4194,292.0581 544.3192,292.1367 540.2191,292.132 536.1189,292.0173 532.0188,291.8786 527.9186,291.7846 523.8185,291.7478 519.7183,291.7613 515.6182,291.7006 511.518,291.5114 507.4178,291.2063 503.3177,290.8824 499.2175,290.5402 495.1174,290.0786 491.0172,289.5761 486.9171,289.1177 482.8169,288.7254 478.7167,288.3104 474.6166,287.8515 470.5164,287.4869 466.4163,287.2755 462.3161,287.1662 458.216,287.1709 454.1158,287.192 450.0156,287.008 445.9155,286.5308 441.8153,285.8467 437.7152,285.0795 433.615,284.2269 429.5149,283.2871 425.4147,282.2592 421.3146,281.2808 417.2144,280.5495 413.1142,280.2986 409.0141,280.2544 404.9139,280.2787 400.8138,280.3582 396.7136,280.4134 392.6135,280.3742 388.5133,280.2373 384.4131,280.1713 380.313,280.1828 376.2128,280.2403 372.1127,280.3267 368.0125,280.5412 363.9124,280.7083 359.8122,280.9581 355.7121,281.2081 351.6119,281.504 347.5117,281.9996 343.4116,282.7385 339.3114,283.9365 335.2113,284.9438 331.1111,285.4819 327.011,285.3029 322.9108,285.024 318.8106,284.67 314.7105,284.3653 310.6103,284.2911 306.5102,284.461 302.41,284.7072 298.3099,284.9006 294.2097,285.0084 290.1095,285.0304 286.0094,284.9652 281.9092,284.8099 277.8091,284.5606 273.7089,284.2123 269.6088,283.7589 265.5086,283.1934 261.4085,282.5076 257.3083,281.6924 253.2081,280.738 249.108,279.8446 245.0078,279.313 240.9077,279.5414 236.8075,280.1031 232.7074,280.6877 228.6072,281.0953 224.507,281.3297 220.4069,281.4564 216.3067,281.7582 212.2066,282.2893 208.1064,282.8031 204.0063,283.2317 199.9061,283.5756 195.8059,283.8344 191.7058,284.0067 187.6056,284.0906 183.5055,284.0828 179.4053,283.9795 175.3052,283.7755 171.205,283.4651 167.1049,283.0412 163.0047,282.6273 158.9045,282.4362 154.8044,282.7653 150.7042,283.3561 146.6041,284.0062 142.5039,284.5841 138.4038,285.093 134.3036,285.535 130.2034,285.9116 126.1033,286.2233 122.0031,286.47 117.903,286.6512 113.8028,286.7655 109.7027,286.8114 105.6025,286.7868 101.5023,286.689 97.4022,286.5153 93.302,286.2628 89.2019,285.9283 85.1017,285.5088 81.0016,285.0015 76.9014,284.4381 72.8013,283.9385 68.7011,283.6381 64.6009,283.7051 60.5008,284.1569 56.4006,284.8511 52.3005,285.6666 48.2003,286.4828 44.1002,287.2651 40,288.0161"></polyline>
<text class = "party pp" x="631.1111" y="300"><tspan class="party_name">PP</tspan><tspan class="party_result"> (6.0±1.2%)</tspan></text>
<polyline id="media-otros"  class="otros media" points=" 40,312.0537 44.1002,312.0083 48.2003,311.9624 52.3005,311.9165 56.4006,311.8717 60.5008,311.832 64.6009,311.8001 68.7011,311.7779 72.8013,311.7627 76.9014,311.7478 81.0016,311.7287 85.1017,311.7021 89.2019,311.6669 93.302,311.623 97.4022,311.5703 101.5023,311.5085 105.6025,311.4374 109.7027,311.3568 113.8028,311.2661 117.903,311.1651 122.0031,311.0532 126.1033,310.9296 130.2034,310.7936 134.3036,310.6442 138.4038,310.48 142.5039,310.2998 146.6041,310.1016 150.7042,309.8835 154.8044,309.6989 158.9045,309.6311 163.0047,309.7903 167.1049,310.058 171.205,310.3481 175.3052,310.6088 179.4053,310.8432 183.5055,311.0542 187.6056,311.2449 191.7058,311.4182 195.8059,311.5769 199.9061,311.7242 204.0063,311.8632 208.1064,311.9975 212.2066,312.1311 216.3067,312.2277 220.4069,312.1339 224.507,311.8535 228.6072,311.5421 232.7074,311.234 236.8075,310.9234 240.9077,310.6526 245.0078,310.4832 249.108,310.496 253.2081,310.5912 257.3083,310.6997 261.4085,310.7782 265.5086,310.8286 269.6088,310.8529 273.7089,310.8522 277.8091,310.8275 281.9092,310.7794 286.0094,310.708 290.1095,310.6134 294.2097,310.4948 298.3099,310.3515 302.41,310.182 306.5102,310.0011 310.6103,309.8693 314.7105,309.8638 318.8106,309.9737 322.9108,310.11 327.011,310.212 331.1111,310.2668 335.2113,310.2763 339.3114,310.2413 343.4116,310.1617 347.5117,310.0364 351.6119,309.8633 355.7121,309.6984 359.8122,309.7632 363.9124,310.0838 368.0125,310.4713 372.1127,310.8387 376.2128,311.1507 380.313,311.3983 384.4131,311.5993 388.5133,311.8327 392.6135,312.1089 396.7136,312.3541 400.8138,312.5798 404.9139,312.8423 409.0141,313.2178 413.1142,313.6157 417.2144,313.9595 421.3146,314.2013 425.4147,314.4019 429.5149,314.5931 433.615,314.7867 437.7152,314.9782 441.8153,315.1646 445.9155,315.3433 450.0156,315.5128 454.1158,315.6718 458.216,315.8198 462.3161,315.9565 466.4163,316.082 470.5164,316.1936 474.6166,316.272 478.7167,316.3355 482.8169,316.4383 486.9171,316.5963 491.0172,316.8047 495.1174,317.0491 499.2175,317.2161 503.3177,317.1295 507.4178,316.9647 511.518,316.8491 515.6182,316.8404 519.7183,317.0357 523.8185,317.3098 527.9186,317.5994 532.0188,317.9506 536.1189,318.3747 540.2191,318.7985 544.3192,319.1912 548.4194,319.5171 552.5196,319.7201 556.6197,319.7831 560.7199,319.7261 564.82,319.6035 568.9202,319.4603 573.0203,319.2924 577.1205,319.0689 581.2207,318.7684 585.3208,318.4414 589.421,318.3174 593.5211,318.3875 597.6213,318.4633 601.7214,318.5111 605.8216,318.5465 609.9218,318.5722 614.0219,318.59 618.1221,318.6015 622.2222,318.6078"></polyline>
<polyline id="error-otros" class="otros error" points=" 40,289.5102 44.1002,289.8532 48.2003,290.2098 52.3005,290.5813 56.4006,290.9529 60.5008,291.2697 64.6009,291.4753 68.7011,291.5028 72.8013,291.3587 76.9014,291.1198 81.0016,290.8473 85.1017,290.5948 89.2019,290.3754 93.302,290.1865 97.4022,290.0255 101.5023,289.8897 105.6025,289.7769 109.7027,289.6846 113.8028,289.6105 117.903,289.5525 122.0031,289.5085 126.1033,289.4766 130.2034,289.4549 134.3036,289.4415 138.4038,289.4348 142.5039,289.4329 146.6041,289.4341 150.7042,289.4366 154.8044,289.4596 158.9045,289.5342 163.0047,289.7063 167.1049,289.9367 171.205,290.1944 175.3052,290.4571 179.4053,290.7254 183.5055,291 187.6056,291.2819 191.7058,291.5726 195.8059,291.874 199.9061,292.1886 204.0063,292.5194 208.1064,292.8702 212.2066,293.2459 216.3067,293.577 220.4069,293.5844 224.507,293.2916 228.6072,292.9906 232.7074,292.7448 236.8075,292.5459 240.9077,292.395 245.0078,292.2908 249.108,292.2307 253.2081,292.1942 257.3083,292.1708 261.4085,292.1531 265.5086,292.1398 269.6088,292.1293 273.7089,292.1202 277.8091,292.1109 281.9092,292.0999 286.0094,292.0856 290.1095,292.0663 294.2097,292.0405 298.3099,292.0061 302.41,291.9613 306.5102,291.9143 310.6103,291.9028 314.7105,291.9761 318.8106,292.1288 322.9108,292.3046 327.011,292.4633 331.1111,292.5951 335.2113,293.3425 339.3114,294.4547 343.4116,295.648 347.5117,296.2541 351.6119,296.4954 355.7121,296.4889 359.8122,296.6616 363.9124,297.2639 368.0125,298.0967 372.1127,299.0285 376.2128,299.7017 380.313,300.1744 384.4131,300.4763 388.5133,300.7771 392.6135,301.093 396.7136,301.3976 400.8138,301.7025 404.9139,302.0496 409.0141,302.5006 413.1142,302.9648 417.2144,303.3459 421.3146,303.5592 425.4147,303.7068 429.5149,303.8509 433.615,304.0212 437.7152,304.2113 441.8153,304.4157 445.9155,304.6304 450.0156,304.9822 454.1158,305.5604 458.216,306.2749 462.3161,306.8987 466.4163,307.3325 470.5164,307.6172 474.6166,307.7899 478.7167,307.9327 482.8169,308.1052 486.9171,308.3299 491.0172,308.6183 495.1174,308.9622 499.2175,309.2188 503.3177,309.1656 507.4178,309.0396 511.518,308.982 515.6182,309.09 519.7183,309.4305 523.8185,309.8949 527.9186,310.3268 532.0188,310.7826 536.1189,311.2725 540.2191,311.7662 544.3192,312.32 548.4194,312.8811 552.5196,313.3615 556.6197,313.5941 560.7199,313.6149 564.82,313.494 568.9202,313.3474 573.0203,313.1676 577.1205,312.8914 581.2207,312.472 585.3208,311.9354 589.421,311.4839 593.5211,311.1925 597.6213,310.9156 601.7214,310.7039 605.8216,310.5362 609.9218,310.4207 614.0219,310.2976 618.1221,310.1685 622.2222,310.0341 622.2222,327.1815 618.1221,327.0345 614.0219,326.8823 609.9218,326.7237 605.8216,326.5568 601.7214,326.3183 597.6213,326.011 593.5211,325.5824 589.421,325.1509 585.3208,324.9474 581.2207,325.0648 577.1205,325.2465 573.0203,325.4172 568.9202,325.5732 564.82,325.713 560.7199,325.8373 556.6197,325.9722 552.5196,326.0786 548.4194,326.153 544.3192,326.0624 540.2191,325.8307 536.1189,325.4768 532.0188,325.1186 527.9186,324.8719 523.8185,324.7248 519.7183,324.6409 515.6182,324.5909 511.518,324.7161 507.4178,324.8899 503.3177,325.0933 499.2175,325.2134 495.1174,325.1359 491.0172,324.991 486.9171,324.8627 482.8169,324.7714 478.7167,324.7383 474.6166,324.7541 470.5164,324.7701 466.4163,324.8316 462.3161,325.0143 458.216,325.3647 454.1158,325.7833 450.0156,326.0434 445.9155,326.0563 441.8153,325.9135 437.7152,325.7452 433.615,325.5521 429.5149,325.3354 425.4147,325.0971 421.3146,324.8434 417.2144,324.5731 413.1142,324.2666 409.0141,323.9349 404.9139,323.6349 400.8138,323.457 396.7136,323.3107 392.6135,323.1248 388.5133,322.8883 384.4131,322.7223 380.313,322.6221 376.2128,322.5997 372.1127,322.6488 368.0125,322.846 363.9124,322.9037 359.8122,322.8648 355.7121,322.908 351.6119,323.2311 347.5117,323.8188 343.4116,324.6754 339.3114,326.0279 335.2113,327.2102 331.1111,327.9386 327.011,327.9607 322.9108,327.9154 318.8106,327.8187 314.7105,327.7515 310.6103,327.8358 306.5102,328.088 302.41,328.4028 298.3099,328.6969 294.2097,328.9492 290.1095,329.1604 286.0094,329.3305 281.9092,329.4588 277.8091,329.5441 273.7089,329.5842 269.6088,329.5764 265.5086,329.5175 261.4085,329.4032 257.3083,329.2287 253.2081,328.9882 249.108,328.7612 245.0078,328.6756 240.9077,328.9102 236.8075,329.3009 232.7074,329.7232 228.6072,330.0936 224.507,330.4154 220.4069,330.6833 216.3067,330.8785 212.2066,331.0163 208.1064,331.1248 204.0063,331.2071 199.9061,331.2599 195.8059,331.2799 191.7058,331.2638 187.6056,331.208 183.5055,331.1084 179.4053,330.9609 175.3052,330.7605 171.205,330.5019 167.1049,330.1793 163.0047,329.8742 158.9045,329.7279 154.8044,329.9382 150.7042,330.3304 146.6041,330.7692 142.5039,331.1666 138.4038,331.5253 134.3036,331.8468 130.2034,332.1324 126.1033,332.3827 122.0031,332.5979 117.903,332.7778 113.8028,332.9218 109.7027,333.0289 105.6025,333.098 101.5023,333.1273 97.4022,333.1152 93.302,333.0596 89.2019,332.9584 85.1017,332.8093 81.0016,332.6102 76.9014,332.3759 72.8013,332.1666 68.7011,332.0531 64.6009,332.1248 60.5008,332.3944 56.4006,332.7906 52.3005,333.2516 48.2003,333.3333 44.1002,333.3333 40,333.3333"></polyline>
<text class = "party otros" x="631.1111" y="321"><tspan class="party_name">Otros</tspan><tspan class="party_result"> (1.8±1.1%)</tspan></text>
<g id="encuesta-1">
<circle id="encuesta-1-cup" class="encuesta gad3 cup" cx="589.421" cy="288.8889" r="3.8859" ></circle>
<circle id="encuesta-1-erc" class="encuesta gad3 erc" cx="589.421" cy="169.2929" r="3.8859" ></circle>
<circle id="encuesta-1-jxcat" class="encuesta gad3 jxcat" cx="589.421" cy="176.5657" r="3.8859" ></circle>
<circle id="encuesta-1-cec" class="encuesta gad3 cec" cx="589.421" cy="275.9596" r="3.8859" ></circle>
<circle id="encuesta-1-psc" class="encuesta gad3 psc" cx="589.421" cy="205.6566" r="3.8859" ></circle>
<circle id="encuesta-1-cs" class="encuesta gad3 cs" cx="589.421" cy="130.5051" r="3.8859" ></circle>
<circle id="encuesta-1-pp" class="encuesta gad3 pp" cx="589.421" cy="289.697" r="3.8859" ></circle>
<circle id="encuesta-1-otros" class="encuesta gad3 otros" cx="589.421" cy="322.0202" r="3.8859" ></circle>
</g>
<g id="encuesta-2">
<circle id="encuesta-2-cup" class="encuesta gesop cup" cx="589.421" cy="288.8889" r="2.8284" ></circle>
<circle id="encuesta-2-erc" class="encuesta gesop erc" cx="589.421" cy="153.9394" r="2.8284" ></circle>
<circle id="encuesta-2-jxcat" class="encuesta gesop jxcat" cx="589.421" cy="188.6869" r="2.8284" ></circle>
<circle id="encuesta-2-cec" class="encuesta gesop cec" cx="589.421" cy="261.4141" r="2.8284" ></circle>
<circle id="encuesta-2-psc" class="encuesta gesop psc" cx="589.421" cy="196.7677" r="2.8284" ></circle>
<circle id="encuesta-2-cs" class="encuesta gesop cs" cx="589.421" cy="162.0202" r="2.8284" ></circle>
<circle id="encuesta-2-pp" class="encuesta gesop pp" cx="589.421" cy="288.0808" r="2.8284" ></circle>
<circle id="encuesta-2-otros" class="encuesta gesop otros" cx="589.421" cy="318.7879" r="2.8284" ></circle>
</g>
<g id="encuesta-3">
<circle id="encuesta-3-cup" class="encuesta top_position cup" cx="589.421" cy="276.7677" r="3.4641" ></circle>
<circle id="encuesta-3-erc" class="encuesta top_position erc" cx="589.421" cy="186.2626" r="3.4641" ></circle>
<circle id="encuesta-3-jxcat" class="encuesta top_position jxcat" cx="589.421" cy="152.3232" r="3.4641" ></circle>
<circle id="encuesta-3-cec" class="encuesta top_position cec" cx="589.421" cy="285.6566" r="3.4641" ></circle>
<circle id="encuesta-3-psc" class="encuesta top_position psc" cx="589.421" cy="238.7879" r="3.4641" ></circle>
<circle id="encuesta-3-cs" class="encuesta top_position cs" cx="589.421" cy="135.3535" r="3.4641" ></circle>
<circle id="encuesta-3-pp" class="encuesta top_position pp" cx="589.421" cy="288.8889" r="3.4641" ></circle>
<circle id="encuesta-3-otros" class="encuesta top_position otros" cx="589.421" cy="294.5455" r="3.4641" ></circle>
</g>
<g id="encuesta-4">
<circle id="encuesta-4-cup" class="encuesta feedback cup" cx="581.2207" cy="271.9192" r="3.1623" ></circle>
<circle id="encuesta-4-erc" class="encuesta feedback erc" cx="581.2207" cy="162.8283" r="3.1623" ></circle>
<circle id="encuesta-4-jxcat" class="encuesta feedback jxcat" cx="581.2207" cy="174.9495" r="3.1623" ></circle>
<circle id="encuesta-4-cec" class="encuesta feedback cec" cx="581.2207" cy="275.1515" r="3.1623" ></circle>
<circle id="encuesta-4-psc" class="encuesta feedback psc" cx="581.2207" cy="212.9293" r="3.1623" ></circle>
<circle id="encuesta-4-cs" class="encuesta feedback cs" cx="581.2207" cy="146.6667" r="3.1623" ></circle>
<circle id="encuesta-4-pp" class="encuesta feedback pp" cx="581.2207" cy="287.2727" r="3.1623" ></circle>
<circle id="encuesta-4-otros" class="encuesta feedback otros" cx="581.2207" cy="326.8687" r="3.1623" ></circle>
</g>
<g id="encuesta-5">
<circle id="encuesta-5-cup" class="encuesta a+m cup" cx="585.3208" cy="288.0808" r="3.873" ></circle>
<circle id="encuesta-5-erc" class="encuesta a+m erc" cx="585.3208" cy="134.5455" r="3.873" ></circle>
<circle id="encuesta-5-jxcat" class="encuesta a+m jxcat" cx="585.3208" cy="190.303" r="3.873" ></circle>
<circle id="encuesta-5-cec" class="encuesta a+m cec" cx="585.3208" cy="284.8485" r="3.873" ></circle>
<circle id="encuesta-5-psc" class="encuesta a+m psc" cx="585.3208" cy="209.697" r="3.873" ></circle>
<circle id="encuesta-5-cs" class="encuesta a+m cs" cx="585.3208" cy="136.1616" r="3.873" ></circle>
<circle id="encuesta-5-pp" class="encuesta a+m pp" cx="585.3208" cy="289.697" r="3.873" ></circle>
<circle id="encuesta-5-otros" class="encuesta a+m otros" cx="585.3208" cy="325.2525" r="3.873" ></circle>
</g>
<g id="encuesta-6">
<circle id="encuesta-6-cup" class="encuesta sigmados cup" cx="585.3208" cy="281.6162" r="3.937" ></circle>
<circle id="encuesta-6-erc" class="encuesta sigmados erc" cx="585.3208" cy="151.5152" r="3.937" ></circle>
<circle id="encuesta-6-jxcat" class="encuesta sigmados jxcat" cx="585.3208" cy="199.1919" r="3.937" ></circle>
<circle id="encuesta-6-cec" class="encuesta sigmados cec" cx="585.3208" cy="271.1111" r="3.937" ></circle>
<circle id="encuesta-6-psc" class="encuesta sigmados psc" cx="585.3208" cy="208.8889" r="3.937" ></circle>
<circle id="encuesta-6-cs" class="encuesta sigmados cs" cx="585.3208" cy="149.0909" r="3.937" ></circle>
<circle id="encuesta-6-pp" class="encuesta sigmados pp" cx="585.3208" cy="286.4646" r="3.937" ></circle>
<circle id="encuesta-6-otros" class="encuesta sigmados otros" cx="585.3208" cy="310.7071" r="3.937" ></circle>
</g>
<g id="encuesta-7">
<circle id="encuesta-7-cup" class="encuesta myword cup" cx="573.0203" cy="292.1212" r="3.1686" ></circle>
<circle id="encuesta-7-erc" class="encuesta myword erc" cx="573.0203" cy="136.9697" r="3.1686" ></circle>
<circle id="encuesta-7-jxcat" class="encuesta myword jxcat" cx="573.0203" cy="188.6869" r="3.1686" ></circle>
<circle id="encuesta-7-cec" class="encuesta myword cec" cx="573.0203" cy="260.6061" r="3.1686" ></circle>
<circle id="encuesta-7-psc" class="encuesta myword psc" cx="573.0203" cy="211.3131" r="3.1686" ></circle>
<circle id="encuesta-7-cs" class="encuesta myword cs" cx="573.0203" cy="152.3232" r="3.1686" ></circle>
<circle id="encuesta-7-pp" class="encuesta myword pp" cx="573.0203" cy="294.5455" r="3.1686" ></circle>
<circle id="encuesta-7-otros" class="encuesta myword otros" cx="573.0203" cy="322.0202" r="3.1686" ></circle>
</g>
<g id="encuesta-8">
<circle id="encuesta-8-cup" class="encuesta infortecnica cup" cx="573.0203" cy="291.3131" r="3.4871" ></circle>
<circle id="encuesta-8-erc" class="encuesta infortecnica erc" cx="573.0203" cy="142.6263" r="3.4871" ></circle>
<circle id="encuesta-8-jxcat" class="encuesta infortecnica jxcat" cx="573.0203" cy="183.8384" r="3.4871" ></circle>
<circle id="encuesta-8-cec" class="encuesta infortecnica cec" cx="573.0203" cy="288.8889" r="3.4871" ></circle>
<circle id="encuesta-8-psc" class="encuesta infortecnica psc" cx="573.0203" cy="193.5354" r="3.4871" ></circle>
<circle id="encuesta-8-cs" class="encuesta infortecnica cs" cx="573.0203" cy="142.6263" r="3.4871" ></circle>
<circle id="encuesta-8-pp" class="encuesta infortecnica pp" cx="573.0203" cy="282.4242" r="3.4871" ></circle>
<circle id="encuesta-8-otros" class="encuesta infortecnica otros" cx="573.0203" cy="333.3333" r="3.4871" ></circle>
</g>
<g id="encuesta-9">
<circle id="encuesta-9-cup" class="encuesta nc_report cup" cx="573.0203" cy="286.4646" r="3.1623" ></circle>
<circle id="encuesta-9-erc" class="encuesta nc_report erc" cx="573.0203" cy="152.3232" r="3.1623" ></circle>
<circle id="encuesta-9-jxcat" class="encuesta nc_report jxcat" cx="573.0203" cy="203.2323" r="3.1623" ></circle>
<circle id="encuesta-9-cec" class="encuesta nc_report cec" cx="573.0203" cy="271.9192" r="3.1623" ></circle>
<circle id="encuesta-9-psc" class="encuesta nc_report psc" cx="573.0203" cy="204.8485" r="3.1623" ></circle>
<circle id="encuesta-9-cs" class="encuesta nc_report cs" cx="573.0203" cy="157.1717" r="3.1623" ></circle>
<circle id="encuesta-9-pp" class="encuesta nc_report pp" cx="573.0203" cy="274.3434" r="3.1623" ></circle>
<circle id="encuesta-9-otros" class="encuesta nc_report otros" cx="573.0203" cy="308.2828" r="3.1623" ></circle>
</g>
<g id="encuesta-10">
<circle id="encuesta-10-cup" class="encuesta metroscopia cup" cx="573.0203" cy="281.6162" r="5.7446" ></circle>
<circle id="encuesta-10-erc" class="encuesta metroscopia erc" cx="573.0203" cy="146.6667" r="5.7446" ></circle>
<circle id="encuesta-10-jxcat" class="encuesta metroscopia jxcat" cx="573.0203" cy="217.7778" r="5.7446" ></circle>
<circle id="encuesta-10-cec" class="encuesta metroscopia cec" cx="573.0203" cy="258.1818" r="5.7446" ></circle>
<circle id="encuesta-10-psc" class="encuesta metroscopia psc" cx="573.0203" cy="217.7778" r="5.7446" ></circle>
<circle id="encuesta-10-cs" class="encuesta metroscopia cs" cx="573.0203" cy="129.697" r="5.7446" ></circle>
<circle id="encuesta-10-pp" class="encuesta metroscopia pp" cx="573.0203" cy="289.697" r="5.7446" ></circle>
<circle id="encuesta-10-otros" class="encuesta metroscopia otros" cx="573.0203" cy="317.1717" r="5.7446" ></circle>
</g>
<g id="encuesta-11">
<circle id="encuesta-11-cup" class="encuesta sociometrica cup" cx="564.82" cy="290.5051" r="3.3166" ></circle>
<circle id="encuesta-11-erc" class="encuesta sociometrica erc" cx="564.82" cy="159.596" r="3.3166" ></circle>
<circle id="encuesta-11-jxcat" class="encuesta sociometrica jxcat" cx="564.82" cy="166.8687" r="3.3166" ></circle>
<circle id="encuesta-11-cec" class="encuesta sociometrica cec" cx="564.82" cy="259.798" r="3.3166" ></circle>
<circle id="encuesta-11-psc" class="encuesta sociometrica psc" cx="564.82" cy="215.3535" r="3.3166" ></circle>
<circle id="encuesta-11-cs" class="encuesta sociometrica cs" cx="564.82" cy="156.3636" r="3.3166" ></circle>
<circle id="encuesta-11-pp" class="encuesta sociometrica pp" cx="564.82" cy="292.9293" r="3.3166" ></circle>
<circle id="encuesta-11-otros" class="encuesta sociometrica otros" cx="564.82" cy="317.1717" r="3.3166" ></circle>
</g>
<g id="encuesta-12">
<circle id="encuesta-12-cup" class="encuesta feedback cup" cx="573.0203" cy="271.1111" r="3.1623" ></circle>
<circle id="encuesta-12-erc" class="encuesta feedback erc" cx="573.0203" cy="164.4444" r="3.1623" ></circle>
<circle id="encuesta-12-jxcat" class="encuesta feedback jxcat" cx="573.0203" cy="185.4545" r="3.1623" ></circle>
<circle id="encuesta-12-cec" class="encuesta feedback cec" cx="573.0203" cy="267.0707" r="3.1623" ></circle>
<circle id="encuesta-12-psc" class="encuesta feedback psc" cx="573.0203" cy="210.5051" r="3.1623" ></circle>
<circle id="encuesta-12-cs" class="encuesta feedback cs" cx="573.0203" cy="142.6263" r="3.1623" ></circle>
<circle id="encuesta-12-pp" class="encuesta feedback pp" cx="573.0203" cy="289.697" r="3.1623" ></circle>
<circle id="encuesta-12-otros" class="encuesta feedback otros" cx="573.0203" cy="327.6768" r="3.1623" ></circle>
</g>
<g id="encuesta-13">
<circle id="encuesta-13-cup" class="encuesta sociometrica cup" cx="556.6197" cy="285.6566" r="3.3166" ></circle>
<circle id="encuesta-13-erc" class="encuesta sociometrica erc" cx="556.6197" cy="160.404" r="3.3166" ></circle>
<circle id="encuesta-13-jxcat" class="encuesta sociometrica jxcat" cx="556.6197" cy="161.2121" r="3.3166" ></circle>
<circle id="encuesta-13-cec" class="encuesta sociometrica cec" cx="556.6197" cy="267.0707" r="3.3166" ></circle>
<circle id="encuesta-13-psc" class="encuesta sociometrica psc" cx="556.6197" cy="219.3939" r="3.3166" ></circle>
<circle id="encuesta-13-cs" class="encuesta sociometrica cs" cx="556.6197" cy="162.0202" r="3.3166" ></circle>
<circle id="encuesta-13-pp" class="encuesta sociometrica pp" cx="556.6197" cy="284.0404" r="3.3166" ></circle>
<circle id="encuesta-13-otros" class="encuesta sociometrica otros" cx="556.6197" cy="318.7879" r="3.3166" ></circle>
</g>
<g id="encuesta-14">
<circle id="encuesta-14-cup" class="encuesta feedback cup" cx="556.6197" cy="273.5354" r="3.1623" ></circle>
<circle id="encuesta-14-erc" class="encuesta feedback erc" cx="556.6197" cy="153.1313" r="3.1623" ></circle>
<circle id="encuesta-14-jxcat" class="encuesta feedback jxcat" cx="556.6197" cy="180.6061" r="3.1623" ></circle>
<circle id="encuesta-14-cec" class="encuesta feedback cec" cx="556.6197" cy="273.5354" r="3.1623" ></circle>
<circle id="encuesta-14-psc" class="encuesta feedback psc" cx="556.6197" cy="204.8485" r="3.1623" ></circle>
<circle id="encuesta-14-cs" class="encuesta feedback cs" cx="556.6197" cy="161.2121" r="3.1623" ></circle>
<circle id="encuesta-14-pp" class="encuesta feedback pp" cx="556.6197" cy="284.0404" r="3.1623" ></circle>
<circle id="encuesta-14-otros" class="encuesta feedback otros" cx="556.6197" cy="327.6768" r="3.1623" ></circle>
</g>
<g id="encuesta-15">
<circle id="encuesta-15-cup" class="encuesta infortecnica cup" cx="552.5196" cy="282.4242" r="3.4871" ></circle>
<circle id="encuesta-15-erc" class="encuesta infortecnica erc" cx="552.5196" cy="145.0505" r="3.4871" ></circle>
<circle id="encuesta-15-jxcat" class="encuesta infortecnica jxcat" cx="552.5196" cy="180.6061" r="3.4871" ></circle>
<circle id="encuesta-15-cec" class="encuesta infortecnica cec" cx="552.5196" cy="291.3131" r="3.4871" ></circle>
<circle id="encuesta-15-psc" class="encuesta infortecnica psc" cx="552.5196" cy="201.6162" r="3.4871" ></circle>
<circle id="encuesta-15-cs" class="encuesta infortecnica cs" cx="552.5196" cy="136.1616" r="3.4871" ></circle>
<circle id="encuesta-15-pp" class="encuesta infortecnica pp" cx="552.5196" cy="288.0808" r="3.4871" ></circle>
<circle id="encuesta-15-otros" class="encuesta infortecnica otros" cx="552.5196" cy="333.3333" r="3.4871" ></circle>
</g>
<g id="encuesta-16">
<circle id="encuesta-16-cup" class="encuesta celeste-tel cup" cx="552.5196" cy="280" r="2.8284" ></circle>
<circle id="encuesta-16-erc" class="encuesta celeste-tel erc" cx="552.5196" cy="148.2828" r="2.8284" ></circle>
<circle id="encuesta-16-jxcat" class="encuesta celeste-tel jxcat" cx="552.5196" cy="202.4242" r="2.8284" ></circle>
<circle id="encuesta-16-cec" class="encuesta celeste-tel cec" cx="552.5196" cy="267.8788" r="2.8284" ></circle>
<circle id="encuesta-16-psc" class="encuesta celeste-tel psc" cx="552.5196" cy="203.2323" r="2.8284" ></circle>
<circle id="encuesta-16-cs" class="encuesta celeste-tel cs" cx="552.5196" cy="153.9394" r="2.8284" ></circle>
<circle id="encuesta-16-pp" class="encuesta celeste-tel pp" cx="552.5196" cy="279.1919" r="2.8284" ></circle>
<circle id="encuesta-16-otros" class="encuesta celeste-tel otros" cx="552.5196" cy="323.6364" r="2.8284" ></circle>
</g>
<g id="encuesta-17">
<circle id="encuesta-17-cup" class="encuesta sociometrica cup" cx="548.4194" cy="288.8889" r="3.3166" ></circle>
<circle id="encuesta-17-erc" class="encuesta sociometrica erc" cx="548.4194" cy="151.5152" r="3.3166" ></circle>
<circle id="encuesta-17-jxcat" class="encuesta sociometrica jxcat" cx="548.4194" cy="173.3333" r="3.3166" ></circle>
<circle id="encuesta-17-cec" class="encuesta sociometrica cec" cx="548.4194" cy="273.5354" r="3.3166" ></circle>
<circle id="encuesta-17-psc" class="encuesta sociometrica psc" cx="548.4194" cy="216.9697" r="3.3166" ></circle>
<circle id="encuesta-17-cs" class="encuesta sociometrica cs" cx="548.4194" cy="159.596" r="3.3166" ></circle>
<circle id="encuesta-17-pp" class="encuesta sociometrica pp" cx="548.4194" cy="289.697" r="3.3166" ></circle>
<circle id="encuesta-17-otros" class="encuesta sociometrica otros" cx="548.4194" cy="305.0505" r="3.3166" ></circle>
</g>
<g id="encuesta-18">
<circle id="encuesta-18-cup" class="encuesta gad3 cup" cx="560.7199" cy="292.9293" r="3.1623" ></circle>
<circle id="encuesta-18-erc" class="encuesta gad3 erc" cx="560.7199" cy="159.596" r="3.1623" ></circle>
<circle id="encuesta-18-jxcat" class="encuesta gad3 jxcat" cx="560.7199" cy="186.2626" r="3.1623" ></circle>
<circle id="encuesta-18-cec" class="encuesta gad3 cec" cx="560.7199" cy="273.5354" r="3.1623" ></circle>
<circle id="encuesta-18-psc" class="encuesta gad3 psc" cx="560.7199" cy="200" r="3.1623" ></circle>
<circle id="encuesta-18-cs" class="encuesta gad3 cs" cx="560.7199" cy="146.6667" r="3.1623" ></circle>
<circle id="encuesta-18-pp" class="encuesta gad3 pp" cx="560.7199" cy="275.9596" r="3.1623" ></circle>
<circle id="encuesta-18-otros" class="encuesta gad3 otros" cx="560.7199" cy="323.6364" r="3.1623" ></circle>
</g>
<g id="encuesta-19">
<circle id="encuesta-19-cup" class="encuesta feedback cup" cx="556.6197" cy="275.9596" r="3" ></circle>
<circle id="encuesta-19-erc" class="encuesta feedback erc" cx="556.6197" cy="146.6667" r="3" ></circle>
<circle id="encuesta-19-jxcat" class="encuesta feedback jxcat" cx="556.6197" cy="195.9596" r="3" ></circle>
<circle id="encuesta-19-cec" class="encuesta feedback cec" cx="556.6197" cy="268.6869" r="3" ></circle>
<circle id="encuesta-19-psc" class="encuesta feedback psc" cx="556.6197" cy="209.697" r="3" ></circle>
<circle id="encuesta-19-cs" class="encuesta feedback cs" cx="556.6197" cy="147.4747" r="3" ></circle>
<circle id="encuesta-19-pp" class="encuesta feedback pp" cx="556.6197" cy="288.8889" r="3" ></circle>
<circle id="encuesta-19-otros" class="encuesta feedback otros" cx="556.6197" cy="325.2525" r="3" ></circle>
</g>
<g id="encuesta-20">
<circle id="encuesta-20-cup" class="encuesta feedback cup" cx="548.4194" cy="281.6162" r="3.1623" ></circle>
<circle id="encuesta-20-erc" class="encuesta feedback erc" cx="548.4194" cy="139.3939" r="3.1623" ></circle>
<circle id="encuesta-20-jxcat" class="encuesta feedback jxcat" cx="548.4194" cy="195.1515" r="3.1623" ></circle>
<circle id="encuesta-20-cec" class="encuesta feedback cec" cx="548.4194" cy="258.1818" r="3.1623" ></circle>
<circle id="encuesta-20-psc" class="encuesta feedback psc" cx="548.4194" cy="224.2424" r="3.1623" ></circle>
<circle id="encuesta-20-cs" class="encuesta feedback cs" cx="548.4194" cy="149.0909" r="3.1623" ></circle>
<circle id="encuesta-20-pp" class="encuesta feedback pp" cx="548.4194" cy="283.2323" r="3.1623" ></circle>
<circle id="encuesta-20-otros" class="encuesta feedback otros" cx="548.4194" cy="327.6768" r="3.1623" ></circle>
</g>
<g id="encuesta-21">
<circle id="encuesta-21-cup" class="encuesta gesop cup" cx="540.2191" cy="284.8485" r="2.8284" ></circle>
<circle id="encuesta-21-erc" class="encuesta gesop erc" cx="540.2191" cy="167.6768" r="2.8284" ></circle>
<circle id="encuesta-21-jxcat" class="encuesta gesop jxcat" cx="540.2191" cy="177.3737" r="2.8284" ></circle>
<circle id="encuesta-21-cec" class="encuesta gesop cec" cx="540.2191" cy="264.6465" r="2.8284" ></circle>
<circle id="encuesta-21-psc" class="encuesta gesop psc" cx="540.2191" cy="179.798" r="2.8284" ></circle>
<circle id="encuesta-21-cs" class="encuesta gesop cs" cx="540.2191" cy="179.798" r="2.8284" ></circle>
<circle id="encuesta-21-pp" class="encuesta gesop pp" cx="540.2191" cy="286.4646" r="2.8284" ></circle>
<circle id="encuesta-21-otros" class="encuesta gesop otros" cx="540.2191" cy="317.9798" r="2.8284" ></circle>
</g>
<g id="encuesta-22">
<circle id="encuesta-22-cup" class="encuesta sociometrica cup" cx="532.0188" cy="284.8485" r="2.8284" ></circle>
<circle id="encuesta-22-erc" class="encuesta sociometrica erc" cx="532.0188" cy="146.6667" r="2.8284" ></circle>
<circle id="encuesta-22-jxcat" class="encuesta sociometrica jxcat" cx="532.0188" cy="179.798" r="2.8284" ></circle>
<circle id="encuesta-22-cec" class="encuesta sociometrica cec" cx="532.0188" cy="281.6162" r="2.8284" ></circle>
<circle id="encuesta-22-psc" class="encuesta sociometrica psc" cx="532.0188" cy="210.5051" r="2.8284" ></circle>
<circle id="encuesta-22-cs" class="encuesta sociometrica cs" cx="532.0188" cy="167.6768" r="2.8284" ></circle>
<circle id="encuesta-22-pp" class="encuesta sociometrica pp" cx="532.0188" cy="283.2323" r="2.8284" ></circle>
<circle id="encuesta-22-otros" class="encuesta sociometrica otros" cx="532.0188" cy="304.2424" r="2.8284" ></circle>
</g>
<g id="encuesta-23">
<circle id="encuesta-23-cup" class="encuesta cis cup" cx="515.6182" cy="279.1919" r="5.4772" ></circle>
<circle id="encuesta-23-erc" class="encuesta cis erc" cx="515.6182" cy="165.2525" r="5.4772" ></circle>
<circle id="encuesta-23-jxcat" class="encuesta cis jxcat" cx="515.6182" cy="196.7677" r="5.4772" ></circle>
<circle id="encuesta-23-cec" class="encuesta cis cec" cx="515.6182" cy="263.8384" r="5.4772" ></circle>
<circle id="encuesta-23-psc" class="encuesta cis psc" cx="515.6182" cy="204.0404" r="5.4772" ></circle>
<circle id="encuesta-23-cs" class="encuesta cis cs" cx="515.6182" cy="151.5152" r="5.4772" ></circle>
<circle id="encuesta-23-pp" class="encuesta cis pp" cx="515.6182" cy="286.4646" r="5.4772" ></circle>
<circle id="encuesta-23-otros" class="encuesta cis otros" cx="515.6182" cy="311.5152" r="5.4772" ></circle>
</g>
<g id="encuesta-24">
<circle id="encuesta-24-cup" class="encuesta nc_report cup" cx="486.9171" cy="287.2727" r="3.1623" ></circle>
<circle id="encuesta-24-erc" class="encuesta nc_report erc" cx="486.9171" cy="138.5859" r="3.1623" ></circle>
<circle id="encuesta-24-jxcat" class="encuesta nc_report jxcat" cx="486.9171" cy="223.4343" r="3.1623" ></circle>
<circle id="encuesta-24-cec" class="encuesta nc_report cec" cx="486.9171" cy="265.4545" r="3.1623" ></circle>
<circle id="encuesta-24-psc" class="encuesta nc_report psc" cx="486.9171" cy="214.5455" r="3.1623" ></circle>
<circle id="encuesta-24-cs" class="encuesta nc_report cs" cx="486.9171" cy="164.4444" r="3.1623" ></circle>
<circle id="encuesta-24-pp" class="encuesta nc_report pp" cx="486.9171" cy="258.1818" r="3.1623" ></circle>
<circle id="encuesta-24-otros" class="encuesta nc_report otros" cx="486.9171" cy="306.6667" r="3.1623" ></circle>
</g>
<g id="encuesta-25">
<circle id="encuesta-25-cup" class="encuesta metroscopia cup" cx="499.2175" cy="285.6566" r="4.2426" ></circle>
<circle id="encuesta-25-erc" class="encuesta metroscopia erc" cx="499.2175" cy="119.1919" r="4.2426" ></circle>
<circle id="encuesta-25-jxcat" class="encuesta metroscopia jxcat" cx="499.2175" cy="223.4343" r="4.2426" ></circle>
<circle id="encuesta-25-cec" class="encuesta metroscopia cec" cx="499.2175" cy="279.1919" r="4.2426" ></circle>
<circle id="encuesta-25-psc" class="encuesta metroscopia psc" cx="499.2175" cy="212.9293" r="4.2426" ></circle>
<circle id="encuesta-25-cs" class="encuesta metroscopia cs" cx="499.2175" cy="128.8889" r="4.2426" ></circle>
<circle id="encuesta-25-pp" class="encuesta metroscopia pp" cx="499.2175" cy="286.4646" r="4.2426" ></circle>
<circle id="encuesta-25-otros" class="encuesta metroscopia otros" cx="499.2175" cy="322.8283" r="4.2426" ></circle>
</g>
<g id="encuesta-26">
<circle id="encuesta-26-cup" class="encuesta gesop cup" cx="482.8169" cy="282.4242" r="2.8284" ></circle>
<circle id="encuesta-26-erc" class="encuesta gesop erc" cx="482.8169" cy="140.202" r="2.8284" ></circle>
<circle id="encuesta-26-jxcat" class="encuesta gesop jxcat" cx="482.8169" cy="200" r="2.8284" ></circle>
<circle id="encuesta-26-cec" class="encuesta gesop cec" cx="482.8169" cy="263.8384" r="2.8284" ></circle>
<circle id="encuesta-26-psc" class="encuesta gesop psc" cx="482.8169" cy="187.0707" r="2.8284" ></circle>
<circle id="encuesta-26-cs" class="encuesta gesop cs" cx="482.8169" cy="183.0303" r="2.8284" ></circle>
<circle id="encuesta-26-pp" class="encuesta gesop pp" cx="482.8169" cy="287.2727" r="2.8284" ></circle>
<circle id="encuesta-26-otros" class="encuesta gesop otros" cx="482.8169" cy="314.7475" r="2.8284" ></circle>
</g>
<g id="encuesta-27">
<circle id="encuesta-27-cup" class="encuesta gad3 cup" cx="474.6166" cy="288.0808" r="2.8302" ></circle>
<circle id="encuesta-27-erc" class="encuesta gad3 erc" cx="474.6166" cy="146.6667" r="2.8302" ></circle>
<circle id="encuesta-27-jxcat" class="encuesta gad3 jxcat" cx="474.6166" cy="198.3838" r="2.8302" ></circle>
<circle id="encuesta-27-cec" class="encuesta gad3 cec" cx="474.6166" cy="271.9192" r="2.8302" ></circle>
<circle id="encuesta-27-psc" class="encuesta gad3 psc" cx="474.6166" cy="211.3131" r="2.8302" ></circle>
<circle id="encuesta-27-cs" class="encuesta gad3 cs" cx="474.6166" cy="153.1313" r="2.8302" ></circle>
<circle id="encuesta-27-pp" class="encuesta gad3 pp" cx="474.6166" cy="270.303" r="2.8302" ></circle>
<circle id="encuesta-27-otros" class="encuesta gad3 otros" cx="474.6166" cy="318.7879" r="2.8302" ></circle>
</g>
<g id="encuesta-28">
<circle id="encuesta-28-cup" class="encuesta nc_report cup" cx="417.2144" cy="282.4242" r="3.1623" ></circle>
<circle id="encuesta-28-erc" class="encuesta nc_report erc" cx="417.2144" cy="120.8081" r="3.1623" ></circle>
<circle id="encuesta-28-jxcat" class="encuesta nc_report jxcat" cx="417.2144" cy="246.8687" r="3.1623" ></circle>
<circle id="encuesta-28-cec" class="encuesta nc_report cec" cx="417.2144" cy="249.2929" r="3.1623" ></circle>
<circle id="encuesta-28-psc" class="encuesta nc_report psc" cx="417.2144" cy="223.4343" r="3.1623" ></circle>
<circle id="encuesta-28-cs" class="encuesta nc_report cs" cx="417.2144" cy="174.9495" r="3.1623" ></circle>
<circle id="encuesta-28-pp" class="encuesta nc_report pp" cx="417.2144" cy="248.4848" r="3.1623" ></circle>
<circle id="encuesta-28-otros" class="encuesta nc_report otros" cx="417.2144" cy="312.3232" r="3.1623" ></circle>
</g>
<g id="encuesta-29">
<circle id="encuesta-29-cup" class="encuesta gad3 cup" cx="417.2144" cy="282.4242" r="3.5114" ></circle>
<circle id="encuesta-29-erc" class="encuesta gad3 erc" cx="417.2144" cy="96.5657" r="3.5114" ></circle>
<circle id="encuesta-29-jxcat" class="encuesta gad3 jxcat" cx="417.2144" cy="249.2929" r="3.5114" ></circle>
<circle id="encuesta-29-cec" class="encuesta gad3 cec" cx="417.2144" cy="266.2626" r="3.5114" ></circle>
<circle id="encuesta-29-psc" class="encuesta gad3 psc" cx="417.2144" cy="215.3535" r="3.5114" ></circle>
<circle id="encuesta-29-cs" class="encuesta gad3 cs" cx="417.2144" cy="166.8687" r="3.5114" ></circle>
<circle id="encuesta-29-pp" class="encuesta gad3 pp" cx="417.2144" cy="263.0303" r="3.5114" ></circle>
<circle id="encuesta-29-otros" class="encuesta gad3 otros" cx="417.2144" cy="318.7879" r="3.5114" ></circle>
</g>
<g id="encuesta-30">
<circle id="encuesta-30-cup" class="encuesta sociometrica cup" cx="404.9139" cy="287.2727" r="3.1623" ></circle>
<circle id="encuesta-30-erc" class="encuesta sociometrica erc" cx="404.9139" cy="81.2121" r="3.1623" ></circle>
<circle id="encuesta-30-jxcat" class="encuesta sociometrica jxcat" cx="404.9139" cy="251.7172" r="3.1623" ></circle>
<circle id="encuesta-30-cec" class="encuesta sociometrica cec" cx="404.9139" cy="252.5253" r="3.1623" ></circle>
<circle id="encuesta-30-psc" class="encuesta sociometrica psc" cx="404.9139" cy="234.7475" r="3.1623" ></circle>
<circle id="encuesta-30-cs" class="encuesta sociometrica cs" cx="404.9139" cy="185.4545" r="3.1623" ></circle>
<circle id="encuesta-30-pp" class="encuesta sociometrica pp" cx="404.9139" cy="260.6061" r="3.1623" ></circle>
<circle id="encuesta-30-otros" class="encuesta sociometrica otros" cx="404.9139" cy="305.0505" r="3.1623" ></circle>
</g>
<g id="encuesta-31">
<circle id="encuesta-31-cup" class="encuesta sigmados cup" cx="388.5133" cy="282.4242" r="3.1623" ></circle>
<circle id="encuesta-31-erc" class="encuesta sigmados erc" cx="388.5133" cy="120" r="3.1623" ></circle>
<circle id="encuesta-31-jxcat" class="encuesta sigmados jxcat" cx="388.5133" cy="254.1414" r="3.1623" ></circle>
<circle id="encuesta-31-cec" class="encuesta sigmados cec" cx="388.5133" cy="244.4444" r="3.1623" ></circle>
<circle id="encuesta-31-psc" class="encuesta sigmados psc" cx="388.5133" cy="211.3131" r="3.1623" ></circle>
<circle id="encuesta-31-cs" class="encuesta sigmados cs" cx="388.5133" cy="174.9495" r="3.1623" ></circle>
<circle id="encuesta-31-pp" class="encuesta sigmados pp" cx="388.5133" cy="263.0303" r="3.1623" ></circle>
<circle id="encuesta-31-otros" class="encuesta sigmados otros" cx="388.5133" cy="308.2828" r="3.1623" ></circle>
</g>
<g id="encuesta-32">
<circle id="encuesta-32-cup" class="encuesta nc_report cup" cx="363.9124" cy="288.0808" r="3.1623" ></circle>
<circle id="encuesta-32-erc" class="encuesta nc_report erc" cx="363.9124" cy="134.5455" r="3.1623" ></circle>
<circle id="encuesta-32-jxcat" class="encuesta nc_report jxcat" cx="363.9124" cy="235.5556" r="3.1623" ></circle>
<circle id="encuesta-32-cec" class="encuesta nc_report cec" cx="363.9124" cy="241.2121" r="3.1623" ></circle>
<circle id="encuesta-32-psc" class="encuesta nc_report psc" cx="363.9124" cy="227.4747" r="3.1623" ></circle>
<circle id="encuesta-32-cs" class="encuesta nc_report cs" cx="363.9124" cy="178.1818" r="3.1623" ></circle>
<circle id="encuesta-32-pp" class="encuesta nc_report pp" cx="363.9124" cy="248.4848" r="3.1623" ></circle>
<circle id="encuesta-32-otros" class="encuesta nc_report otros" cx="363.9124" cy="305.0505" r="3.1623" ></circle>
</g>
<g id="encuesta-33">
<circle id="encuesta-33-cup" class="encuesta gesop cup" cx="359.8122" cy="270.303" r="2.8284" ></circle>
<circle id="encuesta-33-erc" class="encuesta gesop erc" cx="359.8122" cy="106.2626" r="2.8284" ></circle>
<circle id="encuesta-33-jxcat" class="encuesta gesop jxcat" cx="359.8122" cy="236.3636" r="2.8284" ></circle>
<circle id="encuesta-33-cec" class="encuesta gesop cec" cx="359.8122" cy="260.6061" r="2.8284" ></circle>
<circle id="encuesta-33-psc" class="encuesta gesop psc" cx="359.8122" cy="216.1616" r="2.8284" ></circle>
<circle id="encuesta-33-cs" class="encuesta gesop cs" cx="359.8122" cy="197.5758" r="2.8284" ></circle>
<circle id="encuesta-33-pp" class="encuesta gesop pp" cx="359.8122" cy="272.7273" r="2.8284" ></circle>
<circle id="encuesta-33-otros" class="encuesta gesop otros" cx="359.8122" cy="298.5859" r="2.8284" ></circle>
</g>
<g id="encuesta-34">
<circle id="encuesta-34-cup" class="encuesta sociometrica cup" cx="314.7105" cy="282.4242" r="2.8284" ></circle>
<circle id="encuesta-34-erc" class="encuesta sociometrica erc" cx="314.7105" cy="76.3636" r="2.8284" ></circle>
<circle id="encuesta-34-jxcat" class="encuesta sociometrica jxcat" cx="314.7105" cy="267.8788" r="2.8284" ></circle>
<circle id="encuesta-34-cec" class="encuesta sociometrica cec" cx="314.7105" cy="236.3636" r="2.8284" ></circle>
<circle id="encuesta-34-psc" class="encuesta sociometrica psc" cx="314.7105" cy="256.5657" r="2.8284" ></circle>
<circle id="encuesta-34-cs" class="encuesta sociometrica cs" cx="314.7105" cy="185.4545" r="2.8284" ></circle>
<circle id="encuesta-34-pp" class="encuesta sociometrica pp" cx="314.7105" cy="251.7172" r="2.8284" ></circle>
<circle id="encuesta-34-otros" class="encuesta sociometrica otros" cx="314.7105" cy="301.8182" r="2.8284" ></circle>
</g>
<g id="encuesta-35">
<circle id="encuesta-35-cup" class="encuesta nc_report cup" cx="245.0078" cy="288.0808" r="3.5426" ></circle>
<circle id="encuesta-35-erc" class="encuesta nc_report erc" cx="245.0078" cy="130.5051" r="3.5426" ></circle>
<circle id="encuesta-35-jxcat" class="encuesta nc_report jxcat" cx="245.0078" cy="230.7071" r="3.5426" ></circle>
<circle id="encuesta-35-cec" class="encuesta nc_report cec" cx="245.0078" cy="239.596" r="3.5426" ></circle>
<circle id="encuesta-35-psc" class="encuesta nc_report psc" cx="245.0078" cy="222.6263" r="3.5426" ></circle>
<circle id="encuesta-35-cs" class="encuesta nc_report cs" cx="245.0078" cy="194.3434" r="3.5426" ></circle>
<circle id="encuesta-35-pp" class="encuesta nc_report pp" cx="245.0078" cy="246.0606" r="3.5426" ></circle>
<circle id="encuesta-35-otros" class="encuesta nc_report otros" cx="245.0078" cy="306.6667" r="3.5426" ></circle>
</g>
<g id="encuesta-36">
<circle id="encuesta-36-cup" class="encuesta celeste-tel cup" cx="220.4069" cy="285.6566" r="2.8284" ></circle>
<circle id="encuesta-36-erc" class="encuesta celeste-tel erc" cx="220.4069" cy="133.7374" r="2.8284" ></circle>
<circle id="encuesta-36-jxcat" class="encuesta celeste-tel jxcat" cx="220.4069" cy="223.4343" r="2.8284" ></circle>
<circle id="encuesta-36-cec" class="encuesta celeste-tel cec" cx="220.4069" cy="234.7475" r="2.8284" ></circle>
<circle id="encuesta-36-psc" class="encuesta celeste-tel psc" cx="220.4069" cy="213.7374" r="2.8284" ></circle>
<circle id="encuesta-36-cs" class="encuesta celeste-tel cs" cx="220.4069" cy="192.7273" r="2.8284" ></circle>
<circle id="encuesta-36-pp" class="encuesta celeste-tel pp" cx="220.4069" cy="257.3737" r="2.8284" ></circle>
<circle id="encuesta-36-otros" class="encuesta celeste-tel otros" cx="220.4069" cy="317.1717" r="2.8284" ></circle>
</g>
<g id="encuesta-37">
<circle id="encuesta-37-cup" class="encuesta sociometrica cup" cx="158.9045" cy="278.3838" r="2.6458" ></circle>
<circle id="encuesta-37-erc" class="encuesta sociometrica erc" cx="158.9045" cy="107.0707" r="2.6458" ></circle>
<circle id="encuesta-37-jxcat" class="encuesta sociometrica jxcat" cx="158.9045" cy="230.7071" r="2.6458" ></circle>
<circle id="encuesta-37-cec" class="encuesta sociometrica cec" cx="158.9045" cy="249.2929" r="2.6458" ></circle>
<circle id="encuesta-37-psc" class="encuesta sociometrica psc" cx="158.9045" cy="251.7172" r="2.6458" ></circle>
<circle id="encuesta-37-cs" class="encuesta sociometrica cs" cx="158.9045" cy="190.303" r="2.6458" ></circle>
<circle id="encuesta-37-pp" class="encuesta sociometrica pp" cx="158.9045" cy="248.4848" r="2.6458" ></circle>
<circle id="encuesta-37-otros" class="encuesta sociometrica otros" cx="158.9045" cy="302.6263" r="2.6458" ></circle>
</g>
<g id="encuesta-38">
<circle id="encuesta-38-cup" class="encuesta nc_report cup" cx="68.7011" cy="280.8081" r="3.5426" ></circle>
<circle id="encuesta-38-erc" class="encuesta nc_report erc" cx="68.7011" cy="140.202" r="3.5426" ></circle>
<circle id="encuesta-38-jxcat" class="encuesta nc_report jxcat" cx="68.7011" cy="221.0101" r="3.5426" ></circle>
<circle id="encuesta-38-cec" class="encuesta nc_report cec" cx="68.7011" cy="235.5556" r="3.5426" ></circle>
<circle id="encuesta-38-psc" class="encuesta nc_report psc" cx="68.7011" cy="221.0101" r="3.5426" ></circle>
<circle id="encuesta-38-cs" class="encuesta nc_report cs" cx="68.7011" cy="191.9192" r="3.5426" ></circle>
<circle id="encuesta-38-pp" class="encuesta nc_report pp" cx="68.7011" cy="256.5657" r="3.5426" ></circle>
<circle id="encuesta-38-otros" class="encuesta nc_report otros" cx="68.7011" cy="311.5152" r="3.5426" ></circle>
</g>
  
<text class="pie izquierda" x="0" y="390">Datos: Electograph | Modelo propio</text>
<text class="pie derecha" x="800" y="390">Jesús Carro | <tspan style="font-weight:bold">1datomas</tspan>.com</text>
</svg>
