<?xml version="1.0" encoding="utf-8"?><!DOCTYPE svg PUBLIC "-//W3C//DTD SVG 1.1//EN" "http://www.w3.org/Graphics/SVG/1.1/DTD/svg11.dtd">
<svg xmlns="http://www.w3.org/2000/svg" xmlns:xlink="http://www.w3.org/1999/xlink" version="1.1" viewBox="0 0 800 400">

<text x="0" y="20" style="font-size:large;font-weight:bold;color:black">Intención de voto en Elecciones Autonómicas en Cataluña</text>
<text x="0" y="40" style="color:gray">Promedio de encuestas y estimación de error</text>

<text class="horizontal axis" x="36" y="333.3333">0%</text>
<line class="horizontal axis" x1="40" y1="333.3333" x2="622.2222" y2="333.3333"></line>
<text class="horizontal axis" x="36" y="252.5253">10%</text>
<line class="horizontal axis" x1="40" y1="252.5253" x2="622.2222" y2="252.5253"></line>
<text class="horizontal axis" x="36" y="171.7172">20%</text>
<line class="horizontal axis" x1="40" y1="171.7172" x2="622.2222" y2="171.7172"></line>
<text class="horizontal axis" x="36" y="90.9091">30%</text>
<line class="horizontal axis" x1="40" y1="90.9091" x2="622.2222" y2="90.9091"></line>
<line class="vertical axis" x1="40" y1="336.6667" x2="40" y2="66.6667"></line>
<text class="vertical axis" x="40" y="343.3333">Ago-2017</text>
<line class="vertical axis" x1="183.2451" y1="336.6667" x2="183.2451" y2="66.6667"></line>
<text class="vertical axis" x="183.2451" y="343.3333">Sep-2017</text>
<line class="vertical axis" x1="321.8695" y1="336.6667" x2="321.8695" y2="66.6667"></line>
<text class="vertical axis" x="321.8695" y="343.3333">Oct-2017</text>
<line class="vertical axis" x1="465.1146" y1="336.6667" x2="465.1146" y2="66.6667"></line>
<text class="vertical axis" x="465.1146" y="343.3333">Nov-2017</text>
<line class="vertical axis" x1="603.739" y1="336.6667" x2="603.739" y2="66.6667"></line>
<text class="vertical axis" x="603.739" y="343.3333">Dic-2017</text>
<polyline id="media-cup"  class="cup media" points=" 40,281.7701 44.6208,281.7292 49.2416,281.6865 53.8624,281.6419 58.4832,281.596 63.1041,281.5502 67.7249,281.5075 72.3457,281.4712 76.9665,281.4458 81.5873,281.4372 86.2081,281.4565 90.8289,281.532 95.4497,281.6032 100.0705,281.6694 104.6914,281.7298 109.3122,281.784 113.933,281.8314 118.5538,281.8715 123.1746,281.9042 127.7954,281.9289 132.4162,281.9453 137.037,281.9531 141.6578,281.9519 146.2787,281.941 150.8995,281.92 155.5203,281.888 160.1411,281.8442 164.7619,281.7876 169.3827,281.7214 174.0035,281.6613 178.6243,281.6391 183.2451,281.7114 187.866,281.9957 192.4868,282.2653 197.1076,282.5212 201.7284,282.7643 206.3492,282.9958 210.97,283.2168 215.5908,283.4283 220.2116,283.6315 224.8325,283.8274 229.4533,284.0168 234.0741,284.2006 238.6949,284.3759 243.3157,284.5327 247.9365,284.6558 252.5573,284.7215 257.1781,284.8171 261.7989,284.9409 266.4198,285.0856 271.0406,285.2291 275.6614,285.3313 280.2822,285.3255 284.903,285.0593 289.5238,284.8167 294.1446,284.5952 298.7654,284.3928 303.3862,284.2073 308.0071,284.037 312.6279,283.8802 317.2487,283.7354 321.8695,283.6012 326.4903,283.4763 331.1111,283.3598 335.7319,283.2504 340.3527,283.1477 344.9735,283.0521 349.5944,282.9645 354.2152,282.8857 358.836,282.8165 363.4568,282.7569 368.0776,282.6871 372.6984,282.6072 377.3192,282.517 381.94,282.4156 386.5608,282.3015 391.1817,282.1726 395.8025,282.0425 400.4233,281.9673 405.0441,282.0631 409.6649,282.5618 414.2857,282.8809 418.9065,282.9716 423.5273,283.0574 428.1481,283.1363 432.769,283.2124 437.3898,283.2996 442.0106,283.4315 446.6314,283.558 451.2522,283.668 455.873,283.7395 460.4938,283.7399 465.1146,283.6167 469.7354,283.5287 474.3563,283.4939 478.9771,283.5586 483.5979,283.6231 488.2187,283.6884 492.8395,283.7547 497.4603,283.8223 502.0811,283.8912 506.7019,283.9616 511.3228,284.0334 515.9436,284.1069 520.5644,284.1823 525.1852,284.255 529.806,284.3067 534.4268,284.3029 539.0476,284.1858 543.6684,284.1101 548.2892,284.0942 552.9101,284.0745 557.5309,284.0378 562.1517,283.929 566.7725,283.5822 571.3933,283.1808 576.0141,282.804 580.6349,282.5142 585.2557,282.4059 589.8765,282.7184 594.4974,282.9617 599.1182,283.1345 603.739,283.2114 608.3598,283.2442 612.9806,283.2019 617.6014,283.1586 622.2222,283.1376"></polyline>
<polyline id="error-cup" class="cup error" points=" 40,259.8479 44.6208,260.3304 49.2416,260.8233 53.8624,261.4252 58.4832,262.2244 63.1041,263.0197 67.7249,263.7765 72.3457,264.4482 76.9665,264.9762 81.5873,265.2801 86.2081,265.2231 90.8289,264.4962 95.4497,263.882 100.0705,263.3735 104.6914,262.9636 109.3122,262.6457 113.933,262.4136 118.5538,262.2612 123.1746,262.183 127.7954,262.1737 132.4162,262.2284 137.037,262.3427 141.6578,262.5125 146.2787,262.7344 150.8995,263.0052 155.5203,263.3223 160.1411,263.6834 164.7619,264.0868 169.3827,264.5232 174.0035,264.9624 178.6243,265.3498 183.2451,265.5995 187.866,265.5656 192.4868,265.6287 197.1076,265.779 201.7284,266.0088 206.3492,266.3114 210.97,266.6819 215.5908,267.1162 220.2116,267.6112 224.8325,268.1651 229.4533,268.7766 234.0741,269.4456 238.6949,270.147 243.3157,270.7948 247.9365,271.2301 252.5573,271.1604 257.1781,271.2696 261.7989,271.5441 266.4198,271.9534 271.0406,272.4142 275.6614,272.7773 280.2822,272.7971 284.903,271.9503 289.5238,271.2452 294.1446,270.6665 298.7654,270.2015 303.3862,269.8392 308.0071,269.5699 312.6279,269.3853 317.2487,269.2781 321.8695,269.2418 326.4903,269.2708 331.1111,269.3605 335.7319,269.5066 340.3527,269.7025 344.9735,269.9321 349.5944,270.1672 354.2152,270.3652 358.836,270.4641 363.4568,270.3633 368.0776,270.3356 372.6984,270.3718 377.3192,270.464 381.94,270.6051 386.5608,270.7888 391.1817,271.0091 395.8025,271.2649 400.4233,271.5696 405.0441,271.9632 409.6649,272.5518 414.2857,272.9345 418.9065,272.9706 423.5273,273.1073 428.1481,273.3255 432.769,273.5845 437.3898,273.8166 442.0106,273.9124 446.6314,274.109 451.2522,274.3687 455.873,274.6305 460.4938,274.7998 465.1146,274.7166 469.7354,274.6799 474.3563,274.5847 478.9771,274.238 483.5979,273.9712 488.2187,273.7819 492.8395,273.6678 497.4603,273.6271 502.0811,273.6577 506.7019,273.7577 511.3228,273.9251 515.9436,274.1581 520.5644,274.455 525.1852,274.8019 529.806,275.1535 534.4268,275.4217 539.0476,275.4534 543.6684,275.5477 548.2892,275.6468 552.9101,275.8449 557.5309,276.0871 562.1517,276.1858 566.7725,275.671 571.3933,275.2224 576.0141,274.9204 580.6349,274.7356 585.2557,274.616 589.8765,274.4782 594.4974,274.4201 599.1182,274.3676 603.739,274.1553 608.3598,273.9305 612.9806,273.5152 617.6014,273.1341 622.2222,272.7228 622.2222,293.5523 617.6014,293.183 612.9806,292.8886 608.3598,292.558 603.739,292.2675 599.1182,291.9014 594.4974,291.5033 589.8765,290.9585 585.2557,290.1957 580.6349,290.2928 576.0141,290.6876 571.3933,291.1392 566.7725,291.4933 562.1517,291.6721 557.5309,291.9885 552.9101,292.3041 548.2892,292.5416 543.6684,292.6725 539.0476,292.9182 534.4268,293.1842 529.806,293.4599 525.1852,293.7081 520.5644,293.9096 515.9436,294.0556 511.3228,294.1417 506.7019,294.1655 502.0811,294.1248 497.4603,294.0175 492.8395,293.8416 488.2187,293.5949 483.5979,293.2751 478.9771,292.8792 474.3563,292.4031 469.7354,292.3775 465.1146,292.5167 460.4938,292.68 455.873,292.8486 451.2522,292.9672 446.6314,293.007 442.0106,292.9505 437.3898,292.7825 432.769,292.8402 428.1481,292.9472 423.5273,293.0074 418.9065,292.9726 414.2857,292.8274 409.6649,292.5719 405.0441,292.163 400.4233,292.3651 395.8025,292.8202 391.1817,293.3361 386.5608,293.8142 381.94,294.226 377.3192,294.57 372.6984,294.8427 368.0776,295.0386 363.4568,295.1505 358.836,295.1689 354.2152,295.4062 349.5944,295.7617 344.9735,296.1721 340.3527,296.5929 335.7319,296.9942 331.1111,297.3591 326.4903,297.6819 321.8695,297.9606 317.2487,298.1927 312.6279,298.3751 308.0071,298.5041 303.3862,298.5755 298.7654,298.584 294.1446,298.524 289.5238,298.3882 284.903,298.1683 280.2822,297.854 275.6614,297.8853 271.0406,298.0439 266.4198,298.2178 261.7989,298.3376 257.1781,298.3646 252.5573,298.2827 247.9365,298.0815 243.3157,298.2706 238.6949,298.6048 234.0741,298.9556 229.4533,299.257 224.8325,299.4897 220.2116,299.6518 215.5908,299.7405 210.97,299.7516 206.3492,299.6801 201.7284,299.5198 197.1076,299.2633 192.4868,298.902 187.866,298.4258 183.2451,297.8232 178.6243,297.9284 174.0035,298.3602 169.3827,298.9197 164.7619,299.4883 160.1411,300.0051 155.5203,300.4537 150.8995,300.8347 146.2787,301.1476 141.6578,301.3912 137.037,301.5636 132.4162,301.6623 127.7954,301.6841 123.1746,301.6253 118.5538,301.4818 113.933,301.2491 109.3122,300.9223 104.6914,300.4961 100.0705,299.9653 95.4497,299.3244 90.8289,298.5678 86.2081,297.6899 81.5873,297.5942 76.9665,297.9154 72.3457,298.4942 67.7249,299.2384 63.1041,300.0808 58.4832,300.9675 53.8624,301.8587 49.2416,302.5498 44.6208,303.1281 40,303.6923"></polyline>
<text class = "party cup" x="631.1111" y="296"><tspan class="party_name">CUP</tspan><tspan class="party_result"> (6.2±1.3%)</tspan></text>
<polyline id="media-erc"  class="erc media" points=" 40,131.5492 44.6208,131.8353 49.2416,132.1408 53.8624,132.4669 58.4832,132.8101 63.1041,133.1555 67.7249,133.4771 72.3457,133.7399 76.9665,133.8993 81.5873,133.8903 86.2081,133.5912 90.8289,132.694 95.4497,131.8026 100.0705,130.9228 104.6914,130.0588 109.3122,129.2139 113.933,128.3902 118.5538,127.5889 123.1746,126.8105 127.7954,126.0545 132.4162,125.3198 137.037,124.6051 141.6578,123.908 146.2787,123.226 150.8995,122.556 155.5203,121.8946 160.1411,121.2375 164.7619,120.5801 169.3827,119.9353 174.0035,119.3598 178.6243,118.9641 183.2451,118.9361 187.866,119.661 192.4868,120.318 197.1076,120.9178 201.7284,121.4703 206.3492,121.9847 210.97,122.4697 215.5908,122.9335 220.2116,123.3839 224.8325,123.8284 229.4533,124.2745 234.0741,124.7294 238.6949,125.1765 243.3157,125.5405 247.9365,125.6716 252.5573,125.2625 257.1781,124.9629 261.7989,124.7696 266.4198,124.6698 271.0406,124.6174 275.6614,124.5192 280.2822,124.2048 284.903,123.2712 289.5238,122.3434 294.1446,121.4214 298.7654,120.5041 303.3862,119.5897 308.0071,118.6754 312.6279,117.7581 317.2487,116.8336 321.8695,115.8973 326.4903,114.9436 331.1111,113.9659 335.7319,112.9566 340.3527,111.9257 344.9735,110.9336 349.5944,110.1045 354.2152,109.6383 358.836,109.8478 363.4568,111.2945 368.0776,112.5258 372.6984,113.57 377.3192,114.4509 381.94,115.1887 386.5608,115.8005 391.1817,116.3005 395.8025,116.7087 400.4233,117.0714 405.0441,117.4815 409.6649,118.1283 414.2857,118.3605 418.9065,117.944 423.5273,117.5437 428.1481,117.1455 432.769,116.7185 437.3898,116.1901 442.0106,115.3875 446.6314,114.5182 451.2522,113.6706 455.873,113.0292 460.4938,112.9054 465.1146,113.8559 469.7354,114.671 474.3563,115.6237 478.9771,117.3174 483.5979,119.021 488.2187,120.7247 492.8395,122.4178 497.4603,124.0894 502.0811,125.7283 506.7019,127.3235 511.3228,128.8647 515.9436,130.342 520.5644,131.7466 525.1852,133.0519 529.806,134.1926 534.4268,135.0582 539.0476,135.4711 543.6684,135.8285 548.2892,136.0263 552.9101,136.1664 557.5309,136.3251 562.1517,137.0077 566.7725,139.7441 571.3933,142.4642 576.0141,145.0041 580.6349,147.0366 585.2557,148.0855 589.8765,146.9793 594.4974,146.3502 599.1182,146.0645 603.739,145.9283 608.3598,145.6639 612.9806,144.6955 617.6014,143.8689 622.2222,143.2157"></polyline>
<polyline id="error-erc" class="erc error" points=" 40,88.7556 44.6208,89.7332 49.2416,90.7506 53.8624,92.0902 58.4832,94.0051 63.1041,95.9219 67.7249,97.7442 72.3457,99.3409 76.9665,100.5458 81.5873,101.1262 86.2081,100.675 90.8289,98.242 95.4497,96.0405 100.0705,94.0617 104.6914,92.2966 109.3122,90.7359 113.933,89.3701 118.5538,88.1894 123.1746,87.1843 127.7954,86.3452 132.4162,85.6629 137.037,85.1285 141.6578,84.7336 146.2787,84.4704 150.8995,84.3317 155.5203,84.311 160.1411,84.4025 164.7619,84.6014 169.3827,84.8971 174.0035,85.2605 178.6243,85.6358 183.2451,85.9365 187.866,86.0396 192.4868,86.2877 197.1076,86.6707 201.7284,87.1812 206.3492,87.8144 210.97,88.5675 215.5908,89.4396 220.2116,90.4316 224.8325,91.5461 229.4533,92.7878 234.0741,94.1635 238.6949,95.6148 243.3157,96.92 247.9365,97.6477 252.5573,96.9615 257.1781,96.6735 261.7989,96.7579 266.4198,97.158 271.0406,97.7115 275.6614,98.1137 280.2822,97.8449 284.903,95.7843 289.5238,93.963 294.1446,92.3535 298.7654,90.9323 303.3862,89.679 308.0071,88.5755 312.6279,87.6052 317.2487,86.753 321.8695,86.0045 326.4903,85.3461 331.1111,84.7647 335.7319,84.2472 340.3527,83.7925 344.9735,83.4304 349.5944,83.2302 354.2152,83.3087 358.836,83.8586 363.4568,85.2503 368.0776,86.5887 372.6984,87.8837 377.3192,89.1446 381.94,90.3802 386.5608,91.5986 391.1817,92.8075 395.8025,93.9979 400.4233,95.1274 405.0441,96.1291 409.6649,96.9235 414.2857,97.2601 418.9065,96.7216 423.5273,96.4115 428.1481,96.2814 432.769,96.2113 437.3898,95.9616 442.0106,95.0662 446.6314,94.3181 451.2522,93.7549 455.873,93.4864 460.4938,93.7047 465.1146,94.7567 469.7354,95.6919 474.3563,96.5352 478.9771,97.4099 483.5979,98.4607 488.2187,99.6688 492.8395,101.0169 497.4603,102.4884 502.0811,104.0671 506.7019,105.7376 511.3228,107.485 515.9436,109.2954 520.5644,111.1559 525.1852,113.0225 529.806,114.7764 534.4268,116.2009 539.0476,116.9279 543.6684,117.6384 548.2892,118.0721 552.9101,118.6559 557.5309,119.3845 562.1517,120.5044 566.7725,122.9563 571.3933,125.6418 576.0141,128.3896 580.6349,130.6779 585.2557,131.7246 589.8765,129.6803 594.4974,128.4227 599.1182,127.6708 603.739,126.9505 608.3598,126.1675 612.9806,124.4486 617.6014,122.9449 622.2222,121.5136 622.2222,164.9177 617.6014,164.7929 612.9806,164.9425 608.3598,165.1603 603.739,164.9061 599.1182,164.4583 594.4974,164.2777 589.8765,164.2783 585.2557,164.4464 580.6349,163.3952 576.0141,161.6187 571.3933,159.2865 566.7725,156.5319 562.1517,153.5111 557.5309,153.2656 552.9101,153.6769 548.2892,153.9804 543.6684,154.0185 539.0476,154.0144 534.4268,153.9155 529.806,153.6087 525.1852,153.0814 520.5644,152.3373 515.9436,151.3887 511.3228,150.2444 506.7019,148.9094 502.0811,147.3894 497.4603,145.6904 492.8395,143.8187 488.2187,141.7806 483.5979,139.5813 478.9771,137.2248 474.3563,134.7123 469.7354,133.6501 465.1146,132.955 460.4938,132.1061 455.873,132.572 451.2522,133.5863 446.6314,134.7184 442.0106,135.7088 437.3898,136.4185 432.769,137.2258 428.1481,138.0096 423.5273,138.6759 418.9065,139.1664 414.2857,139.4609 409.6649,139.3331 405.0441,138.8338 400.4233,139.0154 395.8025,139.4195 391.1817,139.7934 386.5608,140.0025 381.94,139.9973 377.3192,139.7571 372.6984,139.2562 368.0776,138.4629 363.4568,137.3386 358.836,135.8371 354.2152,135.968 349.5944,136.9788 344.9735,138.4367 340.3527,140.0589 335.7319,141.6659 331.1111,143.1672 326.4903,144.5411 321.8695,145.7901 317.2487,146.9142 312.6279,147.9109 308.0071,148.7753 303.3862,149.5003 298.7654,150.076 294.1446,150.4893 289.5238,150.7238 284.903,150.758 280.2822,150.5647 275.6614,150.9248 271.0406,151.5233 266.4198,152.1815 261.7989,152.7813 257.1781,153.2523 252.5573,153.5636 247.9365,153.6956 243.3157,154.161 238.6949,154.7381 234.0741,155.2953 229.4533,155.7611 224.8325,156.1108 220.2116,156.3363 215.5908,156.4275 210.97,156.3719 206.3492,156.155 201.7284,155.7594 197.1076,155.165 192.4868,154.3483 187.866,153.2824 183.2451,151.9358 178.6243,152.2923 174.0035,153.4592 169.3827,154.9736 164.7619,156.5588 160.1411,158.0724 155.5203,159.4781 150.8995,160.7804 146.2787,161.9816 141.6578,163.0824 137.037,164.0816 132.4162,164.9768 127.7954,165.7637 123.1746,166.4367 118.5538,166.9884 113.933,167.4103 109.3122,167.6918 104.6914,167.8209 100.0705,167.7838 95.4497,167.5647 90.8289,167.146 86.2081,166.5075 81.5873,166.6545 76.9665,167.2528 72.3457,168.1389 67.7249,169.21 63.1041,170.3892 58.4832,171.6152 53.8624,172.8437 49.2416,173.5309 44.6208,173.9373 40,174.3429"></polyline>
<text class = "party erc" x="631.1111" y="141"><tspan class="party_name">ERC</tspan><tspan class="party_result"> (23.5±2.7%)</tspan></text>
<polyline id="media-jxcat"  class="jxcat media" points=" 40,224.7411 44.6208,224.626 49.2416,224.5014 53.8624,224.3667 58.4832,224.2234 63.1041,224.078 67.7249,223.9419 72.3457,223.8305 76.9665,223.7634 81.5873,223.769 86.2081,223.9009 90.8289,224.2935 95.4497,224.6825 100.0705,225.0649 104.6914,225.4385 109.3122,225.8012 113.933,226.1516 118.5538,226.4886 123.1746,226.8115 127.7954,227.1197 132.4162,227.4129 137.037,227.691 141.6578,227.9542 146.2787,228.2025 150.8995,228.4363 155.5203,228.6557 160.1411,228.8612 164.7619,229.0532 169.3827,229.2299 174.0035,229.3856 178.6243,229.5105 183.2451,229.5905 187.866,229.5981 192.4868,229.613 197.1076,229.6311 201.7284,229.6489 206.3492,229.6628 210.97,229.6696 215.5908,229.6659 220.2116,229.6481 224.8325,229.6128 229.4533,229.556 234.0741,229.4732 238.6949,229.3766 243.3157,229.3217 247.9365,229.4271 252.5573,229.9487 257.1781,230.416 261.7989,230.8285 266.4198,231.1858 271.0406,231.4939 275.6614,231.7741 280.2822,232.0776 284.903,232.5341 289.5238,233.0265 294.1446,233.5503 298.7654,234.1026 303.3862,234.6813 308.0071,235.2853 312.6279,235.9144 317.2487,236.5693 321.8695,237.2515 326.4903,237.9633 331.1111,238.7079 335.7319,239.4896 340.3527,240.299 344.9735,241.0878 349.5944,241.7585 354.2152,242.156 358.836,242.0391 363.4568,240.9781 368.0776,240.0952 372.6984,239.368 377.3192,238.777 381.94,238.3054 386.5608,237.9385 391.1817,237.6631 395.8025,237.4701 400.4233,237.3572 405.0441,237.3308 409.6649,237.418 414.2857,237.5999 418.9065,237.9316 423.5273,238.3491 428.1481,238.8344 432.769,239.2875 437.3898,239.4974 442.0106,239.0561 446.6314,238.8115 451.2522,238.7117 455.873,238.6661 460.4938,238.5186 465.1146,237.9765 469.7354,237.4386 474.3563,236.5928 478.9771,234.717 483.5979,232.8132 488.2187,230.8941 492.8395,228.9731 497.4603,227.0634 502.0811,225.1781 506.7019,223.3298 511.3228,221.5303 515.9436,219.7901 520.5644,218.1183 525.1852,216.5464 529.806,215.1576 534.4268,214.1036 539.0476,213.6519 543.6684,213.3185 548.2892,213.3467 552.9101,213.3014 557.5309,213.1487 562.1517,212.5897 566.7725,210.6606 571.3933,208.574 576.0141,206.5951 580.6349,204.8869 585.2557,203.606 589.8765,203.0433 594.4974,202.1565 599.1182,201.2689 603.739,200.96 608.3598,200.7643 612.9806,201.2908 617.6014,201.7021 622.2222,202.1246"></polyline>
<polyline id="error-jxcat" class="jxcat error" points=" 40,188.6425 44.6208,189.1263 49.2416,189.6166 53.8624,190.3505 58.4832,191.5467 63.1041,192.7394 67.7249,193.8804 72.3457,194.9039 76.9665,195.7272 81.5873,196.2379 86.2081,196.2497 90.8289,195.3584 95.4497,194.6567 100.0705,194.1294 104.6914,193.7626 109.3122,193.5433 113.933,193.4601 118.5538,193.5022 123.1746,193.6601 127.7954,193.9253 132.4162,194.2902 137.037,194.7484 141.6578,195.2944 146.2787,195.9236 150.8995,196.6325 155.5203,197.4188 160.1411,198.2812 164.7619,199.2195 169.3827,200.2118 174.0035,201.1779 178.6243,201.9659 183.2451,202.327 187.866,201.7982 192.4868,201.4572 197.1076,201.2828 201.7284,201.2567 206.3492,201.3634 210.97,201.5895 215.5908,201.9237 220.2116,202.3564 224.8325,202.8794 229.4533,203.4861 234.0741,204.1713 238.6949,204.9123 243.3157,205.6441 247.9365,206.254 252.5573,206.5658 257.1781,207.0631 261.7989,207.726 266.4198,208.517 271.0406,209.3445 275.6614,210.0548 280.2822,210.4106 284.903,209.951 289.5238,209.7246 294.1446,209.7041 298.7654,209.8673 303.3862,210.1967 308.0071,210.6779 312.6279,211.2993 317.2487,212.052 321.8695,212.9292 326.4903,213.9263 331.1111,215.0407 335.7319,216.2721 340.3527,217.6006 344.9735,218.9498 349.5944,220.1718 354.2152,221.036 358.836,221.1919 363.4568,220.0326 368.0776,219.1932 372.6984,218.6358 377.3192,218.3281 381.94,218.2432 386.5608,218.358 391.1817,218.6532 395.8025,219.0947 400.4233,219.6063 405.0441,220.0619 409.6649,220.2663 414.2857,220.5367 418.9065,220.7817 423.5273,221.2892 428.1481,222.0124 432.769,222.775 437.3898,223.2241 442.0106,222.7027 446.6314,222.559 451.2522,222.6975 455.873,222.9615 460.4938,223.0908 465.1146,222.6091 469.7354,222.1482 474.3563,221.1826 478.9771,218.569 483.5979,216.0588 488.2187,213.6599 492.8395,211.3818 497.4603,209.2353 502.0811,207.2311 506.7019,205.3794 511.3228,203.6898 515.9436,202.1706 520.5644,200.8285 525.1852,199.6818 529.806,198.771 534.4268,198.1611 539.0476,197.9634 543.6684,197.9209 548.2892,198.1492 552.9101,198.4805 557.5309,198.8101 562.1517,198.6069 566.7725,196.3693 571.3933,194.1845 576.0141,192.3207 580.6349,190.781 585.2557,189.4636 589.8765,188.0862 594.4974,186.6422 599.1182,185.3341 603.739,184.5109 608.3598,183.8616 612.9806,183.7562 617.6014,183.5962 622.2222,183.3583 622.2222,220.891 617.6014,219.8079 612.9806,218.8255 608.3598,217.667 603.739,217.4091 599.1182,217.2037 594.4974,217.6707 589.8765,218.0003 585.2557,217.7484 580.6349,218.9928 576.0141,220.8695 571.3933,222.9636 566.7725,224.9519 562.1517,226.5724 557.5309,227.4873 552.9101,228.1222 548.2892,228.5443 543.6684,228.7161 539.0476,229.3404 534.4268,230.0462 529.806,231.5442 525.1852,233.411 520.5644,235.408 515.9436,237.4096 511.3228,239.3708 506.7019,241.2802 502.0811,243.1251 497.4603,244.8914 492.8395,246.5643 488.2187,248.1284 483.5979,249.5675 478.9771,250.8651 474.3563,252.0031 469.7354,252.729 465.1146,253.3438 460.4938,253.9464 455.873,254.3707 451.2522,254.726 446.6314,255.064 442.0106,255.4096 437.3898,255.7707 432.769,255.8001 428.1481,255.6565 423.5273,255.409 418.9065,255.0815 414.2857,254.663 409.6649,254.5698 405.0441,254.5997 400.4233,255.1081 395.8025,255.8456 391.1817,256.673 386.5608,257.519 381.94,258.3677 377.3192,259.2259 372.6984,260.1002 368.0776,260.9973 363.4568,261.9237 358.836,262.8863 354.2152,263.276 349.5944,263.3452 344.9735,263.2258 340.3527,262.9974 335.7319,262.707 331.1111,262.375 326.4903,262.0002 321.8695,261.5738 317.2487,261.0867 312.6279,260.5296 308.0071,259.8927 303.3862,259.1659 298.7654,258.3379 294.1446,257.3966 289.5238,256.3283 284.903,255.1172 280.2822,253.7445 275.6614,253.4935 271.0406,253.6432 266.4198,253.8547 261.7989,253.9309 257.1781,253.7689 252.5573,253.3316 247.9365,252.6002 243.3157,252.9993 238.6949,253.8408 234.0741,254.7752 229.4533,255.6258 224.8325,256.3463 220.2116,256.9399 215.5908,257.4081 210.97,257.7498 206.3492,257.9623 201.7284,258.041 197.1076,257.9794 192.4868,257.7687 187.866,257.3981 183.2451,256.8539 178.6243,257.0551 174.0035,257.5933 169.3827,258.2481 164.7619,258.8868 160.1411,259.4412 155.5203,259.8926 150.8995,260.24 146.2787,260.4815 141.6578,260.614 137.037,260.6336 132.4162,260.5355 127.7954,260.314 123.1746,259.9629 118.5538,259.4751 113.933,258.8432 109.3122,258.0591 104.6914,257.1144 100.0705,256.0004 95.4497,254.7082 90.8289,253.2286 86.2081,251.552 81.5873,251.3002 76.9665,251.7996 72.3457,252.7572 67.7249,254.0035 63.1041,255.4166 58.4832,256.9001 53.8624,258.383 49.2416,259.3863 44.6208,260.1258 40,260.8397"></polyline>
<text class = "party jxcat" x="631.1111" y="196"><tspan class="party_name">JxCAT</tspan><tspan class="party_result"> (16.2±2.3%)</tspan></text>
<polyline id="media-cec"  class="cec media" points=" 40,241.8807 44.6208,241.6263 49.2416,241.3602 53.8624,241.0819 58.4832,240.7943 63.1041,240.5083 67.7249,240.2422 72.3457,240.0197 76.9665,239.8705 81.5873,239.8366 86.2081,239.9967 90.8289,240.5499 95.4497,241.0861 100.0705,241.6015 104.6914,242.093 109.3122,242.5585 113.933,242.9966 118.5538,243.4065 123.1746,243.7881 127.7954,244.1418 132.4162,244.468 137.037,244.768 141.6578,245.043 146.2787,245.2945 150.8995,245.5242 155.5203,245.7341 160.1411,245.9263 164.7619,246.1031 169.3827,246.2631 174.0035,246.3941 178.6243,246.4715 183.2451,246.4503 187.866,246.2342 192.4868,246.0163 197.1076,245.7927 201.7284,245.5597 206.3492,245.314 210.97,245.0526 215.5908,244.7724 220.2116,244.4706 224.8325,244.1442 229.4533,243.79 234.0741,243.4049 238.6949,243.0088 243.3157,242.6783 247.9365,242.5623 252.5573,242.9623 257.1781,243.2511 261.7989,243.4343 266.4198,243.5249 271.0406,243.5584 275.6614,243.6018 280.2822,243.7701 284.903,244.3228 289.5238,244.8375 294.1446,245.3109 298.7654,245.7408 303.3862,246.1257 308.0071,246.4646 312.6279,246.7568 317.2487,247.0016 321.8695,247.1986 326.4903,247.3471 331.1111,247.4461 335.7319,247.4943 340.3527,247.4959 344.9735,247.4718 349.5944,247.4659 354.2152,247.5509 358.836,247.8429 363.4568,248.5515 368.0776,249.1826 372.6984,249.7414 377.3192,250.233 381.94,250.662 386.5608,251.0333 391.1817,251.3515 395.8025,251.6117 400.4233,251.7854 405.0441,251.8115 409.6649,251.5607 414.2857,251.5328 418.9065,251.8734 423.5273,252.1471 428.1481,252.3607 432.769,252.5681 437.3898,252.8993 442.0106,253.6314 446.6314,254.2875 451.2522,254.8752 455.873,255.4177 460.4938,255.9585 465.1146,256.5769 469.7354,257.1216 474.3563,257.577 478.9771,257.9382 483.5979,258.3718 488.2187,258.8649 492.8395,259.4064 497.4603,259.9866 502.0811,260.5968 506.7019,261.229 511.3228,261.8762 515.9436,262.5319 520.5644,263.1907 525.1852,263.8372 529.806,264.4325 534.4268,264.9157 539.0476,265.2033 543.6684,265.5919 548.2892,266.1295 552.9101,266.7745 557.5309,267.4385 562.1517,267.7854 566.7725,266.9727 571.3933,266.39 576.0141,265.9761 580.6349,265.7236 585.2557,265.6543 589.8765,265.8824 594.4974,266.0765 599.1182,266.0835 603.739,265.5705 608.3598,265.0799 612.9806,264.6129 617.6014,264.1818 622.2222,263.869"></polyline>
<polyline id="error-cec" class="cec error" points=" 40,214.6785 44.6208,214.9943 49.2416,215.3136 53.8624,215.771 58.4832,216.4906 63.1041,217.2101 67.7249,217.9031 72.3457,218.5328 76.9665,219.0522 81.5873,219.3983 86.2081,219.4706 90.8289,219.0659 95.4497,218.7894 100.0705,218.6281 104.6914,218.5702 109.3122,218.6054 113.933,218.7246 118.5538,218.92 123.1746,219.1847 127.7954,219.513 132.4162,219.8999 137.037,220.3418 141.6578,220.8355 146.2787,221.3792 150.8995,221.9717 155.5203,222.6129 160.1411,223.3036 164.7619,224.0458 169.3827,224.8222 174.0035,225.5648 178.6243,226.1408 183.2451,226.3277 187.866,225.6984 192.4868,225.2026 197.1076,224.8234 201.7284,224.5464 206.3492,224.3594 210.97,224.2517 215.5908,224.2144 220.2116,224.2399 224.8325,224.3219 229.4533,224.4553 234.0741,224.636 238.6949,224.8584 243.3157,225.1095 247.9365,225.3666 252.5573,225.6101 257.1781,225.9203 261.7989,226.2885 266.4198,226.7 271.0406,227.1182 275.6614,227.48 280.2822,227.6863 284.903,227.5574 289.5238,227.5369 294.1446,227.604 298.7654,227.7423 303.3862,227.9384 308.0071,228.1813 312.6279,228.4618 317.2487,228.7718 321.8695,229.1048 326.4903,229.4548 331.1111,229.8163 335.7319,230.1847 340.3527,230.5569 344.9735,230.9346 349.5944,231.328 354.2152,231.7591 358.836,232.2713 363.4568,232.9585 368.0776,233.6678 372.6984,234.3929 377.3192,235.1294 381.94,235.8747 386.5608,236.6278 391.1817,237.389 395.8025,238.1348 400.4233,238.781 405.0441,239.1666 409.6649,238.9932 414.2857,239.0265 418.9065,239.3062 423.5273,239.6466 428.1481,240.0335 432.769,240.4678 437.3898,240.9824 442.0106,241.6861 446.6314,242.4418 451.2522,243.2253 455.873,244.0133 460.4938,244.7766 465.1146,245.4678 469.7354,246.095 474.3563,246.4919 478.9771,246.361 483.5979,246.4032 488.2187,246.6008 492.8395,246.9389 497.4603,247.4045 502.0811,247.9858 506.7019,248.6718 511.3228,249.4524 515.9436,250.3185 520.5644,251.2618 525.1852,252.2554 529.806,253.2275 534.4268,254.0525 539.0476,254.5329 543.6684,255.1407 548.2892,255.8332 552.9101,256.7592 557.5309,257.7778 562.1517,258.3871 566.7725,257.3643 571.3933,256.7244 576.0141,256.4031 580.6349,256.2804 585.2557,256.2 589.8765,255.8845 594.4974,255.7147 599.1182,255.4458 603.739,254.5683 608.3598,253.7529 612.9806,252.8274 617.6014,251.9807 622.2222,251.1927 622.2222,276.5454 617.6014,276.3828 612.9806,276.3984 608.3598,276.4069 603.739,276.5728 599.1182,276.7211 594.4974,276.4384 589.8765,275.8803 585.2557,275.1086 580.6349,275.1668 576.0141,275.5491 571.3933,276.0556 566.7725,276.5812 562.1517,277.1836 557.5309,277.0992 552.9101,276.7899 548.2892,276.4259 543.6684,276.0432 539.0476,275.8738 534.4268,275.7788 529.806,275.6375 525.1852,275.4191 520.5644,275.1197 515.9436,274.7453 511.3228,274.2999 506.7019,273.7863 502.0811,273.2078 497.4603,272.5687 492.8395,271.8739 488.2187,271.129 483.5979,270.3405 478.9771,269.5154 474.3563,268.6621 469.7354,268.1481 465.1146,267.686 460.4938,267.1404 455.873,266.8222 451.2522,266.5252 446.6314,266.1332 442.0106,265.5767 437.3898,264.8162 432.769,264.6685 428.1481,264.688 423.5273,264.6475 418.9065,264.4406 414.2857,264.0392 409.6649,264.1282 405.0441,264.4564 400.4233,264.7898 395.8025,265.0887 391.1817,265.3141 386.5608,265.4389 381.94,265.4494 377.3192,265.3366 372.6984,265.09 368.0776,264.6974 363.4568,264.1446 358.836,263.4146 354.2152,263.3426 349.5944,263.6037 344.9735,264.009 340.3527,264.4349 335.7319,264.8038 331.1111,265.0758 326.4903,265.2394 321.8695,265.2925 317.2487,265.2314 312.6279,265.0518 308.0071,264.7479 303.3862,264.313 298.7654,263.7393 294.1446,263.0177 289.5238,262.138 284.903,261.0881 280.2822,259.854 275.6614,259.7236 271.0406,259.9986 266.4198,260.3499 261.7989,260.5802 257.1781,260.5819 252.5573,260.3145 247.9365,259.7579 243.3157,260.247 238.6949,261.1592 234.0741,262.1739 229.4533,263.1248 224.8325,263.9664 220.2116,264.7013 215.5908,265.3304 210.97,265.8535 206.3492,266.2686 201.7284,266.5729 197.1076,266.762 192.4868,266.8301 187.866,266.77 183.2451,266.5728 178.6243,266.8022 174.0035,267.2235 169.3827,267.7039 164.7619,268.1605 160.1411,268.5489 155.5203,268.8552 150.8995,269.0766 146.2787,269.2097 141.6578,269.2505 137.037,269.1943 132.4162,269.0362 127.7954,268.7706 123.1746,268.3916 118.5538,267.893 113.933,267.2686 109.3122,266.5117 104.6914,265.6159 100.0705,264.575 95.4497,263.3828 90.8289,262.0339 86.2081,260.5228 81.5873,260.275 76.9665,260.6888 72.3457,261.5067 67.7249,262.5813 63.1041,263.8066 58.4832,265.098 53.8624,266.3929 49.2416,267.4068 44.6208,268.2583 40,269.0829"></polyline>
<text class = "party cec" x="631.1111" y="254"><tspan class="party_name">CeC</tspan><tspan class="party_result"> (8.6±1.6%)</tspan></text>
<polyline id="media-psc"  class="psc media" points=" 40,223.6103 44.6208,223.5622 49.2416,223.507 53.8624,223.4441 58.4832,223.3741 63.1041,223.3015 67.7249,223.2346 72.3457,223.1856 76.9665,223.1706 81.5873,223.2142 86.2081,223.3631 90.8289,223.7354 95.4497,224.121 100.0705,224.519 104.6914,224.9284 109.3122,225.3491 113.933,225.7811 118.5538,226.2249 123.1746,226.6813 127.7954,227.1516 132.4162,227.6376 137.037,228.1413 141.6578,228.6655 146.2787,229.2131 150.8995,229.7879 155.5203,230.3943 160.1411,231.0374 164.7619,231.7232 169.3827,232.4315 174.0035,233.0745 178.6243,233.478 183.2451,233.3412 187.866,232.0468 192.4868,230.8602 197.1076,229.7714 201.7284,228.7704 206.3492,227.8477 210.97,226.994 215.5908,226.2004 220.2116,225.4584 224.8325,224.7597 229.4533,224.096 234.0741,223.4591 238.6949,222.8664 243.3157,222.396 247.9365,222.2019 252.5573,222.603 257.1781,222.9226 261.7989,223.1733 266.4198,223.3662 271.0406,223.5164 275.6614,223.6481 280.2822,223.8037 284.903,224.0787 289.5238,224.3655 294.1446,224.6646 298.7654,224.977 303.3862,225.3045 308.0071,225.6497 312.6279,226.0152 317.2487,226.4045 321.8695,226.8214 326.4903,227.2705 331.1111,227.757 335.7319,228.2872 340.3527,228.8534 344.9735,229.4085 349.5944,229.8525 354.2152,230.0229 358.836,229.6614 363.4568,228.3019 368.0776,227.1071 372.6984,226.0578 377.3192,225.1373 381.94,224.3311 386.5608,223.6267 391.1817,223.013 395.8025,222.488 400.4233,222.0667 405.0441,221.7791 409.6649,221.6855 414.2857,221.4553 418.9065,220.9857 423.5273,220.5211 428.1481,220.0811 432.769,219.7283 437.3898,219.585 442.0106,219.8897 446.6314,220.1634 451.2522,220.3836 455.873,220.4778 460.4938,220.3141 465.1146,219.6527 469.7354,219.0898 474.3563,218.5878 478.9771,218.054 483.5979,217.4699 488.2187,216.8458 492.8395,216.1906 497.4603,215.5126 502.0811,214.8194 506.7019,214.1182 511.3228,213.4158 515.9436,212.7185 520.5644,212.0319 525.1852,211.3616 529.806,210.7061 534.4268,210.0711 539.0476,209.4957 543.6684,209.2151 548.2892,209.5894 552.9101,209.8461 557.5309,209.9889 562.1517,209.9497 566.7725,209.4836 571.3933,208.9252 576.0141,208.378 580.6349,207.9175 585.2557,207.6463 589.8765,207.7956 594.4974,207.7881 599.1182,207.6389 603.739,207.4191 608.3598,207.5474 612.9806,208.6942 617.6014,209.7144 622.2222,210.4229"></polyline>
<polyline id="error-psc" class="psc error" points=" 40,189.0795 44.6208,189.6347 49.2416,190.1988 53.8624,190.9882 58.4832,192.2013 63.1041,193.4099 67.7249,194.5655 72.3457,195.6028 76.9665,196.44 81.5873,196.9673 86.2081,197.0024 90.8289,196.1486 95.4497,195.4932 100.0705,195.0235 104.6914,194.728 109.3122,194.5959 113.933,194.6178 118.5538,194.7852 123.1746,195.0906 127.7954,195.5276 132.4162,196.0912 137.037,196.7773 141.6578,197.5833 146.2787,198.5078 150.8995,199.5511 155.5203,200.7148 160.1411,202.0026 164.7619,203.4201 169.3827,204.9265 174.0035,206.3601 178.6243,207.405 183.2451,207.5267 187.866,205.6708 192.4868,204.0977 197.1076,202.7813 201.7284,201.6981 206.3492,200.8271 210.97,200.1496 215.5908,199.6492 220.2116,199.3113 224.8325,199.1234 229.4533,199.0745 234.0741,199.1553 238.6949,199.3505 243.3157,199.6225 247.9365,199.9039 252.5573,200.099 257.1781,200.4426 261.7989,200.9289 266.4198,201.5337 271.0406,202.1789 275.6614,202.7199 280.2822,202.9213 284.903,202.3077 289.5238,201.895 294.1446,201.6615 298.7654,201.5903 303.3862,201.6683 308.0071,201.8854 312.6279,202.2336 317.2487,202.7072 321.8695,203.3024 326.4903,204.0169 331.1111,204.8508 335.7319,205.8059 340.3527,206.8647 344.9735,207.9528 349.5944,208.9218 354.2152,209.536 358.836,209.4311 363.4568,207.9689 368.0776,206.8083 372.6984,205.9151 377.3192,205.2606 381.94,204.8206 386.5608,204.5748 391.1817,204.5063 395.8025,204.5892 400.4233,204.7672 405.0441,204.9419 409.6649,204.9575 414.2857,204.8028 418.9065,204.2279 423.5273,203.828 428.1481,203.5961 432.769,203.5251 437.3898,203.6069 442.0106,203.8522 446.6314,204.2376 451.2522,204.6984 455.873,205.0985 460.4938,205.2052 465.1146,204.6014 469.7354,204.1145 474.3563,203.5052 478.9771,202.2867 483.5979,201.1473 488.2187,200.0914 492.8395,199.1238 497.4603,198.2492 502.0811,197.4722 506.7019,196.7972 511.3228,196.2283 515.9436,195.769 520.5644,195.4226 525.1852,195.1809 529.806,194.9998 534.4268,194.7992 539.0476,194.4644 543.6684,194.4637 548.2892,195.0367 552.9101,195.6601 557.5309,196.2703 562.1517,196.5813 566.7725,195.8468 571.3933,195.2221 576.0141,194.8096 580.6349,194.5305 585.2557,194.2416 589.8765,193.6307 594.4974,193.1107 599.1182,192.5766 603.739,191.8709 608.3598,191.5762 612.9806,192.1395 617.6014,192.6344 622.2222,192.7262 622.2222,228.1196 617.6014,226.7944 612.9806,225.2488 608.3598,223.5187 603.739,222.9673 599.1182,222.7013 594.4974,222.4654 589.8765,221.9606 585.2557,221.051 580.6349,221.3044 576.0141,221.9465 571.3933,222.6283 566.7725,223.1204 562.1517,223.3182 557.5309,223.7075 552.9101,224.0321 548.2892,224.1421 543.6684,223.9666 539.0476,224.527 534.4268,225.3431 529.806,226.4124 525.1852,227.5423 520.5644,228.6413 515.9436,229.668 511.3228,230.6034 506.7019,231.4393 502.0811,232.1666 497.4603,232.7759 492.8395,233.2573 488.2187,233.6001 483.5979,233.7925 478.9771,233.8213 474.3563,233.6705 469.7354,234.065 465.1146,234.7039 460.4938,235.423 455.873,235.8571 451.2522,236.0687 446.6314,236.0891 442.0106,235.9272 437.3898,235.5631 432.769,235.9315 428.1481,236.566 423.5273,237.2141 418.9065,237.7435 414.2857,238.1078 409.6649,238.4135 405.0441,238.6164 400.4233,239.3662 395.8025,240.3868 391.1817,241.5196 386.5608,242.6786 381.94,243.8417 377.3192,245.014 372.6984,246.2005 368.0776,247.4059 363.4568,248.6348 358.836,249.8916 354.2152,250.5098 349.5944,250.7832 344.9735,250.8641 340.3527,250.8422 335.7319,250.7684 331.1111,250.6631 326.4903,250.524 321.8695,250.3405 317.2487,250.1018 312.6279,249.7968 308.0071,249.414 303.3862,248.9408 298.7654,248.3637 294.1446,247.6677 289.5238,246.836 284.903,245.8497 280.2822,244.6862 275.6614,244.5763 271.0406,244.8538 266.4198,245.1987 261.7989,245.4177 257.1781,245.4026 252.5573,245.1069 247.9365,244.4999 243.3157,245.1694 238.6949,246.3823 234.0741,247.7628 229.4533,249.1176 224.8325,250.396 220.2116,251.6055 215.5908,252.7517 210.97,253.8384 206.3492,254.8684 201.7284,255.8428 197.1076,256.7615 192.4868,257.6227 187.866,258.4228 183.2451,259.1557 178.6243,259.5511 174.0035,259.789 169.3827,259.9365 164.7619,260.0262 160.1411,260.0722 155.5203,260.0739 150.8995,260.0248 146.2787,259.9184 141.6578,259.7477 137.037,259.5054 132.4162,259.184 127.7954,258.7756 123.1746,258.272 118.5538,257.6645 113.933,256.9444 109.3122,256.1023 104.6914,255.1289 100.0705,254.0144 95.4497,252.7489 90.8289,251.3222 86.2081,249.7238 81.5873,249.461 76.9665,249.9011 72.3457,250.7684 67.7249,251.9037 63.1041,253.193 58.4832,254.5469 53.8624,255.9 49.2416,256.8153 44.6208,257.4897 40,258.1411"></polyline>
<text class = "party psc" x="631.1111" y="216"><tspan class="party_name">PSC</tspan><tspan class="party_result"> (15.2±2.2%)</tspan></text>
<polyline id="media-cs"  class="cs media" points=" 40,187.4567 44.6208,187.6555 49.2416,187.8619 53.8624,188.0762 58.4832,188.2959 63.1041,188.5135 67.7249,188.7163 72.3457,188.8883 76.9665,189.0101 81.5873,189.0545 86.2081,188.971 90.8289,188.6321 95.4497,188.3124 100.0705,188.0149 104.6914,187.7419 109.3122,187.4952 113.933,187.2759 118.5538,187.0847 123.1746,186.9221 127.7954,186.7883 132.4162,186.683 137.037,186.6063 141.6578,186.5576 146.2787,186.5368 150.8995,186.5433 155.5203,186.577 160.1411,186.6374 164.7619,186.7243 169.3827,186.8326 174.0035,186.9448 178.6243,187.0282 183.2451,187.0286 187.866,186.8398 192.4868,186.6914 197.1076,186.5839 201.7284,186.5172 206.3492,186.4913 210.97,186.5061 215.5908,186.5618 220.2116,186.6583 224.8325,186.796 229.4533,186.9751 234.0741,187.1963 238.6949,187.4451 243.3157,187.671 247.9365,187.7792 252.5573,187.5849 257.1781,187.4923 261.7989,187.5014 266.4198,187.5989 271.0406,187.7339 275.6614,187.8074 280.2822,187.6474 284.903,186.8588 289.5238,186.1245 294.1446,185.4453 298.7654,184.8216 303.3862,184.2529 308.0071,183.7387 312.6279,183.2782 317.2487,182.8706 321.8695,182.5148 326.4903,182.21 331.1111,181.9553 335.7319,181.7502 340.3527,181.5921 344.9735,181.4724 349.5944,181.3729 354.2152,181.2643 358.836,181.0995 363.4568,180.7967 368.0776,180.5454 372.6984,180.3477 377.3192,180.206 381.94,180.1225 386.5608,180.1 391.1817,180.1423 395.8025,180.2261 400.4233,180.2549 405.0441,180.0289 409.6649,179.1525 414.2857,178.4185 418.9065,177.7657 423.5273,177.1651 428.1481,176.6284 432.769,176.1682 437.3898,175.7917 442.0106,175.4956 446.6314,175.2212 451.2522,174.9518 455.873,174.6286 460.4938,174.1417 465.1146,173.2922 469.7354,172.5642 474.3563,171.964 478.9771,171.4797 483.5979,170.9174 488.2187,170.2905 492.8395,169.6104 497.4603,168.8873 502.0811,168.1306 506.7019,167.3486 511.3228,166.5493 515.9436,165.7393 520.5644,164.9248 525.1852,164.1254 529.806,163.3936 534.4268,162.7917 539.0476,162.3513 543.6684,161.4754 548.2892,159.7424 552.9101,157.8433 557.5309,155.9526 562.1517,154.8013 566.7725,156.2071 571.3933,156.9635 576.0141,157.3693 580.6349,157.6395 585.2557,158.0747 589.8765,159.3326 594.4974,160.455 599.1182,161.3752 603.739,161.9302 608.3598,162.1684 612.9806,161.6924 617.6014,161.2603 622.2222,161.0413"></polyline>
<polyline id="error-cs" class="cs error" points=" 40,152.1725 44.6208,153.021 49.2416,153.8951 53.8624,155.0023 58.4832,156.5283 63.1041,158.0505 67.7249,159.498 72.3457,160.7754 76.9665,161.7633 81.5873,162.2966 86.2081,162.0899 90.8289,160.4858 95.4497,159.0873 100.0705,157.8859 104.6914,156.8731 109.3122,156.0405 113.933,155.3797 118.5538,154.8824 123.1746,154.541 127.7954,154.3479 132.4162,154.2961 137.037,154.3794 141.6578,154.5922 146.2787,154.9297 150.8995,155.3879 155.5203,155.9641 160.1411,156.6562 164.7619,157.4636 169.3827,158.3614 174.0035,159.2596 178.6243,159.9862 183.2451,160.2573 187.866,159.5402 192.4868,159.0404 197.1076,158.7415 201.7284,158.6294 206.3492,158.6924 210.97,158.9211 215.5908,159.3077 220.2116,159.8465 224.8325,160.5334 229.4533,161.3664 234.0741,162.345 238.6949,163.4203 243.3157,164.4209 247.9365,165.0202 252.5573,164.599 257.1781,164.5177 261.7989,164.7579 266.4198,165.2698 271.0406,165.9061 275.6614,166.3931 280.2822,166.2708 284.903,164.5505 289.5238,163.0763 294.1446,161.8273 298.7654,160.7856 303.3862,159.9361 308.0071,159.2654 312.6279,158.7621 317.2487,158.416 321.8695,158.2183 326.4903,158.1615 331.1111,158.2392 335.7319,158.4463 340.3527,158.7705 344.9735,159.1771 349.5944,159.6008 354.2152,159.9413 358.836,160.0492 363.4568,159.6775 368.0776,159.4937 372.6984,159.4851 377.3192,159.6418 381.94,159.9564 386.5608,160.4245 391.1817,161.0439 395.8025,161.7667 400.4233,162.4212 405.0441,162.6716 409.6649,161.8928 414.2857,161.2282 418.9065,160.4671 423.5273,159.9336 428.1481,159.6114 432.769,159.4406 437.3898,159.2918 442.0106,158.9219 446.6314,158.7506 451.2522,158.7185 455.873,158.702 460.4938,158.4889 465.1146,157.7 469.7354,157.0512 474.3563,156.3421 478.9771,155.1577 483.5979,154.029 488.2187,152.9628 492.8395,151.966 497.4603,151.045 502.0811,150.206 506.7019,149.4544 511.3228,148.7951 515.9436,148.2323 520.5644,147.7693 525.1852,147.412 529.806,147.1701 534.4268,147.0185 539.0476,146.8308 543.6684,146.2349 548.2892,144.6728 552.9101,143.119 557.5309,141.682 562.1517,140.8783 566.7725,142.0344 571.3933,142.7436 576.0141,143.3044 580.6349,143.7742 585.2557,144.2021 589.8765,144.6925 594.4974,145.3051 599.1182,145.8473 603.739,145.9178 608.3598,145.7238 612.9806,144.6166 617.6014,143.6145 622.2222,142.7414 622.2222,179.3412 617.6014,178.9061 612.9806,178.7682 608.3598,178.6129 603.739,177.9427 599.1182,176.9032 594.4974,175.6049 589.8765,173.9727 585.2557,171.9473 580.6349,171.5049 576.0141,171.4341 571.3933,171.1834 566.7725,170.3798 562.1517,168.7243 557.5309,170.2232 552.9101,172.5675 548.2892,174.812 543.6684,176.7159 539.0476,177.8718 534.4268,178.5648 529.806,179.6171 525.1852,180.8389 520.5644,182.0804 515.9436,183.2464 511.3228,184.3034 506.7019,185.2429 502.0811,186.0551 497.4603,186.7296 492.8395,187.2548 488.2187,187.6182 483.5979,187.8058 478.9771,187.8016 474.3563,187.586 469.7354,188.0773 465.1146,188.8845 460.4938,189.7945 455.873,190.5552 451.2522,191.1852 446.6314,191.6917 442.0106,192.0693 437.3898,192.2917 432.769,192.8958 428.1481,193.6453 423.5273,194.3966 418.9065,195.0642 414.2857,195.6088 409.6649,196.4122 405.0441,197.3862 400.4233,198.0887 395.8025,198.6854 391.1817,199.2406 386.5608,199.7756 381.94,200.2885 377.3192,200.7703 372.6984,201.2104 368.0776,201.597 363.4568,201.9159 358.836,202.1499 354.2152,202.5872 349.5944,203.1451 344.9735,203.7676 340.3527,204.4138 335.7319,205.0542 331.1111,205.6715 326.4903,206.2584 321.8695,206.8112 317.2487,207.3251 312.6279,207.7943 308.0071,208.2119 303.3862,208.5696 298.7654,208.8575 294.1446,209.0633 289.5238,209.1726 284.903,209.1671 280.2822,209.0241 275.6614,209.2217 271.0406,209.5617 266.4198,209.928 261.7989,210.2449 257.1781,210.4669 252.5573,210.5709 247.9365,210.5382 243.3157,210.9212 238.6949,211.4699 234.0741,212.0476 229.4533,212.5839 224.8325,213.0585 220.2116,213.4702 215.5908,213.8159 210.97,214.0912 206.3492,214.2901 201.7284,214.405 197.1076,214.4263 192.4868,214.3424 187.866,214.1393 183.2451,213.7998 178.6243,214.0702 174.0035,214.6301 169.3827,215.3038 164.7619,215.9849 160.1411,216.6185 155.5203,217.1899 150.8995,217.6987 146.2787,218.1439 141.6578,218.5231 137.037,218.8331 132.4162,219.07 127.7954,219.2287 123.1746,219.3033 118.5538,219.287 113.933,219.1721 109.3122,218.9499 104.6914,218.6107 100.0705,218.1438 95.4497,217.5374 90.8289,216.7783 86.2081,215.8521 81.5873,215.8124 76.9665,216.257 72.3457,217.0012 67.7249,217.9346 63.1041,218.9765 58.4832,220.0635 53.8624,221.1501 49.2416,221.8287 44.6208,222.29 40,222.7409"></polyline>
<text class = "party cs" x="631.1111" y="163"><tspan class="party_name">C's</tspan><tspan class="party_result"> (21.3±2.3%)</tspan></text>
<polyline id="media-pp"  class="pp media" points=" 40,257.4703 44.6208,257.3997 49.2416,257.3292 53.8624,257.2591 58.4832,257.1899 63.1041,257.1233 67.7249,257.0613 72.3457,257.0059 76.9665,256.959 81.5873,256.9226 86.2081,256.8998 90.8289,256.8988 95.4497,256.8851 100.0705,256.8581 104.6914,256.8174 109.3122,256.7626 113.933,256.6936 118.5538,256.61 123.1746,256.5118 127.7954,256.3988 132.4162,256.2707 137.037,256.1273 141.6578,255.9682 146.2787,255.793 150.8995,255.6011 155.5203,255.3918 160.1411,255.1641 164.7619,254.917 169.3827,254.6577 174.0035,254.4152 178.6243,254.2447 183.2451,254.2391 187.866,254.5856 192.4868,254.8841 197.1076,255.1375 201.7284,255.3488 206.3492,255.5207 210.97,255.6562 215.5908,255.758 220.2116,255.8286 224.8325,255.8708 229.4533,255.8875 234.0741,255.8816 238.6949,255.8522 243.3157,255.7863 247.9365,255.6482 252.5573,255.3469 257.1781,255.0031 261.7989,254.6111 266.4198,254.1817 271.0406,253.7688 275.6614,253.4751 280.2822,253.4757 284.903,254.1761 289.5238,254.8086 294.1446,255.3777 298.7654,255.8872 303.3862,256.3405 308.0071,256.7405 312.6279,257.0898 317.2487,257.3904 321.8695,257.6442 326.4903,257.8526 331.1111,258.0168 335.7319,258.1373 340.3527,258.2178 344.9735,258.2718 349.5944,258.3268 354.2152,258.4282 358.836,258.6487 363.4568,259.1185 368.0776,259.5405 372.6984,259.9177 377.3192,260.2531 381.94,260.55 386.5608,260.812 391.1817,261.0432 395.8025,261.2353 400.4233,261.3479 405.0441,261.2947 409.6649,260.8949 414.2857,260.7871 418.9065,261.145 423.5273,261.457 428.1481,261.7215 432.769,261.9323 437.3898,262.0798 442.0106,262.1473 446.6314,262.1899 451.2522,262.2046 455.873,262.1953 460.4938,262.1816 465.1146,262.217 469.7354,262.305 474.3563,262.5864 478.9771,263.392 483.5979,264.2226 488.2187,265.0721 492.8395,265.9346 497.4603,266.8039 502.0811,267.6739 506.7019,268.5385 511.3228,269.392 515.9436,270.2287 520.5644,271.0434 525.1852,271.8335 529.806,272.611 534.4268,273.4047 539.0476,274.267 543.6684,275.007 548.2892,275.4795 552.9101,276.1582 557.5309,276.9737 562.1517,277.6765 566.7725,277.732 571.3933,278.3098 576.0141,279.0109 580.6349,279.6509 585.2557,280.0055 589.8765,279.6076 594.4974,279.4303 599.1182,279.3844 603.739,279.3239 608.3598,279.2806 612.9806,279.0523 617.6014,278.8757 622.2222,278.6732"></polyline>
<polyline id="error-pp" class="pp error" points=" 40,230.2253 44.6208,230.7133 49.2416,231.2157 53.8624,231.8793 58.4832,232.8371 63.1041,233.7946 67.7249,234.7082 72.3457,235.5182 76.9665,236.1485 81.5873,236.4942 86.2081,236.3753 90.8289,235.3858 95.4497,234.5281 100.0705,233.7929 104.6914,233.1717 109.3122,232.6564 113.933,232.2395 118.5538,231.9138 123.1746,231.6727 127.7954,231.5102 132.4162,231.4204 137.037,231.3985 141.6578,231.4397 146.2787,231.5401 150.8995,231.6962 155.5203,231.9051 160.1411,232.1647 164.7619,232.4734 169.3827,232.8232 174.0035,233.1875 178.6243,233.515 183.2451,233.7228 187.866,233.6729 192.4868,233.7116 197.1076,233.8285 201.7284,234.0156 206.3492,234.2665 210.97,234.5766 215.5908,234.9424 220.2116,235.3621 224.8325,235.835 229.4533,236.3619 234.0741,236.945 238.6949,237.5566 243.3157,238.0894 247.9365,238.3274 252.5573,237.8402 257.1781,237.4932 261.7989,237.2659 266.4198,237.1419 271.0406,237.1026 275.6614,237.1198 280.2822,237.153 284.903,237.1669 289.5238,237.2608 294.1446,237.4216 298.7654,237.6389 303.3862,237.904 308.0071,238.2098 312.6279,238.5503 317.2487,238.9203 321.8695,239.3153 326.4903,239.7315 331.1111,240.1656 335.7319,240.6145 340.3527,241.0746 344.9735,241.5398 349.5944,242.0025 354.2152,242.4561 358.836,242.8979 363.4568,243.3384 368.0776,243.8333 372.6984,244.3736 377.3192,244.9529 381.94,245.567 386.5608,246.2138 391.1817,246.8926 395.8025,247.5763 400.4233,248.1674 405.0441,248.4768 409.6649,248.1502 414.2857,248.1018 418.9065,248.3991 423.5273,248.7807 428.1481,249.2234 432.769,249.6653 437.3898,249.9939 442.0106,250.0122 446.6314,250.1373 451.2522,250.3339 455.873,250.5585 460.4938,250.7554 465.1146,250.8478 469.7354,251.0067 474.3563,251.2229 478.9771,251.5382 483.5979,251.9812 488.2187,252.5409 492.8395,253.2072 497.4603,253.9702 502.0811,254.8208 506.7019,255.7496 511.3228,256.7478 515.9436,257.8066 520.5644,258.9177 525.1852,260.0677 529.806,261.2362 534.4268,262.3892 539.0476,263.4673 543.6684,264.4423 548.2892,265.0709 552.9101,266.037 557.5309,267.2183 562.1517,268.199 566.7725,268.0675 571.3933,268.6235 576.0141,269.4524 580.6349,270.2503 585.2557,270.6073 589.8765,269.6455 594.4974,269.0914 599.1182,268.7669 603.739,268.3548 608.3598,268.0003 612.9806,267.3196 617.6014,266.7346 622.2222,266.0589 622.2222,291.2875 617.6014,291.0168 612.9806,290.785 608.3598,290.5608 603.739,290.293 599.1182,290.0019 594.4974,289.7692 589.8765,289.5696 585.2557,289.4038 580.6349,289.0514 576.0141,288.5694 571.3933,287.996 566.7725,287.3964 562.1517,287.154 557.5309,286.729 552.9101,286.2794 548.2892,285.8881 543.6684,285.5717 539.0476,285.0667 534.4268,284.4203 529.806,283.9859 525.1852,283.5994 520.5644,283.169 515.9436,282.6509 511.3228,282.0362 506.7019,281.3274 502.0811,280.527 497.4603,279.6375 492.8395,278.662 488.2187,277.6033 483.5979,276.4639 478.9771,275.2458 474.3563,273.9499 469.7354,273.6033 465.1146,273.5862 460.4938,273.6077 455.873,273.8322 451.2522,274.0752 446.6314,274.2425 442.0106,274.2824 437.3898,274.1657 432.769,274.1992 428.1481,274.2196 423.5273,274.1332 418.9065,273.8908 414.2857,273.4723 409.6649,273.6396 405.0441,274.1126 400.4233,274.5284 395.8025,274.8943 391.1817,275.1938 386.5608,275.4103 381.94,275.5329 377.3192,275.5533 372.6984,275.4618 368.0776,275.2477 363.4568,274.8985 358.836,274.3994 354.2152,274.4003 349.5944,274.651 344.9735,275.0037 340.3527,275.3609 335.7319,275.66 331.1111,275.868 326.4903,275.9737 321.8695,275.973 317.2487,275.8604 312.6279,275.6292 308.0071,275.2712 303.3862,274.777 298.7654,274.1356 294.1446,273.3338 289.5238,272.3565 284.903,271.1854 280.2822,269.7985 275.6614,269.8304 271.0406,270.4351 266.4198,271.2216 261.7989,271.9562 257.1781,272.5131 252.5573,272.8535 247.9365,272.9689 243.3157,273.4832 238.6949,274.1478 234.0741,274.8182 229.4533,275.4131 224.8325,275.9067 220.2116,276.2951 215.5908,276.5735 210.97,276.7359 206.3492,276.7749 201.7284,276.6819 197.1076,276.4465 192.4868,276.0566 187.866,275.4983 183.2451,274.7554 178.6243,274.9743 174.0035,275.6428 169.3827,276.4922 164.7619,277.3605 160.1411,278.1635 155.5203,278.8785 150.8995,279.5061 146.2787,280.046 141.6578,280.4967 137.037,280.8561 132.4162,281.1209 127.7954,281.2873 123.1746,281.3508 118.5538,281.3062 113.933,281.1477 109.3122,280.8689 104.6914,280.4632 100.0705,279.9234 95.4497,279.2422 90.8289,278.4118 86.2081,277.4243 81.5873,277.351 76.9665,277.7695 72.3457,278.4936 67.7249,279.4143 63.1041,280.452 58.4832,281.5428 53.8624,282.6389 49.2416,283.4428 44.6208,284.0861 40,284.7152"></polyline>
<text class = "party pp" x="631.1111" y="275"><tspan class="party_name">PP</tspan><tspan class="party_result"> (6.8±1.6%)</tspan></text>
<polyline id="media-otros"  class="otros media" points=" 40,310.1076 44.6208,310.1516 49.2416,310.1987 53.8624,310.249 58.4832,310.3021 63.1041,310.3555 67.7249,310.4049 72.3457,310.4447 76.9665,310.4672 81.5873,310.4614 86.2081,310.4067 90.8289,310.2502 95.4497,310.0929 100.0705,309.9352 104.6914,309.778 109.3122,309.6213 113.933,309.4656 118.5538,309.3106 123.1746,309.1564 127.7954,309.0025 132.4162,308.8484 137.037,308.6937 141.6578,308.5375 146.2787,308.379 150.8995,308.217 155.5203,308.0505 160.1411,307.8778 164.7619,307.6975 169.3827,307.5143 174.0035,307.3504 178.6243,307.2498 183.2451,307.2887 187.866,307.6247 192.4868,307.9374 197.1076,308.2303 201.7284,308.5063 206.3492,308.7688 210.97,309.0208 215.5908,309.2655 220.2116,309.5063 224.8325,309.7465 229.4533,309.9899 234.0741,310.2407 238.6949,310.4843 243.3157,310.6595 247.9365,310.6398 252.5573,310.156 257.1781,309.7207 261.7989,309.3268 266.4198,308.9728 271.0406,308.668 275.6614,308.4288 280.2822,308.2809 284.903,308.2849 289.5238,308.2632 294.1446,308.2204 298.7654,308.1598 303.3862,308.0839 308.0071,307.9946 312.6279,307.8932 317.2487,307.7805 321.8695,307.6569 326.4903,307.5225 331.1111,307.3771 335.7319,307.2203 340.3527,307.0542 344.9735,306.888 349.5944,306.7402 354.2152,306.6396 358.836,306.6299 363.4568,306.7878 368.0776,306.9022 372.6984,306.976 377.3192,307.0116 381.94,307.0105 386.5608,306.9732 391.1817,306.8997 395.8025,306.8034 400.4233,306.735 405.0441,306.7963 409.6649,307.1841 414.2857,307.5509 418.9065,307.9689 423.5273,308.3455 428.1481,308.678 432.769,308.9706 437.3898,309.243 442.0106,309.5469 446.6314,309.8362 451.2522,310.1204 455.873,310.4316 460.4938,310.826 465.1146,311.3981 469.7354,311.867 474.3563,312.1601 478.9771,312.129 483.5979,312.1468 488.2187,312.2053 492.8395,312.2982 497.4603,312.4204 502.0811,312.5677 506.7019,312.7365 511.3228,312.9241 515.9436,313.1284 520.5644,313.3478 525.1852,313.5747 529.806,313.7857 534.4268,313.9379 539.0476,313.9597 543.6684,314.0393 548.2892,314.1779 552.9101,314.4214 557.5309,314.7206 562.1517,314.8467 566.7725,314.2037 571.3933,313.7784 576.0141,313.4483 580.6349,313.2168 585.2557,313.1076 589.8765,313.2268 594.4974,313.3677 599.1182,313.6359 603.739,314.2423 608.3598,314.8371 612.9806,315.3458 617.6014,315.8242 622.2222,316.1016"></polyline>
<polyline id="error-otros" class="otros error" points=" 40,289.0543 44.6208,289.58 49.2416,290.1184 53.8624,290.7865 58.4832,291.6888 63.1041,292.5855 67.7249,293.4348 72.3457,294.1808 76.9665,294.7536 81.5873,295.0565 86.2081,294.921 90.8289,293.9548 95.4497,293.1013 100.0705,292.3561 104.6914,291.7142 109.3122,291.1705 113.933,290.7199 118.5538,290.357 123.1746,290.0768 127.7954,289.8741 132.4162,289.7441 137.037,289.6822 141.6578,289.6842 146.2787,289.7459 150.8995,289.8638 155.5203,290.0347 160.1411,290.2556 164.7619,290.5242 169.3827,290.8326 174.0035,291.1582 178.6243,291.4598 183.2451,291.6744 187.866,291.7017 192.4868,291.8164 197.1076,292.0113 201.7284,292.2808 206.3492,292.6207 210.97,293.0281 215.5908,293.501 220.2116,294.0389 224.8325,294.6421 229.4533,295.3124 234.0741,296.0528 238.6949,296.8258 243.3157,297.4909 247.9365,297.772 252.5573,297.1175 257.1781,296.6608 261.7989,296.3833 266.4198,296.2611 271.0406,296.2445 275.6614,296.2444 280.2822,296.1127 284.903,295.552 289.5238,295.0805 294.1446,294.6903 298.7654,294.3745 303.3862,294.1269 308.0071,293.9419 312.6279,293.8142 317.2487,293.7389 321.8695,293.7116 326.4903,293.728 331.1111,293.7844 335.7319,293.8774 340.3527,294.0028 344.9735,294.1544 349.5944,294.3226 354.2152,294.4946 358.836,294.6546 363.4568,294.7842 368.0776,294.9507 372.6984,295.148 377.3192,295.3707 381.94,295.6143 386.5608,295.8744 391.1817,296.1472 395.8025,296.4318 400.4233,296.7371 405.0441,297.0912 409.6649,297.5683 414.2857,298.0046 418.9065,298.3879 423.5273,298.8315 428.1481,299.3153 432.769,299.7997 437.3898,300.2249 442.0106,300.5047 446.6314,300.873 451.2522,301.314 455.873,301.824 460.4938,302.4031 465.1146,303.0484 469.7354,303.5945 474.3563,303.8462 478.9771,303.4145 483.5979,303.1109 488.2187,302.924 492.8395,302.845 497.4603,302.8667 502.0811,302.9827 506.7019,303.1874 511.3228,303.4756 515.9436,303.8431 520.5644,304.2858 525.1852,304.787 529.806,305.2961 534.4268,305.7175 539.0476,305.8871 543.6684,306.1362 548.2892,306.3925 552.9101,306.8569 557.5309,307.4377 562.1517,307.7704 566.7725,306.9468 571.3933,306.4682 576.0141,306.2048 580.6349,306.0707 585.2557,305.9489 589.8765,305.6358 594.4974,305.4885 599.1182,305.5501 603.739,305.911 608.3598,306.2926 612.9806,306.4773 617.6014,306.6645 622.2222,306.5884 622.2222,325.6148 617.6014,324.9838 612.9806,324.2143 608.3598,323.3817 603.739,322.5737 599.1182,321.7218 594.4974,321.2468 589.8765,320.8177 585.2557,320.2663 580.6349,320.3629 576.0141,320.6919 571.3933,321.0885 566.7725,321.4605 562.1517,321.923 557.5309,322.0034 552.9101,321.9859 548.2892,321.9633 543.6684,321.9424 539.0476,322.0322 534.4268,322.1583 529.806,322.2754 525.1852,322.3624 520.5644,322.4097 515.9436,322.4137 511.3228,322.3726 506.7019,322.2856 502.0811,322.1526 497.4603,321.9741 492.8395,321.7515 488.2187,321.4867 483.5979,321.1828 478.9771,320.8435 474.3563,320.474 469.7354,320.1394 465.1146,319.7479 460.4938,319.249 455.873,319.0392 451.2522,318.9267 446.6314,318.7994 442.0106,318.589 437.3898,318.2611 432.769,318.1414 428.1481,318.0407 423.5273,317.8595 418.9065,317.55 414.2857,317.0973 409.6649,316.7999 405.0441,316.5015 400.4233,316.7328 395.8025,317.175 391.1817,317.6522 386.5608,318.072 381.94,318.4067 377.3192,318.6525 372.6984,318.804 368.0776,318.8536 363.4568,318.7915 358.836,318.6052 354.2152,318.7846 349.5944,319.1579 344.9735,319.6217 340.3527,320.1056 335.7319,320.5633 331.1111,320.9698 326.4903,321.3169 321.8695,321.6022 317.2487,321.8221 312.6279,321.9722 308.0071,322.0474 303.3862,322.0409 298.7654,321.945 294.1446,321.7505 289.5238,321.4459 284.903,321.0178 280.2822,320.4491 275.6614,320.6132 271.0406,321.0914 266.4198,321.6846 261.7989,322.2702 257.1781,322.7806 252.5573,323.1945 247.9365,323.5075 243.3157,323.8282 238.6949,324.1428 234.0741,324.4285 229.4533,324.6675 224.8325,324.8509 220.2116,324.9737 215.5908,325.03 210.97,325.0135 206.3492,324.9168 201.7284,324.7318 197.1076,324.4492 192.4868,324.0585 187.866,323.5476 183.2451,322.903 178.6243,323.0397 174.0035,323.5427 169.3827,324.196 164.7619,324.8707 160.1411,325.5 155.5203,326.0662 150.8995,326.5702 146.2787,327.012 141.6578,327.3909 137.037,327.7052 132.4162,327.9528 127.7954,328.1309 123.1746,328.236 118.5538,328.2643 113.933,328.2113 109.3122,328.0721 104.6914,327.8417 100.0705,327.5144 95.4497,327.0844 90.8289,326.5457 86.2081,325.8923 81.5873,325.8664 76.9665,326.1808 72.3457,326.7086 67.7249,327.3751 63.1041,328.1255 58.4832,328.9154 53.8624,329.7116 49.2416,330.279 44.6208,330.7233 40,331.1608"></polyline>
<text class = "party otros" x="631.1111" y="317"><tspan class="party_name">Otros</tspan><tspan class="party_result"> (2.1±1.2%)</tspan></text>
<g id="encuesta-1">
<circle id="encuesta-1-cup" class="encuesta feedback cup" cx="622.2222" cy="281.6162" r="3.1623" ></circle>
<circle id="encuesta-1-erc" class="encuesta feedback erc" cx="622.2222" cy="139.3939" r="3.1623" ></circle>
<circle id="encuesta-1-jxcat" class="encuesta feedback jxcat" cx="622.2222" cy="195.1515" r="3.1623" ></circle>
<circle id="encuesta-1-cec" class="encuesta feedback cec" cx="622.2222" cy="258.1818" r="3.1623" ></circle>
<circle id="encuesta-1-psc" class="encuesta feedback psc" cx="622.2222" cy="224.2424" r="3.1623" ></circle>
<circle id="encuesta-1-cs" class="encuesta feedback cs" cx="622.2222" cy="149.0909" r="3.1623" ></circle>
<circle id="encuesta-1-pp" class="encuesta feedback pp" cx="622.2222" cy="283.2323" r="3.1623" ></circle>
<circle id="encuesta-1-otros" class="encuesta feedback otros" cx="622.2222" cy="327.6768" r="3.1623" ></circle>
</g>
<g id="encuesta-2">
<circle id="encuesta-2-cup" class="encuesta gesop cup" cx="608.3598" cy="284.8485" r="2.8284" ></circle>
<circle id="encuesta-2-erc" class="encuesta gesop erc" cx="608.3598" cy="167.6768" r="2.8284" ></circle>
<circle id="encuesta-2-jxcat" class="encuesta gesop jxcat" cx="608.3598" cy="177.3737" r="2.8284" ></circle>
<circle id="encuesta-2-cec" class="encuesta gesop cec" cx="608.3598" cy="264.6465" r="2.8284" ></circle>
<circle id="encuesta-2-psc" class="encuesta gesop psc" cx="608.3598" cy="179.798" r="2.8284" ></circle>
<circle id="encuesta-2-cs" class="encuesta gesop cs" cx="608.3598" cy="179.798" r="2.8284" ></circle>
<circle id="encuesta-2-pp" class="encuesta gesop pp" cx="608.3598" cy="286.4646" r="2.8284" ></circle>
<circle id="encuesta-2-otros" class="encuesta gesop otros" cx="608.3598" cy="317.9798" r="2.8284" ></circle>
</g>
<g id="encuesta-3">
<circle id="encuesta-3-cup" class="encuesta sociometrica cup" cx="599.1182" cy="284.8485" r="2.8284" ></circle>
<circle id="encuesta-3-erc" class="encuesta sociometrica erc" cx="599.1182" cy="146.6667" r="2.8284" ></circle>
<circle id="encuesta-3-jxcat" class="encuesta sociometrica jxcat" cx="599.1182" cy="179.798" r="2.8284" ></circle>
<circle id="encuesta-3-cec" class="encuesta sociometrica cec" cx="599.1182" cy="281.6162" r="2.8284" ></circle>
<circle id="encuesta-3-psc" class="encuesta sociometrica psc" cx="599.1182" cy="210.5051" r="2.8284" ></circle>
<circle id="encuesta-3-cs" class="encuesta sociometrica cs" cx="599.1182" cy="167.6768" r="2.8284" ></circle>
<circle id="encuesta-3-pp" class="encuesta sociometrica pp" cx="599.1182" cy="283.2323" r="2.8284" ></circle>
<circle id="encuesta-3-otros" class="encuesta sociometrica otros" cx="599.1182" cy="304.2424" r="2.8284" ></circle>
</g>
<g id="encuesta-4">
<circle id="encuesta-4-cup" class="encuesta cis cup" cx="585.2557" cy="279.1919" r="5.4772" ></circle>
<circle id="encuesta-4-erc" class="encuesta cis erc" cx="585.2557" cy="165.2525" r="5.4772" ></circle>
<circle id="encuesta-4-jxcat" class="encuesta cis jxcat" cx="585.2557" cy="196.7677" r="5.4772" ></circle>
<circle id="encuesta-4-cec" class="encuesta cis cec" cx="585.2557" cy="263.8384" r="5.4772" ></circle>
<circle id="encuesta-4-psc" class="encuesta cis psc" cx="585.2557" cy="204.0404" r="5.4772" ></circle>
<circle id="encuesta-4-cs" class="encuesta cis cs" cx="585.2557" cy="151.5152" r="5.4772" ></circle>
<circle id="encuesta-4-pp" class="encuesta cis pp" cx="585.2557" cy="286.4646" r="5.4772" ></circle>
<circle id="encuesta-4-otros" class="encuesta cis otros" cx="585.2557" cy="311.5152" r="5.4772" ></circle>
</g>
<g id="encuesta-5">
<circle id="encuesta-5-cup" class="encuesta nc_report cup" cx="566.7725" cy="287.2727" r="3.1623" ></circle>
<circle id="encuesta-5-erc" class="encuesta nc_report erc" cx="566.7725" cy="138.5859" r="3.1623" ></circle>
<circle id="encuesta-5-jxcat" class="encuesta nc_report jxcat" cx="566.7725" cy="223.4343" r="3.1623" ></circle>
<circle id="encuesta-5-cec" class="encuesta nc_report cec" cx="566.7725" cy="265.4545" r="3.1623" ></circle>
<circle id="encuesta-5-psc" class="encuesta nc_report psc" cx="566.7725" cy="214.5455" r="3.1623" ></circle>
<circle id="encuesta-5-cs" class="encuesta nc_report cs" cx="566.7725" cy="164.4444" r="3.1623" ></circle>
<circle id="encuesta-5-pp" class="encuesta nc_report pp" cx="566.7725" cy="258.1818" r="3.1623" ></circle>
<circle id="encuesta-5-otros" class="encuesta nc_report otros" cx="566.7725" cy="306.6667" r="3.1623" ></circle>
</g>
<g id="encuesta-6">
<circle id="encuesta-6-cup" class="encuesta metroscopica cup" cx="562.1517" cy="285.6566" r="4.2426" ></circle>
<circle id="encuesta-6-erc" class="encuesta metroscopica erc" cx="562.1517" cy="119.1919" r="4.2426" ></circle>
<circle id="encuesta-6-jxcat" class="encuesta metroscopica jxcat" cx="562.1517" cy="223.4343" r="4.2426" ></circle>
<circle id="encuesta-6-cec" class="encuesta metroscopica cec" cx="562.1517" cy="279.1919" r="4.2426" ></circle>
<circle id="encuesta-6-psc" class="encuesta metroscopica psc" cx="562.1517" cy="212.9293" r="4.2426" ></circle>
<circle id="encuesta-6-cs" class="encuesta metroscopica cs" cx="562.1517" cy="128.8889" r="4.2426" ></circle>
<circle id="encuesta-6-pp" class="encuesta metroscopica pp" cx="562.1517" cy="286.4646" r="4.2426" ></circle>
<circle id="encuesta-6-otros" class="encuesta metroscopica otros" cx="562.1517" cy="322.8283" r="4.2426" ></circle>
</g>
<g id="encuesta-7">
<circle id="encuesta-7-cup" class="encuesta gesop cup" cx="543.6684" cy="282.4242" r="2.8284" ></circle>
<circle id="encuesta-7-erc" class="encuesta gesop erc" cx="543.6684" cy="140.202" r="2.8284" ></circle>
<circle id="encuesta-7-jxcat" class="encuesta gesop jxcat" cx="543.6684" cy="200" r="2.8284" ></circle>
<circle id="encuesta-7-cec" class="encuesta gesop cec" cx="543.6684" cy="263.8384" r="2.8284" ></circle>
<circle id="encuesta-7-psc" class="encuesta gesop psc" cx="543.6684" cy="187.0707" r="2.8284" ></circle>
<circle id="encuesta-7-cs" class="encuesta gesop cs" cx="543.6684" cy="183.0303" r="2.8284" ></circle>
<circle id="encuesta-7-pp" class="encuesta gesop pp" cx="543.6684" cy="287.2727" r="2.8284" ></circle>
<circle id="encuesta-7-otros" class="encuesta gesop otros" cx="543.6684" cy="314.7475" r="2.8284" ></circle>
</g>
<g id="encuesta-8">
<circle id="encuesta-8-cup" class="encuesta gad3 cup" cx="534.4268" cy="288.0808" r="2.8302" ></circle>
<circle id="encuesta-8-erc" class="encuesta gad3 erc" cx="534.4268" cy="146.6667" r="2.8302" ></circle>
<circle id="encuesta-8-jxcat" class="encuesta gad3 jxcat" cx="534.4268" cy="198.3838" r="2.8302" ></circle>
<circle id="encuesta-8-cec" class="encuesta gad3 cec" cx="534.4268" cy="271.9192" r="2.8302" ></circle>
<circle id="encuesta-8-psc" class="encuesta gad3 psc" cx="534.4268" cy="211.3131" r="2.8302" ></circle>
<circle id="encuesta-8-cs" class="encuesta gad3 cs" cx="534.4268" cy="153.1313" r="2.8302" ></circle>
<circle id="encuesta-8-pp" class="encuesta gad3 pp" cx="534.4268" cy="270.303" r="2.8302" ></circle>
<circle id="encuesta-8-otros" class="encuesta gad3 otros" cx="534.4268" cy="318.7879" r="2.8302" ></circle>
</g>
<g id="encuesta-9">
<circle id="encuesta-9-cup" class="encuesta nc_report cup" cx="474.3563" cy="282.4242" r="3.1623" ></circle>
<circle id="encuesta-9-erc" class="encuesta nc_report erc" cx="474.3563" cy="120.8081" r="3.1623" ></circle>
<circle id="encuesta-9-jxcat" class="encuesta nc_report jxcat" cx="474.3563" cy="246.8687" r="3.1623" ></circle>
<circle id="encuesta-9-cec" class="encuesta nc_report cec" cx="474.3563" cy="249.2929" r="3.1623" ></circle>
<circle id="encuesta-9-psc" class="encuesta nc_report psc" cx="474.3563" cy="223.4343" r="3.1623" ></circle>
<circle id="encuesta-9-cs" class="encuesta nc_report cs" cx="474.3563" cy="174.9495" r="3.1623" ></circle>
<circle id="encuesta-9-pp" class="encuesta nc_report pp" cx="474.3563" cy="248.4848" r="3.1623" ></circle>
<circle id="encuesta-9-otros" class="encuesta nc_report otros" cx="474.3563" cy="312.3232" r="3.1623" ></circle>
</g>
<g id="encuesta-10">
<circle id="encuesta-10-cup" class="encuesta gad3 cup" cx="474.3563" cy="282.4242" r="3.5114" ></circle>
<circle id="encuesta-10-erc" class="encuesta gad3 erc" cx="474.3563" cy="96.5657" r="3.5114" ></circle>
<circle id="encuesta-10-jxcat" class="encuesta gad3 jxcat" cx="474.3563" cy="249.2929" r="3.5114" ></circle>
<circle id="encuesta-10-cec" class="encuesta gad3 cec" cx="474.3563" cy="266.2626" r="3.5114" ></circle>
<circle id="encuesta-10-psc" class="encuesta gad3 psc" cx="474.3563" cy="215.3535" r="3.5114" ></circle>
<circle id="encuesta-10-cs" class="encuesta gad3 cs" cx="474.3563" cy="166.8687" r="3.5114" ></circle>
<circle id="encuesta-10-pp" class="encuesta gad3 pp" cx="474.3563" cy="263.0303" r="3.5114" ></circle>
<circle id="encuesta-10-otros" class="encuesta gad3 otros" cx="474.3563" cy="318.7879" r="3.5114" ></circle>
</g>
<g id="encuesta-11">
<circle id="encuesta-11-cup" class="encuesta sociometrica cup" cx="460.4938" cy="287.2727" r="3.1623" ></circle>
<circle id="encuesta-11-erc" class="encuesta sociometrica erc" cx="460.4938" cy="81.2121" r="3.1623" ></circle>
<circle id="encuesta-11-jxcat" class="encuesta sociometrica jxcat" cx="460.4938" cy="251.7172" r="3.1623" ></circle>
<circle id="encuesta-11-cec" class="encuesta sociometrica cec" cx="460.4938" cy="252.5253" r="3.1623" ></circle>
<circle id="encuesta-11-psc" class="encuesta sociometrica psc" cx="460.4938" cy="234.7475" r="3.1623" ></circle>
<circle id="encuesta-11-cs" class="encuesta sociometrica cs" cx="460.4938" cy="185.4545" r="3.1623" ></circle>
<circle id="encuesta-11-pp" class="encuesta sociometrica pp" cx="460.4938" cy="260.6061" r="3.1623" ></circle>
<circle id="encuesta-11-otros" class="encuesta sociometrica otros" cx="460.4938" cy="305.0505" r="3.1623" ></circle>
</g>
<g id="encuesta-12">
<circle id="encuesta-12-cup" class="encuesta sigmados cup" cx="437.3898" cy="282.4242" r="3.1623" ></circle>
<circle id="encuesta-12-erc" class="encuesta sigmados erc" cx="437.3898" cy="120" r="3.1623" ></circle>
<circle id="encuesta-12-jxcat" class="encuesta sigmados jxcat" cx="437.3898" cy="254.1414" r="3.1623" ></circle>
<circle id="encuesta-12-cec" class="encuesta sigmados cec" cx="437.3898" cy="244.4444" r="3.1623" ></circle>
<circle id="encuesta-12-psc" class="encuesta sigmados psc" cx="437.3898" cy="211.3131" r="3.1623" ></circle>
<circle id="encuesta-12-cs" class="encuesta sigmados cs" cx="437.3898" cy="174.9495" r="3.1623" ></circle>
<circle id="encuesta-12-pp" class="encuesta sigmados pp" cx="437.3898" cy="263.0303" r="3.1623" ></circle>
<circle id="encuesta-12-otros" class="encuesta sigmados otros" cx="437.3898" cy="308.2828" r="3.1623" ></circle>
</g>
<g id="encuesta-13">
<circle id="encuesta-13-cup" class="encuesta nc_report cup" cx="414.2857" cy="288.0808" r="3.1623" ></circle>
<circle id="encuesta-13-erc" class="encuesta nc_report erc" cx="414.2857" cy="134.5455" r="3.1623" ></circle>
<circle id="encuesta-13-jxcat" class="encuesta nc_report jxcat" cx="414.2857" cy="235.5556" r="3.1623" ></circle>
<circle id="encuesta-13-cec" class="encuesta nc_report cec" cx="414.2857" cy="241.2121" r="3.1623" ></circle>
<circle id="encuesta-13-psc" class="encuesta nc_report psc" cx="414.2857" cy="227.4747" r="3.1623" ></circle>
<circle id="encuesta-13-cs" class="encuesta nc_report cs" cx="414.2857" cy="178.1818" r="3.1623" ></circle>
<circle id="encuesta-13-pp" class="encuesta nc_report pp" cx="414.2857" cy="248.4848" r="3.1623" ></circle>
<circle id="encuesta-13-otros" class="encuesta nc_report otros" cx="414.2857" cy="305.0505" r="3.1623" ></circle>
</g>
<g id="encuesta-14">
<circle id="encuesta-14-cup" class="encuesta gesop cup" cx="405.0441" cy="270.303" r="2.8284" ></circle>
<circle id="encuesta-14-erc" class="encuesta gesop erc" cx="405.0441" cy="106.2626" r="2.8284" ></circle>
<circle id="encuesta-14-jxcat" class="encuesta gesop jxcat" cx="405.0441" cy="236.3636" r="2.8284" ></circle>
<circle id="encuesta-14-cec" class="encuesta gesop cec" cx="405.0441" cy="260.6061" r="2.8284" ></circle>
<circle id="encuesta-14-psc" class="encuesta gesop psc" cx="405.0441" cy="216.1616" r="2.8284" ></circle>
<circle id="encuesta-14-cs" class="encuesta gesop cs" cx="405.0441" cy="197.5758" r="2.8284" ></circle>
<circle id="encuesta-14-pp" class="encuesta gesop pp" cx="405.0441" cy="272.7273" r="2.8284" ></circle>
<circle id="encuesta-14-otros" class="encuesta gesop otros" cx="405.0441" cy="298.5859" r="2.8284" ></circle>
</g>
<g id="encuesta-15">
<circle id="encuesta-15-cup" class="encuesta sociometrica cup" cx="358.836" cy="282.4242" r="2.8284" ></circle>
<circle id="encuesta-15-erc" class="encuesta sociometrica erc" cx="358.836" cy="76.3636" r="2.8284" ></circle>
<circle id="encuesta-15-jxcat" class="encuesta sociometrica jxcat" cx="358.836" cy="267.8788" r="2.8284" ></circle>
<circle id="encuesta-15-cec" class="encuesta sociometrica cec" cx="358.836" cy="236.3636" r="2.8284" ></circle>
<circle id="encuesta-15-psc" class="encuesta sociometrica psc" cx="358.836" cy="256.5657" r="2.8284" ></circle>
<circle id="encuesta-15-cs" class="encuesta sociometrica cs" cx="358.836" cy="185.4545" r="2.8284" ></circle>
<circle id="encuesta-15-pp" class="encuesta sociometrica pp" cx="358.836" cy="251.7172" r="2.8284" ></circle>
<circle id="encuesta-15-otros" class="encuesta sociometrica otros" cx="358.836" cy="301.8182" r="2.8284" ></circle>
</g>
<g id="encuesta-16">
<circle id="encuesta-16-cup" class="encuesta nc_report cup" cx="280.2822" cy="288.0808" r="3.5426" ></circle>
<circle id="encuesta-16-erc" class="encuesta nc_report erc" cx="280.2822" cy="130.5051" r="3.5426" ></circle>
<circle id="encuesta-16-jxcat" class="encuesta nc_report jxcat" cx="280.2822" cy="230.7071" r="3.5426" ></circle>
<circle id="encuesta-16-cec" class="encuesta nc_report cec" cx="280.2822" cy="239.596" r="3.5426" ></circle>
<circle id="encuesta-16-psc" class="encuesta nc_report psc" cx="280.2822" cy="222.6263" r="3.5426" ></circle>
<circle id="encuesta-16-cs" class="encuesta nc_report cs" cx="280.2822" cy="194.3434" r="3.5426" ></circle>
<circle id="encuesta-16-pp" class="encuesta nc_report pp" cx="280.2822" cy="246.0606" r="3.5426" ></circle>
<circle id="encuesta-16-otros" class="encuesta nc_report otros" cx="280.2822" cy="306.6667" r="3.5426" ></circle>
</g>
<g id="encuesta-17">
<circle id="encuesta-17-cup" class="encuesta celeste-tel cup" cx="247.9365" cy="285.6566" r="2.8284" ></circle>
<circle id="encuesta-17-erc" class="encuesta celeste-tel erc" cx="247.9365" cy="133.7374" r="2.8284" ></circle>
<circle id="encuesta-17-jxcat" class="encuesta celeste-tel jxcat" cx="247.9365" cy="223.4343" r="2.8284" ></circle>
<circle id="encuesta-17-cec" class="encuesta celeste-tel cec" cx="247.9365" cy="234.7475" r="2.8284" ></circle>
<circle id="encuesta-17-psc" class="encuesta celeste-tel psc" cx="247.9365" cy="213.7374" r="2.8284" ></circle>
<circle id="encuesta-17-cs" class="encuesta celeste-tel cs" cx="247.9365" cy="192.7273" r="2.8284" ></circle>
<circle id="encuesta-17-pp" class="encuesta celeste-tel pp" cx="247.9365" cy="257.3737" r="2.8284" ></circle>
<circle id="encuesta-17-otros" class="encuesta celeste-tel otros" cx="247.9365" cy="317.1717" r="2.8284" ></circle>
</g>
<g id="encuesta-18">
<circle id="encuesta-18-cup" class="encuesta sociometrica cup" cx="183.2451" cy="278.3838" r="2.6458" ></circle>
<circle id="encuesta-18-erc" class="encuesta sociometrica erc" cx="183.2451" cy="107.0707" r="2.6458" ></circle>
<circle id="encuesta-18-jxcat" class="encuesta sociometrica jxcat" cx="183.2451" cy="230.7071" r="2.6458" ></circle>
<circle id="encuesta-18-cec" class="encuesta sociometrica cec" cx="183.2451" cy="249.2929" r="2.6458" ></circle>
<circle id="encuesta-18-psc" class="encuesta sociometrica psc" cx="183.2451" cy="251.7172" r="2.6458" ></circle>
<circle id="encuesta-18-cs" class="encuesta sociometrica cs" cx="183.2451" cy="190.303" r="2.6458" ></circle>
<circle id="encuesta-18-pp" class="encuesta sociometrica pp" cx="183.2451" cy="248.4848" r="2.6458" ></circle>
<circle id="encuesta-18-otros" class="encuesta sociometrica otros" cx="183.2451" cy="302.6263" r="2.6458" ></circle>
</g>
<g id="encuesta-19">
<circle id="encuesta-19-cup" class="encuesta nc_report cup" cx="86.2081" cy="280.8081" r="3.5426" ></circle>
<circle id="encuesta-19-erc" class="encuesta nc_report erc" cx="86.2081" cy="140.202" r="3.5426" ></circle>
<circle id="encuesta-19-jxcat" class="encuesta nc_report jxcat" cx="86.2081" cy="221.0101" r="3.5426" ></circle>
<circle id="encuesta-19-cec" class="encuesta nc_report cec" cx="86.2081" cy="235.5556" r="3.5426" ></circle>
<circle id="encuesta-19-psc" class="encuesta nc_report psc" cx="86.2081" cy="221.0101" r="3.5426" ></circle>
<circle id="encuesta-19-cs" class="encuesta nc_report cs" cx="86.2081" cy="191.9192" r="3.5426" ></circle>
<circle id="encuesta-19-pp" class="encuesta nc_report pp" cx="86.2081" cy="256.5657" r="3.5426" ></circle>
<circle id="encuesta-19-otros" class="encuesta nc_report otros" cx="86.2081" cy="311.5152" r="3.5426" ></circle>
</g>

<text class="pie izquierda" x="0" y="390">Datos: Electograph | Modelo propio</text>
<text class="pie derecha" x="800" y="390">Jesús Carro | <tspan style="font-weight:bold">1datomas</tspan>.com</text>
</svg>
