<?xml version="1.0" encoding="utf-8"?><!DOCTYPE svg PUBLIC "-//W3C//DTD SVG 1.1//EN" "http://www.w3.org/Graphics/SVG/1.1/DTD/svg11.dtd">
<svg xmlns="http://www.w3.org/2000/svg" xmlns:xlink="http://www.w3.org/1999/xlink" version="1.1" viewBox="0 0 800 400">

<text x="0" y="20" style="font-size:large;font-weight:bold;color:black">Intención de voto en Elecciones Autonómicas en Cataluña</text>
<text x="0" y="40" style="color:gray">Promedio de encuestas y estimación de error</text>

<text class="horizontal axis" x="36" y="333.3333">0%</text>
<line class="horizontal axis" x1="40" y1="333.3333" x2="622.2222" y2="333.3333"></line>
<text class="horizontal axis" x="36" y="252.5253">10%</text>
<line class="horizontal axis" x1="40" y1="252.5253" x2="622.2222" y2="252.5253"></line>
<text class="horizontal axis" x="36" y="171.7172">20%</text>
<line class="horizontal axis" x1="40" y1="171.7172" x2="622.2222" y2="171.7172"></line>
<text class="horizontal axis" x="36" y="90.9091">30%</text>
<line class="horizontal axis" x1="40" y1="90.9091" x2="622.2222" y2="90.9091"></line>
<line class="vertical axis" x1="40" y1="336.6667" x2="40" y2="66.6667"></line>
<text class="vertical axis" x="40" y="343.3333">Ago-2017</text>
<line class="vertical axis" x1="178.8376" y1="336.6667" x2="178.8376" y2="66.6667"></line>
<text class="vertical axis" x="178.8376" y="343.3333">Sep-2017</text>
<line class="vertical axis" x1="313.1966" y1="336.6667" x2="313.1966" y2="66.6667"></line>
<text class="vertical axis" x="313.1966" y="343.3333">Oct-2017</text>
<line class="vertical axis" x1="452.0342" y1="336.6667" x2="452.0342" y2="66.6667"></line>
<text class="vertical axis" x="452.0342" y="343.3333">Nov-2017</text>
<line class="vertical axis" x1="586.3932" y1="336.6667" x2="586.3932" y2="66.6667"></line>
<text class="vertical axis" x="586.3932" y="343.3333">Dic-2017</text>
<polyline id="media-cup"  class="cup media" points=" 40,281.8891 44.4786,281.8454 48.9573,281.7995 53.4359,281.7513 57.9145,281.7014 62.3932,281.6515 66.8718,281.6045 71.3504,281.5645 75.8291,281.5361 80.3077,281.526 84.7863,281.5466 89.265,281.6279 93.7436,281.7038 98.2222,281.7735 102.7009,281.8367 107.1795,281.8928 111.6581,281.9415 116.1368,281.9826 120.6154,282.0157 125.094,282.0408 129.5726,282.0574 134.0513,282.0653 138.5299,282.0641 143.0085,282.0534 147.4872,282.0325 151.9658,282.0009 156.4444,281.9575 160.9231,281.9013 165.4017,281.8354 169.8803,281.775 174.359,281.7511 178.8376,281.8189 183.3162,282.0917 187.7949,282.3481 192.2735,282.5897 196.7521,282.818 201.2308,283.0346 205.7094,283.2408 210.188,283.438 214.6667,283.6277 219.1453,283.8109 223.6239,283.9888 228.1026,284.1624 232.5812,284.3291 237.0598,284.479 241.5385,284.5964 246.0171,284.6562 250.4957,284.7451 254.9744,284.8616 259.453,284.9992 263.9316,285.1365 268.4103,285.2345 272.8889,285.2275 277.3675,284.9677 281.8462,284.7337 286.3248,284.5226 290.8034,284.3315 295.2821,284.1579 299.7607,283.9997 304.2393,283.8549 308.7179,283.7218 313.1966,283.5988 317.6752,283.4845 322.1538,283.3777 326.6325,283.2773 331.1111,283.1827 335.5897,283.0942 340.0684,283.0127 344.547,282.9394 349.0256,282.8756 353.5043,282.8226 357.9829,282.7598 362.4615,282.6871 366.9402,282.6043 371.4188,282.5103 375.8974,282.4037 380.3761,282.2822 384.8547,282.1583 389.3333,282.0846 393.812,282.171 398.2906,282.6354 402.7692,282.9323 407.2479,283.0181 411.7265,283.0981 416.2051,283.1711 420.6838,283.2411 425.1624,283.3216 429.641,283.4434 434.1197,283.5596 438.5983,283.6602 443.0769,283.7258 447.5556,283.7261 452.0342,283.6133 456.5128,283.5332 460.9915,283.5019 465.4701,283.5608 469.9487,283.6182 474.4274,283.6749 478.906,283.7314 483.3846,283.7882 487.8632,283.8455 492.3419,283.9035 496.8205,283.9626 501.2991,284.0233 505.7778,284.0861 510.2564,284.1473 514.735,284.1915 519.2137,284.1887 523.6923,284.0887 528.1709,284.0241 532.6496,284.0088 537.1282,283.9919 541.6068,283.962 546.0855,283.8716 550.5641,283.5862 555.0427,283.2673 559.5214,282.9749 564,282.7567 568.4786,282.691 572.9573,282.9643 577.4359,283.1644 581.9145,283.3009 586.3932,283.3663 590.8718,283.3975 595.3504,283.3848 599.8291,283.3778 604.3077,283.397 608.7863,283.4608 613.265,283.5017 617.7436,283.4505 622.2222,283.4818"></polyline>
<polyline id="error-cup" class="cup error" points=" 40,259.6742 44.4786,260.1064 48.9573,260.6117 53.4359,261.3541 57.9145,262.1146 62.3932,262.8751 66.8718,263.6026 71.3504,264.2518 75.8291,264.7652 80.3077,265.0641 84.7863,265.0161 89.265,264.328 93.7436,263.7534 98.2222,263.2834 102.7009,262.9098 107.1795,262.6249 111.6581,262.4216 116.1368,262.2935 120.6154,262.2346 125.094,262.2395 129.5726,262.3034 134.0513,262.4219 138.5299,262.5913 143.0085,262.8082 147.4872,263.07 151.9658,263.3742 156.4444,263.7191 160.9231,264.1035 165.4017,264.519 169.8803,264.9382 174.359,265.3102 178.8376,265.5547 183.3162,265.5362 187.7949,265.6084 192.2735,265.7614 196.7521,265.9878 201.2308,266.2815 205.7094,266.6378 210.188,267.0533 214.6667,267.5258 219.1453,268.054 223.6239,268.6375 228.1026,269.277 232.5812,269.9496 237.0598,270.5737 241.5385,270.9963 246.0171,270.9353 250.4957,271.0454 254.9744,271.3133 259.453,271.7103 263.9316,272.1575 268.4103,272.5119 272.8889,272.5372 277.3675,271.7364 281.8462,271.0787 286.3248,270.5465 290.8034,270.1253 295.2821,269.8027 299.7607,269.5682 304.2393,269.4128 308.7179,269.3291 313.1966,269.3103 317.6752,269.3511 322.1538,269.4467 326.6325,269.5934 331.1111,269.7851 335.5897,270.0074 340.0684,270.2349 344.547,270.4288 349.0256,270.5328 353.5043,270.4562 357.9829,270.4463 362.4615,270.4941 366.9402,270.5921 371.4188,270.7337 375.8974,270.913 380.3761,271.1249 384.8547,271.3688 389.3333,271.6582 393.812,272.0324 398.2906,272.5915 402.7692,272.9591 407.2479,273.0073 411.7265,273.1474 416.2051,273.3616 420.6838,273.6129 425.1624,273.8397 429.641,273.9426 434.1197,274.1372 438.5983,274.3888 443.0769,274.6421 447.5556,274.811 452.0342,274.7501 456.5128,274.7324 460.9915,274.6639 465.4701,274.3775 469.9487,274.1694 474.4274,274.0346 478.906,273.9686 483.3846,273.9675 487.8632,274.0277 492.3419,274.1461 496.8205,274.32 501.2991,274.547 505.7778,274.8257 510.2564,275.1447 514.735,275.4671 519.2137,275.7204 523.6923,275.7788 528.1709,275.8899 532.6496,276.0075 537.1282,276.2046 541.6068,276.4363 546.0855,276.5521 550.5641,276.1873 555.0427,275.8883 559.5214,275.7101 564,275.6308 568.4786,275.6266 572.9573,275.6834 577.4359,275.7972 581.9145,275.9202 586.3932,275.966 590.8718,276.0254 595.3504,276.023 599.8291,276.0752 604.3077,276.1547 608.7863,276.1964 613.265,276.1473 617.7436,275.7714 622.2222,275.3693 622.2222,291.5944 617.7436,291.1295 613.265,290.8562 608.7863,290.7252 604.3077,290.6392 599.8291,290.6803 595.3504,290.7466 590.8718,290.7695 586.3932,290.7665 581.9145,290.6815 577.4359,290.5317 572.9573,290.2452 568.4786,289.7554 564,289.8826 559.5214,290.2397 555.0427,290.6463 550.5641,290.9852 546.0855,291.1911 541.6068,291.4877 537.1282,291.7793 532.6496,292.01 528.1709,292.1584 523.6923,292.3986 519.2137,292.6571 514.735,292.916 510.2564,293.15 505.7778,293.3464 501.2991,293.4995 496.8205,293.6052 492.3419,293.6609 487.8632,293.6632 483.3846,293.6089 478.906,293.4943 474.4274,293.3151 469.9487,293.0669 465.4701,292.7441 460.9915,292.3399 456.5128,292.3339 452.0342,292.4765 447.5556,292.6412 443.0769,292.8094 438.5983,292.9316 434.1197,292.982 429.641,292.9442 425.1624,292.8035 420.6838,292.8694 416.2051,292.9807 411.7265,293.0488 407.2479,293.0288 402.7692,292.9055 398.2906,292.6792 393.812,292.3096 389.3333,292.5109 384.8547,292.9478 380.3761,293.4395 375.8974,293.8944 371.4188,294.287 366.9402,294.6165 362.4615,294.8802 357.9829,295.0733 353.5043,295.1891 349.0256,295.2185 344.547,295.4501 340.0684,295.7905 335.5897,296.1809 331.1111,296.5803 326.6325,296.9612 322.1538,297.3088 317.6752,297.6179 313.1966,297.8872 308.7179,298.1145 304.2393,298.297 299.7607,298.4312 295.2821,298.5132 290.8034,298.5376 286.3248,298.4986 281.8462,298.3888 277.3675,298.1989 272.8889,297.9177 268.4103,297.9571 263.9316,298.1155 259.453,298.288 254.9744,298.4098 250.4957,298.4447 246.0171,298.3771 241.5385,298.1965 237.0598,298.3842 232.5812,298.7086 228.1026,299.0478 223.6239,299.3401 219.1453,299.5677 214.6667,299.7295 210.188,299.8227 205.7094,299.8438 201.2308,299.7877 196.7521,299.6482 192.2735,299.418 187.7949,299.0879 183.3162,298.6471 178.8376,298.0831 174.359,298.1919 169.8803,298.6118 165.4017,299.1519 160.9231,299.6991 156.4444,300.1959 151.9658,300.6276 147.4872,300.9951 143.0085,301.2985 138.5299,301.5369 134.0513,301.7086 129.5726,301.8114 125.094,301.842 120.6154,301.7969 116.1368,301.6717 111.6581,301.4614 107.1795,301.1607 102.7009,300.7636 98.2222,300.2636 93.7436,299.6541 89.265,298.9277 84.7863,298.0771 80.3077,297.988 75.8291,298.307 71.3504,298.8772 66.8718,299.6065 62.3932,300.4278 57.9145,301.2882 53.4359,302.1486 48.9573,302.9872 44.4786,303.5843 40,304.104"></polyline>
<text class = "party cup" x="631.1111" y="298"><tspan class="party_name">CUP</tspan><tspan class="party_result"> (6.2±1.0%)</tspan></text>
<polyline id="media-erc"  class="erc media" points=" 40,133.0411 44.4786,133.241 48.9573,133.4586 53.4359,133.6952 57.9145,133.9485 62.3932,134.2069 66.8718,134.4491 71.3504,134.646 75.8291,134.7595 80.3077,134.7341 84.7863,134.4668 89.265,133.7024 93.7436,132.9436 98.2222,132.1939 102.7009,131.4559 107.1795,130.7311 111.6581,130.0201 116.1368,129.323 120.6154,128.639 125.094,127.9669 129.5726,127.305 134.0513,126.651 138.5299,126.0024 143.0085,125.3562 147.4872,124.709 151.9658,124.0568 156.4444,123.3953 160.9231,122.7195 165.4017,122.0434 169.8803,121.4298 174.359,121.0024 178.8376,120.9717 183.3162,121.7606 187.7949,122.4607 192.2735,123.0844 196.7521,123.643 201.2308,124.1469 205.7094,124.6059 210.188,125.0289 214.6667,125.4241 219.1453,125.7998 223.6239,126.1636 228.1026,126.5233 232.5812,126.8684 237.0598,127.1435 241.5385,127.235 246.0171,126.9076 250.4957,126.655 254.9744,126.4739 259.453,126.3557 263.9316,126.2697 268.4103,126.1519 272.8889,125.8822 277.3675,125.1769 281.8462,124.4664 286.3248,123.749 290.8034,123.0222 295.2821,122.2832 299.7607,121.5284 304.2393,120.754 308.7179,119.9554 313.1966,119.1273 317.6752,118.2638 322.1538,117.3579 326.6325,116.4014 331.1111,115.404 335.5897,114.4263 340.0684,113.5955 344.547,113.1171 349.0256,113.3122 353.5043,114.7467 357.9829,115.9412 362.4615,116.9278 366.9402,117.7333 371.4188,118.3795 375.8974,118.8845 380.3761,119.263 384.8547,119.5403 389.3333,119.7791 393.812,120.1017 398.2906,120.7451 402.7692,121.0132 407.2479,120.7355 411.7265,120.4275 416.2051,120.0796 420.6838,119.6829 425.1624,119.2136 429.641,118.5985 434.1197,117.8692 438.5983,117.1145 443.0769,116.5225 447.5556,116.4161 452.0342,117.3767 456.5128,118.2075 460.9915,119.2424 465.4701,121.1918 469.9487,123.0866 474.4274,124.9176 478.906,126.6763 483.3846,128.3553 487.8632,129.9485 492.3419,131.4503 496.8205,132.8566 501.2991,134.164 505.7778,135.3698 510.2564,136.4605 514.735,137.3984 519.2137,138.1201 523.6923,138.5268 528.1709,138.8775 532.6496,139.1298 537.1282,139.2782 541.6068,139.4063 546.0855,140.0095 550.5641,142.4975 555.0427,144.8465 559.5214,146.9514 564,148.6135 568.4786,149.5204 572.9573,148.9383 577.4359,148.7354 581.9145,148.7912 586.3932,149.003 590.8718,149.154 595.3504,149.0013 599.8291,148.9946 604.3077,149.1538 608.7863,149.53 613.265,149.7869 617.7436,149.7529 622.2222,149.5911"></polyline>
<polyline id="error-erc" class="erc error" points=" 40,91.2086 44.4786,92.0396 48.9573,93.0677 53.4359,94.7113 57.9145,96.4133 62.3932,98.1265 66.8718,99.7646 71.3504,101.2081 75.8291,102.3039 80.3077,102.8376 84.7863,102.4387 89.265,100.2613 93.7436,98.3086 98.2222,96.5675 102.7009,95.0252 107.1795,93.6694 111.6581,92.4879 116.1368,91.4692 120.6154,90.6022 125.094,89.8765 129.5726,89.2822 134.0513,88.8102 138.5299,88.452 143.0085,88.2001 147.4872,88.0474 151.9658,87.9878 156.4444,88.0159 160.9231,88.1273 165.4017,88.3158 169.8803,88.5675 174.359,88.8553 178.8376,89.1393 183.3162,89.3837 187.7949,89.7346 192.2735,90.1838 196.7521,90.7255 201.2308,91.3567 205.7094,92.0764 210.188,92.8851 214.6667,93.7854 219.1453,94.7813 223.6239,95.8791 228.1026,97.0869 232.5812,98.3578 237.0598,99.5041 241.5385,100.1545 246.0171,99.5907 250.4957,99.365 254.9744,99.4525 259.453,99.8045 263.9316,100.2854 268.4103,100.6388 272.8889,100.4263 277.3675,98.7174 281.8462,97.2243 286.3248,95.9162 290.8034,94.7673 295.2821,93.7555 299.7607,92.8618 304.2393,92.0689 308.7179,91.3616 313.1966,90.7255 317.6752,90.1473 322.1538,89.6142 326.6325,89.1134 331.1111,88.645 335.5897,88.2439 340.0684,87.9893 344.547,88.0142 349.0256,88.5344 353.5043,89.9491 357.9829,91.266 362.4615,92.5004 366.9402,93.6657 371.4188,94.7741 375.8974,95.8363 380.3761,96.8621 384.8547,97.8523 389.3333,98.7922 393.812,99.6622 398.2906,100.4601 402.7692,100.8448 407.2479,100.485 411.7265,100.2825 416.2051,100.1963 420.6838,100.1389 425.1624,99.9405 429.641,99.2727 434.1197,98.678 438.5983,98.1998 443.0769,97.9609 447.5556,98.1813 452.0342,99.2613 456.5128,100.2284 460.9915,101.2044 465.4701,102.5021 469.9487,103.9022 474.4274,105.3823 478.906,106.9233 483.3846,108.5085 487.8632,110.1238 492.3419,111.7568 496.8205,113.3973 501.2991,115.0366 505.7778,116.668 510.2564,118.2642 514.735,119.7471 519.2137,120.9724 523.6923,121.6971 528.1709,122.3963 532.6496,122.9104 537.1282,123.4767 541.6068,124.117 546.0855,125.1342 550.5641,127.5122 555.0427,129.9455 559.5214,132.3127 564,134.2751 568.4786,135.315 572.9573,134.2919 577.4359,133.9079 581.9145,133.9303 586.3932,134.1028 590.8718,134.3082 595.3504,134.1742 599.8291,134.2826 604.3077,134.5591 608.7863,134.893 613.265,134.9762 617.7436,134.3184 622.2222,133.3186 622.2222,165.8636 617.7436,165.1875 613.265,164.5976 608.7863,164.1669 604.3077,163.7485 599.8291,163.7066 595.3504,163.8283 590.8718,163.9999 586.3932,163.9033 581.9145,163.6521 577.4359,163.5629 572.9573,163.5847 568.4786,163.7258 564,162.9519 559.5214,161.59 555.0427,159.7476 550.5641,157.4829 546.0855,154.8848 541.6068,154.6956 537.1282,155.0797 532.6496,155.3491 528.1709,155.3586 523.6923,155.3565 519.2137,155.2678 514.735,155.0498 510.2564,154.6568 505.7778,154.0716 501.2991,153.2914 496.8205,152.316 492.3419,151.1438 487.8632,149.7731 483.3846,148.2021 478.906,146.4292 474.4274,144.4528 469.9487,142.2711 465.4701,139.8816 460.9915,137.2803 456.5128,136.1866 452.0342,135.492 447.5556,134.651 443.0769,135.084 438.5983,136.0292 434.1197,137.0604 429.641,137.9242 425.1624,138.4867 420.6838,139.227 416.2051,139.9629 411.7265,140.5724 407.2479,140.986 402.7692,141.1816 398.2906,141.0301 393.812,140.5412 389.3333,140.7661 384.8547,141.2283 380.3761,141.6638 375.8974,141.9327 371.4188,141.9849 366.9402,141.8009 362.4615,141.3553 357.9829,140.6163 353.5043,139.5442 349.0256,138.09 344.547,138.22 340.0684,139.2017 335.5897,140.6087 331.1111,142.1629 326.6325,143.6893 322.1538,145.1016 317.6752,146.3803 313.1966,147.5291 308.7179,148.5492 304.2393,149.4391 299.7607,150.1951 295.2821,150.8108 290.8034,151.2771 286.3248,151.5817 281.8462,151.7085 277.3675,151.6365 272.8889,151.3382 268.4103,151.6651 263.9316,152.2541 259.453,152.9069 254.9744,153.4953 250.4957,153.9449 246.0171,154.2244 241.5385,154.3154 237.0598,154.7829 232.5812,155.3789 228.1026,155.9597 223.6239,156.4481 219.1453,156.8182 214.6667,157.0629 210.188,157.1726 205.7094,157.1354 201.2308,156.9371 196.7521,156.5604 192.2735,155.985 187.7949,155.1868 183.3162,154.1375 178.8376,152.804 174.359,153.1495 169.8803,154.2921 165.4017,155.7709 160.9231,157.3117 156.4444,158.7747 151.9658,160.1258 147.4872,161.3706 143.0085,162.5123 138.5299,163.5528 134.0513,164.4918 129.5726,165.3277 125.094,166.0573 120.6154,166.6758 116.1368,167.1768 111.6581,167.5524 107.1795,167.7928 102.7009,167.8866 98.2222,167.8204 93.7436,167.5786 89.265,167.1436 84.7863,166.4949 80.3077,166.6306 75.8291,167.2151 71.3504,168.0839 66.8718,169.1336 62.3932,170.2873 57.9145,171.4837 53.4359,172.6791 48.9573,173.8494 44.4786,174.4424 40,174.8736"></polyline>
<text class = "party erc" x="631.1111" y="144"><tspan class="party_name">ERC</tspan><tspan class="party_result"> (22.7±2.0%)</tspan></text>
<polyline id="media-jxcat"  class="jxcat media" points=" 40,221.5755 44.4786,221.6125 48.9573,221.6448 53.4359,221.6719 57.9145,221.6935 62.3932,221.7106 66.8718,221.7257 71.3504,221.7431 75.8291,221.769 80.3077,221.8135 84.7863,221.8956 89.265,222.062 93.7436,222.2386 98.2222,222.4244 102.7009,222.6188 107.1795,222.8209 111.6581,223.0301 116.1368,223.246 120.6154,223.4681 125.094,223.6961 129.5726,223.9297 134.0513,224.1689 138.5299,224.4136 143.0085,224.6639 147.4872,224.9199 151.9658,225.182 156.4444,225.4504 160.9231,225.7257 165.4017,226.0023 169.8803,226.2596 174.359,226.4598 178.8376,226.5419 183.3162,226.3874 187.7949,226.2721 192.2735,226.1911 196.7521,226.14 201.2308,226.1143 205.7094,226.11 210.188,226.1231 214.6667,226.1495 219.1453,226.1852 223.6239,226.2262 228.1026,226.2678 232.5812,226.3127 237.0598,226.3852 241.5385,226.5446 246.0171,226.929 250.4957,227.315 254.9744,227.7019 259.453,228.0833 263.9316,228.4416 268.4103,228.753 272.8889,228.9895 277.3675,229.1037 281.8462,229.2839 286.3248,229.5258 290.8034,229.8264 295.2821,230.1834 299.7607,230.5956 304.2393,231.0626 308.7179,231.5846 313.1966,232.1631 317.6752,232.8001 322.1538,233.499 326.6325,234.2644 331.1111,235.0856 335.5897,235.9096 340.0684,236.6276 344.547,237.066 349.0256,236.956 353.5043,235.828 357.9829,234.9224 362.4615,234.2122 366.9402,233.6749 371.4188,233.2912 375.8974,233.0449 380.3761,232.9223 384.8547,232.9048 389.3333,232.9578 393.812,233.0284 398.2906,233.0386 402.7692,233.1187 407.2479,233.2455 411.7265,233.5289 416.2051,233.9452 420.6838,234.3691 425.1624,234.5348 429.641,233.9324 434.1197,233.6033 438.5983,233.4805 443.0769,233.4476 447.5556,233.3034 452.0342,232.6716 456.5128,232.0495 460.9915,231.0231 465.4701,228.6783 469.9487,226.3915 474.4274,224.1768 478.906,222.047 483.3846,220.0129 487.8632,218.0839 492.3419,216.2677 496.8205,214.5702 501.2991,212.9959 505.7778,211.5479 510.2564,210.2409 514.735,209.1155 519.2137,208.2448 523.6923,207.7545 528.1709,207.38 532.6496,207.237 537.1282,207.1415 541.6068,207.028 546.0855,206.4946 550.5641,204.3866 555.0427,202.3196 559.5214,200.4995 564,198.9366 568.4786,197.577 572.9573,196.2471 577.4359,194.8402 581.9145,193.5297 586.3932,192.5371 590.8718,191.6439 595.3504,191.0378 599.8291,190.3988 604.3077,189.7486 608.7863,189.0605 613.265,188.5087 617.7436,188.1272 622.2222,188.2146"></polyline>
<polyline id="error-jxcat" class="jxcat error" points=" 40,184.3948 44.4786,184.9889 48.9573,185.7418 53.4359,187.0391 57.9145,188.3669 62.3932,189.6942 66.8718,190.9651 71.3504,192.1035 75.8291,193.0133 80.3077,193.5632 84.7863,193.5348 89.265,192.4493 93.7436,191.5716 98.2222,190.8859 102.7009,190.3776 107.1795,190.0335 111.6581,189.8415 116.1368,189.7905 120.6154,189.8707 125.094,190.0734 129.5726,190.3909 134.0513,190.8166 138.5299,191.3453 143.0085,191.9724 147.4872,192.695 151.9658,193.511 156.4444,194.4197 160.9231,195.4217 165.4017,196.4927 169.8803,197.5415 174.359,198.3931 178.8376,198.7587 183.3162,198.1008 187.7949,197.6585 192.2735,197.4084 196.7521,197.3308 201.2308,197.409 205.7094,197.6292 210.188,197.9797 214.6667,198.4506 219.1453,199.0343 223.6239,199.7246 228.1026,200.5168 232.5812,201.3814 237.0598,202.2263 241.5385,202.886 246.0171,203.0779 250.4957,203.5042 254.9744,204.1445 259.453,204.9564 263.9316,205.8289 268.4103,206.5682 272.8889,206.8664 277.3675,206.1077 281.8462,205.6125 286.3248,205.3509 290.8034,205.2994 295.2821,205.4388 299.7607,205.7538 304.2393,206.2322 308.7179,206.8646 313.1966,207.6443 317.6752,208.5666 322.1538,209.6296 326.6325,210.8335 331.1111,212.1585 335.5897,213.5258 340.0684,214.7797 344.547,215.6757 349.0256,215.842 353.5043,214.6433 357.9829,213.8008 362.4615,213.2721 366.9402,213.0222 371.4188,213.0224 375.8974,213.2492 380.3761,213.6835 384.8547,214.2839 389.3333,214.9466 393.812,215.4923 398.2906,215.6303 402.7692,215.8111 407.2479,215.8728 411.7265,216.2589 416.2051,216.9172 420.6838,217.6508 425.1624,218.0606 429.641,217.4034 434.1197,217.1902 438.5983,217.3117 443.0769,217.5897 447.5556,217.7261 452.0342,217.1735 456.5128,216.6471 460.9915,215.5356 465.4701,212.548 469.9487,209.7536 474.4274,207.1574 478.906,204.7647 483.3846,202.5799 487.8632,200.6068 492.3419,198.8479 496.8205,197.3047 501.2991,195.9778 505.7778,194.867 510.2564,193.9752 514.735,193.3079 519.2137,192.8669 523.6923,192.6502 528.1709,192.58 532.6496,192.6684 537.1282,192.9477 541.6068,193.294 546.0855,193.1199 550.5641,190.8518 555.0427,188.8033 559.5214,187.1717 564,185.842 568.4786,184.5742 572.9573,182.8241 577.4359,181.2305 581.9145,179.8682 586.3932,178.8217 590.8718,177.9633 595.3504,177.3669 599.8291,176.8249 604.3077,176.272 608.7863,175.5304 613.265,174.8063 617.7436,173.8398 622.2222,173.1519 622.2222,203.2774 617.7436,202.4145 613.265,202.211 608.7863,202.5906 604.3077,203.2252 599.8291,203.9726 595.3504,204.7086 590.8718,205.3245 586.3932,206.2526 581.9145,207.1912 577.4359,208.4499 572.9573,209.6701 568.4786,210.5798 564,212.0312 559.5214,213.8274 555.0427,215.8359 550.5641,217.9213 546.0855,219.8692 541.6068,220.762 537.1282,221.3354 532.6496,221.8055 528.1709,222.18 523.6923,222.8589 519.2137,223.6227 514.735,224.9231 510.2564,226.5066 505.7778,228.2287 501.2991,230.0139 496.8205,231.8356 492.3419,233.6875 487.8632,235.5611 483.3846,237.4459 478.906,239.3292 474.4274,241.1962 469.9487,243.0294 465.4701,244.8087 460.9915,246.5106 456.5128,247.452 452.0342,248.1696 447.5556,248.8808 443.0769,249.3054 438.5983,249.6494 434.1197,250.0163 429.641,250.4613 425.1624,251.0091 420.6838,251.0875 416.2051,250.9733 411.7265,250.799 407.2479,250.6181 402.7692,250.4262 398.2906,250.4469 393.812,250.5644 389.3333,250.9689 384.8547,251.5256 380.3761,252.1612 375.8974,252.8406 371.4188,253.5599 366.9402,254.3275 362.4615,255.1523 357.9829,256.044 353.5043,257.0127 349.0256,258.0701 344.547,258.4564 340.0684,258.4755 335.5897,258.2933 331.1111,258.0126 326.6325,257.6952 322.1538,257.3685 317.6752,257.0336 313.1966,256.6819 308.7179,256.3046 304.2393,255.893 299.7607,255.4375 295.2821,254.9281 290.8034,254.3534 286.3248,253.7007 281.8462,252.9554 277.3675,252.0998 272.8889,251.1127 268.4103,250.9378 263.9316,251.0544 259.453,251.2102 254.9744,251.2594 250.4957,251.1259 246.0171,250.7802 241.5385,250.2032 237.0598,250.544 232.5812,251.244 228.1026,252.0188 223.6239,252.7278 219.1453,253.3362 214.6667,253.8483 210.188,254.2665 205.7094,254.5908 201.2308,254.8196 196.7521,254.9492 192.2735,254.9739 187.7949,254.8856 183.3162,254.6739 178.8376,254.3252 174.359,254.5266 169.8803,254.9777 165.4017,255.5119 160.9231,256.0298 156.4444,256.4812 151.9658,256.853 147.4872,257.1448 143.0085,257.3553 138.5299,257.4819 134.0513,257.5211 129.5726,257.4685 125.094,257.3187 120.6154,257.0655 116.1368,256.7015 111.6581,256.2188 107.1795,255.6082 102.7009,254.8599 98.2222,253.9629 93.7436,252.9055 89.265,251.6747 84.7863,250.2565 80.3077,250.0638 75.8291,250.5247 71.3504,251.3826 66.8718,252.4863 62.3932,253.727 57.9145,255.02 53.4359,256.3046 48.9573,257.5479 44.4786,258.2362 40,258.7562"></polyline>
<text class = "party jxcat" x="631.1111" y="188"><tspan class="party_name">JxCAT</tspan><tspan class="party_result"> (18.0±1.9%)</tspan></text>
<polyline id="media-cec"  class="cec media" points=" 40,243.8236 44.4786,243.4964 48.9573,243.1536 53.4359,242.7943 57.9145,242.4222 62.3932,242.0507 66.8718,241.7028 71.3504,241.4086 75.8291,241.2058 80.3077,241.1472 84.7863,241.3301 89.265,241.9956 93.7436,242.6294 98.2222,243.2276 102.7009,243.7878 107.1795,244.3084 111.6581,244.7887 116.1368,245.229 120.6154,245.6297 125.094,245.992 129.5726,246.3173 134.0513,246.6071 138.5299,246.8633 143.0085,247.0878 147.4872,247.2826 151.9658,247.4498 156.4444,247.5918 160.9231,247.7109 165.4017,247.8076 169.8803,247.8779 174.359,247.9116 178.8376,247.8886 183.3162,247.7621 187.7949,247.6195 192.2735,247.4575 196.7521,247.2729 201.2308,247.0627 205.7094,246.8243 210.188,246.5548 214.6667,246.2515 219.1453,245.9114 223.6239,245.5312 228.1026,245.1073 232.5812,244.6622 237.0598,244.2832 241.5385,244.141 246.0171,244.5773 250.4957,244.8785 254.9744,245.0522 259.453,245.1147 263.9316,245.1119 268.4103,245.1293 272.8889,245.3136 277.3675,245.9894 281.8462,246.6056 286.3248,247.1612 290.8034,247.6559 295.2821,248.0902 299.7607,248.4646 304.2393,248.78 308.7179,249.0372 313.1966,249.2366 317.6752,249.3785 322.1538,249.4626 326.6325,249.488 331.1111,249.4598 335.5897,249.4006 340.0684,249.3579 344.547,249.4099 349.0256,249.6802 353.5043,250.3871 357.9829,251.0006 362.4615,251.5285 366.9402,251.978 371.4188,252.3553 375.8974,252.6662 380.3761,252.916 384.8547,253.1036 389.3333,253.2133 393.812,253.2069 398.2906,252.9974 402.7692,253.0009 407.2479,253.3742 411.7265,253.659 416.2051,253.8656 420.6838,254.0548 425.1624,254.3682 429.641,255.0985 434.1197,255.7296 438.5983,256.2764 443.0769,256.7708 447.5556,257.2683 452.0342,257.8674 456.5128,258.3959 460.9915,258.8704 465.4701,259.3487 469.9487,259.8736 474.4274,260.4308 478.906,261.009 483.3846,261.599 487.8632,262.1933 492.3419,262.7858 496.8205,263.3718 501.2991,263.9475 505.7778,264.5105 510.2564,265.0513 514.735,265.5441 519.2137,265.9482 523.6923,266.2096 528.1709,266.5511 532.6496,267.0247 537.1282,267.5679 541.6068,268.1166 546.0855,268.4118 550.5641,267.8113 555.0427,267.4026 559.5214,267.1207 564,266.97 568.4786,266.9999 572.9573,267.3759 577.4359,267.69 581.9145,267.86 586.3932,267.7289 590.8718,267.6487 595.3504,267.661 599.8291,267.7188 604.3077,267.8694 608.7863,268.1923 613.265,268.3911 617.7436,268.36 622.2222,268.2162"></polyline>
<polyline id="error-cec" class="cec error" points=" 40,217.2293 44.4786,217.4156 48.9573,217.6794 53.4359,218.224 57.9145,218.7811 62.3932,219.3417 66.8718,219.8874 71.3504,220.3914 75.8291,220.8184 80.3077,221.1216 84.7863,221.23 89.265,221.0142 93.7436,220.9084 98.2222,220.8977 102.7009,220.9696 107.1795,221.1134 111.6581,221.32 116.1368,221.5818 120.6154,221.8926 125.094,222.2474 129.5726,222.642 134.0513,223.0736 138.5299,223.5399 143.0085,224.0398 147.4872,224.573 151.9658,225.1399 156.4444,225.7421 160.9231,226.3821 165.4017,227.0471 169.8803,227.6825 174.359,228.1803 178.8376,228.3576 183.3162,227.8683 187.7949,227.4877 192.2735,227.1992 196.7521,226.9888 201.2308,226.8449 205.7094,226.7578 210.188,226.7192 214.6667,226.7222 219.1453,226.7612 223.6239,226.8316 228.1026,226.9297 232.5812,227.0558 237.0598,227.2163 241.5385,227.4248 246.0171,227.7297 250.4957,228.062 254.9744,228.415 259.453,228.7804 263.9316,229.1387 268.4103,229.4571 272.8889,229.6868 277.3675,229.7572 281.8462,229.9069 286.3248,230.1161 290.8034,230.3697 295.2821,230.6557 299.7607,230.9648 304.2393,231.2893 308.7179,231.6228 313.1966,231.9601 317.6752,232.2965 322.1538,232.6279 326.6325,232.9506 331.1111,233.2633 335.5897,233.5727 340.0684,233.8968 344.547,234.2695 349.0256,234.7505 353.5043,235.4573 357.9829,236.1581 362.4615,236.8501 366.9402,237.532 371.4188,238.2037 375.8974,238.8662 380.3761,239.5216 384.8547,240.1532 389.3333,240.6963 393.812,241.0239 398.2906,240.8981 402.7692,240.9713 407.2479,241.3077 411.7265,241.6683 416.2051,242.0442 420.6838,242.4497 425.1624,242.9415 429.641,243.6656 434.1197,244.4026 438.5983,245.1388 443.0769,245.8658 447.5556,246.5759 452.0342,247.2579 456.5128,247.8781 460.9915,248.3239 465.4701,248.4097 469.9487,248.6379 474.4274,248.9865 478.906,249.4378 483.3846,249.9767 487.8632,250.591 492.3419,251.2701 496.8205,252.0051 501.2991,252.7892 505.7778,253.6169 510.2564,254.4699 514.735,255.2975 519.2137,256.0097 523.6923,256.4658 528.1709,257.0225 532.6496,257.6637 537.1282,258.4693 541.6068,259.3357 546.0855,259.8795 550.5641,259.1816 555.0427,258.7964 559.5214,258.6488 564,258.6617 568.4786,258.7655 572.9573,258.8926 577.4359,259.1085 581.9145,259.2628 586.3932,259.1034 590.8718,259.0524 595.3504,259.0772 599.8291,259.2051 604.3077,259.4283 608.7863,259.732 613.265,259.8311 617.7436,259.4281 622.2222,258.7815 622.2222,277.6508 617.7436,277.2918 613.265,276.9511 608.7863,276.6525 604.3077,276.3105 599.8291,276.2325 595.3504,276.2448 590.8718,276.2451 586.3932,276.3544 581.9145,276.4571 577.4359,276.2714 572.9573,275.8592 568.4786,275.2344 564,275.2783 559.5214,275.5926 555.0427,276.0089 550.5641,276.441 546.0855,276.9441 541.6068,276.8976 537.1282,276.6664 532.6496,276.3857 528.1709,276.0797 523.6923,275.9534 519.2137,275.8866 514.735,275.7907 510.2564,275.6326 505.7778,275.4041 501.2991,275.1059 496.8205,274.7385 492.3419,274.3016 487.8632,273.7956 483.3846,273.2212 478.906,272.5802 474.4274,271.875 469.9487,271.1093 465.4701,270.2878 460.9915,269.417 456.5128,268.9137 452.0342,268.4769 447.5556,267.9608 443.0769,267.6759 438.5983,267.414 434.1197,267.0566 429.641,266.5314 425.1624,265.795 420.6838,265.6599 416.2051,265.687 411.7265,265.6497 407.2479,265.4408 402.7692,265.0304 398.2906,265.0968 393.812,265.3898 389.3333,265.7303 384.8547,266.0541 380.3761,266.3103 375.8974,266.4662 371.4188,266.507 366.9402,266.424 362.4615,266.2069 357.9829,265.843 353.5043,265.3169 349.0256,264.61 344.547,264.5504 340.0684,264.8191 335.5897,265.2285 331.1111,265.6563 326.6325,266.0255 322.1538,266.2973 317.6752,266.4605 313.1966,266.5132 308.7179,266.4516 304.2393,266.2708 299.7607,265.9643 295.2821,265.5246 290.8034,264.9422 286.3248,264.2063 281.8462,263.3044 277.3675,262.2216 272.8889,260.9405 268.4103,260.8016 263.9316,261.0851 259.453,261.4491 254.9744,261.6893 250.4957,261.6951 246.0171,261.4249 241.5385,260.8572 237.0598,261.3501 232.5812,262.2686 228.1026,263.2848 223.6239,264.2308 219.1453,265.0616 214.6667,265.7808 210.188,266.3905 205.7094,266.8908 201.2308,267.2806 196.7521,267.557 192.2735,267.7159 187.7949,267.7514 183.3162,267.6558 178.8376,267.4195 174.359,267.643 169.8803,268.0732 165.4017,268.568 160.9231,269.0396 156.4444,269.4415 151.9658,269.7597 147.4872,269.9921 143.0085,270.1357 138.5299,270.1867 134.0513,270.1406 129.5726,269.9925 125.094,269.7367 120.6154,269.3668 116.1368,268.8761 111.6581,268.2575 107.1795,267.5033 102.7009,266.606 98.2222,265.5575 93.7436,264.3504 89.265,262.977 84.7863,261.4302 80.3077,261.1728 75.8291,261.5931 71.3504,262.4259 66.8718,263.5182 62.3932,264.7597 57.9145,266.0633 53.4359,267.3646 48.9573,268.6277 44.4786,269.5772 40,270.4178"></polyline>
<text class = "party cec" x="631.1111" y="256"><tspan class="party_name">CeC</tspan><tspan class="party_result"> (8.1±1.2%)</tspan></text>
<polyline id="media-psc"  class="psc media" points=" 40,222.8445 44.4786,222.8343 48.9573,222.8185 53.4359,222.7961 57.9145,222.7675 62.3932,222.7356 66.8718,222.7065 71.3504,222.689 75.8291,222.696 80.3077,222.747 84.7863,222.879 89.265,223.1835 93.7436,223.5018 98.2222,223.8333 102.7009,224.178 107.1795,224.5361 111.6581,224.9081 116.1368,225.2951 120.6154,225.6981 125.094,226.1189 129.5726,226.5593 134.0513,227.0219 138.5299,227.5095 143.0085,228.0255 147.4872,228.5738 151.9658,229.1592 156.4444,229.7871 160.9231,230.464 165.4017,231.1705 169.8803,231.8184 174.359,232.2315 178.8376,232.1051 183.3162,230.8236 187.7949,229.6627 192.2735,228.6095 196.7521,227.6519 201.2308,226.7786 205.7094,225.9789 210.188,225.243 214.6667,224.5616 219.1453,223.9256 223.6239,223.3266 228.1026,222.7558 232.5812,222.2273 237.0598,221.8089 241.5385,221.6372 246.0171,221.9942 250.4957,222.2842 254.9744,222.5199 259.453,222.7108 263.9316,222.8666 268.4103,223.0007 272.8889,223.1368 277.3675,223.3266 281.8462,223.5328 286.3248,223.7558 290.8034,223.997 295.2821,224.2583 299.7607,224.542 304.2393,224.851 308.7179,225.1886 313.1966,225.5586 317.6752,225.9656 322.1538,226.415 326.6325,226.913 331.1111,227.4528 335.5897,227.9891 340.0684,228.4251 344.547,228.6017 349.0256,228.2672 353.5043,226.9748 357.9829,225.853 362.4615,224.8795 366.9402,224.0356 371.4188,223.3055 375.8974,222.6758 380.3761,222.135 384.8547,221.679 389.3333,221.3158 393.812,221.0645 398.2906,220.9654 402.7692,220.7371 407.2479,220.2743 411.7265,219.8303 416.2051,219.4201 420.6838,219.0955 425.1624,218.9594 429.641,219.2132 434.1197,219.4491 438.5983,219.6455 443.0769,219.7321 447.5556,219.5802 452.0342,218.9562 456.5128,218.4254 460.9915,217.9374 465.4701,217.3807 469.9487,216.7955 474.4274,216.1917 478.906,215.5773 483.3846,214.9585 487.8632,214.3407 492.3419,213.7281 496.8205,213.1241 501.2991,212.5314 505.7778,211.952 510.2564,211.3873 514.735,210.8341 519.2137,210.2978 523.6923,209.8179 528.1709,209.5862 532.6496,209.9037 537.1282,210.1154 541.6068,210.2292 546.0855,210.1954 550.5641,209.8352 555.0427,209.4074 559.5214,208.9903 564,208.6479 568.4786,208.4797 572.9573,208.7063 577.4359,208.7949 581.9145,208.7792 586.3932,208.7373 590.8718,208.9054 595.3504,209.6251 599.8291,210.1526 604.3077,210.4232 608.7863,210.3417 613.265,210.3478 617.7436,210.6315 622.2222,210.8458"></polyline>
<polyline id="error-psc" class="psc error" points=" 40,189.0433 44.4786,189.5867 48.9573,190.2637 53.4359,191.3959 57.9145,192.5543 62.3932,193.7129 66.8718,194.8247 71.3504,195.8258 75.8291,196.6361 80.3077,197.1472 84.7863,197.1807 89.265,196.3525 93.7436,195.7181 98.2222,195.2634 102.7009,194.9759 107.1795,194.8444 111.6581,194.8592 116.1368,195.0116 120.6154,195.2943 125.094,195.7013 129.5726,196.2278 134.0513,196.8705 138.5299,197.6274 143.0085,198.4979 147.4872,199.483 151.9658,200.5855 156.4444,201.8098 160.9231,203.1628 165.4017,204.6069 169.8803,205.9874 174.359,206.9986 178.8376,207.1209 183.3162,205.3402 187.7949,203.8423 192.2735,202.5979 196.7521,201.5813 201.2308,200.7702 205.7094,200.1448 210.188,199.6884 214.6667,199.3862 219.1453,199.2259 223.6239,199.1969 228.1026,199.2906 232.5812,199.4919 237.0598,199.7638 241.5385,200.0394 246.0171,200.2201 250.4957,200.5446 254.9744,201.0078 259.453,201.5873 263.9316,202.2078 268.4103,202.7287 272.8889,202.9185 277.3675,202.3119 281.8462,201.901 286.3248,201.663 290.8034,201.5805 295.2821,201.6399 299.7607,201.8309 304.2393,202.1458 308.7179,202.5791 313.1966,203.1274 317.6752,203.789 322.1538,204.5647 326.6325,205.457 331.1111,206.4506 335.5897,207.4769 340.0684,208.3963 344.547,208.9852 349.0256,208.8975 353.5043,207.5344 357.9829,206.4636 362.4615,205.6486 366.9402,205.0598 371.4188,204.6727 375.8974,204.4674 380.3761,204.4279 384.8547,204.5294 389.3333,204.7175 393.812,204.8961 398.2906,204.9122 402.7692,204.7694 407.2479,204.2323 411.7265,203.8655 416.2051,203.6594 420.6838,203.6037 425.1624,203.6867 429.641,203.9098 434.1197,204.2659 438.5983,204.6953 443.0769,205.0721 447.5556,205.1792 452.0342,204.629 456.5128,204.1886 460.9915,203.6339 465.4701,202.5231 469.9487,201.508 474.4274,200.5889 478.906,199.7662 483.3846,199.0396 487.8632,198.4088 492.3419,197.873 496.8205,197.4313 501.2991,197.0825 505.7778,196.8255 510.2564,196.6509 514.735,196.5229 519.2137,196.3811 523.6923,196.1485 528.1709,196.1947 532.6496,196.7303 537.1282,197.287 541.6068,197.8209 546.0855,198.1201 550.5641,197.6409 555.0427,197.2533 559.5214,197.0253 564,196.9092 568.4786,196.8395 572.9573,196.7115 577.4359,196.654 581.9145,196.61 586.3932,196.5329 590.8718,196.7472 595.3504,197.4963 599.8291,198.1278 604.3077,198.4981 608.7863,198.3769 613.265,198.2374 617.7436,198.0123 622.2222,197.5414 622.2222,224.1501 617.7436,223.2507 613.265,222.4582 608.7863,222.3066 604.3077,222.3484 599.8291,222.1775 595.3504,221.7539 590.8718,221.0635 586.3932,220.9418 581.9145,220.9485 577.4359,220.9358 572.9573,220.7012 568.4786,220.1199 564,220.3866 559.5214,220.9553 555.0427,221.5616 550.5641,222.0296 546.0855,222.2708 541.6068,222.6374 537.1282,222.9439 532.6496,223.077 528.1709,222.9776 523.6923,223.4872 519.2137,224.2145 514.735,225.1454 510.2564,226.1237 505.7778,227.0784 501.2991,227.9803 496.8205,228.8169 492.3419,229.5831 487.8632,230.2725 483.3846,230.8773 478.906,231.3883 474.4274,231.7945 469.9487,232.083 465.4701,232.2383 460.9915,232.241 456.5128,232.6622 452.0342,233.2835 447.5556,233.9812 443.0769,234.3922 438.5983,234.5956 434.1197,234.6323 429.641,234.5166 425.1624,234.2321 420.6838,234.5873 416.2051,235.1809 411.7265,235.795 407.2479,236.3163 402.7692,236.7048 398.2906,237.0185 393.812,237.2328 389.3333,237.9141 384.8547,238.8285 380.3761,239.8421 375.8974,240.8842 371.4188,241.9383 366.9402,243.0114 362.4615,244.1104 357.9829,245.2424 353.5043,246.4153 349.0256,247.637 344.547,248.2182 340.0684,248.4538 335.5897,248.5013 331.1111,248.455 326.6325,248.369 322.1538,248.2653 317.6752,248.1422 313.1966,247.9898 308.7179,247.798 304.2393,247.5561 299.7607,247.2531 295.2821,246.8767 290.8034,246.4136 286.3248,245.8486 281.8462,245.1646 277.3675,244.3414 272.8889,243.355 268.4103,243.2728 263.9316,243.5253 259.453,243.8343 254.9744,244.0319 250.4957,244.0239 246.0171,243.7684 241.5385,243.2351 237.0598,243.854 232.5812,244.9627 228.1026,246.221 223.6239,247.4562 219.1453,248.6254 214.6667,249.7369 210.188,250.7977 205.7094,251.813 201.2308,252.787 196.7521,253.7224 192.2735,254.6211 187.7949,255.4831 183.3162,256.3071 178.8376,257.0894 174.359,257.4644 169.8803,257.6493 165.4017,257.734 160.9231,257.7653 156.4444,257.7644 151.9658,257.7329 147.4872,257.6647 143.0085,257.5531 138.5299,257.3917 134.0513,257.1734 129.5726,256.8909 125.094,256.5365 120.6154,256.1019 116.1368,255.5785 111.6581,254.9571 107.1795,254.2277 102.7009,253.3801 98.2222,252.4032 93.7436,251.2854 89.265,250.0145 84.7863,248.5773 80.3077,248.3469 75.8291,248.7559 71.3504,249.5522 66.8718,250.5882 62.3932,251.7584 57.9145,252.9807 53.4359,254.1964 48.9573,255.3733 44.4786,256.082 40,256.6458"></polyline>
<text class = "party psc" x="631.1111" y="211"><tspan class="party_name">PSC</tspan><tspan class="party_result"> (15.2±1.6%)</tspan></text>
<polyline id="media-cs"  class="cs media" points=" 40,185.4684 44.4786,185.7455 48.9573,186.0341 53.4359,186.3347 57.9145,186.6442 62.3932,186.9521 66.8718,187.2407 71.3504,187.4875 75.8291,187.6645 80.3077,187.7332 84.7863,187.6234 89.265,187.1605 93.7436,186.7299 98.2222,186.3347 102.7009,185.9771 107.1795,185.6585 111.6581,185.3794 116.1368,185.1403 120.6154,184.9408 125.094,184.7807 129.5726,184.6593 134.0513,184.5762 138.5299,184.5305 143.0085,184.5217 147.4872,184.5493 151.9658,184.613 156.4444,184.7123 160.9231,184.8474 165.4017,185.0112 169.8803,185.1791 174.359,185.3041 178.8376,185.308 183.3162,185.0391 187.7949,184.8274 192.2735,184.672 196.7521,184.5718 201.2308,184.5259 205.7094,184.5335 210.188,184.5943 214.6667,184.708 219.1453,184.8747 223.6239,185.0951 228.1026,185.3698 232.5812,185.6813 237.0598,185.9658 241.5385,186.1024 246.0171,185.8564 250.4957,185.7378 254.9744,185.7451 259.453,185.8617 263.9316,186.0266 268.4103,186.1217 272.8889,185.9425 277.3675,185.0287 281.8462,184.1939 286.3248,183.4363 290.8034,182.7537 295.2821,182.1434 299.7607,181.6028 304.2393,181.1294 308.7179,180.7207 313.1966,180.3745 317.6752,180.0888 322.1538,179.8621 326.6325,179.6933 331.1111,179.5785 335.5897,179.506 340.0684,179.4521 344.547,179.3783 349.0256,179.225 353.5043,178.8897 357.9829,178.6232 362.4615,178.4252 366.9402,178.2963 371.4188,178.2374 375.8974,178.2503 380.3761,178.3382 384.8547,178.4762 389.3333,178.5627 393.812,178.3888 398.2906,177.5483 402.7692,176.8356 407.2479,176.1689 411.7265,175.5803 416.2051,175.0752 420.6838,174.6527 425.1624,174.2968 429.641,173.9647 434.1197,173.6811 438.5983,173.4243 443.0769,173.13 447.5556,172.6808 452.0342,171.866 456.5128,171.1663 460.9915,170.5537 465.4701,169.95 469.9487,169.2983 474.4274,168.6128 478.906,167.9052 483.3846,167.185 487.8632,166.4598 492.3419,165.7358 496.8205,165.018 501.2991,164.3098 505.7778,163.6138 510.2564,162.9421 514.735,162.3317 519.2137,161.8249 523.6923,161.4338 528.1709,160.6841 532.6496,159.2205 537.1282,157.6397 541.6068,156.071 546.0855,155.1175 550.5641,156.2784 555.0427,156.8791 559.5214,157.1877 564,157.3826 568.4786,157.6885 572.9573,158.5318 577.4359,159.201 581.9145,159.6638 586.3932,159.8008 590.8718,159.6959 595.3504,159.1194 599.8291,158.5848 604.3077,158.1564 608.7863,157.9711 613.265,157.9287 617.7436,158.3479 622.2222,158.6361"></polyline>
<polyline id="error-cs" class="cs error" points=" 40,150.6687 44.4786,151.545 48.9573,152.5703 53.4359,154.0574 57.9145,155.5872 62.3932,157.1189 66.8718,158.5804 71.3504,159.8735 75.8291,160.8745 80.3077,161.4125 84.7863,161.1942 89.265,159.5507 93.7436,158.1225 98.2222,156.8993 102.7009,155.8709 107.1795,155.0271 111.6581,154.3583 116.1368,153.8551 120.6154,153.5087 125.094,153.311 129.5726,153.2546 134.0513,153.3331 138.5299,153.5407 143.0085,153.873 147.4872,154.3263 151.9658,154.8982 156.4444,155.5876 160.9231,156.3944 165.4017,157.2944 169.8803,158.1969 174.359,158.9267 178.8376,159.1927 183.3162,158.4515 187.7949,157.9323 192.2735,157.6172 196.7521,157.4912 201.2308,157.5419 205.7094,157.7597 210.188,158.1369 214.6667,158.6682 219.1453,159.3504 223.6239,160.1821 228.1026,161.1643 232.5812,162.2486 237.0598,163.2601 241.5385,163.863 246.0171,163.4191 250.4957,163.3234 254.9744,163.5563 259.453,164.0675 263.9316,164.7077 268.4103,165.1971 272.8889,165.0647 277.3675,163.3064 281.8462,161.8114 286.3248,160.5543 290.8034,159.5138 295.2821,158.6718 299.7607,158.0125 304.2393,157.5227 308.7179,157.1908 313.1966,157.007 317.6752,156.9633 322.1538,157.053 326.6325,157.2712 331.1111,157.6057 335.5897,158.0219 340.0684,158.4544 344.547,158.8015 349.0256,158.9117 353.5043,158.536 357.9829,158.3511 362.4615,158.3427 366.9402,158.5003 371.4188,158.8163 375.8974,159.2862 380.3761,159.9089 384.8547,160.6379 389.3333,161.3048 393.812,161.5781 398.2906,160.8437 402.7692,160.2121 407.2479,159.4681 411.7265,158.9598 416.2051,158.6668 420.6838,158.5229 425.1624,158.3908 429.641,158.0152 434.1197,157.8458 438.5983,157.8217 443.0769,157.8214 447.5556,157.6372 452.0342,156.8999 456.5128,156.295 460.9915,155.6142 465.4701,154.4387 469.9487,153.3439 474.4274,152.3345 478.906,151.4138 483.3846,150.5844 487.8632,149.8482 492.3419,149.2062 496.8205,148.6586 501.2991,148.2051 505.7778,147.8451 510.2564,147.5795 514.735,147.4121 519.2137,147.318 523.6923,147.1873 528.1709,146.7198 532.6496,145.4566 537.1282,144.2096 541.6068,143.0566 546.0855,142.4394 550.5641,143.4967 555.0427,144.1544 559.5214,144.6711 564,145.1097 568.4786,145.5246 572.9573,146.0054 577.4359,146.5297 581.9145,146.969 586.3932,147.072 590.8718,147.0108 595.3504,146.4448 599.8291,146.0023 604.3077,145.6676 608.7863,145.4402 613.265,145.2456 617.7436,145.135 622.2222,144.7097 622.2222,172.5624 617.7436,171.5608 613.265,170.6118 608.7863,170.5021 604.3077,170.6451 599.8291,171.1673 595.3504,171.794 590.8718,172.381 586.3932,172.5296 581.9145,172.3585 577.4359,171.8723 572.9573,171.0582 568.4786,169.8525 564,169.6555 559.5214,169.7043 555.0427,169.6039 550.5641,169.06 546.0855,167.7956 541.6068,169.0854 537.1282,171.0699 532.6496,172.9844 528.1709,174.6484 523.6923,175.6804 519.2137,176.3318 514.735,177.2512 510.2564,178.3047 505.7778,179.3825 501.2991,180.4145 496.8205,181.3774 492.3419,182.2655 487.8632,183.0713 483.3846,183.7855 478.906,184.3967 474.4274,184.8911 469.9487,185.2526 465.4701,185.4614 460.9915,185.4931 456.5128,186.0376 452.0342,186.832 447.5556,187.7244 443.0769,188.4386 438.5983,189.0269 434.1197,189.5164 429.641,189.9141 425.1624,190.2028 420.6838,190.7825 416.2051,191.4836 411.7265,192.2007 407.2479,192.8697 402.7692,193.4591 398.2906,194.2528 393.812,195.1994 389.3333,195.8206 384.8547,196.3145 380.3761,196.7676 375.8974,197.2144 371.4188,197.6585 366.9402,198.0924 362.4615,198.5078 357.9829,198.8952 353.5043,199.2434 349.0256,199.5383 344.547,199.9551 340.0684,200.4498 335.5897,200.9902 331.1111,201.5514 326.6325,202.1153 322.1538,202.6712 317.6752,203.2143 313.1966,203.7419 308.7179,204.2506 304.2393,204.7361 299.7607,205.1931 295.2821,205.615 290.8034,205.9935 286.3248,206.3183 281.8462,206.5764 277.3675,206.751 272.8889,206.8204 268.4103,207.0463 263.9316,207.3455 259.453,207.6558 254.9744,207.9339 250.4957,208.1521 246.0171,208.2937 241.5385,208.3419 237.0598,208.6715 232.5812,209.114 228.1026,209.5753 223.6239,210.0081 219.1453,210.3991 214.6667,210.7477 210.188,211.0517 205.7094,211.3074 201.2308,211.5098 196.7521,211.6524 192.2735,211.7268 187.7949,211.7226 183.3162,211.6268 178.8376,211.4232 174.359,211.6815 169.8803,212.1613 165.4017,212.728 160.9231,213.3003 156.4444,213.8371 151.9658,214.3277 147.4872,214.7723 143.0085,215.1704 138.5299,215.5202 134.0513,215.8192 129.5726,216.0641 125.094,216.2504 120.6154,216.3729 116.1368,216.4254 111.6581,216.4005 107.1795,216.2898 102.7009,216.0834 98.2222,215.7702 93.7436,215.3374 89.265,214.7704 84.7863,214.0525 80.3077,214.0539 75.8291,214.4544 71.3504,215.1014 66.8718,215.9011 62.3932,216.7853 57.9145,217.7013 53.4359,218.612 48.9573,219.498 44.4786,219.946 40,220.2681"></polyline>
<text class = "party cs" x="631.1111" y="165"><tspan class="party_name">C's</tspan><tspan class="party_result"> (21.6±1.7%)</tspan></text>
<polyline id="media-pp"  class="pp media" points=" 40,259.3168 44.4786,259.1662 48.9573,259.0124 53.4359,258.8554 57.9145,258.6968 62.3932,258.5411 66.8718,258.3953 71.3504,258.2679 75.8291,258.1685 80.3077,258.1099 84.7863,258.1148 89.265,258.2399 93.7436,258.3427 98.2222,258.422 102.7009,258.477 107.1795,258.5071 111.6581,258.5121 116.1368,258.4918 120.6154,258.4462 125.094,258.3752 129.5726,258.2787 134.0513,258.1566 138.5299,258.0088 143.0085,257.8347 147.4872,257.6339 151.9658,257.4055 156.4444,257.1485 160.9231,256.8615 165.4017,256.5536 169.8803,256.2604 174.359,256.0511 178.8376,256.0419 183.3162,256.463 187.7949,256.8182 192.2735,257.1119 196.7521,257.348 201.2308,257.5306 205.7094,257.663 210.188,257.7487 214.6667,257.7905 219.1453,257.7915 223.6239,257.7544 228.1026,257.682 232.5812,257.5781 237.0598,257.4458 241.5385,257.2816 246.0171,257.0584 250.4957,256.7654 254.9744,256.397 259.453,255.9669 263.9316,255.5383 268.4103,255.2339 272.8889,255.2636 277.3675,256.1028 281.8462,256.8501 286.3248,257.5123 290.8034,258.0954 295.2821,258.6047 299.7607,259.0447 304.2393,259.4196 308.7179,259.7327 313.1966,259.9868 317.6752,260.1844 322.1538,260.327 326.6325,260.4158 331.1111,260.4555 335.5897,260.4628 340.0684,260.471 344.547,260.5345 349.0256,260.7387 353.5043,261.2334 357.9829,261.66 362.4615,262.0236 366.9402,262.3294 371.4188,262.582 375.8974,262.7861 380.3761,262.9463 384.8547,263.0594 389.3333,263.1008 393.812,263.0136 398.2906,262.6711 402.7692,262.6071 407.2479,263.0104 411.7265,263.3382 416.2051,263.5937 420.6838,263.7853 425.1624,263.9315 429.641,264.0672 434.1197,264.1457 438.5983,264.171 443.0769,264.1593 447.5556,264.1502 452.0342,264.2344 456.5128,264.3649 460.9915,264.7194 465.4701,265.6954 469.9487,266.6602 474.4274,267.6069 478.906,268.5299 483.3846,269.4241 487.8632,270.2853 492.3419,271.11 496.8205,271.8953 501.2991,272.6386 505.7778,273.3383 510.2564,273.9971 514.735,274.636 519.2137,275.2979 523.6923,276.0557 528.1709,276.7019 532.6496,277.141 537.1282,277.7179 541.6068,278.389 546.0855,278.985 550.5641,279.1464 555.0427,279.697 559.5214,280.3061 564,280.8527 568.4786,281.1989 572.9573,281.0887 577.4359,281.1345 581.9145,281.2679 586.3932,281.4182 590.8718,281.5764 595.3504,281.6627 599.8291,281.7674 604.3077,281.8548 608.7863,281.8918 613.265,281.9019 617.7436,281.8847 622.2222,281.7388"></polyline>
<polyline id="error-pp" class="pp error" points=" 40,232.6675 44.4786,233.019 48.9573,233.4663 53.4359,234.231 57.9145,235.0193 62.3932,235.8125 66.8718,236.5753 71.3504,237.2579 75.8291,237.7962 80.3077,238.1012 84.7863,238.0239 89.265,237.2394 93.7436,236.5739 98.2222,236.0157 102.7009,235.5543 107.1795,235.1804 111.6581,234.8856 116.1368,234.6622 120.6154,234.5033 125.094,234.403 129.5726,234.3557 134.0513,234.3568 138.5299,234.4021 143.0085,234.4879 147.4872,234.6114 151.9658,234.7701 156.4444,234.9622 160.9231,235.1863 165.4017,235.4384 169.8803,235.7046 174.359,235.9576 178.8376,236.1537 183.3162,236.2295 187.7949,236.3648 192.2735,236.5505 196.7521,236.7797 201.2308,237.0476 205.7094,237.3506 210.188,237.6864 214.6667,238.0542 219.1453,238.4542 223.6239,238.8879 228.1026,239.3582 232.5812,239.8454 237.0598,240.2677 241.5385,240.4566 246.0171,240.0753 250.4957,239.7906 254.9744,239.5828 259.453,239.4406 263.9316,239.3622 268.4103,239.3513 272.8889,239.4217 277.3675,239.6533 281.8462,239.9331 286.3248,240.2491 290.8034,240.5921 295.2821,240.9552 299.7607,241.3326 304.2393,241.72 308.7179,242.1137 313.1966,242.5107 317.6752,242.9084 322.1538,243.3048 326.6325,243.6978 331.1111,244.0862 335.5897,244.4697 340.0684,244.8517 344.547,245.2409 349.0256,245.6568 353.5043,246.1452 357.9829,246.6548 362.4615,247.1799 366.9402,247.7171 371.4188,248.2647 375.8974,248.8224 380.3761,249.3916 384.8547,249.953 389.3333,250.4323 393.812,250.6813 398.2906,250.4189 402.7692,250.4236 407.2479,250.791 411.7265,251.1978 416.2051,251.6272 420.6838,252.0388 425.1624,252.3613 429.641,252.4732 434.1197,252.6428 438.5983,252.8454 443.0769,253.0557 447.5556,253.2487 452.0342,253.4026 456.5128,253.6154 460.9915,253.9372 465.4701,254.5275 469.9487,255.2038 474.4274,255.9511 478.906,256.7569 483.3846,257.6104 487.8632,258.5021 492.3419,259.4239 496.8205,260.3688 501.2991,261.3308 505.7778,262.3051 510.2564,263.2861 514.735,264.2706 519.2137,265.2541 523.6923,266.2255 528.1709,267.0999 532.6496,267.7085 537.1282,268.5531 541.6068,269.5501 546.0855,270.4067 550.5641,270.4909 555.0427,271.0923 559.5214,271.8618 564,272.592 568.4786,273.0212 572.9573,272.6494 577.4359,272.5902 581.9145,272.7073 586.3932,272.8373 590.8718,273.0316 595.3504,273.1328 599.8291,273.3091 604.3077,273.4677 608.7863,273.4781 613.265,273.3835 617.7436,272.9946 622.2222,272.3448 622.2222,291.1327 617.7436,290.7748 613.265,290.4203 608.7863,290.3055 604.3077,290.242 599.8291,290.2258 595.3504,290.1927 590.8718,290.1212 586.3932,289.9991 581.9145,289.8285 577.4359,289.6789 572.9573,289.528 568.4786,289.3766 564,289.1135 559.5214,288.7505 555.0427,288.3016 550.5641,287.8018 546.0855,287.5632 541.6068,287.2279 537.1282,286.8827 532.6496,286.5735 528.1709,286.3039 523.6923,285.8858 519.2137,285.3417 514.735,285.0015 510.2564,284.7082 505.7778,284.3714 501.2991,283.9465 496.8205,283.4218 492.3419,282.7962 487.8632,282.0685 483.3846,281.2378 478.906,280.3028 474.4274,279.2627 469.9487,278.1166 465.4701,276.8634 460.9915,275.5015 456.5128,275.1144 452.0342,275.0662 447.5556,275.0518 443.0769,275.2629 438.5983,275.4966 434.1197,275.6486 429.641,275.6613 425.1624,275.5017 420.6838,275.5318 416.2051,275.5602 411.7265,275.4786 407.2479,275.2297 402.7692,274.7906 398.2906,274.9232 393.812,275.3458 389.3333,275.7694 384.8547,276.1658 380.3761,276.501 375.8974,276.7498 371.4188,276.8994 366.9402,276.9417 362.4615,276.8674 357.9829,276.6651 353.5043,276.3216 349.0256,275.8206 344.547,275.8281 340.0684,276.0903 335.5897,276.4559 331.1111,276.8249 326.6325,277.1338 322.1538,277.3493 317.6752,277.4604 313.1966,277.463 308.7179,277.3517 304.2393,277.1192 299.7607,276.7569 295.2821,276.2542 290.8034,275.5987 286.3248,274.7755 281.8462,273.767 277.3675,272.5522 272.8889,271.1054 268.4103,271.1165 263.9316,271.7145 259.453,272.4932 254.9744,273.2112 250.4957,273.7402 246.0171,274.0415 241.5385,274.1066 237.0598,274.624 232.5812,275.3108 228.1026,276.0058 223.6239,276.6209 219.1453,277.1288 214.6667,277.5268 210.188,277.8109 205.7094,277.9755 201.2308,278.0135 196.7521,277.9163 192.2735,277.6733 187.7949,277.2717 183.3162,276.6966 178.8376,275.9302 174.359,276.1445 169.8803,276.8162 165.4017,277.6688 160.9231,278.5367 156.4444,279.3348 151.9658,280.0409 147.4872,280.6563 143.0085,281.1815 138.5299,281.6155 134.0513,281.9565 129.5726,282.2017 125.094,282.3473 120.6154,282.3891 116.1368,282.3215 111.6581,282.1386 107.1795,281.8338 102.7009,281.3996 98.2222,280.8283 93.7436,280.1114 89.265,279.2403 84.7863,278.2058 80.3077,278.1185 75.8291,278.5407 71.3504,279.2778 66.8718,280.2154 62.3932,281.2697 57.9145,282.3743 53.4359,283.4798 48.9573,284.5585 44.4786,285.3134 40,285.9661"></polyline>
<text class = "party pp" x="631.1111" y="278"><tspan class="party_name">PP</tspan><tspan class="party_result"> (6.4±1.2%)</tspan></text>
<polyline id="media-otros"  class="otros media" points=" 40,310.6268 44.4786,310.6445 48.9573,310.6644 53.4359,310.6869 57.9145,310.7117 62.3932,310.7374 66.8718,310.7612 71.3504,310.7794 75.8291,310.7866 80.3077,310.7749 84.7863,310.7296 89.265,310.6141 93.7436,310.4962 98.2222,310.3763 102.7009,310.2546 107.1795,310.1311 111.6581,310.0057 116.1368,309.8781 120.6154,309.7482 125.094,309.6154 129.5726,309.4792 134.0513,309.3389 138.5299,309.1937 143.0085,309.0427 147.4872,308.8848 151.9658,308.7187 156.4444,308.5429 160.9231,308.3555 165.4017,308.1619 169.8803,307.9857 174.359,307.8743 178.8376,307.9098 183.3162,308.2584 187.7949,308.5771 192.2735,308.8698 196.7521,309.1403 201.2308,309.3923 205.7094,309.6294 210.188,309.8551 214.6667,310.073 219.1453,310.2867 223.6239,310.5001 228.1026,310.7174 232.5812,310.9269 237.0598,311.0745 241.5385,311.0476 246.0171,310.6067 250.4957,310.2049 254.9744,309.8343 259.453,309.4936 263.9316,309.1946 268.4103,308.9608 272.8889,308.8301 277.3675,308.89 281.8462,308.9193 286.3248,308.9227 290.8034,308.9037 295.2821,308.8648 299.7607,308.8079 304.2393,308.7344 308.7179,308.645 313.1966,308.5402 317.6752,308.4201 322.1538,308.2845 326.6325,308.1327 331.1111,307.9669 335.5897,307.7973 340.0684,307.644 344.547,307.5389 349.0256,307.5308 353.5043,307.7035 357.9829,307.8259 362.4615,307.9018 366.9402,307.9341 371.4188,307.9246 375.8974,307.8743 380.3761,307.7828 384.8547,307.6643 389.3333,307.5717 393.812,307.6111 398.2906,307.9846 402.7692,308.341 407.2479,308.759 411.7265,309.1236 416.2051,309.4354 420.6838,309.7044 425.1624,309.9599 429.641,310.2679 434.1197,310.5483 438.5983,310.8134 443.0769,311.0978 447.5556,311.4607 452.0342,312.0004 456.5128,312.4432 460.9915,312.7376 465.4701,312.78 469.9487,312.862 474.4274,312.9744 478.906,313.1099 483.3846,313.2629 487.8632,313.4289 492.3419,313.6046 496.8205,313.7873 501.2991,313.9753 505.7778,314.1677 510.2564,314.3594 514.735,314.5344 519.2137,314.6635 523.6923,314.6989 528.1709,314.781 532.6496,314.9206 537.1282,315.1333 541.6068,315.3838 546.0855,315.5005 550.5641,315.0443 555.0427,314.7663 559.5214,314.5552 564,314.4258 568.4786,314.4304 572.9573,314.7334 577.4359,315.0254 581.9145,315.3933 586.3932,315.9942 590.8718,316.5641 595.3504,317.0939 599.8291,317.591 604.3077,317.9826 608.7863,318.1377 613.265,318.2191 617.7436,318.0312 622.2222,317.8616"></polyline>
<polyline id="error-otros" class="otros error" points=" 40,289.266 44.4786,289.7178 48.9573,290.2553 53.4359,291.07 57.9145,291.9057 62.3932,292.7409 66.8718,293.5366 71.3504,294.2401 75.8291,294.7844 80.3077,295.0772 84.7863,294.9597 89.265,294.071 93.7436,293.2957 98.2222,292.6269 102.7009,292.0577 107.1795,291.5815 111.6581,291.1918 116.1368,290.8826 120.6154,290.6479 125.094,290.4823 129.5726,290.3808 134.0513,290.3386 138.5299,290.3517 143.0085,290.4161 147.4872,290.5285 151.9658,290.6859 156.4444,290.886 160.9231,291.1265 165.4017,291.4014 169.8803,291.693 174.359,291.9686 178.8376,292.1786 183.3162,292.2479 187.7949,292.3924 192.2735,292.6052 196.7521,292.8811 201.2308,293.2164 205.7094,293.6088 210.188,294.0572 214.6667,294.5616 219.1453,295.1231 223.6239,295.7444 228.1026,296.4293 232.5812,297.1449 237.0598,297.7633 241.5385,298.0296 246.0171,297.4366 250.4957,297.0241 254.9744,296.7726 259.453,296.6596 263.9316,296.6418 268.4103,296.6428 272.8889,296.5363 277.3675,296.0754 281.8462,295.6974 286.3248,295.3928 290.8034,295.1536 295.2821,294.973 299.7607,294.8446 304.2393,294.7631 308.7179,294.7236 313.1966,294.7216 317.6752,294.7532 322.1538,294.8148 326.6325,294.9033 331.1111,295.0154 335.5897,295.1474 340.0684,295.2945 344.547,295.4511 349.0256,295.6114 353.5043,295.7737 357.9829,295.9587 362.4615,296.1615 366.9402,296.3779 371.4188,296.6043 375.8974,296.8374 380.3761,297.074 384.8547,297.3157 389.3333,297.5777 393.812,297.8981 398.2906,298.3664 402.7692,298.7994 407.2479,299.1994 411.7265,299.639 416.2051,300.1024 420.6838,300.5598 425.1624,300.9682 429.641,301.2694 434.1197,301.6364 438.5983,302.0583 443.0769,302.537 447.5556,303.0815 452.0342,303.7028 456.5128,304.2311 460.9915,304.506 465.4701,304.2168 469.9487,304.0459 474.4274,303.9779 478.906,304.0007 483.3846,304.1044 487.8632,304.2804 492.3419,304.5219 496.8205,304.823 501.2991,305.179 505.7778,305.5866 510.2564,306.0331 514.735,306.4817 519.2137,306.8617 523.6923,307.053 528.1709,307.3083 532.6496,307.5816 537.1282,308.0079 541.6068,308.5185 546.0855,308.8377 550.5641,308.2934 555.0427,308.0304 559.5214,307.9256 564,307.9272 568.4786,307.9917 572.9573,308.0972 577.4359,308.3158 581.9145,308.6844 586.3932,309.2938 590.8718,309.9166 595.3504,310.4822 599.8291,311.0591 604.3077,311.5252 608.7863,311.6657 613.265,311.6665 617.7436,311.1693 622.2222,310.5861 622.2222,325.1371 617.7436,324.8931 613.265,324.7717 608.7863,324.6097 604.3077,324.4399 599.8291,324.123 595.3504,323.7056 590.8718,323.2115 586.3932,322.6946 581.9145,322.1021 577.4359,321.7351 572.9573,321.3696 568.4786,320.8692 564,320.9245 559.5214,321.1849 555.0427,321.5022 550.5641,321.7952 546.0855,322.1632 541.6068,322.2491 537.1282,322.2588 532.6496,322.2596 528.1709,322.2537 523.6923,322.3448 519.2137,322.4652 514.735,322.5871 510.2564,322.6856 505.7778,322.7488 501.2991,322.7716 496.8205,322.7516 492.3419,322.6872 487.8632,322.5774 483.3846,322.4214 478.906,322.2191 474.4274,321.9709 469.9487,321.6782 465.4701,321.3432 460.9915,320.9692 456.5128,320.6553 452.0342,320.298 447.5556,319.8399 443.0769,319.6587 438.5983,319.5686 434.1197,319.4602 429.641,319.2664 425.1624,318.9516 420.6838,318.849 416.2051,318.7683 411.7265,318.6082 407.2479,318.3187 402.7692,317.8827 398.2906,317.6029 393.812,317.3241 389.3333,317.5658 384.8547,318.013 380.3761,318.4917 375.8974,318.9111 371.4188,319.245 366.9402,319.4903 362.4615,319.6421 357.9829,319.693 353.5043,319.6334 349.0256,319.4502 344.547,319.6268 340.0684,319.9934 335.5897,320.4472 331.1111,320.9185 326.6325,321.3621 322.1538,321.7541 317.6752,322.087 313.1966,322.3588 308.7179,322.5664 304.2393,322.7056 299.7607,322.7713 295.2821,322.7567 290.8034,322.6538 286.3248,322.4527 281.8462,322.1413 277.3675,321.7047 272.8889,321.124 268.4103,321.2788 263.9316,321.7474 259.453,322.3275 254.9744,322.8959 250.4957,323.3857 246.0171,323.7768 241.5385,324.0655 237.0598,324.3857 232.5812,324.7088 228.1026,325.0056 223.6239,325.2557 219.1453,325.4502 214.6667,325.5844 210.188,325.653 205.7094,325.6499 201.2308,325.5682 196.7521,325.3995 192.2735,325.1343 187.7949,324.7617 183.3162,324.2689 178.8376,323.6409 174.359,323.7799 169.8803,324.2784 165.4017,324.9224 160.9231,325.5846 156.4444,326.1998 151.9658,326.7515 147.4872,327.2412 143.0085,327.6694 138.5299,328.0358 134.0513,328.3392 129.5726,328.5776 125.094,328.7485 120.6154,328.8485 116.1368,328.8737 111.6581,328.8195 107.1795,328.6807 102.7009,328.4515 98.2222,328.1258 93.7436,327.6968 89.265,327.1572 84.7863,326.4995 80.3077,326.4726 75.8291,326.7887 71.3504,327.3186 66.8718,327.9858 62.3932,328.7338 57.9145,329.5176 53.4359,330.3038 48.9573,331.0736 44.4786,331.5712 40,331.9877"></polyline>
<text class = "party otros" x="631.1111" y="319"><tspan class="party_name">Otros</tspan><tspan class="party_result"> (1.9±0.9%)</tspan></text>
<g id="encuesta-1">
<circle id="encuesta-1-cup" class="encuesta sociometrica cup" cx="622.2222" cy="285.6566" r="3.3166" ></circle>
<circle id="encuesta-1-erc" class="encuesta sociometrica erc" cx="622.2222" cy="160.404" r="3.3166" ></circle>
<circle id="encuesta-1-jxcat" class="encuesta sociometrica jxcat" cx="622.2222" cy="161.2121" r="3.3166" ></circle>
<circle id="encuesta-1-cec" class="encuesta sociometrica cec" cx="622.2222" cy="267.0707" r="3.3166" ></circle>
<circle id="encuesta-1-psc" class="encuesta sociometrica psc" cx="622.2222" cy="219.3939" r="3.3166" ></circle>
<circle id="encuesta-1-cs" class="encuesta sociometrica cs" cx="622.2222" cy="162.0202" r="3.3166" ></circle>
<circle id="encuesta-1-pp" class="encuesta sociometrica pp" cx="622.2222" cy="284.0404" r="3.3166" ></circle>
<circle id="encuesta-1-otros" class="encuesta sociometrica otros" cx="622.2222" cy="318.7879" r="3.3166" ></circle>
</g>
<g id="encuesta-2">
<circle id="encuesta-2-cup" class="encuesta feedback cup" cx="617.7436" cy="273.5354" r="3.1623" ></circle>
<circle id="encuesta-2-erc" class="encuesta feedback erc" cx="617.7436" cy="153.1313" r="3.1623" ></circle>
<circle id="encuesta-2-jxcat" class="encuesta feedback jxcat" cx="617.7436" cy="180.6061" r="3.1623" ></circle>
<circle id="encuesta-2-cec" class="encuesta feedback cec" cx="617.7436" cy="273.5354" r="3.1623" ></circle>
<circle id="encuesta-2-psc" class="encuesta feedback psc" cx="617.7436" cy="204.8485" r="3.1623" ></circle>
<circle id="encuesta-2-cs" class="encuesta feedback cs" cx="617.7436" cy="161.2121" r="3.1623" ></circle>
<circle id="encuesta-2-pp" class="encuesta feedback pp" cx="617.7436" cy="284.0404" r="3.1623" ></circle>
<circle id="encuesta-2-otros" class="encuesta feedback otros" cx="617.7436" cy="327.6768" r="3.1623" ></circle>
</g>
<g id="encuesta-3">
<circle id="encuesta-3-cup" class="encuesta sociometrica cup" cx="617.7436" cy="288.8889" r="3.3166" ></circle>
<circle id="encuesta-3-erc" class="encuesta sociometrica erc" cx="617.7436" cy="151.5152" r="3.3166" ></circle>
<circle id="encuesta-3-jxcat" class="encuesta sociometrica jxcat" cx="617.7436" cy="173.3333" r="3.3166" ></circle>
<circle id="encuesta-3-cec" class="encuesta sociometrica cec" cx="617.7436" cy="273.5354" r="3.3166" ></circle>
<circle id="encuesta-3-psc" class="encuesta sociometrica psc" cx="617.7436" cy="216.9697" r="3.3166" ></circle>
<circle id="encuesta-3-cs" class="encuesta sociometrica cs" cx="617.7436" cy="159.596" r="3.3166" ></circle>
<circle id="encuesta-3-pp" class="encuesta sociometrica pp" cx="617.7436" cy="289.697" r="3.3166" ></circle>
<circle id="encuesta-3-otros" class="encuesta sociometrica otros" cx="617.7436" cy="305.0505" r="3.3166" ></circle>
</g>
<g id="encuesta-4">
<circle id="encuesta-4-cup" class="encuesta gad3 cup" cx="613.265" cy="292.9293" r="3.1623" ></circle>
<circle id="encuesta-4-erc" class="encuesta gad3 erc" cx="613.265" cy="159.596" r="3.1623" ></circle>
<circle id="encuesta-4-jxcat" class="encuesta gad3 jxcat" cx="613.265" cy="186.2626" r="3.1623" ></circle>
<circle id="encuesta-4-cec" class="encuesta gad3 cec" cx="613.265" cy="273.5354" r="3.1623" ></circle>
<circle id="encuesta-4-psc" class="encuesta gad3 psc" cx="613.265" cy="200" r="3.1623" ></circle>
<circle id="encuesta-4-cs" class="encuesta gad3 cs" cx="613.265" cy="146.6667" r="3.1623" ></circle>
<circle id="encuesta-4-pp" class="encuesta gad3 pp" cx="613.265" cy="275.9596" r="3.1623" ></circle>
<circle id="encuesta-4-otros" class="encuesta gad3 otros" cx="613.265" cy="323.6364" r="3.1623" ></circle>
</g>
<g id="encuesta-5">
<circle id="encuesta-5-cup" class="encuesta feedback cup" cx="613.265" cy="275.9596" r="3" ></circle>
<circle id="encuesta-5-erc" class="encuesta feedback erc" cx="613.265" cy="146.6667" r="3" ></circle>
<circle id="encuesta-5-jxcat" class="encuesta feedback jxcat" cx="613.265" cy="195.9596" r="3" ></circle>
<circle id="encuesta-5-cec" class="encuesta feedback cec" cx="613.265" cy="268.6869" r="3" ></circle>
<circle id="encuesta-5-psc" class="encuesta feedback psc" cx="613.265" cy="209.697" r="3" ></circle>
<circle id="encuesta-5-cs" class="encuesta feedback cs" cx="613.265" cy="147.4747" r="3" ></circle>
<circle id="encuesta-5-pp" class="encuesta feedback pp" cx="613.265" cy="288.8889" r="3" ></circle>
<circle id="encuesta-5-otros" class="encuesta feedback otros" cx="613.265" cy="325.2525" r="3" ></circle>
</g>
<g id="encuesta-6">
<circle id="encuesta-6-cup" class="encuesta feedback cup" cx="604.3077" cy="281.6162" r="3.1623" ></circle>
<circle id="encuesta-6-erc" class="encuesta feedback erc" cx="604.3077" cy="139.3939" r="3.1623" ></circle>
<circle id="encuesta-6-jxcat" class="encuesta feedback jxcat" cx="604.3077" cy="195.1515" r="3.1623" ></circle>
<circle id="encuesta-6-cec" class="encuesta feedback cec" cx="604.3077" cy="258.1818" r="3.1623" ></circle>
<circle id="encuesta-6-psc" class="encuesta feedback psc" cx="604.3077" cy="224.2424" r="3.1623" ></circle>
<circle id="encuesta-6-cs" class="encuesta feedback cs" cx="604.3077" cy="149.0909" r="3.1623" ></circle>
<circle id="encuesta-6-pp" class="encuesta feedback pp" cx="604.3077" cy="283.2323" r="3.1623" ></circle>
<circle id="encuesta-6-otros" class="encuesta feedback otros" cx="604.3077" cy="327.6768" r="3.1623" ></circle>
</g>
<g id="encuesta-7">
<circle id="encuesta-7-cup" class="encuesta gesop cup" cx="590.8718" cy="284.8485" r="2.8284" ></circle>
<circle id="encuesta-7-erc" class="encuesta gesop erc" cx="590.8718" cy="167.6768" r="2.8284" ></circle>
<circle id="encuesta-7-jxcat" class="encuesta gesop jxcat" cx="590.8718" cy="177.3737" r="2.8284" ></circle>
<circle id="encuesta-7-cec" class="encuesta gesop cec" cx="590.8718" cy="264.6465" r="2.8284" ></circle>
<circle id="encuesta-7-psc" class="encuesta gesop psc" cx="590.8718" cy="179.798" r="2.8284" ></circle>
<circle id="encuesta-7-cs" class="encuesta gesop cs" cx="590.8718" cy="179.798" r="2.8284" ></circle>
<circle id="encuesta-7-pp" class="encuesta gesop pp" cx="590.8718" cy="286.4646" r="2.8284" ></circle>
<circle id="encuesta-7-otros" class="encuesta gesop otros" cx="590.8718" cy="317.9798" r="2.8284" ></circle>
</g>
<g id="encuesta-8">
<circle id="encuesta-8-cup" class="encuesta sociometrica cup" cx="581.9145" cy="284.8485" r="2.8284" ></circle>
<circle id="encuesta-8-erc" class="encuesta sociometrica erc" cx="581.9145" cy="146.6667" r="2.8284" ></circle>
<circle id="encuesta-8-jxcat" class="encuesta sociometrica jxcat" cx="581.9145" cy="179.798" r="2.8284" ></circle>
<circle id="encuesta-8-cec" class="encuesta sociometrica cec" cx="581.9145" cy="281.6162" r="2.8284" ></circle>
<circle id="encuesta-8-psc" class="encuesta sociometrica psc" cx="581.9145" cy="210.5051" r="2.8284" ></circle>
<circle id="encuesta-8-cs" class="encuesta sociometrica cs" cx="581.9145" cy="167.6768" r="2.8284" ></circle>
<circle id="encuesta-8-pp" class="encuesta sociometrica pp" cx="581.9145" cy="283.2323" r="2.8284" ></circle>
<circle id="encuesta-8-otros" class="encuesta sociometrica otros" cx="581.9145" cy="304.2424" r="2.8284" ></circle>
</g>
<g id="encuesta-9">
<circle id="encuesta-9-cup" class="encuesta cis cup" cx="568.4786" cy="279.1919" r="5.4772" ></circle>
<circle id="encuesta-9-erc" class="encuesta cis erc" cx="568.4786" cy="165.2525" r="5.4772" ></circle>
<circle id="encuesta-9-jxcat" class="encuesta cis jxcat" cx="568.4786" cy="196.7677" r="5.4772" ></circle>
<circle id="encuesta-9-cec" class="encuesta cis cec" cx="568.4786" cy="263.8384" r="5.4772" ></circle>
<circle id="encuesta-9-psc" class="encuesta cis psc" cx="568.4786" cy="204.0404" r="5.4772" ></circle>
<circle id="encuesta-9-cs" class="encuesta cis cs" cx="568.4786" cy="151.5152" r="5.4772" ></circle>
<circle id="encuesta-9-pp" class="encuesta cis pp" cx="568.4786" cy="286.4646" r="5.4772" ></circle>
<circle id="encuesta-9-otros" class="encuesta cis otros" cx="568.4786" cy="311.5152" r="5.4772" ></circle>
</g>
<g id="encuesta-10">
<circle id="encuesta-10-cup" class="encuesta nc_report cup" cx="550.5641" cy="287.2727" r="3.1623" ></circle>
<circle id="encuesta-10-erc" class="encuesta nc_report erc" cx="550.5641" cy="138.5859" r="3.1623" ></circle>
<circle id="encuesta-10-jxcat" class="encuesta nc_report jxcat" cx="550.5641" cy="223.4343" r="3.1623" ></circle>
<circle id="encuesta-10-cec" class="encuesta nc_report cec" cx="550.5641" cy="265.4545" r="3.1623" ></circle>
<circle id="encuesta-10-psc" class="encuesta nc_report psc" cx="550.5641" cy="214.5455" r="3.1623" ></circle>
<circle id="encuesta-10-cs" class="encuesta nc_report cs" cx="550.5641" cy="164.4444" r="3.1623" ></circle>
<circle id="encuesta-10-pp" class="encuesta nc_report pp" cx="550.5641" cy="258.1818" r="3.1623" ></circle>
<circle id="encuesta-10-otros" class="encuesta nc_report otros" cx="550.5641" cy="306.6667" r="3.1623" ></circle>
</g>
<g id="encuesta-11">
<circle id="encuesta-11-cup" class="encuesta metroscopica cup" cx="546.0855" cy="285.6566" r="4.2426" ></circle>
<circle id="encuesta-11-erc" class="encuesta metroscopica erc" cx="546.0855" cy="119.1919" r="4.2426" ></circle>
<circle id="encuesta-11-jxcat" class="encuesta metroscopica jxcat" cx="546.0855" cy="223.4343" r="4.2426" ></circle>
<circle id="encuesta-11-cec" class="encuesta metroscopica cec" cx="546.0855" cy="279.1919" r="4.2426" ></circle>
<circle id="encuesta-11-psc" class="encuesta metroscopica psc" cx="546.0855" cy="212.9293" r="4.2426" ></circle>
<circle id="encuesta-11-cs" class="encuesta metroscopica cs" cx="546.0855" cy="128.8889" r="4.2426" ></circle>
<circle id="encuesta-11-pp" class="encuesta metroscopica pp" cx="546.0855" cy="286.4646" r="4.2426" ></circle>
<circle id="encuesta-11-otros" class="encuesta metroscopica otros" cx="546.0855" cy="322.8283" r="4.2426" ></circle>
</g>
<g id="encuesta-12">
<circle id="encuesta-12-cup" class="encuesta gesop cup" cx="528.1709" cy="282.4242" r="2.8284" ></circle>
<circle id="encuesta-12-erc" class="encuesta gesop erc" cx="528.1709" cy="140.202" r="2.8284" ></circle>
<circle id="encuesta-12-jxcat" class="encuesta gesop jxcat" cx="528.1709" cy="200" r="2.8284" ></circle>
<circle id="encuesta-12-cec" class="encuesta gesop cec" cx="528.1709" cy="263.8384" r="2.8284" ></circle>
<circle id="encuesta-12-psc" class="encuesta gesop psc" cx="528.1709" cy="187.0707" r="2.8284" ></circle>
<circle id="encuesta-12-cs" class="encuesta gesop cs" cx="528.1709" cy="183.0303" r="2.8284" ></circle>
<circle id="encuesta-12-pp" class="encuesta gesop pp" cx="528.1709" cy="287.2727" r="2.8284" ></circle>
<circle id="encuesta-12-otros" class="encuesta gesop otros" cx="528.1709" cy="314.7475" r="2.8284" ></circle>
</g>
<g id="encuesta-13">
<circle id="encuesta-13-cup" class="encuesta gad3 cup" cx="519.2137" cy="288.0808" r="2.8302" ></circle>
<circle id="encuesta-13-erc" class="encuesta gad3 erc" cx="519.2137" cy="146.6667" r="2.8302" ></circle>
<circle id="encuesta-13-jxcat" class="encuesta gad3 jxcat" cx="519.2137" cy="198.3838" r="2.8302" ></circle>
<circle id="encuesta-13-cec" class="encuesta gad3 cec" cx="519.2137" cy="271.9192" r="2.8302" ></circle>
<circle id="encuesta-13-psc" class="encuesta gad3 psc" cx="519.2137" cy="211.3131" r="2.8302" ></circle>
<circle id="encuesta-13-cs" class="encuesta gad3 cs" cx="519.2137" cy="153.1313" r="2.8302" ></circle>
<circle id="encuesta-13-pp" class="encuesta gad3 pp" cx="519.2137" cy="270.303" r="2.8302" ></circle>
<circle id="encuesta-13-otros" class="encuesta gad3 otros" cx="519.2137" cy="318.7879" r="2.8302" ></circle>
</g>
<g id="encuesta-14">
<circle id="encuesta-14-cup" class="encuesta nc_report cup" cx="460.9915" cy="282.4242" r="3.1623" ></circle>
<circle id="encuesta-14-erc" class="encuesta nc_report erc" cx="460.9915" cy="120.8081" r="3.1623" ></circle>
<circle id="encuesta-14-jxcat" class="encuesta nc_report jxcat" cx="460.9915" cy="246.8687" r="3.1623" ></circle>
<circle id="encuesta-14-cec" class="encuesta nc_report cec" cx="460.9915" cy="249.2929" r="3.1623" ></circle>
<circle id="encuesta-14-psc" class="encuesta nc_report psc" cx="460.9915" cy="223.4343" r="3.1623" ></circle>
<circle id="encuesta-14-cs" class="encuesta nc_report cs" cx="460.9915" cy="174.9495" r="3.1623" ></circle>
<circle id="encuesta-14-pp" class="encuesta nc_report pp" cx="460.9915" cy="248.4848" r="3.1623" ></circle>
<circle id="encuesta-14-otros" class="encuesta nc_report otros" cx="460.9915" cy="312.3232" r="3.1623" ></circle>
</g>
<g id="encuesta-15">
<circle id="encuesta-15-cup" class="encuesta gad3 cup" cx="460.9915" cy="282.4242" r="3.5114" ></circle>
<circle id="encuesta-15-erc" class="encuesta gad3 erc" cx="460.9915" cy="96.5657" r="3.5114" ></circle>
<circle id="encuesta-15-jxcat" class="encuesta gad3 jxcat" cx="460.9915" cy="249.2929" r="3.5114" ></circle>
<circle id="encuesta-15-cec" class="encuesta gad3 cec" cx="460.9915" cy="266.2626" r="3.5114" ></circle>
<circle id="encuesta-15-psc" class="encuesta gad3 psc" cx="460.9915" cy="215.3535" r="3.5114" ></circle>
<circle id="encuesta-15-cs" class="encuesta gad3 cs" cx="460.9915" cy="166.8687" r="3.5114" ></circle>
<circle id="encuesta-15-pp" class="encuesta gad3 pp" cx="460.9915" cy="263.0303" r="3.5114" ></circle>
<circle id="encuesta-15-otros" class="encuesta gad3 otros" cx="460.9915" cy="318.7879" r="3.5114" ></circle>
</g>
<g id="encuesta-16">
<circle id="encuesta-16-cup" class="encuesta sociometrica cup" cx="447.5556" cy="287.2727" r="3.1623" ></circle>
<circle id="encuesta-16-erc" class="encuesta sociometrica erc" cx="447.5556" cy="81.2121" r="3.1623" ></circle>
<circle id="encuesta-16-jxcat" class="encuesta sociometrica jxcat" cx="447.5556" cy="251.7172" r="3.1623" ></circle>
<circle id="encuesta-16-cec" class="encuesta sociometrica cec" cx="447.5556" cy="252.5253" r="3.1623" ></circle>
<circle id="encuesta-16-psc" class="encuesta sociometrica psc" cx="447.5556" cy="234.7475" r="3.1623" ></circle>
<circle id="encuesta-16-cs" class="encuesta sociometrica cs" cx="447.5556" cy="185.4545" r="3.1623" ></circle>
<circle id="encuesta-16-pp" class="encuesta sociometrica pp" cx="447.5556" cy="260.6061" r="3.1623" ></circle>
<circle id="encuesta-16-otros" class="encuesta sociometrica otros" cx="447.5556" cy="305.0505" r="3.1623" ></circle>
</g>
<g id="encuesta-17">
<circle id="encuesta-17-cup" class="encuesta sigmados cup" cx="425.1624" cy="282.4242" r="3.1623" ></circle>
<circle id="encuesta-17-erc" class="encuesta sigmados erc" cx="425.1624" cy="120" r="3.1623" ></circle>
<circle id="encuesta-17-jxcat" class="encuesta sigmados jxcat" cx="425.1624" cy="254.1414" r="3.1623" ></circle>
<circle id="encuesta-17-cec" class="encuesta sigmados cec" cx="425.1624" cy="244.4444" r="3.1623" ></circle>
<circle id="encuesta-17-psc" class="encuesta sigmados psc" cx="425.1624" cy="211.3131" r="3.1623" ></circle>
<circle id="encuesta-17-cs" class="encuesta sigmados cs" cx="425.1624" cy="174.9495" r="3.1623" ></circle>
<circle id="encuesta-17-pp" class="encuesta sigmados pp" cx="425.1624" cy="263.0303" r="3.1623" ></circle>
<circle id="encuesta-17-otros" class="encuesta sigmados otros" cx="425.1624" cy="308.2828" r="3.1623" ></circle>
</g>
<g id="encuesta-18">
<circle id="encuesta-18-cup" class="encuesta nc_report cup" cx="402.7692" cy="288.0808" r="3.1623" ></circle>
<circle id="encuesta-18-erc" class="encuesta nc_report erc" cx="402.7692" cy="134.5455" r="3.1623" ></circle>
<circle id="encuesta-18-jxcat" class="encuesta nc_report jxcat" cx="402.7692" cy="235.5556" r="3.1623" ></circle>
<circle id="encuesta-18-cec" class="encuesta nc_report cec" cx="402.7692" cy="241.2121" r="3.1623" ></circle>
<circle id="encuesta-18-psc" class="encuesta nc_report psc" cx="402.7692" cy="227.4747" r="3.1623" ></circle>
<circle id="encuesta-18-cs" class="encuesta nc_report cs" cx="402.7692" cy="178.1818" r="3.1623" ></circle>
<circle id="encuesta-18-pp" class="encuesta nc_report pp" cx="402.7692" cy="248.4848" r="3.1623" ></circle>
<circle id="encuesta-18-otros" class="encuesta nc_report otros" cx="402.7692" cy="305.0505" r="3.1623" ></circle>
</g>
<g id="encuesta-19">
<circle id="encuesta-19-cup" class="encuesta gesop cup" cx="393.812" cy="270.303" r="2.8284" ></circle>
<circle id="encuesta-19-erc" class="encuesta gesop erc" cx="393.812" cy="106.2626" r="2.8284" ></circle>
<circle id="encuesta-19-jxcat" class="encuesta gesop jxcat" cx="393.812" cy="236.3636" r="2.8284" ></circle>
<circle id="encuesta-19-cec" class="encuesta gesop cec" cx="393.812" cy="260.6061" r="2.8284" ></circle>
<circle id="encuesta-19-psc" class="encuesta gesop psc" cx="393.812" cy="216.1616" r="2.8284" ></circle>
<circle id="encuesta-19-cs" class="encuesta gesop cs" cx="393.812" cy="197.5758" r="2.8284" ></circle>
<circle id="encuesta-19-pp" class="encuesta gesop pp" cx="393.812" cy="272.7273" r="2.8284" ></circle>
<circle id="encuesta-19-otros" class="encuesta gesop otros" cx="393.812" cy="298.5859" r="2.8284" ></circle>
</g>
<g id="encuesta-20">
<circle id="encuesta-20-cup" class="encuesta sociometrica cup" cx="349.0256" cy="282.4242" r="2.8284" ></circle>
<circle id="encuesta-20-erc" class="encuesta sociometrica erc" cx="349.0256" cy="76.3636" r="2.8284" ></circle>
<circle id="encuesta-20-jxcat" class="encuesta sociometrica jxcat" cx="349.0256" cy="267.8788" r="2.8284" ></circle>
<circle id="encuesta-20-cec" class="encuesta sociometrica cec" cx="349.0256" cy="236.3636" r="2.8284" ></circle>
<circle id="encuesta-20-psc" class="encuesta sociometrica psc" cx="349.0256" cy="256.5657" r="2.8284" ></circle>
<circle id="encuesta-20-cs" class="encuesta sociometrica cs" cx="349.0256" cy="185.4545" r="2.8284" ></circle>
<circle id="encuesta-20-pp" class="encuesta sociometrica pp" cx="349.0256" cy="251.7172" r="2.8284" ></circle>
<circle id="encuesta-20-otros" class="encuesta sociometrica otros" cx="349.0256" cy="301.8182" r="2.8284" ></circle>
</g>
<g id="encuesta-21">
<circle id="encuesta-21-cup" class="encuesta nc_report cup" cx="272.8889" cy="288.0808" r="3.5426" ></circle>
<circle id="encuesta-21-erc" class="encuesta nc_report erc" cx="272.8889" cy="130.5051" r="3.5426" ></circle>
<circle id="encuesta-21-jxcat" class="encuesta nc_report jxcat" cx="272.8889" cy="230.7071" r="3.5426" ></circle>
<circle id="encuesta-21-cec" class="encuesta nc_report cec" cx="272.8889" cy="239.596" r="3.5426" ></circle>
<circle id="encuesta-21-psc" class="encuesta nc_report psc" cx="272.8889" cy="222.6263" r="3.5426" ></circle>
<circle id="encuesta-21-cs" class="encuesta nc_report cs" cx="272.8889" cy="194.3434" r="3.5426" ></circle>
<circle id="encuesta-21-pp" class="encuesta nc_report pp" cx="272.8889" cy="246.0606" r="3.5426" ></circle>
<circle id="encuesta-21-otros" class="encuesta nc_report otros" cx="272.8889" cy="306.6667" r="3.5426" ></circle>
</g>
<g id="encuesta-22">
<circle id="encuesta-22-cup" class="encuesta celeste-tel cup" cx="241.5385" cy="285.6566" r="2.8284" ></circle>
<circle id="encuesta-22-erc" class="encuesta celeste-tel erc" cx="241.5385" cy="133.7374" r="2.8284" ></circle>
<circle id="encuesta-22-jxcat" class="encuesta celeste-tel jxcat" cx="241.5385" cy="223.4343" r="2.8284" ></circle>
<circle id="encuesta-22-cec" class="encuesta celeste-tel cec" cx="241.5385" cy="234.7475" r="2.8284" ></circle>
<circle id="encuesta-22-psc" class="encuesta celeste-tel psc" cx="241.5385" cy="213.7374" r="2.8284" ></circle>
<circle id="encuesta-22-cs" class="encuesta celeste-tel cs" cx="241.5385" cy="192.7273" r="2.8284" ></circle>
<circle id="encuesta-22-pp" class="encuesta celeste-tel pp" cx="241.5385" cy="257.3737" r="2.8284" ></circle>
<circle id="encuesta-22-otros" class="encuesta celeste-tel otros" cx="241.5385" cy="317.1717" r="2.8284" ></circle>
</g>
<g id="encuesta-23">
<circle id="encuesta-23-cup" class="encuesta sociometrica cup" cx="178.8376" cy="278.3838" r="2.6458" ></circle>
<circle id="encuesta-23-erc" class="encuesta sociometrica erc" cx="178.8376" cy="107.0707" r="2.6458" ></circle>
<circle id="encuesta-23-jxcat" class="encuesta sociometrica jxcat" cx="178.8376" cy="230.7071" r="2.6458" ></circle>
<circle id="encuesta-23-cec" class="encuesta sociometrica cec" cx="178.8376" cy="249.2929" r="2.6458" ></circle>
<circle id="encuesta-23-psc" class="encuesta sociometrica psc" cx="178.8376" cy="251.7172" r="2.6458" ></circle>
<circle id="encuesta-23-cs" class="encuesta sociometrica cs" cx="178.8376" cy="190.303" r="2.6458" ></circle>
<circle id="encuesta-23-pp" class="encuesta sociometrica pp" cx="178.8376" cy="248.4848" r="2.6458" ></circle>
<circle id="encuesta-23-otros" class="encuesta sociometrica otros" cx="178.8376" cy="302.6263" r="2.6458" ></circle>
</g>
<g id="encuesta-24">
<circle id="encuesta-24-cup" class="encuesta nc_report cup" cx="84.7863" cy="280.8081" r="3.5426" ></circle>
<circle id="encuesta-24-erc" class="encuesta nc_report erc" cx="84.7863" cy="140.202" r="3.5426" ></circle>
<circle id="encuesta-24-jxcat" class="encuesta nc_report jxcat" cx="84.7863" cy="221.0101" r="3.5426" ></circle>
<circle id="encuesta-24-cec" class="encuesta nc_report cec" cx="84.7863" cy="235.5556" r="3.5426" ></circle>
<circle id="encuesta-24-psc" class="encuesta nc_report psc" cx="84.7863" cy="221.0101" r="3.5426" ></circle>
<circle id="encuesta-24-cs" class="encuesta nc_report cs" cx="84.7863" cy="191.9192" r="3.5426" ></circle>
<circle id="encuesta-24-pp" class="encuesta nc_report pp" cx="84.7863" cy="256.5657" r="3.5426" ></circle>
<circle id="encuesta-24-otros" class="encuesta nc_report otros" cx="84.7863" cy="311.5152" r="3.5426" ></circle>
</g>
  
<text class="pie izquierda" x="0" y="390">Datos: Electograph | Modelo propio</text>
<text class="pie derecha" x="800" y="390">Jesús Carro | <tspan style="font-weight:bold">1datomas</tspan>.com</text>
</svg>
