<?xml version="1.0" encoding="utf-8"?><!DOCTYPE svg PUBLIC "-//W3C//DTD SVG 1.1//EN" "http://www.w3.org/Graphics/SVG/1.1/DTD/svg11.dtd">
<svg xmlns="http://www.w3.org/2000/svg" xmlns:xlink="http://www.w3.org/1999/xlink" version="1.1" viewBox="0 0 800 400">
<text x="0" y="20" style="font-size:large;font-weight:bold;color:black">Intención de voto en Elecciones Autonómicas en Cataluña</text>
<text x="0" y="40" style="color:gray">Promedio de encuestas y estimación de error</text>

<text class="horizontal axis" x="36" y="333.3333">0%</text>
<line class="horizontal axis" x1="40" y1="333.3333" x2="622.2222" y2="333.3333"></line>
<text class="horizontal axis" x="36" y="250">10%</text>
<line class="horizontal axis" x1="40" y1="250" x2="622.2222" y2="250"></line>
<text class="horizontal axis" x="36" y="166.6667">20%</text>
<line class="horizontal axis" x1="40" y1="166.6667" x2="622.2222" y2="166.6667"></line>
<text class="horizontal axis" x="36" y="83.3333">30%</text>
<line class="horizontal axis" x1="40" y1="83.3333" x2="622.2222" y2="83.3333"></line>
<line class="vertical axis" x1="40" y1="336.6667" x2="40" y2="66.6667"></line>
<text class="vertical axis" x="40" y="343.3333">Ago-2017</text>
<line class="vertical axis" x1="238.3394" y1="336.6667" x2="238.3394" y2="66.6667"></line>
<text class="vertical axis" x="238.3394" y="343.3333">Sep-2017</text>
<line class="vertical axis" x1="430.2808" y1="336.6667" x2="430.2808" y2="66.6667"></line>
<text class="vertical axis" x="430.2808" y="343.3333">Oct-2017</text>
<g id="encuesta-1">
<circle class="encuesta cup" cx="622.2222" cy="285.8333" r="3.1623" ></circle>
<circle class="encuesta erc" cx="622.2222" cy="73.3333" r="3.1623" ></circle>
<circle class="encuesta pdecat" cx="622.2222" cy="249.1667" r="3.1623" ></circle>
<circle class="encuesta cec" cx="622.2222" cy="250" r="3.1623" ></circle>
<circle class="encuesta psc" cx="622.2222" cy="231.6667" r="3.1623" ></circle>
<circle class="encuesta cs" cx="622.2222" cy="180.8333" r="3.1623" ></circle>
<circle class="encuesta pp" cx="622.2222" cy="258.3333" r="3.1623" ></circle>
<circle class="encuesta otros" cx="622.2222" cy="304.1667" r="3.1623" ></circle>
</g>
<g id="encuesta-2">
<circle class="encuesta cup" cx="590.232" cy="280.8333" r="3.1623" ></circle>
<circle class="encuesta erc" cx="590.232" cy="113.3333" r="3.1623" ></circle>
<circle class="encuesta pdecat" cx="590.232" cy="251.6667" r="3.1623" ></circle>
<circle class="encuesta cec" cx="590.232" cy="241.6667" r="3.1623" ></circle>
<circle class="encuesta psc" cx="590.232" cy="207.5" r="3.1623" ></circle>
<circle class="encuesta cs" cx="590.232" cy="170" r="3.1623" ></circle>
<circle class="encuesta pp" cx="590.232" cy="260.8333" r="3.1623" ></circle>
<circle class="encuesta otros" cx="590.232" cy="307.5" r="3.1623" ></circle>
</g>
<g id="encuesta-3">
<circle class="encuesta cup" cx="558.2418" cy="286.6667" r="3.1623" ></circle>
<circle class="encuesta erc" cx="558.2418" cy="128.3333" r="3.1623" ></circle>
<circle class="encuesta pdecat" cx="558.2418" cy="232.5" r="3.1623" ></circle>
<circle class="encuesta cec" cx="558.2418" cy="238.3333" r="3.1623" ></circle>
<circle class="encuesta psc" cx="558.2418" cy="224.1667" r="3.1623" ></circle>
<circle class="encuesta cs" cx="558.2418" cy="173.3333" r="3.1623" ></circle>
<circle class="encuesta pp" cx="558.2418" cy="245.8333" r="3.1623" ></circle>
<circle class="encuesta otros" cx="558.2418" cy="304.1667" r="3.1623" ></circle>
</g>
<g id="encuesta-4">
<circle class="encuesta cup" cx="545.4457" cy="268.3333" r="2.8284" ></circle>
<circle class="encuesta erc" cx="545.4457" cy="99.1667" r="2.8284" ></circle>
<circle class="encuesta pdecat" cx="545.4457" cy="233.3333" r="2.8284" ></circle>
<circle class="encuesta cec" cx="545.4457" cy="258.3333" r="2.8284" ></circle>
<circle class="encuesta psc" cx="545.4457" cy="212.5" r="2.8284" ></circle>
<circle class="encuesta cs" cx="545.4457" cy="193.3333" r="2.8284" ></circle>
<circle class="encuesta pp" cx="545.4457" cy="270.8333" r="2.8284" ></circle>
<circle class="encuesta otros" cx="545.4457" cy="297.5" r="2.8284" ></circle>
</g>
<g id="encuesta-5">
<circle class="encuesta cup" cx="481.4652" cy="280.8333" r="2.8284" ></circle>
<circle class="encuesta erc" cx="481.4652" cy="68.3333" r="2.8284" ></circle>
<circle class="encuesta pdecat" cx="481.4652" cy="265.8333" r="2.8284" ></circle>
<circle class="encuesta cec" cx="481.4652" cy="233.3333" r="2.8284" ></circle>
<circle class="encuesta psc" cx="481.4652" cy="254.1667" r="2.8284" ></circle>
<circle class="encuesta cs" cx="481.4652" cy="180.8333" r="2.8284" ></circle>
<circle class="encuesta pp" cx="481.4652" cy="249.1667" r="2.8284" ></circle>
<circle class="encuesta otros" cx="481.4652" cy="300.8333" r="2.8284" ></circle>
</g>
<g id="encuesta-6">
<circle class="encuesta cup" cx="372.6984" cy="286.6667" r="3.5426" ></circle>
<circle class="encuesta erc" cx="372.6984" cy="124.1667" r="3.5426" ></circle>
<circle class="encuesta pdecat" cx="372.6984" cy="227.5" r="3.5426" ></circle>
<circle class="encuesta cec" cx="372.6984" cy="236.6667" r="3.5426" ></circle>
<circle class="encuesta psc" cx="372.6984" cy="219.1667" r="3.5426" ></circle>
<circle class="encuesta cs" cx="372.6984" cy="190" r="3.5426" ></circle>
<circle class="encuesta pp" cx="372.6984" cy="243.3333" r="3.5426" ></circle>
<circle class="encuesta otros" cx="372.6984" cy="305.8333" r="3.5426" ></circle>
</g>
<g id="encuesta-7">
<circle class="encuesta cup" cx="327.9121" cy="284.1667" r="2.8284" ></circle>
<circle class="encuesta erc" cx="327.9121" cy="127.5" r="2.8284" ></circle>
<circle class="encuesta pdecat" cx="327.9121" cy="220" r="2.8284" ></circle>
<circle class="encuesta cec" cx="327.9121" cy="231.6667" r="2.8284" ></circle>
<circle class="encuesta psc" cx="327.9121" cy="210" r="2.8284" ></circle>
<circle class="encuesta cs" cx="327.9121" cy="188.3333" r="2.8284" ></circle>
<circle class="encuesta pp" cx="327.9121" cy="255" r="2.8284" ></circle>
<circle class="encuesta otros" cx="327.9121" cy="316.6667" r="2.8284" ></circle>
</g>
<g id="encuesta-8">
<circle class="encuesta cup" cx="238.3394" cy="276.6667" r="2.6458" ></circle>
<circle class="encuesta erc" cx="238.3394" cy="100" r="2.6458" ></circle>
<circle class="encuesta pdecat" cx="238.3394" cy="227.5" r="2.6458" ></circle>
<circle class="encuesta cec" cx="238.3394" cy="246.6667" r="2.6458" ></circle>
<circle class="encuesta psc" cx="238.3394" cy="249.1667" r="2.6458" ></circle>
<circle class="encuesta cs" cx="238.3394" cy="185.8333" r="2.6458" ></circle>
<circle class="encuesta pp" cx="238.3394" cy="245.8333" r="2.6458" ></circle>
<circle class="encuesta otros" cx="238.3394" cy="301.6667" r="2.6458" ></circle>
</g>
<g id="encuesta-9">
<circle class="encuesta cup" cx="103.9805" cy="279.1667" r="3.5426" ></circle>
<circle class="encuesta erc" cx="103.9805" cy="134.1667" r="3.5426" ></circle>
<circle class="encuesta pdecat" cx="103.9805" cy="217.5" r="3.5426" ></circle>
<circle class="encuesta cec" cx="103.9805" cy="232.5" r="3.5426" ></circle>
<circle class="encuesta psc" cx="103.9805" cy="217.5" r="3.5426" ></circle>
<circle class="encuesta cs" cx="103.9805" cy="187.5" r="3.5426" ></circle>
<circle class="encuesta pp" cx="103.9805" cy="254.1667" r="3.5426" ></circle>
<circle class="encuesta otros" cx="103.9805" cy="310.8333" r="3.5426" ></circle>
</g>
  
  <svg x="0" y="0" width="0" height="400" viewBox="0 0 0 400" preserveAspectRatio="none" >
<animate attributeName="width" values="0; 800" begin="0.5s" dur="6s" fill="freeze" />
<animate attributeName="viewBox" values="0 0 0 400;0 0 800 400" begin="0.5s" dur="6s" fill="freeze" />


<polyline class="cup" points=" 40,279.8229 46.398,279.7927 52.7961,279.7614 59.1941,279.729 65.5922,279.6958 71.9902,279.6631 78.3883,279.6329 84.7863,279.6076 91.1844,279.5903 97.5824,279.5852 103.9805,279.6004 110.3785,279.6574 116.7766,279.7125 123.1746,279.7649 129.5726,279.8137 135.9707,279.8584 142.3687,279.8981 148.7668,279.9322 155.1648,279.9601 161.5629,279.9811 167.9609,279.9949 174.359,280.0006 180.757,279.9978 187.1551,279.9857 193.5531,279.9638 199.9512,279.9311 206.3492,279.8868 212.7473,279.8299 219.1453,279.764 225.5433,279.7059 231.9414,279.6892 238.3394,279.7739 244.7375,280.0897 251.1355,280.3966 257.5336,280.6941 263.9316,280.9817 270.3297,281.2595 276.7277,281.5274 283.1258,281.7855 289.5238,282.0339 295.9219,282.2728 302.3199,282.5023 308.7179,282.7227 315.116,282.9298 321.514,283.1129 327.9121,283.2574 334.3101,283.343 340.7082,283.4624 347.1062,283.6129 353.5043,283.7852 359.9023,283.9536 366.3004,284.074 372.6984,284.0752 379.0965,283.786 385.4945,283.513 391.8926,283.2552 398.2906,283.0119 404.6886,282.7826 411.0867,282.5664 417.4847,282.3631 423.8828,282.172 430.2808,281.9926 436.6789,281.8246 443.0769,281.6675 449.475,281.5208 455.873,281.3847 462.2711,281.2596 468.6691,281.1459 475.0672,281.0425 481.4652,280.9459 487.8632,280.8477 494.2613,280.7372 500.6593,280.615 507.0574,280.4813 513.4554,280.3358 519.8535,280.1777 526.2515,280.0054 532.6496,279.838 539.0476,279.7489 545.4457,279.8878 551.8437,280.5726 558.2418,281.0173 564.6398,281.1316 571.0379,281.2526 577.4359,281.3752 583.8339,281.5019 590.232,281.6537 596.63,281.8973 603.0281,282.1674 609.4261,282.4426 615.8242,282.6815 622.2222,282.8159"></polyline>
<polyline class="cup error" points=" 40,254.7464 46.398,255.3698 52.7961,256.0018 59.1941,256.6431 65.5922,257.2892 71.9902,258.2817 78.3883,259.2478 84.7863,260.0958 91.1844,260.7533 97.5824,261.121 103.9805,261.0246 110.3785,260.0532 116.7766,259.21 123.1746,258.491 129.5726,257.8922 135.9707,257.4499 142.3687,257.2303 148.7668,257.0755 155.1648,256.9825 161.5629,256.9479 167.9609,256.9683 174.359,257.0405 180.757,257.1609 187.1551,257.3263 193.5531,257.5335 199.9512,257.8858 206.3492,258.3605 212.7473,258.8971 219.1453,259.4803 225.5433,260.064 231.9414,260.5652 238.3394,260.8546 244.7375,260.7027 251.1355,260.686 257.5336,260.7941 263.9316,261.0175 270.3297,261.3482 276.7277,261.7787 283.1258,262.3028 289.5238,262.9147 295.9219,263.6098 302.3199,264.3841 308.7179,265.2345 315.116,266.1243 321.514,266.9382 327.9121,267.4698 334.3101,267.3366 340.7082,267.4368 347.1062,267.7553 353.5043,268.2517 359.9023,268.8163 366.3004,269.2556 372.6984,269.2547 379.0965,268.1166 385.4945,267.1311 391.8926,266.2885 398.2906,265.5812 404.6886,265.0024 411.0867,264.5462 417.4847,264.2068 423.8828,263.9792 430.2808,263.8581 436.6789,263.8387 443.0769,263.9165 449.475,264.087 455.873,264.3399 462.2711,264.6483 468.6691,264.9633 475.0672,265.2117 481.4652,265.285 487.8632,264.9979 494.2613,264.8302 500.6593,264.7735 507.0574,264.8196 513.4554,264.9606 519.8535,265.1882 526.2515,265.4939 532.6496,265.8694 539.0476,266.31 545.4457,266.8301 551.8437,267.5172 558.2418,267.9039 564.6398,267.7117 571.0379,267.7005 577.4359,267.8489 583.8339,268.0766 590.232,268.2207 596.63,267.9688 603.0281,267.9098 609.4261,267.9824 615.8242,268.04 622.2222,267.8039 622.2222,297.8279 615.8242,297.3229 609.4261,296.9029 603.0281,296.425 596.63,295.8258 590.232,295.0866 583.8339,294.9273 577.4359,294.9014 571.0379,294.8047 564.6398,294.5515 558.2418,294.1308 551.8437,293.628 545.4457,292.9456 539.0476,293.1878 532.6496,293.8066 526.2515,294.5169 519.8535,295.1673 513.4554,295.711 507.0574,296.1429 500.6593,296.4564 494.2613,296.6442 487.8632,296.6975 481.4652,296.6067 475.0672,296.8732 468.6691,297.3284 462.2711,297.8709 455.873,298.4294 449.475,298.9547 443.0769,299.4184 436.6789,299.8105 430.2808,300.1272 423.8828,300.3648 417.4847,300.5193 411.0867,300.5867 404.6886,300.5627 398.2906,300.4427 391.8926,300.2219 385.4945,299.8949 379.0965,299.4554 372.6984,298.8958 366.3004,298.8924 359.9023,299.0909 353.5043,299.3187 347.1062,299.4705 340.7082,299.488 334.3101,299.3495 327.9121,299.0451 321.514,299.2876 315.116,299.7354 308.7179,300.2108 302.3199,300.6205 295.9219,300.9357 289.5238,301.153 283.1258,301.2682 276.7277,301.2761 270.3297,301.1709 263.9316,300.946 257.5336,300.594 251.1355,300.1072 244.7375,299.4768 238.3394,298.6933 231.9414,298.8132 225.5433,299.3478 219.1453,300.0477 212.7473,300.7626 206.3492,301.4132 199.9512,301.9764 193.5531,302.394 187.1551,302.6452 180.757,302.8347 174.359,302.9607 167.9609,303.0214 161.5629,303.0144 155.1648,302.9376 148.7668,302.7888 142.3687,302.5659 135.9707,302.2668 129.5726,301.7352 123.1746,301.0387 116.7766,300.215 110.3785,299.2616 103.9805,298.1762 97.5824,298.0494 91.1844,298.4273 84.7863,299.1195 78.3883,300.0179 71.9902,301.0445 65.5922,302.1023 59.1941,302.8148 52.7961,303.521 46.398,304.2157 40,304.8993"></polyline>
<text class = "party cup" x="631.1111" y="291"><tspan class="party_name">CUP</tspan> (6.1±1.8%)</text>
<polyline class="erc" points=" 40,124.6766 46.398,125.0469 52.7961,125.4354 59.1941,125.8429 65.5922,126.2643 71.9902,126.6815 78.3883,127.0645 84.7863,127.3743 91.1844,127.5622 97.5824,127.5568 103.9805,127.2199 110.3785,126.1864 116.7766,125.1409 123.1746,124.0923 129.5726,123.0482 135.9707,122.0157 142.3687,121.0006 148.7668,120.0077 155.1648,119.0409 161.5629,118.1029 167.9609,117.1956 174.359,116.3199 180.757,115.4759 187.1551,114.6627 193.5531,113.8789 199.9512,113.1221 206.3492,112.3894 212.7473,111.6769 219.1453,110.9981 225.5433,110.4076 231.9414,110.0086 238.3394,109.9765 244.7375,110.6863 251.1355,111.3541 257.5336,111.988 263.9316,112.5959 270.3297,113.1855 276.7277,113.7638 283.1258,114.3378 289.5238,114.9138 295.9219,115.4982 302.3199,116.0969 308.7179,116.716 315.116,117.3278 321.514,117.8272 327.9121,118.0142 334.3101,117.4751 340.7082,117.0897 347.1062,116.8586 353.5043,116.7648 359.9023,116.7407 366.3004,116.6505 372.6984,116.2485 379.0965,114.928 385.4945,113.5877 391.8926,112.2335 398.2906,110.8708 404.6886,109.504 411.0867,108.1372 417.4847,106.7731 423.8828,105.4139 430.2808,104.0606 436.6789,102.7131 443.0769,101.3699 449.475,100.0282 455.873,98.7051 462.2711,97.4719 468.6691,96.465 475.0672,95.8954 481.4652,96.0968 487.8632,97.7122 494.2613,99.169 500.6593,100.4832 507.0574,101.6691 513.4554,102.7391 519.8535,103.7042 526.2515,104.574 532.6496,105.3545 539.0476,106.0605 545.4457,106.7432 551.8437,107.5487 558.2418,107.7573 564.6398,106.8753 571.0379,106.0853 577.4359,105.3778 583.8339,104.6619 590.232,103.6784 596.63,101.7451 603.0281,99.6698 609.4261,97.5978 615.8242,95.817 622.2222,94.8021"></polyline>
<polyline class="erc error" points=" 40,81.4107 46.398,82.6323 52.7961,83.8905 59.1941,85.1874 65.5922,86.5117 71.9902,88.6134 78.3883,90.6589 84.7863,92.4318 91.1844,93.7534 97.5824,94.3732 103.9805,93.8404 110.3785,91.0585 116.7766,88.4883 123.1746,86.1309 129.5726,83.9866 135.9707,82.1447 142.3687,80.7601 148.7668,79.492 155.1648,78.3407 161.5629,77.3054 167.9609,76.3844 174.359,75.5752 180.757,74.8745 187.1551,74.2786 193.5531,73.7832 199.9512,73.6185 206.3492,73.7362 212.7473,74.0033 219.1453,74.4021 225.5433,74.8823 231.9414,75.3489 238.3394,75.6528 244.7375,75.5557 251.1355,75.6605 257.5336,75.9576 263.9316,76.4397 270.3297,77.1007 276.7277,77.936 283.1258,78.9423 289.5238,80.1174 295.9219,81.4604 302.3199,82.9719 308.7179,84.6539 315.116,86.4244 321.514,87.999 327.9121,88.843 334.3101,87.9085 340.7082,87.4717 347.1062,87.5121 353.5043,87.9611 359.9023,88.6082 366.3004,89.0602 372.6984,88.6475 379.0965,85.8567 385.4945,83.2876 391.8926,80.9279 398.2906,78.7685 404.6886,76.802 411.0867,75.0217 417.4847,73.4213 423.8828,71.9945 430.2808,70.7346 436.6789,69.6341 443.0769,68.6852 449.475,67.8787 455.873,67.2156 462.2711,66.7216 468.6691,66.4508 475.0672,66.4919 481.4652,67.0003 487.8632,68.3215 494.2613,69.7121 500.6593,71.1716 507.0574,72.6997 513.4554,74.2957 519.8535,75.9588 526.2515,77.6879 532.6496,79.4407 539.0476,81.0904 545.4457,82.44 551.8437,83.2057 558.2418,83.279 564.6398,81.8361 571.0379,80.7924 577.4359,80.1098 583.8339,79.5503 590.232,78.5267 596.63,75.6732 603.0281,72.9663 609.4261,70.4841 615.8242,68.338 622.2222,66.646 622.2222,122.9582 615.8242,123.296 609.4261,124.7115 603.0281,126.3734 596.63,127.8169 590.232,128.8302 583.8339,129.7734 577.4359,130.6459 571.0379,131.3782 564.6398,131.9144 558.2418,132.2357 551.8437,131.8916 545.4457,131.0464 539.0476,131.0305 532.6496,131.2684 526.2515,131.46 519.8535,131.4497 513.4554,131.1825 507.0574,130.6385 500.6593,129.7948 494.2613,128.6259 487.8632,127.1029 481.4652,125.1933 475.0672,125.2989 468.6691,126.4792 462.2711,128.2223 455.873,130.1946 449.475,132.1776 443.0769,134.0547 436.6789,135.7921 430.2808,137.3867 423.8828,138.8333 417.4847,140.1249 411.0867,141.2527 404.6886,142.2061 398.2906,142.973 391.8926,143.5391 385.4945,143.8878 379.0965,143.9993 372.6984,143.8494 366.3004,144.2408 359.9023,144.8732 353.5043,145.5685 347.1062,146.2051 340.7082,146.7077 334.3101,147.0418 327.9121,147.1854 321.514,147.6553 315.116,148.2311 308.7179,148.7781 302.3199,149.222 295.9219,149.536 289.5238,149.7102 283.1258,149.7333 276.7277,149.5917 270.3297,149.2703 263.9316,148.7521 257.5336,148.0183 251.1355,147.0477 244.7375,145.817 238.3394,144.3003 231.9414,144.6684 225.5433,145.9329 219.1453,147.594 212.7473,149.3506 206.3492,151.0425 199.9512,152.6257 193.5531,153.9746 187.1551,155.0468 180.757,156.0772 174.359,157.0646 167.9609,158.0068 161.5629,158.9004 155.1648,159.7411 148.7668,160.5234 142.3687,161.2411 135.9707,161.8868 129.5726,162.1099 123.1746,162.0536 116.7766,161.7935 110.3785,161.3143 103.9805,160.5995 97.5824,160.7405 91.1844,161.3711 84.7863,162.3168 78.3883,163.47 71.9902,164.7496 65.5922,166.0169 59.1941,166.4984 52.7961,166.9804 46.398,167.4616 40,167.9426"></polyline>
<text class = "party erc" x="631.1111" y="95"><tspan class="party_name">ERC</tspan> (28.6±3.4%)</text>
<polyline class="pdecat" points=" 40,222.8317 46.398,222.6135 52.7961,222.3849 59.1941,222.1456 65.5922,221.8986 71.9902,221.6542 78.3883,221.4291 84.7863,221.2446 91.1844,221.1273 97.5824,221.1154 103.9805,221.2829 110.3785,221.8249 116.7766,222.3662 123.1746,222.9013 129.5726,223.4252 135.9707,223.9334 142.3687,224.422 148.7668,224.8877 155.1648,225.3277 161.5629,225.7398 167.9609,226.1223 174.359,226.4738 180.757,226.7933 187.1551,227.0804 193.5531,227.3348 199.9512,227.5564 206.3492,227.7454 212.7473,227.9022 219.1453,228.0282 225.5433,228.1283 231.9414,228.2137 238.3394,228.3048 244.7375,228.4436 251.1355,228.5679 257.5336,228.6728 263.9316,228.7536 270.3297,228.806 276.7277,228.826 283.1258,228.8101 289.5238,228.7547 295.9219,228.6563 302.3199,228.5114 308.7179,228.3163 315.116,228.0936 321.514,227.9325 327.9121,228.0123 334.3101,228.7188 340.7082,229.3242 347.1062,229.8222 353.5043,230.2143 359.9023,230.526 366.3004,230.8222 372.6984,231.2344 379.0965,232.0943 385.4945,232.9979 391.8926,233.9369 398.2906,234.9036 404.6886,235.8914 411.0867,236.8944 417.4847,237.9077 423.8828,238.9273 430.2808,239.95 436.6789,240.9738 443.0769,241.9976 449.475,243.0218 455.873,244.0323 462.2711,244.9765 468.6691,245.7564 475.0672,246.2219 481.4652,246.1381 487.8632,245.0539 494.2613,244.0859 500.6593,243.2199 507.0574,242.443 513.4554,241.7431 519.8535,241.109 526.2515,240.5299 532.6496,240.0157 539.0476,239.6229 545.4457,239.4616 551.8437,239.7562 558.2418,240.2351 564.6398,241.1523 571.0379,242.0962 577.4359,243.0363 583.8339,243.8777 590.232,244.4554 596.63,244.4572 603.0281,244.5606 609.4261,244.7273 615.8242,244.8909 622.2222,244.9438"></polyline>
<polyline class="pdecat error" points=" 40,190.1535 46.398,190.6693 52.7961,191.1889 59.1941,191.7128 65.5922,192.239 71.9902,193.2774 78.3883,194.31 84.7863,195.2319 91.1844,195.9729 97.5824,196.4379 103.9805,196.4678 110.3785,195.7141 116.7766,195.1307 123.1746,194.7064 129.5726,194.4301 135.9707,194.3507 142.3687,194.5608 148.7668,194.829 155.1648,195.1492 161.5629,195.5156 167.9609,195.9228 174.359,196.3662 180.757,196.8416 187.1551,197.3456 193.5531,197.8751 199.9512,198.582 206.3492,199.436 212.7473,200.3518 219.1453,201.3073 225.5433,202.227 231.9414,202.9725 238.3394,203.3202 244.7375,202.8482 251.1355,202.5445 257.5336,202.3908 263.9316,202.371 270.3297,202.4703 276.7277,202.676 283.1258,202.9762 289.5238,203.3607 295.9219,203.8201 302.3199,204.3465 308.7179,204.9329 315.116,205.5621 321.514,206.1935 327.9121,206.7653 334.3101,207.2092 340.7082,207.8037 347.1062,208.5258 353.5043,209.338 359.9023,210.1606 366.3004,210.8714 372.6984,211.2953 379.0965,211.1118 385.4945,211.1549 391.8926,211.4022 398.2906,211.8352 404.6886,212.4376 411.0867,213.1952 417.4847,214.0954 423.8828,215.1272 430.2808,216.2809 436.6789,217.5483 443.0769,218.9227 449.475,220.399 455.873,221.9494 462.2711,223.4846 468.6691,224.8411 475.0672,225.7727 481.4652,225.9045 487.8632,224.5464 494.2613,223.475 500.6593,222.6646 507.0574,222.0918 513.4554,221.7345 519.8535,221.5725 526.2515,221.5866 532.6496,221.7513 539.0476,222.0221 545.4457,222.3317 551.8437,222.5991 558.2418,222.9938 564.6398,223.5456 571.0379,224.3472 577.4359,225.3458 583.8339,226.3372 590.232,226.9166 596.63,226.2765 603.0281,225.9507 609.4261,225.85 615.8242,225.7755 622.2222,225.3538 622.2222,264.5338 615.8242,264.0062 609.4261,263.6045 603.0281,263.1705 596.63,262.6379 590.232,261.9943 583.8339,261.4182 577.4359,260.7268 571.0379,259.8452 564.6398,258.759 558.2418,257.4763 551.8437,256.9134 545.4457,256.5916 539.0476,257.2237 532.6496,258.2801 526.2515,259.4732 519.8535,260.6455 513.4554,261.7517 507.0574,262.7942 500.6593,263.7751 494.2613,264.6968 487.8632,265.5614 481.4652,266.3716 475.0672,266.6711 468.6691,266.6716 462.2711,266.4684 455.873,266.1151 449.475,265.6447 443.0769,265.0726 436.6789,264.3992 430.2808,263.619 423.8828,262.7273 417.4847,261.72 411.0867,260.5936 404.6886,259.3451 398.2906,257.972 391.8926,256.4715 385.4945,254.841 379.0965,253.0767 372.6984,251.1736 366.3004,250.7731 359.9023,250.8913 353.5043,251.0907 347.1062,251.1186 340.7082,250.8446 334.3101,250.2284 327.9121,249.2593 321.514,249.6714 315.116,250.6252 308.7179,251.6997 302.3199,252.6763 295.9219,253.4925 289.5238,254.1487 283.1258,254.644 276.7277,254.9761 270.3297,255.1416 263.9316,255.1362 257.5336,254.9548 251.1355,254.5914 244.7375,254.0389 238.3394,253.2894 231.9414,253.4549 225.5433,254.0297 219.1453,254.7491 212.7473,255.4526 206.3492,256.0549 199.9512,256.5308 193.5531,256.7945 187.1551,256.8153 180.757,256.7451 174.359,256.5814 167.9609,256.3218 161.5629,255.9641 155.1648,255.5062 148.7668,254.9463 142.3687,254.2832 135.9707,253.5161 129.5726,252.4203 123.1746,251.0963 116.7766,249.6018 110.3785,247.9358 103.9805,246.0979 97.5824,245.793 91.1844,246.2816 84.7863,247.2573 78.3883,248.5482 71.9902,250.031 65.5922,251.5582 59.1941,252.5783 52.7961,253.5809 46.398,254.5577 40,255.51"></polyline>
<text class = "party pdecat" x="631.1111" y="229"><tspan class="party_name">PDeCAT</tspan> (10.6±2.4%)</text>
<polyline class="cec" points=" 40,235.4583 46.398,235.3477 52.7961,235.2313 59.1941,235.1087 65.5922,234.9816 71.9902,234.8555 78.3883,234.7399 84.7863,234.6472 91.1844,234.5929 97.5824,234.6001 103.9805,234.7132 110.3785,235.0498 116.7766,235.3928 123.1746,235.7394 129.5726,236.0875 135.9707,236.4351 142.3687,236.7805 148.7668,237.1225 155.1648,237.46 161.5629,237.7925 167.9609,238.1196 174.359,238.4413 180.757,238.7581 187.1551,239.0706 193.5531,239.3797 199.9512,239.6866 206.3492,239.9932 212.7473,240.3011 219.1453,240.603 225.5433,240.8678 231.9414,241.0357 238.3394,241.0045 244.7375,240.5544 251.1355,240.129 257.5336,239.7255 263.9316,239.3414 270.3297,238.974 276.7277,238.6207 283.1258,238.2789 289.5238,237.9459 295.9219,237.6193 302.3199,237.2963 308.7179,236.9743 315.116,236.6667 321.514,236.425 327.9121,236.3483 334.3101,236.645 340.7082,236.8863 347.1062,237.0758 353.5043,237.2182 359.9023,237.3235 366.3004,237.4106 372.6984,237.5131 379.0965,237.7087 385.4945,237.9051 391.8926,238.0987 398.2906,238.2867 404.6886,238.4662 411.0867,238.6348 417.4847,238.7904 423.8828,238.9308 430.2808,239.054 436.6789,239.1579 443.0769,239.2405 449.475,239.2997 455.873,239.3373 462.2711,239.3675 468.6691,239.4213 475.0672,239.5517 481.4652,239.8486 487.8632,240.4884 494.2613,241.1107 500.6593,241.7142 507.0574,242.298 513.4554,242.8621 519.8535,243.4071 526.2515,243.9346 532.6496,244.4194 539.0476,244.7719 545.4457,244.8187 551.8437,244.2017 558.2418,243.8358 564.6398,243.8089 571.0379,243.7889 577.4359,243.7795 583.8339,243.8023 590.232,243.9119 596.63,244.2489 603.0281,244.6195 609.4261,244.9961 615.8242,245.3199 622.2222,245.49"></polyline>
<polyline class="cec error" points=" 40,208.8288 46.398,209.4398 52.7961,210.0581 59.1941,210.6845 65.5922,211.3151 71.9902,212.243 78.3883,213.1487 84.7863,213.9532 91.1844,214.5941 97.5824,214.9871 103.9805,214.9887 110.3785,214.2753 116.7766,213.7053 123.1746,213.2722 129.5726,212.9693 135.9707,212.8253 142.3687,212.8946 148.7668,213.0402 155.1648,213.2579 161.5629,213.5436 167.9609,213.894 174.359,214.3057 180.757,214.776 187.1551,215.3027 193.5531,215.8841 199.9512,216.6102 206.3492,217.4638 212.7473,218.3956 219.1453,219.3783 225.5433,220.314 231.9414,221.0196 238.3394,221.1908 244.7375,220.2227 251.1355,219.4274 257.5336,218.7925 263.9316,218.3063 270.3297,217.9582 276.7277,217.7385 283.1258,217.6382 289.5238,217.6492 295.9219,217.7642 302.3199,217.9767 308.7179,218.2811 315.116,218.6584 321.514,219.0541 327.9121,219.3704 334.3101,219.445 340.7082,219.6687 347.1062,220.0324 353.5043,220.5092 359.9023,221.0234 366.3004,221.4411 372.6984,221.5451 379.0965,220.8764 385.4945,220.3531 391.8926,219.9615 398.2906,219.6902 404.6886,219.5292 411.0867,219.4698 417.4847,219.5041 423.8828,219.6246 430.2808,219.8243 436.6789,220.0964 443.0769,220.4344 449.475,220.832 455.873,221.2809 462.2711,221.7671 468.6691,222.2725 475.0672,222.7775 481.4652,223.2669 487.8632,223.742 494.2613,224.3359 500.6593,225.0374 507.0574,225.8365 513.4554,226.7247 519.8535,227.695 526.2515,228.7419 532.6496,229.8098 539.0476,230.7226 545.4457,231.1556 551.8437,230.4872 558.2418,230.0276 564.6398,229.678 571.0379,229.515 577.4359,229.5259 583.8339,229.6474 590.232,229.7455 596.63,229.5712 603.0281,229.6023 609.4261,229.7701 615.8242,229.9071 622.2222,229.6953 622.2222,261.2848 615.8242,260.7328 609.4261,260.2221 603.0281,259.6366 596.63,258.9267 590.232,258.0782 583.8339,257.9572 577.4359,258.0331 571.0379,258.0627 564.6398,257.9398 558.2418,257.6441 551.8437,257.9162 545.4457,258.4819 539.0476,258.8213 532.6496,259.0291 526.2515,259.1274 519.8535,259.1193 513.4554,258.9995 507.0574,258.7595 500.6593,258.3909 494.2613,257.8855 487.8632,257.2349 481.4652,256.4303 475.0672,256.3259 468.6691,256.57 462.2711,256.9679 455.873,257.3938 449.475,257.7673 443.0769,258.0467 436.6789,258.2194 430.2808,258.2836 423.8828,258.237 417.4847,258.0767 411.0867,257.7998 404.6886,257.4031 398.2906,256.8831 391.8926,256.2359 385.4945,255.457 379.0965,254.5411 372.6984,253.4811 366.3004,253.38 359.9023,253.6236 353.5043,253.9273 347.1062,254.1192 340.7082,254.1038 334.3101,253.845 327.9121,253.3261 321.514,253.7959 315.116,254.6749 308.7179,255.6674 302.3199,256.616 295.9219,257.4744 289.5238,258.2427 283.1258,258.9195 276.7277,259.5029 270.3297,259.9898 263.9316,260.3765 257.5336,260.6585 251.1355,260.8305 244.7375,260.8861 238.3394,260.8181 231.9414,261.0519 225.5433,261.4215 219.1453,261.8277 212.7473,262.2066 206.3492,262.5225 199.9512,262.7631 193.5531,262.8752 187.1551,262.8385 180.757,262.7403 174.359,262.577 167.9609,262.3452 161.5629,262.0413 155.1648,261.6621 148.7668,261.2047 142.3687,260.6664 135.9707,260.0448 129.5726,259.2057 123.1746,258.2066 116.7766,257.0802 110.3785,255.8244 103.9805,254.4376 97.5824,254.2131 91.1844,254.5917 84.7863,255.3412 78.3883,256.3311 71.9902,257.468 65.5922,258.6481 59.1941,259.533 52.7961,260.4044 46.398,261.2556 40,262.0877"></polyline>
<text class = "party cec" x="631.1111" y="249"><tspan class="party_name">CeC</tspan> (10.5±1.9%)</text>
<polyline class="psc" points=" 40,222.2245 46.398,222.0591 52.7961,221.8843 59.1941,221.6994 65.5922,221.5067 71.9902,221.3152 78.3883,221.1403 84.7863,221.0022 91.1844,220.9266 97.5824,220.9522 103.9805,221.1537 110.3785,221.7284 116.7766,222.32 123.1746,222.9246 129.5726,223.5393 135.9707,224.1614 142.3687,224.7888 148.7668,225.4198 155.1648,226.0536 161.5629,226.6896 167.9609,227.3281 174.359,227.9699 180.757,228.6165 187.1551,229.2698 193.5531,229.9325 199.9512,230.6082 206.3492,231.3009 212.7473,232.0157 219.1453,232.7319 225.5433,233.3637 231.9414,233.7459 238.3394,233.5921 244.7375,232.2895 251.1355,231.0553 257.5336,229.8849 263.9316,228.7734 270.3297,227.7156 276.7277,226.7062 283.1258,225.7393 289.5238,224.8094 295.9219,223.9103 302.3199,223.036 308.7179,222.1799 315.116,221.3726 321.514,220.7289 327.9121,220.4654 334.3101,221.0342 340.7082,221.4713 347.1062,221.7867 353.5043,221.9959 359.9023,222.1345 366.3004,222.2683 372.6984,222.5123 379.0965,223.1405 385.4945,223.7804 391.8926,224.4288 398.2906,225.0836 404.6886,225.7435 411.0867,226.408 417.4847,227.0774 423.8828,227.7525 430.2808,228.4351 436.6789,229.1275 443.0769,229.8331 449.475,230.5561 455.873,231.2855 462.2711,231.9685 468.6691,232.4993 475.0672,232.7091 481.4652,232.3257 487.8632,230.8207 494.2613,229.4243 500.6593,228.1294 507.0574,226.9293 513.4554,225.818 519.8535,224.7896 526.2515,223.8383 532.6496,222.9815 539.0476,222.2835 545.4457,221.8558 551.8437,221.9111 558.2418,221.8049 564.6398,221.4745 571.0379,221.0436 577.4359,220.5486 583.8339,220.1377 590.232,220.1242 596.63,221.206 603.0281,222.253 609.4261,223.226 615.8242,224.0392 622.2222,224.5514"></polyline>
<polyline class="psc error" points=" 40,189.4665 46.398,190.0386 52.7961,190.6153 59.1941,191.1969 65.5922,191.7805 71.9902,192.8767 78.3883,193.9641 84.7863,194.9364 91.1844,195.7225 97.5824,196.2272 103.9805,196.2922 110.3785,195.5701 116.7766,195.0371 123.1746,194.6837 129.5726,194.5011 135.9707,194.54 142.3687,194.8954 148.7668,195.337 155.1648,195.8603 161.5629,196.4613 167.9609,197.1369 174.359,197.8845 180.757,198.7022 187.1551,199.5892 193.5531,200.5454 199.9512,201.7266 206.3492,203.1063 212.7473,204.6036 219.1453,206.1728 225.5433,207.6442 231.9414,208.6961 238.3394,208.7871 244.7375,206.8147 251.1355,205.0948 257.5336,203.6109 263.9316,202.3472 270.3297,201.2888 276.7277,200.4218 283.1258,199.7328 289.5238,199.2093 295.9219,198.8399 302.3199,198.6139 308.7179,198.5214 315.116,198.5533 321.514,198.6938 327.9121,198.9158 334.3101,199.2125 340.7082,199.6314 347.1062,200.1661 353.5043,200.7933 359.9023,201.4429 366.3004,201.9906 372.6984,202.2398 379.0965,201.8001 385.4945,201.5555 391.8926,201.4891 398.2906,201.5875 404.6886,201.8404 411.0867,202.2389 417.4847,202.7761 423.8828,203.4461 430.2808,204.2443 436.6789,205.1672 443.0769,206.2127 449.475,207.38 455.873,208.6447 462.2711,209.9164 468.6691,211.0229 475.0672,211.6972 481.4652,211.5235 487.8632,209.7279 494.2613,208.2146 500.6593,206.9652 507.0574,205.9628 513.4554,205.1915 519.8535,204.6368 526.2515,204.2846 532.6496,204.1163 539.0476,204.0925 545.4457,204.1417 551.8437,204.1605 558.2418,203.948 564.6398,203.1986 571.0379,202.5736 577.4359,202.0898 583.8339,201.7911 590.232,201.7577 596.63,202.2065 603.0281,202.838 609.4261,203.5594 615.8242,204.1469 622.2222,204.1842 622.2222,244.9187 615.8242,243.9316 609.4261,242.8926 603.0281,241.668 596.63,240.2056 590.232,238.4908 583.8339,238.4843 577.4359,239.0074 571.0379,239.5135 564.6398,239.7504 558.2418,239.6619 551.8437,239.6617 545.4457,239.5699 539.0476,240.4745 532.6496,241.8467 526.2515,243.3921 519.8535,244.9424 513.4554,246.4445 507.0574,247.8959 500.6593,249.2935 494.2613,250.634 487.8632,251.9135 481.4652,253.1278 475.0672,253.721 468.6691,253.9757 462.2711,254.0207 455.873,253.9264 449.475,253.7321 443.0769,253.4534 436.6789,253.0878 430.2808,252.6258 423.8828,252.0589 417.4847,251.3786 411.0867,250.577 404.6886,249.6466 398.2906,248.5796 391.8926,247.3685 385.4945,246.0052 379.0965,244.4808 372.6984,242.7848 366.3004,242.546 359.9023,242.8261 353.5043,243.1985 347.1062,243.4074 340.7082,243.3113 334.3101,242.8559 327.9121,242.015 321.514,242.764 315.116,244.1919 308.7179,245.8384 302.3199,247.4581 295.9219,248.9807 289.5238,250.4094 283.1258,251.7459 276.7277,252.9905 270.3297,254.1424 263.9316,255.1996 257.5336,256.1589 251.1355,257.0157 244.7375,257.7643 238.3394,258.3971 231.9414,258.7958 225.5433,259.0833 219.1453,259.2909 212.7473,259.4278 206.3492,259.4955 199.9512,259.4898 193.5531,259.3196 187.1551,258.9503 180.757,258.5307 174.359,258.0554 167.9609,257.5193 161.5629,256.9179 155.1648,256.2469 148.7668,255.5027 142.3687,254.6821 135.9707,253.7828 129.5726,252.5776 123.1746,251.1655 116.7766,249.6028 110.3785,247.8868 103.9805,246.0152 97.5824,245.6773 91.1844,246.1308 84.7863,247.068 78.3883,248.3166 71.9902,249.7538 65.5922,251.2329 59.1941,252.2018 52.7961,253.1533 46.398,254.0796 40,254.9826"></polyline>
<text class = "party psc" x="631.1111" y="209"><tspan class="party_name">PSC</tspan> (13.1±2.4%)</text>
<polyline class="cs" points=" 40,186.6348 46.398,186.671 52.7961,186.709 59.1941,186.7488 65.5922,186.7899 71.9902,186.8306 78.3883,186.8681 84.7863,186.8992 91.1844,186.9195 97.5824,186.923 103.9805,186.8981 110.3785,186.814 116.7766,186.7309 123.1746,186.6495 129.5726,186.5707 135.9707,186.4952 142.3687,186.4237 148.7668,186.3566 155.1648,186.2945 161.5629,186.2375 167.9609,186.1859 174.359,186.1399 180.757,186.0995 187.1551,186.0645 193.5531,186.0351 199.9512,186.0108 206.3492,185.9916 212.7473,185.9771 219.1453,185.9671 225.5433,185.962 231.9414,185.9626 238.3394,185.9716 244.7375,185.9957 251.1355,186.0255 257.5336,186.062 263.9316,186.1058 270.3297,186.1575 276.7277,186.2176 283.1258,186.2867 289.5238,186.3651 295.9219,186.4532 302.3199,186.5513 308.7179,186.6596 315.116,186.773 321.514,186.875 327.9121,186.9369 334.3101,186.9034 340.7082,186.9086 347.1062,186.9537 353.5043,187.0325 359.9023,187.1198 366.3004,187.1674 372.6984,187.0906 379.0965,186.6821 385.4945,186.2791 391.8926,185.8833 398.2906,185.4962 404.6886,185.1192 411.0867,184.7539 417.4847,184.4016 423.8828,184.0635 430.2808,183.7408 436.6789,183.4343 443.0769,183.145 449.475,182.8735 455.873,182.6215 462.2711,182.3933 468.6691,182.1945 475.0672,182.0314 481.4652,181.9113 487.8632,181.847 494.2613,181.7752 500.6593,181.7014 507.0574,181.631 513.4554,181.569 519.8535,181.5208 526.2515,181.4918 532.6496,181.4666 539.0476,181.3716 545.4457,181.0456 551.8437,180.1323 558.2418,179.4541 564.6398,179.0874 571.0379,178.6522 577.4359,178.1778 583.8339,177.7595 590.232,177.5838 596.63,178.0458 603.0281,178.4574 609.4261,178.815 615.8242,179.1055 622.2222,179.3068"></polyline>
<polyline class="cs error" points=" 40,155.4636 46.398,156.2892 52.7961,157.1325 59.1941,157.9946 65.5922,158.8694 71.9902,160.1285 78.3883,161.3517 84.7863,162.4251 91.1844,163.2529 97.5824,163.7028 103.9805,163.5424 110.3785,162.2234 116.7766,161.0643 123.1746,160.0608 129.5726,159.2086 135.9707,158.5484 142.3687,158.1535 148.7668,157.8504 155.1648,157.636 161.5629,157.5072 167.9609,157.4608 174.359,157.4936 180.757,157.6024 187.1551,157.7843 193.5531,158.0364 199.9512,158.4734 206.3492,159.0715 212.7473,159.765 219.1453,160.5314 225.5433,161.2952 231.9414,161.9155 238.3394,162.1635 244.7375,161.6062 251.1355,161.228 257.5336,161.0173 263.9316,160.9643 270.3297,161.0599 276.7277,161.2964 283.1258,161.6668 289.5238,162.1652 295.9219,162.7867 302.3199,163.5274 308.7179,164.3843 315.116,165.3138 321.514,166.1733 327.9121,166.6989 334.3101,166.3919 340.7082,166.3658 347.1062,166.607 353.5043,167.0725 359.9023,167.6361 366.3004,168.0683 372.6984,167.9868 379.0965,166.5461 385.4945,165.2807 391.8926,164.1798 398.2906,163.2352 404.6886,162.4401 411.0867,161.7887 417.4847,161.276 423.8828,160.8972 430.2808,160.648 436.6789,160.5242 443.0769,160.5216 449.475,160.6365 455.873,160.8586 462.2711,161.1592 468.6691,161.4846 475.0672,161.7529 481.4652,161.8434 487.8632,161.553 494.2613,161.4167 500.6593,161.4288 507.0574,161.5846 513.4554,161.8801 519.8535,162.3122 526.2515,162.8787 532.6496,163.5293 539.0476,164.089 545.4457,164.2177 551.8437,163.2475 558.2418,162.4564 564.6398,161.6945 571.0379,161.0782 577.4359,160.6176 583.8339,160.3073 590.232,160.1091 596.63,159.9521 603.0281,159.9492 609.4261,160.0476 615.8242,160.1061 622.2222,159.8461 622.2222,198.7674 615.8242,198.1048 609.4261,197.5824 603.0281,196.9656 596.63,196.1395 590.232,195.0585 583.8339,195.2116 577.4359,195.7381 571.0379,196.2262 564.6398,196.4802 558.2418,196.4519 551.8437,197.0171 545.4457,197.8735 539.0476,198.6542 532.6496,199.4039 526.2515,200.1049 519.8535,200.7294 513.4554,201.2579 507.0574,201.6773 500.6593,201.974 494.2613,202.1337 487.8632,202.141 481.4652,201.9792 475.0672,202.3099 468.6691,202.9045 462.2711,203.6274 455.873,204.3844 449.475,205.1105 443.0769,205.7685 436.6789,206.3445 430.2808,206.8335 423.8828,207.2298 417.4847,207.5272 411.0867,207.7192 404.6886,207.7984 398.2906,207.7572 391.8926,207.5868 385.4945,207.2775 379.0965,206.818 372.6984,206.1945 366.3004,206.2665 359.9023,206.6036 353.5043,206.9926 347.1062,207.3004 340.7082,207.4514 334.3101,207.415 327.9121,207.1748 321.514,207.5768 315.116,208.2321 308.7179,208.9348 302.3199,209.5751 295.9219,210.1196 289.5238,210.5649 283.1258,210.9066 276.7277,211.1388 270.3297,211.255 263.9316,211.2473 257.5336,211.1067 251.1355,210.8231 244.7375,210.3851 238.3394,209.7797 231.9414,210.0097 225.5433,210.6288 219.1453,211.4028 212.7473,212.1892 206.3492,212.9118 199.9512,213.5483 193.5531,214.0338 187.1551,214.3448 180.757,214.5965 174.359,214.7862 167.9609,214.911 161.5629,214.9678 155.1648,214.953 148.7668,214.8629 142.3687,214.6939 135.9707,214.442 129.5726,213.9327 123.1746,213.2381 116.7766,212.3974 110.3785,211.4046 103.9805,210.2537 97.5824,210.1432 91.1844,210.5861 84.7863,211.3733 78.3883,212.3846 71.9902,213.5326 65.5922,214.7104 59.1941,215.5029 52.7961,216.2855 46.398,217.0528 40,217.806"></polyline>
<text class = "party cs" x="631.1111" y="179"><tspan class="party_name">C's</tspan> (18.5±2.3%)</text>
<polyline class="pp" points=" 40,252.9868 46.398,253.0169 52.7961,253.0504 59.1941,253.0874 65.5922,253.1274 71.9902,253.1681 78.3883,253.2054 84.7863,253.2339 91.1844,253.2463 97.5824,253.2318 103.9805,253.1693 110.3785,253.0034 116.7766,252.8307 123.1746,252.6522 129.5726,252.4688 135.9707,252.2814 142.3687,252.0908 148.7668,251.8975 155.1648,251.7021 161.5629,251.505 167.9609,251.3063 174.359,251.1063 180.757,250.905 187.1551,250.702 193.5531,250.4973 199.9512,250.2903 206.3492,250.0804 212.7473,249.867 219.1453,249.6552 225.5433,249.4653 231.9414,249.3342 238.3394,249.3243 244.7375,249.5665 251.1355,249.7852 257.5336,249.9818 263.9316,250.1581 270.3297,250.316 276.7277,250.4574 283.1258,250.5844 289.5238,250.6992 295.9219,250.8042 302.3199,250.9023 308.7179,250.9966 315.116,251.0778 321.514,251.1041 327.9121,250.9845 334.3101,250.5101 340.7082,250.0314 347.1062,249.5445 353.5043,249.0601 359.9023,248.621 366.3004,248.3028 372.6984,248.2303 379.0965,248.7103 385.4945,249.1571 391.8926,249.5736 398.2906,249.9617 404.6886,250.3226 411.0867,250.657 417.4847,250.9654 423.8828,251.2479 430.2808,251.5045 436.6789,251.7349 443.0769,251.9386 449.475,252.1152 455.873,252.2659 462.2711,252.3989 468.6691,252.5328 475.0672,252.7004 481.4652,252.9582 487.8632,253.4181 494.2613,253.8732 500.6593,254.3212 507.0574,254.7607 513.4554,255.1906 519.8535,255.6111 526.2515,256.023 532.6496,256.4027 539.0476,256.6651 545.4457,256.6428 551.8437,255.9844 558.2418,255.709 564.6398,256.0272 571.0379,256.3684 577.4359,256.7206 583.8339,257.0384 590.232,257.237 596.63,257.147 603.0281,257.1019 609.4261,257.0896 615.8242,257.0891 622.2222,257.0653"></polyline>
<polyline class="pp error" points=" 40,227.371 46.398,228.1041 52.7961,228.8526 59.1941,229.6175 65.5922,230.3929 71.9902,231.4646 78.3883,232.5 84.7863,233.4037 91.1844,234.0923 97.5824,234.4503 103.9805,234.2722 110.3785,233.0663 116.7766,231.9837 123.1746,231.0221 129.5726,230.179 135.9707,229.4867 142.3687,229.0026 148.7668,228.5923 155.1648,228.2533 161.5629,227.9835 167.9609,227.78 174.359,227.6401 180.757,227.561 187.1551,227.5399 193.5531,227.5741 199.9512,227.7519 206.3492,228.0542 212.7473,228.429 219.1453,228.8628 225.5433,229.3125 231.9414,229.6974 238.3394,229.888 244.7375,229.6515 251.1355,229.536 257.5336,229.533 263.9316,229.6352 270.3297,229.8366 276.7277,230.1319 283.1258,230.5171 289.5238,230.9888 295.9219,231.5449 302.3199,232.1844 308.7179,232.9077 315.116,233.6725 321.514,234.3298 327.9121,234.5905 334.3101,233.8685 340.7082,233.3431 347.1062,232.9985 353.5043,232.8154 359.9023,232.7548 366.3004,232.7444 372.6984,232.6667 379.0965,232.312 385.4945,232.0651 391.8926,231.9188 398.2906,231.8668 404.6886,231.9033 411.0867,232.0229 417.4847,232.2204 423.8828,232.4908 430.2808,232.8291 436.6789,233.2304 443.0769,233.6899 449.475,234.2029 455.873,234.7606 462.2711,235.3437 468.6691,235.9222 475.0672,236.4574 481.4652,236.9027 487.8632,237.1971 494.2613,237.6203 500.6593,238.1601 507.0574,238.8061 513.4554,239.5493 519.8535,240.382 526.2515,241.2983 532.6496,242.2447 539.0476,243.0516 545.4457,243.4033 551.8437,242.6909 558.2418,242.3259 564.6398,242.3427 571.0379,242.5585 577.4359,242.9445 583.8339,243.37 590.232,243.5613 596.63,242.9585 603.0281,242.5676 609.4261,242.3373 615.8242,242.1424 622.2222,241.7381 622.2222,272.3924 615.8242,272.0358 609.4261,271.8419 603.0281,271.6362 596.63,271.3355 590.232,270.9126 583.8339,270.7069 577.4359,270.4967 571.0379,270.1783 564.6398,269.7117 558.2418,269.092 551.8437,269.278 545.4457,269.8822 539.0476,270.2787 532.6496,270.5607 526.2515,270.7477 519.8535,270.8401 513.4554,270.8319 507.0574,270.7152 500.6593,270.4823 494.2613,270.1261 487.8632,269.639 481.4652,269.0137 475.0672,268.9434 468.6691,269.1435 462.2711,269.4541 455.873,269.7711 449.475,270.0274 443.0769,270.1874 436.6789,270.2394 430.2808,270.1799 423.8828,270.005 417.4847,269.7104 411.0867,269.2911 404.6886,268.7419 398.2906,268.0566 391.8926,267.2284 385.4945,266.2491 379.0965,265.1085 372.6984,263.7938 366.3004,263.8613 359.9023,264.4873 353.5043,265.3048 347.1062,266.0906 340.7082,266.7196 334.3101,267.1517 327.9121,267.3784 321.514,267.8783 315.116,268.4832 308.7179,269.0855 302.3199,269.6202 295.9219,270.0636 289.5238,270.4095 283.1258,270.6517 276.7277,270.7829 270.3297,270.7955 263.9316,270.6811 257.5336,270.4306 251.1355,270.0344 244.7375,269.4815 238.3394,268.7605 231.9414,268.971 225.5433,269.6181 219.1453,270.4477 212.7473,271.3049 206.3492,272.1066 199.9512,272.8286 193.5531,273.4205 187.1551,273.8642 180.757,274.2489 174.359,274.5726 167.9609,274.8327 161.5629,275.0264 155.1648,275.1508 148.7668,275.2027 142.3687,275.1789 135.9707,275.0762 129.5726,274.7587 123.1746,274.2824 116.7766,273.6778 110.3785,272.9405 103.9805,272.0664 97.5824,272.0133 91.1844,272.4003 84.7863,273.0641 78.3883,273.9108 71.9902,274.8716 65.5922,275.8618 59.1941,276.5573 52.7961,277.2481 46.398,277.9297 40,278.6025"></polyline>
<text class = "party pp" x="631.1111" y="270"><tspan class="party_name">PP</tspan> (9.2±1.8%)</text>
<polyline class="otros" points=" 40,308.6977 46.398,308.7854 52.7961,308.8767 59.1941,308.9716 65.5922,309.0691 71.9902,309.1652 78.3883,309.2531 84.7863,309.3244 91.1844,309.3682 97.5824,309.3688 103.9805,309.2959 110.3785,309.0689 116.7766,308.8394 123.1746,308.6092 129.5726,308.3798 135.9707,308.1527 142.3687,307.9289 148.7668,307.7093 155.1648,307.4945 161.5629,307.2849 167.9609,307.0806 174.359,306.8815 180.757,306.6874 187.1551,306.4975 193.5531,306.3113 199.9512,306.1278 206.3492,305.9456 212.7473,305.7634 219.1453,305.5858 225.5433,305.4327 231.9414,305.3433 238.3394,305.3857 244.7375,305.7076 251.1355,306.0197 257.5336,306.3243 263.9316,306.6233 270.3297,306.9192 276.7277,307.2142 283.1258,307.5107 289.5238,307.8114 295.9219,308.119 302.3199,308.4367 308.7179,308.768 315.116,309.092 321.514,309.3278 327.9121,309.3144 334.3101,308.7036 340.7082,308.1594 347.1062,307.6788 353.5043,307.2622 359.9023,306.9143 366.3004,306.6375 372.6984,306.4289 379.0965,306.2835 385.4945,306.1131 391.8926,305.9233 398.2906,305.7189 404.6886,305.5039 411.0867,305.2816 417.4847,305.0547 423.8828,304.8254 430.2808,304.5958 436.6789,304.3673 443.0769,304.1411 449.475,303.9181 455.873,303.701 462.2711,303.497 468.6691,303.3182 475.0672,303.1809 481.4652,303.1089 487.8632,303.1453 494.2613,303.1579 500.6593,303.1491 507.0574,303.1211 513.4554,303.0756 519.8535,303.0137 526.2515,302.9363 532.6496,302.8548 539.0476,302.8089 545.4457,302.8778 551.8437,303.2264 558.2418,303.5198 564.6398,303.7762 571.0379,304.0462 577.4359,304.3175 583.8339,304.554 590.232,304.6889 596.63,304.586 603.0281,304.5037 609.4261,304.4389 615.8242,304.3903 622.2222,304.358"></polyline>
<polyline class="otros error" points=" 40,287.5729 46.398,288.2686 52.7961,288.9748 59.1941,289.6919 65.5922,290.4139 71.9902,291.4189 78.3883,292.3853 84.7863,293.2233 91.1844,293.8569 97.5824,294.1807 103.9805,294.0047 110.3785,292.8642 116.7766,291.8303 123.1746,290.9038 129.5726,290.0845 135.9707,289.4056 142.3687,288.9247 148.7668,288.512 155.1648,288.1665 161.5629,287.8862 167.9609,287.6691 174.359,287.5127 180.757,287.4142 187.1551,287.3706 193.5531,287.3789 199.9512,287.5244 206.3492,287.7876 212.7473,288.117 219.1453,288.5003 225.5433,288.9027 231.9414,289.2621 238.3394,289.4829 244.7375,289.4022 251.1355,289.438 257.5336,289.5839 263.9316,289.8345 270.3297,290.1852 276.7277,290.632 283.1258,291.1716 289.5238,291.8014 295.9219,292.5199 302.3199,293.3263 308.7179,294.221 315.116,295.1526 321.514,295.9441 327.9121,296.2579 334.3101,295.4095 340.7082,294.8039 347.1062,294.4282 353.5043,294.2567 359.9023,294.2224 366.3004,294.1995 372.6984,293.9751 379.0965,293.0916 385.4945,292.2983 391.8926,291.5947 398.2906,290.98 404.6886,290.4536 411.0867,290.0145 417.4847,289.6616 423.8828,289.3931 430.2808,289.2073 436.6789,289.1018 443.0769,289.0744 449.475,289.1223 455.873,289.2393 462.2711,289.4088 468.6691,289.6002 475.0672,289.7676 481.4652,289.8445 487.8632,289.7221 494.2613,289.6905 500.6593,289.7443 507.0574,289.8784 513.4554,290.0874 519.8535,290.3661 526.2515,290.709 532.6496,291.1029 539.0476,291.5188 545.4457,291.9173 551.8437,292.2609 558.2418,292.5031 564.6398,292.5036 571.0379,292.6698 577.4359,292.975 583.8339,293.3083 590.232,293.4384 596.63,292.8881 603.0281,292.5021 609.4261,292.2441 615.8242,292.0232 622.2222,291.6581 622.2222,317.0579 615.8242,316.7573 609.4261,316.6337 603.0281,316.5053 596.63,316.2839 590.232,315.9394 583.8339,315.7998 577.4359,315.66 571.0379,315.4225 564.6398,315.0488 558.2418,314.5365 551.8437,314.1919 545.4457,313.8383 539.0476,314.099 532.6496,314.6067 526.2515,315.1637 519.8535,315.6614 513.4554,316.0637 507.0574,316.3638 500.6593,316.5539 494.2613,316.6253 487.8632,316.5686 481.4652,316.3732 475.0672,316.5942 468.6691,317.0362 462.2711,317.5853 455.873,318.1626 449.475,318.7139 443.0769,319.2078 436.6789,319.6327 430.2808,319.9843 423.8828,320.2578 417.4847,320.4478 411.0867,320.5487 404.6886,320.5543 398.2906,320.4579 391.8926,320.2519 385.4945,319.9278 379.0965,319.4755 372.6984,318.8827 366.3004,319.0754 359.9023,319.6061 353.5043,320.2678 347.1062,320.9295 340.7082,321.515 334.3101,321.9977 327.9121,322.3709 321.514,322.7116 315.116,323.0314 308.7179,323.315 302.3199,323.5471 295.9219,323.7181 289.5238,323.8214 283.1258,323.8499 276.7277,323.7964 270.3297,323.6532 263.9316,323.4121 257.5336,323.0646 251.1355,322.6015 244.7375,322.013 238.3394,321.2886 231.9414,321.4246 225.5433,321.9628 219.1453,322.6712 212.7473,323.4098 206.3492,324.1036 199.9512,324.7311 193.5531,325.2438 187.1551,325.6245 180.757,325.9605 174.359,326.2503 167.9609,326.4921 161.5629,326.6836 155.1648,326.8226 148.7668,326.9066 142.3687,326.9331 135.9707,326.8998 129.5726,326.6752 123.1746,326.3146 116.7766,325.8485 110.3785,325.2737 103.9805,324.5871 97.5824,324.5569 91.1844,324.8794 84.7863,325.4255 78.3883,326.121 71.9902,326.9115 65.5922,327.7244 59.1941,328.2514 52.7961,328.7786 46.398,329.3022 40,329.8225"></polyline>
<text class = "party otros" x="631.1111" y="311"><tspan class="party_name">Otros</tspan> (3.5±1.5%)</text>
  </svg>
<text class="pie izquierda" x="0" y="395">Datos: Electograph | Modelo propio</text>
<text class="pie derecha" x="800" y="395">Jesús Carro | <tspan style="font-weight:bold">1datomas</tspan>.com</text>
</svg>
