<?xml version="1.0" encoding="utf-8"?><!DOCTYPE svg PUBLIC "-//W3C//DTD SVG 1.1//EN" "http://www.w3.org/Graphics/SVG/1.1/DTD/svg11.dtd">
<svg xmlns="http://www.w3.org/2000/svg" xmlns:xlink="http://www.w3.org/1999/xlink" version="1.1" viewBox="0 0 800 400" style="max-width:800;max-height:400">
<text x="0" y="20" style="font-size:large;font-weight:bold;color:black">Intención de voto en Elecciones Autonómicas en Cataluña</text>
<text x="0" y="40" style="color:gray">Promedio de encuestas y estimación de error</text>

<text class="horizontal axis" x="36" y="333.3333">0%</text>
<line class="horizontal axis" x1="40" y1="333.3333" x2="622.2222" y2="333.3333"></line>
<text class="horizontal axis" x="36" y="257.1429">10%</text>
<line class="horizontal axis" x1="40" y1="257.1429" x2="622.2222" y2="257.1429"></line>
<text class="horizontal axis" x="36" y="180.9524">20%</text>
<line class="horizontal axis" x1="40" y1="180.9524" x2="622.2222" y2="180.9524"></line>
<text class="horizontal axis" x="36" y="104.7619">30%</text>
<line class="horizontal axis" x1="40" y1="104.7619" x2="622.2222" y2="104.7619"></line>
<line class="vertical axis" x1="40" y1="336.6667" x2="40" y2="66.6667"></line>
<text class="vertical axis" x="40" y="343.3333">Aug-2017</text>
<line class="vertical axis" x1="249.8708" y1="336.6667" x2="249.8708" y2="66.6667"></line>
<text class="vertical axis" x="249.8708" y="343.3333">Sep-2017</text>
<line class="vertical axis" x1="452.9716" y1="336.6667" x2="452.9716" y2="66.6667"></line>
<text class="vertical axis" x="452.9716" y="343.3333">Oct-2017</text>
<circle class="encuesta cup" cx="622.2222" cy="285.3333" r="3.1623"></circle>
<circle class="encuesta erc" cx="622.2222" cy="132.1905" r="3.1623"></circle>
<circle class="encuesta pdecat" cx="622.2222" cy="258.6667" r="3.1623"></circle>
<circle class="encuesta cec" cx="622.2222" cy="249.5238" r="3.1623"></circle>
<circle class="encuesta psc" cx="622.2222" cy="218.2857" r="3.1623"></circle>
<circle class="encuesta cs" cx="622.2222" cy="184" r="3.1623"></circle>
<circle class="encuesta pp" cx="622.2222" cy="267.0476" r="3.1623"></circle>
<circle class="encuesta otros" cx="622.2222" cy="309.7143" r="3.1623"></circle>
<circle class="encuesta cup" cx="588.3721" cy="290.6667" r="3.1623"></circle>
<circle class="encuesta erc" cx="588.3721" cy="145.9048" r="3.1623"></circle>
<circle class="encuesta pdecat" cx="588.3721" cy="241.1429" r="3.1623"></circle>
<circle class="encuesta cec" cx="588.3721" cy="246.4762" r="3.1623"></circle>
<circle class="encuesta psc" cx="588.3721" cy="233.5238" r="3.1623"></circle>
<circle class="encuesta cs" cx="588.3721" cy="187.0476" r="3.1623"></circle>
<circle class="encuesta pp" cx="588.3721" cy="253.3333" r="3.1623"></circle>
<circle class="encuesta otros" cx="588.3721" cy="306.6667" r="3.1623"></circle>
<circle class="encuesta cup" cx="574.832" cy="273.9048" r="2.8284"></circle>
<circle class="encuesta erc" cx="574.832" cy="119.2381" r="2.8284"></circle>
<circle class="encuesta pdecat" cx="574.832" cy="241.9048" r="2.8284"></circle>
<circle class="encuesta cec" cx="574.832" cy="264.7619" r="2.8284"></circle>
<circle class="encuesta psc" cx="574.832" cy="222.8571" r="2.8284"></circle>
<circle class="encuesta cs" cx="574.832" cy="205.3333" r="2.8284"></circle>
<circle class="encuesta pp" cx="574.832" cy="276.1905" r="2.8284"></circle>
<circle class="encuesta otros" cx="574.832" cy="300.5714" r="2.8284"></circle>
<circle class="encuesta cup" cx="507.1318" cy="285.3333" r="2.8284"></circle>
<circle class="encuesta erc" cx="507.1318" cy="91.0476" r="2.8284"></circle>
<circle class="encuesta pdecat" cx="507.1318" cy="271.619" r="2.8284"></circle>
<circle class="encuesta cec" cx="507.1318" cy="241.9048" r="2.8284"></circle>
<circle class="encuesta psc" cx="507.1318" cy="260.9524" r="2.8284"></circle>
<circle class="encuesta cs" cx="507.1318" cy="193.9048" r="2.8284"></circle>
<circle class="encuesta pp" cx="507.1318" cy="256.381" r="2.8284"></circle>
<circle class="encuesta otros" cx="507.1318" cy="303.619" r="2.8284"></circle>
<circle class="encuesta cup" cx="392.0413" cy="290.6667" r="3.5426"></circle>
<circle class="encuesta erc" cx="392.0413" cy="142.0952" r="3.5426"></circle>
<circle class="encuesta pdecat" cx="392.0413" cy="236.5714" r="3.5426"></circle>
<circle class="encuesta cec" cx="392.0413" cy="244.9524" r="3.5426"></circle>
<circle class="encuesta psc" cx="392.0413" cy="228.9524" r="3.5426"></circle>
<circle class="encuesta cs" cx="392.0413" cy="202.2857" r="3.5426"></circle>
<circle class="encuesta pp" cx="392.0413" cy="251.0476" r="3.5426"></circle>
<circle class="encuesta otros" cx="392.0413" cy="308.1905" r="3.5426"></circle>
<circle class="encuesta cup" cx="344.6512" cy="288.381" r="2.8284"></circle>
<circle class="encuesta erc" cx="344.6512" cy="145.1429" r="2.8284"></circle>
<circle class="encuesta pdecat" cx="344.6512" cy="229.7143" r="2.8284"></circle>
<circle class="encuesta cec" cx="344.6512" cy="240.381" r="2.8284"></circle>
<circle class="encuesta psc" cx="344.6512" cy="220.5714" r="2.8284"></circle>
<circle class="encuesta cs" cx="344.6512" cy="200.7619" r="2.8284"></circle>
<circle class="encuesta pp" cx="344.6512" cy="261.7143" r="2.8284"></circle>
<circle class="encuesta otros" cx="344.6512" cy="318.0952" r="2.8284"></circle>
<circle class="encuesta cup" cx="249.8708" cy="281.5238" r="2.6458"></circle>
<circle class="encuesta erc" cx="249.8708" cy="120" r="2.6458"></circle>
<circle class="encuesta pdecat" cx="249.8708" cy="236.5714" r="2.6458"></circle>
<circle class="encuesta cec" cx="249.8708" cy="254.0952" r="2.6458"></circle>
<circle class="encuesta psc" cx="249.8708" cy="256.381" r="2.6458"></circle>
<circle class="encuesta cs" cx="249.8708" cy="198.4762" r="2.6458"></circle>
<circle class="encuesta pp" cx="249.8708" cy="253.3333" r="2.6458"></circle>
<circle class="encuesta otros" cx="249.8708" cy="304.381" r="2.6458"></circle>
<circle class="encuesta cup" cx="107.7003" cy="283.8095" r="3.5426"></circle>
<circle class="encuesta erc" cx="107.7003" cy="151.2381" r="3.5426"></circle>
<circle class="encuesta pdecat" cx="107.7003" cy="227.4286" r="3.5426"></circle>
<circle class="encuesta cec" cx="107.7003" cy="241.1429" r="3.5426"></circle>
<circle class="encuesta psc" cx="107.7003" cy="227.4286" r="3.5426"></circle>
<circle class="encuesta cs" cx="107.7003" cy="200" r="3.5426"></circle>
<circle class="encuesta pp" cx="107.7003" cy="260.9524" r="3.5426"></circle>
<circle class="encuesta otros" cx="107.7003" cy="312.7619" r="3.5426"></circle>
<polyline class="cup" points=" 40,284.4149 46.77,284.3948 53.5401,284.3738 60.3101,284.352 67.0801,284.3295 73.8501,284.3071 80.6202,284.2862 87.3902,284.2687 94.1602,284.2571 100.9302,284.2551 107.7003,284.2688 114.4703,284.3121 121.2403,284.354 128.0103,284.394 134.7804,284.4318 141.5504,284.467 148.3204,284.4994 155.0904,284.5284 161.8605,284.554 168.6305,284.5757 175.4005,284.5932 182.1705,284.6063 188.9406,284.6147 195.7106,284.6179 202.4806,284.6157 209.2506,284.6076 216.0207,284.5931 222.7907,284.5718 229.5607,284.5458 236.3307,284.5257 243.1008,284.5336 249.8708,284.6092 256.6408,284.83 263.4109,285.0461 270.1809,285.2576 276.9509,285.4642 283.7209,285.6661 290.491,285.8632 297.261,286.0556 304.031,286.2433 310.801,286.4265 317.5711,286.6053 324.3411,286.7797 331.1111,286.947 337.8811,287.0982 344.6512,287.2191 351.4212,287.2875 358.1912,287.377 364.9612,287.4866 371.7313,287.6108 378.5013,287.7317 385.2713,287.816 392.0413,287.8068 398.8114,287.583 405.5814,287.3689 412.3514,287.1642 419.1214,286.9683 425.8915,286.7812 432.6615,286.6026 439.4315,286.4323 446.2016,286.2703 452.9716,286.1164 459.7416,285.9705 466.5116,285.8327 473.2817,285.7028 480.0517,285.581 486.8217,285.4672 493.5917,285.3608 500.3618,285.2598 507.1318,285.1591 513.9018,285.0487 520.6718,284.9321 527.4419,284.81 534.2119,284.6828 540.9819,284.5507 547.7519,284.4138 554.522,284.2718 561.292,284.1376 568.062,284.0592 574.832,284.1376 581.6021,284.5776 588.3721,284.8564 595.1421,284.8864 601.9121,284.9193 608.6822,284.9535 615.4522,284.985 622.2222,285.007"></polyline>
<polyline class="cup error" points=" 40,262.5295 46.77,263.1873 53.5401,263.8551 60.3101,264.5336 67.0801,265.2192 73.8501,265.8976 80.6202,266.5427 87.3902,267.1172 94.1602,267.5719 100.9302,267.8396 107.7003,267.8124 114.4703,267.2756 121.2403,266.8134 128.0103,266.4234 134.7804,266.103 141.5504,265.8497 148.3204,265.6607 155.0904,265.5332 161.8605,265.4644 168.6305,265.4515 175.4005,265.4917 182.1705,265.5822 188.9406,265.7204 195.7106,265.9036 202.4806,266.1294 209.2506,266.3954 216.0207,266.6994 222.7907,267.0396 229.5607,267.408 236.3307,267.7816 243.1008,268.1173 249.8708,268.3477 256.6408,268.3639 263.4109,268.4506 270.1809,268.6037 276.9509,268.8195 283.7209,269.0946 290.491,269.4259 297.261,269.8106 304.031,270.2462 310.801,270.7304 317.5711,271.2614 324.3411,271.8374 331.1111,272.4382 337.8811,272.996 344.6512,273.3828 351.4212,273.3712 358.1912,273.4835 364.9612,273.7142 371.7313,274.0427 378.5013,274.4051 385.2713,274.6784 392.0413,274.6543 398.8114,273.9144 405.5814,273.2577 412.3514,272.6809 419.1214,272.1812 425.8915,271.7563 432.6615,271.4039 439.4315,271.1221 446.2016,270.9089 452.9716,270.7625 459.7416,270.681 466.5116,270.6625 473.2817,270.7051 480.0517,270.8035 486.8217,270.9425 493.5917,271.0923 500.3618,271.2055 507.1318,271.2105 513.9018,270.992 520.6718,270.8407 527.4419,270.7552 534.2119,270.7337 540.9819,270.7743 547.7519,270.8747 554.522,271.0324 561.292,271.2438 568.062,271.5052 574.832,271.818 581.6021,272.2139 588.3721,272.3817 595.1421,272.0989 601.9121,271.9131 608.6822,271.8157 615.4522,271.7421 622.2222,271.5287 622.2222,298.4854 615.4522,298.2278 608.6822,298.0912 601.9121,297.9256 595.1421,297.674 588.3721,297.3311 581.6021,296.9414 574.832,296.4572 568.062,296.6132 561.292,297.0313 554.522,297.5113 547.7519,297.9529 540.9819,298.3272 534.2119,298.6319 527.4419,298.8648 520.6718,299.0235 513.9018,299.1054 507.1318,299.1077 500.3618,299.3141 493.5917,299.6293 486.8217,299.9918 480.0517,300.3584 473.2817,300.7006 466.5116,301.003 459.7416,301.2601 452.9716,301.4702 446.2016,301.6316 439.4315,301.7426 432.6615,301.8013 425.8915,301.8062 419.1214,301.7555 412.3514,301.6474 405.5814,301.4801 398.8114,301.2516 392.0413,300.9592 385.2713,300.9537 378.5013,301.0583 371.7313,301.1788 364.9612,301.2591 358.1912,301.2706 351.4212,301.2038 344.6512,301.0554 337.8811,301.2004 331.1111,301.4557 324.3411,301.722 317.5711,301.9492 310.801,302.1226 304.031,302.2405 297.261,302.3006 290.491,302.3005 283.7209,302.2376 276.9509,302.1089 270.1809,301.9114 263.4109,301.6417 256.6408,301.2961 249.8708,300.8707 243.1008,300.9498 236.3307,301.2698 229.5607,301.6837 222.7907,302.104 216.0207,302.4868 209.2506,302.8198 202.4806,303.1021 195.7106,303.3323 188.9406,303.509 182.1705,303.6305 175.4005,303.6948 168.6305,303.6999 161.8605,303.6436 155.0904,303.5237 148.3204,303.3381 141.5504,303.0844 134.7804,302.7606 128.0103,302.3646 121.2403,301.8946 114.4703,301.3487 107.7003,300.7252 100.9302,300.6705 94.1602,300.9422 87.3902,301.4201 80.6202,302.0296 73.8501,302.7165 67.0801,303.4397 60.3101,304.1703 53.5401,304.8925 46.77,305.6022 40,306.3003"></polyline>
<text class = "party cup" x="631.1111" y="295"><tspan class="party_name">CUP</tspan> (6.3±1.8%)</text>
<polyline class="erc" points=" 40,142.3536 46.77,142.6016 53.5401,142.8622 60.3101,143.136 67.0801,143.4205 73.8501,143.7042 80.6202,143.9664 87.3902,144.177 94.1602,144.2954 100.9302,144.2625 107.7003,143.975 114.4703,143.2046 121.2403,142.4339 128.0103,141.6671 134.7804,140.9077 141.5504,140.1589 148.3204,139.4234 155.0904,138.7034 161.8605,138.0006 168.6305,137.3162 175.4005,136.651 182.1705,136.0054 188.9406,135.3795 195.7106,134.7727 202.4806,134.1843 209.2506,133.6131 216.0207,133.0577 222.7907,132.516 229.5607,131.9975 236.3307,131.5412 243.1008,131.225 249.8708,131.1821 256.6408,131.6643 263.4109,132.1188 270.1809,132.5504 276.9509,132.9636 283.7209,133.3626 290.491,133.7515 297.261,134.134 304.031,134.5138 310.801,134.8944 317.5711,135.2791 324.3411,135.6715 331.1111,136.0564 337.8811,136.3716 344.6512,136.4919 351.4212,136.1739 358.1912,135.9301 364.9612,135.7614 371.7313,135.6595 378.5013,135.587 385.2713,135.4627 392.0413,135.1343 398.8114,134.2637 405.5814,133.3758 412.3514,132.4726 419.1214,131.5557 425.8915,130.6269 432.6615,129.6876 439.4315,128.7392 446.2016,127.7827 452.9716,126.8188 459.7416,125.848 466.5116,124.8701 473.2817,123.8845 480.0517,122.9042 486.8217,121.9804 493.5917,121.2159 500.3618,120.7763 507.1318,120.9201 513.9018,122.0974 520.6718,123.1869 527.4419,124.1933 534.2119,125.1203 540.9819,125.971 547.7519,126.7476 554.522,127.4517 561.292,128.0901 568.062,128.6932 574.832,129.3428 581.6021,130.2312 588.3721,130.7659 595.1421,130.6952 601.9121,130.665 608.6822,130.6682 615.4522,130.6871 622.2222,130.6856"></polyline>
<polyline class="erc error" points=" 40,104.2687 46.77,105.6216 53.5401,107.0085 60.3101,108.4315 67.0801,109.882 73.8501,111.324 80.6202,112.6905 87.3902,113.8851 94.1602,114.7798 100.9302,115.1942 107.7003,114.8315 114.4703,113.0788 121.2403,111.4541 128.0103,109.9571 134.7804,108.5875 141.5504,107.3443 148.3204,106.2258 155.0904,105.23 161.8605,104.3545 168.6305,103.5965 175.4005,102.9526 182.1705,102.4193 188.9406,101.9931 195.7106,101.67 202.4806,101.4461 209.2506,101.3174 216.0207,101.28 222.7907,101.33 229.5607,101.4604 236.3307,101.6544 243.1008,101.88 249.8708,102.0884 256.6408,102.2158 263.4109,102.4415 270.1809,102.7633 276.9509,103.1797 283.7209,103.6894 290.491,104.2914 297.261,104.9853 304.031,105.7707 310.801,106.6479 317.5711,107.6173 324.3411,108.6802 331.1111,109.7923 337.8811,110.7916 344.6512,111.357 351.4212,110.891 358.1912,110.6741 364.9612,110.7 371.7313,110.9356 378.5013,111.2656 385.2713,111.457 392.0413,111.0985 398.8114,109.347 405.5814,107.706 412.3514,106.1712 419.1214,104.7393 425.8915,103.4077 432.6615,102.174 439.4315,101.036 446.2016,99.9917 452.9716,99.0385 459.7416,98.174 466.5116,97.3952 473.2817,96.6985 480.0517,96.0884 486.8217,95.5912 493.5917,95.2617 500.3618,95.1907 507.1318,95.5264 513.9018,96.5458 520.6718,97.6026 527.4419,98.6974 534.2119,99.83 540.9819,100.9998 547.7519,102.2052 554.522,103.4442 561.292,104.6954 568.062,105.8967 574.832,106.9526 581.6021,107.7433 588.3721,108.0729 595.1421,107.461 601.9121,107.0525 608.6822,106.8277 615.4522,106.6642 622.2222,106.2581 622.2222,155.1131 615.4522,154.7099 608.6822,154.5088 601.9121,154.2774 595.1421,153.9294 588.3721,153.4589 581.6021,152.7191 574.832,151.7331 568.062,151.4897 561.292,151.4847 554.522,151.4592 547.7519,151.29 540.9819,150.9423 534.2119,150.4106 527.4419,149.6891 520.6718,148.7711 513.9018,147.649 507.1318,146.3139 500.3618,146.3618 493.5917,147.17 486.8217,148.3696 480.0517,149.72 473.2817,151.0706 466.5116,152.345 459.7416,153.5219 452.9716,154.599 446.2016,155.5736 439.4315,156.4423 432.6615,157.2013 425.8915,157.8461 419.1214,158.3721 412.3514,158.774 405.5814,159.0456 398.8114,159.1803 392.0413,159.17 385.2713,159.4684 378.5013,159.9084 371.7313,160.3834 364.9612,160.8228 358.1912,161.1861 351.4212,161.4568 344.6512,161.6268 337.8811,161.9517 331.1111,162.3204 324.3411,162.6629 317.5711,162.941 310.801,163.1408 304.031,163.2568 297.261,163.2827 290.491,163.2116 283.7209,163.0359 276.9509,162.7476 270.1809,162.3375 263.4109,161.7961 256.6408,161.1127 249.8708,160.2758 243.1008,160.57 236.3307,161.428 229.5607,162.5347 222.7907,163.7021 216.0207,164.8354 209.2506,165.9089 202.4806,166.9225 195.7106,167.8754 188.9406,168.7659 182.1705,169.5915 175.4005,170.3494 168.6305,171.0358 161.8605,171.6466 155.0904,172.1768 148.3204,172.621 141.5504,172.9735 134.7804,173.2278 128.0103,173.377 121.2403,173.4138 114.4703,173.3303 107.7003,173.1184 100.9302,173.3308 94.1602,173.8111 87.3902,174.4689 80.6202,175.2424 73.8501,176.0844 67.0801,176.9589 60.3101,177.8406 53.5401,178.7159 46.77,179.5816 40,180.4384"></polyline>
<text class = "party erc" x="631.1111" y="131"><tspan class="party_name">ERC</tspan> (26.6±3.2%)</text>
<polyline class="pdecat" points=" 40,232.6005 46.77,232.4476 53.5401,232.287 60.3101,232.1183 67.0801,231.9432 73.8501,231.7684 80.6202,231.6058 87.3902,231.4726 94.1602,231.3918 100.9302,231.3965 107.7003,231.5444 114.4703,231.9622 121.2403,232.3751 128.0103,232.7804 134.7804,233.1755 141.5504,233.5582 148.3204,233.9267 155.0904,234.2791 161.8605,234.6143 168.6305,234.9308 175.4005,235.228 182.1705,235.505 188.9406,235.7613 195.7106,235.9965 202.4806,236.2105 209.2506,236.4031 216.0207,236.5744 222.7907,236.7244 229.5607,236.8537 236.3307,236.9641 243.1008,237.0612 249.8708,237.1556 256.6408,237.2686 263.4109,237.3727 270.1809,237.4652 276.9509,237.5435 283.7209,237.605 290.491,237.6476 297.261,237.6689 304.031,237.6669 310.801,237.6395 317.5711,237.5846 324.3411,237.5 331.1111,237.3991 337.8811,237.3376 344.6512,237.4336 351.4212,237.925 358.1912,238.363 364.9612,238.7439 371.7313,239.0681 378.5013,239.3498 385.2713,239.629 392.0413,239.9893 398.8114,240.6249 405.5814,241.2903 412.3514,241.9817 419.1214,242.6952 425.8915,243.4275 432.6615,244.1754 439.4315,244.9359 446.2016,245.7063 452.9716,246.4843 459.7416,247.268 466.5116,248.0557 473.2817,248.8463 480.0517,249.6295 486.8217,250.3689 493.5917,250.9936 500.3618,251.3912 507.1318,251.3891 513.9018,250.688 520.6718,250.0487 527.4419,249.4651 534.2119,248.9323 540.9819,248.4453 547.7519,247.9997 554.522,247.5911 561.292,247.227 568.062,246.9422 574.832,246.8079 581.6021,246.9627 588.3721,247.2517 595.1421,247.8226 601.9121,248.4391 608.6822,249.0829 615.4522,249.6714 622.2222,250.0289"></polyline>
<polyline class="pdecat error" points=" 40,202.7616 46.77,203.4864 53.5401,204.2195 60.3101,204.9615 67.0801,205.7096 73.8501,206.4509 80.6202,207.1615 87.3902,207.8066 94.1602,208.3411 100.9302,208.7037 107.7003,208.8016 114.4703,208.4636 121.2403,208.2233 128.0103,208.0744 134.7804,208.0111 141.5504,208.0274 148.3204,208.118 155.0904,208.2776 161.8605,208.5011 168.6305,208.784 175.4005,209.122 182.1705,209.5109 188.9406,209.9473 195.7106,210.4277 202.4806,210.9494 209.2506,211.5098 216.0207,212.1069 222.7907,212.7391 229.5607,213.3935 236.3307,214.0277 243.1008,214.5597 249.8708,214.8561 256.6408,214.6874 263.4109,214.6088 270.1809,214.6121 276.9509,214.6899 283.7209,214.8351 290.491,215.0415 297.261,215.3032 304.031,215.6149 310.801,215.9716 317.5711,216.3689 324.3411,216.8025 331.1111,217.2637 337.8811,217.7325 344.6512,218.1791 351.4212,218.5755 358.1912,219.0528 364.9612,219.6012 371.7313,220.2014 378.5013,220.8076 385.2713,221.3437 392.0413,221.6967 398.8114,221.6789 405.5814,221.7926 412.3514,222.029 419.1214,222.3803 425.8915,222.8392 432.6615,223.3994 439.4315,224.0547 446.2016,224.7997 452.9716,225.629 459.7416,226.538 466.5116,227.5224 473.2817,228.5785 480.0517,229.6883 486.8217,230.7938 493.5917,231.7834 500.3618,232.4821 507.1318,232.6242 513.9018,231.7631 520.6718,231.0621 527.4419,230.5125 534.2119,230.1063 540.9819,229.8357 547.7519,229.6934 554.522,229.6721 561.292,229.7574 568.062,229.9144 574.832,230.0794 581.6021,230.1548 588.3721,230.2904 595.1421,230.4668 601.9121,230.8153 608.6822,231.3069 615.4522,231.7766 622.2222,231.8375 622.2222,268.2204 615.4522,267.5661 608.6822,266.8589 601.9121,266.063 595.1421,265.1785 588.3721,264.2131 581.6021,263.7706 574.832,263.5364 568.062,263.9701 561.292,264.6965 554.522,265.5102 547.7519,266.306 540.9819,267.0549 534.2119,267.7583 527.4419,268.4178 520.6718,269.0352 513.9018,269.613 507.1318,270.1539 500.3618,270.3004 493.5917,270.2037 486.8217,269.9441 480.0517,269.5708 473.2817,269.1141 466.5116,268.5889 459.7416,267.9979 452.9716,267.3396 446.2016,266.6129 439.4315,265.817 432.6615,264.9514 425.8915,264.0159 419.1214,263.0102 412.3514,261.9343 405.5814,260.7881 398.8114,259.5709 392.0413,258.2819 385.2713,257.9143 378.5013,257.8921 371.7313,257.9349 364.9612,257.8867 358.1912,257.6732 351.4212,257.2745 344.6512,256.6881 337.8811,256.9428 331.1111,257.5344 324.3411,258.1975 317.5711,258.8003 310.801,259.3074 304.031,259.7189 297.261,260.0346 290.491,260.2536 283.7209,260.3749 276.9509,260.3971 270.1809,260.3183 263.4109,260.1366 256.6408,259.8498 249.8708,259.4552 243.1008,259.5627 236.3307,259.9005 229.5607,260.3138 222.7907,260.7098 216.0207,261.0419 209.2506,261.2964 202.4806,261.4716 195.7106,261.5653 188.9406,261.5752 182.1705,261.499 175.4005,261.334 168.6305,261.0776 161.8605,260.7274 155.0904,260.2807 148.3204,259.7354 141.5504,259.0891 134.7804,258.3399 128.0103,257.4864 121.2403,256.527 114.4703,255.4608 107.7003,254.2871 100.9302,254.0893 94.1602,254.4425 87.3902,255.1385 80.6202,256.0501 73.8501,257.0858 67.0801,258.1769 60.3101,259.2751 53.5401,260.3546 46.77,261.4088 40,262.4394"></polyline>
<text class = "party pdecat" x="631.1111" y="254"><tspan class="party_name">PDeCAT</tspan> (10.9±2.4%)</text>
<polyline class="cec" points=" 40,243.9488 46.77,243.8739 53.5401,243.7949 60.3101,243.7117 67.0801,243.6252 73.8501,243.5387 80.6202,243.4591 87.3902,243.3959 94.1602,243.3621 100.9302,243.3769 107.7003,243.4737 114.4703,243.7264 121.2403,243.9807 128.0103,244.2352 134.7804,244.4891 141.5504,244.7413 148.3204,244.9912 155.0904,245.2381 161.8605,245.4817 168.6305,245.7217 175.4005,245.958 182.1705,246.1906 188.9406,246.4198 195.7106,246.6459 202.4806,246.8695 209.2506,247.0911 216.0207,247.3116 222.7907,247.532 229.5607,247.7474 236.3307,247.9366 243.1008,248.0571 249.8708,248.0349 256.6408,247.7296 263.4109,247.4396 270.1809,247.1633 276.9509,246.8991 283.7209,246.6456 290.491,246.4014 297.261,246.1651 304.031,245.9352 310.801,245.7105 317.5711,245.4896 324.3411,245.271 331.1111,245.0628 337.8811,244.8972 344.6512,244.839 351.4212,245.0151 358.1912,245.1637 364.9612,245.2866 371.7313,245.3857 378.5013,245.4658 385.2713,245.5366 392.0413,245.6163 398.8114,245.7445 405.5814,245.8734 412.3514,246.0017 419.1214,246.1281 425.8915,246.2514 432.6615,246.3705 439.4315,246.4844 446.2016,246.592 452.9716,246.6922 459.7416,246.7842 466.5116,246.8667 473.2817,246.9388 480.0517,247.0015 486.8217,247.0628 493.5917,247.1409 500.3618,247.2686 507.1318,247.5005 513.9018,247.9358 520.6718,248.3702 527.4419,248.8028 534.2119,249.2327 540.9819,249.6592 547.7519,250.0818 554.522,250.5002 561.292,250.8943 568.062,251.193 574.832,251.2538 581.6021,250.7964 588.3721,250.4783 595.1421,250.3465 601.9121,250.2228 608.6822,250.1093 615.4522,250.0105 622.2222,249.9333"></polyline>
<polyline class="cec error" points=" 40,221.381 46.77,221.9847 53.5401,222.5959 60.3101,223.2154 67.0801,223.8403 73.8501,224.459 80.6202,225.0507 87.3902,225.5851 94.1602,226.0233 100.9302,226.3124 107.7003,226.3707 114.4703,226.0433 121.2403,225.7955 128.0103,225.6239 134.7804,225.5249 141.5504,225.495 148.3204,225.531 155.0904,225.6296 161.8605,225.7877 168.6305,226.0025 175.4005,226.2713 182.1705,226.5916 188.9406,226.9613 195.7106,227.3784 202.4806,227.8413 209.2506,228.3489 216.0207,228.9003 222.7907,229.495 229.5607,230.1178 236.3307,230.7123 243.1008,231.1674 249.8708,231.2957 256.6408,230.7591 263.4109,230.3142 270.1809,229.9553 276.9509,229.6773 283.7209,229.4756 290.491,229.3457 297.261,229.2834 304.031,229.285 310.801,229.3468 317.5711,229.4655 324.3411,229.6383 331.1111,229.856 337.8811,230.0922 344.6512,230.298 351.4212,230.3948 358.1912,230.5674 364.9612,230.8131 371.7313,231.1189 378.5013,231.4433 385.2713,231.7064 392.0413,231.7741 398.8114,231.3888 405.5814,231.0805 412.3514,230.8443 419.1214,230.676 425.8915,230.572 432.6615,230.5287 439.4315,230.5431 446.2016,230.612 452.9716,230.7324 459.7416,230.9013 466.5116,231.1157 473.2817,231.3726 480.0517,231.6678 486.8217,231.9939 493.5917,232.3405 500.3618,232.6955 507.1318,233.0483 513.9018,233.3957 520.6718,233.817 527.4419,234.3089 534.2119,234.868 540.9819,235.4911 547.7519,236.1752 554.522,236.9176 561.292,237.6803 568.062,238.3351 574.832,238.6303 581.6021,238.0927 588.3721,237.6387 595.1421,237.1849 601.9121,236.8344 608.6822,236.5823 615.4522,236.3724 622.2222,236.0535 622.2222,263.8132 615.4522,263.6487 608.6822,263.6362 601.9121,263.6113 595.1421,263.5082 588.3721,263.3178 581.6021,263.5002 574.832,263.8773 568.062,264.051 561.292,264.1084 554.522,264.0828 547.7519,263.9883 540.9819,263.8273 534.2119,263.5974 527.4419,263.2966 520.6718,262.9233 513.9018,262.4759 507.1318,261.9527 500.3618,261.8417 493.5917,261.9414 486.8217,262.1316 480.0517,262.3352 473.2817,262.505 466.5116,262.6178 459.7416,262.6671 452.9716,262.6521 446.2016,262.5719 439.4315,262.4256 432.6615,262.2122 425.8915,261.9308 419.1214,261.5801 412.3514,261.1591 405.5814,260.6663 398.8114,260.1002 392.0413,259.4586 385.2713,259.3668 378.5013,259.4883 371.7313,259.6525 364.9612,259.7601 358.1912,259.76 351.4212,259.6353 344.6512,259.3799 337.8811,259.7021 331.1111,260.2696 324.3411,260.9036 317.5711,261.5136 310.801,262.0743 304.031,262.5855 297.261,263.0468 290.491,263.4572 283.7209,263.8157 276.9509,264.1209 270.1809,264.3712 263.4109,264.5649 256.6408,264.7 249.8708,264.774 243.1008,264.9468 236.3307,265.1609 229.5607,265.377 222.7907,265.569 216.0207,265.723 209.2506,265.8333 202.4806,265.8976 195.7106,265.9135 188.9406,265.8784 182.1705,265.7896 175.4005,265.6446 168.6305,265.4408 161.8605,265.1756 155.0904,264.8466 148.3204,264.4513 141.5504,263.9876 134.7804,263.4533 128.0103,262.8465 121.2403,262.1658 114.4703,261.4095 107.7003,260.5766 100.9302,260.4413 94.1602,260.7009 87.3902,261.2066 80.6202,261.8675 73.8501,262.6184 67.0801,263.41 60.3101,264.208 53.5401,264.9939 46.77,265.763 40,266.5166"></polyline>
<text class = "party cec" x="631.1111" y="233"><tspan class="party_name">CeC</tspan> (10.9±1.8%)</text>
<polyline class="psc" points=" 40,231.9929 46.77,231.8794 53.5401,231.7595 60.3101,231.6328 67.0801,231.5004 73.8501,231.3682 80.6202,231.2471 87.3902,231.153 94.1602,231.1077 100.9302,231.1435 107.7003,231.3169 114.4703,231.7531 121.2403,232.1956 128.0103,232.6427 134.7804,233.093 141.5504,233.5452 148.3204,233.9985 155.0904,234.4521 161.8605,234.9057 168.6305,235.3593 175.4005,235.813 182.1705,236.2672 188.9406,236.7229 195.7106,237.1812 202.4806,237.6433 209.2506,238.1112 216.0207,238.5869 222.7907,239.073 229.5607,239.5562 236.3307,239.9803 243.1008,240.2298 249.8708,240.1039 256.6408,239.2194 263.4109,238.376 270.1809,237.5706 276.9509,236.8002 283.7209,236.0619 290.491,235.3527 297.261,234.6697 304.031,234.0099 310.801,233.3702 317.5711,232.7476 324.3411,232.1387 331.1111,231.5626 337.8811,231.0935 344.6512,230.8791 351.4212,231.2046 358.1912,231.4614 364.9612,231.654 371.7313,231.7908 378.5013,231.8928 385.2713,232.002 392.0413,232.1944 398.8114,232.6344 405.5814,233.0802 412.3514,233.5312 419.1214,233.9867 425.8915,234.4465 432.6615,234.9107 439.4315,235.3795 446.2016,235.8534 452.9716,236.3332 459.7416,236.8199 466.5116,237.315 473.2817,237.8201 480.0517,238.3275 486.8217,238.8013 493.5917,239.1676 500.3618,239.3035 507.1318,239.0142 513.9018,237.9559 520.6718,236.9473 527.4419,235.9868 534.2119,235.0734 540.9819,234.2066 547.7519,233.3859 554.522,232.6113 561.292,231.8962 568.062,231.2836 574.832,230.8469 581.6021,230.7126 588.3721,230.4579 595.1421,230.0052 601.9121,229.4688 608.6822,228.8718 615.4522,228.3098 622.2222,227.9851"></polyline>
<polyline class="psc error" points=" 40,202.9082 46.77,203.6528 53.5401,204.4064 60.3101,205.1697 67.0801,205.9394 73.8501,206.7023 80.6202,207.4341 87.3902,208.1003 94.1602,208.6562 100.9302,209.0421 107.7003,209.1679 114.4703,208.8683 121.2403,208.6755 128.0103,208.5845 134.7804,208.5904 141.5504,208.6887 148.3204,208.8751 155.0904,209.1453 161.8605,209.4956 168.6305,209.9226 175.4005,210.423 182.1705,210.9943 188.9406,211.6341 195.7106,212.3408 202.4806,213.1131 209.2506,213.9505 216.0207,214.8531 222.7907,215.8218 229.5607,216.8298 236.3307,217.775 243.1008,218.4526 249.8708,218.5141 256.6408,217.3174 263.4109,216.2594 270.1809,215.3322 276.9509,214.5284 283.7209,213.8409 290.491,213.263 297.261,212.7884 304.031,212.4111 310.801,212.1253 317.5711,211.9256 324.3411,211.8069 331.1111,211.7665 337.8811,211.8049 344.6512,211.9249 351.4212,212.1511 358.1912,212.4401 364.9612,212.7909 371.7313,213.1929 378.5013,213.6084 385.2713,213.9649 392.0413,214.1444 398.8114,213.9333 405.5814,213.8272 412.3514,213.8204 419.1214,213.9084 425.8915,214.0876 432.6615,214.355 439.4315,214.7079 446.2016,215.1442 452.9716,215.6621 459.7416,216.2601 466.5116,216.9371 473.2817,217.6925 480.0517,218.5112 486.8217,219.3363 493.5917,220.0535 500.3618,220.4777 507.1318,220.3216 513.9018,219.0944 520.6718,218.014 527.4419,217.0763 534.2119,216.2778 540.9819,215.6154 547.7519,215.086 554.522,214.6868 561.292,214.4102 568.062,214.2292 574.832,214.0828 581.6021,213.8601 588.3721,213.435 595.1421,212.5551 601.9121,211.7126 608.6822,210.9223 615.4522,210.2027 622.2222,209.5565 622.2222,246.4136 615.4522,246.4168 608.6822,246.8214 601.9121,247.2249 595.1421,247.4554 588.3721,247.4807 581.6021,247.565 574.832,247.611 568.062,248.3381 561.292,249.3822 554.522,250.5357 547.7519,251.6858 540.9819,252.7978 534.2119,253.8691 527.4419,254.8974 520.6718,255.8807 513.9018,256.8175 507.1318,257.7067 500.3618,258.1293 493.5917,258.2816 486.8217,258.2664 480.0517,258.1437 473.2817,257.9477 466.5116,257.6929 459.7416,257.3798 452.9716,257.0043 446.2016,256.5626 439.4315,256.0511 432.6615,255.4664 425.8915,254.8054 419.1214,254.0649 412.3514,253.242 405.5814,252.3333 398.8114,251.3354 392.0413,250.2445 385.2713,250.0391 378.5013,250.1772 371.7313,250.3886 364.9612,250.5171 358.1912,250.4826 351.4212,250.2581 344.6512,249.8333 337.8811,250.3822 331.1111,251.3587 324.3411,252.4706 317.5711,253.5696 310.801,254.6151 304.031,255.6087 297.261,256.551 290.491,257.4424 283.7209,258.2829 276.9509,259.072 270.1809,259.8089 263.4109,260.4925 256.6408,261.1213 249.8708,261.6936 243.1008,262.007 236.3307,262.1857 229.5607,262.2827 222.7907,262.3242 216.0207,262.3206 209.2506,262.2718 202.4806,262.1735 195.7106,262.0215 188.9406,261.8118 182.1705,261.5402 175.4005,261.2029 168.6305,260.796 161.8605,260.3158 155.0904,259.7589 148.3204,259.1219 141.5504,258.4017 134.7804,257.5956 128.0103,256.701 121.2403,255.7157 114.4703,254.6379 107.7003,253.4659 100.9302,253.2449 94.1602,253.5592 87.3902,254.2056 80.6202,255.0601 73.8501,256.0341 67.0801,257.0614 60.3101,258.0959 53.5401,259.1127 46.77,260.106 40,261.0775"></polyline>
<text class = "party psc" x="631.1111" y="212"><tspan class="party_name">PSC</tspan> (13.8±2.4%)</text>
<polyline class="cs" points=" 40,199.1928 46.77,199.2167 53.5401,199.2419 60.3101,199.2686 67.0801,199.2964 73.8501,199.3244 80.6202,199.3505 87.3902,199.3721 94.1602,199.3857 100.9302,199.3862 107.7003,199.3647 114.4703,199.3019 121.2403,199.2404 128.0103,199.1806 134.7804,199.123 141.5504,199.0679 148.3204,199.0155 155.0904,198.9663 161.8605,198.9203 168.6305,198.8778 175.4005,198.8389 182.1705,198.8037 188.9406,198.7722 195.7106,198.7444 202.4806,198.7203 209.2506,198.6998 216.0207,198.6828 222.7907,198.6692 229.5607,198.659 236.3307,198.6526 243.1008,198.6512 249.8708,198.6568 256.6408,198.6743 263.4109,198.6956 270.1809,198.7212 276.9509,198.7514 283.7209,198.7867 290.491,198.8275 297.261,198.8741 304.031,198.9269 310.801,198.9861 317.5711,199.052 324.3411,199.1248 331.1111,199.2017 337.8811,199.2716 344.6512,199.314 351.4212,199.2906 358.1912,199.2895 364.9612,199.3116 371.7313,199.3533 378.5013,199.3985 385.2713,199.4136 392.0413,199.3372 398.8114,199.0357 405.5814,198.7361 412.3514,198.4392 419.1214,198.1459 425.8915,197.857 432.6615,197.5735 439.4315,197.2962 446.2016,197.0261 452.9716,196.7641 459.7416,196.511 466.5116,196.2677 473.2817,196.0349 480.0517,195.8141 486.8217,195.6088 493.5917,195.4237 500.3618,195.2649 507.1318,195.1391 513.9018,195.0563 520.6718,194.968 527.4419,194.8773 534.2119,194.7871 540.9819,194.7006 547.7519,194.6209 554.522,194.5511 561.292,194.4808 568.062,194.3596 574.832,194.0726 581.6021,193.3742 588.3721,192.8194 595.1421,192.4713 601.9121,192.0664 608.6822,191.6214 615.4522,191.205 622.2222,190.9618"></polyline>
<polyline class="cs error" points=" 40,171.8873 46.77,172.7166 53.5401,173.5621 60.3101,174.4248 67.0801,175.3001 73.8501,176.169 80.6202,176.9962 87.3902,177.7315 94.1602,178.3081 100.9302,178.6342 107.7003,178.5617 114.4703,177.7946 121.2403,177.1217 128.0103,176.5406 134.7804,176.0487 141.5504,175.6435 148.3204,175.3221 155.0904,175.0817 161.8605,174.9196 168.6305,174.8327 175.4005,174.8183 182.1705,174.8735 188.9406,174.9957 195.7106,175.1822 202.4806,175.4308 209.2506,175.7391 216.0207,176.1052 222.7907,176.5274 229.5607,176.9937 236.3307,177.4636 243.1008,177.8577 249.8708,178.0455 256.6408,177.801 263.4109,177.6515 270.1809,177.5927 276.9509,177.6205 283.7209,177.7315 290.491,177.9225 297.261,178.1904 304.031,178.5329 310.801,178.9475 317.5711,179.4325 324.3411,179.9862 331.1111,180.5849 337.8811,181.1458 344.6512,181.5085 351.4212,181.3818 358.1912,181.403 364.9612,181.5677 371.7313,181.8545 378.5013,182.1913 385.2713,182.4351 392.0413,182.339 398.8114,181.4065 405.5814,180.5677 412.3514,179.8191 419.1214,179.158 425.8915,178.5823 432.6615,178.0902 439.4315,177.6803 446.2016,177.3511 452.9716,177.1013 459.7416,176.9295 466.5116,176.8345 473.2817,176.8149 480.0517,176.8659 486.8217,176.9722 493.5917,177.1033 500.3618,177.2099 507.1318,177.217 513.9018,177.0061 520.6718,176.8802 527.4419,176.8397 534.2119,176.885 540.9819,177.0166 547.7519,177.235 554.522,177.5409 561.292,177.9031 568.062,178.203 574.832,178.1951 581.6021,177.4013 588.3721,176.6803 595.1421,175.9344 601.9121,175.2471 608.6822,174.6268 615.4522,174.0684 622.2222,173.5265 622.2222,208.3971 615.4522,208.3415 608.6822,208.6161 601.9121,208.8856 595.1421,209.0082 588.3721,208.9584 581.6021,209.3472 574.832,209.9502 568.062,210.5162 561.292,211.0585 554.522,211.5612 547.7519,212.0067 540.9819,212.3847 534.2119,212.6893 527.4419,212.9148 520.6718,213.0557 513.9018,213.1064 507.1318,213.0611 500.3618,213.3199 493.5917,213.7441 486.8217,214.2454 480.0517,214.7624 473.2817,215.2549 466.5116,215.7009 459.7416,216.0925 452.9716,216.4269 446.2016,216.7011 439.4315,216.9121 432.6615,217.0567 425.8915,217.1318 419.1214,217.1338 412.3514,217.0594 405.5814,216.9045 398.8114,216.6648 392.0413,216.3355 385.2713,216.3921 378.5013,216.6058 371.7313,216.852 364.9612,217.0554 358.1912,217.1761 351.4212,217.1995 344.6512,217.1195 337.8811,217.3974 331.1111,217.8184 324.3411,218.2634 317.5711,218.6715 310.801,219.0246 304.031,219.3209 297.261,219.5578 290.491,219.7326 283.7209,219.8419 276.9509,219.8823 270.1809,219.8497 263.4109,219.7397 256.6408,219.5476 249.8708,219.2681 243.1008,219.4446 236.3307,219.8417 229.5607,220.3243 222.7907,220.811 216.0207,221.2604 209.2506,221.6605 202.4806,222.0098 195.7106,222.3066 188.9406,222.5487 182.1705,222.7339 175.4005,222.8596 168.6305,222.923 161.8605,222.9211 155.0904,222.8508 148.3204,222.7089 141.5504,222.4922 134.7804,222.1973 128.0103,221.8207 121.2403,221.3592 114.4703,220.8093 107.7003,220.1677 100.9302,220.1382 94.1602,220.4633 87.3902,221.0127 80.6202,221.7047 73.8501,222.4797 67.0801,223.2927 60.3101,224.1124 53.5401,224.9217 46.77,225.7167 40,226.4983"></polyline>
<text class = "party cs" x="631.1111" y="191"><tspan class="party_name">C's</tspan> (18.7±2.3%)</text>
<polyline class="pp" points=" 40,259.6271 46.77,259.6515 53.5401,259.6784 60.3101,259.708 67.0801,259.7398 73.8501,259.7722 80.6202,259.8019 87.3902,259.824 94.1602,259.8317 100.9302,259.8149 107.7003,259.7558 114.4703,259.6152 121.2403,259.4715 128.0103,259.3255 134.7804,259.1777 141.5504,259.0286 148.3204,258.8785 155.0904,258.7278 161.8605,258.5769 168.6305,258.4259 175.4005,258.275 182.1705,258.1242 188.9406,257.9735 195.7106,257.823 202.4806,257.6723 209.2506,257.5213 216.0207,257.3698 222.7907,257.2173 229.5607,257.067 236.3307,256.9315 243.1008,256.8353 249.8708,256.8203 256.6408,256.9646 263.4109,257.0953 270.1809,257.2134 276.9509,257.3197 283.7209,257.4154 290.491,257.5014 297.261,257.5787 304.031,257.6484 310.801,257.7117 317.5711,257.7698 324.3411,257.8241 331.1111,257.8683 337.8811,257.8748 344.6512,257.7829 351.4212,257.4652 358.1912,257.1436 364.9612,256.8159 371.7313,256.4885 378.5013,256.1889 385.2713,255.9706 392.0413,255.9253 398.8114,256.2493 405.5814,256.5564 412.3514,256.8479 419.1214,257.1247 425.8915,257.3874 432.6615,257.6364 439.4315,257.8717 446.2016,258.0934 452.9716,258.3012 459.7416,258.495 466.5116,258.6745 473.2817,258.8391 480.0517,258.9896 486.8217,259.1304 493.5917,259.2723 500.3618,259.4356 507.1318,259.655 513.9018,259.9948 520.6718,260.3376 527.4419,260.6819 534.2119,261.0265 540.9819,261.3703 547.7519,261.7125 554.522,262.0525 561.292,262.3724 568.062,262.6086 574.832,262.6326 581.6021,262.1896 588.3721,261.9925 595.1421,262.1902 601.9121,262.4179 608.6822,262.6675 615.4522,262.9004 622.2222,263.0337"></polyline>
<polyline class="pp error" points=" 40,237.6281 46.77,238.3254 53.5401,239.0364 60.3101,239.762 67.0801,240.4982 73.8501,241.2282 80.6202,241.9211 87.3902,242.5327 94.1602,243.0045 100.9302,243.255 107.7003,243.1517 114.4703,242.4257 121.2403,241.7723 128.0103,241.1898 134.7804,240.6769 141.5504,240.2317 148.3204,239.8523 155.0904,239.5369 161.8605,239.2831 168.6305,239.0887 175.4005,238.9516 182.1705,238.8694 188.9406,238.8399 195.7106,238.8607 202.4806,238.9298 209.2506,239.0452 216.0207,239.2048 222.7907,239.407 229.5607,239.6451 236.3307,239.898 243.1008,240.1249 249.8708,240.2598 256.6408,240.1934 263.4109,240.1882 270.1809,240.241 276.9509,240.3495 283.7209,240.5112 290.491,240.7242 297.261,240.9868 304.031,241.2975 310.801,241.6555 317.5711,242.06 324.3411,242.5109 331.1111,242.9844 337.8811,243.3929 344.6512,243.5594 351.4212,243.1447 358.1912,242.8287 364.9612,242.6049 371.7313,242.4654 378.5013,242.393 385.2713,242.3541 392.0413,242.2925 398.8114,242.1164 405.5814,241.9984 412.3514,241.9364 419.1214,241.9284 425.8915,241.9726 432.6615,242.067 439.4315,242.2096 446.2016,242.3984 452.9716,242.6311 459.7416,242.9057 466.5116,243.2198 473.2817,243.5712 480.0517,243.955 486.8217,244.3606 493.5917,244.7702 500.3618,245.1595 507.1318,245.4986 513.9018,245.7497 520.6718,246.0777 527.4419,246.4787 534.2119,246.949 540.9819,247.485 547.7519,248.0835 554.522,248.7415 561.292,249.4234 568.062,250.0092 574.832,250.2632 581.6021,249.7399 588.3721,249.4123 595.1421,249.3047 601.9121,249.3223 608.6822,249.4492 615.4522,249.5855 622.2222,249.4893 622.2222,276.5781 615.4522,276.2153 608.6822,275.8857 601.9121,275.5136 595.1421,275.0757 588.3721,274.5727 581.6021,274.6393 574.832,275.0019 568.062,275.2079 561.292,275.3214 554.522,275.3635 547.7519,275.3414 540.9819,275.2556 534.2119,275.1041 527.4419,274.8851 520.6718,274.5975 513.9018,274.2399 507.1318,273.8114 500.3618,273.7116 493.5917,273.7744 486.8217,273.9001 480.0517,274.0241 473.2817,274.107 466.5116,274.1291 459.7416,274.0844 452.9716,273.9713 446.2016,273.7884 439.4315,273.5338 432.6615,273.2057 425.8915,272.8022 419.1214,272.321 412.3514,271.7594 405.5814,271.1144 398.8114,270.3822 392.0413,269.558 385.2713,269.587 378.5013,269.9848 371.7313,270.5116 364.9612,271.027 358.1912,271.4585 351.4212,271.7857 344.6512,272.0065 337.8811,272.3566 331.1111,272.7522 324.3411,273.1372 317.5711,273.4796 310.801,273.7679 304.031,273.9993 297.261,274.1706 290.491,274.2785 283.7209,274.3196 276.9509,274.29 270.1809,274.1857 263.4109,274.0025 256.6408,273.7359 249.8708,273.3808 243.1008,273.5457 236.3307,273.965 229.5607,274.489 222.7907,275.0276 216.0207,275.5348 209.2506,275.9975 202.4806,276.4147 195.7106,276.7852 188.9406,277.1072 182.1705,277.379 175.4005,277.5983 168.6305,277.7631 161.8605,277.8708 155.0904,277.9188 148.3204,277.9046 141.5504,277.8255 134.7804,277.6786 128.0103,277.4613 121.2403,277.1708 114.4703,276.8046 107.7003,276.3599 100.9302,276.3748 94.1602,276.6589 87.3902,277.1153 80.6202,277.6827 73.8501,278.3163 67.0801,278.9814 60.3101,279.6539 53.5401,280.3205 46.77,280.9777 40,281.6261"></polyline>
<text class = "party pp" x="631.1111" y="274"><tspan class="party_name">PP</tspan> (9.2±1.8%)</text>
<polyline class="otros" points=" 40,310.6313 46.77,310.6964 53.5401,310.7641 60.3101,310.8345 67.0801,310.9069 73.8501,310.9787 80.6202,311.045 87.3902,311.0987 94.1602,311.1304 100.9302,311.1264 107.7003,311.0627 114.4703,310.8864 121.2403,310.7106 128.0103,310.5363 134.7804,310.3641 141.5504,310.1948 148.3204,310.0288 155.0904,309.8666 161.8605,309.7084 168.6305,309.5545 175.4005,309.4049 182.1705,309.2594 188.9406,309.118 195.7106,308.9803 202.4806,308.8461 209.2506,308.7147 216.0207,308.5856 222.7907,308.4581 229.5607,308.3352 236.3307,308.2298 243.1008,308.1688 249.8708,308.1992 256.6408,308.4112 263.4109,308.6178 270.1809,308.8204 276.9509,309.0202 283.7209,309.2185 290.491,309.4166 297.261,309.6158 304.031,309.8175 310.801,310.023 317.5711,310.234 324.3411,310.4521 331.1111,310.6642 337.8811,310.8174 344.6512,310.8023 351.4212,310.3999 358.1912,310.0336 364.9612,309.7019 371.7313,309.4053 378.5013,309.1473 385.2713,308.9314 392.0413,308.7583 398.8114,308.6265 405.5814,308.4807 412.3514,308.3235 419.1214,308.1572 425.8915,307.9839 432.6615,307.8052 439.4315,307.6228 446.2016,307.4378 452.9716,307.2517 459.7416,307.0653 466.5116,306.8796 473.2817,306.6953 480.0517,306.5145 486.8217,306.3422 493.5917,306.1871 500.3618,306.062 507.1318,305.9849 513.9018,305.985 520.6718,305.9712 527.4419,305.9447 534.2119,305.9067 540.9819,305.8581 547.7519,305.7997 554.522,305.7322 561.292,305.6636 568.062,305.6224 574.832,305.6677 581.6021,305.9175 588.3721,306.1398 595.1421,306.3444 601.9121,306.5626 608.6822,306.7873 615.4522,306.9928 622.2222,307.1265"></polyline>
<polyline class="otros error" points=" 40,292.0964 46.77,292.7698 53.5401,293.4542 60.3101,294.1503 67.0801,294.854 73.8501,295.549 80.6202,296.2058 87.3902,296.7826 94.1602,297.2246 100.9302,297.4556 107.7003,297.3507 114.4703,296.6523 121.2403,296.0195 128.0103,295.4521 134.7804,294.9494 141.5504,294.5106 148.3204,294.1344 155.0904,293.8193 161.8605,293.5636 168.6305,293.3655 175.4005,293.2227 182.1705,293.1333 188.9406,293.095 195.7106,293.1055 202.4806,293.1624 209.2506,293.2637 216.0207,293.407 222.7907,293.5902 229.5607,293.8075 236.3307,294.0426 243.1008,294.2658 249.8708,294.4309 256.6408,294.4671 263.4109,294.5639 270.1809,294.7193 276.9509,294.9315 283.7209,295.1988 290.491,295.5198 297.261,295.8932 304.031,296.3183 310.801,296.7942 317.5711,297.3206 324.3411,297.8977 331.1111,298.4959 337.8811,299.0076 344.6512,299.218 351.4212,298.7156 358.1912,298.3406 364.9612,298.0878 371.7313,297.9452 378.5013,297.8768 385.2713,297.8091 392.0413,297.6124 398.8114,297.0287 405.5814,296.4937 412.3514,296.0078 419.1214,295.5715 425.8915,295.1854 432.6615,294.8495 439.4315,294.5641 446.2016,294.3291 452.9716,294.1442 459.7416,294.0089 466.5116,293.9227 473.2817,293.8848 480.0517,293.8923 486.8217,293.9373 493.5917,294.0032 500.3618,294.0637 507.1318,294.0794 513.9018,293.9891 520.6718,293.949 527.4419,293.9585 534.2119,294.0169 540.9819,294.1232 547.7519,294.2759 554.522,294.4737 561.292,294.7101 568.062,294.9676 574.832,295.2177 581.6021,295.4258 588.3721,295.5526 595.1421,295.4939 601.9121,295.5321 608.6822,295.6538 615.4522,295.7785 622.2222,295.7131 622.2222,318.5398 615.4522,318.2071 608.6822,317.9208 601.9121,317.593 595.1421,317.195 588.3721,316.727 581.6021,316.4092 574.832,316.1177 568.062,316.2773 561.292,316.617 554.522,316.9907 547.7519,317.3236 540.9819,317.5931 534.2119,317.7964 527.4419,317.9309 520.6718,317.9933 513.9018,317.9809 507.1318,317.8904 500.3618,318.0604 493.5917,318.371 486.8217,318.747 480.0517,319.1366 473.2817,319.5059 466.5116,319.8364 459.7416,320.1216 452.9716,320.3591 446.2016,320.5466 439.4315,320.6814 432.6615,320.761 425.8915,320.7825 419.1214,320.743 412.3514,320.6392 405.5814,320.4677 398.8114,320.2243 392.0413,319.9042 385.2713,320.0537 378.5013,320.4178 371.7313,320.8653 364.9612,321.3159 358.1912,321.7266 351.4212,322.0842 344.6512,322.3866 337.8811,322.6271 331.1111,322.8325 324.3411,323.0065 317.5711,323.1473 310.801,323.2518 304.031,323.3167 297.261,323.3384 290.491,323.3135 283.7209,323.2382 276.9509,323.1089 270.1809,322.9214 263.4109,322.6717 256.6408,322.3553 249.8708,321.9675 243.1008,322.0718 236.3307,322.4169 229.5607,322.8628 222.7907,323.326 216.0207,323.7643 209.2506,324.1657 202.4806,324.5297 195.7106,324.8552 188.9406,325.141 182.1705,325.3855 175.4005,325.587 168.6305,325.7436 161.8605,325.8533 155.0904,325.9139 148.3204,325.9232 141.5504,325.8789 134.7804,325.7788 128.0103,325.6205 121.2403,325.4017 114.4703,325.1205 107.7003,324.7746 100.9302,324.7971 94.1602,325.0362 87.3902,325.4148 80.6202,325.8842 73.8501,326.4085 67.0801,326.9599 60.3101,327.5187 53.5401,328.074 46.77,328.6231 40,329.1661"></polyline>
<text class = "party otros" x="631.1111" y="315"><tspan class="party_name">Otros</tspan> (3.4±1.5%)</text>

<text class="pie izquierda" x="0" y="395">Datos: Electograph | Modelo propio</text>
<text class="pie derecha" x="800" y="395">Jesús Carro | <tspan style="font-weight:bold">1datomas</tspan>.com</text>
</svg>
