<?xml version="1.0" encoding="utf-8"?><!DOCTYPE svg PUBLIC "-//W3C//DTD SVG 1.1//EN" "http://www.w3.org/Graphics/SVG/1.1/DTD/svg11.dtd">
<svg xmlns="http://www.w3.org/2000/svg" xmlns:xlink="http://www.w3.org/1999/xlink" version="1.1" viewBox="0 0 800 400">

<text x="0" y="20" style="font-size:large;font-weight:bold;color:black">Intención de voto en Elecciones Autonómicas en Cataluña</text>
<text x="0" y="40" style="color:gray">Promedio de encuestas y estimación de error</text>

<text class="horizontal axis" x="36" y="333.3333">0%</text>
<line class="horizontal axis" x1="40" y1="333.3333" x2="622.2222" y2="333.3333"></line>
<text class="horizontal axis" x="36" y="252.5253">10%</text>
<line class="horizontal axis" x1="40" y1="252.5253" x2="622.2222" y2="252.5253"></line>
<text class="horizontal axis" x="36" y="171.7172">20%</text>
<line class="horizontal axis" x1="40" y1="171.7172" x2="622.2222" y2="171.7172"></line>
<text class="horizontal axis" x="36" y="90.9091">30%</text>
<line class="horizontal axis" x1="40" y1="90.9091" x2="622.2222" y2="90.9091"></line>
<line class="vertical axis" x1="40" y1="336.6667" x2="40" y2="66.6667"></line>
<text class="vertical axis" x="40" y="343.3333">Ago-2017</text>
<line class="vertical axis" x1="189.1644" y1="336.6667" x2="189.1644" y2="66.6667"></line>
<text class="vertical axis" x="189.1644" y="343.3333">Sep-2017</text>
<line class="vertical axis" x1="333.517" y1="336.6667" x2="333.517" y2="66.6667"></line>
<text class="vertical axis" x="333.517" y="343.3333">Oct-2017</text>
<line class="vertical axis" x1="482.6814" y1="336.6667" x2="482.6814" y2="66.6667"></line>
<text class="vertical axis" x="482.6814" y="343.3333">Nov-2017</text>
<polyline id="media-cup"  class="cup media" points=" 40,281.7787 44.8118,281.7361 49.6235,281.6918 54.4353,281.6458 59.247,281.5984 64.0588,281.5514 68.8705,281.5076 73.6823,281.4706 78.494,281.4447 83.3058,281.4359 88.1175,281.4557 92.9293,281.5329 97.741,281.606 102.5528,281.6743 107.3646,281.7368 112.1763,281.7931 116.9881,281.8425 121.7998,281.8845 126.6116,281.9186 131.4233,281.9446 136.2351,281.9619 141.0468,281.9702 145.8586,281.969 150.6703,281.9577 155.4821,281.9358 160.2938,281.9026 165.1056,281.8571 169.9174,281.7982 174.7291,281.7297 179.5409,281.6675 184.3526,281.6445 189.1644,281.719 193.9761,282.013 198.7879,282.2925 203.5996,282.5582 208.4114,282.8109 213.2231,283.0515 218.0349,283.2809 222.8466,283.5 227.6584,283.7098 232.4702,283.9111 237.2819,284.1047 242.0937,284.2915 246.9054,284.4684 251.7172,284.6261 256.5289,284.7512 261.3407,284.8232 266.1524,284.9243 270.9642,285.0524 275.7759,285.2004 280.5877,285.3461 285.3994,285.4499 290.2112,285.4467 295.023,285.1855 299.8347,284.9459 304.6465,284.7256 309.4582,284.5228 314.27,284.3357 319.0817,284.1628 323.8935,284.0025 328.7052,283.8535 333.517,283.7146 338.3287,283.5845 343.1405,283.4623 347.9522,283.3471 352.764,283.2383 357.5758,283.1368 362.3875,283.0437 367.1993,282.9607 372.011,282.8889 376.8228,282.8295 381.6345,282.7584 386.4463,282.6758 391.258,282.5815 396.0698,282.4748 400.8815,282.3544 405.6933,282.2181 410.5051,282.0806 415.3168,282.001 420.1286,282.1011 424.9403,282.6253 429.7521,282.9626 434.5638,283.0631 439.3756,283.1572 444.1873,283.2428 448.9991,283.3246 453.8108,283.4194 458.6226,283.5668 463.4343,283.7069 468.2461,283.8276 473.0579,283.9064 477.8696,283.9104 482.6814,283.7876 487.4931,283.7023 492.3049,283.6791 497.1166,283.7819 501.9284,283.8875 506.7401,283.9967 511.5519,284.1096 516.3636,284.2259 521.1754,284.3454 525.9871,284.4673 530.7989,284.5911 535.6107,284.7158 540.4224,284.8407 545.2342,284.96 550.0459,285.0548 554.8577,285.093 559.6694,285.0252 564.4812,285.0162 569.2929,285.1172 574.1047,285.2104 578.9164,285.2878 583.7282,285.3336 588.5399,285.3108 593.3517,285.2569 598.1635,285.2061 602.9752,285.1583 607.787,285.1134 612.5987,285.0717 617.4105,285.0349 622.2222,285.0054"></polyline>
<polyline id="error-cup" class="cup error" points=" 40,259.3858 44.8118,259.8902 49.6235,260.4046 54.4353,260.9298 59.247,261.76 64.0588,262.5915 68.8705,263.381 73.6823,264.08 78.494,264.6279 83.3058,264.9418 88.1175,264.879 92.9293,264.1151 97.741,263.4664 102.5528,262.9261 107.3646,262.488 112.1763,262.1456 116.9881,261.8931 121.7998,261.7244 126.6116,261.6342 131.4233,261.6171 136.2351,261.6682 141.0468,261.783 145.8586,261.9571 150.6703,262.187 155.4821,262.4693 160.2938,262.8009 165.1056,263.1797 169.9174,263.6035 174.7291,264.0621 179.5409,264.5233 184.3526,264.9281 189.1644,265.1847 193.9761,265.136 198.7879,265.1901 203.5996,265.337 208.4114,265.5686 213.2231,265.878 218.0349,266.2596 222.8466,266.7091 227.6584,267.2229 232.4702,267.7987 237.2819,268.4347 242.0937,269.1305 246.9054,269.859 251.7172,270.5305 256.5289,270.9802 261.3407,270.9041 266.1524,271.014 270.9642,271.2963 275.7759,271.7188 280.5877,272.1947 285.3994,272.5691 290.2112,272.5877 295.023,271.7056 299.8347,270.9665 304.6465,270.3564 309.4582,269.8631 314.27,269.4761 319.0817,269.1863 323.8935,268.9856 328.7052,268.8667 333.517,268.8232 338.3287,268.8496 343.1405,268.9408 347.9522,269.0927 352.764,269.298 357.5758,269.5395 362.3875,269.7865 367.1993,269.9935 372.011,270.0938 376.8228,269.9788 381.6345,269.9422 386.4463,269.9747 391.258,270.0679 396.0698,270.2144 400.8815,270.4075 405.6933,270.6408 410.5051,270.9125 415.3168,271.2351 420.1286,271.6479 424.9403,272.2592 429.7521,272.6549 434.5638,272.6846 439.3756,272.8224 444.1873,273.048 448.9991,273.3179 453.8108,273.5586 458.6226,273.6526 463.4343,273.8554 468.2461,274.1267 473.0579,274.4009 477.8696,274.5767 482.6814,274.482 487.4931,274.4362 492.3049,274.3254 497.1166,273.9356 501.9284,273.6273 506.7401,273.3997 511.5519,273.2527 516.3636,273.1861 521.1754,273.2 525.9871,273.294 530.7989,273.4676 535.6107,273.7201 540.4224,274.0503 545.2342,274.4423 550.0459,274.8421 554.8577,275.145 559.6694,275.167 564.4812,275.2661 569.2929,275.3797 574.1047,275.6183 578.9164,275.9177 583.7282,276.0466 588.5399,275.3671 593.3517,274.6704 598.1635,274.0707 602.9752,273.567 607.787,273.1643 612.5987,272.8591 617.4105,272.6045 622.2222,272.2659 622.2222,297.7449 617.4105,297.4653 612.5987,297.2844 607.787,297.0625 602.9752,296.7496 598.1635,296.3416 593.3517,295.8435 588.5399,295.2545 583.7282,294.6206 578.9164,294.6578 574.1047,294.8025 569.2929,294.8548 564.4812,294.7662 559.6694,294.8833 554.8577,295.041 550.0459,295.2676 545.2342,295.4778 540.4224,295.6311 535.6107,295.7114 530.7989,295.7145 525.9871,295.6407 521.1754,295.4908 516.3636,295.2657 511.5519,294.9664 506.7401,294.5937 501.9284,294.1477 497.1166,293.6281 492.3049,293.0329 487.4931,292.9685 482.6814,293.0933 477.8696,293.2441 473.0579,293.4119 468.2461,293.5284 463.4343,293.5584 458.6226,293.481 453.8108,293.2801 448.9991,293.3314 444.1873,293.4376 439.3756,293.492 434.5638,293.4416 429.7521,293.2704 424.9403,292.9913 420.1286,292.5542 415.3168,292.7669 410.5051,293.2487 405.6933,293.7954 400.8815,294.3013 396.0698,294.7353 391.258,295.0952 386.4463,295.3769 381.6345,295.5745 376.8228,295.6802 372.011,295.6839 367.1993,295.9278 362.3875,296.3009 357.5758,296.7341 352.764,297.1787 347.9522,297.6014 343.1405,297.9839 338.3287,298.3195 333.517,298.6059 328.7052,298.8404 323.8935,299.0195 319.0817,299.1393 314.27,299.1954 309.4582,299.1825 304.6465,299.0948 299.8347,298.9252 295.023,298.6655 290.2112,298.3057 285.3994,298.3308 280.5877,298.4974 275.7759,298.6821 270.9642,298.8086 266.1524,298.8345 261.3407,298.7424 256.5289,298.5222 251.7172,298.7217 246.9054,299.0777 242.0937,299.4524 237.2819,299.7747 232.4702,300.0234 227.6584,300.1966 222.8466,300.2909 218.0349,300.3021 213.2231,300.225 208.4114,300.0532 203.5996,299.7793 198.7879,299.3948 193.9761,298.8899 189.1644,298.2532 184.3526,298.3609 179.5409,298.8117 174.7291,299.3972 169.9174,299.993 165.1056,300.5345 160.2938,301.0042 155.4821,301.4024 150.6703,301.7285 145.8586,301.9809 141.0468,302.1575 136.2351,302.2556 131.4233,302.2721 126.6116,302.2031 121.7998,302.0445 116.9881,301.7919 112.1763,301.4406 107.3646,300.9857 102.5528,300.4224 97.741,299.7457 92.9293,298.9506 88.1175,298.0324 83.3058,297.9301 78.494,298.2614 73.6823,298.8612 68.8705,299.6343 64.0588,300.5113 59.247,301.4367 54.4353,302.3617 49.6235,302.9791 44.8118,303.5821 40,304.1715"></polyline>
<text class = "party cup" x="631.1111" y="295"><tspan class="party_name">CUP</tspan><tspan class="party_result"> (6.0±1.6%)</tspan></text>
<polyline id="media-erc"  class="erc media" points=" 40,130.6949 44.8118,131.0316 49.6235,131.3884 54.4353,131.7667 59.247,132.162 64.0588,132.5576 68.8705,132.9248 73.6823,133.2253 78.494,133.4108 83.3058,133.4109 88.1175,133.0931 92.9293,132.1186 97.741,131.1498 102.5528,130.1934 107.3646,129.2551 112.1763,128.3391 116.9881,127.4485 121.7998,126.5854 126.6116,125.7508 131.4233,124.945 136.2351,124.1675 141.0468,123.4172 145.8586,122.6922 150.6703,121.9902 155.4821,121.3084 160.2938,120.6434 165.1056,119.9914 169.9174,119.3478 174.7291,118.7244 179.5409,118.1738 184.3526,117.7974 189.1644,117.7684 193.9761,118.4449 198.7879,119.0664 203.5996,119.6428 208.4114,120.1832 213.2231,120.6965 218.0349,121.1909 222.8466,121.6741 227.6584,122.1536 232.4702,122.6366 237.2819,123.1302 242.0937,123.6415 246.9054,124.1496 251.7172,124.5666 256.5289,124.7198 261.3407,124.2557 266.1524,123.923 270.9642,123.719 275.7759,123.6284 280.5877,123.5951 285.3994,123.5069 290.2112,123.1602 295.023,122.0723 299.8347,120.9953 304.6465,119.9307 309.4582,118.8786 314.27,117.8386 319.0817,116.8089 323.8935,115.7871 328.7052,114.77 333.517,113.7536 338.3287,112.7327 343.1405,111.7015 347.9522,110.6527 352.764,109.5967 357.5758,108.5925 362.3875,107.761 367.1993,107.2955 372.011,107.4989 376.8228,108.9219 381.6345,110.1501 386.4463,111.2095 391.258,112.1221 396.0698,112.9071 400.8815,113.5805 405.6933,114.156 410.5051,114.6494 415.3168,115.0924 420.1286,115.5523 424.9403,116.1758 429.7521,116.3552 434.5638,115.8039 439.3756,115.3056 444.1873,114.844 448.9991,114.3701 453.8108,113.768 458.6226,112.7737 463.4343,111.7527 468.2461,110.7931 473.0579,110.0743 477.8696,109.8909 482.6814,110.7631 487.4931,111.4911 492.3049,112.2734 497.1166,113.5562 501.9284,114.8779 506.7401,116.2345 511.5519,117.6206 516.3636,119.0296 521.1754,120.454 525.9871,121.8851 530.7989,123.314 535.6107,124.7311 540.4224,126.1273 545.2342,127.4623 550.0459,128.6226 554.8577,129.3952 559.6694,129.391 564.4812,129.2624 569.2929,128.6951 574.1047,128.0972 578.9164,127.4938 583.7282,127.1567 588.5399,127.9403 593.3517,128.4795 598.1635,129.0286 602.9752,129.6269 607.787,130.3066 612.5987,131.0627 617.4105,131.7863 622.2222,132.206"></polyline>
<polyline id="error-erc" class="erc error" points=" 40,88.1688 44.8118,89.2277 49.6235,90.3266 54.4353,91.4684 59.247,93.4492 64.0588,95.4456 68.8705,97.338 73.6823,98.9911 78.494,100.2338 83.3058,100.827 88.1175,100.3489 92.9293,97.8044 97.741,95.4894 102.5528,93.3981 107.3646,91.524 112.1763,89.8598 116.9881,88.398 121.7998,87.1303 126.6116,86.0484 131.4233,85.1436 136.2351,84.4074 141.0468,83.8314 145.8586,83.4074 150.6703,83.1278 155.4821,82.9853 160.2938,82.9733 165.1056,83.086 169.9174,83.3181 174.7291,83.657 179.5409,84.0657 184.3526,84.4747 189.1644,84.7743 193.9761,84.7979 198.7879,84.9843 203.5996,85.3233 208.4114,85.8072 213.2231,86.4308 218.0349,87.1907 222.8466,88.0853 227.6584,89.1149 232.4702,90.2814 237.2819,91.5885 242.0937,93.0422 246.9054,94.5778 251.7172,95.9558 256.5289,96.7138 261.3407,95.9536 266.1524,95.6221 270.9642,95.6941 275.7759,96.1091 280.5877,96.6908 285.3994,97.1083 290.2112,96.7983 295.023,94.5319 299.8347,92.5113 304.6465,90.7123 309.4582,89.1141 314.27,87.6984 319.0817,86.4487 323.8935,85.35 328.7052,84.3878 333.517,83.5486 338.3287,82.8193 343.1405,82.1871 347.9522,81.6391 352.764,81.1736 357.5758,80.817 362.3875,80.6316 367.1993,80.7224 372.011,81.2655 376.8228,82.6076 381.6345,83.9264 386.4463,85.2291 391.258,86.5229 396.0698,87.8147 400.8815,89.1111 405.6933,90.4185 410.5051,91.7208 415.3168,92.9556 420.1286,94.0212 424.9403,94.7801 429.7521,95.0484 434.5638,94.3438 439.3756,93.9168 444.1873,93.7163 448.9991,93.5984 453.8108,93.2683 458.6226,92.1453 463.4343,91.2243 468.2461,90.5409 473.0579,90.1937 477.8696,90.3481 482.6814,91.2951 487.4931,92.116 492.3049,92.7356 497.1166,93.0539 501.9284,93.5703 506.7401,94.2764 511.5519,95.1645 516.3636,96.2269 521.1754,97.4557 525.9871,98.8423 530.7989,100.3775 535.6107,102.052 540.4224,103.8561 545.2342,105.7305 550.0459,107.4939 554.8577,108.7914 559.6694,108.9684 564.4812,109.0506 569.2929,108.4921 574.1047,108.1644 578.9164,107.9843 583.7282,107.8031 588.5399,107.3075 593.3517,106.6031 598.1635,106.0989 602.9752,105.8297 607.787,105.8356 612.5987,106.1021 617.4105,106.4244 622.2222,106.264 622.2222,158.148 617.4105,157.1483 612.5987,156.0233 607.787,154.7777 602.9752,153.4241 598.1635,151.9583 593.3517,150.3558 588.5399,148.573 583.7282,146.5104 578.9164,147.0034 574.1047,148.0299 569.2929,148.898 564.4812,149.4742 559.6694,149.8135 554.8577,149.999 550.0459,149.7513 545.2342,149.1942 540.4224,148.3984 535.6107,147.4102 530.7989,146.2504 525.9871,144.928 521.1754,143.4522 516.3636,141.8323 511.5519,140.0766 506.7401,138.1925 501.9284,136.1855 497.1166,134.0586 492.3049,131.8112 487.4931,130.8661 482.6814,130.2312 477.8696,129.4338 473.0579,129.9549 468.2461,131.0454 463.4343,132.281 458.6226,133.4021 453.8108,134.2677 448.9991,135.1418 444.1873,135.9717 439.3756,136.6943 434.5638,137.264 429.7521,137.6621 424.9403,137.5716 420.1286,137.0834 415.3168,137.2291 410.5051,137.578 405.6933,137.8935 400.8815,138.0498 396.0698,137.9994 391.258,137.7213 386.4463,137.1898 381.6345,136.3738 376.8228,135.2361 372.011,133.7323 367.1993,133.8685 362.3875,134.8905 357.5758,136.368 352.764,138.0198 347.9522,139.6663 343.1405,141.216 338.3287,142.6462 333.517,143.9586 328.7052,145.1523 323.8935,146.2243 319.0817,147.169 314.27,147.9788 309.4582,148.6432 304.6465,149.149 299.8347,149.4793 295.023,149.6128 290.2112,149.5222 285.3994,149.9055 280.5877,150.4995 275.7759,151.1476 270.9642,151.744 266.1524,152.2239 261.3407,152.5578 256.5289,152.7258 251.7172,153.1774 246.9054,153.7213 242.0937,154.2408 237.2819,154.6719 232.4702,154.9919 227.6584,155.1923 222.8466,155.2629 218.0349,155.1911 213.2231,154.9623 208.4114,154.5592 203.5996,153.9622 198.7879,153.1485 193.9761,152.092 189.1644,150.7624 184.3526,151.1201 179.5409,152.2818 174.7291,153.7919 169.9174,155.3774 165.1056,156.8968 160.2938,158.3136 155.4821,159.6316 150.6703,160.8527 145.8586,161.977 141.0468,163.003 136.2351,163.9276 131.4233,164.7464 126.6116,165.4532 121.7998,166.0404 116.9881,166.4991 112.1763,166.8184 107.3646,166.9863 102.5528,166.9888 97.741,166.8101 92.9293,166.4329 88.1175,165.8372 83.3058,165.9947 78.494,166.5877 73.6823,167.4595 68.8705,168.5116 64.0588,169.6696 59.247,170.8747 54.4353,172.0649 49.6235,172.4503 44.8118,172.8355 40,173.221"></polyline>
<text class = "party erc" x="631.1111" y="132"><tspan class="party_name">ERC</tspan><tspan class="party_result"> (24.9±3.2%)</tspan></text>
<polyline id="media-jxcat"  class="jxcat media" points=" 40,225.8503 44.8118,225.6773 49.6235,225.4933 54.4353,225.2978 59.247,225.0931 64.0588,224.8878 68.8705,224.6966 73.6823,224.5388 78.494,224.4386 83.3058,224.4314 88.1175,224.5829 92.9293,225.0616 97.741,225.5335 102.5528,225.9944 107.3646,226.4411 112.1763,226.8708 116.9881,227.2815 121.7998,227.6716 126.6116,228.0397 131.4233,228.3852 136.2351,228.7074 141.0468,229.0062 145.8586,229.2815 150.6703,229.5334 155.4821,229.762 160.2938,229.9678 165.1056,230.1511 169.9174,230.3122 174.7291,230.4511 179.5409,230.5682 184.3526,230.6652 189.1644,230.7474 193.9761,230.8256 198.7879,230.8984 203.5996,230.962 208.4114,231.0128 213.2231,231.0474 218.0349,231.0626 222.8466,231.0551 227.6584,231.0217 232.4702,230.9588 237.2819,230.8628 242.0937,230.7294 246.9054,230.5748 251.7172,230.4685 256.5289,230.555 261.3407,231.1422 266.1524,231.6514 270.9642,232.0816 275.7759,232.4347 280.5877,232.7266 285.3994,232.999 290.2112,233.3382 295.023,233.9568 299.8347,234.6023 304.6465,235.2693 309.4582,235.9539 314.27,236.6533 319.0817,237.3657 323.8935,238.0906 328.7052,238.828 333.517,239.5789 338.3287,240.3454 343.1405,241.1302 347.9522,241.9373 352.764,242.7573 357.5758,243.5443 362.3875,244.2061 367.1993,244.5968 372.011,244.4893 376.8228,243.4735 381.6345,242.6131 386.4463,241.8874 391.258,241.2786 396.0698,240.7709 400.8815,240.3502 405.6933,240.0036 410.5051,239.7276 415.3168,239.5377 420.1286,239.4735 424.9403,239.6226 429.7521,239.8829 434.5638,240.3573 439.3756,240.8804 444.1873,241.4354 448.9991,241.9358 453.8108,242.2025 458.6226,241.8905 463.4343,241.7317 468.2461,241.6819 473.0579,241.6653 477.8696,241.5547 482.6814,241.1132 487.4931,240.6773 492.3049,240.0066 497.1166,238.5261 501.9284,236.9789 506.7401,235.3709 511.5519,233.7093 516.3636,232.0027 521.1754,230.2604 525.9871,228.4931 530.7989,226.7117 535.6107,224.9275 540.4224,223.1516 545.2342,221.4315 550.0459,219.8992 554.8577,218.806 559.6694,218.6185 564.4812,218.6051 569.2929,219.224 574.1047,219.6957 578.9164,220.0228 583.7282,220.1042 588.5399,219.5407 593.3517,218.7869 598.1635,217.8626 602.9752,216.7302 607.787,215.3511 612.5987,213.7584 617.4105,212.2043 622.2222,211.2918"></polyline>
<polyline id="error-jxcat" class="jxcat error" points=" 40,189.4943 44.8118,189.9421 49.6235,190.3946 54.4353,190.8525 59.247,192.0157 64.0588,193.1904 68.8705,194.3136 73.6823,195.3214 78.494,196.1337 83.3058,196.6416 88.1175,196.6653 92.9293,195.8157 97.741,195.1542 102.5528,194.6652 107.3646,194.335 112.1763,194.1505 116.9881,194.1 121.7998,194.1727 126.6116,194.3588 131.4233,194.6497 136.2351,195.0375 141.0468,195.5155 145.8586,196.0778 150.6703,196.7198 155.4821,197.4377 160.2938,198.2287 165.1056,199.0912 169.9174,200.0247 174.7291,201.0077 179.5409,201.9626 184.3526,202.7432 189.1644,203.1107 193.9761,202.6214 198.7879,202.3137 203.5996,202.1666 208.4114,202.1619 213.2231,202.2841 218.0349,202.5196 222.8466,202.8571 227.6584,203.2866 232.4702,203.7998 237.2819,204.3898 242.0937,205.051 246.9054,205.7628 251.7172,206.4687 256.5289,207.0731 261.3407,207.4345 266.1524,207.9673 270.9642,208.651 275.7759,209.4485 280.5877,210.2742 285.3994,210.987 290.2112,211.3734 295.023,211.0271 299.8347,210.9092 304.6465,210.9921 309.4582,211.2538 314.27,211.6762 319.0817,212.2445 323.8935,212.947 328.7052,213.7739 333.517,214.7181 338.3287,215.7741 343.1405,216.9387 347.9522,218.2109 352.764,219.57 357.5758,220.9399 362.3875,222.1744 367.1993,223.0474 372.011,223.2157 376.8228,222.0797 381.6345,221.2494 386.4463,220.6885 391.258,220.3659 396.0698,220.2549 400.8815,220.3326 405.6933,220.5793 410.5051,220.9642 415.3168,221.4241 420.1286,221.858 424.9403,222.1175 429.7521,222.4575 434.5638,222.824 439.3756,223.427 444.1873,224.22 448.9991,225.035 453.8108,225.5407 458.6226,225.1232 463.4343,225.0528 468.2461,225.2393 473.0579,225.5362 477.8696,225.7033 482.6814,225.3035 487.4931,224.926 492.3049,224.0952 497.1166,221.7608 501.9284,219.4851 506.7401,217.272 511.5519,215.1283 516.3636,213.0634 521.1754,211.0882 525.9871,209.2148 530.7989,207.4559 535.6107,205.8242 540.4224,204.332 545.2342,203.0127 550.0459,201.9458 554.8577,201.2683 559.6694,201.2324 564.4812,201.4018 569.2929,202.0497 574.1047,202.772 578.9164,203.4771 583.7282,203.6979 588.5399,202.0131 593.3517,200.1626 598.1635,198.2976 602.9752,196.3755 607.787,194.3642 612.5987,192.2904 617.4105,190.3322 622.2222,188.8805 622.2222,233.7032 617.4105,234.0765 612.5987,235.2263 607.787,236.338 602.9752,237.0848 598.1635,237.4277 593.3517,237.4111 588.5399,237.0682 583.7282,236.5105 578.9164,236.5686 574.1047,236.6194 569.2929,236.3982 564.4812,235.8084 559.6694,236.0046 554.8577,236.3438 550.0459,237.8526 545.2342,239.8502 540.4224,241.9713 535.6107,244.0308 530.7989,245.9674 525.9871,247.7713 521.1754,249.4326 516.3636,250.9419 511.5519,252.2903 506.7401,253.4698 501.9284,254.4726 497.1166,255.2914 492.3049,255.918 487.4931,256.4286 482.6814,256.9228 477.8696,257.406 473.0579,257.7943 468.2461,258.1244 463.4343,258.4106 458.6226,258.6579 453.8108,258.8643 448.9991,258.8366 444.1873,258.6508 439.3756,258.3337 434.5638,257.8907 429.7521,257.3083 424.9403,257.1277 420.1286,257.0891 415.3168,257.6513 410.5051,258.491 405.6933,259.428 400.8815,260.3678 396.0698,261.287 391.258,262.1914 386.4463,263.0863 381.6345,263.9767 376.8228,264.8674 372.011,265.7629 367.1993,266.1462 362.3875,266.2378 357.5758,266.1487 352.764,265.9446 347.9522,265.6636 343.1405,265.3217 338.3287,264.9167 333.517,264.4398 328.7052,263.882 323.8935,263.2342 319.0817,262.4869 314.27,261.6304 309.4582,260.654 304.6465,259.5465 299.8347,258.2954 295.023,256.8865 290.2112,255.303 285.3994,255.0109 280.5877,255.1789 275.7759,255.4209 270.9642,255.5123 266.1524,255.3356 261.3407,254.8499 256.5289,254.0369 251.7172,254.4683 246.9054,255.3868 242.0937,256.4078 237.2819,257.3358 232.4702,258.1179 227.6584,258.7568 222.8466,259.2532 218.0349,259.6056 213.2231,259.8108 208.4114,259.8637 203.5996,259.7574 198.7879,259.4831 193.9761,259.0298 189.1644,258.3842 184.3526,258.5873 179.5409,259.1738 174.7291,259.8946 169.9174,260.5996 165.1056,261.211 160.2938,261.707 155.4821,262.0864 150.6703,262.3469 145.8586,262.4851 141.0468,262.497 136.2351,262.3773 131.4233,262.1206 126.6116,261.7206 121.7998,261.1704 116.9881,260.4631 112.1763,259.5911 107.3646,258.5471 102.5528,257.3235 97.741,255.9128 92.9293,254.3076 88.1175,252.5005 83.3058,252.2211 78.494,252.7436 73.6823,253.7562 68.8705,255.0796 64.0588,256.5853 59.247,258.1706 54.4353,259.7432 49.6235,260.592 44.8118,261.4124 40,262.2063"></polyline>
<text class = "party jxcat" x="631.1111" y="201"><tspan class="party_name">JxCAT</tspan><tspan class="party_result"> (15.1±2.8%)</tspan></text>
<polyline id="media-cec"  class="cec media" points=" 40,241.212 44.8118,240.9824 49.6235,240.7424 54.4353,240.4918 59.247,240.2331 64.0588,239.9764 68.8705,239.7383 73.6823,239.5403 78.494,239.4093 83.3058,239.3836 88.1175,239.5353 92.9293,240.049 97.741,240.5512 102.5528,241.0378 107.3646,241.5058 112.1763,241.9527 116.9881,242.377 121.7998,242.7776 126.6116,243.154 131.4233,243.5062 136.2351,243.8347 141.0468,244.1401 145.8586,244.4235 150.6703,244.6864 155.4821,244.9302 160.2938,245.1568 165.1056,245.3684 169.9174,245.5671 174.7291,245.7505 179.5409,245.9037 184.3526,245.9964 189.1644,245.9745 193.9761,245.7225 198.7879,245.4732 203.5996,245.2228 208.4114,244.9675 213.2231,244.7041 218.0349,244.4294 222.8466,244.1406 227.6584,243.8347 232.4702,243.5088 237.2819,243.1601 242.0937,242.7853 246.9054,242.4036 251.7172,242.0881 256.5289,241.9798 261.3407,242.3664 266.1524,242.6505 270.9642,242.8371 275.7759,242.9376 280.5877,242.984 285.3994,243.0361 290.2112,243.1972 295.023,243.7021 299.8347,244.1772 304.6465,244.6186 309.4582,245.0231 314.27,245.3886 319.0817,245.7133 323.8935,245.9958 328.7052,246.2351 333.517,246.4301 338.3287,246.5796 343.1405,246.6826 347.9522,246.7374 352.764,246.748 357.5758,246.7347 362.3875,246.7405 367.1993,246.8368 372.011,247.1382 376.8228,247.8536 381.6345,248.4978 386.4463,249.0747 391.258,249.5881 396.0698,250.0422 400.8815,250.4409 405.6933,250.7888 410.5051,251.0789 415.3168,251.2772 420.1286,251.3124 424.9403,251.0356 429.7521,250.9892 434.5638,251.3171 439.3756,251.5858 444.1873,251.8009 448.9991,252.0143 453.8108,252.354 458.6226,253.0977 463.4343,253.7745 468.2461,254.3885 473.0579,254.9595 477.8696,255.5273 482.6814,256.167 487.4931,256.7309 492.3049,257.1909 497.1166,257.5189 501.9284,257.9341 506.7401,258.4258 511.5519,258.9844 516.3636,259.6014 521.1754,260.2684 525.9871,260.9768 530.7989,261.7181 535.6107,262.4838 540.4224,263.2652 545.2342,264.0412 550.0459,264.7634 554.8577,265.3617 559.6694,265.7483 564.4812,266.2771 569.2929,267.0407 574.1047,267.9685 578.9164,268.9587 583.7282,269.6302 588.5399,268.9718 593.3517,268.6042 598.1635,268.4246 602.9752,268.4194 607.787,268.5849 612.5987,268.8974 617.4105,269.2519 622.2222,269.4036"></polyline>
<polyline id="error-cec" class="cec error" points=" 40,214.0702 44.8118,214.4383 49.6235,214.811 54.4353,215.189 59.247,215.9528 64.0588,216.7235 68.8705,217.4629 73.6823,218.1313 78.494,218.6782 83.3058,219.0358 88.1175,219.0943 92.9293,218.6255 97.741,218.2897 102.5528,218.0747 107.3646,217.9696 112.1763,217.9646 116.9881,218.0509 121.7998,218.2208 126.6116,218.4673 131.4233,218.7846 136.2351,219.1676 141.0468,219.6122 145.8586,220.1152 150.6703,220.6742 155.4821,221.2879 160.2938,221.9556 165.1056,222.678 169.9174,223.4567 174.7291,224.2727 179.5409,225.0524 184.3526,225.6542 189.1644,225.8408 193.9761,225.1538 198.7879,224.6083 203.5996,224.1878 208.4114,223.8782 213.2231,223.6672 218.0349,223.5442 222.8466,223.5 227.6584,223.5269 232.4702,223.6184 237.2819,223.769 242.0937,223.9746 246.9054,224.2274 251.7172,224.507 256.5289,224.7778 261.3407,224.9957 266.1524,225.2948 270.9642,225.6659 275.7759,226.0918 280.5877,226.5297 285.3994,226.9043 290.2112,227.0979 295.023,226.8876 299.8347,226.7952 304.6465,226.8002 309.4582,226.8864 314.27,227.0402 319.0817,227.2501 323.8935,227.5066 328.7052,227.8013 333.517,228.1268 338.3287,228.4768 343.1405,228.8455 347.9522,229.2275 352.764,229.619 357.5758,230.0199 362.3875,230.4371 367.1993,230.8879 372.011,231.4098 376.8228,232.0885 381.6345,232.8016 386.4463,233.5411 391.258,234.3014 396.0698,235.0786 400.8815,235.8705 405.6933,236.6766 410.5051,237.47 415.3168,238.157 420.1286,238.5606 424.9403,238.353 429.7521,238.3581 434.5638,238.6068 439.3756,238.9316 444.1873,239.3166 448.9991,239.7573 453.8108,240.2775 458.6226,240.9732 463.4343,241.7392 468.2461,242.5461 473.0579,243.3638 477.8696,244.1533 482.6814,244.8514 487.4931,245.4832 492.3049,245.8543 497.1166,245.6044 501.9284,245.5386 506.7401,245.644 511.5519,245.9101 516.3636,246.3279 521.1754,246.8886 525.9871,247.5836 530.7989,248.404 535.6107,249.3406 540.4224,250.3839 545.2342,251.5002 550.0459,252.5993 554.8577,253.5254 559.6694,254.0334 564.4812,254.7068 569.2929,255.5063 574.1047,256.6306 578.9164,257.9087 583.7282,258.6971 588.5399,257.2568 593.3517,256.1349 598.1635,255.317 602.9752,254.7881 607.787,254.5504 612.5987,254.575 617.4105,254.6964 622.2222,254.5015 622.2222,284.3056 617.4105,283.8075 612.5987,283.2198 607.787,282.6193 602.9752,282.0506 598.1635,281.5322 593.3517,281.0735 588.5399,280.6868 583.7282,280.5634 578.9164,280.0088 574.1047,279.3064 569.2929,278.5751 564.4812,277.8475 559.6694,277.4632 554.8577,277.1979 550.0459,276.9275 545.2342,276.5822 540.4224,276.1466 535.6107,275.627 530.7989,275.0322 525.9871,274.3699 521.1754,273.6481 516.3636,272.875 511.5519,272.0587 506.7401,271.2075 501.9284,270.3297 497.1166,269.4335 492.3049,268.5274 487.4931,267.9786 482.6814,267.4826 477.8696,266.9012 473.0579,266.5552 468.2461,266.231 463.4343,265.8098 458.6226,265.2221 453.8108,264.4305 448.9991,264.2714 444.1873,264.2853 439.3756,264.24 434.5638,264.0273 429.7521,263.6203 424.9403,263.7182 420.1286,264.0643 415.3168,264.3974 410.5051,264.6878 405.6933,264.9009 400.8815,265.0113 396.0698,265.0057 391.258,264.8748 386.4463,264.6082 381.6345,264.1941 376.8228,263.6187 372.011,262.8666 367.1993,262.7857 362.3875,263.044 357.5758,263.4494 352.764,263.8769 347.9522,264.2472 343.1405,264.5197 338.3287,264.6825 333.517,264.7333 328.7052,264.6689 323.8935,264.485 319.0817,264.1764 314.27,263.737 309.4582,263.1598 304.6465,262.4369 299.8347,261.5593 295.023,260.5166 290.2112,259.2965 285.3994,259.1678 280.5877,259.4384 275.7759,259.7834 270.9642,260.0083 266.1524,260.0061 261.3407,259.7371 256.5289,259.1819 251.7172,259.6691 246.9054,260.5799 242.0937,261.5959 237.2819,262.5511 232.4702,263.3993 227.6584,264.1425 222.8466,264.7812 218.0349,265.3147 213.2231,265.7409 208.4114,266.0567 203.5996,266.2577 198.7879,266.3382 193.9761,266.2912 189.1644,266.1082 184.3526,266.3386 179.5409,266.7551 174.7291,267.2283 169.9174,267.6774 165.1056,268.0587 160.2938,268.3581 155.4821,268.5726 150.6703,268.6985 145.8586,268.7319 141.0468,268.668 136.2351,268.5018 131.4233,268.2279 126.6116,267.8407 121.7998,267.3344 116.9881,266.7031 112.1763,265.9408 107.3646,265.0419 102.5528,264.0009 97.741,262.8126 92.9293,261.4725 88.1175,259.9764 83.3058,259.7314 78.494,260.1404 73.6823,260.9493 68.8705,262.0136 64.0588,263.2293 59.247,264.5134 54.4353,265.7945 49.6235,266.6739 44.8118,267.5265 40,268.3539"></polyline>
<text class = "party cec" x="631.1111" y="253"><tspan class="party_name">CeC</tspan><tspan class="party_result"> (7.9±1.8%)</tspan></text>
<polyline id="media-psc"  class="psc media" points=" 40,224.2546 44.8118,224.1735 49.6235,224.0844 54.4353,223.9867 59.247,223.8814 64.0588,223.7742 68.8705,223.6755 73.6823,223.5998 78.494,223.5661 83.3058,223.603 88.1175,223.765 92.9293,224.1915 97.741,224.6303 102.5528,225.0799 107.3646,225.539 112.1763,226.0068 116.9881,226.483 121.7998,226.9677 126.6116,227.4614 131.4233,227.9653 136.2351,228.4807 141.0468,229.0096 145.8586,229.5546 150.6703,230.1184 155.4821,230.7048 160.2938,231.3178 165.1056,231.9624 169.9174,232.6444 174.7291,233.3438 179.5409,233.9745 184.3526,234.3663 189.1644,234.2254 193.9761,232.9436 198.7879,231.7596 203.5996,230.6648 208.4114,229.6504 213.2231,228.7078 218.0349,227.8285 222.8466,227.0044 227.6584,226.2275 232.4702,225.4899 237.2819,224.7836 242.0937,224.1008 246.9054,223.4617 251.7172,222.9526 256.5289,222.7423 261.3407,223.1797 266.1524,223.5228 270.9642,223.784 275.7759,223.9756 280.5877,224.1181 285.3994,224.2461 290.2112,224.4197 295.023,224.7759 299.8347,225.1398 304.6465,225.5113 309.4582,225.891 314.27,226.2805 319.0817,226.6819 323.8935,227.0981 328.7052,227.532 333.517,227.9877 338.3287,228.4694 343.1405,228.9824 347.9522,229.5329 352.764,230.1129 357.5758,230.675 362.3875,231.1199 367.1993,231.2857 372.011,230.915 376.8228,229.5382 381.6345,228.3161 386.4463,227.2315 391.258,226.2693 396.0698,225.4163 400.8815,224.6608 405.6933,223.9921 410.5051,223.4114 415.3168,222.9414 420.1286,222.6265 424.9403,222.5519 429.7521,222.3383 434.5638,221.8935 439.3756,221.4356 444.1873,220.9878 448.9991,220.6241 453.8108,220.4889 458.6226,220.865 463.4343,221.1917 468.2461,221.4469 473.0579,221.56 477.8696,221.4039 482.6814,220.7483 487.4931,220.196 492.3049,219.7394 497.1166,219.35 501.9284,218.8965 506.7401,218.3858 511.5519,217.8244 516.3636,217.2179 521.1754,216.5724 525.9871,215.894 530.7989,215.1891 535.6107,214.4642 540.4224,213.7263 545.2342,212.9851 550.0459,212.2495 554.8577,211.5463 559.6694,210.9599 564.4812,210.737 569.2929,211.4002 574.1047,211.9175 578.9164,212.3005 583.7282,212.5572 588.5399,212.7028 593.3517,212.809 598.1635,212.9007 602.9752,212.9701 607.787,213.0104 612.5987,213.0208 617.4105,213.0186 622.2222,213.0533"></polyline>
<polyline id="error-psc" class="psc error" points=" 40,191.747 44.8118,192.293 49.6235,192.8467 54.4353,193.4085 59.247,194.5282 64.0588,195.6544 68.8705,196.7298 73.6823,197.6949 78.494,198.4757 83.3058,198.9729 88.1175,199.0222 92.9293,198.266 97.741,197.6962 102.5528,197.3013 107.3646,197.0707 112.1763,196.9948 116.9881,197.0647 121.7998,197.2726 126.6116,197.6116 131.4233,198.0755 136.2351,198.6595 141.0468,199.3598 145.8586,200.1737 150.6703,201.0998 155.4821,202.1381 160.2938,203.2901 165.1056,204.5588 169.9174,205.9493 174.7291,207.4212 179.5409,208.8156 184.3526,209.8247 189.1644,209.9276 193.9761,208.0889 198.7879,206.5169 203.5996,205.1881 208.4114,204.0815 213.2231,203.1776 218.0349,202.4594 222.8466,201.9111 227.6584,201.519 232.4702,201.2707 237.2819,201.1554 242.0937,201.1637 246.9054,201.2834 251.7172,201.4883 256.5289,201.7326 261.3407,201.9636 266.1524,202.3233 270.9642,202.8069 275.7759,203.3926 280.5877,204.0096 285.3994,204.5285 290.2112,204.7398 295.023,204.2224 299.8347,203.8924 304.6465,203.73 309.4582,203.72 314.27,203.8504 319.0817,204.1121 323.8935,204.4978 328.7052,205.0023 333.517,205.6219 338.3287,206.3549 343.1405,207.2011 347.9522,208.1622 352.764,209.2203 357.5758,210.3007 362.3875,211.255 367.1993,211.8486 372.011,211.7182 376.8228,210.221 381.6345,209.0145 386.4463,208.0675 391.258,207.3531 396.0698,206.8486 400.8815,206.5343 405.6933,206.3936 410.5051,206.4031 415.3168,206.5145 420.1286,206.6445 424.9403,206.6642 429.7521,206.5106 434.5638,205.9438 439.3756,205.5329 444.1873,205.2757 448.9991,205.1766 453.8108,205.2493 458.6226,205.5464 463.4343,205.9659 468.2461,206.444 473.0579,206.846 477.8696,206.9418 482.6814,206.3198 487.4931,205.8186 492.3049,205.2218 497.1166,204.0825 501.9284,202.9951 506.7401,201.9641 511.5519,200.9948 516.3636,200.0933 521.1754,199.266 525.9871,198.5201 530.7989,197.8626 535.6107,197.3011 540.4224,196.8429 545.2342,196.484 550.0459,196.1829 554.8577,195.86 559.6694,195.4 564.4812,195.336 569.2929,196.027 574.1047,196.7706 578.9164,197.494 583.7282,197.8796 588.5399,197.0365 593.3517,196.1809 598.1635,195.4556 602.9752,194.8491 607.787,194.3606 612.5987,193.9825 617.4105,193.6597 622.2222,193.2396 622.2222,232.867 617.4105,232.3774 612.5987,232.0591 607.787,231.6602 602.9752,231.0911 598.1635,230.3458 593.3517,229.437 588.5399,228.369 583.7282,227.2348 578.9164,227.1071 574.1047,227.0644 569.2929,226.7733 564.4812,226.1379 559.6694,226.5199 554.8577,227.2327 550.0459,228.316 545.2342,229.4862 540.4224,230.6098 535.6107,231.6273 530.7989,232.5155 525.9871,233.2679 521.1754,233.8788 516.3636,234.3425 511.5519,234.6539 506.7401,234.8076 501.9284,234.7978 497.1166,234.6175 492.3049,234.257 487.4931,234.5735 482.6814,235.1768 477.8696,235.8659 473.0579,236.274 468.2461,236.4497 463.4343,236.4175 458.6226,236.1836 453.8108,235.7286 448.9991,236.0716 444.1873,236.7 439.3756,237.3383 434.5638,237.8432 429.7521,238.166 424.9403,238.4395 420.1286,238.6084 415.3168,239.3683 410.5051,240.4197 405.6933,241.5907 400.8815,242.7873 396.0698,243.9841 391.258,245.1855 386.4463,246.3955 381.6345,247.6176 376.8228,248.8554 372.011,250.1118 367.1993,250.7227 362.3875,250.9847 357.5758,251.0494 352.764,251.0055 347.9522,250.9035 343.1405,250.7638 338.3287,250.5839 333.517,250.3534 328.7052,250.0618 323.8935,249.6983 319.0817,249.2518 314.27,248.7105 309.4582,248.0619 304.6465,247.2925 299.8347,246.3873 295.023,245.3294 290.2112,244.0996 285.3994,243.9636 280.5877,244.2266 275.7759,244.5587 270.9642,244.761 266.1524,244.7223 261.3407,244.3958 256.5289,243.7521 251.7172,244.4169 246.9054,245.6399 242.0937,247.0378 237.2819,248.4119 232.4702,249.7091 227.6584,250.9361 222.8466,252.0978 218.0349,253.1977 213.2231,254.2379 208.4114,255.2194 203.5996,256.1415 198.7879,257.0024 193.9761,257.7983 189.1644,258.5231 184.3526,258.9078 179.5409,259.1333 174.7291,259.2665 169.9174,259.3395 165.1056,259.3661 160.2938,259.3456 155.4821,259.2715 150.6703,259.1371 145.8586,258.9354 141.0468,258.6595 136.2351,258.3018 131.4233,257.855 126.6116,257.3113 121.7998,256.6627 116.9881,255.9013 112.1763,255.0189 107.3646,254.0074 102.5528,252.8586 97.741,251.5644 92.9293,250.1169 88.1175,248.5079 83.3058,248.2331 78.494,248.6564 73.6823,249.5047 68.8705,250.6212 64.0588,251.894 59.247,253.2346 54.4353,254.5648 49.6235,255.3222 44.8118,256.054 40,256.7623"></polyline>
<text class = "party psc" x="631.1111" y="223"><tspan class="party_name">PSC</tspan><tspan class="party_result"> (14.9±2.5%)</tspan></text>
<polyline id="media-cs"  class="cs media" points=" 40,188.4117 44.8118,188.57 49.6235,188.7343 54.4353,188.9046 59.247,189.0789 64.0588,189.2512 68.8705,189.4114 73.6823,189.5467 78.494,189.6418 83.3058,189.6749 88.1175,189.6058 92.9293,189.3309 97.741,189.0697 102.5528,188.8248 107.3646,188.5983 112.1763,188.3919 116.9881,188.2068 121.7998,188.0439 126.6116,187.9037 131.4233,187.7865 136.2351,187.6925 141.0468,187.6215 145.8586,187.5734 150.6703,187.548 155.4821,187.5449 160.2938,187.5639 165.1056,187.6046 169.9174,187.6667 174.7291,187.7462 179.5409,187.8297 184.3526,187.8921 189.1644,187.8926 193.9761,187.7506 198.7879,187.6403 203.5996,187.5624 208.4114,187.5174 213.2231,187.5057 218.0349,187.5274 222.8466,187.5828 227.6584,187.6721 232.4702,187.7955 237.2819,187.9535 242.0937,188.1463 246.9054,188.3617 251.7172,188.5568 256.5289,188.6514 261.3407,188.4899 266.1524,188.4154 270.9642,188.4287 275.7759,188.5182 280.5877,188.6388 285.3994,188.703 290.2112,188.5579 295.023,187.8482 299.8347,187.1803 304.6465,186.5558 309.4582,185.9758 314.27,185.4408 319.0817,184.9512 323.8935,184.5069 328.7052,184.1078 333.517,183.7536 338.3287,183.4438 343.1405,183.1782 347.9522,182.9562 352.764,182.7763 357.5758,182.6318 362.3875,182.5089 367.1993,182.3839 372.011,182.2191 376.8228,181.9471 381.6345,181.7153 386.4463,181.5269 391.258,181.3852 396.0698,181.2932 400.8815,181.2544 405.6933,181.2728 410.5051,181.3264 415.3168,181.3231 420.1286,181.07 424.9403,180.1809 429.7521,179.4445 434.5638,178.8156 439.3756,178.2202 444.1873,177.6737 448.9991,177.1988 453.8108,176.8207 458.6226,176.5684 463.4343,176.3178 468.2461,176.0554 473.0579,175.7262 477.8696,175.2278 482.6814,174.3733 487.4931,173.6456 492.3049,173.0839 497.1166,172.7462 501.9284,172.3164 506.7401,171.8039 511.5519,171.2169 516.3636,170.5632 521.1754,169.8498 525.9871,169.0843 530.7989,168.2737 535.6107,167.4255 540.4224,166.5469 545.2342,165.665 550.0459,164.8539 554.8577,164.2107 559.6694,163.8151 564.4812,162.8761 569.2929,160.8475 574.1047,158.5042 578.9164,156.0806 583.7282,154.5745 588.5399,156.774 593.3517,158.4231 598.1635,159.8025 602.9752,160.9821 607.787,162.009 612.5987,162.9053 617.4105,163.6606 622.2222,164.2354"></polyline>
<polyline id="error-cs" class="cs error" points=" 40,154.0352 44.8118,154.8684 49.6235,155.725 54.4353,156.6065 59.247,158.0717 64.0588,159.5437 68.8705,160.9411 73.6823,162.1727 78.494,163.1245 83.3058,163.6391 88.1175,163.4434 92.9293,161.9044 97.741,160.5602 102.5528,159.4035 107.3646,158.4267 112.1763,157.6226 116.9881,156.9836 121.7998,156.5024 126.6116,156.1718 131.4233,155.9851 136.2351,155.9355 141.0468,156.0172 145.8586,156.2248 150.6703,156.5534 155.4821,156.9992 160.2938,157.5591 165.1056,158.2309 169.9174,159.0135 174.7291,159.8825 179.5409,160.751 184.3526,161.454 189.1644,161.7196 193.9761,161.037 198.7879,160.563 203.5996,160.2823 208.4114,160.1818 213.2231,160.2507 218.0349,160.4797 222.8466,160.8614 227.6584,161.3899 232.4702,162.0611 237.2819,162.8723 242.0937,163.8227 246.9054,164.8644 251.7172,165.8323 256.5289,166.4138 261.3407,166.0163 266.1524,165.9453 270.9642,166.1837 275.7759,166.6832 280.5877,167.3012 285.3994,167.7741 290.2112,167.6593 295.023,165.9997 299.8347,164.5706 304.6465,163.3534 309.4582,162.3327 314.27,161.4952 319.0817,160.8295 323.8935,160.3252 328.7052,159.9734 333.517,159.7662 338.3287,159.6964 343.1405,159.7582 347.9522,159.9467 352.764,160.2498 357.5758,160.6338 362.3875,161.0358 367.1993,161.3592 372.011,161.4602 376.8228,161.1007 381.6345,160.9219 386.4463,160.9122 391.258,161.0627 396.0698,161.3667 400.8815,161.8197 405.6933,162.4196 410.5051,163.1183 415.3168,163.7455 420.1286,163.9684 424.9403,163.164 429.7521,162.4828 434.5638,161.7241 439.3756,161.1797 444.1873,160.8373 448.9991,160.6445 453.8108,160.484 458.6226,160.1332 463.4343,159.9682 468.2461,159.9319 473.0579,159.902 477.8696,159.6677 482.6814,158.8506 487.4931,158.1786 492.3049,157.469 497.1166,156.3354 501.9284,155.2341 506.7401,154.1716 511.5519,153.155 516.3636,152.1915 521.1754,151.2892 525.9871,150.4559 530.7989,149.6998 535.6107,149.029 540.4224,148.451 545.2342,147.979 550.0459,147.6345 554.8577,147.402 559.6694,147.1485 564.4812,146.3681 569.2929,144.3192 574.1047,142.1668 578.9164,140.0603 583.7282,138.6633 588.5399,139.833 593.3517,140.4775 598.1635,141.0062 602.9752,141.485 607.787,141.9674 612.5987,142.468 617.4105,142.898 622.2222,143.0008 622.2222,185.47 617.4105,184.4232 612.5987,183.3426 607.787,182.0506 602.9752,180.4792 598.1635,178.5988 593.3517,176.3687 588.5399,173.7151 583.7282,170.4857 578.9164,172.1009 574.1047,174.8416 569.2929,177.3757 564.4812,179.384 559.6694,180.4817 554.8577,181.0193 550.0459,182.0733 545.2342,183.3509 540.4224,184.6427 535.6107,185.8221 530.7989,186.8476 525.9871,187.7126 521.1754,188.4105 516.3636,188.9348 511.5519,189.2789 506.7401,189.4361 501.9284,189.3986 497.1166,189.157 492.3049,188.6988 487.4931,189.1126 482.6814,189.896 477.8696,190.7879 473.0579,191.5504 468.2461,192.1788 463.4343,192.6674 458.6226,193.0036 453.8108,193.1574 448.9991,193.7531 444.1873,194.51 439.3756,195.2607 434.5638,195.907 429.7521,196.4062 424.9403,197.1978 420.1286,198.1717 415.3168,198.9007 410.5051,199.5345 405.6933,200.1259 400.8815,200.6891 396.0698,201.2198 391.258,201.7078 386.4463,202.1417 381.6345,202.5086 376.8228,202.7934 372.011,202.978 367.1993,203.4087 362.3875,203.982 357.5758,204.6299 352.764,205.3028 347.9522,205.9658 343.1405,206.5981 338.3287,207.1912 333.517,207.741 328.7052,208.2422 323.8935,208.6886 319.0817,209.0728 314.27,209.3863 309.4582,209.6188 304.6465,209.7582 299.8347,209.79 295.023,209.6967 290.2112,209.4564 285.3994,209.6318 280.5877,209.9764 275.7759,210.3532 270.9642,210.6737 266.1524,210.8854 261.3407,210.9635 256.5289,210.8891 251.7172,211.2813 246.9054,211.8591 242.0937,212.47 237.2819,213.0346 232.4702,213.5299 227.6584,213.9543 222.8466,214.3043 218.0349,214.5752 213.2231,214.7607 208.4114,214.8531 203.5996,214.8425 198.7879,214.7175 193.9761,214.4641 189.1644,214.0656 184.3526,214.3303 179.5409,214.9083 174.7291,215.6099 169.9174,216.3199 165.1056,216.9783 160.2938,217.5687 155.4821,218.0906 150.6703,218.5426 145.8586,218.9221 141.0468,219.2258 136.2351,219.4495 131.4233,219.588 126.6116,219.6356 121.7998,219.5854 116.9881,219.43 112.1763,219.1612 107.3646,218.7698 102.5528,218.246 97.741,217.5791 92.9293,216.7574 88.1175,215.7682 83.3058,215.7108 78.494,216.1591 73.6823,216.9208 68.8705,217.8817 64.0588,218.9588 59.247,220.0861 54.4353,221.2026 49.6235,221.7436 44.8118,222.2717 40,222.7882"></polyline>
<text class = "party cs" x="631.1111" y="164"><tspan class="party_name">C's</tspan><tspan class="party_result"> (20.9±2.6%)</tspan></text>
<polyline id="media-pp"  class="pp media" points=" 40,256.5518 44.8118,256.5239 49.6235,256.4977 54.4353,256.4733 59.247,256.4508 64.0588,256.4304 68.8705,256.4114 73.6823,256.3926 78.494,256.3721 83.3058,256.3462 88.1175,256.3081 92.9293,256.2401 97.741,256.1634 102.5528,256.0779 107.3646,255.9837 112.1763,255.8806 116.9881,255.7688 121.7998,255.6481 126.6116,255.5186 131.4233,255.38 136.2351,255.2322 141.0468,255.075 145.8586,254.9079 150.6703,254.7306 155.4821,254.5424 160.2938,254.3426 165.1056,254.1304 169.9174,253.9048 174.7291,253.672 179.5409,253.4569 184.3526,253.3067 189.1644,253.301 193.9761,253.6014 198.7879,253.8635 203.5996,254.0899 208.4114,254.283 213.2231,254.4452 218.0349,254.579 222.8466,254.687 227.6584,254.7716 232.4702,254.8353 237.2819,254.881 242.0937,254.9116 246.9054,254.9235 251.7172,254.8939 256.5289,254.7687 261.3407,254.4193 266.1524,254.0433 270.9642,253.635 275.7759,253.2041 280.5877,252.7984 285.3994,252.5084 290.2112,252.4879 295.023,253.0974 299.8347,253.6515 304.6465,254.1539 309.4582,254.6078 314.27,255.0161 319.0817,255.3809 323.8935,255.7042 328.7052,255.9877 333.517,256.2327 338.3287,256.4402 343.1405,256.611 347.9522,256.7455 352.764,256.8466 357.5758,256.9256 362.3875,257.0055 367.1993,257.1253 372.011,257.348 376.8228,257.7885 381.6345,258.1956 386.4463,258.5707 391.258,258.916 396.0698,259.2339 400.8815,259.5275 405.6933,259.8002 410.5051,260.0401 415.3168,260.1954 420.1286,260.1583 424.9403,259.708 429.7521,259.5566 434.5638,259.8649 439.3756,260.1491 444.1873,260.405 448.9991,260.6154 453.8108,260.7478 458.6226,260.7415 463.4343,260.7354 468.2461,260.7217 473.0579,260.6944 477.8696,260.6549 482.6814,260.6219 487.4931,260.6429 492.3049,260.8206 497.1166,261.4043 501.9284,262.0289 506.7401,262.692 511.5519,263.3913 516.3636,264.1238 521.1754,264.886 525.9871,265.6737 530.7989,266.4825 535.6107,267.3073 540.4224,268.1428 545.2342,268.9816 550.0459,269.821 554.8577,270.6591 559.6694,271.4905 564.4812,272.1729 569.2929,272.4434 574.1047,273.0323 578.9164,273.8346 583.7282,274.3776 588.5399,273.3513 593.3517,272.8586 598.1635,272.5695 602.9752,272.4595 607.787,272.5174 612.5987,272.7177 617.4105,272.9689 622.2222,273.0631"></polyline>
<polyline id="error-pp" class="pp error" points=" 40,228.8499 44.8118,229.4092 49.6235,229.984 54.4353,230.5755 59.247,231.6159 64.0588,232.6632 68.8705,233.6588 73.6823,234.5378 78.494,235.2178 83.3058,235.585 88.1175,235.4429 92.9293,234.3402 97.741,233.3752 102.5528,232.5403 107.3646,231.828 112.1763,231.2312 116.9881,230.7432 121.7998,230.3573 126.6116,230.0672 131.4233,229.8668 136.2351,229.7506 141.0468,229.7134 145.8586,229.7504 150.6703,229.8576 155.4821,230.0311 160.2938,230.2679 165.1056,230.5655 169.9174,230.9222 174.7291,231.3277 179.5409,231.7477 184.3526,232.1167 189.1644,232.3291 193.9761,232.2018 198.7879,232.1795 203.5996,232.2515 208.4114,232.4092 213.2231,232.6459 218.0349,232.9562 222.8466,233.3362 227.6584,233.7835 232.4702,234.2969 237.2819,234.8766 242.0937,235.5247 246.9054,236.2083 251.7172,236.8045 256.5289,237.0696 261.3407,236.5166 266.1524,236.1297 270.9642,235.8884 275.7759,235.7735 280.5877,235.756 285.3994,235.7877 290.2112,235.7941 295.023,235.6657 299.8347,235.6342 304.6465,235.6868 309.4582,235.8129 314.27,236.0037 319.0817,236.2516 323.8935,236.5501 328.7052,236.8933 333.517,237.2763 338.3287,237.6946 343.1405,238.1441 347.9522,238.6216 352.764,239.1216 357.5758,239.6337 362.3875,240.143 367.1993,240.6314 372.011,241.08 376.8228,241.4727 381.6345,241.9427 386.4463,242.4795 391.258,243.0751 396.0698,243.7238 400.8815,244.422 405.6933,245.1682 410.5051,245.9292 415.3168,246.5906 420.1286,246.9336 424.9403,246.549 429.7521,246.4476 434.5638,246.6732 439.3756,247.0165 444.1873,247.4505 448.9991,247.8971 453.8108,248.2106 458.6226,248.1303 463.4343,248.195 468.2461,248.3621 473.0579,248.5735 477.8696,248.7467 482.6814,248.7535 487.4931,248.8285 492.3049,248.9038 497.1166,248.8887 501.9284,249.0153 506.7401,249.2791 511.5519,249.6764 516.3636,250.204 521.1754,250.8582 525.9871,251.6346 530.7989,252.5285 535.6107,253.5344 540.4224,254.646 545.2342,255.8435 550.0459,257.0818 554.8577,258.2718 559.6694,259.2463 564.4812,260.0854 569.2929,260.3758 574.1047,261.1582 578.9164,262.2552 583.7282,262.9161 588.5399,261.0568 593.3517,259.7683 598.1635,258.8051 602.9752,258.1413 607.787,257.7714 612.5987,257.6644 617.4105,257.666 622.2222,257.3937 622.2222,288.7326 617.4105,288.2718 612.5987,287.771 607.787,287.2633 602.9752,286.7777 598.1635,286.3338 593.3517,285.949 588.5399,285.6457 583.7282,285.8392 578.9164,285.414 574.1047,284.9064 569.2929,284.5109 564.4812,284.2604 559.6694,283.7348 554.8577,283.0464 550.0459,282.5601 545.2342,282.1197 540.4224,281.6395 535.6107,281.0801 530.7989,280.4364 525.9871,279.7128 521.1754,278.9138 516.3636,278.0436 511.5519,277.1062 506.7401,276.105 501.9284,275.0425 497.1166,273.92 492.3049,272.7375 487.4931,272.4573 482.6814,272.4903 477.8696,272.5632 473.0579,272.8153 468.2461,273.0812 463.4343,273.2759 458.6226,273.3528 453.8108,273.285 448.9991,273.3336 444.1873,273.3596 439.3756,273.2817 434.5638,273.0565 429.7521,272.6656 424.9403,272.867 420.1286,273.383 415.3168,273.8002 410.5051,274.1511 405.6933,274.4322 400.8815,274.633 396.0698,274.7441 391.258,274.7569 386.4463,274.6619 381.6345,274.4484 376.8228,274.1044 372.011,273.616 367.1993,273.6193 362.3875,273.868 357.5758,274.2174 352.764,274.5717 347.9522,274.8694 343.1405,275.0779 338.3287,275.1859 333.517,275.1891 328.7052,275.0821 323.8935,274.8584 319.0817,274.5102 314.27,274.0285 309.4582,273.4028 304.6465,272.621 299.8347,271.6688 295.023,270.5292 290.2112,269.1817 285.3994,269.2291 280.5877,269.8407 275.7759,270.6347 270.9642,271.3816 266.1524,271.957 261.3407,272.3219 256.5289,272.4678 251.7172,272.9833 246.9054,273.6388 242.0937,274.2985 237.2819,274.8853 232.4702,275.3737 227.6584,275.7596 222.8466,276.0378 218.0349,276.2019 213.2231,276.2445 208.4114,276.1567 203.5996,275.9283 198.7879,275.5476 193.9761,275.0009 189.1644,274.2728 184.3526,274.4966 179.5409,275.1661 174.7291,276.0163 169.9174,276.8873 165.1056,277.6953 160.2938,278.4173 155.4821,279.0537 150.6703,279.6036 145.8586,280.0654 141.0468,280.4366 136.2351,280.7139 131.4233,280.8932 126.6116,280.9699 121.7998,280.9389 116.9881,280.7943 112.1763,280.53 107.3646,280.1393 102.5528,279.6156 97.741,278.9516 92.9293,278.14 88.1175,277.1733 83.3058,277.1075 78.494,277.5264 73.6823,278.2475 68.8705,279.164 64.0588,280.1976 59.247,281.2858 54.4353,282.371 49.6235,283.0114 44.8118,283.6387 40,284.2537"></polyline>
<text class = "party pp" x="631.1111" y="274"><tspan class="party_name">PP</tspan><tspan class="party_result"> (7.5±1.9%)</tspan></text>
<polyline id="media-otros"  class="otros media" points=" 40,309.8319 44.8118,309.891 49.6235,309.9534 54.4353,310.0193 59.247,310.0881 64.0588,310.1568 68.8705,310.2202 73.6823,310.2717 78.494,310.3025 83.3058,310.2999 88.1175,310.2399 92.9293,310.0612 97.741,309.882 102.5528,309.7033 107.3646,309.5261 112.1763,309.3508 116.9881,309.1778 121.7998,309.0072 126.6116,308.8391 131.4233,308.6731 136.2351,308.5089 141.0468,308.3461 145.8586,308.1837 150.6703,308.0212 155.4821,307.8573 160.2938,307.6909 165.1056,307.5206 169.9174,307.3448 174.7291,307.1681 179.5409,307.0117 184.3526,306.9173 189.1644,306.9576 193.9761,307.2844 198.7879,307.5919 203.5996,307.883 208.4114,308.1607 213.2231,308.4277 218.0349,308.6871 222.8466,308.9418 227.6584,309.195 232.4702,309.4498 237.2819,309.71 242.0937,309.9795 246.9054,310.2425 251.7172,310.4333 256.5289,310.4176 261.3407,309.9095 266.1524,309.4552 270.9642,309.0481 275.7759,308.6868 280.5877,308.3788 285.3994,308.1366 290.2112,307.9781 295.023,307.9475 299.8347,307.8935 304.6465,307.8208 309.4582,307.7329 314.27,307.6324 319.0817,307.5212 323.8935,307.4006 328.7052,307.2717 333.517,307.1348 338.3287,306.9901 343.1405,306.8376 347.9522,306.6768 352.764,306.5097 357.5758,306.3452 362.3875,306.2002 367.1993,306.1012 372.011,306.0885 376.8228,306.2335 381.6345,306.3396 386.4463,306.4094 391.258,306.4449 396.0698,306.4474 400.8815,306.4172 405.6933,306.3542 410.5051,306.2714 415.3168,306.2177 420.1286,306.2917 424.9403,306.6858 429.7521,307.0564 434.5638,307.4706 439.3756,307.852 444.1873,308.1962 448.9991,308.5027 453.8108,308.7845 458.6226,309.0822 463.4343,309.3752 468.2461,309.6709 473.0579,309.9998 477.8696,310.4159 482.6814,311.0115 487.4931,311.4997 492.3049,311.7919 497.1166,311.7022 501.9284,311.6658 506.7401,311.6764 511.5519,311.7294 516.3636,311.8213 521.1754,311.9495 525.9871,312.1116 530.7989,312.3058 535.6107,312.5307 540.4224,312.7851 545.2342,313.0591 550.0459,313.3215 554.8577,313.5138 559.6694,313.5375 564.4812,313.6391 569.2929,313.8179 574.1047,314.1601 578.9164,314.607 583.7282,314.8517 588.5399,313.9943 593.3517,313.3677 598.1635,312.7913 602.9752,312.2394 607.787,311.693 612.5987,311.1518 617.4105,310.6603 622.2222,310.3271"></polyline>
<polyline id="error-otros" class="otros error" points=" 40,289.192 44.8118,289.7569 49.6235,290.3343 54.4353,290.925 59.247,291.8429 64.0588,292.76 68.8705,293.626 73.6823,294.3842 78.494,294.9639 83.3058,295.2676 88.1175,295.1237 92.9293,294.1276 97.741,293.2421 102.5528,292.4637 107.3646,291.7888 112.1763,291.2133 116.9881,290.7328 121.7998,290.3426 126.6116,290.0383 131.4233,289.815 136.2351,289.6681 141.0468,289.5933 145.8586,289.5862 150.6703,289.6428 155.4821,289.7595 160.2938,289.9327 165.1056,290.1596 169.9174,290.4373 174.7291,290.7573 179.5409,291.0948 184.3526,291.4049 189.1644,291.6188 193.9761,291.6251 198.7879,291.7239 203.5996,291.9082 208.4114,292.1724 213.2231,292.5123 218.0349,292.9245 222.8466,293.4071 227.6584,293.9589 232.4702,294.5799 237.2819,295.2715 242.0937,296.0363 246.9054,296.8341 251.7172,297.5185 256.5289,297.8034 261.3407,297.1156 266.1524,296.6333 270.9642,296.3387 275.7759,296.2076 280.5877,296.1874 285.3994,296.1828 290.2112,296.0351 295.023,295.4212 299.8347,294.8976 304.6465,294.4577 309.4582,294.0957 314.27,293.8063 319.0817,293.5843 323.8935,293.4249 328.7052,293.3236 333.517,293.2761 338.3287,293.2782 343.1405,293.3261 347.9522,293.4163 352.764,293.5443 357.5758,293.7022 362.3875,293.8777 367.1993,294.0537 372.011,294.2079 376.8228,294.3116 381.6345,294.4606 386.4463,294.6482 391.258,294.8688 396.0698,295.1171 400.8815,295.3885 405.6933,295.6784 410.5051,295.9844 415.3168,296.3117 420.1286,296.6814 424.9403,297.1586 429.7521,297.5912 434.5638,297.9573 439.3756,298.3972 444.1873,298.8886 448.9991,299.3853 453.8108,299.8157 458.6226,300.0739 463.4343,300.4363 468.2461,300.8843 473.0579,301.4104 477.8696,302.0086 482.6814,302.6663 487.4931,303.2204 492.3049,303.4482 497.1166,302.8941 501.9284,302.4674 506.7401,302.1612 511.5519,301.9707 516.3636,301.893 521.1754,301.9255 525.9871,302.0665 530.7989,302.3141 535.6107,302.6667 540.4224,303.1226 545.2342,303.6618 550.0459,304.2188 554.8577,304.666 559.6694,304.7765 564.4812,304.9842 569.2929,305.181 574.1047,305.6736 578.9164,306.3473 583.7282,306.6805 588.5399,305.1703 593.3517,303.9134 598.1635,302.7928 602.9752,301.7822 607.787,300.8672 612.5987,300.045 617.4105,299.3178 622.2222,298.6719 622.2222,321.9823 617.4105,322.0027 612.5987,322.2586 607.787,322.5188 602.9752,322.6966 598.1635,322.7898 593.3517,322.8221 588.5399,322.8183 583.7282,323.023 578.9164,322.8667 574.1047,322.6467 569.2929,322.4548 564.4812,322.294 559.6694,322.2984 554.8577,322.3617 550.0459,322.4241 545.2342,322.4565 540.4224,322.4475 535.6107,322.3947 530.7989,322.2975 525.9871,322.1567 521.1754,321.9735 516.3636,321.7497 511.5519,321.488 506.7401,321.1915 501.9284,320.8641 497.1166,320.5103 492.3049,320.1357 487.4931,319.7791 482.6814,319.3566 477.8696,318.8233 473.0579,318.5892 468.2461,318.4574 463.4343,318.3141 458.6226,318.0904 453.8108,317.7532 448.9991,317.6201 444.1873,317.5037 439.3756,317.3069 434.5638,316.9839 429.7521,316.5216 424.9403,316.213 420.1286,315.902 415.3168,316.1238 410.5051,316.5584 405.6933,317.0301 400.8815,317.446 396.0698,317.7776 391.258,318.0211 386.4463,318.1706 381.6345,318.2186 376.8228,318.1555 372.011,317.9692 367.1993,318.1488 362.3875,318.5227 357.5758,318.9881 352.764,319.4752 347.9522,319.9373 343.1405,320.3491 338.3287,320.702 333.517,320.9934 328.7052,321.2197 323.8935,321.3763 319.0817,321.458 314.27,321.4585 309.4582,321.37 304.6465,321.1839 299.8347,320.8894 295.023,320.4737 290.2112,319.9211 285.3994,320.0904 280.5877,320.5703 275.7759,321.1661 270.9642,321.7574 266.1524,322.277 261.3407,322.7033 256.5289,323.0318 251.7172,323.3481 246.9054,323.651 242.0937,323.9228 237.2819,324.1485 232.4702,324.3197 227.6584,324.431 222.8466,324.4765 218.0349,324.4497 213.2231,324.3431 208.4114,324.1489 203.5996,323.8579 198.7879,323.4599 193.9761,322.9437 189.1644,322.2965 184.3526,322.4296 179.5409,322.9285 174.7291,323.5789 169.9174,324.2522 165.1056,324.8816 160.2938,325.449 155.4821,325.955 150.6703,326.3995 145.8586,326.7813 141.0468,327.0988 136.2351,327.3498 131.4233,327.5312 126.6116,327.6399 121.7998,327.6718 116.9881,327.6228 112.1763,327.4883 107.3646,327.2633 102.5528,326.943 97.741,326.5219 92.9293,325.9948 88.1175,325.3562 83.3058,325.3322 78.494,325.641 73.6823,326.1592 68.8705,326.8144 64.0588,327.5535 59.247,328.3334 54.4353,329.1137 49.6235,329.5725 44.8118,330.0251 40,330.4718"></polyline>
<text class = "party otros" x="631.1111" y="315"><tspan class="party_name">Otros</tspan><tspan class="party_result"> (2.8±1.4%)</tspan></text>
<g id="encuesta-1">
<circle id="encuesta-1-cup" class="encuesta sociometrica cup" cx="622.2222" cy="284.8485" r="2.8284" ></circle>
<circle id="encuesta-1-erc" class="encuesta sociometrica erc" cx="622.2222" cy="146.6667" r="2.8284" ></circle>
<circle id="encuesta-1-jxcat" class="encuesta sociometrica jxcat" cx="622.2222" cy="179.798" r="2.8284" ></circle>
<circle id="encuesta-1-cec" class="encuesta sociometrica cec" cx="622.2222" cy="281.6162" r="2.8284" ></circle>
<circle id="encuesta-1-psc" class="encuesta sociometrica psc" cx="622.2222" cy="210.5051" r="2.8284" ></circle>
<circle id="encuesta-1-cs" class="encuesta sociometrica cs" cx="622.2222" cy="167.6768" r="2.8284" ></circle>
<circle id="encuesta-1-pp" class="encuesta sociometrica pp" cx="622.2222" cy="283.2323" r="2.8284" ></circle>
<circle id="encuesta-1-otros" class="encuesta sociometrica otros" cx="622.2222" cy="304.2424" r="2.8284" ></circle>
</g>
<g id="encuesta-2">
<circle id="encuesta-2-cup" class="encuesta nc_report cup" cx="588.5399" cy="287.2727" r="3.1623" ></circle>
<circle id="encuesta-2-erc" class="encuesta nc_report erc" cx="588.5399" cy="138.5859" r="3.1623" ></circle>
<circle id="encuesta-2-jxcat" class="encuesta nc_report jxcat" cx="588.5399" cy="223.4343" r="3.1623" ></circle>
<circle id="encuesta-2-cec" class="encuesta nc_report cec" cx="588.5399" cy="265.4545" r="3.1623" ></circle>
<circle id="encuesta-2-psc" class="encuesta nc_report psc" cx="588.5399" cy="214.5455" r="3.1623" ></circle>
<circle id="encuesta-2-cs" class="encuesta nc_report cs" cx="588.5399" cy="164.4444" r="3.1623" ></circle>
<circle id="encuesta-2-pp" class="encuesta nc_report pp" cx="588.5399" cy="258.1818" r="3.1623" ></circle>
<circle id="encuesta-2-otros" class="encuesta nc_report otros" cx="588.5399" cy="306.6667" r="3.1623" ></circle>
</g>
<g id="encuesta-3">
<circle id="encuesta-3-cup" class="encuesta metroscopica cup" cx="583.7282" cy="285.6566" r="4.2426" ></circle>
<circle id="encuesta-3-erc" class="encuesta metroscopica erc" cx="583.7282" cy="119.1919" r="4.2426" ></circle>
<circle id="encuesta-3-jxcat" class="encuesta metroscopica jxcat" cx="583.7282" cy="223.4343" r="4.2426" ></circle>
<circle id="encuesta-3-cec" class="encuesta metroscopica cec" cx="583.7282" cy="279.1919" r="4.2426" ></circle>
<circle id="encuesta-3-psc" class="encuesta metroscopica psc" cx="583.7282" cy="212.9293" r="4.2426" ></circle>
<circle id="encuesta-3-cs" class="encuesta metroscopica cs" cx="583.7282" cy="128.8889" r="4.2426" ></circle>
<circle id="encuesta-3-pp" class="encuesta metroscopica pp" cx="583.7282" cy="286.4646" r="4.2426" ></circle>
<circle id="encuesta-3-otros" class="encuesta metroscopica otros" cx="583.7282" cy="322.8283" r="4.2426" ></circle>
</g>
<g id="encuesta-4">
<circle id="encuesta-4-cup" class="encuesta gesop cup" cx="564.4812" cy="282.4242" r="2.8284" ></circle>
<circle id="encuesta-4-erc" class="encuesta gesop erc" cx="564.4812" cy="140.202" r="2.8284" ></circle>
<circle id="encuesta-4-jxcat" class="encuesta gesop jxcat" cx="564.4812" cy="200" r="2.8284" ></circle>
<circle id="encuesta-4-cec" class="encuesta gesop cec" cx="564.4812" cy="263.8384" r="2.8284" ></circle>
<circle id="encuesta-4-psc" class="encuesta gesop psc" cx="564.4812" cy="187.0707" r="2.8284" ></circle>
<circle id="encuesta-4-cs" class="encuesta gesop cs" cx="564.4812" cy="183.0303" r="2.8284" ></circle>
<circle id="encuesta-4-pp" class="encuesta gesop pp" cx="564.4812" cy="287.2727" r="2.8284" ></circle>
<circle id="encuesta-4-otros" class="encuesta gesop otros" cx="564.4812" cy="314.7475" r="2.8284" ></circle>
</g>
<g id="encuesta-5">
<circle id="encuesta-5-cup" class="encuesta gad3 cup" cx="554.8577" cy="288.0808" r="2.8302" ></circle>
<circle id="encuesta-5-erc" class="encuesta gad3 erc" cx="554.8577" cy="146.6667" r="2.8302" ></circle>
<circle id="encuesta-5-jxcat" class="encuesta gad3 jxcat" cx="554.8577" cy="198.3838" r="2.8302" ></circle>
<circle id="encuesta-5-cec" class="encuesta gad3 cec" cx="554.8577" cy="271.9192" r="2.8302" ></circle>
<circle id="encuesta-5-psc" class="encuesta gad3 psc" cx="554.8577" cy="211.3131" r="2.8302" ></circle>
<circle id="encuesta-5-cs" class="encuesta gad3 cs" cx="554.8577" cy="153.1313" r="2.8302" ></circle>
<circle id="encuesta-5-pp" class="encuesta gad3 pp" cx="554.8577" cy="270.303" r="2.8302" ></circle>
<circle id="encuesta-5-otros" class="encuesta gad3 otros" cx="554.8577" cy="318.7879" r="2.8302" ></circle>
</g>
<g id="encuesta-6">
<circle id="encuesta-6-cup" class="encuesta nc_report cup" cx="492.3049" cy="282.4242" r="3.1623" ></circle>
<circle id="encuesta-6-erc" class="encuesta nc_report erc" cx="492.3049" cy="120.8081" r="3.1623" ></circle>
<circle id="encuesta-6-jxcat" class="encuesta nc_report jxcat" cx="492.3049" cy="246.8687" r="3.1623" ></circle>
<circle id="encuesta-6-cec" class="encuesta nc_report cec" cx="492.3049" cy="249.2929" r="3.1623" ></circle>
<circle id="encuesta-6-psc" class="encuesta nc_report psc" cx="492.3049" cy="223.4343" r="3.1623" ></circle>
<circle id="encuesta-6-cs" class="encuesta nc_report cs" cx="492.3049" cy="174.9495" r="3.1623" ></circle>
<circle id="encuesta-6-pp" class="encuesta nc_report pp" cx="492.3049" cy="248.4848" r="3.1623" ></circle>
<circle id="encuesta-6-otros" class="encuesta nc_report otros" cx="492.3049" cy="312.3232" r="3.1623" ></circle>
</g>
<g id="encuesta-7">
<circle id="encuesta-7-cup" class="encuesta gad3 cup" cx="492.3049" cy="282.4242" r="3.5114" ></circle>
<circle id="encuesta-7-erc" class="encuesta gad3 erc" cx="492.3049" cy="96.5657" r="3.5114" ></circle>
<circle id="encuesta-7-jxcat" class="encuesta gad3 jxcat" cx="492.3049" cy="249.2929" r="3.5114" ></circle>
<circle id="encuesta-7-cec" class="encuesta gad3 cec" cx="492.3049" cy="266.2626" r="3.5114" ></circle>
<circle id="encuesta-7-psc" class="encuesta gad3 psc" cx="492.3049" cy="215.3535" r="3.5114" ></circle>
<circle id="encuesta-7-cs" class="encuesta gad3 cs" cx="492.3049" cy="166.8687" r="3.5114" ></circle>
<circle id="encuesta-7-pp" class="encuesta gad3 pp" cx="492.3049" cy="263.0303" r="3.5114" ></circle>
<circle id="encuesta-7-otros" class="encuesta gad3 otros" cx="492.3049" cy="318.7879" r="3.5114" ></circle>
</g>
<g id="encuesta-8">
<circle id="encuesta-8-cup" class="encuesta sociometrica cup" cx="477.8696" cy="287.2727" r="3.1623" ></circle>
<circle id="encuesta-8-erc" class="encuesta sociometrica erc" cx="477.8696" cy="81.2121" r="3.1623" ></circle>
<circle id="encuesta-8-jxcat" class="encuesta sociometrica jxcat" cx="477.8696" cy="251.7172" r="3.1623" ></circle>
<circle id="encuesta-8-cec" class="encuesta sociometrica cec" cx="477.8696" cy="252.5253" r="3.1623" ></circle>
<circle id="encuesta-8-psc" class="encuesta sociometrica psc" cx="477.8696" cy="234.7475" r="3.1623" ></circle>
<circle id="encuesta-8-cs" class="encuesta sociometrica cs" cx="477.8696" cy="185.4545" r="3.1623" ></circle>
<circle id="encuesta-8-pp" class="encuesta sociometrica pp" cx="477.8696" cy="260.6061" r="3.1623" ></circle>
<circle id="encuesta-8-otros" class="encuesta sociometrica otros" cx="477.8696" cy="305.0505" r="3.1623" ></circle>
</g>
<g id="encuesta-9">
<circle id="encuesta-9-cup" class="encuesta sigmados cup" cx="453.8108" cy="282.4242" r="3.1623" ></circle>
<circle id="encuesta-9-erc" class="encuesta sigmados erc" cx="453.8108" cy="120" r="3.1623" ></circle>
<circle id="encuesta-9-jxcat" class="encuesta sigmados jxcat" cx="453.8108" cy="254.1414" r="3.1623" ></circle>
<circle id="encuesta-9-cec" class="encuesta sigmados cec" cx="453.8108" cy="244.4444" r="3.1623" ></circle>
<circle id="encuesta-9-psc" class="encuesta sigmados psc" cx="453.8108" cy="211.3131" r="3.1623" ></circle>
<circle id="encuesta-9-cs" class="encuesta sigmados cs" cx="453.8108" cy="174.9495" r="3.1623" ></circle>
<circle id="encuesta-9-pp" class="encuesta sigmados pp" cx="453.8108" cy="263.0303" r="3.1623" ></circle>
<circle id="encuesta-9-otros" class="encuesta sigmados otros" cx="453.8108" cy="308.2828" r="3.1623" ></circle>
</g>
<g id="encuesta-10">
<circle id="encuesta-10-cup" class="encuesta nc_report cup" cx="429.7521" cy="288.0808" r="3.1623" ></circle>
<circle id="encuesta-10-erc" class="encuesta nc_report erc" cx="429.7521" cy="134.5455" r="3.1623" ></circle>
<circle id="encuesta-10-jxcat" class="encuesta nc_report jxcat" cx="429.7521" cy="235.5556" r="3.1623" ></circle>
<circle id="encuesta-10-cec" class="encuesta nc_report cec" cx="429.7521" cy="241.2121" r="3.1623" ></circle>
<circle id="encuesta-10-psc" class="encuesta nc_report psc" cx="429.7521" cy="227.4747" r="3.1623" ></circle>
<circle id="encuesta-10-cs" class="encuesta nc_report cs" cx="429.7521" cy="178.1818" r="3.1623" ></circle>
<circle id="encuesta-10-pp" class="encuesta nc_report pp" cx="429.7521" cy="248.4848" r="3.1623" ></circle>
<circle id="encuesta-10-otros" class="encuesta nc_report otros" cx="429.7521" cy="305.0505" r="3.1623" ></circle>
</g>
<g id="encuesta-11">
<circle id="encuesta-11-cup" class="encuesta gesop cup" cx="420.1286" cy="270.303" r="2.8284" ></circle>
<circle id="encuesta-11-erc" class="encuesta gesop erc" cx="420.1286" cy="106.2626" r="2.8284" ></circle>
<circle id="encuesta-11-jxcat" class="encuesta gesop jxcat" cx="420.1286" cy="236.3636" r="2.8284" ></circle>
<circle id="encuesta-11-cec" class="encuesta gesop cec" cx="420.1286" cy="260.6061" r="2.8284" ></circle>
<circle id="encuesta-11-psc" class="encuesta gesop psc" cx="420.1286" cy="216.1616" r="2.8284" ></circle>
<circle id="encuesta-11-cs" class="encuesta gesop cs" cx="420.1286" cy="197.5758" r="2.8284" ></circle>
<circle id="encuesta-11-pp" class="encuesta gesop pp" cx="420.1286" cy="272.7273" r="2.8284" ></circle>
<circle id="encuesta-11-otros" class="encuesta gesop otros" cx="420.1286" cy="298.5859" r="2.8284" ></circle>
</g>
<g id="encuesta-12">
<circle id="encuesta-12-cup" class="encuesta sociometrica cup" cx="372.011" cy="282.4242" r="2.8284" ></circle>
<circle id="encuesta-12-erc" class="encuesta sociometrica erc" cx="372.011" cy="76.3636" r="2.8284" ></circle>
<circle id="encuesta-12-jxcat" class="encuesta sociometrica jxcat" cx="372.011" cy="267.8788" r="2.8284" ></circle>
<circle id="encuesta-12-cec" class="encuesta sociometrica cec" cx="372.011" cy="236.3636" r="2.8284" ></circle>
<circle id="encuesta-12-psc" class="encuesta sociometrica psc" cx="372.011" cy="256.5657" r="2.8284" ></circle>
<circle id="encuesta-12-cs" class="encuesta sociometrica cs" cx="372.011" cy="185.4545" r="2.8284" ></circle>
<circle id="encuesta-12-pp" class="encuesta sociometrica pp" cx="372.011" cy="251.7172" r="2.8284" ></circle>
<circle id="encuesta-12-otros" class="encuesta sociometrica otros" cx="372.011" cy="301.8182" r="2.8284" ></circle>
</g>
<g id="encuesta-13">
<circle id="encuesta-13-cup" class="encuesta nc_report cup" cx="290.2112" cy="288.0808" r="3.5426" ></circle>
<circle id="encuesta-13-erc" class="encuesta nc_report erc" cx="290.2112" cy="130.5051" r="3.5426" ></circle>
<circle id="encuesta-13-jxcat" class="encuesta nc_report jxcat" cx="290.2112" cy="230.7071" r="3.5426" ></circle>
<circle id="encuesta-13-cec" class="encuesta nc_report cec" cx="290.2112" cy="239.596" r="3.5426" ></circle>
<circle id="encuesta-13-psc" class="encuesta nc_report psc" cx="290.2112" cy="222.6263" r="3.5426" ></circle>
<circle id="encuesta-13-cs" class="encuesta nc_report cs" cx="290.2112" cy="194.3434" r="3.5426" ></circle>
<circle id="encuesta-13-pp" class="encuesta nc_report pp" cx="290.2112" cy="246.0606" r="3.5426" ></circle>
<circle id="encuesta-13-otros" class="encuesta nc_report otros" cx="290.2112" cy="306.6667" r="3.5426" ></circle>
</g>
<g id="encuesta-14">
<circle id="encuesta-14-cup" class="encuesta celeste-tel cup" cx="256.5289" cy="285.6566" r="2.8284" ></circle>
<circle id="encuesta-14-erc" class="encuesta celeste-tel erc" cx="256.5289" cy="133.7374" r="2.8284" ></circle>
<circle id="encuesta-14-jxcat" class="encuesta celeste-tel jxcat" cx="256.5289" cy="223.4343" r="2.8284" ></circle>
<circle id="encuesta-14-cec" class="encuesta celeste-tel cec" cx="256.5289" cy="234.7475" r="2.8284" ></circle>
<circle id="encuesta-14-psc" class="encuesta celeste-tel psc" cx="256.5289" cy="213.7374" r="2.8284" ></circle>
<circle id="encuesta-14-cs" class="encuesta celeste-tel cs" cx="256.5289" cy="192.7273" r="2.8284" ></circle>
<circle id="encuesta-14-pp" class="encuesta celeste-tel pp" cx="256.5289" cy="257.3737" r="2.8284" ></circle>
<circle id="encuesta-14-otros" class="encuesta celeste-tel otros" cx="256.5289" cy="317.1717" r="2.8284" ></circle>
</g>
<g id="encuesta-15">
<circle id="encuesta-15-cup" class="encuesta sociometrica cup" cx="189.1644" cy="278.3838" r="2.6458" ></circle>
<circle id="encuesta-15-erc" class="encuesta sociometrica erc" cx="189.1644" cy="107.0707" r="2.6458" ></circle>
<circle id="encuesta-15-jxcat" class="encuesta sociometrica jxcat" cx="189.1644" cy="230.7071" r="2.6458" ></circle>
<circle id="encuesta-15-cec" class="encuesta sociometrica cec" cx="189.1644" cy="249.2929" r="2.6458" ></circle>
<circle id="encuesta-15-psc" class="encuesta sociometrica psc" cx="189.1644" cy="251.7172" r="2.6458" ></circle>
<circle id="encuesta-15-cs" class="encuesta sociometrica cs" cx="189.1644" cy="190.303" r="2.6458" ></circle>
<circle id="encuesta-15-pp" class="encuesta sociometrica pp" cx="189.1644" cy="248.4848" r="2.6458" ></circle>
<circle id="encuesta-15-otros" class="encuesta sociometrica otros" cx="189.1644" cy="302.6263" r="2.6458" ></circle>
</g>
<g id="encuesta-16">
<circle id="encuesta-16-cup" class="encuesta nc_report cup" cx="88.1175" cy="280.8081" r="3.5426" ></circle>
<circle id="encuesta-16-erc" class="encuesta nc_report erc" cx="88.1175" cy="140.202" r="3.5426" ></circle>
<circle id="encuesta-16-jxcat" class="encuesta nc_report jxcat" cx="88.1175" cy="221.0101" r="3.5426" ></circle>
<circle id="encuesta-16-cec" class="encuesta nc_report cec" cx="88.1175" cy="235.5556" r="3.5426" ></circle>
<circle id="encuesta-16-psc" class="encuesta nc_report psc" cx="88.1175" cy="221.0101" r="3.5426" ></circle>
<circle id="encuesta-16-cs" class="encuesta nc_report cs" cx="88.1175" cy="191.9192" r="3.5426" ></circle>
<circle id="encuesta-16-pp" class="encuesta nc_report pp" cx="88.1175" cy="256.5657" r="3.5426" ></circle>
<circle id="encuesta-16-otros" class="encuesta nc_report otros" cx="88.1175" cy="311.5152" r="3.5426" ></circle>
</g>
  
<text class="pie izquierda" x="0" y="395">Datos: Electograph | Modelo propio</text>
<text class="pie derecha" x="800" y="395">Jesús Carro | <tspan style="font-weight:bold">1datomas</tspan>.com</text>
</svg>
