<?xml version="1.0" encoding="utf-8"?><!DOCTYPE svg PUBLIC "-//W3C//DTD SVG 1.1//EN" "http://www.w3.org/Graphics/SVG/1.1/DTD/svg11.dtd">
<svg xmlns="http://www.w3.org/2000/svg" xmlns:xlink="http://www.w3.org/1999/xlink" version="1.1" viewBox="0 0 800 400">

<text x="0" y="20" style="font-size:large;font-weight:bold;color:black">Intención de voto en Elecciones Autonómicas en Cataluña</text>
<text x="0" y="40" style="color:gray">Promedio de encuestas y estimación de error</text>

<text class="horizontal axis" x="36" y="333.3333">0%</text>
<line class="horizontal axis" x1="40" y1="333.3333" x2="622.2222" y2="333.3333"></line>
<text class="horizontal axis" x="36" y="252.5253">10%</text>
<line class="horizontal axis" x1="40" y1="252.5253" x2="622.2222" y2="252.5253"></line>
<text class="horizontal axis" x="36" y="171.7172">20%</text>
<line class="horizontal axis" x1="40" y1="171.7172" x2="622.2222" y2="171.7172"></line>
<text class="horizontal axis" x="36" y="90.9091">30%</text>
<line class="horizontal axis" x1="40" y1="90.9091" x2="622.2222" y2="90.9091"></line>
<line class="vertical axis" x1="40" y1="336.6667" x2="40" y2="66.6667"></line>
<text class="vertical axis" x="40" y="343.3333">Ago-2017</text>
<line class="vertical axis" x1="198.3236" y1="336.6667" x2="198.3236" y2="66.6667"></line>
<text class="vertical axis" x="198.3236" y="343.3333">Sep-2017</text>
<line class="vertical axis" x1="351.54" y1="336.6667" x2="351.54" y2="66.6667"></line>
<text class="vertical axis" x="351.54" y="343.3333">Oct-2017</text>
<line class="vertical axis" x1="509.8635" y1="336.6667" x2="509.8635" y2="66.6667"></line>
<text class="vertical axis" x="509.8635" y="343.3333">Nov-2017</text>
<polyline id="media-cup"  class="cup media" points=" 40,281.7502 45.1072,281.7087 50.2144,281.6656 55.3216,281.6206 60.4288,281.5745 65.5361,281.5287 70.6433,281.4861 75.7505,281.4502 80.8577,281.425 85.9649,281.4166 91.0721,281.436 96.1793,281.5114 101.2865,281.5831 106.3938,281.65 111.501,281.7114 116.6082,281.7667 121.7154,281.8153 126.8226,281.8567 131.9298,281.8904 137.037,281.916 142.1442,281.9331 147.2515,281.9413 152.3587,281.94 157.4659,281.9287 162.5731,281.9069 167.6803,281.8738 172.7875,281.8285 177.8947,281.77 183.0019,281.7018 188.1092,281.6401 193.2164,281.6176 198.3236,281.6928 203.4308,281.9878 208.538,282.2687 213.6452,282.5361 218.7524,282.7908 223.8596,283.0335 228.9669,283.2651 234.0741,283.4864 239.1813,283.6985 244.2885,283.9019 249.3957,284.0977 254.5029,284.2864 259.6101,284.4651 264.7173,284.6243 269.8246,284.7504 274.9318,284.823 280.039,284.9249 285.1462,285.0542 290.2534,285.2035 295.3606,285.3503 300.4678,285.4549 305.575,285.4518 310.6823,285.1887 315.7895,284.9469 320.8967,284.7242 326.0039,284.5189 331.1111,284.3293 336.2183,284.1539 341.3255,283.9912 346.4327,283.8399 351.54,283.6988 356.6472,283.5668 361.7544,283.4429 366.8616,283.3262 371.9688,283.2162 377.076,283.1137 382.1832,283.0198 387.2904,282.936 392.3977,282.8631 397.5049,282.8019 402.6121,282.729 407.7193,282.6448 412.8265,282.5491 417.9337,282.4411 423.0409,282.3195 428.1481,282.1822 433.2554,282.0441 438.3626,281.9648 443.4698,282.0667 448.577,282.5968 453.6842,282.9378 458.7914,283.0383 463.8986,283.1329 469.0058,283.2194 474.1131,283.3023 479.2203,283.3981 484.3275,283.5467 489.4347,283.6884 494.5419,283.8108 499.6491,283.8908 504.7563,283.8947 509.8635,283.7691 514.9708,283.6815 520.078,283.6564 525.1852,283.7577 530.2924,283.8626 535.3996,283.9719 540.5068,284.0857 545.614,284.2039 550.7212,284.3261 555.8285,284.4517 560.9357,284.5799 566.0429,284.7097 571.1501,284.8403 576.2573,284.9654 581.3645,285.065 586.4717,285.1053 591.5789,285.0347 596.6862,285.0258 601.7934,285.1341 606.9006,285.2346 612.0078,285.3188 617.115,285.371 622.2222,285.3566"></polyline>
<polyline id="error-cup" class="cup error" points=" 40,259.1361 45.1072,259.6487 50.2144,260.1711 55.3216,260.7042 60.4288,261.5193 65.5361,262.3664 70.6433,263.1701 75.7505,263.8812 80.8577,264.4382 85.9649,264.7565 91.0721,264.6912 96.1793,263.911 101.2865,263.2472 106.3938,262.6933 111.501,262.2431 116.6082,261.8903 121.7154,261.6292 126.8226,261.4537 131.9298,261.3585 137.037,261.3381 142.1442,261.3878 147.2515,261.5027 152.3587,261.6787 157.4659,261.912 162.5731,262.1991 167.6803,262.5371 172.7875,262.9235 177.8947,263.3562 183.0019,263.8245 188.1092,264.2953 193.2164,264.7077 198.3236,264.9671 203.4308,264.9107 208.538,264.9597 213.6452,265.1038 218.7524,265.3348 223.8596,265.6458 228.9669,266.031 234.0741,266.4858 239.1813,267.0067 244.2885,267.5909 249.3957,268.2367 254.5029,268.9434 259.6101,269.6834 264.7173,270.3651 269.8246,270.8207 274.9318,270.7408 280.039,270.8503 285.1462,271.1352 290.2534,271.563 295.3606,272.0452 300.4678,272.4242 305.575,272.442 310.6823,271.5436 315.7895,270.7895 320.8967,270.1658 326.0039,269.6606 331.1111,269.2634 336.2183,268.9653 341.3255,268.7582 346.4327,268.6349 351.54,268.5891 356.6472,268.6149 361.7544,268.7075 366.8616,268.8626 371.9688,269.0726 377.076,269.3198 382.1832,269.5727 387.2904,269.7841 392.3977,269.8852 397.5049,269.7639 402.6121,269.7236 407.7193,269.7546 412.8265,269.8487 417.9337,269.9982 423.0409,270.1962 428.1481,270.4361 433.2554,270.7158 438.3626,271.047 443.4698,271.4675 448.577,272.0841 453.6842,272.4821 458.7914,272.5069 463.8986,272.6434 469.0058,272.8708 474.1131,273.1441 479.2203,273.387 484.3275,273.477 489.4347,273.6797 494.5419,273.9537 499.6491,274.2316 504.7563,274.409 509.8635,274.3084 514.9708,274.2573 520.078,274.1367 525.1852,273.7201 530.2924,273.3853 535.3996,273.1322 540.5068,272.9616 545.614,272.874 550.7212,272.8704 555.8285,272.9512 560.9357,273.1165 566.0429,273.3664 571.1501,273.7 576.2573,274.1007 581.3645,274.5109 586.4717,274.818 591.5789,274.823 596.6862,274.9081 601.7934,275.0026 606.9006,275.2336 612.0078,275.5318 617.115,275.6397 622.2222,274.8226 622.2222,295.8906 617.115,295.1022 612.0078,295.1057 606.9006,295.2356 601.7934,295.2656 596.6862,295.1434 591.5789,295.2463 586.4717,295.3927 581.3645,295.619 576.2573,295.8301 571.1501,295.9806 566.0429,296.0531 560.9357,296.0432 555.8285,295.9522 550.7212,295.7818 545.614,295.5337 540.5068,295.2098 535.3996,294.8115 530.2924,294.34 525.1852,293.7953 520.078,293.176 514.9708,293.1056 509.8635,293.2298 504.7563,293.3803 499.6491,293.5499 494.5419,293.6678 489.4347,293.6971 484.3275,293.6164 479.2203,293.4092 474.1131,293.4606 469.0058,293.568 463.8986,293.6224 458.7914,293.5696 453.6842,293.3934 448.577,293.1095 443.4698,292.666 438.3626,292.8825 433.2554,293.3724 428.1481,293.9284 423.0409,294.4428 417.9337,294.884 412.8265,295.2495 407.7193,295.5351 402.6121,295.7345 397.5049,295.8398 392.3977,295.8409 387.2904,296.0879 382.1832,296.467 377.076,296.9076 371.9688,297.3599 366.8616,297.7898 361.7544,298.1783 356.6472,298.5187 351.54,298.8085 346.4327,299.0448 341.3255,299.2241 336.2183,299.3424 331.1111,299.3952 326.0039,299.3773 320.8967,299.2826 315.7895,299.1042 310.6823,298.8339 305.575,298.4616 300.4678,298.4856 295.3606,298.6554 290.2534,298.8439 285.1462,298.9732 280.039,298.9995 274.9318,298.9052 269.8246,298.68 264.7173,298.8834 259.6101,299.2467 254.5029,299.6293 249.3957,299.9587 244.2885,300.213 239.1813,300.3903 234.0741,300.4871 228.9669,300.4991 223.8596,300.4211 218.7524,300.2467 213.6452,299.9684 208.538,299.5777 203.4308,299.0648 198.3236,298.4185 193.2164,298.5276 188.1092,298.9849 183.0019,299.579 177.8947,300.1838 172.7875,300.7335 167.6803,301.2105 162.5731,301.6147 157.4659,301.9454 152.3587,302.2012 147.2515,302.3798 142.1442,302.4785 137.037,302.4939 131.9298,302.4224 126.8226,302.2597 121.7154,302.0015 116.6082,301.6431 111.501,301.1798 106.3938,300.6067 101.2865,299.9189 96.1793,299.1119 91.0721,298.1807 85.9649,298.0767 80.8577,298.4119 75.7505,299.0191 70.6433,299.8022 65.5361,300.6911 60.4288,301.6296 55.3216,302.537 50.2144,303.16 45.1072,303.7688 40,304.3643"></polyline>
<text class = "party cup" x="631.1111" y="295"><tspan class="party_name">CUP</tspan><tspan class="party_result"> (5.9±1.3%)</tspan></text>
<polyline id="media-erc"  class="erc media" points=" 40,130.5471 45.1072,130.894 50.2144,131.2612 55.3216,131.6498 60.4288,132.0553 65.5361,132.4607 70.6433,132.8365 75.7505,133.144 80.8577,133.3342 85.9649,133.3358 91.0721,133.0142 96.1793,132.0245 101.2865,131.0398 106.3938,130.0674 111.501,129.1129 116.6082,128.181 121.7154,127.2751 126.8226,126.3974 131.9298,125.5493 137.037,124.7313 142.1442,123.9429 147.2515,123.1832 152.3587,122.4505 157.4659,121.7425 162.5731,121.0565 167.6803,120.3892 172.7875,119.7367 177.8947,119.0946 183.0019,118.4746 188.1092,117.9283 193.2164,117.5554 198.3236,117.5262 203.4308,118.1941 208.538,118.8096 213.6452,119.3825 218.7524,119.922 223.8596,120.4366 228.9669,120.9345 234.0741,121.4234 239.1813,121.9104 244.2885,122.4029 249.3957,122.9078 254.5029,123.4321 259.6101,123.9539 264.7173,124.3826 269.8246,124.5407 274.9318,124.0648 280.039,123.725 285.1462,123.5186 290.2534,123.4297 295.3606,123.4004 300.4678,123.3141 305.575,122.9604 310.6823,121.8389 315.7895,120.7286 320.8967,119.6313 326.0039,118.5479 331.1111,117.478 336.2183,116.4203 341.3255,115.3729 346.4327,114.3325 351.54,113.2956 356.6472,112.2572 361.7544,111.2115 366.8616,110.1515 371.9688,109.0876 377.076,108.079 382.1832,107.2459 387.2904,106.7802 392.3977,106.9838 397.5049,108.4058 402.6121,109.6376 407.7193,110.7045 412.8265,111.6282 417.9337,112.4273 423.0409,113.1177 428.1481,113.7129 433.2554,114.2276 438.3626,114.6904 443.4698,115.1636 448.577,115.7853 453.6842,115.9554 458.7914,115.375 463.8986,114.8557 469.0058,114.3808 474.1131,113.8971 479.2203,113.2792 484.3275,112.2422 489.4347,111.1871 494.5419,110.2025 499.6491,109.4674 504.7563,109.2737 509.8635,110.1352 514.9708,110.8507 520.078,111.603 525.1852,112.8059 530.2924,114.055 535.3996,115.3482 540.5068,116.6817 545.614,118.0506 550.7212,119.4481 555.8285,120.8668 560.9357,122.2978 566.0429,123.7318 571.1501,125.1592 576.2573,126.5357 581.3645,127.7357 586.4717,128.5229 591.5789,128.4613 596.6862,128.2642 601.7934,127.5693 606.9006,126.8553 612.0078,126.141 617.115,125.6534 622.2222,126.0841"></polyline>
<polyline id="error-erc" class="erc error" points=" 40,87.9841 45.1072,89.062 50.2144,90.18 55.3216,91.3407 60.4288,93.2627 65.5361,95.2814 70.6433,97.1936 75.7505,98.8625 80.8577,100.1162 85.9649,100.7136 91.0721,100.229 96.1793,97.6554 101.2865,95.3108 106.3938,93.1902 111.501,91.2875 116.6082,89.5963 121.7154,88.1093 126.8226,86.8189 131.9298,85.717 137.037,84.7952 142.1442,84.0451 147.2515,83.4585 152.3587,83.0274 157.4659,82.7441 162.5731,82.6012 167.6803,82.5923 172.7875,82.7113 177.8947,82.9531 183.0019,83.3041 188.1092,83.7257 193.2164,84.1444 198.3236,84.4448 203.4308,84.449 208.538,84.6209 213.6452,84.95 218.7524,85.4287 223.8596,86.0515 228.9669,86.8149 234.0741,87.7173 239.1813,88.7584 244.2885,89.9401 249.3957,91.2658 254.5029,92.7413 259.6101,94.3 264.7173,95.6979 269.8246,96.4649 274.9318,95.6869 280.039,95.3452 285.1462,95.4152 290.2534,95.835 295.3606,96.4249 300.4678,96.8473 305.575,96.5279 310.6823,94.2104 315.7895,92.14 320.8967,90.2933 326.0039,88.6503 331.1111,87.1933 336.2183,85.9066 341.3255,84.7751 346.4327,83.7851 351.54,82.923 356.6472,82.1761 361.7544,81.5315 366.8616,80.9764 371.9688,80.509 377.076,80.1549 382.1832,79.9747 387.2904,80.0705 392.3977,80.6145 397.5049,81.9483 402.6121,83.2664 407.7193,84.5754 412.8265,85.8818 417.9337,87.1919 423.0409,88.5118 428.1481,89.8475 433.2554,91.181 438.3626,92.445 443.4698,93.5296 448.577,94.2839 453.6842,94.5391 458.7914,93.7967 463.8986,93.3441 469.0058,93.1293 474.1131,93.0027 479.2203,92.6561 484.3275,91.4806 489.4347,90.5205 494.5419,89.811 499.6491,89.4487 504.7563,89.5931 509.8635,90.523 514.9708,91.3249 520.078,91.9004 525.1852,92.097 530.2924,92.4975 535.3996,93.0962 540.5068,93.8885 545.614,94.8695 550.7212,96.034 555.8285,97.3758 560.9357,98.8878 566.0429,100.5616 571.1501,102.3887 576.2573,104.3052 581.3645,106.1133 586.4717,107.424 591.5789,107.5141 596.6862,107.4971 601.7934,106.7571 606.9006,106.2787 612.0078,105.965 617.115,105.5755 622.2222,104.4532 622.2222,147.7151 617.115,145.7313 612.0078,146.317 606.9006,147.4318 601.7934,148.3815 596.6862,149.0313 591.5789,149.4086 586.4717,149.6218 581.3645,149.3582 576.2573,148.7662 571.1501,147.9297 566.0429,146.902 560.9357,145.7078 555.8285,144.3577 550.7212,142.8622 545.614,141.2316 540.5068,139.475 535.3996,137.6002 530.2924,135.6126 525.1852,133.5148 520.078,131.3057 514.9708,130.3764 509.8635,129.7475 504.7563,128.9543 499.6491,129.486 494.5419,130.594 489.4347,131.8536 484.3275,133.0038 479.2203,133.9023 474.1131,134.7915 469.0058,135.6322 463.8986,136.3673 458.7914,136.9534 453.6842,137.3718 448.577,137.2868 443.4698,136.7976 438.3626,136.9358 433.2554,137.2741 428.1481,137.5782 423.0409,137.7235 417.9337,137.6626 412.8265,137.3746 407.7193,136.8337 402.6121,136.0088 397.5049,134.8633 392.3977,133.353 387.2904,133.49 382.1832,134.5171 377.076,136.003 371.9688,137.6663 366.8616,139.3265 361.7544,140.8915 356.6472,142.3383 351.54,143.6681 346.4327,144.88 341.3255,145.9706 336.2183,146.9341 331.1111,147.7626 326.0039,148.4455 320.8967,148.9694 315.7895,149.3171 310.6823,149.4675 305.575,149.393 300.4678,149.7809 295.3606,150.3759 290.2534,151.0244 285.1462,151.6219 280.039,152.1047 274.9318,152.4428 269.8246,152.6166 264.7173,153.0673 259.6101,153.6078 254.5029,154.1229 249.3957,154.5497 244.2885,154.8657 239.1813,155.0625 234.0741,155.1294 228.9669,155.0541 223.8596,154.8218 218.7524,154.4153 213.6452,153.815 208.538,152.9983 203.4308,151.9391 198.3236,150.6076 193.2164,150.9664 188.1092,152.1309 183.0019,153.6451 177.8947,155.2362 172.7875,156.7621 167.6803,158.1861 162.5731,159.5119 157.4659,160.741 152.3587,161.8736 147.2515,162.9079 142.1442,163.8407 137.037,164.6674 131.9298,165.3817 126.8226,165.9759 121.7154,166.4408 116.6082,166.7657 111.501,166.9383 106.3938,166.9445 101.2865,166.7688 96.1793,166.3937 91.0721,165.7994 85.9649,165.958 80.8577,166.5522 75.7505,167.4255 70.6433,168.4794 65.5361,169.6399 60.4288,170.848 55.3216,171.9589 50.2144,172.3424 45.1072,172.726 40,173.11"></polyline>
<text class = "party erc" x="631.1111" y="126"><tspan class="party_name">ERC</tspan><tspan class="party_result"> (25.6±2.7%)</tspan></text>
<polyline id="media-jxcat"  class="jxcat media" points=" 40,226.2766 45.1072,226.0809 50.2144,225.8738 55.3216,225.6547 60.4288,225.4262 65.5361,225.1977 70.6433,224.9852 75.7505,224.8094 80.8577,224.6965 85.9649,224.6841 91.0721,224.843 96.1793,225.3544 101.2865,225.8575 106.3938,226.348 111.501,226.8221 116.6082,227.2769 121.7154,227.71 126.8226,228.1196 131.9298,228.5043 137.037,228.8631 142.1442,229.1956 147.2515,229.5013 152.3587,229.7803 157.4659,230.0325 162.5731,230.2583 167.6803,230.4579 172.7875,230.6318 177.8947,230.7802 183.0019,230.904 188.1092,231.0057 193.2164,231.0916 198.3236,231.1743 203.4308,231.2791 208.538,231.374 213.6452,231.4548 218.7524,231.518 223.8596,231.5603 228.9669,231.5785 234.0741,231.5694 239.1813,231.5298 244.2885,231.4564 249.3957,231.3454 254.5029,231.1927 259.6101,231.0161 264.7173,230.8903 269.8246,230.9691 274.9318,231.5794 280.039,232.103 285.1462,232.5384 290.2534,232.8886 295.3606,233.1733 300.4678,233.4418 305.575,233.7933 310.6823,234.4708 315.7895,235.1718 320.8967,235.8904 326.0039,236.6223 331.1111,237.3645 336.2183,238.1149 341.3255,238.8726 346.4327,239.6376 351.54,240.4108 356.6472,241.1939 361.7544,241.9898 366.8616,242.8021 371.9688,243.6218 377.076,244.4041 382.1832,245.059 387.2904,245.4447 392.3977,245.3401 397.5049,244.3441 402.6121,243.4946 407.7193,242.7716 412.8265,242.1577 417.9337,241.6375 423.0409,241.1972 428.1481,240.8243 433.2554,240.5172 438.3626,240.2982 443.4698,240.219 448.577,240.3888 453.6842,240.6755 458.7914,241.1988 463.8986,241.7566 469.0058,242.3327 474.1131,242.8458 479.2203,243.1297 484.3275,242.8642 489.4347,242.735 494.5419,242.7007 499.6491,242.6914 504.7563,242.5912 509.8635,242.1854 514.9708,241.7856 520.078,241.18 525.1852,239.8569 530.2924,238.4591 535.3996,236.9893 540.5068,235.4518 545.614,233.852 550.7212,232.1968 555.8285,230.4941 560.9357,228.753 566.0429,226.9833 571.1501,225.195 576.2573,223.4403 581.3645,221.8703 586.4717,220.7762 591.5789,220.7074 596.6862,220.8309 601.7934,221.6937 606.9006,222.364 612.0078,222.861 617.115,223.2099 622.2222,223.48"></polyline>
<polyline id="error-jxcat" class="jxcat error" points=" 40,192.2996 45.1072,192.7308 50.2144,193.166 55.3216,193.606 60.4288,194.6014 65.5361,195.6688 70.6433,196.6896 75.7505,197.6068 80.8577,198.3488 85.9649,198.8187 91.0721,198.8569 96.1793,198.1215 101.2865,197.5596 106.3938,197.1565 111.501,196.8988 116.6082,196.7744 121.7154,196.772 126.8226,196.8814 131.9298,197.0933 137.037,197.3993 142.1442,197.7923 147.2515,198.2657 152.3587,198.8141 157.4659,199.433 162.5731,200.1187 167.6803,200.8687 172.7875,201.6814 177.8947,202.5563 183.0019,203.4736 188.1092,204.3625 193.2164,205.0901 198.3236,205.4396 203.4308,205.0087 208.538,204.7433 213.6452,204.6236 218.7524,204.6324 223.8596,204.755 228.9669,204.9786 234.0741,205.2923 239.1813,205.6867 244.2885,206.1537 249.3957,206.6864 254.5029,207.2793 259.6101,207.9156 264.7173,208.5514 269.8246,209.1154 274.9318,209.5132 280.039,210.0584 285.1462,210.7314 290.2534,211.4984 295.3606,212.2837 300.4678,212.9648 305.575,213.3597 310.6823,213.1298 315.7895,213.1116 320.8967,213.2791 326.0039,213.6113 331.1111,214.0909 336.2183,214.7041 341.3255,215.4394 346.4327,216.2878 351.54,217.2423 356.6472,218.298 361.7544,219.4517 366.8616,220.7026 371.9688,222.0305 377.076,223.362 382.1832,224.556 387.2904,225.3946 392.3977,225.5465 397.5049,224.4309 402.6121,223.6039 407.7193,223.0308 412.8265,222.6818 417.9337,222.5313 423.0409,222.557 428.1481,222.7397 433.2554,223.0521 438.3626,223.442 443.4698,223.8289 448.577,224.1001 453.6842,224.4593 458.7914,224.8787 463.8986,225.5096 469.0058,226.3079 474.1131,227.1155 479.2203,227.6219 484.3275,227.252 489.4347,227.2018 494.5419,227.3864 499.6491,227.6692 504.7563,227.8268 509.8635,227.4548 514.9708,227.1042 520.078,226.3397 525.1852,224.1939 530.2924,222.0877 535.3996,220.0226 540.5068,218.0034 545.614,216.0376 550.7212,214.1344 555.8285,212.3045 560.9357,210.5598 566.0429,208.9126 571.1501,207.3751 576.2573,205.9868 581.3645,204.8472 586.4717,204.135 591.5789,204.1865 596.6862,204.4594 601.7934,205.3154 606.9006,206.1984 612.0078,207.0344 617.115,207.4752 622.2222,206.5108 622.2222,240.4491 617.115,238.9447 612.0078,238.6875 606.9006,238.5296 601.7934,238.072 596.6862,237.2024 591.5789,237.2283 586.4717,237.4174 581.3645,238.8934 576.2573,240.8939 571.1501,243.015 566.0429,245.0541 560.9357,246.9462 555.8285,248.6837 550.7212,250.2592 545.614,251.6665 540.5068,252.9002 535.3996,253.9561 530.2924,254.8305 525.1852,255.5199 520.078,256.0204 514.9708,256.4671 509.8635,256.9161 504.7563,257.3556 499.6491,257.7136 494.5419,258.0149 489.4347,258.2682 484.3275,258.4764 479.2203,258.6375 474.1131,258.5761 469.0058,258.3574 463.8986,258.0035 458.7914,257.519 453.6842,256.8916 448.577,256.6775 443.4698,256.6091 438.3626,257.1543 433.2554,257.9823 428.1481,258.9089 423.0409,259.8374 417.9337,260.7437 412.8265,261.6336 407.7193,262.5124 402.6121,263.3853 397.5049,264.2574 392.3977,265.1337 387.2904,265.4949 382.1832,265.562 377.076,265.4461 371.9688,265.2132 366.8616,264.9017 361.7544,264.5278 356.6472,264.0899 351.54,263.5792 346.4327,262.9874 341.3255,262.3058 336.2183,261.5257 331.1111,260.638 326.0039,259.6333 320.8967,258.5016 315.7895,257.2319 310.6823,255.8118 305.575,254.2269 300.4678,253.9188 295.3606,254.0629 290.2534,254.2788 285.1462,254.3455 280.039,254.1476 274.9318,253.6457 269.8246,252.8228 264.7173,253.2292 259.6101,254.1166 254.5029,255.106 249.3957,256.0043 244.2885,256.7591 239.1813,257.373 234.0741,257.8465 228.9669,258.1784 223.8596,258.3657 218.7524,258.4036 213.6452,258.2859 208.538,258.0046 203.4308,257.5496 198.3236,256.909 193.2164,257.0932 188.1092,257.6489 183.0019,258.3344 177.8947,259.0041 172.7875,259.5821 167.6803,260.0471 162.5731,260.3979 157.4659,260.6321 152.3587,260.7465 147.2515,260.737 142.1442,260.5989 137.037,260.3269 131.9298,259.9153 126.8226,259.3578 121.7154,258.648 116.6082,257.7794 111.501,256.7454 106.3938,255.5395 101.2865,254.1554 96.1793,252.5873 91.0721,250.8291 85.9649,250.5496 80.8577,251.0443 75.7505,252.012 70.6433,253.2808 65.5361,254.7266 60.4288,256.2511 55.3216,257.7034 50.2144,258.5816 45.1072,259.4311 40,260.2537"></polyline>
<text class = "party jxcat" x="631.1111" y="228"><tspan class="party_name">JxCAT</tspan><tspan class="party_result"> (13.6±2.1%)</tspan></text>
<polyline id="media-cec"  class="cec media" points=" 40,240.838 45.1072,240.6249 50.2144,240.4021 55.3216,240.1692 60.4288,239.9288 65.5361,239.6902 70.6433,239.4691 75.7505,239.2858 80.8577,239.1655 85.9649,239.1444 91.0721,239.2909 96.1793,239.7802 101.2865,240.2602 106.3938,240.7272 111.501,241.1781 116.6082,241.6105 121.7154,242.0229 126.8226,242.4141 131.9298,242.7836 137.037,243.1313 142.1442,243.4576 147.2515,243.763 152.3587,244.0486 157.4659,244.3157 162.5731,244.5658 167.6803,244.8007 172.7875,245.0223 177.8947,245.2331 183.0019,245.4299 188.1092,245.596 193.2164,245.6978 198.3236,245.6759 203.4308,245.4035 208.538,245.1369 213.6452,244.8723 218.7524,244.606 223.8596,244.3347 228.9669,244.0552 234.0741,243.7646 239.1813,243.4599 244.2885,243.1382 249.3957,242.7967 254.5029,242.4321 259.6101,242.0628 264.7173,241.759 269.8246,241.6564 274.9318,242.0321 280.039,242.3112 285.1462,242.4983 290.2534,242.6041 295.3606,242.6579 300.4678,242.715 305.575,242.8706 310.6823,243.3423 315.7895,243.7882 320.8967,244.2043 326.0039,244.5875 331.1111,244.9354 336.2183,245.246 341.3255,245.518 346.4327,245.7498 351.54,245.9404 356.6472,246.0886 361.7544,246.193 366.8616,246.2519 371.9688,246.2692 377.076,246.2642 382.1832,246.2787 387.2904,246.3817 392.3977,246.6847 397.5049,247.392 402.6121,248.0331 407.7193,248.6113 412.8265,249.1302 417.9337,249.5934 423.0409,250.0048 428.1481,250.3686 433.2554,250.6766 438.3626,250.8909 443.4698,250.9339 448.577,250.6439 453.6842,250.5852 458.7914,250.8961 463.8986,251.155 469.0058,251.3669 474.1131,251.5808 479.2203,251.9193 484.3275,252.6505 489.4347,253.3235 494.5419,253.9403 499.6491,254.5174 504.7563,255.0894 509.8635,255.7219 514.9708,256.2778 520.078,256.7148 525.1852,256.9728 530.2924,257.3211 535.3996,257.7504 540.5068,258.2529 545.614,258.8216 550.7212,259.4492 555.8285,260.1286 560.9357,260.8523 566.0429,261.6122 571.1501,262.4003 576.2573,263.1932 581.3645,263.9351 586.4717,264.5407 591.5789,264.8944 596.6862,265.3974 601.7934,266.1276 606.9006,267.0557 612.0078,268.0657 617.115,268.7067 622.2222,267.7185"></polyline>
<polyline id="error-cec" class="cec error" points=" 40,214.2131 45.1072,214.6066 50.2144,215.0052 55.3216,215.4096 60.4288,216.1429 65.5361,216.9186 70.6433,217.6618 75.7505,218.3325 80.8577,218.8798 85.9649,219.2356 91.0721,219.2891 96.1793,218.8078 101.2865,218.4588 106.3938,218.2304 111.501,218.1124 116.6082,218.0953 121.7154,218.1706 126.8226,218.3309 131.9298,218.5693 137.037,218.8802 142.1442,219.2584 147.2515,219.6999 152.3587,220.2014 157.4659,220.7605 162.5731,221.3757 167.6803,222.0465 172.7875,222.7733 177.8947,223.5575 183.0019,224.3796 188.1092,225.1649 193.2164,225.7693 198.3236,225.9519 203.4308,225.2462 208.538,224.6834 213.6452,224.2475 218.7524,223.9246 223.8596,223.7026 228.9669,223.571 234.0741,223.5207 239.1813,223.5439 244.2885,223.634 249.3957,223.7856 254.5029,223.9943 259.6101,224.2516 264.7173,224.5353 269.8246,224.806 274.9318,225.013 280.039,225.3051 285.1462,225.6731 290.2534,226.0994 295.3606,226.539 300.4678,226.9137 305.575,227.0996 310.6823,226.8604 315.7895,226.7406 320.8967,226.7203 326.0039,226.7836 331.1111,226.9172 336.2183,227.1099 341.3255,227.3521 346.4327,227.6355 351.54,227.9527 356.6472,228.2973 361.7544,228.6633 366.8616,229.0454 371.9688,229.4393 377.076,229.8443 382.1832,230.2657 387.2904,230.7189 392.3977,231.2385 397.5049,231.9057 402.6121,232.6119 407.7193,233.349 412.8265,234.1109 417.9337,234.8933 423.0409,235.6938 428.1481,236.5115 433.2554,237.3182 438.3626,238.0165 443.4698,238.4231 448.577,238.1985 453.6842,238.1876 458.7914,238.4158 463.8986,238.7269 469.0058,239.1044 474.1131,239.5414 479.2203,240.0563 484.3275,240.7354 489.4347,241.4932 494.5419,242.2987 499.6491,243.1185 504.7563,243.9081 509.8635,244.5942 514.9708,245.213 520.078,245.5546 525.1852,245.2217 530.2924,245.0728 535.3996,245.0971 540.5068,245.2869 545.614,245.6354 550.7212,246.1363 555.8285,246.7833 560.9357,247.5693 566.0429,248.4866 571.1501,249.527 576.2573,250.6545 581.3645,251.7694 586.4717,252.696 591.5789,253.151 596.6862,253.7779 601.7934,254.513 606.9006,255.6158 612.0078,256.8976 617.115,257.621 622.2222,255.698 622.2222,279.7389 617.115,279.7924 612.0078,279.2338 606.9006,278.4956 601.7934,277.7422 596.6862,277.0168 591.5789,276.6378 586.4717,276.3854 581.3645,276.1007 576.2573,275.7319 571.1501,275.2736 566.0429,274.7379 560.9357,274.1353 555.8285,273.474 550.7212,272.7621 545.614,272.0078 540.5068,271.219 535.3996,270.4037 530.2924,269.5694 525.1852,268.7239 520.078,267.8751 514.9708,267.3427 509.8635,266.8497 504.7563,266.2708 499.6491,265.9163 494.5419,265.5819 489.4347,265.1537 484.3275,264.5656 479.2203,263.7822 474.1131,263.6202 469.0058,263.6294 463.8986,263.5832 458.7914,263.3763 453.6842,262.9828 448.577,263.0893 443.4698,263.4446 438.3626,263.7654 433.2554,264.0349 428.1481,264.2256 423.0409,264.3159 417.9337,264.2936 412.8265,264.1495 407.7193,263.8736 402.6121,263.4542 397.5049,262.8783 392.3977,262.1309 387.2904,262.0445 382.1832,262.2917 377.076,262.6842 371.9688,263.099 366.8616,263.4585 361.7544,263.7227 356.6472,263.8799 351.54,263.9281 346.4327,263.8641 341.3255,263.6838 336.2183,263.3822 331.1111,262.9536 326.0039,262.3915 320.8967,261.6884 315.7895,260.8359 310.6823,259.8241 305.575,258.6416 300.4678,258.5163 295.3606,258.7768 290.2534,259.1088 285.1462,259.3234 280.039,259.3172 274.9318,259.0513 269.8246,258.5069 264.7173,258.9828 259.6101,259.8741 254.5029,260.8699 249.3957,261.8078 244.2885,262.6425 239.1813,263.3759 234.0741,264.0085 228.9669,264.5394 223.8596,264.9667 218.7524,265.2873 213.6452,265.497 208.538,265.5904 203.4308,265.5607 198.3236,265.3998 193.2164,265.6264 188.1092,266.0271 183.0019,266.4801 177.8947,266.9087 172.7875,267.2714 167.6803,267.5549 162.5731,267.7559 157.4659,267.871 152.3587,267.8959 147.2515,267.8261 142.1442,267.6567 137.037,267.3825 131.9298,266.9979 126.8226,266.4973 121.7154,265.8752 116.6082,265.1258 111.501,264.2438 106.3938,263.224 101.2865,262.0617 96.1793,260.7526 91.0721,259.2928 85.9649,259.0533 80.8577,259.4512 75.7505,260.2392 70.6433,261.2764 65.5361,262.4619 60.4288,263.7147 55.3216,264.9289 50.2144,265.799 45.1072,266.6431 40,267.4629"></polyline>
<text class = "party cec" x="631.1111" y="254"><tspan class="party_name">CeC</tspan><tspan class="party_result"> (8.1±1.5%)</tspan></text>
<polyline id="media-psc"  class="psc media" points=" 40,224.3819 45.1072,224.2938 50.2144,224.1975 55.3216,224.0924 60.4288,223.9797 65.5361,223.8654 70.6433,223.7602 75.7505,223.679 80.8577,223.6415 85.9649,223.6772 91.0721,223.8421 96.1793,224.28 101.2865,224.7304 106.3938,225.1915 111.501,225.6619 116.6082,226.1406 121.7154,226.6272 126.8226,227.1218 131.9298,227.6247 137.037,228.137 142.1442,228.6601 147.2515,229.1958 152.3587,229.7466 157.4659,230.3153 162.5731,230.9054 167.6803,231.5211 172.7875,232.1673 177.8947,232.8495 183.0019,233.548 188.1092,234.1767 193.2164,234.5663 198.3236,234.4241 203.4308,233.1431 208.538,231.9574 213.6452,230.859 218.7524,229.8393 223.8596,228.89 228.9669,228.0029 234.0741,227.17 239.1813,226.3835 244.2885,225.6356 249.3957,224.9185 254.5029,224.2244 259.6101,223.5743 264.7173,223.0562 269.8246,222.8422 274.9318,223.2876 280.039,223.6362 285.1462,223.9 290.2534,224.0918 295.3606,224.233 300.4678,224.3604 305.575,224.538 310.6823,224.9114 315.7895,225.2919 320.8967,225.6793 326.0039,226.0741 331.1111,226.4778 336.2183,226.8925 341.3255,227.3207 346.4327,227.7656 351.54,228.231 356.6472,228.7212 361.7544,229.2414 366.8616,229.7977 371.9688,230.3821 377.076,230.9471 382.1832,231.3929 387.2904,231.5576 392.3977,231.1834 397.5049,229.7984 402.6121,228.566 407.7193,227.4696 412.8265,226.4947 417.9337,225.6283 423.0409,224.8588 428.1481,224.176 433.2554,223.5814 438.3626,223.0997 443.4698,222.7779 448.577,222.7062 453.6842,222.4944 458.7914,222.0517 463.8986,221.5924 469.0058,221.1404 474.1131,220.7723 479.2203,220.6373 484.3275,221.0275 489.4347,221.3648 494.5419,221.627 499.6491,221.7433 504.7563,221.5868 509.8635,220.9274 514.9708,220.3725 520.078,219.9194 525.1852,219.5504 530.2924,219.1137 535.3996,218.6153 540.5068,218.0609 545.614,217.4557 550.7212,216.8052 555.8285,216.1155 560.9357,215.3929 566.0429,214.6446 571.1501,213.8782 576.2573,213.1048 581.3645,212.3352 586.4717,211.5989 591.5789,210.9844 596.6862,210.7503 601.7934,211.4562 606.9006,212.012 612.0078,212.4272 617.115,212.7153 622.2222,212.9206"></polyline>
<polyline id="error-psc" class="psc error" points=" 40,191.6046 45.1072,192.1508 50.2144,192.7044 55.3216,193.2658 60.4288,194.3396 65.5361,195.4774 70.6433,196.5634 75.7505,197.5376 80.8577,198.3254 85.9649,198.8268 91.0721,198.8761 96.1793,198.1123 101.2865,197.5365 106.3938,197.1371 111.501,196.9036 116.6082,196.8265 121.7154,196.8969 126.8226,197.1069 131.9298,197.4494 137.037,197.9184 142.1442,198.5088 147.2515,199.2166 152.3587,200.0392 157.4659,200.9748 162.5731,202.0235 167.6803,203.1865 172.7875,204.4666 177.8947,205.8689 183.0019,207.3523 188.1092,208.7568 193.2164,209.7729 198.3236,209.877 203.4308,208.027 208.538,206.4439 213.6452,205.1048 218.7524,203.9888 223.8596,203.0767 228.9669,202.3515 234.0741,201.7978 239.1813,201.4016 244.2885,201.1507 249.3957,201.0342 254.5029,201.0427 259.6101,201.1638 264.7173,201.371 269.8246,201.6179 274.9318,201.8512 280.039,202.2145 285.1462,202.7028 290.2534,203.2939 295.3606,203.9164 300.4678,204.44 305.575,204.6538 310.6823,204.1345 315.7895,203.8042 320.8967,203.6431 326.0039,203.636 331.1111,203.7708 336.2183,204.0384 341.3255,204.4315 346.4327,204.9446 351.54,205.574 356.6472,206.3179 361.7544,207.1758 366.8616,208.1493 371.9688,209.2201 377.076,210.3126 382.1832,211.2769 387.2904,211.8764 392.3977,211.7448 397.5049,210.2327 402.6121,209.0123 407.7193,208.0531 412.8265,207.3284 417.9337,206.8156 423.0409,206.495 428.1481,206.35 433.2554,206.3571 438.3626,206.4677 443.4698,206.5982 448.577,206.6195 453.6842,206.4654 458.7914,205.8935 463.8986,205.4781 469.0058,205.2175 474.1131,205.1168 479.2203,205.1908 484.3275,205.4948 489.4347,205.9224 494.5419,206.4089 499.6491,206.8173 504.7563,206.915 509.8635,206.2844 514.9708,205.776 520.078,205.1713 525.1852,204.0162 530.2924,202.9087 535.3996,201.8532 540.5068,200.8554 545.614,199.9215 550.7212,199.0589 555.8285,198.2757 560.9357,197.5803 566.0429,196.9817 571.1501,196.4892 576.2573,196.0998 581.3645,195.7703 586.4717,195.4148 591.5789,194.9043 596.6862,194.8069 601.7934,195.5018 606.9006,196.2611 612.0078,197.004 617.115,197.3797 622.2222,196.3814 622.2222,229.4598 617.115,228.051 612.0078,227.8505 606.9006,227.7628 601.7934,227.4107 596.6862,226.6936 591.5789,227.0645 586.4717,227.7831 581.3645,228.9001 576.2573,230.1098 571.1501,231.2672 566.0429,232.3074 560.9357,233.2055 555.8285,233.9553 550.7212,234.5516 545.614,234.99 540.5068,235.2665 535.3996,235.3774 530.2924,235.3186 525.1852,235.0847 520.078,234.6675 514.9708,234.969 509.8635,235.5704 504.7563,236.2586 499.6491,236.6694 494.5419,236.8452 489.4347,236.8072 484.3275,236.5601 479.2203,236.0837 474.1131,236.4278 469.0058,237.0634 463.8986,237.7067 458.7914,238.21 453.6842,238.5235 448.577,238.7929 443.4698,238.9576 438.3626,239.7317 433.2554,240.8057 428.1481,242.002 423.0409,243.2226 417.9337,244.441 412.8265,245.661 407.7193,246.8862 402.6121,248.1197 397.5049,249.3642 392.3977,250.6221 387.2904,251.2388 382.1832,251.5088 377.076,251.5815 371.9688,251.5442 366.8616,251.4461 361.7544,251.307 356.6472,251.1245 351.54,250.8879 346.4327,250.5866 341.3255,250.2099 336.2183,249.7465 331.1111,249.1848 326.0039,248.5122 320.8967,247.7154 315.7895,246.7796 310.6823,245.6882 305.575,244.4221 300.4678,244.2809 295.3606,244.5496 290.2534,244.8897 285.1462,245.0972 280.039,245.0579 274.9318,244.7241 269.8246,244.0664 264.7173,244.7414 259.6101,245.9847 254.5029,247.4062 249.3957,248.8029 244.2885,250.1205 239.1813,251.3654 234.0741,252.5422 228.9669,253.6542 223.8596,254.7032 218.7524,255.6898 213.6452,256.6132 208.538,257.4709 203.4308,258.2591 198.3236,258.9712 193.2164,259.3597 188.1092,259.5966 183.0019,259.7438 177.8947,259.8302 172.7875,259.8679 167.6803,259.8558 162.5731,259.7873 157.4659,259.6557 152.3587,259.454 147.2515,259.175 142.1442,258.8114 137.037,258.3557 131.9298,257.8 126.8226,257.1366 121.7154,256.3575 116.6082,255.4546 111.501,254.4201 106.3938,253.2459 101.2865,251.9244 96.1793,250.4476 91.0721,248.808 85.9649,248.5275 80.8577,248.9577 75.7505,249.8204 70.6433,250.9569 65.5361,252.2533 60.4288,253.6198 55.3216,254.9191 50.2144,255.6907 45.1072,256.4367 40,257.1592"></polyline>
<text class = "party psc" x="631.1111" y="208"><tspan class="party_name">PSC</tspan><tspan class="party_result"> (14.9±2.0%)</tspan></text>
<polyline id="media-cs"  class="cs media" points=" 40,188.6036 45.1072,188.7539 50.2144,188.9097 55.3216,189.0711 60.4288,189.2363 65.5361,189.3995 70.6433,189.5511 75.7505,189.679 80.8577,189.7687 85.9649,189.7995 91.0721,189.7331 96.1793,189.471 101.2865,189.2212 106.3938,188.9866 111.501,188.7692 116.6082,188.5706 121.7154,188.3921 126.8226,188.2345 131.9298,188.0985 137.037,187.9844 142.1442,187.8923 147.2515,187.8222 152.3587,187.774 157.4659,187.7474 162.5731,187.7422 167.6803,187.7581 172.7875,187.7948 177.8947,187.8519 183.0019,187.9256 188.1092,188.0033 193.2164,188.0616 198.3236,188.062 203.4308,187.929 208.538,187.826 213.6452,187.7539 218.7524,187.7132 223.8596,187.7042 228.9669,187.7272 234.0741,187.7825 239.1813,187.8704 244.2885,187.9912 249.3957,188.1451 254.5029,188.3325 259.6101,188.5415 264.7173,188.7306 269.8246,188.8226 274.9318,188.6671 280.039,188.596 285.1462,188.61 290.2534,188.6979 295.3606,188.8158 300.4678,188.878 305.575,188.7353 310.6823,188.0397 315.7895,187.383 320.8967,186.7672 326.0039,186.1936 331.1111,185.663 336.2183,185.1759 341.3255,184.7327 346.4327,184.3332 351.54,183.9773 356.6472,183.6648 361.7544,183.3954 366.8616,183.1689 371.9688,182.9836 377.076,182.8335 382.1832,182.7053 387.2904,182.5764 392.3977,182.4103 397.5049,182.1422 402.6121,181.9123 407.7193,181.7242 412.8265,181.5812 417.9337,181.4867 423.0409,181.4443 428.1481,181.4581 433.2554,181.5063 438.3626,181.4968 443.4698,181.2374 448.577,180.3411 453.6842,179.5998 458.7914,178.9703 463.8986,178.3714 469.0058,177.8192 474.1131,177.3383 479.2203,176.9566 484.3275,176.7079 489.4347,176.4578 494.5419,176.1933 499.6491,175.8597 504.7563,175.3546 509.8635,174.4904 514.9708,173.7543 520.078,173.1893 525.1852,172.8611 530.2924,172.4365 535.3996,171.924 540.5068,171.3314 545.614,170.6654 550.7212,169.9332 555.8285,169.1421 560.9357,168.2997 566.0429,167.4141 571.1501,166.4936 576.2573,165.5679 581.3645,164.7152 586.4717,164.0356 591.5789,163.6073 596.6862,162.6007 601.7934,160.4197 606.9006,157.8908 612.0078,155.2624 617.115,153.5649 622.2222,155.6934"></polyline>
<polyline id="error-cs" class="cs error" points=" 40,154.0284 45.1072,154.8611 50.2144,155.7167 55.3216,156.5966 60.4288,158.0109 65.5361,159.49 70.6433,160.8935 75.7505,162.13 80.8577,163.0854 85.9649,163.6022 91.0721,163.4066 96.1793,161.8635 101.2865,160.515 106.3938,159.3539 111.501,158.3731 116.6082,157.5652 121.7154,156.9231 126.8226,156.4395 131.9298,156.1073 137.037,155.9197 142.1442,155.8702 147.2515,155.9528 152.3587,156.1621 157.4659,156.4933 162.5731,156.9424 167.6803,157.5061 172.7875,158.1824 177.8947,158.9698 183.0019,159.8439 188.1092,160.7172 193.2164,161.4239 198.3236,161.6915 203.4308,161.0071 208.538,160.532 213.6452,160.251 218.7524,160.1512 223.8596,160.2215 228.9669,160.4528 234.0741,160.8376 239.1813,161.37 244.2885,162.0455 249.3957,162.8616 254.5029,163.8169 259.6101,164.8634 264.7173,165.8354 269.8246,166.4198 274.9318,166.0226 280.039,165.9529 285.1462,166.1934 290.2534,166.6958 295.3606,167.3168 300.4678,167.7921 305.575,167.6781 310.6823,166.0146 315.7895,164.5804 320.8967,163.3575 326.0039,162.3309 331.1111,161.4877 336.2183,160.8167 341.3255,160.308 346.4327,159.9526 351.54,159.7427 356.6472,159.6714 361.7544,159.7329 366.8616,159.9221 371.9688,160.2269 377.076,160.6133 382.1832,161.018 387.2904,161.3435 392.3977,161.4453 397.5049,161.0834 402.6121,160.9032 407.7193,160.8934 412.8265,161.0451 417.9337,161.3517 423.0409,161.8084 428.1481,162.4132 433.2554,163.1171 438.3626,163.7483 443.4698,163.9714 448.577,163.1579 453.6842,162.469 458.7914,161.7024 463.8986,161.151 469.0058,160.8033 474.1131,160.6066 479.2203,160.443 484.3275,160.088 489.4347,159.9202 494.5419,159.8823 499.6491,159.8504 504.7563,159.6108 509.8635,158.7789 514.9708,158.0934 520.078,157.3685 525.1852,156.2077 530.2924,155.0739 535.3996,153.9736 540.5068,152.9142 545.614,151.9035 550.7212,150.9505 555.8285,150.0642 560.9357,149.2546 566.0429,148.5314 571.1501,147.9047 576.2573,147.3896 581.3645,147.0082 586.4717,146.7392 591.5789,146.4291 596.6862,145.5561 601.7934,143.3085 606.9006,140.9403 612.0078,138.6092 617.115,136.9716 622.2222,137.8408 622.2222,173.546 617.115,170.1582 612.0078,171.9156 606.9006,174.8412 601.7934,177.5309 596.6862,179.6454 591.5789,180.7854 586.4717,181.332 581.3645,182.4222 576.2573,183.7462 571.1501,185.0825 566.0429,186.2968 560.9357,187.3448 555.8285,188.22 550.7212,188.916 545.614,189.4273 540.5068,189.7485 535.3996,189.8745 530.2924,189.799 525.1852,189.5145 520.078,189.0101 514.9708,189.4152 509.8635,190.2019 504.7563,191.0983 499.6491,191.869 494.5419,192.5043 489.4347,192.9954 484.3275,193.3278 479.2203,193.4701 474.1131,194.07 469.0058,194.8351 463.8986,195.5918 458.7914,196.2383 453.6842,196.7305 448.577,197.5243 443.4698,198.5033 438.3626,199.2454 433.2554,199.8954 428.1481,200.503 423.0409,201.0802 417.9337,201.6218 412.8265,202.1173 407.7193,202.5549 402.6121,202.9214 397.5049,203.201 392.3977,203.3754 387.2904,203.8093 382.1832,204.3926 377.076,205.0538 371.9688,205.7404 366.8616,206.4157 361.7544,207.0579 356.6472,207.6581 351.54,208.2119 346.4327,208.7138 341.3255,209.1574 336.2183,209.5352 331.1111,209.8382 326.0039,210.0562 320.8967,210.1768 315.7895,210.1856 310.6823,210.0648 305.575,209.7926 300.4678,209.9639 295.3606,210.3148 290.2534,210.7001 285.1462,211.0265 280.039,211.239 274.9318,211.3116 269.8246,211.2254 264.7173,211.6257 259.6101,212.2196 254.5029,212.8481 249.3957,213.4286 244.2885,213.9368 239.1813,214.3709 234.0741,214.7274 228.9669,215.0016 223.8596,215.1868 218.7524,215.2751 213.6452,215.2568 208.538,215.1201 203.4308,214.8508 198.3236,214.4325 193.2164,214.6993 188.1092,215.2895 183.0019,216.0074 177.8947,216.7339 172.7875,217.4072 167.6803,218.0101 162.5731,218.5421 157.4659,219.0015 152.3587,219.3858 147.2515,219.6916 142.1442,219.9143 137.037,220.049 131.9298,220.0897 126.8226,220.0295 121.7154,219.861 116.6082,219.576 111.501,219.1653 106.3938,218.6194 101.2865,217.9275 96.1793,217.0785 91.0721,216.0597 85.9649,215.9969 80.8577,216.452 75.7505,217.2281 70.6433,218.2088 65.5361,219.309 60.4288,220.4617 55.3216,221.5456 50.2144,222.1027 45.1072,222.6467 40,223.1789"></polyline>
<text class = "party cs" x="631.1111" y="156"><tspan class="party_name">C's</tspan><tspan class="party_result"> (22.0±2.2%)</tspan></text>
<polyline id="media-pp"  class="pp media" points=" 40,256.3048 45.1072,256.289 50.2144,256.2751 55.3216,256.2634 60.4288,256.2539 65.5361,256.2462 70.6433,256.239 75.7505,256.2303 80.8577,256.2169 85.9649,256.194 91.0721,256.1517 96.1793,256.0656 101.2865,255.9716 106.3938,255.8701 111.501,255.761 116.6082,255.6446 121.7154,255.5209 126.8226,255.3899 131.9298,255.2517 137.037,255.106 142.1442,254.9527 147.2515,254.7917 152.3587,254.6224 157.4659,254.4445 162.5731,254.2574 167.6803,254.0604 172.7875,253.8526 177.8947,253.633 183.0019,253.4077 188.1092,253.2003 193.2164,253.0558 198.3236,253.0502 203.4308,253.338 208.538,253.5902 213.6452,253.8092 218.7524,253.9974 223.8596,254.1571 228.9669,254.2907 234.0741,254.4006 239.1813,254.4892 244.2885,254.5591 249.3957,254.6131 254.5029,254.654 259.6101,254.6775 264.7173,254.658 269.8246,254.5365 274.9318,254.1739 280.039,253.7892 285.1462,253.3764 290.2534,252.9451 295.3606,252.5415 300.4678,252.2527 305.575,252.2266 310.6823,252.8114 315.7895,253.3441 320.8967,253.8283 326.0039,254.2671 331.1111,254.6631 336.2183,255.0185 341.3255,255.3349 346.4327,255.614 351.54,255.857 356.6472,256.0647 361.7544,256.2379 366.8616,256.3769 371.9688,256.4843 377.076,256.5708 382.1832,256.6582 387.2904,256.7837 392.3977,257.0075 397.5049,257.4406 402.6121,257.8442 407.7193,258.2195 412.8265,258.5683 417.9337,258.8929 423.0409,259.1959 428.1481,259.4808 433.2554,259.7346 438.3626,259.9021 443.4698,259.87 448.577,259.4067 453.6842,259.2443 458.7914,259.5402 463.8986,259.818 469.0058,260.0727 474.1131,260.2841 479.2203,260.4137 484.3275,260.3889 489.4347,260.371 494.5419,260.3511 499.6491,260.3206 504.7563,260.276 509.8635,260.2265 514.9708,260.2317 520.078,260.3838 525.1852,260.9097 530.2924,261.48 535.3996,262.0938 540.5068,262.75 545.614,263.4469 550.7212,264.182 555.8285,264.9522 560.9357,265.7536 566.0429,266.5818 571.1501,267.4315 576.2573,268.294 581.3645,269.1618 586.4717,270.0241 591.5789,270.8587 596.6862,271.5386 601.7934,271.7675 606.9006,272.3501 612.0078,273.1715 617.115,273.6953 622.2222,272.3718"></polyline>
<polyline id="error-pp" class="pp error" points=" 40,228.784 45.1072,229.3638 50.2144,229.9591 55.3216,230.5714 60.4288,231.5824 65.5361,232.6428 70.6433,233.6499 75.7505,234.5378 80.8577,235.2237 85.9649,235.5924 91.0721,235.4451 96.1793,234.3229 101.2865,233.3382 106.3938,232.4838 111.501,231.7529 116.6082,231.1387 121.7154,230.6349 126.8226,230.2348 131.9298,229.9325 137.037,229.7221 142.1442,229.598 147.2515,229.5551 152.3587,229.5887 157.4659,229.6946 162.5731,229.869 167.6803,230.1089 172.7875,230.4116 177.8947,230.7753 183.0019,231.1893 188.1092,231.6178 193.2164,231.9927 198.3236,232.204 203.4308,232.0602 208.538,232.0243 213.6452,232.0857 218.7524,232.2358 223.8596,232.4679 228.9669,232.7765 234.0741,233.1578 239.1813,233.609 244.2885,234.129 249.3957,234.7178 254.5029,235.3772 259.6101,236.0734 264.7173,236.6804 269.8246,236.9485 274.9318,236.3796 280.039,235.9817 285.1462,235.7345 290.2534,235.6184 295.3606,235.6025 300.4678,235.6345 305.575,235.6334 310.6823,235.4746 315.7895,235.4155 320.8967,235.4434 326.0039,235.5482 331.1111,235.7211 336.2183,235.9546 341.3255,236.242 346.4327,236.5776 351.54,236.9562 356.6472,237.3733 361.7544,237.8248 366.8616,238.307 371.9688,238.8144 377.076,239.3356 382.1832,239.8537 387.2904,240.3482 392.3977,240.7969 397.5049,241.1777 402.6121,241.641 407.7193,242.176 412.8265,242.7742 417.9337,243.4298 423.0409,244.1387 428.1481,244.899 433.2554,245.6762 438.3626,246.352 443.4698,246.7005 448.577,246.2999 453.6842,246.1843 458.7914,246.3927 463.8986,246.7262 469.0058,247.1571 474.1131,247.6037 479.2203,247.9126 484.3275,247.8079 489.4347,247.8569 494.5419,248.0158 499.6491,248.2227 504.7563,248.3891 509.8635,248.3746 514.9708,248.4289 520.078,248.4701 525.1852,248.3747 530.2924,248.4227 535.3996,248.6116 540.5068,248.9401 545.614,249.407 550.7212,250.0109 555.8285,250.7494 560.9357,251.6195 566.0429,252.617 571.1501,253.7366 576.2573,254.9568 581.3645,256.2251 586.4717,257.4375 591.5789,258.3971 596.6862,259.2148 601.7934,259.4302 606.9006,260.1852 612.0078,261.288 617.115,261.8948 622.2222,259.5652 622.2222,285.1785 617.115,285.4959 612.0078,285.055 606.9006,284.515 601.7934,284.1048 596.6862,283.8623 591.5789,283.3203 586.4717,282.6107 581.3645,282.0984 576.2573,281.6312 571.1501,281.1264 566.0429,280.5466 560.9357,279.8877 555.8285,279.1549 550.7212,278.353 545.614,277.4867 540.5068,276.56 535.3996,275.576 530.2924,274.5372 525.1852,273.4446 520.078,272.2976 514.9708,272.0344 509.8635,272.0783 504.7563,272.1628 499.6491,272.4185 494.5419,272.6863 489.4347,272.885 484.3275,272.9698 479.2203,272.9149 474.1131,272.9645 469.0058,272.9884 463.8986,272.9098 458.7914,272.6876 453.6842,272.3043 448.577,272.5135 443.4698,273.0396 438.3626,273.4523 433.2554,273.7929 428.1481,274.0626 423.0409,274.2531 417.9337,274.356 412.8265,274.3624 407.7193,274.2631 402.6121,274.0474 397.5049,273.7036 392.3977,273.2182 387.2904,273.2192 382.1832,273.4628 377.076,273.806 371.9688,274.1542 366.8616,274.4467 361.7544,274.6511 356.6472,274.7562 351.54,274.7578 346.4327,274.6505 341.3255,274.4279 336.2183,274.0824 331.1111,273.6052 326.0039,272.986 320.8967,272.2132 315.7895,271.2728 310.6823,270.1483 305.575,268.8197 300.4678,268.8708 295.3606,269.4805 290.2534,270.2718 285.1462,271.0183 280.039,271.5967 274.9318,271.9683 269.8246,272.1244 264.7173,272.6357 259.6101,273.2816 254.5029,273.9308 249.3957,274.5084 244.2885,274.9893 239.1813,275.3694 234.0741,275.6434 228.9669,275.8048 223.8596,275.8463 218.7524,275.759 213.6452,275.5328 208.538,275.1562 203.4308,274.6158 198.3236,273.8964 193.2164,274.119 188.1092,274.7828 183.0019,275.6261 177.8947,276.4907 172.7875,277.2936 167.6803,278.0119 162.5731,278.6458 157.4659,279.1945 152.3587,279.6561 147.2515,280.0282 142.1442,280.3075 137.037,280.4899 131.9298,280.5708 126.8226,280.545 121.7154,280.407 116.6082,280.1505 111.501,279.7692 106.3938,279.2564 101.2865,278.6051 96.1793,277.8082 91.0721,276.8583 85.9649,276.7955 80.8577,277.2102 75.7505,277.9227 70.6433,278.8281 65.5361,279.8496 60.4288,280.9254 55.3216,281.9553 50.2144,282.591 45.1072,283.2141 40,283.8255"></polyline>
<text class = "party pp" x="631.1111" y="274"><tspan class="party_name">PP</tspan><tspan class="party_result"> (7.5±1.6%)</tspan></text>
<polyline id="media-otros"  class="otros media" points=" 40,309.8837 45.1072,309.9407 50.2144,310.0009 55.3216,310.0646 60.4288,310.1311 65.5361,310.1974 70.6433,310.2587 75.7505,310.3082 80.8577,310.3375 85.9649,310.3342 91.0721,310.2748 96.1793,310.0988 101.2865,309.9219 106.3938,309.7451 111.501,309.5693 116.6082,309.3949 121.7154,309.2223 126.8226,309.0518 131.9298,308.8833 137.037,308.7167 142.1442,308.5515 147.2515,308.3873 152.3587,308.2235 157.4659,308.0591 162.5731,307.8932 167.6803,307.7246 172.7875,307.5519 177.8947,307.3735 183.0019,307.1943 188.1092,307.0355 193.2164,306.9397 198.3236,306.9804 203.4308,307.3114 208.538,307.6231 213.6452,307.9181 218.7524,308.1993 223.8596,308.4696 228.9669,308.7318 234.0741,308.989 239.1813,309.2441 244.2885,309.5005 249.3957,309.7617 254.5029,310.0317 259.6101,310.2947 264.7173,310.4849 269.8246,310.468 274.9318,309.9577 280.039,309.5005 285.1462,309.0901 290.2534,308.7252 295.3606,308.4137 300.4678,308.169 305.575,308.0099 310.6823,307.9826 315.7895,307.9314 320.8967,307.8609 326.0039,307.7744 331.1111,307.6748 336.2183,307.5638 341.3255,307.443 346.4327,307.3132 351.54,307.175 356.6472,307.0286 361.7544,306.874 366.8616,306.7107 371.9688,306.5409 377.076,306.3735 382.1832,306.2261 387.2904,306.1255 392.3977,306.1128 397.5049,306.2608 402.6121,306.369 407.7193,306.4403 412.8265,306.4764 417.9337,306.4787 423.0409,306.4476 428.1481,306.383 433.2554,306.2982 438.3626,306.2429 443.4698,306.3173 448.577,306.7171 453.6842,307.0935 458.7914,307.5154 463.8986,307.9038 469.0058,308.2537 474.1131,308.5651 479.2203,308.852 484.3275,309.1581 489.4347,309.4583 494.5419,309.7603 499.6491,310.0953 504.7563,310.5196 509.8635,311.1298 514.9708,311.6319 520.078,311.9391 525.1852,311.8713 530.2924,311.8579 535.3996,311.8928 540.5068,311.9714 545.614,312.0898 550.7212,312.2452 555.8285,312.435 560.9357,312.6567 566.0429,312.9083 571.1501,313.1877 576.2573,313.4845 581.3645,313.7677 586.4717,313.9821 591.5789,314.0376 596.6862,314.1781 601.7934,314.4177 606.9006,314.8234 612.0078,315.3383 617.115,315.6692 622.2222,314.9609"></polyline>
<polyline id="error-otros" class="otros error" points=" 40,289.268 45.1072,289.8371 50.2144,290.4185 55.3216,291.0128 60.4288,291.9013 65.5361,292.8207 70.6433,293.6884 75.7505,294.4474 80.8577,295.0275 85.9649,295.331 91.0721,295.1865 96.1793,294.1883 101.2865,293.2998 106.3938,292.5179 111.501,291.8391 116.6082,291.2596 121.7154,290.7751 126.8226,290.3812 131.9298,290.0733 137.037,289.8469 142.1442,289.6975 147.2515,289.6205 152.3587,289.6118 157.4659,289.6673 162.5731,289.7832 167.6803,289.9563 172.7875,290.1833 177.8947,290.4615 183.0019,290.7824 188.1092,291.1207 193.2164,291.4316 198.3236,291.6459 203.4308,291.6522 208.538,291.7516 213.6452,291.9371 218.7524,292.2032 223.8596,292.5454 228.9669,292.9605 234.0741,293.4463 239.1813,294.0017 244.2885,294.6266 249.3957,295.3221 254.5029,296.0907 259.6101,296.8921 264.7173,297.5788 269.8246,297.8637 274.9318,297.1709 280.039,296.6841 285.1462,296.3856 290.2534,296.2514 295.3606,296.2288 300.4678,296.2224 305.575,296.0728 310.6823,295.4555 315.7895,294.9278 320.8967,294.4836 326.0039,294.1172 331.1111,293.8236 336.2183,293.5976 341.3255,293.4347 346.4327,293.3303 351.54,293.2801 356.6472,293.2801 361.7544,293.3264 366.8616,293.4156 371.9688,293.5431 377.076,293.7008 382.1832,293.8764 387.2904,294.0526 392.3977,294.2069 397.5049,294.3102 402.6121,294.4593 407.7193,294.6476 412.8265,294.8691 417.9337,295.1187 423.0409,295.3915 428.1481,295.683 433.2554,295.9907 438.3626,296.3197 443.4698,296.692 448.577,297.1738 453.6842,297.6108 458.7914,297.9813 463.8986,298.4265 469.0058,298.9234 474.1131,299.4254 479.2203,299.8608 484.3275,300.1238 489.4347,300.4915 494.5419,300.9456 499.6491,301.4784 504.7563,302.0851 509.8635,302.7556 514.9708,303.3214 520.078,303.5589 525.1852,303.01 530.2924,302.5886 535.3996,302.2883 540.5068,302.1051 545.614,302.0364 550.7212,302.0804 555.8285,302.2354 560.9357,302.5001 566.0429,302.8726 571.1501,303.3509 576.2573,303.9142 581.3645,304.4952 586.4717,304.9648 591.5789,305.0955 596.6862,305.3303 601.7934,305.5675 606.9006,306.1123 612.0078,306.8489 617.115,307.2479 622.2222,305.7686 622.2222,324.1532 617.115,324.0905 612.0078,323.8277 606.9006,323.5345 601.7934,323.2679 596.6862,323.0259 591.5789,322.9798 586.4717,322.9994 581.3645,323.0402 576.2573,323.0549 571.1501,323.0245 566.0429,322.9439 560.9357,322.8133 555.8285,322.6345 550.7212,322.4101 545.614,322.1432 540.5068,321.8376 535.3996,321.4974 530.2924,321.1272 525.1852,320.7325 520.078,320.3192 514.9708,319.9424 509.8635,319.5041 504.7563,318.954 499.6491,318.7121 494.5419,318.5749 489.4347,318.4251 484.3275,318.1924 479.2203,317.8431 474.1131,317.7047 469.0058,317.584 463.8986,317.3812 458.7914,317.0495 453.6842,316.5763 448.577,316.2604 443.4698,315.9427 438.3626,316.1661 433.2554,316.6056 428.1481,317.083 423.0409,317.5037 417.9337,317.8387 412.8265,318.0837 407.7193,318.233 402.6121,318.2788 397.5049,318.2113 392.3977,318.0188 387.2904,318.1985 382.1832,318.5758 377.076,319.0462 371.9688,319.5387 366.8616,320.0057 361.7544,320.4215 356.6472,320.7772 351.54,321.0699 346.4327,321.2961 341.3255,321.4513 336.2183,321.53 331.1111,321.526 326.0039,321.4316 320.8967,321.2381 315.7895,320.9351 310.6823,320.5098 305.575,319.9469 300.4678,320.1156 295.3606,320.5986 290.2534,321.1989 285.1462,321.7945 280.039,322.317 274.9318,322.7445 269.8246,323.0723 264.7173,323.3909 259.6101,323.6973 254.5029,323.9727 249.3957,324.2013 244.2885,324.3744 239.1813,324.4865 234.0741,324.5316 228.9669,324.5032 223.8596,324.3938 218.7524,324.1954 213.6452,323.899 208.538,323.4945 203.4308,322.9706 198.3236,322.3148 193.2164,322.4478 188.1092,322.9504 183.0019,323.6062 177.8947,324.2855 172.7875,324.9205 167.6803,325.4928 162.5731,326.0031 157.4659,326.4509 152.3587,326.8352 147.2515,327.1542 142.1442,327.4056 137.037,327.5864 131.9298,327.6933 126.8226,327.7225 121.7154,327.6696 116.6082,327.5301 111.501,327.2994 106.3938,326.9724 101.2865,326.5441 96.1793,326.0093 91.0721,325.363 85.9649,325.3374 80.8577,325.6475 75.7505,326.1689 70.6433,326.829 65.5361,327.5741 60.4288,328.3609 55.3216,329.1165 50.2144,329.5834 45.1072,330.0442 40,330.4993"></polyline>
<text class = "party otros" x="631.1111" y="317"><tspan class="party_name">Otros</tspan><tspan class="party_result"> (2.3±1.1%)</tspan></text>
<g id="encuesta-1">
<circle id="encuesta-1-cup" class="encuesta nc_report cup" cx="622.2222" cy="287.2727" r="3.1623" ></circle>
<circle id="encuesta-1-erc" class="encuesta nc_report erc" cx="622.2222" cy="138.5859" r="3.1623" ></circle>
<circle id="encuesta-1-jxcat" class="encuesta nc_report jxcat" cx="622.2222" cy="223.4343" r="3.1623" ></circle>
<circle id="encuesta-1-cec" class="encuesta nc_report cec" cx="622.2222" cy="265.4545" r="3.1623" ></circle>
<circle id="encuesta-1-psc" class="encuesta nc_report psc" cx="622.2222" cy="214.5455" r="3.1623" ></circle>
<circle id="encuesta-1-cs" class="encuesta nc_report cs" cx="622.2222" cy="164.4444" r="3.1623" ></circle>
<circle id="encuesta-1-pp" class="encuesta nc_report pp" cx="622.2222" cy="258.1818" r="3.1623" ></circle>
<circle id="encuesta-1-otros" class="encuesta nc_report otros" cx="622.2222" cy="306.6667" r="3.1623" ></circle>
</g>
<g id="encuesta-2">
<circle id="encuesta-2-cup" class="encuesta metroscopica cup" cx="617.115" cy="285.6566" r="4.2426" ></circle>
<circle id="encuesta-2-erc" class="encuesta metroscopica erc" cx="617.115" cy="119.1919" r="4.2426" ></circle>
<circle id="encuesta-2-jxcat" class="encuesta metroscopica jxcat" cx="617.115" cy="223.4343" r="4.2426" ></circle>
<circle id="encuesta-2-cec" class="encuesta metroscopica cec" cx="617.115" cy="279.1919" r="4.2426" ></circle>
<circle id="encuesta-2-psc" class="encuesta metroscopica psc" cx="617.115" cy="212.9293" r="4.2426" ></circle>
<circle id="encuesta-2-cs" class="encuesta metroscopica cs" cx="617.115" cy="128.8889" r="4.2426" ></circle>
<circle id="encuesta-2-pp" class="encuesta metroscopica pp" cx="617.115" cy="286.4646" r="4.2426" ></circle>
<circle id="encuesta-2-otros" class="encuesta metroscopica otros" cx="617.115" cy="322.8283" r="4.2426" ></circle>
</g>
<g id="encuesta-3">
<circle id="encuesta-3-cup" class="encuesta gesop cup" cx="596.6862" cy="282.4242" r="2.8284" ></circle>
<circle id="encuesta-3-erc" class="encuesta gesop erc" cx="596.6862" cy="140.202" r="2.8284" ></circle>
<circle id="encuesta-3-jxcat" class="encuesta gesop jxcat" cx="596.6862" cy="200" r="2.8284" ></circle>
<circle id="encuesta-3-cec" class="encuesta gesop cec" cx="596.6862" cy="263.8384" r="2.8284" ></circle>
<circle id="encuesta-3-psc" class="encuesta gesop psc" cx="596.6862" cy="187.0707" r="2.8284" ></circle>
<circle id="encuesta-3-cs" class="encuesta gesop cs" cx="596.6862" cy="183.0303" r="2.8284" ></circle>
<circle id="encuesta-3-pp" class="encuesta gesop pp" cx="596.6862" cy="287.2727" r="2.8284" ></circle>
<circle id="encuesta-3-otros" class="encuesta gesop otros" cx="596.6862" cy="314.7475" r="2.8284" ></circle>
</g>
<g id="encuesta-4">
<circle id="encuesta-4-cup" class="encuesta gad3 cup" cx="586.4717" cy="288.0808" r="2.8302" ></circle>
<circle id="encuesta-4-erc" class="encuesta gad3 erc" cx="586.4717" cy="146.6667" r="2.8302" ></circle>
<circle id="encuesta-4-jxcat" class="encuesta gad3 jxcat" cx="586.4717" cy="198.3838" r="2.8302" ></circle>
<circle id="encuesta-4-cec" class="encuesta gad3 cec" cx="586.4717" cy="271.9192" r="2.8302" ></circle>
<circle id="encuesta-4-psc" class="encuesta gad3 psc" cx="586.4717" cy="211.3131" r="2.8302" ></circle>
<circle id="encuesta-4-cs" class="encuesta gad3 cs" cx="586.4717" cy="153.1313" r="2.8302" ></circle>
<circle id="encuesta-4-pp" class="encuesta gad3 pp" cx="586.4717" cy="270.303" r="2.8302" ></circle>
<circle id="encuesta-4-otros" class="encuesta gad3 otros" cx="586.4717" cy="318.7879" r="2.8302" ></circle>
</g>
<g id="encuesta-5">
<circle id="encuesta-5-cup" class="encuesta nc_report cup" cx="520.078" cy="282.4242" r="3.1623" ></circle>
<circle id="encuesta-5-erc" class="encuesta nc_report erc" cx="520.078" cy="120.8081" r="3.1623" ></circle>
<circle id="encuesta-5-jxcat" class="encuesta nc_report jxcat" cx="520.078" cy="246.8687" r="3.1623" ></circle>
<circle id="encuesta-5-cec" class="encuesta nc_report cec" cx="520.078" cy="249.2929" r="3.1623" ></circle>
<circle id="encuesta-5-psc" class="encuesta nc_report psc" cx="520.078" cy="223.4343" r="3.1623" ></circle>
<circle id="encuesta-5-cs" class="encuesta nc_report cs" cx="520.078" cy="174.9495" r="3.1623" ></circle>
<circle id="encuesta-5-pp" class="encuesta nc_report pp" cx="520.078" cy="248.4848" r="3.1623" ></circle>
<circle id="encuesta-5-otros" class="encuesta nc_report otros" cx="520.078" cy="312.3232" r="3.1623" ></circle>
</g>
<g id="encuesta-6">
<circle id="encuesta-6-cup" class="encuesta gad3 cup" cx="520.078" cy="282.4242" r="3.5114" ></circle>
<circle id="encuesta-6-erc" class="encuesta gad3 erc" cx="520.078" cy="96.5657" r="3.5114" ></circle>
<circle id="encuesta-6-jxcat" class="encuesta gad3 jxcat" cx="520.078" cy="249.2929" r="3.5114" ></circle>
<circle id="encuesta-6-cec" class="encuesta gad3 cec" cx="520.078" cy="266.2626" r="3.5114" ></circle>
<circle id="encuesta-6-psc" class="encuesta gad3 psc" cx="520.078" cy="215.3535" r="3.5114" ></circle>
<circle id="encuesta-6-cs" class="encuesta gad3 cs" cx="520.078" cy="166.8687" r="3.5114" ></circle>
<circle id="encuesta-6-pp" class="encuesta gad3 pp" cx="520.078" cy="263.0303" r="3.5114" ></circle>
<circle id="encuesta-6-otros" class="encuesta gad3 otros" cx="520.078" cy="318.7879" r="3.5114" ></circle>
</g>
<g id="encuesta-7">
<circle id="encuesta-7-cup" class="encuesta sociometrica cup" cx="504.7563" cy="287.2727" r="3.1623" ></circle>
<circle id="encuesta-7-erc" class="encuesta sociometrica erc" cx="504.7563" cy="81.2121" r="3.1623" ></circle>
<circle id="encuesta-7-jxcat" class="encuesta sociometrica jxcat" cx="504.7563" cy="251.7172" r="3.1623" ></circle>
<circle id="encuesta-7-cec" class="encuesta sociometrica cec" cx="504.7563" cy="252.5253" r="3.1623" ></circle>
<circle id="encuesta-7-psc" class="encuesta sociometrica psc" cx="504.7563" cy="234.7475" r="3.1623" ></circle>
<circle id="encuesta-7-cs" class="encuesta sociometrica cs" cx="504.7563" cy="185.4545" r="3.1623" ></circle>
<circle id="encuesta-7-pp" class="encuesta sociometrica pp" cx="504.7563" cy="260.6061" r="3.1623" ></circle>
<circle id="encuesta-7-otros" class="encuesta sociometrica otros" cx="504.7563" cy="305.0505" r="3.1623" ></circle>
</g>
<g id="encuesta-8">
<circle id="encuesta-8-cup" class="encuesta sigmados cup" cx="479.2203" cy="282.4242" r="3.1623" ></circle>
<circle id="encuesta-8-erc" class="encuesta sigmados erc" cx="479.2203" cy="120" r="3.1623" ></circle>
<circle id="encuesta-8-jxcat" class="encuesta sigmados jxcat" cx="479.2203" cy="254.1414" r="3.1623" ></circle>
<circle id="encuesta-8-cec" class="encuesta sigmados cec" cx="479.2203" cy="244.4444" r="3.1623" ></circle>
<circle id="encuesta-8-psc" class="encuesta sigmados psc" cx="479.2203" cy="211.3131" r="3.1623" ></circle>
<circle id="encuesta-8-cs" class="encuesta sigmados cs" cx="479.2203" cy="174.9495" r="3.1623" ></circle>
<circle id="encuesta-8-pp" class="encuesta sigmados pp" cx="479.2203" cy="263.0303" r="3.1623" ></circle>
<circle id="encuesta-8-otros" class="encuesta sigmados otros" cx="479.2203" cy="308.2828" r="3.1623" ></circle>
</g>
<g id="encuesta-9">
<circle id="encuesta-9-cup" class="encuesta nc_report cup" cx="453.6842" cy="288.0808" r="3.1623" ></circle>
<circle id="encuesta-9-erc" class="encuesta nc_report erc" cx="453.6842" cy="134.5455" r="3.1623" ></circle>
<circle id="encuesta-9-jxcat" class="encuesta nc_report jxcat" cx="453.6842" cy="235.5556" r="3.1623" ></circle>
<circle id="encuesta-9-cec" class="encuesta nc_report cec" cx="453.6842" cy="241.2121" r="3.1623" ></circle>
<circle id="encuesta-9-psc" class="encuesta nc_report psc" cx="453.6842" cy="227.4747" r="3.1623" ></circle>
<circle id="encuesta-9-cs" class="encuesta nc_report cs" cx="453.6842" cy="178.1818" r="3.1623" ></circle>
<circle id="encuesta-9-pp" class="encuesta nc_report pp" cx="453.6842" cy="248.4848" r="3.1623" ></circle>
<circle id="encuesta-9-otros" class="encuesta nc_report otros" cx="453.6842" cy="305.0505" r="3.1623" ></circle>
</g>
<g id="encuesta-10">
<circle id="encuesta-10-cup" class="encuesta gesop cup" cx="443.4698" cy="270.303" r="2.8284" ></circle>
<circle id="encuesta-10-erc" class="encuesta gesop erc" cx="443.4698" cy="106.2626" r="2.8284" ></circle>
<circle id="encuesta-10-jxcat" class="encuesta gesop jxcat" cx="443.4698" cy="236.3636" r="2.8284" ></circle>
<circle id="encuesta-10-cec" class="encuesta gesop cec" cx="443.4698" cy="260.6061" r="2.8284" ></circle>
<circle id="encuesta-10-psc" class="encuesta gesop psc" cx="443.4698" cy="216.1616" r="2.8284" ></circle>
<circle id="encuesta-10-cs" class="encuesta gesop cs" cx="443.4698" cy="197.5758" r="2.8284" ></circle>
<circle id="encuesta-10-pp" class="encuesta gesop pp" cx="443.4698" cy="272.7273" r="2.8284" ></circle>
<circle id="encuesta-10-otros" class="encuesta gesop otros" cx="443.4698" cy="298.5859" r="2.8284" ></circle>
</g>
<g id="encuesta-11">
<circle id="encuesta-11-cup" class="encuesta sociometrica cup" cx="392.3977" cy="282.4242" r="2.8284" ></circle>
<circle id="encuesta-11-erc" class="encuesta sociometrica erc" cx="392.3977" cy="76.3636" r="2.8284" ></circle>
<circle id="encuesta-11-jxcat" class="encuesta sociometrica jxcat" cx="392.3977" cy="267.8788" r="2.8284" ></circle>
<circle id="encuesta-11-cec" class="encuesta sociometrica cec" cx="392.3977" cy="236.3636" r="2.8284" ></circle>
<circle id="encuesta-11-psc" class="encuesta sociometrica psc" cx="392.3977" cy="256.5657" r="2.8284" ></circle>
<circle id="encuesta-11-cs" class="encuesta sociometrica cs" cx="392.3977" cy="185.4545" r="2.8284" ></circle>
<circle id="encuesta-11-pp" class="encuesta sociometrica pp" cx="392.3977" cy="251.7172" r="2.8284" ></circle>
<circle id="encuesta-11-otros" class="encuesta sociometrica otros" cx="392.3977" cy="301.8182" r="2.8284" ></circle>
</g>
<g id="encuesta-12">
<circle id="encuesta-12-cup" class="encuesta nc_report cup" cx="305.575" cy="288.0808" r="3.5426" ></circle>
<circle id="encuesta-12-erc" class="encuesta nc_report erc" cx="305.575" cy="130.5051" r="3.5426" ></circle>
<circle id="encuesta-12-jxcat" class="encuesta nc_report jxcat" cx="305.575" cy="230.7071" r="3.5426" ></circle>
<circle id="encuesta-12-cec" class="encuesta nc_report cec" cx="305.575" cy="239.596" r="3.5426" ></circle>
<circle id="encuesta-12-psc" class="encuesta nc_report psc" cx="305.575" cy="222.6263" r="3.5426" ></circle>
<circle id="encuesta-12-cs" class="encuesta nc_report cs" cx="305.575" cy="194.3434" r="3.5426" ></circle>
<circle id="encuesta-12-pp" class="encuesta nc_report pp" cx="305.575" cy="246.0606" r="3.5426" ></circle>
<circle id="encuesta-12-otros" class="encuesta nc_report otros" cx="305.575" cy="306.6667" r="3.5426" ></circle>
</g>
<g id="encuesta-13">
<circle id="encuesta-13-cup" class="encuesta celeste-tel cup" cx="269.8246" cy="285.6566" r="2.8284" ></circle>
<circle id="encuesta-13-erc" class="encuesta celeste-tel erc" cx="269.8246" cy="133.7374" r="2.8284" ></circle>
<circle id="encuesta-13-jxcat" class="encuesta celeste-tel jxcat" cx="269.8246" cy="223.4343" r="2.8284" ></circle>
<circle id="encuesta-13-cec" class="encuesta celeste-tel cec" cx="269.8246" cy="234.7475" r="2.8284" ></circle>
<circle id="encuesta-13-psc" class="encuesta celeste-tel psc" cx="269.8246" cy="213.7374" r="2.8284" ></circle>
<circle id="encuesta-13-cs" class="encuesta celeste-tel cs" cx="269.8246" cy="192.7273" r="2.8284" ></circle>
<circle id="encuesta-13-pp" class="encuesta celeste-tel pp" cx="269.8246" cy="257.3737" r="2.8284" ></circle>
<circle id="encuesta-13-otros" class="encuesta celeste-tel otros" cx="269.8246" cy="317.1717" r="2.8284" ></circle>
</g>
<g id="encuesta-14">
<circle id="encuesta-14-cup" class="encuesta sociometrica cup" cx="198.3236" cy="278.3838" r="2.6458" ></circle>
<circle id="encuesta-14-erc" class="encuesta sociometrica erc" cx="198.3236" cy="107.0707" r="2.6458" ></circle>
<circle id="encuesta-14-jxcat" class="encuesta sociometrica jxcat" cx="198.3236" cy="230.7071" r="2.6458" ></circle>
<circle id="encuesta-14-cec" class="encuesta sociometrica cec" cx="198.3236" cy="249.2929" r="2.6458" ></circle>
<circle id="encuesta-14-psc" class="encuesta sociometrica psc" cx="198.3236" cy="251.7172" r="2.6458" ></circle>
<circle id="encuesta-14-cs" class="encuesta sociometrica cs" cx="198.3236" cy="190.303" r="2.6458" ></circle>
<circle id="encuesta-14-pp" class="encuesta sociometrica pp" cx="198.3236" cy="248.4848" r="2.6458" ></circle>
<circle id="encuesta-14-otros" class="encuesta sociometrica otros" cx="198.3236" cy="302.6263" r="2.6458" ></circle>
</g>
<g id="encuesta-15">
<circle id="encuesta-15-cup" class="encuesta nc_report cup" cx="91.0721" cy="280.8081" r="3.5426" ></circle>
<circle id="encuesta-15-erc" class="encuesta nc_report erc" cx="91.0721" cy="140.202" r="3.5426" ></circle>
<circle id="encuesta-15-jxcat" class="encuesta nc_report jxcat" cx="91.0721" cy="221.0101" r="3.5426" ></circle>
<circle id="encuesta-15-cec" class="encuesta nc_report cec" cx="91.0721" cy="235.5556" r="3.5426" ></circle>
<circle id="encuesta-15-psc" class="encuesta nc_report psc" cx="91.0721" cy="221.0101" r="3.5426" ></circle>
<circle id="encuesta-15-cs" class="encuesta nc_report cs" cx="91.0721" cy="191.9192" r="3.5426" ></circle>
<circle id="encuesta-15-pp" class="encuesta nc_report pp" cx="91.0721" cy="256.5657" r="3.5426" ></circle>
<circle id="encuesta-15-otros" class="encuesta nc_report otros" cx="91.0721" cy="311.5152" r="3.5426" ></circle>
</g>
  
<text class="pie izquierda" x="0" y="395">Datos: Electograph | Modelo propio</text>
<text class="pie derecha" x="800" y="395">Jesús Carro | <tspan style="font-weight:bold">1datomas</tspan>.com</text>
</svg>
