<?xml version="1.0" encoding="utf-8"?><!DOCTYPE svg PUBLIC "-//W3C//DTD SVG 1.1//EN" "http://www.w3.org/Graphics/SVG/1.1/DTD/svg11.dtd">
<svg xmlns="http://www.w3.org/2000/svg" xmlns:xlink="http://www.w3.org/1999/xlink" version="1.1" viewBox="0 0 800 400">

<text x="0" y="20" style="font-size:large;font-weight:bold;color:black">Intención de voto en Elecciones Autonómicas en Cataluña</text>
<text x="0" y="40" style="color:gray">Promedio de encuestas y estimación de error</text>

<text class="horizontal axis" x="36" y="333.3333">0%</text>
<line class="horizontal axis" x1="40" y1="333.3333" x2="622.2222" y2="333.3333"></line>
<text class="horizontal axis" x="36" y="250">10%</text>
<line class="horizontal axis" x1="40" y1="250" x2="622.2222" y2="250"></line>
<text class="horizontal axis" x="36" y="166.6667">20%</text>
<line class="horizontal axis" x1="40" y1="166.6667" x2="622.2222" y2="166.6667"></line>
<text class="horizontal axis" x="36" y="83.3333">30%</text>
<line class="horizontal axis" x1="40" y1="83.3333" x2="622.2222" y2="83.3333"></line>
<line class="vertical axis" x1="40" y1="336.6667" x2="40" y2="66.6667"></line>
<text class="vertical axis" x="40" y="343.3333">Ago-2017</text>
<line class="vertical axis" x1="199.7247" y1="336.6667" x2="199.7247" y2="66.6667"></line>
<text class="vertical axis" x="199.7247" y="343.3333">Sep-2017</text>
<line class="vertical axis" x1="354.297" y1="336.6667" x2="354.297" y2="66.6667"></line>
<text class="vertical axis" x="354.297" y="343.3333">Oct-2017</text>
<line class="vertical axis" x1="514.0216" y1="336.6667" x2="514.0216" y2="66.6667"></line>
<text class="vertical axis" x="514.0216" y="343.3333">Nov-2017</text>
<polyline id="media-cup"  class="cup media" points=" 40,279.9921 45.1524,279.9557 50.3048,279.9178 55.4572,279.8783 60.6096,279.8378 65.762,279.7977 70.9145,279.7604 76.0669,279.7289 81.2193,279.7072 86.3717,279.7002 91.5241,279.7181 96.6765,279.7861 101.8289,279.8511 106.9813,279.9122 112.1337,279.9685 117.2861,280.0194 122.4385,280.0644 127.591,280.1028 132.7434,280.1341 137.8958,280.1579 143.0482,280.1737 148.2006,280.181 153.353,280.1793 158.5054,280.1681 163.6578,280.1466 168.8102,280.114 173.9626,280.0696 179.115,280.0121 184.2675,279.9453 189.4199,279.8854 194.5723,279.8655 199.7247,279.9448 204.8771,280.2481 210.0295,280.5388 215.1819,280.8172 220.3343,281.0837 225.4867,281.3391 230.6391,281.5839 235.7915,281.8189 240.944,282.0449 246.0964,282.2624 251.2488,282.4724 256.4012,282.6752 261.5536,282.8675 266.706,283.0385 271.8584,283.1728 277.0108,283.2468 282.1632,283.353 287.3156,283.4894 292.468,283.6477 297.6205,283.8038 302.7729,283.9149 307.9253,283.9106 313.0777,283.6266 318.2301,283.3642 323.3825,283.1216 328.5349,282.8972 333.6873,282.6895 338.8397,282.4972 343.9921,282.3189 349.1445,282.1536 354.297,282 359.4494,281.8571 364.6018,281.724 369.7542,281.5998 374.9066,281.484 380.059,281.377 385.2114,281.2794 390.3638,281.1915 395.5162,281.1123 400.6686,281.0393 405.821,280.9557 410.9735,280.862 416.1259,280.758 421.2783,280.6429 426.4307,280.5153 431.5831,280.3733 436.7355,280.2322 441.8879,280.1542 447.0403,280.2667 452.1927,280.8284 457.3451,281.1876 462.4975,281.2853 467.65,281.3805 472.8024,281.4702 477.9548,281.5578 483.1072,281.6576 488.2596,281.8071 493.412,281.9534 498.5644,282.0821 503.7168,282.1666 508.8692,282.1678 514.0216,282.0222 519.174,281.917 524.3265,281.8724 529.4789,281.9425 534.6313,282.0169 539.7837,282.0971 544.9361,282.1841 550.0885,282.2787 555.2409,282.3813 560.3933,282.4921 565.5457,282.611 570.6981,282.738 575.8505,282.8725 581.0029,283.0066 586.1554,283.1131 591.3078,283.1433 596.4602,283.015 601.6126,282.9641 606.765,283.0522 611.9174,283.1598 617.0698,283.2729 622.2222,283.3441"></polyline>
<polyline id="error-cup" class="cup error" points=" 40,256.3198 45.1524,256.8757 50.3048,257.4415 55.4572,258.0181 60.6096,258.8075 65.762,259.7186 70.9145,260.5814 76.0669,261.3431 81.2193,261.9379 86.3717,262.2758 91.5241,262.2011 96.6765,261.3552 101.8289,260.6315 106.9813,260.024 112.1337,259.5269 117.2861,259.1343 122.4385,258.8404 127.591,258.6394 132.7434,258.5289 137.8958,258.5171 143.0482,258.5523 148.2006,258.656 153.353,258.8404 158.5054,259.0881 163.6578,259.3953 168.8102,259.7587 173.9626,260.1756 179.115,260.6436 184.2675,261.1508 189.4199,261.6598 194.5723,262.1034 199.7247,262.3764 204.8771,262.2964 210.0295,262.3313 215.1819,262.4707 220.3343,262.7057 225.4867,263.029 230.6391,263.4341 235.7915,263.9159 240.944,264.4704 246.0964,265.0943 251.2488,265.7854 256.4012,266.5422 261.5536,267.3347 266.706,268.0634 271.8584,268.5475 277.0108,268.453 282.1632,268.5628 287.3156,268.8621 292.468,269.3157 297.6205,269.8281 302.7729,270.23 307.9253,270.2437 313.0777,269.2698 318.2301,268.4469 323.3825,267.7617 328.5349,267.2027 333.6873,266.7599 338.8397,266.4244 343.9921,266.1883 349.1445,266.0443 354.297,265.9859 359.4494,266.0073 364.6018,266.1032 369.7542,266.2691 374.9066,266.4966 380.059,266.7656 385.2114,267.0406 390.3638,267.2685 395.5162,267.3716 400.6686,267.2228 405.821,267.165 410.9735,267.1884 416.1259,267.2838 421.2783,267.4432 426.4307,267.6589 431.5831,267.9236 436.7355,268.2339 441.8879,268.5987 447.0403,269.0524 452.1927,269.7 457.3451,270.1125 462.4975,270.1165 467.65,270.2472 472.8024,270.4821 477.9548,270.7696 483.1072,271.0213 488.2596,271.093 493.412,271.2941 498.5644,271.5788 503.7168,271.8713 508.8692,272.0529 514.0216,271.9203 519.174,271.84 524.3265,271.6686 529.4789,271.1206 534.6313,270.652 539.7837,270.2653 544.9361,269.9643 550.0885,269.7534 555.2409,269.6374 560.3933,269.6213 565.5457,269.7101 570.6981,269.9082 575.8505,270.2191 581.0029,270.6246 586.1554,271.0494 591.3078,271.3388 596.4602,271.2037 601.6126,271.172 606.765,271.1264 611.9174,271.3331 617.0698,271.7082 622.2222,271.853 622.2222,294.8351 617.0698,294.8376 611.9174,294.9864 606.765,294.978 601.6126,294.7562 596.4602,294.8263 591.3078,294.9478 586.1554,295.1768 581.0029,295.3885 575.8505,295.5258 570.6981,295.5678 565.5457,295.5119 560.3933,295.3628 555.2409,295.1252 550.0885,294.8041 544.9361,294.404 539.7837,293.9289 534.6313,293.3819 529.4789,292.7644 524.3265,292.0762 519.174,291.9941 514.0216,292.1242 508.8692,292.2827 503.7168,292.462 498.5644,292.5853 493.412,292.6127 488.2596,292.5212 483.1072,292.294 477.9548,292.346 472.8024,292.4584 467.65,292.5138 462.4975,292.4542 457.3451,292.2628 452.1927,291.9568 447.0403,291.481 441.8879,291.7097 436.7355,292.2305 431.5831,292.823 426.4307,293.3717 421.2783,293.8425 416.1259,294.2321 410.9735,294.5357 405.821,294.7464 400.6686,294.8558 395.5162,294.853 390.3638,295.1145 385.2114,295.5182 380.059,295.9883 374.9066,296.4713 369.7542,296.9304 364.6018,297.3448 359.4494,297.707 354.297,298.0141 349.1445,298.2629 343.9921,298.4496 338.8397,298.5699 333.6873,298.6191 328.5349,298.5916 323.3825,298.4814 318.2301,298.2815 313.0777,297.9835 307.9253,297.5774 302.7729,297.5998 297.6205,297.7795 292.468,297.9798 287.3156,298.1166 282.1632,298.1432 277.0108,298.0405 271.8584,297.7981 266.706,298.0136 261.5536,298.4003 256.4012,298.8082 251.2488,299.1594 246.0964,299.4306 240.944,299.6193 235.7915,299.7219 230.6391,299.7337 225.4867,299.6492 220.3343,299.4617 215.1819,299.1637 210.0295,298.7463 204.8771,298.1999 199.7247,297.5133 194.5723,297.6276 189.4199,298.1109 184.2675,298.7398 179.115,299.3806 173.9626,299.9635 168.8102,300.4693 163.6578,300.8978 158.5054,301.2481 153.353,301.5183 148.2006,301.706 143.0482,301.7951 137.8958,301.7987 132.7434,301.7393 127.591,301.5661 122.4385,301.2883 117.2861,300.9045 112.1337,300.4101 106.9813,299.8003 101.8289,299.0708 96.6765,298.2171 91.5241,297.235 86.3717,297.1247 81.2193,297.4764 76.0669,298.1148 70.9145,298.9393 65.762,299.8767 60.6096,300.8681 55.4572,301.7386 50.3048,302.394 45.1524,303.0357 40,303.6645"></polyline>
<text class = "party cup" x="631.1111" y="296"><tspan class="party_name">CUP</tspan><tspan class="party_result"> (6.0±1.4%)</tspan></text>
<polyline id="media-erc"  class="erc media" points=" 40,123.9973 45.1524,124.3746 50.3048,124.7725 55.4572,125.1922 60.6096,125.6288 65.762,126.0638 70.9145,126.4661 76.0669,126.7947 81.2193,126.9982 86.3717,127.0016 91.5241,126.6625 96.6765,125.6131 101.8289,124.566 106.9813,123.5294 112.1337,122.51 117.2861,121.5133 122.4385,120.5434 127.591,119.6036 132.7434,118.6958 137.8958,117.821 143.0482,116.9794 148.2006,116.1704 153.353,115.3926 158.5054,114.6441 163.6578,113.9221 168.8102,113.2235 173.9626,112.5446 179.115,111.8808 184.2675,111.244 189.4199,110.686 194.5723,110.3066 199.7247,110.2759 204.8771,110.9498 210.0295,111.5758 215.1819,112.1633 220.3343,112.7215 225.4867,113.259 230.6391,113.7837 235.7915,114.3033 240.944,114.8252 246.0964,115.3564 251.2488,115.9038 256.4012,116.4745 261.5536,117.0437 266.706,117.5118 271.8584,117.6853 277.0108,117.1678 282.1632,116.8003 287.3156,116.5807 292.468,116.4916 297.6205,116.4687 302.7729,116.3827 307.9253,116.001 313.0777,114.767 318.2301,113.5426 323.3825,112.3312 328.5349,111.1349 333.6873,109.9546 338.8397,108.7899 343.9921,107.64 349.1445,106.5024 354.297,105.3743 359.4494,104.2512 364.6018,103.128 369.7542,101.9978 374.9066,100.8721 380.059,99.8122 385.2114,98.9417 390.3638,98.4568 395.5162,98.6664 400.6686,100.138 405.821,101.4244 410.9735,102.5497 416.1259,103.535 421.2783,104.3985 426.4307,105.1561 431.5831,105.8212 436.7355,106.4062 441.8879,106.9335 447.0403,107.4553 452.1927,108.0952 457.3451,108.2475 462.4975,107.5706 467.65,106.9756 472.8024,106.4449 477.9548,105.9137 483.1072,105.2269 488.2596,104.0336 493.412,102.8414 498.5644,101.7449 503.7168,100.9299 508.8692,100.6934 514.0216,101.5528 519.174,102.2547 524.3265,102.9461 529.4789,103.9639 534.6313,105.0463 539.7837,106.1974 544.9361,107.4197 550.0885,108.714 555.2409,110.0796 560.3933,111.5133 565.5457,113.0096 570.6981,114.5607 575.8505,116.1562 581.0029,117.7372 586.1554,119.1313 591.3078,120.0104 596.4602,119.7505 601.6126,119.3197 606.765,118.174 611.9174,117.1122 617.0698,116.1923 622.2222,115.5721"></polyline>
<polyline id="error-erc" class="erc error" points=" 40,79.8431 45.1524,80.9995 50.3048,82.1964 55.4572,83.4365 60.6096,85.2469 65.762,87.3881 70.9145,89.4122 76.0669,91.1755 81.2193,92.4973 86.3717,93.1249 91.5241,92.6094 96.6765,89.8809 101.8289,87.387 106.9813,85.124 112.1337,83.0875 117.2861,81.2725 122.4385,79.6729 127.591,78.2819 132.7434,77.1004 137.8958,76.1563 143.0482,75.3199 148.2006,74.6519 153.353,74.1878 158.5054,73.8852 163.6578,73.7365 168.8102,73.735 173.9626,73.8742 179.115,74.1485 184.2675,74.5424 189.4199,75.011 194.5723,75.4689 199.7247,75.7819 204.8771,75.738 210.0295,75.8794 215.1819,76.1955 220.3343,76.678 225.4867,77.321 230.6391,78.1204 235.7915,79.0738 240.944,80.1806 246.0964,81.4417 251.2488,82.86 256.4012,84.4405 261.5536,86.1103 266.706,87.6053 271.8584,88.4205 277.0108,87.5724 282.1632,87.1945 287.3156,87.2617 292.468,87.7079 297.6205,88.3381 302.7729,88.7871 307.9253,88.4337 313.0777,85.9099 318.2301,83.6426 323.3825,81.6101 328.5349,79.7941 333.6873,78.1785 338.8397,76.7483 343.9921,75.4898 349.1445,74.3895 354.297,73.4345 359.4494,72.6121 364.6018,71.9095 369.7542,71.3138 374.9066,70.8227 380.059,70.4608 385.2114,70.2862 390.3638,70.397 395.5162,70.9608 400.6686,72.3175 405.821,73.679 410.9735,75.0498 416.1259,76.435 421.2783,77.8394 426.4307,79.2678 431.5831,80.7249 436.7355,82.1872 441.8879,83.5716 447.0403,84.7431 452.1927,85.5104 457.3451,85.7378 462.4975,84.8645 467.65,84.3223 472.8024,84.0565 477.9548,83.8967 483.1072,83.4867 488.2596,82.1166 493.412,81.0042 498.5644,80.1867 503.7168,79.7592 508.8692,79.871 514.0216,80.7767 519.174,81.5433 524.3265,81.9997 529.4789,81.8268 534.6313,81.8706 539.7837,82.1348 544.9361,82.625 550.0885,83.3476 555.2409,84.3087 560.3933,85.5132 565.5457,86.9641 570.6981,88.6618 575.8505,90.6037 581.0029,92.7114 586.1554,94.722 591.3078,96.1051 596.4602,95.8394 601.6126,95.4432 606.765,94.0183 611.9174,93.1207 617.0698,92.6785 622.2222,92.1845 622.2222,138.9598 617.0698,139.7062 611.9174,141.1037 606.765,142.3296 601.6126,143.1961 596.4602,143.6616 591.3078,143.9157 586.1554,143.5407 581.0029,142.763 575.8505,141.7088 570.6981,140.4597 565.5457,139.0552 560.3933,137.5134 555.2409,135.8505 550.0885,134.0804 544.9361,132.2143 539.7837,130.26 534.6313,128.222 529.4789,126.1009 524.3265,123.8925 519.174,122.966 514.0216,122.3289 508.8692,121.5157 503.7168,122.1007 498.5644,123.3031 493.412,124.6786 488.2596,125.9507 483.1072,126.9671 477.9548,127.9307 472.8024,128.8333 467.65,129.629 462.4975,130.2768 457.3451,130.7571 452.1927,130.68 447.0403,130.1676 441.8879,130.2954 436.7355,130.6251 431.5831,130.9174 426.4307,131.0445 421.2783,130.9577 416.1259,130.6349 410.9735,130.0495 405.821,129.1698 400.6686,127.9586 395.5162,126.372 390.3638,126.5167 385.2114,127.5972 380.059,129.1636 374.9066,130.9216 369.7542,132.6817 364.6018,134.3464 359.4494,135.8904 354.297,137.314 349.1445,138.6154 343.9921,139.7901 338.8397,140.8315 333.6873,141.7306 328.5349,142.4758 323.3825,143.0524 318.2301,143.4426 313.0777,143.624 307.9253,143.5682 302.7729,143.9783 297.6205,144.5992 292.468,145.2754 287.3156,145.8996 282.1632,146.406 277.0108,146.7632 271.8584,146.9501 266.706,147.4182 261.5536,147.9771 256.4012,148.5085 251.2488,148.9476 246.0964,149.271 240.944,149.4698 235.7915,149.5328 230.6391,149.447 225.4867,149.197 220.3343,148.7651 215.1819,148.1312 210.0295,147.2722 204.8771,146.1617 199.7247,144.7698 194.5723,145.1443 189.4199,146.361 184.2675,147.9455 179.115,149.6131 173.9626,151.215 168.8102,152.7121 163.6578,154.1077 158.5054,155.403 153.353,156.5975 148.2006,157.6889 143.0482,158.639 137.8958,159.4857 132.7434,160.2912 127.591,160.9253 122.4385,161.414 117.2861,161.754 112.1337,161.9324 106.9813,161.9348 101.8289,161.745 96.6765,161.3452 91.5241,160.7156 86.3717,160.8784 81.2193,161.4992 76.0669,162.414 70.9145,163.5199 65.762,164.7394 60.6096,166.0106 55.4572,166.9479 50.3048,167.3486 45.1524,167.7496 40,168.1514"></polyline>
<text class = "party erc" x="631.1111" y="116"><tspan class="party_name">ERC</tspan><tspan class="party_result"> (26.1±2.8%)</tspan></text>
<polyline id="media-jxcat"  class="jxcat media" points=" 40,223.0063 45.1524,222.7958 50.3048,222.5736 55.4572,222.3394 60.6096,222.0958 65.762,221.8529 70.9145,221.6276 76.0669,221.4416 81.2193,221.3223 86.3717,221.3089 91.5241,221.4759 96.6765,222.0153 101.8289,222.5478 106.9813,223.0683 112.1337,223.5727 117.2861,224.0575 122.4385,224.5198 127.591,224.9574 132.7434,225.3685 137.8958,225.7518 143.0482,226.1066 148.2006,226.4321 153.353,226.7282 158.5054,226.9949 163.6578,227.2322 168.8102,227.4404 173.9626,227.6198 179.115,227.771 184.2675,227.8948 189.4199,227.9952 194.5723,228.0807 199.7247,228.1679 204.8771,228.2904 210.0295,228.4005 215.1819,228.4938 220.3343,228.5664 225.4867,228.6148 230.6391,228.6355 235.7915,228.6253 240.944,228.5807 246.0964,228.4983 251.2488,228.3743 256.4012,228.2046 261.5536,228.0089 266.706,227.868 271.8584,227.9476 277.0108,228.6001 282.1632,229.158 287.3156,229.6189 292.468,229.9858 297.6205,230.2815 302.7729,230.5615 307.9253,230.9381 313.0777,231.6863 318.2301,232.4605 323.3825,233.254 328.5349,234.0614 333.6873,234.8788 338.8397,235.7035 343.9921,236.5337 349.1445,237.3686 354.297,238.2085 359.4494,239.0548 364.6018,239.9095 369.7542,240.7763 374.9066,241.6449 380.059,242.4688 385.2114,243.1553 390.3638,243.5589 395.5162,243.4527 400.6686,242.4215 405.821,241.5345 410.9735,240.7722 416.1259,240.1176 421.2783,239.5551 426.4307,239.0711 431.5831,238.6525 436.7355,238.3 441.8879,238.0431 447.0403,237.9473 452.1927,238.1474 457.3451,238.4769 462.4975,239.0798 467.65,239.7076 472.8024,240.3427 477.9548,240.9034 483.1072,241.2258 488.2596,240.9955 493.412,240.8926 498.5644,240.8763 503.7168,240.8784 508.8692,240.7871 514.0216,240.3965 519.174,240.0121 524.3265,239.4366 529.4789,238.1784 534.6313,236.8149 539.7837,235.3428 544.9361,233.7601 550.0885,232.0668 555.2409,230.2654 560.3933,228.3617 565.5457,226.3644 570.6981,224.2861 575.8505,222.1432 581.0029,220.0073 586.1554,218.0729 591.3078,216.7008 596.4602,216.5661 601.6126,216.6755 606.765,217.7365 611.9174,218.5959 617.0698,219.2486 622.2222,219.7063"></polyline>
<polyline id="error-jxcat" class="jxcat error" points=" 40,187.8557 45.1524,188.3134 50.3048,188.775 55.4572,189.2412 60.6096,190.115 65.762,191.2382 70.9145,192.3106 76.0669,193.2725 81.2193,194.0493 86.3717,194.5396 91.5241,194.5762 96.6765,193.7984 101.8289,193.2012 106.9813,192.7703 112.1337,192.4923 117.2861,192.3548 122.4385,192.3463 127.591,192.4563 132.7434,192.6813 137.8958,193.0396 143.0482,193.4316 148.2006,193.9023 153.353,194.4787 158.5054,195.1297 163.6578,195.8512 168.8102,196.6402 173.9626,197.4949 179.115,198.4143 184.2675,199.3772 189.4199,200.3092 194.5723,201.0708 199.7247,201.4355 204.8771,200.9814 210.0295,200.7004 215.1819,200.572 220.3343,200.5786 225.4867,200.7048 230.6391,200.9372 235.7915,201.2643 240.944,201.6761 246.0964,202.1637 251.2488,202.72 256.4012,203.3386 261.5536,204.0021 266.706,204.665 271.8584,205.254 277.0108,205.6746 282.1632,206.2491 287.3156,206.9563 292.468,207.7605 297.6205,208.5822 302.7729,209.2948 307.9253,209.7113 313.0777,209.4858 318.2301,209.4828 323.3825,209.6756 328.5349,210.0425 333.6873,210.5656 338.8397,211.2301 343.9921,212.0237 349.1445,212.9364 354.297,213.9604 359.4494,215.0898 364.6018,216.3206 369.7542,217.6509 374.9066,219.0588 380.059,220.4663 385.2114,221.725 390.3638,222.6071 395.5162,222.7667 400.6686,221.5929 405.821,220.7169 410.9735,220.1037 416.1259,219.7232 421.2783,219.5491 426.4307,219.5582 431.5831,219.7302 436.7355,220.0372 441.8879,220.4279 447.0403,220.8245 452.1927,221.1224 457.3451,221.5182 462.4975,221.9947 467.65,222.688 472.8024,223.551 477.9548,224.4182 483.1072,224.9684 488.2596,224.6072 493.412,224.5733 498.5644,224.7796 503.7168,225.0845 508.8692,225.2583 514.0216,224.8844 519.174,224.5324 524.3265,223.755 529.4789,221.5388 534.6313,219.3246 539.7837,217.1101 544.9361,214.8967 550.0885,212.69 555.2409,210.4994 560.3933,208.3385 565.5457,206.2247 570.6981,204.1792 575.8505,202.2265 581.0029,200.4272 586.1554,198.9121 591.3078,197.8942 596.4602,197.7542 601.6126,197.8993 606.765,198.7801 611.9174,199.8068 617.0698,200.8681 622.2222,201.4455 622.2222,237.967 617.0698,237.6292 611.9174,237.3851 606.765,236.6928 601.6126,235.4516 596.4602,235.378 591.3078,235.5075 586.1554,237.2336 581.0029,239.5875 575.8505,242.06 570.6981,244.3931 565.5457,246.504 560.3933,248.3848 555.2409,250.0315 550.0885,251.4436 544.9361,252.6235 539.7837,253.5756 534.6313,254.3052 529.4789,254.818 524.3265,255.1183 519.174,255.4919 514.0216,255.9087 508.8692,256.316 503.7168,256.6722 498.5644,256.973 493.412,257.2118 488.2596,257.3838 483.1072,257.4833 477.9548,257.3886 472.8024,257.1344 467.65,256.7271 462.4975,256.1649 457.3451,255.4357 452.1927,255.1724 447.0403,255.0701 441.8879,255.6584 436.7355,256.5629 431.5831,257.5749 426.4307,258.5839 421.2783,259.5612 416.1259,260.5119 410.9735,261.4407 405.821,262.3521 400.6686,263.25 395.5162,264.1386 390.3638,264.5106 385.2114,264.5855 380.059,264.4713 374.9066,264.231 369.7542,263.9016 364.6018,263.4985 359.4494,263.0197 354.297,262.4566 349.1445,261.8007 343.9921,261.0436 338.8397,260.1769 333.6873,259.1921 328.5349,258.0803 323.3825,256.8323 318.2301,255.4382 313.0777,253.8868 307.9253,252.1649 302.7729,251.8283 297.6205,251.9807 292.468,252.2112 287.3156,252.2814 282.1632,252.0668 277.0108,251.5257 271.8584,250.6412 266.706,251.071 261.5536,252.0157 256.4012,253.0706 251.2488,254.0286 246.0964,254.8328 240.944,255.4853 235.7915,255.9862 230.6391,256.3338 225.4867,256.5248 220.3343,256.5542 215.1819,256.4155 210.0295,256.1005 204.8771,255.5994 199.7247,254.9003 194.5723,255.0906 189.4199,255.6812 184.2675,256.4125 179.115,257.1277 173.9626,257.7448 168.8102,258.2406 163.6578,258.6132 158.5054,258.8601 153.353,258.9777 148.2006,258.9619 143.0482,258.7815 137.8958,258.4641 132.7434,258.0556 127.591,257.4585 122.4385,256.6933 117.2861,255.7602 112.1337,254.653 106.9813,253.3662 101.8289,251.8943 96.6765,250.2323 91.5241,248.3755 86.3717,248.0782 81.2193,248.5953 76.0669,249.6107 70.9145,250.9446 65.762,252.4677 60.6096,254.0766 55.4572,255.4376 50.3048,256.3723 45.1524,257.2781 40,258.1569"></polyline>
<text class = "party jxcat" x="631.1111" y="225"><tspan class="party_name">JxCAT</tspan><tspan class="party_result"> (13.6±2.2%)</tspan></text>
<polyline id="media-cec"  class="cec media" points=" 40,237.2961 45.1524,237.104 50.3048,236.9031 55.4572,236.6929 60.6096,236.4759 65.762,236.2608 70.9145,236.0618 76.0669,235.8979 81.2193,235.7924 86.3717,235.7788 91.5241,235.9213 96.6765,236.3849 101.8289,236.8436 106.9813,237.2936 112.1337,237.7318 117.2861,238.1559 122.4385,238.5639 127.591,238.9547 132.7434,239.3274 137.8958,239.6818 143.0482,240.018 148.2006,240.3364 153.353,240.6379 158.5054,240.9237 163.6578,241.1951 168.8102,241.4538 173.9626,241.7019 179.115,241.9416 184.2675,242.1688 189.4199,242.3631 194.5723,242.4841 199.7247,242.461 204.8771,242.1432 210.0295,241.8363 215.1819,241.5364 220.3343,241.2397 225.4867,240.943 230.6391,240.6429 235.7915,240.3364 240.944,240.0205 246.0964,239.6922 251.2488,239.3486 256.4012,238.9865 261.5536,238.6238 266.706,238.3282 271.8584,238.2312 277.0108,238.6025 282.1632,238.8836 287.3156,239.0789 292.468,239.198 297.6205,239.2669 302.7729,239.3347 307.9253,239.4867 313.0777,239.919 318.2301,240.3322 323.3825,240.7219 328.5349,241.0843 333.6873,241.4167 338.8397,241.7167 343.9921,241.9822 349.1445,242.2115 354.297,242.403 359.4494,242.5551 364.6018,242.6662 369.7542,242.7343 374.9066,242.7629 380.059,242.7711 385.2114,242.8002 390.3638,242.9187 395.5162,243.2381 400.6686,243.9649 405.821,244.6315 410.9735,245.2402 416.1259,245.7934 421.2783,246.2942 426.4307,246.7458 431.5831,247.1521 436.7355,247.5024 441.8879,247.7513 447.0403,247.8068 452.1927,247.4806 457.3451,247.3982 462.4975,247.6969 467.65,247.9526 472.8024,248.169 477.9548,248.3933 483.1072,248.7463 488.2596,249.4975 493.412,250.2017 498.5644,250.8569 503.7168,251.4753 508.8692,252.0861 514.0216,252.7467 519.174,253.3261 524.3265,253.7608 529.4789,253.9448 534.6313,254.2308 539.7837,254.613 544.9361,255.0874 550.0885,255.6504 555.2409,256.2979 560.3933,257.0253 565.5457,257.8263 570.6981,258.693 575.8505,259.6155 581.0029,260.563 586.1554,261.4611 591.3078,262.1992 596.4602,262.628 601.6126,263.2603 606.765,264.2086 611.9174,265.4337 617.0698,266.7549 622.2222,267.5902"></polyline>
<polyline id="error-cec" class="cec error" points=" 40,209.6703 45.1524,210.1279 50.3048,210.5914 55.4572,211.0615 60.6096,211.7734 65.762,212.6301 70.9145,213.4483 76.0669,214.1833 81.2193,214.7789 86.3717,215.1596 91.5241,215.201 96.6765,214.6362 101.8289,214.2125 106.9813,213.9193 112.1337,213.7466 117.2861,213.6852 122.4385,213.7268 127.591,213.8637 132.7434,214.0927 137.8958,214.4235 143.0482,214.7969 148.2006,215.2391 153.353,215.7654 158.5054,216.3578 163.6578,217.0145 168.8102,217.7345 173.9626,218.5178 179.115,219.3658 184.2675,220.2562 189.4199,221.1064 194.5723,221.7583 199.7247,221.9481 204.8771,221.162 210.0295,220.5319 215.1819,220.0418 220.3343,219.6776 225.4867,219.4269 230.6391,219.2787 235.7915,219.2236 240.944,219.2532 246.0964,219.3605 251.2488,219.5395 256.4012,219.7856 261.5536,220.0874 266.706,220.4138 271.8584,220.7098 277.0108,220.8954 282.1632,221.1847 287.3156,221.5676 292.468,222.0235 297.6205,222.4989 302.7729,222.9002 307.9253,223.079 313.0777,222.744 318.2301,222.5414 323.3825,222.4515 328.5349,222.4581 333.6873,222.5475 338.8397,222.7081 343.9921,222.9299 349.1445,223.2037 354.297,223.5218 359.4494,223.8769 364.6018,224.2624 369.7542,224.6725 374.9066,225.1018 380.059,225.547 385.2114,226.0095 390.3638,226.4994 395.5162,227.0441 400.6686,227.7151 405.821,228.4408 410.9735,229.211 416.1259,230.0181 421.2783,230.8565 426.4307,231.7225 431.5831,232.6142 436.7355,233.4983 441.8879,234.2644 447.0403,234.7058 452.1927,234.4403 457.3451,234.3989 462.4975,234.5951 467.65,234.8952 472.8024,235.2804 477.9548,235.7368 483.1072,236.2704 488.2596,236.9491 493.412,237.7314 498.5644,238.5798 503.7168,239.4512 508.8692,240.2871 514.0216,240.9894 519.174,241.62 524.3265,241.9261 529.4789,241.4109 534.6313,241.0877 539.7837,240.9513 544.9361,241.0004 550.0885,241.2351 555.2409,241.6559 560.3933,242.263 565.5457,243.055 570.6981,244.0285 575.8505,245.1774 581.0029,246.4578 586.1554,247.7403 591.3078,248.7939 596.4602,249.2379 601.6126,249.9182 606.765,250.7501 611.9174,252.1272 617.0698,253.7835 622.2222,254.7288 622.2222,280.4516 617.0698,279.7264 611.9174,278.7402 606.765,277.6671 601.6126,276.6024 596.4602,276.0181 591.3078,275.6044 586.1554,275.182 581.0029,274.6681 575.8505,274.0537 570.6981,273.3575 565.5457,272.5975 560.3933,271.7875 555.2409,270.9399 550.0885,270.0656 544.9361,269.1744 539.7837,268.2747 534.6313,267.3739 529.4789,266.4787 524.3265,265.5956 519.174,265.0322 514.0216,264.504 508.8692,263.8851 503.7168,263.4994 498.5644,263.1341 493.412,262.672 488.2596,262.046 483.1072,261.2222 477.9548,261.0497 472.8024,261.0575 467.65,261.0101 462.4975,260.7987 457.3451,260.3975 452.1927,260.521 447.0403,260.9078 441.8879,261.2381 436.7355,261.5065 431.5831,261.69 426.4307,261.7691 421.2783,261.7318 416.1259,261.5687 410.9735,261.2694 405.821,260.8223 400.6686,260.2147 395.5162,259.4321 390.3638,259.338 385.2114,259.5908 380.059,259.9953 374.9066,260.4239 369.7542,260.796 364.6018,261.0699 359.4494,261.2334 354.297,261.2842 349.1445,261.2192 343.9921,261.0345 338.8397,260.7252 333.6873,260.2859 328.5349,259.7106 323.3825,258.9922 318.2301,258.1231 313.0777,257.0941 307.9253,255.8944 302.7729,255.7691 297.6205,256.0349 292.468,256.3726 287.3156,256.5902 282.1632,256.5824 277.0108,256.3095 271.8584,255.7527 266.706,256.2426 261.5536,257.1601 256.4012,258.1873 251.2488,259.1576 246.0964,260.024 240.944,260.7878 235.7915,261.4492 230.6391,262.0071 225.4867,262.459 220.3343,262.8018 215.1819,263.0309 210.0295,263.1408 204.8771,263.1245 199.7247,262.9738 194.5723,263.2099 189.4199,263.6198 184.2675,264.0814 179.115,264.5174 173.9626,264.886 168.8102,265.1732 163.6578,265.3757 158.5054,265.4896 153.353,265.5105 148.2006,265.4337 143.0482,265.239 137.8958,264.9401 132.7434,264.5621 127.591,264.0456 122.4385,263.401 117.2861,262.6265 112.1337,261.717 106.9813,260.6679 101.8289,259.4747 96.6765,258.1337 91.5241,256.6415 86.3717,256.398 81.2193,256.8058 76.0669,257.6126 70.9145,258.6754 65.762,259.8915 60.6096,261.1785 55.4572,262.3244 50.3048,263.2148 45.1524,264.0801 40,264.922"></polyline>
<text class = "party cec" x="631.1111" y="255"><tspan class="party_name">CeC</tspan><tspan class="party_result"> (7.9±1.5%)</tspan></text>
<polyline id="media-psc"  class="psc media" points=" 40,221.2375 45.1524,221.1312 50.3048,221.0162 55.4572,220.8919 60.6096,220.7598 65.762,220.6265 70.9145,220.5041 76.0669,220.409 81.2193,220.3626 86.3717,220.397 91.5241,220.5736 96.6765,221.0509 101.8289,221.542 106.9813,222.0444 112.1337,222.5565 117.2861,223.0769 122.4385,223.6049 127.591,224.1401 132.7434,224.6828 137.8958,225.2337 143.0482,225.7939 148.2006,226.3654 153.353,226.9502 158.5054,227.5512 163.6578,228.1719 168.8102,228.8164 173.9626,229.4894 179.115,230.1967 184.2675,230.9176 189.4199,231.5635 194.5723,231.9613 199.7247,231.8112 204.8771,230.4874 210.0295,229.256 215.1819,228.1096 220.3343,227.0405 225.4867,226.0407 230.6391,225.1027 235.7915,224.2186 240.944,223.3808 246.0964,222.5818 251.2488,221.8139 256.4012,221.0691 261.5536,220.3708 266.706,219.8145 271.8584,219.5847 277.0108,220.0639 282.1632,220.4372 287.3156,220.7168 292.468,220.9164 297.6205,221.0605 302.7729,221.1918 307.9253,221.3845 313.0777,221.8096 318.2301,222.2418 323.3825,222.6804 328.5349,223.1255 333.6873,223.5783 338.8397,224.0407 343.9921,224.515 349.1445,225.0042 354.297,225.5121 359.4494,226.0429 364.6018,226.6017 369.7542,227.1948 374.9066,227.8134 380.059,228.4075 385.2114,228.8732 390.3638,229.0423 395.5162,228.6462 400.6686,227.189 405.821,225.8843 410.9735,224.7166 416.1259,223.6724 421.2783,222.7393 426.4307,221.9063 431.5831,221.1631 436.7355,220.5131 441.8879,219.9858 447.0403,219.636 452.1927,219.5683 457.3451,219.3521 462.4975,218.8954 467.65,218.4131 472.8024,217.9324 477.9548,217.5388 483.1072,217.3985 488.2596,217.8376 493.412,218.2151 498.5644,218.5066 503.7168,218.6372 508.8692,218.4739 514.0216,217.7753 519.174,217.1877 524.3265,216.7194 529.4789,216.3734 534.6313,215.9459 539.7837,215.44 544.9361,214.8586 550.0885,214.2043 555.2409,213.4807 560.3933,212.6929 565.5457,211.8474 570.6981,210.9531 575.8505,210.0211 581.0029,209.0683 586.1554,208.11 591.3078,207.1763 596.4602,206.349 601.6126,205.9871 606.765,206.8161 611.9174,207.51 617.0698,208.0576 622.2222,208.4378"></polyline>
<polyline id="error-psc" class="psc error" points=" 40,187.2228 45.1524,187.792 50.3048,188.368 55.4572,188.9513 60.6096,189.9133 65.762,191.1035 70.9145,192.2379 76.0669,193.2542 81.2193,194.0753 86.3717,194.5976 91.5241,194.649 96.6765,193.8533 101.8289,193.2531 106.9813,192.8372 112.1337,192.5949 117.2861,192.5168 122.4385,192.5938 127.591,192.8178 132.7434,193.1872 137.8958,193.7204 143.0482,194.3274 148.2006,195.0517 153.353,195.9204 158.5054,196.9075 163.6578,198.0125 168.8102,199.2362 173.9626,200.5812 179.115,202.052 184.2675,203.6051 189.4199,205.0728 194.5723,206.1324 199.7247,206.2389 204.8771,204.3023 210.0295,202.6395 215.1819,201.2284 220.3343,200.0485 225.4867,199.0811 230.6391,198.3089 235.7915,197.7165 240.944,197.2898 246.0964,197.0162 251.2488,196.8845 256.4012,196.8847 261.5536,197.0041 266.706,197.2154 271.8584,197.471 277.0108,197.718 282.1632,198.1007 287.3156,198.6137 292.468,199.2333 297.6205,199.8848 302.7729,200.4325 307.9253,200.6579 313.0777,200.1219 318.2301,199.7832 323.3825,199.6219 328.5349,199.6227 333.6873,199.7733 338.8397,200.0643 343.9921,200.488 349.1445,201.0388 354.297,201.7126 359.4494,202.5069 364.6018,203.4211 369.7542,204.4564 374.9066,205.5925 380.059,206.7488 385.2114,207.7667 390.3638,208.3966 395.5162,208.2522 400.6686,206.6438 405.821,205.3387 410.9735,204.3069 416.1259,203.5221 421.2783,202.9617 426.4307,202.6055 431.5831,202.4362 436.7355,202.4294 441.8879,202.5345 447.0403,202.6645 452.1927,202.6857 457.3451,202.5194 462.4975,201.9077 467.65,201.4588 472.8024,201.1725 477.9548,201.0568 483.1072,201.1302 488.2596,201.457 493.412,201.9158 498.5644,202.4364 503.7168,202.8713 508.8692,202.9699 514.0216,202.282 519.174,201.7232 524.3265,201.0589 529.4789,199.7887 534.6313,198.5469 539.7837,197.3373 544.9361,196.1655 550.0885,195.0393 555.2409,193.9683 560.3933,192.9646 565.5457,192.0424 570.6981,191.218 575.8505,190.51 581.0029,189.9218 586.1554,189.4011 591.3078,188.8254 596.4602,187.9754 601.6126,187.6361 606.765,188.282 611.9174,189.1338 617.0698,190.077 622.2222,190.5716 622.2222,226.304 617.0698,226.0382 611.9174,225.8862 606.765,225.3502 601.6126,224.338 596.4602,224.7227 591.3078,225.5271 586.1554,226.8189 581.0029,228.2149 575.8505,229.5322 570.6981,230.6881 565.5457,231.6524 560.3933,232.4211 555.2409,232.9931 550.0885,233.3692 544.9361,233.5516 539.7837,233.5427 534.6313,233.3448 529.4789,232.9581 524.3265,232.3798 519.174,232.6522 514.0216,233.2687 508.8692,233.9779 503.7168,234.4032 498.5644,234.5769 493.412,234.5145 488.2596,234.2183 483.1072,233.6668 477.9548,234.0207 472.8024,234.6922 467.65,235.3674 462.4975,235.8831 457.3451,236.1847 452.1927,236.4509 447.0403,236.6075 441.8879,237.4371 436.7355,238.5968 431.5831,239.89 426.4307,241.207 421.2783,242.5169 416.1259,243.8226 410.9735,245.1263 405.821,246.4299 400.6686,247.7343 395.5162,249.0402 390.3638,249.688 385.2114,249.9797 380.059,250.0661 374.9066,250.0342 369.7542,249.9332 364.6018,249.7823 359.4494,249.5788 354.297,249.3116 349.1445,248.9696 343.9921,248.5419 338.8397,248.0171 333.6873,247.3834 328.5349,246.6283 323.3825,245.7388 318.2301,244.7005 313.0777,243.4973 307.9253,242.1111 302.7729,241.951 297.6205,242.2362 292.468,242.5996 287.3156,242.8199 282.1632,242.7736 277.0108,242.4098 271.8584,241.6983 266.706,242.4135 261.5536,243.7376 256.4012,245.2535 251.2488,246.7433 246.0964,248.1474 240.944,249.4718 235.7915,250.7206 230.6391,251.8964 225.4867,253.0004 220.3343,254.0324 215.1819,254.9908 210.0295,255.8725 204.8771,256.6724 199.7247,257.3835 194.5723,257.7902 189.4199,258.0543 184.2675,258.2301 179.115,258.3414 173.9626,258.3976 168.8102,258.3966 163.6578,258.3314 158.5054,258.1949 153.353,257.98 148.2006,257.679 143.0482,257.2605 137.8958,256.7469 132.7434,256.1784 127.591,255.4624 122.4385,254.616 117.2861,253.637 112.1337,252.518 106.9813,251.2517 101.8289,249.8308 96.6765,248.2485 91.5241,246.4982 86.3717,246.1963 81.2193,246.6498 76.0669,247.5637 70.9145,248.7703 65.762,250.1495 60.6096,251.6063 55.4572,252.8326 50.3048,253.6645 45.1524,254.4703 40,255.2521"></polyline>
<text class = "party psc" x="631.1111" y="203"><tspan class="party_name">PSC</tspan><tspan class="party_result"> (15.0±2.1%)</tspan></text>
<polyline id="media-cs"  class="cs media" points=" 40,184.7201 45.1524,184.8464 50.3048,184.9774 55.4572,185.1131 60.6096,185.2519 65.762,185.3889 70.9145,185.5159 76.0669,185.6227 81.2193,185.6969 86.3717,185.721 91.5241,185.6621 96.6765,185.4351 101.8289,185.2174 106.9813,185.0114 112.1337,184.8191 117.2861,184.642 122.4385,184.4815 127.591,184.3385 132.7434,184.2136 137.8958,184.1073 143.0482,184.0198 148.2006,183.9513 153.353,183.9016 158.5054,183.8706 163.6578,183.8581 168.8102,183.8638 173.9626,183.8875 179.115,183.9288 184.2675,183.9845 189.4199,184.0444 194.5723,184.0898 199.7247,184.0902 204.8771,183.9853 210.0295,183.9055 215.1819,183.8518 220.3343,183.8249 225.4867,183.8256 230.6391,183.8542 235.7915,183.911 240.944,183.9966 246.0964,184.1112 251.2488,184.2552 256.4012,184.4289 261.5536,184.6213 266.706,184.795 271.8584,184.8806 277.0108,184.7425 282.1632,184.6815 287.3156,184.6987 292.468,184.7839 297.6205,184.8955 302.7729,184.9531 307.9253,184.8157 313.0777,184.1513 318.2301,183.5184 323.3825,182.9194 328.5349,182.3562 333.6873,181.8303 338.8397,181.3428 343.9921,180.8944 349.1445,180.4858 354.297,180.1171 359.4494,179.7887 364.6018,179.5006 369.7542,179.2528 374.9066,179.0443 380.059,178.8704 385.2114,178.7201 390.3638,178.5742 395.5162,178.4012 400.6686,178.1439 405.821,177.9182 410.9735,177.7287 416.1259,177.5795 421.2783,177.4747 426.4307,177.4185 431.5831,177.4155 436.7355,177.4442 441.8879,177.4116 447.0403,177.1228 452.1927,176.1818 457.3451,175.4083 462.4975,174.7681 467.65,174.1466 472.8024,173.5637 477.9548,173.0515 483.1072,172.6511 488.2596,172.4182 493.412,172.1709 498.5644,171.8973 503.7168,171.5431 508.8692,171.0052 514.0216,170.0942 519.174,169.3191 524.3265,168.7448 529.4789,168.4832 534.6313,168.1109 539.7837,167.6328 544.9361,167.0522 550.0885,166.3724 555.2409,165.5969 560.3933,164.7306 565.5457,163.7799 570.6981,162.7531 575.8505,161.661 581.0029,160.543 586.1554,159.5002 591.3078,158.6592 596.4602,158.1125 601.6126,156.8123 606.765,153.9328 611.9174,150.5698 617.0698,147.1345 622.2222,144.9259"></polyline>
<polyline id="error-cs" class="cs error" points=" 40,149.3952 45.1524,150.247 50.3048,151.1209 55.4572,152.0182 60.6096,153.3 65.762,154.8048 70.9145,156.2308 76.0669,157.4858 81.2193,158.4549 86.3717,158.9796 91.5241,158.7834 96.6765,157.2222 101.8289,155.8559 106.9813,154.6778 112.1337,153.6811 117.2861,152.8592 122.4385,152.2052 127.591,151.7122 132.7434,151.3789 137.8958,151.2231 143.0482,151.1551 148.2006,151.2161 153.353,151.4302 158.5054,151.7688 163.6578,152.2278 168.8102,152.8037 173.9626,153.4939 179.115,154.2969 184.2675,155.1873 189.4199,156.0761 194.5723,156.7956 199.7247,157.07 204.8771,156.3801 210.0295,155.9022 215.1819,155.6212 220.3343,155.5244 225.4867,155.6009 230.6391,155.8414 235.7915,156.238 240.944,156.7847 246.0964,157.4768 251.2488,158.3109 256.4012,159.2855 261.5536,160.3512 266.706,161.3398 271.8584,161.9353 277.0108,161.5379 282.1632,161.4721 287.3156,161.7206 292.468,162.2343 297.6205,162.8675 302.7729,163.352 307.9253,163.2385 313.0777,161.5499 318.2301,160.0884 323.3825,158.8371 328.5349,157.7822 333.6873,156.9119 338.8397,156.2156 343.9921,155.6842 349.1445,155.3093 354.297,155.0835 359.4494,155 364.6018,155.0531 369.7542,155.2377 374.9066,155.5413 380.059,155.9293 385.2114,156.3368 390.3638,156.6645 395.5162,156.7652 400.6686,156.3939 405.821,156.2074 410.9735,156.195 416.1259,156.3481 421.2783,156.66 426.4307,157.126 431.5831,157.7437 436.7355,158.4621 441.8879,159.1024 447.0403,159.3169 452.1927,158.4514 457.3451,157.7204 462.4975,156.9184 467.65,156.3326 472.8024,155.9539 477.9548,155.7322 483.1072,155.5506 488.2596,155.1845 493.412,155.0073 498.5644,154.9604 503.7168,154.9144 508.8692,154.6452 514.0216,153.7467 519.174,153.0028 524.3265,152.225 529.4789,151.0007 534.6313,149.7819 539.7837,148.5735 544.9361,147.3818 550.0885,146.2148 555.2409,145.0823 560.3933,143.9963 565.5457,142.9707 570.6981,142.0217 575.8505,141.1673 581.0029,140.4335 586.1554,139.8527 591.3078,139.3938 596.4602,138.8351 601.6126,137.5437 606.765,134.3969 611.9174,131.1186 617.0698,128.0232 622.2222,125.887 622.2222,163.9649 617.0698,166.2458 611.9174,170.021 606.765,173.4687 601.6126,176.081 596.4602,177.3898 591.3078,177.9246 586.1554,179.1478 581.0029,180.6525 575.8505,182.1548 570.6981,183.4846 565.5457,184.5891 560.3933,185.465 555.2409,186.1115 550.0885,186.53 544.9361,186.7227 539.7837,186.6921 534.6313,186.44 529.4789,185.9657 524.3265,185.2646 519.174,185.6353 514.0216,186.4416 508.8692,187.3652 503.7168,188.1717 498.5644,188.8342 493.412,189.3344 488.2596,189.6519 483.1072,189.7515 477.9548,190.3709 472.8024,191.1734 467.65,191.9607 462.4975,192.6178 457.3451,193.0961 452.1927,193.9122 447.0403,194.9287 441.8879,195.7208 436.7355,196.4263 431.5831,197.0874 426.4307,197.7111 421.2783,198.2895 416.1259,198.8109 410.9735,199.2623 405.821,199.6289 400.6686,199.8939 395.5162,200.0372 390.3638,200.4839 385.2114,201.1034 380.059,201.8115 374.9066,202.5473 369.7542,203.2679 364.6018,203.9481 359.4494,204.5774 354.297,205.1508 349.1445,205.6622 343.9921,206.1047 338.8397,206.47 333.6873,206.7488 328.5349,206.9302 323.3825,207.0016 318.2301,206.9483 313.0777,206.7526 307.9253,206.3929 302.7729,206.5542 297.6205,206.9235 292.468,207.3334 287.3156,207.6767 282.1632,207.8909 277.0108,207.9471 271.8584,207.8258 266.706,208.2502 261.5536,208.8915 256.4012,209.5723 251.2488,210.1995 246.0964,210.7457 240.944,211.2085 235.7915,211.5841 230.6391,211.8669 225.4867,212.0502 220.3343,212.1254 215.1819,212.0823 210.0295,211.9087 204.8771,211.5904 199.7247,211.1103 194.5723,211.384 189.4199,212.0127 184.2675,212.7816 179.115,213.5606 173.9626,214.2812 168.8102,214.924 163.6578,215.4884 158.5054,215.9724 153.353,216.373 148.2006,216.6865 143.0482,216.8846 137.8958,216.9916 132.7434,217.0483 127.591,216.9648 122.4385,216.7579 117.2861,216.4249 112.1337,215.9571 106.9813,215.3451 101.8289,214.5789 96.6765,213.6479 91.5241,212.5408 86.3717,212.4623 81.2193,212.9388 76.0669,213.7596 70.9145,214.801 65.762,215.973 60.6096,217.2038 55.4572,218.2079 50.3048,218.8339 45.1524,219.4458 40,220.045"></polyline>
<text class = "party cs" x="631.1111" y="145"><tspan class="party_name">C's</tspan><tspan class="party_result"> (22.6±2.3%)</tspan></text>
<polyline id="media-pp"  class="pp media" points=" 40,253.848 45.1524,253.8338 50.3048,253.8217 55.4572,253.8121 60.6096,253.8048 65.762,253.7994 70.9145,253.7944 76.0669,253.7874 81.2193,253.7749 86.3717,253.7515 91.5241,253.7064 96.6765,253.6121 101.8289,253.5095 106.9813,253.3989 112.1337,253.2804 117.2861,253.1542 122.4385,253.0205 127.591,252.8793 132.7434,252.7306 137.8958,252.5745 143.0482,252.4107 148.2006,252.2392 153.353,252.0595 158.5054,251.8714 163.6578,251.6742 168.8102,251.4673 173.9626,251.25 179.115,251.0213 184.2675,250.7875 189.4199,250.5729 194.5723,250.4239 199.7247,250.418 204.8771,250.7143 210.0295,250.9752 215.1819,251.2027 220.3343,251.399 225.4867,251.5665 230.6391,251.7074 235.7915,251.8243 240.944,251.9194 246.0964,251.9956 251.2488,252.0556 256.4012,252.1026 261.5536,252.1316 266.706,252.1148 271.8584,251.9883 277.0108,251.6015 282.1632,251.1927 287.3156,250.7562 292.468,250.3022 297.6205,249.8788 302.7729,249.5759 307.9253,249.5451 313.0777,250.1467 318.2301,250.6976 323.3825,251.2009 328.5349,251.6594 333.6873,252.075 338.8397,252.4496 343.9921,252.7845 349.1445,253.0809 354.297,253.3398 359.4494,253.5618 364.6018,253.7476 369.7542,253.8971 374.9066,254.0133 380.059,254.1071 385.2114,254.2019 390.3638,254.3369 395.5162,254.5761 400.6686,255.0386 405.821,255.4709 410.9735,255.8738 416.1259,256.2486 421.2783,256.5972 426.4307,256.9221 431.5831,257.2266 436.7355,257.4967 441.8879,257.674 447.0403,257.6385 452.1927,257.1444 457.3451,256.972 462.4975,257.2923 467.65,257.5932 472.8024,257.8688 477.9548,258.0972 483.1072,258.2387 488.2596,258.2182 493.412,258.2031 498.5644,258.1838 503.7168,258.1522 508.8692,258.1057 514.0216,258.0574 519.174,258.0687 524.3265,258.2452 529.4789,258.8528 534.6313,259.5245 539.7837,260.2613 544.9361,261.064 550.0885,261.9318 555.2409,262.8627 560.3933,263.8522 565.5457,264.8938 570.6981,265.978 575.8505,267.0926 581.0029,268.2219 586.1554,269.362 591.3078,270.5313 596.4602,271.7969 601.6126,272.8894 606.765,273.5003 611.9174,274.4188 617.0698,275.4758 622.2222,276.1397"></polyline>
<polyline id="error-pp" class="pp error" points=" 40,227.0104 45.1524,227.6318 50.3048,228.2691 55.4572,228.9233 60.6096,229.8313 65.762,230.8853 70.9145,231.8842 76.0669,232.7627 81.2193,233.4391 86.3717,233.8002 91.5241,233.6484 96.6765,232.5247 101.8289,231.5332 106.9813,230.6681 112.1337,229.9235 117.2861,229.2936 122.4385,228.7726 127.591,228.3548 132.7434,228.0382 137.8958,227.8333 143.0482,227.6804 148.2006,227.6054 153.353,227.6232 158.5054,227.7142 163.6578,227.8745 168.8102,228.101 173.9626,228.3909 179.115,228.7422 184.2675,229.1441 189.4199,229.5613 194.5723,229.9268 199.7247,230.133 204.8771,229.9925 210.0295,229.959 215.1819,230.0225 220.3343,230.1748 225.4867,230.4091 230.6391,230.7203 235.7915,231.1044 240.944,231.5587 246.0964,232.0818 251.2488,232.6737 256.4012,233.3361 261.5536,234.0338 266.706,234.6385 271.8584,234.8961 277.0108,234.2972 282.1632,233.869 287.3156,233.5919 292.468,233.447 297.6205,233.4053 302.7729,233.4174 307.9253,233.4065 313.0777,233.2582 318.2301,233.2078 323.3825,233.2436 328.5349,233.356 333.6873,233.5365 338.8397,233.7779 343.9921,234.0737 349.1445,234.418 354.297,234.8055 359.4494,235.2316 364.6018,235.6919 369.7542,236.1825 374.9066,236.6976 380.059,237.2257 385.2114,237.7504 390.3638,238.2522 395.5162,238.7113 400.6686,239.1109 405.821,239.5943 410.9735,240.1504 416.1259,240.7703 421.2783,241.4475 426.4307,242.1776 431.5831,242.9581 436.7355,243.7527 441.8879,244.4379 447.0403,244.7798 452.1927,244.3387 457.3451,244.2034 462.4975,244.4242 467.65,244.7712 472.8024,245.216 477.9548,245.674 483.1072,245.9873 488.2596,245.8712 493.412,245.9107 498.5644,246.0615 503.7168,246.2604 508.8692,246.417 514.0216,246.3883 519.174,246.433 524.3265,246.4736 529.4789,246.3993 534.6313,246.4785 539.7837,246.7132 544.9361,247.1064 550.0885,247.6612 555.2409,248.3797 560.3933,249.2623 565.5457,250.3068 570.6981,251.5082 575.8505,252.8574 581.0029,254.3264 586.1554,255.8591 591.3078,257.3599 596.4602,258.676 601.6126,259.8369 606.765,260.3228 611.9174,261.3826 617.0698,262.7634 622.2222,263.5315 622.2222,288.7479 617.0698,288.1882 611.9174,287.455 606.765,286.6778 601.6126,285.9418 596.4602,284.9178 591.3078,283.7026 586.1554,282.8649 581.0029,282.1174 575.8505,281.3278 570.6981,280.4479 565.5457,279.4807 560.3933,278.4421 555.2409,277.3456 550.0885,276.2024 544.9361,275.0215 539.7837,273.8095 534.6313,272.5705 529.4789,271.3064 524.3265,270.0168 519.174,269.7044 514.0216,269.7265 508.8692,269.7945 503.7168,270.044 498.5644,270.3062 493.412,270.4954 488.2596,270.5652 483.1072,270.4901 477.9548,270.5204 472.8024,270.5216 467.65,270.4153 462.4975,270.1603 457.3451,269.7405 452.1927,269.9501 447.0403,270.4972 441.8879,270.91 436.7355,271.2408 431.5831,271.4951 426.4307,271.6666 421.2783,271.7469 416.1259,271.7269 410.9735,271.5972 405.821,271.3475 400.6686,270.9663 395.5162,270.441 390.3638,270.4215 385.2114,270.6535 380.059,270.9886 374.9066,271.329 369.7542,271.6117 364.6018,271.8033 359.4494,271.8921 354.297,271.874 349.1445,271.7438 343.9921,271.4952 338.8397,271.1212 333.6873,270.6135 328.5349,269.9628 323.3825,269.1582 318.2301,268.1874 313.0777,267.0353 307.9253,265.6837 302.7729,265.7343 297.6205,266.3523 292.468,267.1574 287.3156,267.9206 282.1632,268.5165 277.0108,268.9058 271.8584,269.0804 266.706,269.5911 261.5536,270.2293 256.4012,270.8691 251.2488,271.4374 246.0964,271.9094 240.944,272.2802 235.7915,272.5441 230.6391,272.6945 225.4867,272.7238 220.3343,272.6232 215.1819,272.3829 210.0295,271.9914 204.8771,271.4362 199.7247,270.7029 194.5723,270.9209 189.4199,271.5846 184.2675,272.4308 179.115,273.3004 173.9626,274.1092 168.8102,274.8337 163.6578,275.4739 158.5054,276.0285 153.353,276.4958 148.2006,276.8729 143.0482,277.1411 137.8958,277.3157 132.7434,277.4231 127.591,277.4038 122.4385,277.2684 117.2861,277.0149 112.1337,276.6373 106.9813,276.1297 101.8289,275.4858 96.6765,274.6995 91.5241,273.7643 86.3717,273.7028 81.2193,274.1106 76.0669,274.812 70.9145,275.7046 65.762,276.7136 60.6096,277.7784 55.4572,278.7008 50.3048,279.3744 45.1524,280.0357 40,280.6856"></polyline>
<text class = "party pp" x="631.1111" y="276"><tspan class="party_name">PP</tspan><tspan class="party_result"> (6.9±1.5%)</tspan></text>
<polyline id="media-otros"  class="otros media" points=" 40,309.236 45.1524,309.2919 50.3048,309.351 55.4572,309.4134 60.6096,309.4785 65.762,309.5434 70.9145,309.6031 76.0669,309.6511 81.2193,309.679 86.3717,309.6743 91.5241,309.6136 96.6765,309.4358 101.8289,309.256 106.9813,309.0752 112.1337,308.8944 117.2861,308.7141 122.4385,308.5349 127.591,308.357 132.7434,308.1805 137.8958,308.0053 143.0482,307.8312 148.2006,307.6576 153.353,307.4839 158.5054,307.3095 163.6578,307.1332 168.8102,306.954 173.9626,306.7705 179.115,306.5811 184.2675,306.391 189.4199,306.2229 194.5723,306.1214 199.7247,306.1644 204.8771,306.5147 210.0295,306.8452 215.1819,307.1586 220.3343,307.4575 225.4867,307.7447 230.6391,308.0231 235.7915,308.2956 240.944,308.5652 246.0964,308.8354 251.2488,309.1096 256.4012,309.392 261.5536,309.6658 266.706,309.8625 271.8584,309.8429 277.0108,309.3082 282.1632,308.8272 287.3156,308.3938 292.468,308.0076 297.6205,307.6777 302.7729,307.4188 307.9253,307.2516 313.0777,307.2268 318.2301,307.176 323.3825,307.104 328.5349,307.0145 333.6873,306.9101 338.8397,306.793 343.9921,306.6647 349.1445,306.5264 354.297,306.3786 359.4494,306.2217 364.6018,306.0558 369.7542,305.8806 374.9066,305.6985 380.059,305.5192 385.2114,305.3616 390.3638,305.2541 395.5162,305.2404 400.6686,305.3981 405.821,305.5138 410.9735,305.5902 416.1259,305.6289 421.2783,305.6314 426.4307,305.5982 431.5831,305.5291 436.7355,305.4386 441.8879,305.3799 447.0403,305.4598 452.1927,305.8873 457.3451,306.2908 462.4975,306.7449 467.65,307.164 472.8024,307.5417 477.9548,307.8776 483.1072,308.1884 488.2596,308.5255 493.412,308.8552 498.5644,309.1854 503.7168,309.5506 508.8692,310.0141 514.0216,310.6881 519.174,311.2479 524.3265,311.6081 529.4789,311.5944 534.6313,311.6431 539.7837,311.7488 544.9361,311.9072 550.0885,312.115 555.2409,312.3688 560.3933,312.6654 565.5457,313.001 570.6981,313.3713 575.8505,313.7711 581.0029,314.186 586.1554,314.5827 591.3078,314.9128 596.4602,315.1154 601.6126,315.4251 606.765,315.9129 611.9174,316.5331 617.0698,317.1966 622.2222,317.6172"></polyline>
<polyline id="error-otros" class="otros error" points=" 40,288.3829 45.1524,288.9856 50.3048,289.6002 55.4572,290.2273 60.6096,291.0584 65.762,292.0028 70.9145,292.892 76.0669,293.6683 81.2193,294.2602 86.3717,294.5686 91.5241,294.4182 96.6765,293.3916 101.8289,292.474 106.9813,291.6633 112.1337,290.9565 117.2861,290.3504 122.4385,289.8414 127.591,289.4252 132.7434,289.1008 137.8958,288.8767 143.0482,288.704 148.2006,288.6035 153.353,288.5869 158.5054,288.6374 163.6578,288.751 168.8102,288.9242 173.9626,289.1537 179.115,289.4365 184.2675,289.7635 189.4199,290.1089 194.5723,290.4265 199.7247,290.6462 204.8771,290.6547 210.0295,290.7598 215.1819,290.9544 220.3343,291.2328 225.4867,291.5907 230.6391,292.0244 235.7915,292.5317 240.944,293.111 246.0964,293.7621 251.2488,294.4858 256.4012,295.2842 261.5536,296.1147 266.706,296.8238 271.8584,297.1136 277.0108,296.3848 282.1632,295.868 287.3156,295.5463 292.468,295.3954 297.6205,295.3612 302.7729,295.3456 307.9253,295.1841 313.0777,294.5402 318.2301,293.9856 323.3825,293.515 328.5349,293.1236 333.6873,292.8066 338.8397,292.5596 343.9921,292.3782 349.1445,292.2581 354.297,292.195 359.4494,292.1851 364.6018,292.2244 369.7542,292.3093 374.9066,292.435 380.059,292.5932 385.2114,292.7707 390.3638,292.949 395.5162,293.1046 400.6686,293.2064 405.821,293.3568 410.9735,293.5489 416.1259,293.7764 421.2783,294.0338 426.4307,294.3158 431.5831,294.6173 436.7355,294.9359 441.8879,295.2773 447.0403,295.6652 452.1927,296.1724 457.3451,296.6326 462.4975,297.024 467.65,297.4949 472.8024,298.0207 477.9548,298.5513 483.1072,299.0115 488.2596,299.2923 493.412,299.684 498.5644,300.167 503.7168,300.7343 508.8692,301.3834 514.0216,302.1111 519.174,302.7275 524.3265,302.998 529.4789,302.4362 534.6313,302.005 539.7837,301.7003 544.9361,301.5207 550.0885,301.4664 555.2409,301.5382 560.3933,301.7371 565.5457,302.0634 570.6981,302.5165 575.8505,303.094 581.0029,303.7713 586.1554,304.4708 591.3078,305.0495 596.4602,305.2645 601.6126,305.6134 606.765,306.0132 611.9174,306.7574 617.0698,307.6893 622.2222,308.1993 622.2222,327.0351 617.0698,326.704 611.9174,326.3087 606.765,325.8126 601.6126,325.2367 596.4602,324.9663 591.3078,324.7762 586.1554,324.6946 581.0029,324.6008 575.8505,324.4482 570.6981,324.2262 565.5457,323.9386 560.3933,323.5937 555.2409,323.1993 550.0885,322.7635 544.9361,322.2938 539.7837,321.7974 534.6313,321.2813 529.4789,320.7526 524.3265,320.2183 519.174,319.7683 514.0216,319.2652 508.8692,318.6448 503.7168,318.3669 498.5644,318.2038 493.412,318.0265 488.2596,317.7587 483.1072,317.3653 477.9548,317.2039 472.8024,317.0627 467.65,316.8331 462.4975,316.4659 457.3451,315.9489 452.1927,315.6021 447.0403,315.2544 441.8879,315.4826 436.7355,315.9412 431.5831,316.4408 426.4307,316.8806 421.2783,317.229 416.1259,317.4814 410.9735,317.6314 405.821,317.6708 400.6686,317.5898 395.5162,317.3762 390.3638,317.5592 385.2114,317.9525 380.059,318.4452 374.9066,318.9619 369.7542,319.4518 364.6018,319.8871 359.4494,320.2583 354.297,320.5621 349.1445,320.7947 343.9921,320.9513 338.8397,321.0264 333.6873,321.0136 328.5349,320.9053 323.3825,320.693 318.2301,320.3665 313.0777,319.9134 307.9253,319.3191 302.7729,319.4921 297.6205,319.9942 292.468,320.6198 287.3156,321.2412 282.1632,321.7863 277.0108,322.2317 271.8584,322.5723 266.706,322.9013 261.5536,323.2168 256.4012,323.4997 251.2488,323.7334 246.0964,323.9086 240.944,324.0194 235.7915,324.0594 230.6391,324.0218 225.4867,323.8988 220.3343,323.6822 215.1819,323.3628 210.0295,322.9307 204.8771,322.3747 199.7247,321.6826 194.5723,321.8164 189.4199,322.3368 184.2675,323.0185 179.115,323.7257 173.9626,324.3873 168.8102,324.9838 163.6578,325.5154 158.5054,325.9816 153.353,326.3809 148.2006,326.7116 143.0482,326.9583 137.8958,327.134 132.7434,327.2603 127.591,327.2888 122.4385,327.2284 117.2861,327.0777 112.1337,326.8322 106.9813,326.4871 101.8289,326.038 96.6765,325.4801 91.5241,324.809 86.3717,324.7801 81.2193,325.0977 76.0669,325.6339 70.9145,326.3142 65.762,327.084 60.6096,327.8986 55.4572,328.5995 50.3048,329.1018 45.1524,329.5982 40,330.0891"></polyline>
<text class = "party otros" x="631.1111" y="318"><tspan class="party_name">Otros</tspan><tspan class="party_result"> (1.9±1.1%)</tspan></text>
<g id="encuesta-1">
<circle id="encuesta-1-cup" class="encuesta metroscopica cup" cx="622.2222" cy="284.1667" r="4.2426" ></circle>
<circle id="encuesta-1-erc" class="encuesta metroscopica erc" cx="622.2222" cy="112.5" r="4.2426" ></circle>
<circle id="encuesta-1-jxcat" class="encuesta metroscopica jxcat" cx="622.2222" cy="220" r="4.2426" ></circle>
<circle id="encuesta-1-cec" class="encuesta metroscopica cec" cx="622.2222" cy="277.5" r="4.2426" ></circle>
<circle id="encuesta-1-psc" class="encuesta metroscopica psc" cx="622.2222" cy="209.1667" r="4.2426" ></circle>
<circle id="encuesta-1-cs" class="encuesta metroscopica cs" cx="622.2222" cy="122.5" r="4.2426" ></circle>
<circle id="encuesta-1-pp" class="encuesta metroscopica pp" cx="622.2222" cy="285" r="4.2426" ></circle>
<circle id="encuesta-1-otros" class="encuesta metroscopica otros" cx="622.2222" cy="322.5" r="4.2426" ></circle>
</g>
<g id="encuesta-2">
<circle id="encuesta-2-cup" class="encuesta gesop cup" cx="601.6126" cy="280.8333" r="2.8284" ></circle>
<circle id="encuesta-2-erc" class="encuesta gesop erc" cx="601.6126" cy="134.1667" r="2.8284" ></circle>
<circle id="encuesta-2-jxcat" class="encuesta gesop jxcat" cx="601.6126" cy="195.8333" r="2.8284" ></circle>
<circle id="encuesta-2-cec" class="encuesta gesop cec" cx="601.6126" cy="261.6667" r="2.8284" ></circle>
<circle id="encuesta-2-psc" class="encuesta gesop psc" cx="601.6126" cy="182.5" r="2.8284" ></circle>
<circle id="encuesta-2-cs" class="encuesta gesop cs" cx="601.6126" cy="178.3333" r="2.8284" ></circle>
<circle id="encuesta-2-pp" class="encuesta gesop pp" cx="601.6126" cy="285.8333" r="2.8284" ></circle>
<circle id="encuesta-2-otros" class="encuesta gesop otros" cx="601.6126" cy="314.1667" r="2.8284" ></circle>
</g>
<g id="encuesta-3">
<circle id="encuesta-3-cup" class="encuesta gad3 cup" cx="591.3078" cy="286.6667" r="2.8302" ></circle>
<circle id="encuesta-3-erc" class="encuesta gad3 erc" cx="591.3078" cy="140.8333" r="2.8302" ></circle>
<circle id="encuesta-3-jxcat" class="encuesta gad3 jxcat" cx="591.3078" cy="194.1667" r="2.8302" ></circle>
<circle id="encuesta-3-cec" class="encuesta gad3 cec" cx="591.3078" cy="270" r="2.8302" ></circle>
<circle id="encuesta-3-psc" class="encuesta gad3 psc" cx="591.3078" cy="207.5" r="2.8302" ></circle>
<circle id="encuesta-3-cs" class="encuesta gad3 cs" cx="591.3078" cy="147.5" r="2.8302" ></circle>
<circle id="encuesta-3-pp" class="encuesta gad3 pp" cx="591.3078" cy="268.3333" r="2.8302" ></circle>
<circle id="encuesta-3-otros" class="encuesta gad3 otros" cx="591.3078" cy="318.3333" r="2.8302" ></circle>
</g>
<g id="encuesta-4">
<circle id="encuesta-4-cup" class="encuesta nc_report cup" cx="524.3265" cy="280.8333" r="3.1623" ></circle>
<circle id="encuesta-4-erc" class="encuesta nc_report erc" cx="524.3265" cy="114.1667" r="3.1623" ></circle>
<circle id="encuesta-4-jxcat" class="encuesta nc_report jxcat" cx="524.3265" cy="244.1667" r="3.1623" ></circle>
<circle id="encuesta-4-cec" class="encuesta nc_report cec" cx="524.3265" cy="246.6667" r="3.1623" ></circle>
<circle id="encuesta-4-psc" class="encuesta nc_report psc" cx="524.3265" cy="220" r="3.1623" ></circle>
<circle id="encuesta-4-cs" class="encuesta nc_report cs" cx="524.3265" cy="170" r="3.1623" ></circle>
<circle id="encuesta-4-pp" class="encuesta nc_report pp" cx="524.3265" cy="245.8333" r="3.1623" ></circle>
<circle id="encuesta-4-otros" class="encuesta nc_report otros" cx="524.3265" cy="311.6667" r="3.1623" ></circle>
</g>
<g id="encuesta-5">
<circle id="encuesta-5-cup" class="encuesta gad3 cup" cx="524.3265" cy="280.8333" r="3.5114" ></circle>
<circle id="encuesta-5-erc" class="encuesta gad3 erc" cx="524.3265" cy="89.1667" r="3.5114" ></circle>
<circle id="encuesta-5-jxcat" class="encuesta gad3 jxcat" cx="524.3265" cy="246.6667" r="3.5114" ></circle>
<circle id="encuesta-5-cec" class="encuesta gad3 cec" cx="524.3265" cy="264.1667" r="3.5114" ></circle>
<circle id="encuesta-5-psc" class="encuesta gad3 psc" cx="524.3265" cy="211.6667" r="3.5114" ></circle>
<circle id="encuesta-5-cs" class="encuesta gad3 cs" cx="524.3265" cy="161.6667" r="3.5114" ></circle>
<circle id="encuesta-5-pp" class="encuesta gad3 pp" cx="524.3265" cy="260.8333" r="3.5114" ></circle>
<circle id="encuesta-5-otros" class="encuesta gad3 otros" cx="524.3265" cy="318.3333" r="3.5114" ></circle>
</g>
<g id="encuesta-6">
<circle id="encuesta-6-cup" class="encuesta sociometrica cup" cx="508.8692" cy="285.8333" r="3.1623" ></circle>
<circle id="encuesta-6-erc" class="encuesta sociometrica erc" cx="508.8692" cy="73.3333" r="3.1623" ></circle>
<circle id="encuesta-6-jxcat" class="encuesta sociometrica jxcat" cx="508.8692" cy="249.1667" r="3.1623" ></circle>
<circle id="encuesta-6-cec" class="encuesta sociometrica cec" cx="508.8692" cy="250" r="3.1623" ></circle>
<circle id="encuesta-6-psc" class="encuesta sociometrica psc" cx="508.8692" cy="231.6667" r="3.1623" ></circle>
<circle id="encuesta-6-cs" class="encuesta sociometrica cs" cx="508.8692" cy="180.8333" r="3.1623" ></circle>
<circle id="encuesta-6-pp" class="encuesta sociometrica pp" cx="508.8692" cy="258.3333" r="3.1623" ></circle>
<circle id="encuesta-6-otros" class="encuesta sociometrica otros" cx="508.8692" cy="304.1667" r="3.1623" ></circle>
</g>
<g id="encuesta-7">
<circle id="encuesta-7-cup" class="encuesta sigmados cup" cx="483.1072" cy="280.8333" r="3.1623" ></circle>
<circle id="encuesta-7-erc" class="encuesta sigmados erc" cx="483.1072" cy="113.3333" r="3.1623" ></circle>
<circle id="encuesta-7-jxcat" class="encuesta sigmados jxcat" cx="483.1072" cy="251.6667" r="3.1623" ></circle>
<circle id="encuesta-7-cec" class="encuesta sigmados cec" cx="483.1072" cy="241.6667" r="3.1623" ></circle>
<circle id="encuesta-7-psc" class="encuesta sigmados psc" cx="483.1072" cy="207.5" r="3.1623" ></circle>
<circle id="encuesta-7-cs" class="encuesta sigmados cs" cx="483.1072" cy="170" r="3.1623" ></circle>
<circle id="encuesta-7-pp" class="encuesta sigmados pp" cx="483.1072" cy="260.8333" r="3.1623" ></circle>
<circle id="encuesta-7-otros" class="encuesta sigmados otros" cx="483.1072" cy="307.5" r="3.1623" ></circle>
</g>
<g id="encuesta-8">
<circle id="encuesta-8-cup" class="encuesta nc_report cup" cx="457.3451" cy="286.6667" r="3.1623" ></circle>
<circle id="encuesta-8-erc" class="encuesta nc_report erc" cx="457.3451" cy="128.3333" r="3.1623" ></circle>
<circle id="encuesta-8-jxcat" class="encuesta nc_report jxcat" cx="457.3451" cy="232.5" r="3.1623" ></circle>
<circle id="encuesta-8-cec" class="encuesta nc_report cec" cx="457.3451" cy="238.3333" r="3.1623" ></circle>
<circle id="encuesta-8-psc" class="encuesta nc_report psc" cx="457.3451" cy="224.1667" r="3.1623" ></circle>
<circle id="encuesta-8-cs" class="encuesta nc_report cs" cx="457.3451" cy="173.3333" r="3.1623" ></circle>
<circle id="encuesta-8-pp" class="encuesta nc_report pp" cx="457.3451" cy="245.8333" r="3.1623" ></circle>
<circle id="encuesta-8-otros" class="encuesta nc_report otros" cx="457.3451" cy="304.1667" r="3.1623" ></circle>
</g>
<g id="encuesta-9">
<circle id="encuesta-9-cup" class="encuesta gesop cup" cx="447.0403" cy="268.3333" r="2.8284" ></circle>
<circle id="encuesta-9-erc" class="encuesta gesop erc" cx="447.0403" cy="99.1667" r="2.8284" ></circle>
<circle id="encuesta-9-jxcat" class="encuesta gesop jxcat" cx="447.0403" cy="233.3333" r="2.8284" ></circle>
<circle id="encuesta-9-cec" class="encuesta gesop cec" cx="447.0403" cy="258.3333" r="2.8284" ></circle>
<circle id="encuesta-9-psc" class="encuesta gesop psc" cx="447.0403" cy="212.5" r="2.8284" ></circle>
<circle id="encuesta-9-cs" class="encuesta gesop cs" cx="447.0403" cy="193.3333" r="2.8284" ></circle>
<circle id="encuesta-9-pp" class="encuesta gesop pp" cx="447.0403" cy="270.8333" r="2.8284" ></circle>
<circle id="encuesta-9-otros" class="encuesta gesop otros" cx="447.0403" cy="297.5" r="2.8284" ></circle>
</g>
<g id="encuesta-10">
<circle id="encuesta-10-cup" class="encuesta sociometrica cup" cx="395.5162" cy="280.8333" r="2.8284" ></circle>
<circle id="encuesta-10-erc" class="encuesta sociometrica erc" cx="395.5162" cy="68.3333" r="2.8284" ></circle>
<circle id="encuesta-10-jxcat" class="encuesta sociometrica jxcat" cx="395.5162" cy="265.8333" r="2.8284" ></circle>
<circle id="encuesta-10-cec" class="encuesta sociometrica cec" cx="395.5162" cy="233.3333" r="2.8284" ></circle>
<circle id="encuesta-10-psc" class="encuesta sociometrica psc" cx="395.5162" cy="254.1667" r="2.8284" ></circle>
<circle id="encuesta-10-cs" class="encuesta sociometrica cs" cx="395.5162" cy="180.8333" r="2.8284" ></circle>
<circle id="encuesta-10-pp" class="encuesta sociometrica pp" cx="395.5162" cy="249.1667" r="2.8284" ></circle>
<circle id="encuesta-10-otros" class="encuesta sociometrica otros" cx="395.5162" cy="300.8333" r="2.8284" ></circle>
</g>
<g id="encuesta-11">
<circle id="encuesta-11-cup" class="encuesta nc_report cup" cx="307.9253" cy="286.6667" r="3.5426" ></circle>
<circle id="encuesta-11-erc" class="encuesta nc_report erc" cx="307.9253" cy="124.1667" r="3.5426" ></circle>
<circle id="encuesta-11-jxcat" class="encuesta nc_report jxcat" cx="307.9253" cy="227.5" r="3.5426" ></circle>
<circle id="encuesta-11-cec" class="encuesta nc_report cec" cx="307.9253" cy="236.6667" r="3.5426" ></circle>
<circle id="encuesta-11-psc" class="encuesta nc_report psc" cx="307.9253" cy="219.1667" r="3.5426" ></circle>
<circle id="encuesta-11-cs" class="encuesta nc_report cs" cx="307.9253" cy="190" r="3.5426" ></circle>
<circle id="encuesta-11-pp" class="encuesta nc_report pp" cx="307.9253" cy="243.3333" r="3.5426" ></circle>
<circle id="encuesta-11-otros" class="encuesta nc_report otros" cx="307.9253" cy="305.8333" r="3.5426" ></circle>
</g>
<g id="encuesta-12">
<circle id="encuesta-12-cup" class="encuesta celeste-tel cup" cx="271.8584" cy="284.1667" r="2.8284" ></circle>
<circle id="encuesta-12-erc" class="encuesta celeste-tel erc" cx="271.8584" cy="127.5" r="2.8284" ></circle>
<circle id="encuesta-12-jxcat" class="encuesta celeste-tel jxcat" cx="271.8584" cy="220" r="2.8284" ></circle>
<circle id="encuesta-12-cec" class="encuesta celeste-tel cec" cx="271.8584" cy="231.6667" r="2.8284" ></circle>
<circle id="encuesta-12-psc" class="encuesta celeste-tel psc" cx="271.8584" cy="210" r="2.8284" ></circle>
<circle id="encuesta-12-cs" class="encuesta celeste-tel cs" cx="271.8584" cy="188.3333" r="2.8284" ></circle>
<circle id="encuesta-12-pp" class="encuesta celeste-tel pp" cx="271.8584" cy="255" r="2.8284" ></circle>
<circle id="encuesta-12-otros" class="encuesta celeste-tel otros" cx="271.8584" cy="316.6667" r="2.8284" ></circle>
</g>
<g id="encuesta-13">
<circle id="encuesta-13-cup" class="encuesta sociometrica cup" cx="199.7247" cy="276.6667" r="2.6458" ></circle>
<circle id="encuesta-13-erc" class="encuesta sociometrica erc" cx="199.7247" cy="100" r="2.6458" ></circle>
<circle id="encuesta-13-jxcat" class="encuesta sociometrica jxcat" cx="199.7247" cy="227.5" r="2.6458" ></circle>
<circle id="encuesta-13-cec" class="encuesta sociometrica cec" cx="199.7247" cy="246.6667" r="2.6458" ></circle>
<circle id="encuesta-13-psc" class="encuesta sociometrica psc" cx="199.7247" cy="249.1667" r="2.6458" ></circle>
<circle id="encuesta-13-cs" class="encuesta sociometrica cs" cx="199.7247" cy="185.8333" r="2.6458" ></circle>
<circle id="encuesta-13-pp" class="encuesta sociometrica pp" cx="199.7247" cy="245.8333" r="2.6458" ></circle>
<circle id="encuesta-13-otros" class="encuesta sociometrica otros" cx="199.7247" cy="301.6667" r="2.6458" ></circle>
</g>
<g id="encuesta-14">
<circle id="encuesta-14-cup" class="encuesta nc_report cup" cx="91.5241" cy="279.1667" r="3.5426" ></circle>
<circle id="encuesta-14-erc" class="encuesta nc_report erc" cx="91.5241" cy="134.1667" r="3.5426" ></circle>
<circle id="encuesta-14-jxcat" class="encuesta nc_report jxcat" cx="91.5241" cy="217.5" r="3.5426" ></circle>
<circle id="encuesta-14-cec" class="encuesta nc_report cec" cx="91.5241" cy="232.5" r="3.5426" ></circle>
<circle id="encuesta-14-psc" class="encuesta nc_report psc" cx="91.5241" cy="217.5" r="3.5426" ></circle>
<circle id="encuesta-14-cs" class="encuesta nc_report cs" cx="91.5241" cy="187.5" r="3.5426" ></circle>
<circle id="encuesta-14-pp" class="encuesta nc_report pp" cx="91.5241" cy="254.1667" r="3.5426" ></circle>
<circle id="encuesta-14-otros" class="encuesta nc_report otros" cx="91.5241" cy="310.8333" r="3.5426" ></circle>
</g>
  
<text class="pie izquierda" x="0" y="395">Datos: Electograph | Modelo propio</text>
<text class="pie derecha" x="800" y="395">Jesús Carro | <tspan style="font-weight:bold">1datomas</tspan>.com</text>
</svg>
