<?xml version="1.0" encoding="utf-8"?><!DOCTYPE svg PUBLIC "-//W3C//DTD SVG 1.1//EN" "http://www.w3.org/Graphics/SVG/1.1/DTD/svg11.dtd">
<svg xmlns="http://www.w3.org/2000/svg" xmlns:xlink="http://www.w3.org/1999/xlink" version="1.1" viewBox="0 0 800 400">

<text x="0" y="20" style="font-size:large;font-weight:bold;color:black">Intención de voto en Elecciones Autonómicas en Cataluña</text>
<text x="0" y="40" style="color:gray">Promedio de encuestas y estimación de error</text>

<text class="horizontal axis" x="36" y="333.3333">0%</text>
<line class="horizontal axis" x1="40" y1="333.3333" x2="622.2222" y2="333.3333"></line>
<text class="horizontal axis" x="36" y="252.5253">10%</text>
<line class="horizontal axis" x1="40" y1="252.5253" x2="622.2222" y2="252.5253"></line>
<text class="horizontal axis" x="36" y="171.7172">20%</text>
<line class="horizontal axis" x1="40" y1="171.7172" x2="622.2222" y2="171.7172"></line>
<text class="horizontal axis" x="36" y="90.9091">30%</text>
<line class="horizontal axis" x1="40" y1="90.9091" x2="622.2222" y2="90.9091"></line>
<line class="vertical axis" x1="40" y1="336.6667" x2="40" y2="66.6667"></line>
<text class="vertical axis" x="40" y="343.3333">Ago-2017</text>
<line class="vertical axis" x1="179.9139" y1="336.6667" x2="179.9139" y2="66.6667"></line>
<text class="vertical axis" x="179.9139" y="343.3333">Sep-2017</text>
<line class="vertical axis" x1="315.3144" y1="336.6667" x2="315.3144" y2="66.6667"></line>
<text class="vertical axis" x="315.3144" y="343.3333">Oct-2017</text>
<line class="vertical axis" x1="455.2283" y1="336.6667" x2="455.2283" y2="66.6667"></line>
<text class="vertical axis" x="455.2283" y="343.3333">Nov-2017</text>
<line class="vertical axis" x1="590.6288" y1="336.6667" x2="590.6288" y2="66.6667"></line>
<text class="vertical axis" x="590.6288" y="343.3333">Dic-2017</text>
<polyline id="media-cup"  class="cup media" points=" 40,281.9487 44.5134,281.9009 49.0267,281.851 53.5401,281.7987 58.0534,281.7448 62.5668,281.691 67.0801,281.6406 71.5935,281.5977 76.1068,281.5673 80.6202,281.5565 85.1335,281.5781 89.6469,281.6645 94.1602,281.7453 98.6736,281.8199 103.1869,281.8875 107.7003,281.9478 112.2136,282.0002 116.727,282.0444 121.2403,282.0801 125.7537,282.1071 130.267,282.125 134.7804,282.1335 139.2937,282.1323 143.8071,282.1209 148.3204,282.0987 152.8338,282.065 157.3471,282.0189 161.8605,281.9593 166.3738,281.8896 170.8872,281.8256 175.4005,281.7997 179.9139,281.8692 184.4272,282.1522 188.9406,282.4185 193.4539,282.6694 197.9673,282.9062 202.4806,283.1304 206.994,283.3432 211.5073,283.5459 216.0207,283.7399 220.534,283.9262 225.0474,284.106 229.5607,284.2801 234.0741,284.446 238.5874,284.5948 243.1008,284.7128 247.6141,284.7785 252.1275,284.8719 256.6408,284.9916 261.1542,285.1308 265.6675,285.2687 270.1809,285.367 274.6942,285.362 279.2076,285.1091 283.7209,284.88 288.2343,284.6719 292.7476,284.4824 297.261,284.3091 301.7743,284.1501 306.2877,284.0036 310.801,283.8679 315.3144,283.7416 319.8277,283.6234 324.3411,283.512 328.8544,283.4065 333.3678,283.3064 337.8811,283.2122 342.3945,283.1254 346.9078,283.0479 351.4212,282.9819 355.9345,282.9303 360.4479,282.8672 364.9612,282.7927 369.4746,282.7067 373.9879,282.6083 378.5013,282.496 383.0146,282.3676 387.528,282.2365 392.0413,282.1576 396.5547,282.2451 401.068,282.7259 405.5814,283.0346 410.0947,283.1276 414.6081,283.213 419.1214,283.2893 423.6348,283.3617 428.1481,283.4457 432.6615,283.5772 437.1748,283.7006 441.6882,283.806 446.2016,283.8737 450.7149,283.8744 455.2283,283.7612 459.7416,283.6817 464.255,283.6565 468.7683,283.7376 473.2817,283.8166 477.795,283.894 482.3084,283.9702 486.8217,284.0451 491.3351,284.1188 495.8484,284.1913 500.3618,284.2626 504.8751,284.333 509.3885,284.4027 513.9018,284.4679 518.4152,284.5131 522.9285,284.5093 527.4419,284.4084 531.9552,284.3446 536.4686,284.3378 540.9819,284.323 545.4953,284.29 550.0086,284.1967 554.522,283.9183 559.0353,283.5932 563.5487,283.2877 568.062,283.0608 572.5754,283.01 577.0887,283.3731 581.6021,283.6568 586.1154,283.8725 590.6288,284.0218 595.1421,284.1363 599.6555,284.2156 604.1688,284.2972 608.6822,284.4096 613.1955,284.5926 617.7089,284.7313 622.2222,284.7492"></polyline>
<polyline id="error-cup" class="cup error" points=" 40,259.8211 44.5134,260.2688 49.0267,260.7269 53.5401,261.1966 58.0534,261.6752 62.5668,262.151 67.0801,262.604 71.5935,263.0067 76.1068,263.3249 80.6202,263.5117 85.1335,263.488 89.6469,263.0762 94.1602,262.7328 98.6736,262.453 103.1869,262.2321 107.7003,262.0656 112.2136,261.9492 116.727,261.879 121.2403,261.851 125.7537,261.8619 130.267,261.9084 134.7804,261.9876 139.2937,262.0966 143.8071,262.2332 148.3204,262.3951 152.8338,262.5803 157.3471,262.7872 161.8605,263.0141 166.3738,263.2567 170.8872,263.5031 175.4005,263.7327 179.9139,263.9163 184.4272,264.0127 188.9406,264.1612 193.4539,264.3565 197.9673,264.5941 202.4806,264.8707 206.994,265.1834 211.5073,265.5305 216.0207,265.9106 220.534,266.323 225.0474,266.7673 229.5607,267.244 234.0741,267.7369 238.5874,268.1906 243.1008,268.5037 247.6141,268.4913 252.1275,268.5979 256.6408,268.8144 261.1542,269.1196 265.6675,269.4551 270.1809,269.716 274.6942,269.7293 279.2076,269.1246 283.7209,268.6165 288.2343,268.1941 292.7476,267.8482 297.261,267.5709 301.7743,267.355 306.2877,267.1946 310.801,267.0843 315.3144,267.0195 319.8277,266.9962 324.3411,267.0109 328.8544,267.0606 333.3678,267.141 337.8811,267.2432 342.3945,267.3513 346.9078,267.4415 351.4212,267.4789 355.9345,267.4073 360.4479,267.3734 364.9612,267.3715 369.4746,267.3969 373.9879,267.4449 378.5013,267.511 383.0146,267.5909 387.528,267.6895 392.0413,267.8375 396.5547,268.1059 401.068,268.6512 405.5814,269.0063 410.0947,269.0735 414.6081,269.1948 419.1214,269.3584 423.6348,269.5432 428.1481,269.7176 432.6615,269.8355 437.1748,270.0066 441.6882,270.2054 446.2016,270.3891 450.7149,270.4924 455.2283,270.4063 459.7416,270.361 464.255,270.3074 468.7683,270.1641 473.2817,270.0671 477.795,270.0143 482.3084,270.0036 486.8217,270.033 491.3351,270.1006 495.8484,270.2045 500.3618,270.3432 504.8751,270.5151 509.3885,270.7191 513.9018,270.9462 518.4152,273.5615 522.9285,273.7167 527.4419,273.7085 531.9552,273.7492 536.4686,273.8192 540.9819,273.9345 545.4953,274.0627 550.0086,275.7866 554.522,274.8064 559.0353,275.1088 563.5487,274.8609 568.062,274.709 572.5754,274.6815 577.0887,274.8766 581.6021,274.4429 586.1154,274.6197 590.6288,274.7186 595.1421,274.8116 599.6555,273.7875 604.1688,273.8619 608.6822,273.9688 613.1955,274.0828 617.7089,274.106 622.2222,273.8211 622.2222,295.6773 617.7089,295.3566 613.1955,295.1024 608.6822,294.8505 604.1688,294.7326 599.6555,294.6437 595.1421,293.461 590.6288,293.325 586.1154,293.1252 581.6021,292.8707 577.0887,291.8696 572.5754,291.3384 568.062,291.4126 563.5487,291.7144 559.0353,292.0777 554.522,293.0301 550.0086,292.6067 545.4953,294.5173 540.9819,294.7115 536.4686,294.8563 531.9552,294.94 527.4419,295.1083 522.9285,295.3019 518.4152,295.4648 513.9018,297.9896 509.3885,298.0863 504.8751,298.1509 500.3618,298.1821 495.8484,298.1781 491.3351,298.1371 486.8217,298.0573 482.3084,297.9368 477.795,297.7738 473.2817,297.566 468.7683,297.3111 464.255,297.0056 459.7416,297.0023 455.2283,297.116 450.7149,297.2564 446.2016,297.3584 441.6882,297.4066 437.1748,297.3946 432.6615,297.3189 428.1481,297.1737 423.6348,297.1801 419.1214,297.2202 414.6081,297.2311 410.0947,297.1817 405.5814,297.063 401.068,296.8007 396.5547,296.3843 392.0413,296.4777 387.528,296.7834 383.0146,297.1442 378.5013,297.4809 373.9879,297.7717 369.4746,298.0165 364.9612,298.2139 360.4479,298.361 355.9345,298.4533 351.4212,298.4849 346.9078,298.6543 342.3945,298.8994 337.8811,299.1811 333.3678,299.4717 328.8544,299.7525 324.3411,300.0132 319.8277,300.2505 315.3144,300.4637 310.801,300.6515 306.2877,300.8126 301.7743,300.9453 297.261,301.0474 292.7476,301.1165 288.2343,301.1497 283.7209,301.1435 279.2076,301.0936 274.6942,300.9948 270.1809,301.018 265.6675,301.0822 261.1542,301.142 256.6408,301.1688 252.1275,301.146 247.6141,301.0657 243.1008,300.9219 238.5874,300.999 234.0741,301.1551 229.5607,301.3161 225.0474,301.4446 220.534,301.5295 216.0207,301.5692 211.5073,301.5613 206.994,301.5029 202.4806,301.39 197.9673,301.2183 193.4539,300.9823 188.9406,300.6758 184.4272,300.2918 179.9139,299.8221 175.4005,299.8667 170.8872,300.1481 166.3738,300.5225 161.8605,300.9044 157.3471,301.2506 152.8338,301.5496 148.3204,301.8023 143.8071,302.0086 139.2937,302.168 134.7804,302.2795 130.267,302.3416 125.7537,302.3522 121.2403,302.3092 116.727,302.2098 112.2136,302.0511 107.7003,301.8299 103.1869,301.543 98.6736,301.1868 94.1602,300.7578 89.6469,300.2527 85.1335,299.6681 80.6202,299.6012 76.1068,299.8098 71.5935,300.1888 67.0801,300.6773 62.5668,301.231 58.0534,301.8144 53.5401,302.4008 49.0267,302.975 44.5134,303.5331 40,304.0763"></polyline>
<text class = "party cup" x="631.1111" y="298"><tspan class="party_name">CUP</tspan><tspan class="party_result"> (6.0±1.4%)</tspan></text>
<polyline id="media-erc"  class="erc media" points=" 40,132.3233 44.5134,132.5627 49.0267,132.8208 53.5401,133.0988 58.0534,133.3939 62.5668,133.6929 67.0801,133.9724 71.5935,134.2004 76.1068,134.3358 80.6202,134.3184 85.1335,134.0364 89.6469,133.2104 94.1602,132.3907 98.6736,131.5817 103.1869,130.7869 107.7003,130.0084 112.2136,129.2474 116.727,128.5044 121.2403,127.7791 125.7537,127.0705 130.267,126.3773 134.7804,125.6974 139.2937,125.0284 143.8071,124.3674 148.3204,123.7113 152.8338,123.0561 157.3471,122.3977 161.8605,121.7312 166.3738,121.0701 170.8872,120.4745 175.4005,120.0618 179.9139,120.0326 184.4272,120.7921 188.9406,121.4723 193.4539,122.0847 197.9673,122.6399 202.4806,123.1479 206.994,123.618 211.5073,124.0586 216.0207,124.478 220.534,124.884 225.0474,125.2842 229.5607,125.6863 234.0741,126.0769 238.5874,126.392 243.1008,126.5015 247.6141,126.1378 252.1275,125.8645 256.6408,125.6784 261.1542,125.5688 265.6675,125.4984 270.1809,125.3898 274.6942,125.1005 279.2076,124.294 283.7209,123.4882 288.2343,122.6819 292.7476,121.873 297.261,121.0589 301.7743,120.2365 306.2877,119.4018 310.801,118.5505 315.3144,117.6774 319.8277,116.7767 324.3411,115.8416 328.8544,114.8639 333.3678,113.8535 337.8811,112.8709 342.3945,112.042 346.9078,111.5696 351.4212,111.7713 355.9345,113.2105 360.4479,114.4204 364.9612,115.4313 369.4746,116.2687 373.9879,116.9539 378.5013,117.5045 383.0146,117.9351 387.528,118.2688 392.0413,118.5612 396.5547,118.9218 401.068,119.5665 405.5814,119.8194 410.0947,119.4831 414.6081,119.1367 419.1214,118.7685 423.6348,118.3601 428.1481,117.867 432.6615,117.174 437.1748,116.3874 441.6882,115.5953 446.2016,114.9842 450.7149,114.8718 455.2283,115.8286 459.7416,116.6536 464.255,117.6549 468.7683,119.499 473.2817,121.3163 477.795,123.0965 482.3084,124.8299 486.8217,126.507 491.3351,128.1192 495.8484,129.6587 500.3618,131.1188 504.8751,132.4934 509.3885,133.7777 513.9018,134.9533 518.4152,135.9718 522.9285,136.7512 527.4419,137.1614 531.9552,137.5161 536.4686,137.7485 540.9819,137.8963 545.4953,138.0395 550.0086,138.6751 554.522,141.2512 559.0353,143.7326 563.5487,145.9924 568.062,147.7839 572.5754,148.7317 577.0887,147.943 581.6021,147.5815 586.1154,147.5165 590.6288,147.6113 595.1421,147.6356 599.6555,147.2609 604.1688,147.0666 608.6822,147.0784 613.1955,147.3372 617.7089,147.4546 622.2222,147.1053"></polyline>
<polyline id="error-erc" class="erc error" points=" 40,90.142 44.5134,91.0382 49.0267,91.9738 53.5401,92.9519 58.0534,93.9655 62.5668,94.9836 67.0801,95.9504 71.5935,96.7898 76.1068,97.4047 80.6202,97.6578 85.1335,97.3064 89.6469,95.7773 94.1602,94.3585 98.6736,93.0476 103.1869,91.8415 107.7003,90.7363 112.2136,89.7278 116.727,88.8111 121.2403,87.9813 125.7537,87.233 130.267,86.5611 134.7804,85.96 139.2937,85.4246 143.8071,84.9497 148.3204,84.5299 152.8338,84.1605 157.3471,83.8363 161.8605,83.5526 166.3738,83.3126 170.8872,83.1386 175.4005,83.0743 179.9139,83.1976 184.4272,83.6895 188.9406,84.1981 193.4539,84.725 197.9673,85.2729 202.4806,85.8451 206.994,86.4456 211.5073,87.0788 216.0207,87.7499 220.534,88.4647 225.0474,89.2297 229.5607,90.0525 234.0741,90.9013 238.5874,91.6457 243.1008,92.0281 247.6141,91.5412 252.1275,91.2753 256.6408,91.2165 261.1542,91.3343 265.6675,91.539 270.1809,91.658 274.6942,91.3911 279.2076,90.0789 283.7209,88.8737 288.2343,87.7613 292.7476,86.729 297.261,85.7654 301.7743,84.8598 306.2877,84.0024 310.801,83.1834 315.3144,82.3934 319.8277,81.6229 324.3411,80.8619 328.8544,80.1002 333.3678,79.3429 337.8811,78.6375 342.3945,78.0869 346.9078,77.8587 351.4212,78.2196 355.9345,79.6534 360.4479,80.9276 364.9612,82.0645 369.4746,83.083 373.9879,83.9993 378.5013,84.8276 383.0146,85.5797 387.528,86.2664 392.0413,86.9048 396.5547,87.5349 401.068,88.2555 405.5814,88.5629 410.0947,88.1781 414.6081,87.8763 419.1214,87.6305 423.6348,87.383 428.1481,87.0162 432.6615,86.2865 437.1748,85.5561 441.6882,84.8914 446.2016,84.4472 450.7149,84.4915 455.2283,85.5071 459.7416,86.3982 464.255,87.3685 468.7683,88.8859 473.2817,90.4528 477.795,92.0537 482.3084,93.6738 486.8217,95.3 491.3351,96.9199 495.8484,98.5228 500.3618,100.0988 504.8751,101.6396 509.3885,103.138 513.9018,104.5682 518.4152,112.2091 522.9285,113.2385 527.4419,113.7995 531.9552,114.3202 536.4686,114.6724 540.9819,115.0205 545.4953,115.4129 550.0086,120.7386 554.522,121.5754 559.0353,125.7702 563.5487,128.1585 568.062,130.0945 572.5754,131.0909 577.0887,130.0232 581.6021,127.8395 586.1154,127.7047 590.6288,127.7175 595.1421,127.7043 599.6555,124.4448 604.1688,124.2329 608.6822,124.2309 613.1955,124.3801 617.7089,124.3188 622.2222,123.5124 622.2222,170.6983 617.7089,170.5905 613.1955,170.2943 608.6822,169.9259 604.1688,169.9003 599.6555,170.077 595.1421,167.567 590.6288,167.5051 586.1154,167.3282 581.6021,167.3234 577.0887,165.8628 572.5754,166.3725 568.062,165.4733 563.5487,163.8263 559.0353,161.6949 554.522,160.927 550.0086,156.6116 545.4953,160.666 540.9819,160.7721 536.4686,160.8247 531.9552,160.7119 527.4419,160.5232 522.9285,160.2638 518.4152,159.7345 513.9018,165.3385 509.3885,164.4175 504.8751,163.3473 500.3618,162.1388 495.8484,160.7947 491.3351,159.3185 486.8217,157.714 482.3084,155.986 477.795,154.1394 473.2817,152.1797 468.7683,150.1122 464.255,147.9413 459.7416,146.9089 455.2283,146.1502 450.7149,145.2521 446.2016,145.5211 441.6882,146.2993 437.1748,147.2187 432.6615,148.0615 428.1481,148.7178 423.6348,149.3372 419.1214,149.9065 414.6081,150.397 410.0947,150.7882 405.5814,151.076 401.068,150.8775 396.5547,150.3087 392.0413,150.2176 387.528,150.2712 383.0146,150.2904 378.5013,150.1813 373.9879,149.9084 369.4746,149.4544 364.9612,148.798 360.4479,147.9131 355.9345,146.7677 351.4212,145.323 346.9078,145.2806 342.3945,145.9971 337.8811,147.1044 333.3678,148.3642 328.8544,149.6275 324.3411,150.8212 319.8277,151.9306 315.3144,152.9614 310.801,153.9175 306.2877,154.8012 301.7743,155.6131 297.261,156.3525 292.7476,157.017 288.2343,157.6024 283.7209,158.1027 279.2076,158.5092 274.6942,158.81 270.1809,159.1216 265.6675,159.4577 261.1542,159.8034 256.6408,160.1403 252.1275,160.4537 247.6141,160.7343 243.1008,160.9749 238.5874,161.1383 234.0741,161.2525 229.5607,161.32 225.0474,161.3386 220.534,161.3032 216.0207,161.2061 211.5073,161.0384 206.994,160.7904 202.4806,160.4508 197.9673,160.0069 193.4539,159.4443 188.9406,158.7465 184.4272,157.8947 179.9139,156.8675 175.4005,157.0494 170.8872,157.8103 166.3738,158.8276 161.8605,159.9099 157.3471,160.9591 152.8338,161.9518 148.3204,162.8926 143.8071,163.7852 139.2937,164.6321 134.7804,165.4347 130.267,166.1935 125.7537,166.908 121.2403,167.5769 116.727,168.1976 112.2136,168.767 107.7003,169.2804 103.1869,169.7323 98.6736,170.1159 94.1602,170.4228 89.6469,170.6435 85.1335,170.7664 80.6202,170.9789 76.1068,171.2669 71.5935,171.611 67.0801,171.9944 62.5668,172.4022 58.0534,172.8223 53.5401,173.2457 49.0267,173.6677 44.5134,174.0872 40,174.5045"></polyline>
<text class = "party erc" x="631.1111" y="142"><tspan class="party_name">ERC</tspan><tspan class="party_result"> (23.0±2.9%)</tspan></text>
<polyline id="media-jxcat"  class="jxcat media" points=" 40,223.1114 44.5134,223.0771 49.0267,223.0356 53.5401,222.9863 58.0534,222.9297 62.5668,222.8696 67.0801,222.8126 71.5935,222.7683 76.1068,222.7495 80.6202,222.7752 85.1335,222.8809 89.6469,223.155 94.1602,223.4321 98.6736,223.7104 103.1869,223.9885 107.7003,224.2652 112.2136,224.5397 116.727,224.8112 121.2403,225.0793 125.7537,225.3436 130.267,225.604 134.7804,225.8604 139.2937,226.1128 143.8071,226.3613 148.3204,226.6062 152.8338,226.8478 157.3471,227.0863 161.8605,227.3223 166.3738,227.5518 170.8872,227.7612 175.4005,227.9259 179.9139,228.0066 184.4272,227.9275 188.9406,227.8725 193.4539,227.8372 197.9673,227.8178 202.4806,227.8102 206.994,227.8108 211.5073,227.8159 216.0207,227.8217 220.534,227.8245 225.0474,227.8201 229.5607,227.8039 234.0741,227.783 238.5874,227.7959 243.1008,227.9297 247.6141,228.3768 252.1275,228.7993 256.6408,229.1969 261.1542,229.5661 265.6675,229.9001 270.1809,230.1962 274.6942,230.4629 279.2076,230.734 283.7209,231.0561 288.2343,231.4251 292.7476,231.8382 297.261,232.2934 301.7743,232.7899 306.2877,233.3275 310.801,233.9067 315.3144,234.5292 319.8277,235.1972 324.3411,235.9141 328.8544,236.6844 333.3678,237.498 337.8811,238.3041 342.3945,238.9992 346.9078,239.418 351.4212,239.3046 355.9345,238.2078 360.4479,237.3135 364.9612,236.5967 369.4746,236.0363 373.9879,235.614 378.5013,235.3143 383.0146,235.1237 387.528,235.0276 392.0413,235.0059 396.5547,235.0323 401.068,235.0762 405.5814,235.2006 410.0947,235.4171 414.6081,235.7583 419.1214,236.2031 423.6348,236.6379 428.1481,236.8216 432.6615,236.2901 437.1748,235.9975 441.6882,235.8839 446.2016,235.8442 450.7149,235.6976 455.2283,235.105 459.7416,234.5196 464.255,233.5726 468.7683,231.4341 473.2817,229.3152 477.795,227.2302 482.3084,225.1927 486.8217,223.2155 491.3351,221.3098 495.8484,219.4856 500.3618,217.7513 504.8751,216.1139 509.3885,214.5787 513.9018,213.1667 518.4152,211.9358 522.9285,210.9914 527.4419,210.5182 531.9552,210.1607 536.4686,210.087 540.9819,210.0094 545.4953,209.8764 550.0086,209.3325 554.522,207.313 559.0353,205.255 563.5487,203.3872 568.062,201.7816 572.5754,200.4705 577.0887,199.463 581.6021,198.2751 586.1154,197.1431 590.6288,196.4127 595.1421,195.7786 599.6555,195.549 604.1688,195.2344 608.6822,194.8861 613.1955,194.5626 617.7089,194.3936 622.2222,194.6408"></polyline>
<polyline id="error-jxcat" class="jxcat error" points=" 40,186.9409 44.5134,187.4809 49.0267,188.0301 53.5401,188.5895 58.0534,189.156 62.5668,189.7179 67.0801,190.2543 71.5935,190.7376 76.1068,191.1332 80.6202,191.3954 85.1335,191.4497 89.6469,191.1376 94.1602,190.9191 98.6736,190.7864 103.1869,190.7326 107.7003,190.7511 112.2136,190.8362 116.727,190.9824 121.2403,191.1851 125.7537,191.44 130.267,191.7434 134.7804,192.0921 139.2937,192.4836 143.8071,192.9158 148.3204,193.3869 152.8338,193.8962 157.3471,194.4429 161.8605,195.0274 166.3738,195.6364 170.8872,196.2221 175.4005,196.6949 179.9139,196.9083 184.4272,196.5876 188.9406,196.374 193.4539,196.2548 197.9673,196.2193 202.4806,196.2577 206.994,196.3616 211.5073,196.5235 216.0207,196.7369 220.534,196.9955 225.0474,197.2941 229.5607,197.6276 234.0741,197.9874 238.5874,198.3585 243.1008,198.725 247.6141,199.0885 252.1275,199.5352 256.6408,200.0554 261.1542,200.6287 265.6675,201.2044 270.1809,201.701 274.6942,201.9986 279.2076,201.8686 283.7209,201.88 288.2343,202.018 292.7476,202.2709 297.261,202.6293 301.7743,203.0861 306.2877,203.6357 310.801,204.2744 315.3144,204.9997 319.8277,205.8107 324.3411,206.7082 328.8544,207.6944 333.3678,208.7545 337.8811,209.8243 342.3945,210.7764 346.9078,211.4101 351.4212,211.4178 355.9345,210.2643 360.4479,209.3786 364.9612,208.7285 369.4746,208.2867 373.9879,208.0303 378.5013,207.9396 383.0146,207.9981 387.528,208.1802 392.0413,208.4334 396.5547,208.6734 401.068,208.7729 405.5814,208.9418 410.0947,209.1287 414.6081,209.5183 419.1214,210.0766 423.6348,210.6553 428.1481,210.949 432.6615,210.3809 437.1748,210.1328 441.6882,210.1248 446.2016,210.222 450.7149,210.1969 455.2283,209.6278 459.7416,209.0735 464.255,208.0698 468.7683,205.5995 473.2817,203.2069 477.795,200.9045 482.3084,198.704 486.8217,196.6167 491.3351,194.6524 495.8484,192.8198 500.3618,191.1261 504.8751,189.5768 509.3885,188.1761 513.9018,186.9396 518.4152,191.4291 522.9285,190.674 527.4419,190.3182 531.9552,190.0946 536.4686,190.1215 540.9819,190.2155 545.4953,190.2959 550.0086,193.8147 554.522,190.2209 559.0353,189.5917 563.5487,187.7826 568.062,186.261 572.5754,184.9622 577.0887,183.6938 581.6021,180.8997 586.1154,179.6856 590.6288,178.8668 595.1421,178.1872 599.6555,175.4462 604.1688,175.1124 608.6822,174.7453 613.1955,174.3128 617.7089,173.9753 622.2222,173.8114 622.2222,215.4701 617.7089,214.8119 613.1955,214.8125 608.6822,215.0269 604.1688,215.3563 599.6555,215.6517 595.1421,213.3699 590.6288,213.9585 586.1154,214.6006 581.6021,215.6505 577.0887,215.2323 572.5754,215.9788 568.062,217.3022 563.5487,218.9918 559.0353,220.9183 554.522,224.4052 550.0086,224.8502 545.4953,229.457 540.9819,229.8033 536.4686,230.0526 531.9552,230.2268 527.4419,230.7182 522.9285,231.3089 518.4152,232.4426 513.9018,239.3939 509.3885,240.9813 504.8751,242.651 500.3618,244.3765 495.8484,246.1513 491.3351,247.9672 486.8217,249.8143 482.3084,251.6815 477.795,253.5558 473.2817,255.4234 468.7683,257.2688 464.255,259.0753 459.7416,259.9658 455.2283,260.5822 450.7149,261.1984 446.2016,261.4664 441.6882,261.643 437.1748,261.8622 432.6615,262.1993 428.1481,262.6942 423.6348,262.6205 419.1214,262.3295 414.6081,261.9982 410.0947,261.7055 405.5814,261.4593 401.068,261.3794 396.5547,261.3913 392.0413,261.5784 387.528,261.875 383.0146,262.2492 378.5013,262.689 373.9879,263.1977 369.4746,263.7858 364.9612,264.4649 360.4479,265.2484 355.9345,266.1514 351.4212,267.1914 346.9078,267.426 342.3945,267.222 337.8811,266.784 333.3678,266.2415 328.8544,265.6743 324.3411,265.12 319.8277,264.5837 315.3144,264.0587 310.801,263.539 306.2877,263.0192 301.7743,262.4937 297.261,261.9576 292.7476,261.4055 288.2343,260.8322 283.7209,260.2322 279.2076,259.5995 274.6942,258.9271 270.1809,258.6914 265.6675,258.5959 261.1542,258.5035 256.6408,258.3384 252.1275,258.0634 247.6141,257.665 243.1008,257.1344 238.5874,257.2334 234.0741,257.5786 229.5607,257.9803 225.0474,258.346 220.534,258.6535 216.0207,258.9066 211.5073,259.1082 206.994,259.26 202.4806,259.3627 197.9673,259.4163 193.4539,259.4196 188.9406,259.3709 184.4272,259.2674 179.9139,259.1049 175.4005,259.1568 170.8872,259.3003 166.3738,259.4673 161.8605,259.6172 157.3471,259.7297 152.8338,259.7994 148.3204,259.8255 143.8071,259.8068 139.2937,259.7419 134.7804,259.6286 130.267,259.4647 125.7537,259.2473 121.2403,258.9736 116.727,258.6401 112.2136,258.2432 107.7003,257.7793 103.1869,257.2444 98.6736,256.6343 94.1602,255.9451 89.6469,255.1724 85.1335,254.3122 80.6202,254.155 76.1068,254.3658 71.5935,254.799 67.0801,255.3708 62.5668,256.0213 58.0534,256.7035 53.5401,257.383 49.0267,258.041 44.5134,258.6733 40,259.2818"></polyline>
<text class = "party jxcat" x="631.1111" y="192"><tspan class="party_name">JxCAT</tspan><tspan class="party_result"> (17.2±2.6%)</tspan></text>
<polyline id="media-cec"  class="cec media" points=" 40,243.0335 44.5134,242.7342 49.0267,242.4209 53.5401,242.093 58.0534,241.7539 62.5668,241.416 67.0801,241.1004 71.5935,240.8347 76.1068,240.6532 80.6202,240.6046 85.1335,240.7786 89.6469,241.3998 94.1602,241.9956 98.6736,242.562 103.1869,243.0962 107.7003,243.5962 112.2136,244.0612 116.727,244.4907 121.2403,244.8851 125.7537,245.245 130.267,245.5717 134.7804,245.8663 139.2937,246.1305 143.8071,246.3661 148.3204,246.5751 152.8338,246.7594 157.3471,246.9212 161.8605,247.0631 166.3738,247.1847 170.8872,247.2789 175.4005,247.3299 179.9139,247.3075 184.4272,247.1459 188.9406,246.9739 193.4539,246.7877 197.9673,246.5839 202.4806,246.3596 206.994,246.1118 211.5073,245.8376 216.0207,245.5342 220.534,245.1987 225.0474,244.8278 229.5607,244.4182 234.0741,243.9915 238.5874,243.6309 243.1008,243.4989 247.6141,243.9218 252.1275,244.2189 256.6408,244.3968 261.1542,244.4706 265.6675,244.4822 270.1809,244.51 274.6942,244.6885 279.2076,245.3177 283.7209,245.8963 288.2343,246.422 292.7476,246.8936 297.261,247.3107 301.7743,247.6732 306.2877,247.9812 310.801,248.2349 315.3144,248.4344 319.8277,248.5796 324.3411,248.6698 328.8544,248.704 333.3678,248.6871 337.8811,248.6411 342.3945,248.6123 346.9078,248.6771 351.4212,248.9568 355.9345,249.6671 360.4479,250.2897 364.9612,250.8315 369.4746,251.2986 373.9879,251.6968 378.5013,252.0316 383.0146,252.3079 387.528,252.5235 392.0413,252.6576 396.5547,252.6635 401.068,252.4382 405.5814,252.4302 410.0947,252.7931 414.6081,253.0751 419.1214,253.2854 423.6348,253.4824 428.1481,253.8039 432.6615,254.5383 437.1748,255.1816 441.6882,255.746 446.2016,256.2604 450.7149,256.7762 455.2283,257.3855 459.7416,257.9229 464.255,258.3939 468.7683,258.8355 473.2817,259.3341 477.795,259.8757 482.3084,260.4487 486.8217,261.0432 491.3351,261.6509 495.8484,262.2648 500.3618,262.8791 504.8751,263.4888 509.3885,264.0903 513.9018,264.6719 518.4152,265.2037 522.9285,265.6382 527.4419,265.9128 531.9552,266.275 536.4686,266.7773 540.9819,267.3606 545.4953,267.9528 550.0086,268.2692 554.522,267.6027 559.0353,267.1414 563.5487,266.8203 568.062,266.6419 572.5754,266.6519 577.0887,267.0155 581.6021,267.3262 586.1154,267.481 590.6288,267.279 595.1421,267.1304 599.6555,267.0793 604.1688,267.0883 608.6822,267.2192 613.1955,267.5737 617.7089,267.7917 622.2222,267.7087"></polyline>
<polyline id="error-cec" class="cec error" points=" 40,216.1193 44.5134,216.3571 49.0267,216.5966 53.5401,216.8385 58.0534,217.0831 62.5668,217.3283 67.0801,217.5696 71.5935,217.7996 76.1068,218.0082 80.6202,218.1833 85.1335,218.3114 89.6469,218.3877 94.1602,218.5247 98.6736,218.7125 103.1869,218.9427 107.7003,219.2081 112.2136,219.503 116.727,219.8224 121.2403,220.1625 125.7537,220.5202 130.267,220.8933 134.7804,221.2802 139.2937,221.68 143.8071,222.0923 148.3204,222.5175 152.8338,222.9564 157.3471,223.4105 161.8605,223.8822 166.3738,224.3622 170.8872,224.8113 175.4005,225.1519 179.9139,225.252 184.4272,224.8562 188.9406,224.5275 193.4539,224.2544 197.9673,224.027 202.4806,223.837 206.994,223.677 211.5073,223.5406 216.0207,223.4224 220.534,223.3174 225.0474,223.2214 229.5607,223.1306 234.0741,223.0525 238.5874,223.021 243.1008,223.103 247.6141,223.4472 252.1275,223.765 256.6408,224.0544 261.1542,224.315 265.6675,224.5485 270.1809,224.7608 274.6942,224.9671 279.2076,225.2253 283.7209,225.5167 288.2343,225.8286 292.7476,226.1509 297.261,226.4761 301.7743,226.7978 306.2877,227.1112 310.801,227.4121 315.3144,227.6969 319.8277,227.9623 324.3411,228.2054 328.8544,228.4232 333.3678,228.6163 337.8811,228.797 342.3945,228.9937 346.9078,229.256 351.4212,229.667 355.9345,230.3825 360.4479,231.0638 364.9612,231.7111 369.4746,232.3252 373.9879,232.908 378.5013,233.4616 383.0146,233.9889 387.528,234.4775 392.0413,234.8761 396.5547,235.0832 401.068,234.9024 405.5814,234.933 410.0947,235.2735 414.6081,235.6013 419.1214,235.9139 423.6348,236.2417 428.1481,236.6721 432.6615,237.4071 437.1748,238.1185 441.6882,238.8012 446.2016,239.4595 450.7149,240.1066 455.2283,240.769 459.7416,241.3638 464.255,241.8175 468.7683,242.0169 473.2817,242.3305 477.795,242.7404 482.3084,243.2317 486.8217,243.7917 491.3351,244.4094 495.8484,245.0752 500.3618,245.7809 504.8751,246.5195 509.3885,247.2853 513.9018,248.0609 518.4152,251.8989 522.9285,252.5215 527.4419,252.9101 531.9552,253.4 536.4686,254.0013 540.9819,254.7442 545.4953,255.5302 550.0086,258.1847 554.522,256.6157 559.0353,256.9659 563.5487,256.7096 568.062,256.6158 572.5754,256.6532 577.0887,256.8311 581.6021,256.2297 586.1154,256.3388 590.6288,256.0707 595.1421,255.8902 599.6555,254.4156 604.1688,254.4139 608.6822,254.5383 613.1955,254.8212 617.7089,254.9144 622.2222,254.4985 622.2222,280.9189 617.7089,280.6689 613.1955,280.3263 608.6822,279.9 604.1688,279.7628 599.6555,279.7431 595.1421,278.3705 590.6288,278.4874 586.1154,278.6232 581.6021,278.4228 577.0887,277.1998 572.5754,276.6506 568.062,276.668 563.5487,276.9311 559.0353,277.3169 554.522,278.5897 550.0086,278.3537 545.4953,280.3754 540.9819,279.977 536.4686,279.5532 531.9552,279.15 527.4419,278.9156 522.9285,278.7549 518.4152,278.5084 513.9018,281.283 509.3885,280.8952 504.8751,280.4581 500.3618,279.9773 495.8484,279.4545 491.3351,278.8924 486.8217,278.2946 482.3084,277.6656 477.795,277.0111 473.2817,276.3378 468.7683,275.6541 464.255,274.9703 459.7416,274.482 455.2283,274.002 450.7149,273.4457 446.2016,273.0613 441.6882,272.6908 437.1748,272.2446 432.6615,271.6695 428.1481,270.9357 423.6348,270.7231 419.1214,270.657 414.6081,270.549 410.0947,270.3127 405.5814,269.9274 401.068,269.974 396.5547,270.2438 392.0413,270.439 387.528,270.5695 383.0146,270.6269 378.5013,270.6015 373.9879,270.4857 369.4746,270.2719 364.9612,269.9518 360.4479,269.5156 355.9345,268.9517 351.4212,268.2466 346.9078,268.0983 342.3945,268.2309 337.8811,268.4852 333.3678,268.7579 328.8544,268.9849 324.3411,269.1341 319.8277,269.1968 315.3144,269.172 310.801,269.0578 306.2877,268.8512 301.7743,268.5486 297.261,268.1453 292.7476,267.6363 288.2343,267.0154 283.7209,266.2759 279.2076,265.4102 274.6942,264.4098 270.1809,264.2591 265.6675,264.4158 261.1542,264.6262 256.6408,264.7392 252.1275,264.6729 247.6141,264.3965 243.1008,263.8948 238.5874,264.2407 234.0741,264.9304 229.5607,265.7058 225.0474,266.4342 220.534,267.0799 216.0207,267.646 211.5073,268.1345 206.994,268.5465 202.4806,268.8822 197.9673,269.1408 193.4539,269.321 188.9406,269.4203 184.4272,269.4357 179.9139,269.3631 175.4005,269.5078 170.8872,269.7465 166.3738,270.0072 161.8605,270.244 157.3471,270.4319 152.8338,270.5623 148.3204,270.6326 143.8071,270.64 139.2937,270.5811 134.7804,270.4524 130.267,270.25 125.7537,269.9699 121.2403,269.6077 116.727,269.159 112.2136,268.6194 107.7003,267.9843 103.1869,267.2497 98.6736,266.4116 94.1602,265.4666 89.6469,264.4119 85.1335,263.2458 80.6202,263.026 76.1068,263.2982 71.5935,263.8698 67.0801,264.6311 62.5668,265.5037 58.0534,266.4247 53.5401,267.3475 49.0267,268.2452 44.5134,269.1113 40,269.9478"></polyline>
<text class = "party cec" x="631.1111" y="257"><tspan class="party_name">CeC</tspan><tspan class="party_result"> (8.1±1.6%)</tspan></text>
<polyline id="media-psc"  class="psc media" points=" 40,223.1554 44.5134,223.1303 49.0267,223.0989 53.5401,223.0605 58.0534,223.0154 62.5668,222.9672 67.0801,222.9229 71.5935,222.8928 76.1068,222.891 80.6202,222.939 85.1335,223.0779 89.6469,223.4099 94.1602,223.7555 98.6736,224.1139 103.1869,224.4849 107.7003,224.8683 112.2136,225.2647 116.727,225.6747 121.2403,226.0996 125.7537,226.5406 130.267,226.9999 134.7804,227.4796 139.2937,227.9826 143.8071,228.512 148.3204,229.0719 152.8338,229.6667 157.3471,230.3018 161.8605,230.9833 166.3738,231.6917 170.8872,232.3386 175.4005,232.7484 179.9139,232.6176 184.4272,231.3287 188.9406,230.1553 193.4539,229.0859 197.9673,228.1091 202.4806,227.2143 206.994,226.3915 211.5073,225.6313 216.0207,224.9245 220.534,224.2625 225.0474,223.6368 229.5607,223.0388 234.0741,222.4841 238.5874,222.0445 243.1008,221.8636 247.6141,222.2384 252.1275,222.5405 256.6408,222.7824 261.1542,222.9744 265.6675,223.1282 270.1809,223.2616 274.6942,223.4054 279.2076,223.6287 283.7209,223.8663 288.2343,224.119 292.7476,224.388 297.261,224.6751 301.7743,224.9829 306.2877,225.3142 310.801,225.6723 315.3144,226.0611 319.8277,226.4852 324.3411,226.9499 328.8544,227.4615 333.3678,228.0129 337.8811,228.5577 342.3945,228.9978 346.9078,229.1722 351.4212,228.8261 355.9345,227.5039 360.4479,226.3505 364.9612,225.3447 369.4746,224.4688 373.9879,223.7073 378.5013,223.0471 383.0146,222.4769 387.528,221.9933 392.0413,221.6069 396.5547,221.341 401.068,221.2434 405.5814,221.0133 410.0947,220.5459 414.6081,220.0921 419.1214,219.669 423.6348,219.3325 428.1481,219.1929 432.6615,219.4657 437.1748,219.7159 441.6882,219.9214 446.2016,220.0108 450.7149,219.8535 455.2283,219.2126 459.7416,218.667 464.255,218.1706 468.7683,217.6166 473.2817,217.0256 477.795,216.4078 482.3084,215.7717 486.8217,215.1248 491.3351,214.4733 495.8484,213.8227 500.3618,213.1779 504.8751,212.5428 509.3885,211.9209 513.9018,211.3149 518.4152,210.7222 522.9285,210.1474 527.4419,209.6292 531.9552,209.3773 536.4686,209.7138 540.9819,209.9409 545.4953,210.0647 550.0086,210.027 554.522,209.62 559.0353,209.1385 563.5487,208.6699 568.062,208.2812 572.5754,208.0706 577.0887,208.2577 581.6021,208.3018 586.1154,208.23 590.6288,208.1161 595.1421,208.25 599.6555,209.0515 604.1688,209.6493 608.6822,209.9412 613.1955,209.7714 617.7089,209.6962 622.2222,209.9433"></polyline>
<polyline id="error-psc" class="psc error" points=" 40,189.0641 44.5134,189.6136 49.0267,190.1734 53.5401,190.744 58.0534,191.3224 62.5668,191.8966 67.0801,192.4461 71.5935,192.9439 76.1068,193.357 80.6202,193.6423 85.1335,193.731 89.6469,193.4794 94.1602,193.3324 98.6736,193.2833 103.1869,193.3265 107.7003,193.4565 112.2136,193.6689 116.727,193.9598 121.2403,194.3262 125.7537,194.7656 130.267,195.2764 134.7804,195.8581 139.2937,196.5106 143.8071,197.2351 148.3204,198.0338 152.8338,198.9099 157.3471,199.868 161.8605,200.9142 166.3738,202.0184 170.8872,203.0558 175.4005,203.7803 179.9139,203.7724 184.4272,202.1971 188.9406,200.8225 193.4539,199.6291 197.9673,198.599 202.4806,197.716 206.994,196.9653 211.5073,196.3337 216.0207,195.8092 220.534,195.3808 225.0474,195.0388 229.5607,194.774 234.0741,194.5867 238.5874,194.4952 243.1008,194.5402 247.6141,194.827 252.1275,195.1489 256.6408,195.5097 261.1542,195.9029 265.6675,196.2961 270.1809,196.628 274.6942,196.7991 279.2076,196.6118 283.7209,196.5298 288.2343,196.5426 292.7476,196.6426 297.261,196.8244 301.7743,197.0841 306.2877,197.4193 310.801,197.8289 315.3144,198.3131 319.8277,198.8732 324.3411,199.5121 328.8544,200.2339 333.3678,201.0267 337.8811,201.8311 342.3945,202.5248 346.9078,202.9112 351.4212,202.6829 355.9345,201.2991 360.4479,200.1497 364.9612,199.2065 369.4746,198.4455 373.9879,197.8469 378.5013,197.3936 383.0146,197.0714 387.528,196.8661 392.0413,196.7555 396.5547,196.7041 401.068,196.6607 405.5814,196.4677 410.0947,195.9519 414.6081,195.5281 419.1214,195.2011 423.6348,194.9953 428.1481,194.963 432.6615,195.2184 437.1748,195.5291 441.6882,195.8529 446.2016,196.0888 450.7149,196.0589 455.2283,195.4439 459.7416,194.9339 464.255,194.3914 468.7683,193.5338 473.2817,192.7002 477.795,191.8976 482.3084,191.1316 486.8217,190.4072 491.3351,189.7288 495.8484,189.0997 500.3618,188.5231 504.8751,188.0012 509.3885,187.5363 513.9018,187.125 518.4152,191.6588 522.9285,191.2817 527.4419,190.8803 531.9552,190.7647 536.4686,191.2098 540.9819,191.6145 545.4953,191.9564 550.0086,195.5601 554.522,193.7683 559.0353,194.5824 563.5487,194.1954 568.062,193.9092 572.5754,193.7283 577.0887,193.6793 581.6021,192.3017 586.1154,192.1673 590.6288,191.9774 595.1421,192.0802 599.6555,190.6606 604.1688,191.2563 608.6822,191.5413 613.1955,191.2685 617.7089,191.0322 622.2222,190.8833 622.2222,229.0033 617.7089,228.3602 613.1955,228.2744 608.6822,228.341 604.1688,228.0423 599.6555,227.4424 595.1421,224.4199 590.6288,224.2547 586.1154,224.2926 581.6021,224.302 577.0887,222.8361 572.5754,222.413 568.062,222.6531 563.5487,223.1445 559.0353,223.6945 554.522,225.4718 550.0086,224.4938 545.4953,228.1731 540.9819,228.2674 536.4686,228.2178 531.9552,227.9899 527.4419,228.3781 522.9285,229.0132 518.4152,229.7855 513.9018,235.5049 509.3885,236.3054 504.8751,237.0843 500.3618,237.8327 495.8484,238.5457 491.3351,239.2178 486.8217,239.8423 482.3084,240.4118 477.795,240.918 473.2817,241.351 468.7683,241.6995 464.255,241.9498 459.7416,242.4002 455.2283,242.9813 450.7149,243.6481 446.2016,243.9329 441.6882,243.9899 437.1748,243.9028 432.6615,243.713 428.1481,243.4227 423.6348,243.6696 419.1214,244.137 414.6081,244.6561 410.0947,245.1398 405.5814,245.5588 401.068,245.8261 396.5547,245.978 392.0413,246.4583 387.528,247.1205 383.0146,247.8824 378.5013,248.7007 373.9879,249.5677 369.4746,250.492 364.9612,251.483 360.4479,252.5513 355.9345,253.7088 351.4212,254.9693 346.9078,255.4332 342.3945,255.4707 337.8811,255.2843 333.3678,254.999 328.8544,254.6891 324.3411,254.3877 319.8277,254.0971 315.3144,253.8091 310.801,253.5156 306.2877,253.209 301.7743,252.8817 297.261,252.5259 292.7476,252.1333 288.2343,251.6954 283.7209,251.2029 279.2076,250.6455 274.6942,250.0118 270.1809,249.8951 265.6675,249.9603 261.1542,250.046 256.6408,250.0551 252.1275,249.932 247.6141,249.6498 243.1008,249.1871 238.5874,249.5938 234.0741,250.3816 229.5607,251.3037 225.0474,252.2348 220.534,253.1442 216.0207,254.0398 211.5073,254.9288 206.994,255.8178 202.4806,256.7126 197.9673,257.6191 193.4539,258.5427 188.9406,259.4882 184.4272,260.4603 179.9139,261.4627 175.4005,261.7166 170.8872,261.6215 166.3738,261.365 161.8605,261.0525 157.3471,260.7355 152.8338,260.4235 148.3204,260.11 143.8071,259.789 139.2937,259.4545 134.7804,259.1012 130.267,258.7233 125.7537,258.3157 121.2403,257.8729 116.727,257.3896 112.2136,256.8605 107.7003,256.2802 103.1869,255.6433 98.6736,254.9445 94.1602,254.1787 89.6469,253.3405 85.1335,252.4248 80.6202,252.2357 76.1068,252.4249 71.5935,252.8417 67.0801,253.3998 62.5668,254.0379 58.0534,254.7084 53.5401,255.3769 49.0267,256.0244 44.5134,256.6469 40,257.2467"></polyline>
<text class = "party psc" x="631.1111" y="213"><tspan class="party_name">PSC</tspan><tspan class="party_result"> (15.3±2.4%)</tspan></text>
<polyline id="media-cs"  class="cs media" points=" 40,186.1839 44.5134,186.4352 49.0267,186.6965 53.5401,186.9681 58.0534,187.2472 62.5668,187.5242 67.0801,187.7832 71.5935,188.0039 76.1068,188.1615 80.6202,188.2216 85.1335,188.1208 89.6469,187.7008 94.1602,187.3079 98.6736,186.9455 103.1869,186.6159 107.7003,186.3207 112.2136,186.0608 116.727,185.8368 121.2403,185.6487 125.7537,185.4965 130.267,185.3799 134.7804,185.2982 139.2937,185.2511 143.8071,185.238 148.3204,185.2584 152.8338,185.312 157.3471,185.3985 161.8605,185.5176 166.3738,185.663 170.8872,185.8124 175.4005,185.9234 179.9139,185.9259 184.4272,185.6833 188.9406,185.4922 193.4539,185.3521 197.9673,185.2626 202.4806,185.2231 206.994,185.2331 211.5073,185.2923 216.0207,185.4006 220.534,185.5581 225.0474,185.7654 229.5607,186.0229 234.0741,186.3141 238.5874,186.5794 243.1008,186.7066 247.6141,186.4773 252.1275,186.3669 256.6408,186.3746 261.1542,186.485 265.6675,186.64 270.1809,186.7279 274.6942,186.5544 279.2076,185.679 283.7209,184.8735 288.2343,184.1373 292.7476,183.4693 297.261,182.8679 301.7743,182.3314 306.2877,181.858 310.801,181.4458 315.3144,181.0931 319.8277,180.7985 324.3411,180.5605 328.8544,180.3783 333.3678,180.2484 337.8811,180.16 342.3945,180.0908 346.9078,180.005 351.4212,179.8464 355.9345,179.5181 360.4479,179.2535 364.9612,179.0535 369.4746,178.919 373.9879,178.8514 378.5013,178.8531 383.0146,178.9272 387.528,179.049 392.0413,179.1178 396.5547,178.9257 401.068,178.0667 405.5814,177.341 410.0947,176.6719 414.6081,176.0736 419.1214,175.5536 423.6348,175.1152 428.1481,174.7491 432.6615,174.4231 437.1748,174.1383 441.6882,173.8744 446.2016,173.5679 450.7149,173.1021 455.2283,172.2667 459.7416,171.5491 464.255,170.9297 468.7683,170.3443 473.2817,169.6996 477.795,169.0102 482.3084,168.2884 486.8217,167.5446 491.3351,166.7875 495.8484,166.0248 500.3618,165.2628 504.8751,164.5067 509.3885,163.7605 513.9018,163.0389 518.4152,162.383 522.9285,161.8391 527.4419,161.4193 531.9552,160.6127 536.4686,159.0331 540.9819,157.3265 545.4953,155.6361 550.0086,154.6023 554.522,155.8144 559.0353,156.439 563.5487,156.758 568.062,156.9553 572.5754,157.2648 577.0887,158.1423 581.6021,158.8558 586.1154,159.353 590.6288,159.4765 595.1421,159.3142 599.6555,158.5617 604.1688,157.8353 608.6822,157.217 613.1955,156.8738 617.7089,156.7108 622.2222,157.1394"></polyline>
<polyline id="error-cs" class="cs error" points=" 40,151.0072 44.5134,151.8795 49.0267,152.7802 53.5401,153.7112 58.0534,154.6658 62.5668,155.6175 67.0801,156.5203 71.5935,157.3128 76.1068,157.9187 80.6202,158.2324 85.1335,158.0696 89.6469,156.9991 94.1602,156.0527 98.6736,155.2275 103.1869,154.5201 107.7003,153.9268 112.2136,153.4433 116.727,153.0653 121.2403,152.7887 125.7537,152.6093 130.267,152.5229 134.7804,152.5261 139.2937,152.6155 143.8071,152.7882 148.3204,153.0421 152.8338,153.3752 157.3471,153.7867 161.8605,154.2761 166.3738,154.8269 170.8872,155.3799 175.4005,155.8217 179.9139,155.9651 184.4272,155.4563 188.9406,155.0897 193.4539,154.8559 197.9673,154.7471 202.4806,154.7567 206.994,154.8791 211.5073,155.1103 216.0207,155.447 220.534,155.8872 225.0474,156.4301 229.5607,157.0759 234.0741,157.7904 238.5874,158.4526 243.1008,158.8321 247.6141,158.4895 252.1275,158.3873 256.6408,158.5151 261.1542,158.8387 265.6675,159.251 270.1809,159.551 274.6942,159.3981 279.2076,158.0498 283.7209,156.8698 288.2343,155.846 292.7476,154.9679 297.261,154.226 301.7743,153.6121 306.2877,153.1185 310.801,152.7387 315.3144,152.467 319.8277,152.2983 324.3411,152.2286 328.8544,152.2545 333.3678,152.368 337.8811,152.545 342.3945,152.7399 346.9078,152.8814 351.4212,152.8621 355.9345,152.5029 360.4479,152.2756 364.9612,152.1734 369.4746,152.1912 373.9879,152.3257 378.5013,152.5753 383.0146,152.9407 387.528,153.3847 392.0413,153.7686 396.5547,153.8157 401.068,153.003 405.5814,152.3109 410.0947,151.5889 414.6081,151.0247 419.1214,150.6122 423.6348,150.3189 428.1481,150.0683 432.6615,149.7104 437.1748,149.481 441.6882,149.3382 446.2016,149.1865 450.7149,148.8583 455.2283,148.0537 459.7416,147.3772 464.255,146.7088 468.7683,145.791 473.2817,144.8821 477.795,143.9926 482.3084,143.1314 486.8217,142.3061 491.3351,141.5231 495.8484,140.7878 500.3618,140.1045 504.8751,139.4766 509.3885,138.9065 513.9018,138.4026 518.4152,142.7696 522.9285,142.4487 527.4419,142.1631 531.9552,141.5009 536.4686,140.0123 540.9819,138.4751 545.4953,137.0033 550.0086,139.5271 554.522,139.4016 559.0353,141.305 563.5487,141.7282 568.062,142.0496 572.5754,142.3998 577.0887,143.0228 581.6021,142.3438 586.1154,142.7798 590.6288,142.8234 595.1421,142.6216 599.6555,139.6738 604.1688,138.9228 608.6822,138.2823 613.1955,137.8233 617.7089,137.4804 622.2222,137.4692 622.2222,176.8095 617.7089,175.9412 613.1955,175.9243 608.6822,176.1517 604.1688,176.7479 599.6555,177.4496 595.1421,176.0068 590.6288,176.1297 586.1154,175.9262 581.6021,175.3679 577.0887,173.2618 572.5754,172.1297 568.062,171.8611 563.5487,171.7879 559.0353,171.5729 554.522,172.2272 550.0086,169.6774 545.4953,174.2689 540.9819,176.1779 536.4686,178.0539 531.9552,179.7244 527.4419,180.6755 522.9285,181.2295 518.4152,181.9964 513.9018,187.6752 509.3885,188.6145 504.8751,189.5369 500.3618,190.4212 495.8484,191.2619 491.3351,192.0519 486.8217,192.7831 482.3084,193.4455 477.795,194.0279 473.2817,194.5171 468.7683,194.8975 464.255,195.1506 459.7416,195.721 455.2283,196.4797 450.7149,197.3459 446.2016,197.9492 441.6882,198.4106 437.1748,198.7956 432.6615,199.1358 428.1481,199.4299 423.6348,199.9114 419.1214,200.4949 414.6081,201.1225 410.0947,201.755 405.5814,202.371 401.068,203.1305 396.5547,204.0357 392.0413,204.467 387.528,204.7133 383.0146,204.9137 378.5013,205.1309 373.9879,205.3772 369.4746,205.6467 364.9612,205.9335 360.4479,206.2314 355.9345,206.5332 351.4212,206.8307 346.9078,207.1286 342.3945,207.4417 337.8811,207.775 333.3678,208.1289 328.8544,208.502 324.3411,208.8925 319.8277,209.2986 315.3144,209.7192 310.801,210.1528 306.2877,210.5975 301.7743,211.0508 297.261,211.5098 292.7476,211.9707 288.2343,212.4286 283.7209,212.8772 279.2076,213.3082 274.6942,213.7106 270.1809,213.9047 265.6675,214.0291 261.1542,214.1313 256.6408,214.2342 252.1275,214.3464 247.6141,214.465 243.1008,214.581 238.5874,214.7063 234.0741,214.8378 229.5607,214.97 225.0474,215.1007 220.534,215.2291 216.0207,215.3542 211.5073,215.4742 206.994,215.587 202.4806,215.6895 197.9673,215.7781 193.4539,215.8484 188.9406,215.8947 184.4272,215.9103 179.9139,215.8867 175.4005,216.0251 170.8872,216.245 166.3738,216.4992 161.8605,216.7591 157.3471,217.0103 152.8338,217.2488 148.3204,217.4748 143.8071,217.6877 139.2937,217.8867 134.7804,218.0703 130.267,218.2368 125.7537,218.3838 121.2403,218.5087 116.727,218.6082 112.2136,218.6783 107.7003,218.7145 103.1869,218.7117 98.6736,218.6635 94.1602,218.5632 89.6469,218.4024 85.1335,218.1721 80.6202,218.2107 76.1068,218.4043 71.5935,218.6949 67.0801,219.0461 62.5668,219.4308 58.0534,219.8286 53.5401,220.225 49.0267,220.6128 44.5134,220.9909 40,221.3605"></polyline>
<text class = "party cs" x="631.1111" y="162"><tspan class="party_name">C's</tspan><tspan class="party_result"> (21.8±2.4%)</tspan></text>
<polyline id="media-pp"  class="pp media" points=" 40,258.5745 44.5134,258.4546 49.0267,258.3329 53.5401,258.2095 58.0534,258.0858 62.5668,257.9649 67.0801,257.852 71.5935,257.753 76.1068,257.6744 80.6202,257.6246 85.1335,257.6186 89.6469,257.6937 94.1602,257.7507 98.6736,257.7884 103.1869,257.8061 107.7003,257.8033 112.2136,257.7795 116.727,257.7347 121.2403,257.6687 125.7537,257.5813 130.267,257.4725 134.7804,257.3419 139.2937,257.1894 143.8071,257.0145 148.3204,256.8167 152.8338,256.5951 157.3471,256.3489 161.8605,256.0768 166.3738,255.7871 170.8872,255.5132 175.4005,255.3187 179.9139,255.311 184.4272,255.7039 188.9406,256.038 193.4539,256.3168 197.9673,256.544 202.4806,256.7231 206.994,256.8572 211.5073,256.9494 216.0207,257.0026 220.534,257.0196 225.0474,257.0033 229.5607,256.9567 234.0741,256.8817 238.5874,256.7751 243.1008,256.6209 247.6141,256.3668 252.1275,256.0535 256.6408,255.6752 261.1542,255.2447 265.6675,254.8215 270.1809,254.5208 274.6942,254.5393 279.2076,255.3262 283.7209,256.031 288.2343,256.6593 292.7476,257.2162 297.261,257.7061 301.7743,258.1327 306.2877,258.4994 310.801,258.8092 315.3144,259.0644 319.8277,259.267 324.3411,259.4185 328.8544,259.5197 333.3678,259.575 337.8811,259.6 342.3945,259.626 346.9078,259.7043 351.4212,259.9155 355.9345,260.4029 360.4479,260.8296 364.9612,261.1999 369.4746,261.5181 373.9879,261.7884 378.5013,262.0151 383.0146,262.2026 387.528,262.3458 392.0413,262.4143 396.5547,262.3398 401.068,261.9749 405.5814,261.8945 410.0947,262.2825 414.6081,262.6059 419.1214,262.866 423.6348,263.0657 428.1481,263.2133 432.6615,263.3247 437.1748,263.3907 441.6882,263.4126 446.2016,263.4021 450.7149,263.3917 455.2283,263.4588 459.7416,263.5749 464.255,263.9051 468.7683,264.826 473.2817,265.7504 477.795,266.6714 482.3084,267.5825 486.8217,268.4777 491.3351,269.3518 495.8484,270.1998 500.3618,271.0173 504.8751,271.8007 509.3885,272.5466 513.9018,273.2562 518.4152,273.9477 522.9285,274.6602 527.4419,275.4617 531.9552,276.147 536.4686,276.604 540.9819,277.2214 545.4953,277.9467 550.0086,278.5849 554.522,278.7218 559.0353,279.2943 563.5487,279.9446 568.062,280.5317 572.5754,280.893 577.0887,280.717 581.6021,280.7206 586.1154,280.8282 590.6288,280.9514 595.1421,281.0879 599.6555,281.1325 604.1688,281.2062 608.6822,281.2622 613.1955,281.2461 617.7089,281.1977 622.2222,281.0927"></polyline>
<polyline id="error-pp" class="pp error" points=" 40,231.5121 44.5134,231.9178 49.0267,232.3364 53.5401,232.7694 58.0534,233.2147 62.5668,233.6613 67.0801,234.0891 71.5935,234.4698 76.1068,234.767 80.6202,234.93 85.1335,234.8731 89.6469,234.4064 94.1602,234.002 98.6736,233.654 103.1869,233.3567 107.7003,233.1052 112.2136,232.8948 116.727,232.7212 121.2403,232.5806 125.7537,232.4694 130.267,232.3842 134.7804,232.3222 139.2937,232.2807 143.8071,232.2573 148.3204,232.2497 152.8338,232.2561 157.3471,232.2749 161.8605,232.3044 166.3738,232.3452 170.8872,232.4007 175.4005,232.478 179.9139,232.5906 184.4272,232.7797 188.9406,232.9839 193.4539,233.1992 197.9673,233.4229 202.4806,233.6534 206.994,233.8895 211.5073,234.1311 216.0207,234.3786 220.534,234.6329 225.0474,234.896 229.5607,235.1705 234.0741,235.4439 238.5874,235.6623 243.1008,235.712 247.6141,235.3569 252.1275,235.0401 256.6408,234.7479 261.1542,234.4781 265.6675,234.2528 270.1809,234.1183 274.6942,234.1583 279.2076,234.5941 283.7209,235.028 288.2343,235.4556 292.7476,235.8735 297.261,236.2791 301.7743,236.6706 306.2877,237.0465 310.801,237.4055 315.3144,237.7465 319.8277,238.0686 324.3411,238.3709 328.8544,238.6523 333.3678,238.9134 337.8811,239.1599 342.3945,239.4054 346.9078,239.6748 351.4212,240.0113 355.9345,240.4982 360.4479,240.9766 364.9612,241.4444 369.4746,241.9007 373.9879,242.3459 378.5013,242.781 383.0146,243.2085 387.528,243.6133 392.0413,243.9352 396.5547,244.0519 401.068,243.7245 405.5814,243.6789 410.0947,244.0474 414.6081,244.4173 419.1214,244.7784 423.6348,245.105 428.1481,245.353 432.6615,245.4474 437.1748,245.5628 441.6882,245.6837 446.2016,245.7978 450.7149,245.9002 455.2283,246.0039 459.7416,246.1643 464.255,246.4743 468.7683,247.1745 473.2817,247.9334 477.795,248.7403 482.3084,249.5851 486.8217,250.4591 491.3351,251.3541 495.8484,252.2626 500.3618,253.1779 504.8751,254.094 509.3885,255.0056 513.9018,255.9084 518.4152,260.204 522.9285,261.1079 527.4419,262.0369 531.9552,262.8561 536.4686,263.4083 540.9819,264.1812 545.4953,265.0975 550.0086,268.2886 554.522,267.4703 559.0353,268.9631 563.5487,269.7023 568.062,270.3908 572.5754,270.7883 577.0887,270.4248 581.6021,269.4357 586.1154,269.5 590.6288,269.5708 595.1421,269.686 599.6555,268.1811 604.1688,268.247 608.6822,268.2954 613.1955,268.2021 617.7089,268.0295 622.2222,267.6113 622.2222,294.5741 617.7089,294.366 613.1955,294.2901 608.6822,294.229 604.1688,294.1654 599.6555,294.0839 595.1421,292.4898 590.6288,292.3319 586.1154,292.1563 581.6021,292.0054 577.0887,291.0091 572.5754,290.9977 568.062,290.6726 563.5487,290.1869 559.0353,289.6254 554.522,289.9734 550.0086,288.8811 545.4953,290.7959 540.9819,290.2616 536.4686,289.7998 531.9552,289.4379 527.4419,288.8866 522.9285,288.2124 518.4152,287.6914 513.9018,290.604 509.3885,290.0877 504.8751,289.5075 500.3618,288.8568 495.8484,288.1369 491.3351,287.3495 486.8217,286.4963 482.3084,285.5798 477.795,284.6025 473.2817,283.5674 468.7683,282.4775 464.255,281.3359 459.7416,280.9855 455.2283,280.9138 450.7149,280.8832 446.2016,281.0065 441.6882,281.1415 437.1748,281.2186 432.6615,281.202 428.1481,281.0736 423.6348,281.0265 419.1214,280.9537 414.6081,280.7946 410.0947,280.5177 405.5814,280.1101 401.068,280.2253 396.5547,280.6277 392.0413,280.8934 387.528,281.0783 383.0146,281.1967 378.5013,281.2492 373.9879,281.231 369.4746,281.1356 364.9612,280.9555 360.4479,280.6826 355.9345,280.3076 351.4212,279.8198 346.9078,279.7337 342.3945,279.8466 337.8811,280.0401 333.3678,280.2366 328.8544,280.387 324.3411,280.466 319.8277,280.4654 315.3144,280.3823 310.801,280.2129 306.2877,279.9523 301.7743,279.5947 297.261,279.133 292.7476,278.559 288.2343,277.8631 283.7209,277.0339 279.2076,276.0583 274.6942,274.9202 270.1809,274.9233 265.6675,275.3902 261.1542,276.0112 256.6408,276.6025 252.1275,277.0668 247.6141,277.3767 243.1008,277.5298 238.5874,277.8879 234.0741,278.3194 229.5607,278.7429 225.0474,279.1107 220.534,279.4063 216.0207,279.6266 211.5073,279.7676 206.994,279.8248 202.4806,279.7928 197.9673,279.6651 193.4539,279.4344 188.9406,279.092 184.4272,278.6281 179.9139,278.0314 175.4005,278.1593 170.8872,278.6256 166.3738,279.2291 161.8605,279.8491 157.3471,280.4229 152.8338,280.9341 148.3204,281.3836 143.8071,281.7718 139.2937,282.0981 134.7804,282.3616 130.267,282.5607 125.7537,282.6933 121.2403,282.7568 116.727,282.7482 112.2136,282.6643 107.7003,282.5013 103.1869,282.2555 98.6736,281.9229 94.1602,281.4994 89.6469,280.9811 85.1335,280.364 80.6202,280.3193 76.1068,280.5819 71.5935,281.0362 67.0801,281.6149 62.5668,282.2685 58.0534,282.9568 53.5401,283.6496 49.0267,284.3293 44.5134,284.9914 40,285.637"></polyline>
<text class = "party pp" x="631.1111" y="277"><tspan class="party_name">PP</tspan><tspan class="party_result"> (6.5±1.7%)</tspan></text>
<polyline id="media-otros"  class="otros media" points=" 40,310.2552 44.5134,310.2908 49.0267,310.3293 53.5401,310.3709 58.0534,310.4152 62.5668,310.4601 67.0801,310.5018 71.5935,310.5351 76.1068,310.5532 80.6202,310.5459 85.1335,310.4945 89.6469,310.3517 94.1602,310.208 98.6736,310.0639 103.1869,309.9199 107.7003,309.776 112.2136,309.6325 116.727,309.489 121.2403,309.3453 125.7537,309.2011 130.267,309.0557 134.7804,308.9085 139.2937,308.7588 143.8071,308.6055 148.3204,308.4476 152.8338,308.2838 157.3471,308.1126 161.8605,307.9323 166.3738,307.7478 170.8872,307.5815 175.4005,307.4781 179.9139,307.5154 184.4272,307.8522 188.9406,308.1632 193.4539,308.4521 197.9673,308.7223 202.4806,308.9773 206.994,309.2204 211.5073,309.455 216.0207,309.6844 220.534,309.9123 225.0474,310.1424 229.5607,310.3789 234.0741,310.6086 238.5874,310.7732 243.1008,310.7519 247.6141,310.2885 252.1275,309.8704 256.6408,309.4899 261.1542,309.1455 265.6675,308.8468 270.1809,308.6127 274.6942,308.4729 279.2076,308.4971 283.7209,308.4944 288.2343,308.4693 292.7476,308.4252 297.261,308.3645 301.7743,308.2891 306.2877,308.2002 310.801,308.0986 315.3144,307.9846 319.8277,307.8583 324.3411,307.7195 328.8544,307.5676 333.3678,307.4045 337.8811,307.2398 342.3945,307.0923 346.9078,306.9917 351.4212,306.9832 355.9345,307.1452 360.4479,307.2616 364.9612,307.3356 369.4746,307.3698 373.9879,307.3657 378.5013,307.3242 383.0146,307.245 387.528,307.1414 392.0413,307.0645 396.5547,307.1166 401.068,307.4941 405.5814,307.8522 410.0947,308.2646 414.6081,308.6312 419.1214,308.951 423.6348,309.2304 428.1481,309.4925 432.6615,309.7927 437.1748,310.0739 441.6882,310.3463 446.2016,310.6425 450.7149,311.0186 455.2283,311.5675 459.7416,312.0171 464.255,312.3026 468.7683,312.2927 473.2817,312.3281 477.795,312.4 482.3084,312.5018 486.8217,312.628 491.3351,312.7746 495.8484,312.9381 500.3618,313.116 504.8751,313.3065 509.3885,313.5085 513.9018,313.7159 518.4152,313.9086 522.9285,314.049 527.4419,314.0748 531.9552,314.1525 536.4686,314.2843 540.9819,314.5077 545.4953,314.7796 550.0086,314.8983 554.522,314.3444 559.0353,313.9919 563.5487,313.7257 568.062,313.5494 572.5754,313.4933 577.0887,313.6743 581.6021,313.868 586.1154,314.1617 590.6288,314.7171 595.1421,315.2529 599.6555,315.7354 604.1688,316.2085 608.6822,316.5723 613.1955,316.6284 617.7089,316.6098 622.2222,316.2064"></polyline>
<polyline id="error-otros" class="otros error" points=" 40,288.7757 44.5134,289.2664 49.0267,289.7702 53.5401,290.2881 58.0534,290.8164 62.5668,291.3407 67.0801,291.8357 71.5935,292.2682 76.1068,292.5965 80.6202,292.7631 85.1335,292.6669 89.6469,292.0694 94.1602,291.5341 98.6736,291.0591 103.1869,290.642 107.7003,290.2798 112.2136,289.9698 116.727,289.7088 121.2403,289.4937 125.7537,289.3212 130.267,289.1883 134.7804,289.092 139.2937,289.0293 143.8071,288.9974 148.3204,288.9938 152.8338,289.0158 157.3471,289.0611 161.8605,289.1274 166.3738,289.2125 170.8872,289.3149 175.4005,289.4337 179.9139,289.5721 184.4272,289.7526 188.9406,289.9679 193.4539,290.2159 197.9673,290.495 202.4806,290.8044 206.994,291.1442 211.5073,291.5146 216.0207,291.9171 220.534,292.3532 225.0474,292.8258 229.5607,293.3383 234.0741,293.8642 238.5874,294.3008 243.1008,294.4435 247.6141,293.877 252.1275,293.4378 256.6408,293.1115 261.1542,292.8844 265.6675,292.7346 270.1809,292.6247 274.6942,292.4924 279.2076,292.2182 283.7209,291.9783 288.2343,291.7709 292.7476,291.5937 297.261,291.4445 301.7743,291.3208 306.2877,291.2204 310.801,291.1408 315.3144,291.0797 319.8277,291.0347 324.3411,291.0035 328.8544,290.9839 333.3678,290.9746 337.8811,290.9772 342.3945,290.9963 346.9078,291.0405 351.4212,291.1253 355.9345,291.2818 360.4479,291.4334 364.9612,291.5787 369.4746,291.7159 373.9879,291.8436 378.5013,291.9596 383.0146,292.0618 387.528,292.1565 392.0413,292.2744 396.5547,292.4823 401.068,292.9188 405.5814,293.3252 410.0947,293.7343 414.6081,294.1483 419.1214,294.5571 423.6348,294.9446 428.1481,295.2944 432.6615,295.5946 437.1748,295.9269 441.6882,296.2889 446.2016,296.6959 450.7149,297.1772 455.2283,297.7804 459.7416,298.2838 464.255,298.5615 468.7683,298.3633 473.2817,298.2521 477.795,298.2171 482.3084,298.2497 486.8217,298.3426 491.3351,298.49 495.8484,298.6866 500.3618,298.9282 504.8751,299.2114 509.3885,299.5335 513.9018,299.8835 518.4152,303.1015 522.9285,303.3792 527.4419,303.4845 531.9552,303.6526 536.4686,303.8533 540.9819,304.1929 545.4953,304.6079 550.0086,306.8643 554.522,305.4771 559.0353,305.8707 563.5487,305.6456 568.062,305.5264 572.5754,305.4875 577.0887,305.534 581.6021,304.903 586.1154,305.1743 590.6288,305.713 595.1421,306.2556 599.6555,305.4543 604.1688,305.9439 608.6822,306.3193 613.1955,306.3191 617.7089,306.2044 622.2222,305.5371 622.2222,326.8758 617.7089,327.0153 613.1955,326.9377 608.6822,326.8252 604.1688,326.4732 599.6555,326.0165 595.1421,324.2502 590.6288,323.7213 586.1154,323.1491 581.6021,322.8329 577.0887,321.8147 572.5754,321.4992 568.062,321.5725 563.5487,321.8059 559.0353,322.1132 554.522,323.2116 550.0086,322.9323 545.4953,324.9514 540.9819,324.8225 536.4686,324.7153 531.9552,324.6523 527.4419,324.6651 522.9285,324.7189 518.4152,324.7156 513.9018,327.5483 509.3885,327.4836 504.8751,327.4016 500.3618,327.3037 495.8484,327.1896 491.3351,327.0592 486.8217,326.9134 482.3084,326.7539 477.795,326.5829 473.2817,326.4041 468.7683,326.2222 464.255,326.0437 459.7416,325.7503 455.2283,325.3547 450.7149,324.86 446.2016,324.5892 441.6882,324.4036 437.1748,324.2208 432.6615,323.9909 428.1481,323.6905 423.6348,323.5162 419.1214,323.3449 414.6081,323.1141 410.0947,322.795 405.5814,322.3793 401.068,322.0694 396.5547,321.7509 392.0413,321.8547 387.528,322.1264 383.0146,322.4281 378.5013,322.6888 373.9879,322.8879 369.4746,323.0236 364.9612,323.0924 360.4479,323.0897 355.9345,323.0087 351.4212,322.8411 346.9078,322.9429 342.3945,323.1884 337.8811,323.5025 333.3678,323.8344 328.8544,324.1513 324.3411,324.4356 319.8277,324.682 315.3144,324.8895 310.801,325.0564 306.2877,325.18 301.7743,325.2574 297.261,325.2846 292.7476,325.2567 288.2343,325.1678 283.7209,325.0106 279.2076,324.7761 274.6942,324.4534 270.1809,324.6006 265.6675,324.959 261.1542,325.4066 256.6408,325.8683 252.1275,326.303 247.6141,326.6999 243.1008,327.0604 238.5874,327.2456 234.0741,327.353 229.5607,327.4195 225.0474,327.4589 220.534,327.4713 216.0207,327.4517 211.5073,327.3953 206.994,327.2966 202.4806,327.1501 197.9673,326.9496 193.4539,326.6883 188.9406,326.3585 184.4272,325.9517 179.9139,325.4587 175.4005,325.5225 170.8872,325.848 166.3738,326.283 161.8605,326.7372 157.3471,327.1641 152.8338,327.5517 148.3204,327.9014 143.8071,328.2136 139.2937,328.4883 134.7804,328.7251 130.267,328.9231 125.7537,329.0809 121.2403,329.1969 116.727,329.2691 112.2136,329.2951 107.7003,329.2722 103.1869,329.1978 98.6736,329.0687 94.1602,328.8818 89.6469,328.634 85.1335,328.3222 80.6202,328.3288 76.1068,328.5098 71.5935,328.802 67.0801,329.1678 62.5668,329.5795 58.0534,330.014 53.5401,330.4537 49.0267,330.8884 44.5134,331.3153 40,331.7347"></polyline>
<text class = "party otros" x="631.1111" y="318"><tspan class="party_name">Otros</tspan><tspan class="party_result"> (2.1±1.3%)</tspan></text>
<g id="encuesta-1">
<circle id="encuesta-1-cup" class="encuesta sociometrica cup" cx="622.2222" cy="288.8889" r="3.3166" ></circle>
<circle id="encuesta-1-erc" class="encuesta sociometrica erc" cx="622.2222" cy="151.5152" r="3.3166" ></circle>
<circle id="encuesta-1-jxcat" class="encuesta sociometrica jxcat" cx="622.2222" cy="173.3333" r="3.3166" ></circle>
<circle id="encuesta-1-cec" class="encuesta sociometrica cec" cx="622.2222" cy="273.5354" r="3.3166" ></circle>
<circle id="encuesta-1-psc" class="encuesta sociometrica psc" cx="622.2222" cy="216.9697" r="3.3166" ></circle>
<circle id="encuesta-1-cs" class="encuesta sociometrica cs" cx="622.2222" cy="159.596" r="3.3166" ></circle>
<circle id="encuesta-1-pp" class="encuesta sociometrica pp" cx="622.2222" cy="289.697" r="3.3166" ></circle>
<circle id="encuesta-1-otros" class="encuesta sociometrica otros" cx="622.2222" cy="305.0505" r="3.3166" ></circle>
</g>
<g id="encuesta-2">
<circle id="encuesta-2-cup" class="encuesta gad3 cup" cx="617.7089" cy="292.9293" r="3.1623" ></circle>
<circle id="encuesta-2-erc" class="encuesta gad3 erc" cx="617.7089" cy="159.596" r="3.1623" ></circle>
<circle id="encuesta-2-jxcat" class="encuesta gad3 jxcat" cx="617.7089" cy="186.2626" r="3.1623" ></circle>
<circle id="encuesta-2-cec" class="encuesta gad3 cec" cx="617.7089" cy="273.5354" r="3.1623" ></circle>
<circle id="encuesta-2-psc" class="encuesta gad3 psc" cx="617.7089" cy="200" r="3.1623" ></circle>
<circle id="encuesta-2-cs" class="encuesta gad3 cs" cx="617.7089" cy="146.6667" r="3.1623" ></circle>
<circle id="encuesta-2-pp" class="encuesta gad3 pp" cx="617.7089" cy="275.9596" r="3.1623" ></circle>
<circle id="encuesta-2-otros" class="encuesta gad3 otros" cx="617.7089" cy="323.6364" r="3.1623" ></circle>
</g>
<g id="encuesta-3">
<circle id="encuesta-3-cup" class="encuesta feedback cup" cx="617.7089" cy="275.9596" r="3" ></circle>
<circle id="encuesta-3-erc" class="encuesta feedback erc" cx="617.7089" cy="146.6667" r="3" ></circle>
<circle id="encuesta-3-jxcat" class="encuesta feedback jxcat" cx="617.7089" cy="195.9596" r="3" ></circle>
<circle id="encuesta-3-cec" class="encuesta feedback cec" cx="617.7089" cy="268.6869" r="3" ></circle>
<circle id="encuesta-3-psc" class="encuesta feedback psc" cx="617.7089" cy="209.697" r="3" ></circle>
<circle id="encuesta-3-cs" class="encuesta feedback cs" cx="617.7089" cy="147.4747" r="3" ></circle>
<circle id="encuesta-3-pp" class="encuesta feedback pp" cx="617.7089" cy="288.8889" r="3" ></circle>
<circle id="encuesta-3-otros" class="encuesta feedback otros" cx="617.7089" cy="325.2525" r="3" ></circle>
</g>
<g id="encuesta-4">
<circle id="encuesta-4-cup" class="encuesta feedback cup" cx="608.6822" cy="281.6162" r="3.1623" ></circle>
<circle id="encuesta-4-erc" class="encuesta feedback erc" cx="608.6822" cy="139.3939" r="3.1623" ></circle>
<circle id="encuesta-4-jxcat" class="encuesta feedback jxcat" cx="608.6822" cy="195.1515" r="3.1623" ></circle>
<circle id="encuesta-4-cec" class="encuesta feedback cec" cx="608.6822" cy="258.1818" r="3.1623" ></circle>
<circle id="encuesta-4-psc" class="encuesta feedback psc" cx="608.6822" cy="224.2424" r="3.1623" ></circle>
<circle id="encuesta-4-cs" class="encuesta feedback cs" cx="608.6822" cy="149.0909" r="3.1623" ></circle>
<circle id="encuesta-4-pp" class="encuesta feedback pp" cx="608.6822" cy="283.2323" r="3.1623" ></circle>
<circle id="encuesta-4-otros" class="encuesta feedback otros" cx="608.6822" cy="327.6768" r="3.1623" ></circle>
</g>
<g id="encuesta-5">
<circle id="encuesta-5-cup" class="encuesta gesop cup" cx="595.1421" cy="284.8485" r="2.8284" ></circle>
<circle id="encuesta-5-erc" class="encuesta gesop erc" cx="595.1421" cy="167.6768" r="2.8284" ></circle>
<circle id="encuesta-5-jxcat" class="encuesta gesop jxcat" cx="595.1421" cy="177.3737" r="2.8284" ></circle>
<circle id="encuesta-5-cec" class="encuesta gesop cec" cx="595.1421" cy="264.6465" r="2.8284" ></circle>
<circle id="encuesta-5-psc" class="encuesta gesop psc" cx="595.1421" cy="179.798" r="2.8284" ></circle>
<circle id="encuesta-5-cs" class="encuesta gesop cs" cx="595.1421" cy="179.798" r="2.8284" ></circle>
<circle id="encuesta-5-pp" class="encuesta gesop pp" cx="595.1421" cy="286.4646" r="2.8284" ></circle>
<circle id="encuesta-5-otros" class="encuesta gesop otros" cx="595.1421" cy="317.9798" r="2.8284" ></circle>
</g>
<g id="encuesta-6">
<circle id="encuesta-6-cup" class="encuesta sociometrica cup" cx="586.1154" cy="284.8485" r="2.8284" ></circle>
<circle id="encuesta-6-erc" class="encuesta sociometrica erc" cx="586.1154" cy="146.6667" r="2.8284" ></circle>
<circle id="encuesta-6-jxcat" class="encuesta sociometrica jxcat" cx="586.1154" cy="179.798" r="2.8284" ></circle>
<circle id="encuesta-6-cec" class="encuesta sociometrica cec" cx="586.1154" cy="281.6162" r="2.8284" ></circle>
<circle id="encuesta-6-psc" class="encuesta sociometrica psc" cx="586.1154" cy="210.5051" r="2.8284" ></circle>
<circle id="encuesta-6-cs" class="encuesta sociometrica cs" cx="586.1154" cy="167.6768" r="2.8284" ></circle>
<circle id="encuesta-6-pp" class="encuesta sociometrica pp" cx="586.1154" cy="283.2323" r="2.8284" ></circle>
<circle id="encuesta-6-otros" class="encuesta sociometrica otros" cx="586.1154" cy="304.2424" r="2.8284" ></circle>
</g>
<g id="encuesta-7">
<circle id="encuesta-7-cup" class="encuesta cis cup" cx="572.5754" cy="279.1919" r="5.4772" ></circle>
<circle id="encuesta-7-erc" class="encuesta cis erc" cx="572.5754" cy="165.2525" r="5.4772" ></circle>
<circle id="encuesta-7-jxcat" class="encuesta cis jxcat" cx="572.5754" cy="196.7677" r="5.4772" ></circle>
<circle id="encuesta-7-cec" class="encuesta cis cec" cx="572.5754" cy="263.8384" r="5.4772" ></circle>
<circle id="encuesta-7-psc" class="encuesta cis psc" cx="572.5754" cy="204.0404" r="5.4772" ></circle>
<circle id="encuesta-7-cs" class="encuesta cis cs" cx="572.5754" cy="151.5152" r="5.4772" ></circle>
<circle id="encuesta-7-pp" class="encuesta cis pp" cx="572.5754" cy="286.4646" r="5.4772" ></circle>
<circle id="encuesta-7-otros" class="encuesta cis otros" cx="572.5754" cy="311.5152" r="5.4772" ></circle>
</g>
<g id="encuesta-8">
<circle id="encuesta-8-cup" class="encuesta nc_report cup" cx="554.522" cy="287.2727" r="3.1623" ></circle>
<circle id="encuesta-8-erc" class="encuesta nc_report erc" cx="554.522" cy="138.5859" r="3.1623" ></circle>
<circle id="encuesta-8-jxcat" class="encuesta nc_report jxcat" cx="554.522" cy="223.4343" r="3.1623" ></circle>
<circle id="encuesta-8-cec" class="encuesta nc_report cec" cx="554.522" cy="265.4545" r="3.1623" ></circle>
<circle id="encuesta-8-psc" class="encuesta nc_report psc" cx="554.522" cy="214.5455" r="3.1623" ></circle>
<circle id="encuesta-8-cs" class="encuesta nc_report cs" cx="554.522" cy="164.4444" r="3.1623" ></circle>
<circle id="encuesta-8-pp" class="encuesta nc_report pp" cx="554.522" cy="258.1818" r="3.1623" ></circle>
<circle id="encuesta-8-otros" class="encuesta nc_report otros" cx="554.522" cy="306.6667" r="3.1623" ></circle>
</g>
<g id="encuesta-9">
<circle id="encuesta-9-cup" class="encuesta metroscopica cup" cx="550.0086" cy="285.6566" r="4.2426" ></circle>
<circle id="encuesta-9-erc" class="encuesta metroscopica erc" cx="550.0086" cy="119.1919" r="4.2426" ></circle>
<circle id="encuesta-9-jxcat" class="encuesta metroscopica jxcat" cx="550.0086" cy="223.4343" r="4.2426" ></circle>
<circle id="encuesta-9-cec" class="encuesta metroscopica cec" cx="550.0086" cy="279.1919" r="4.2426" ></circle>
<circle id="encuesta-9-psc" class="encuesta metroscopica psc" cx="550.0086" cy="212.9293" r="4.2426" ></circle>
<circle id="encuesta-9-cs" class="encuesta metroscopica cs" cx="550.0086" cy="128.8889" r="4.2426" ></circle>
<circle id="encuesta-9-pp" class="encuesta metroscopica pp" cx="550.0086" cy="286.4646" r="4.2426" ></circle>
<circle id="encuesta-9-otros" class="encuesta metroscopica otros" cx="550.0086" cy="322.8283" r="4.2426" ></circle>
</g>
<g id="encuesta-10">
<circle id="encuesta-10-cup" class="encuesta gesop cup" cx="531.9552" cy="282.4242" r="2.8284" ></circle>
<circle id="encuesta-10-erc" class="encuesta gesop erc" cx="531.9552" cy="140.202" r="2.8284" ></circle>
<circle id="encuesta-10-jxcat" class="encuesta gesop jxcat" cx="531.9552" cy="200" r="2.8284" ></circle>
<circle id="encuesta-10-cec" class="encuesta gesop cec" cx="531.9552" cy="263.8384" r="2.8284" ></circle>
<circle id="encuesta-10-psc" class="encuesta gesop psc" cx="531.9552" cy="187.0707" r="2.8284" ></circle>
<circle id="encuesta-10-cs" class="encuesta gesop cs" cx="531.9552" cy="183.0303" r="2.8284" ></circle>
<circle id="encuesta-10-pp" class="encuesta gesop pp" cx="531.9552" cy="287.2727" r="2.8284" ></circle>
<circle id="encuesta-10-otros" class="encuesta gesop otros" cx="531.9552" cy="314.7475" r="2.8284" ></circle>
</g>
<g id="encuesta-11">
<circle id="encuesta-11-cup" class="encuesta gad3 cup" cx="522.9285" cy="288.0808" r="2.8302" ></circle>
<circle id="encuesta-11-erc" class="encuesta gad3 erc" cx="522.9285" cy="146.6667" r="2.8302" ></circle>
<circle id="encuesta-11-jxcat" class="encuesta gad3 jxcat" cx="522.9285" cy="198.3838" r="2.8302" ></circle>
<circle id="encuesta-11-cec" class="encuesta gad3 cec" cx="522.9285" cy="271.9192" r="2.8302" ></circle>
<circle id="encuesta-11-psc" class="encuesta gad3 psc" cx="522.9285" cy="211.3131" r="2.8302" ></circle>
<circle id="encuesta-11-cs" class="encuesta gad3 cs" cx="522.9285" cy="153.1313" r="2.8302" ></circle>
<circle id="encuesta-11-pp" class="encuesta gad3 pp" cx="522.9285" cy="270.303" r="2.8302" ></circle>
<circle id="encuesta-11-otros" class="encuesta gad3 otros" cx="522.9285" cy="318.7879" r="2.8302" ></circle>
</g>
<g id="encuesta-12">
<circle id="encuesta-12-cup" class="encuesta nc_report cup" cx="464.255" cy="282.4242" r="3.1623" ></circle>
<circle id="encuesta-12-erc" class="encuesta nc_report erc" cx="464.255" cy="120.8081" r="3.1623" ></circle>
<circle id="encuesta-12-jxcat" class="encuesta nc_report jxcat" cx="464.255" cy="246.8687" r="3.1623" ></circle>
<circle id="encuesta-12-cec" class="encuesta nc_report cec" cx="464.255" cy="249.2929" r="3.1623" ></circle>
<circle id="encuesta-12-psc" class="encuesta nc_report psc" cx="464.255" cy="223.4343" r="3.1623" ></circle>
<circle id="encuesta-12-cs" class="encuesta nc_report cs" cx="464.255" cy="174.9495" r="3.1623" ></circle>
<circle id="encuesta-12-pp" class="encuesta nc_report pp" cx="464.255" cy="248.4848" r="3.1623" ></circle>
<circle id="encuesta-12-otros" class="encuesta nc_report otros" cx="464.255" cy="312.3232" r="3.1623" ></circle>
</g>
<g id="encuesta-13">
<circle id="encuesta-13-cup" class="encuesta gad3 cup" cx="464.255" cy="282.4242" r="3.5114" ></circle>
<circle id="encuesta-13-erc" class="encuesta gad3 erc" cx="464.255" cy="96.5657" r="3.5114" ></circle>
<circle id="encuesta-13-jxcat" class="encuesta gad3 jxcat" cx="464.255" cy="249.2929" r="3.5114" ></circle>
<circle id="encuesta-13-cec" class="encuesta gad3 cec" cx="464.255" cy="266.2626" r="3.5114" ></circle>
<circle id="encuesta-13-psc" class="encuesta gad3 psc" cx="464.255" cy="215.3535" r="3.5114" ></circle>
<circle id="encuesta-13-cs" class="encuesta gad3 cs" cx="464.255" cy="166.8687" r="3.5114" ></circle>
<circle id="encuesta-13-pp" class="encuesta gad3 pp" cx="464.255" cy="263.0303" r="3.5114" ></circle>
<circle id="encuesta-13-otros" class="encuesta gad3 otros" cx="464.255" cy="318.7879" r="3.5114" ></circle>
</g>
<g id="encuesta-14">
<circle id="encuesta-14-cup" class="encuesta sociometrica cup" cx="450.7149" cy="287.2727" r="3.1623" ></circle>
<circle id="encuesta-14-erc" class="encuesta sociometrica erc" cx="450.7149" cy="81.2121" r="3.1623" ></circle>
<circle id="encuesta-14-jxcat" class="encuesta sociometrica jxcat" cx="450.7149" cy="251.7172" r="3.1623" ></circle>
<circle id="encuesta-14-cec" class="encuesta sociometrica cec" cx="450.7149" cy="252.5253" r="3.1623" ></circle>
<circle id="encuesta-14-psc" class="encuesta sociometrica psc" cx="450.7149" cy="234.7475" r="3.1623" ></circle>
<circle id="encuesta-14-cs" class="encuesta sociometrica cs" cx="450.7149" cy="185.4545" r="3.1623" ></circle>
<circle id="encuesta-14-pp" class="encuesta sociometrica pp" cx="450.7149" cy="260.6061" r="3.1623" ></circle>
<circle id="encuesta-14-otros" class="encuesta sociometrica otros" cx="450.7149" cy="305.0505" r="3.1623" ></circle>
</g>
<g id="encuesta-15">
<circle id="encuesta-15-cup" class="encuesta sigmados cup" cx="428.1481" cy="282.4242" r="3.1623" ></circle>
<circle id="encuesta-15-erc" class="encuesta sigmados erc" cx="428.1481" cy="120" r="3.1623" ></circle>
<circle id="encuesta-15-jxcat" class="encuesta sigmados jxcat" cx="428.1481" cy="254.1414" r="3.1623" ></circle>
<circle id="encuesta-15-cec" class="encuesta sigmados cec" cx="428.1481" cy="244.4444" r="3.1623" ></circle>
<circle id="encuesta-15-psc" class="encuesta sigmados psc" cx="428.1481" cy="211.3131" r="3.1623" ></circle>
<circle id="encuesta-15-cs" class="encuesta sigmados cs" cx="428.1481" cy="174.9495" r="3.1623" ></circle>
<circle id="encuesta-15-pp" class="encuesta sigmados pp" cx="428.1481" cy="263.0303" r="3.1623" ></circle>
<circle id="encuesta-15-otros" class="encuesta sigmados otros" cx="428.1481" cy="308.2828" r="3.1623" ></circle>
</g>
<g id="encuesta-16">
<circle id="encuesta-16-cup" class="encuesta nc_report cup" cx="405.5814" cy="288.0808" r="3.1623" ></circle>
<circle id="encuesta-16-erc" class="encuesta nc_report erc" cx="405.5814" cy="134.5455" r="3.1623" ></circle>
<circle id="encuesta-16-jxcat" class="encuesta nc_report jxcat" cx="405.5814" cy="235.5556" r="3.1623" ></circle>
<circle id="encuesta-16-cec" class="encuesta nc_report cec" cx="405.5814" cy="241.2121" r="3.1623" ></circle>
<circle id="encuesta-16-psc" class="encuesta nc_report psc" cx="405.5814" cy="227.4747" r="3.1623" ></circle>
<circle id="encuesta-16-cs" class="encuesta nc_report cs" cx="405.5814" cy="178.1818" r="3.1623" ></circle>
<circle id="encuesta-16-pp" class="encuesta nc_report pp" cx="405.5814" cy="248.4848" r="3.1623" ></circle>
<circle id="encuesta-16-otros" class="encuesta nc_report otros" cx="405.5814" cy="305.0505" r="3.1623" ></circle>
</g>
<g id="encuesta-17">
<circle id="encuesta-17-cup" class="encuesta gesop cup" cx="396.5547" cy="270.303" r="2.8284" ></circle>
<circle id="encuesta-17-erc" class="encuesta gesop erc" cx="396.5547" cy="106.2626" r="2.8284" ></circle>
<circle id="encuesta-17-jxcat" class="encuesta gesop jxcat" cx="396.5547" cy="236.3636" r="2.8284" ></circle>
<circle id="encuesta-17-cec" class="encuesta gesop cec" cx="396.5547" cy="260.6061" r="2.8284" ></circle>
<circle id="encuesta-17-psc" class="encuesta gesop psc" cx="396.5547" cy="216.1616" r="2.8284" ></circle>
<circle id="encuesta-17-cs" class="encuesta gesop cs" cx="396.5547" cy="197.5758" r="2.8284" ></circle>
<circle id="encuesta-17-pp" class="encuesta gesop pp" cx="396.5547" cy="272.7273" r="2.8284" ></circle>
<circle id="encuesta-17-otros" class="encuesta gesop otros" cx="396.5547" cy="298.5859" r="2.8284" ></circle>
</g>
<g id="encuesta-18">
<circle id="encuesta-18-cup" class="encuesta sociometrica cup" cx="351.4212" cy="282.4242" r="2.8284" ></circle>
<circle id="encuesta-18-erc" class="encuesta sociometrica erc" cx="351.4212" cy="76.3636" r="2.8284" ></circle>
<circle id="encuesta-18-jxcat" class="encuesta sociometrica jxcat" cx="351.4212" cy="267.8788" r="2.8284" ></circle>
<circle id="encuesta-18-cec" class="encuesta sociometrica cec" cx="351.4212" cy="236.3636" r="2.8284" ></circle>
<circle id="encuesta-18-psc" class="encuesta sociometrica psc" cx="351.4212" cy="256.5657" r="2.8284" ></circle>
<circle id="encuesta-18-cs" class="encuesta sociometrica cs" cx="351.4212" cy="185.4545" r="2.8284" ></circle>
<circle id="encuesta-18-pp" class="encuesta sociometrica pp" cx="351.4212" cy="251.7172" r="2.8284" ></circle>
<circle id="encuesta-18-otros" class="encuesta sociometrica otros" cx="351.4212" cy="301.8182" r="2.8284" ></circle>
</g>
<g id="encuesta-19">
<circle id="encuesta-19-cup" class="encuesta nc_report cup" cx="274.6942" cy="288.0808" r="3.5426" ></circle>
<circle id="encuesta-19-erc" class="encuesta nc_report erc" cx="274.6942" cy="130.5051" r="3.5426" ></circle>
<circle id="encuesta-19-jxcat" class="encuesta nc_report jxcat" cx="274.6942" cy="230.7071" r="3.5426" ></circle>
<circle id="encuesta-19-cec" class="encuesta nc_report cec" cx="274.6942" cy="239.596" r="3.5426" ></circle>
<circle id="encuesta-19-psc" class="encuesta nc_report psc" cx="274.6942" cy="222.6263" r="3.5426" ></circle>
<circle id="encuesta-19-cs" class="encuesta nc_report cs" cx="274.6942" cy="194.3434" r="3.5426" ></circle>
<circle id="encuesta-19-pp" class="encuesta nc_report pp" cx="274.6942" cy="246.0606" r="3.5426" ></circle>
<circle id="encuesta-19-otros" class="encuesta nc_report otros" cx="274.6942" cy="306.6667" r="3.5426" ></circle>
</g>
<g id="encuesta-20">
<circle id="encuesta-20-cup" class="encuesta celeste-tel cup" cx="243.1008" cy="285.6566" r="2.8284" ></circle>
<circle id="encuesta-20-erc" class="encuesta celeste-tel erc" cx="243.1008" cy="133.7374" r="2.8284" ></circle>
<circle id="encuesta-20-jxcat" class="encuesta celeste-tel jxcat" cx="243.1008" cy="223.4343" r="2.8284" ></circle>
<circle id="encuesta-20-cec" class="encuesta celeste-tel cec" cx="243.1008" cy="234.7475" r="2.8284" ></circle>
<circle id="encuesta-20-psc" class="encuesta celeste-tel psc" cx="243.1008" cy="213.7374" r="2.8284" ></circle>
<circle id="encuesta-20-cs" class="encuesta celeste-tel cs" cx="243.1008" cy="192.7273" r="2.8284" ></circle>
<circle id="encuesta-20-pp" class="encuesta celeste-tel pp" cx="243.1008" cy="257.3737" r="2.8284" ></circle>
<circle id="encuesta-20-otros" class="encuesta celeste-tel otros" cx="243.1008" cy="317.1717" r="2.8284" ></circle>
</g>
<g id="encuesta-21">
<circle id="encuesta-21-cup" class="encuesta sociometrica cup" cx="179.9139" cy="278.3838" r="2.6458" ></circle>
<circle id="encuesta-21-erc" class="encuesta sociometrica erc" cx="179.9139" cy="107.0707" r="2.6458" ></circle>
<circle id="encuesta-21-jxcat" class="encuesta sociometrica jxcat" cx="179.9139" cy="230.7071" r="2.6458" ></circle>
<circle id="encuesta-21-cec" class="encuesta sociometrica cec" cx="179.9139" cy="249.2929" r="2.6458" ></circle>
<circle id="encuesta-21-psc" class="encuesta sociometrica psc" cx="179.9139" cy="251.7172" r="2.6458" ></circle>
<circle id="encuesta-21-cs" class="encuesta sociometrica cs" cx="179.9139" cy="190.303" r="2.6458" ></circle>
<circle id="encuesta-21-pp" class="encuesta sociometrica pp" cx="179.9139" cy="248.4848" r="2.6458" ></circle>
<circle id="encuesta-21-otros" class="encuesta sociometrica otros" cx="179.9139" cy="302.6263" r="2.6458" ></circle>
</g>
<g id="encuesta-22">
<circle id="encuesta-22-cup" class="encuesta nc_report cup" cx="85.1335" cy="280.8081" r="3.5426" ></circle>
<circle id="encuesta-22-erc" class="encuesta nc_report erc" cx="85.1335" cy="140.202" r="3.5426" ></circle>
<circle id="encuesta-22-jxcat" class="encuesta nc_report jxcat" cx="85.1335" cy="221.0101" r="3.5426" ></circle>
<circle id="encuesta-22-cec" class="encuesta nc_report cec" cx="85.1335" cy="235.5556" r="3.5426" ></circle>
<circle id="encuesta-22-psc" class="encuesta nc_report psc" cx="85.1335" cy="221.0101" r="3.5426" ></circle>
<circle id="encuesta-22-cs" class="encuesta nc_report cs" cx="85.1335" cy="191.9192" r="3.5426" ></circle>
<circle id="encuesta-22-pp" class="encuesta nc_report pp" cx="85.1335" cy="256.5657" r="3.5426" ></circle>
<circle id="encuesta-22-otros" class="encuesta nc_report otros" cx="85.1335" cy="311.5152" r="3.5426" ></circle>
</g>
  
<text class="pie izquierda" x="0" y="390">Datos: Electograph | Modelo propio</text>
<text class="pie derecha" x="800" y="390">Jesús Carro | <tspan style="font-weight:bold">1datomas</tspan>.com</text>
</svg>
