<?xml version="1.0" encoding="utf-8"?><!DOCTYPE svg PUBLIC "-//W3C//DTD SVG 1.1//EN" "http://www.w3.org/Graphics/SVG/1.1/DTD/svg11.dtd">
<svg xmlns="http://www.w3.org/2000/svg" xmlns:xlink="http://www.w3.org/1999/xlink" version="1.1" viewBox="0 0 800 400">
<text x="0" y="20" style="font-size:large;font-weight:bold;color:black">Intención de voto en Elecciones Autonómicas en Cataluña</text>
<text x="0" y="40" style="color:gray">Promedio de encuestas y estimación de error</text>

<text class="horizontal axis" x="36" y="333.3333">0%</text>
<line class="horizontal axis" x1="40" y1="333.3333" x2="622.2222" y2="333.3333"></line>
<text class="horizontal axis" x="36" y="274.0741">10%</text>
<line class="horizontal axis" x1="40" y1="274.0741" x2="622.2222" y2="274.0741"></line>
<text class="horizontal axis" x="36" y="214.8148">20%</text>
<line class="horizontal axis" x1="40" y1="214.8148" x2="622.2222" y2="214.8148"></line>
<text class="horizontal axis" x="36" y="155.5556">30%</text>
<line class="horizontal axis" x1="40" y1="155.5556" x2="622.2222" y2="155.5556"></line>
<text class="horizontal axis" x="36" y="96.2963">40%</text>
<line class="horizontal axis" x1="40" y1="96.2963" x2="622.2222" y2="96.2963"></line>
<line class="vertical axis" x1="40" y1="336.6667" x2="40" y2="66.6667"></line>
<text class="vertical axis" x="40" y="343.3333">Ago-2017</text>
<line class="vertical axis" x1="242.7965" y1="336.6667" x2="242.7965" y2="66.6667"></line>
<text class="vertical axis" x="242.7965" y="343.3333">Sep-2017</text>
<line class="vertical axis" x1="439.0512" y1="336.6667" x2="439.0512" y2="66.6667"></line>
<text class="vertical axis" x="439.0512" y="343.3333">Oct-2017</text>
<g id="encuesta-1">
<circle class="encuesta cup" cx="622.2222" cy="296" r="3.873" ></circle>
<circle class="encuesta cec" cx="622.2222" cy="271.1111" r="3.873" ></circle>
<circle class="encuesta psc" cx="622.2222" cy="250.963" r="3.873" ></circle>
<circle class="encuesta cs" cx="622.2222" cy="225.4815" r="3.873" ></circle>
<circle class="encuesta pp" cx="622.2222" cy="284.1481" r="3.873" ></circle>
<circle class="encuesta jxsi" cx="622.2222" cy="98.0741" r="3.873" ></circle>
<circle class="encuesta otros" cx="622.2222" cy="314.963" r="3.873" ></circle>
</g>
<g id="encuesta-2">
<circle class="encuesta cup" cx="602.5968" cy="296" r="3.1623" ></circle>
<circle class="encuesta cec" cx="602.5968" cy="268.1481" r="3.1623" ></circle>
<circle class="encuesta psc" cx="602.5968" cy="243.8519" r="3.1623" ></circle>
<circle class="encuesta cs" cx="602.5968" cy="217.1852" r="3.1623" ></circle>
<circle class="encuesta pp" cx="602.5968" cy="281.7778" r="3.1623" ></circle>
<circle class="encuesta jxsi" cx="602.5968" cy="118.8148" r="3.1623" ></circle>
<circle class="encuesta otros" cx="602.5968" cy="314.963" r="3.1623" ></circle>
</g>
<g id="encuesta-3">
<circle class="encuesta cup" cx="569.8876" cy="300.1481" r="3.1623" ></circle>
<circle class="encuesta cec" cx="569.8876" cy="265.7778" r="3.1623" ></circle>
<circle class="encuesta psc" cx="569.8876" cy="255.7037" r="3.1623" ></circle>
<circle class="encuesta cs" cx="569.8876" cy="219.5556" r="3.1623" ></circle>
<circle class="encuesta pp" cx="569.8876" cy="271.1111" r="3.1623" ></circle>
<circle class="encuesta jxsi" cx="569.8876" cy="115.8519" r="3.1623" ></circle>
<circle class="encuesta otros" cx="569.8876" cy="312.5926" r="3.1623" ></circle>
</g>
<g id="encuesta-4">
<circle class="encuesta cup" cx="556.804" cy="287.1111" r="2.8284" ></circle>
<circle class="encuesta cec" cx="556.804" cy="280" r="2.8284" ></circle>
<circle class="encuesta psc" cx="556.804" cy="247.4074" r="2.8284" ></circle>
<circle class="encuesta cs" cx="556.804" cy="233.7778" r="2.8284" ></circle>
<circle class="encuesta pp" cx="556.804" cy="288.8889" r="2.8284" ></circle>
<circle class="encuesta jxsi" cx="556.804" cy="95.7037" r="2.8284" ></circle>
<circle class="encuesta otros" cx="556.804" cy="307.8519" r="2.8284" ></circle>
</g>
<g id="encuesta-5">
<circle class="encuesta cup" cx="491.3858" cy="296" r="2.8284" ></circle>
<circle class="encuesta cec" cx="491.3858" cy="262.2222" r="2.8284" ></circle>
<circle class="encuesta psc" cx="491.3858" cy="277.037" r="2.8284" ></circle>
<circle class="encuesta cs" cx="491.3858" cy="224.8889" r="2.8284" ></circle>
<circle class="encuesta pp" cx="491.3858" cy="273.4815" r="2.8284" ></circle>
<circle class="encuesta jxsi" cx="491.3858" cy="96.8889" r="2.8284" ></circle>
<circle class="encuesta otros" cx="491.3858" cy="310.2222" r="2.8284" ></circle>
</g>
<g id="encuesta-6">
<circle class="encuesta cup" cx="380.1748" cy="300.1481" r="3.5426" ></circle>
<circle class="encuesta cec" cx="380.1748" cy="264.5926" r="3.5426" ></circle>
<circle class="encuesta psc" cx="380.1748" cy="252.1481" r="3.5426" ></circle>
<circle class="encuesta cs" cx="380.1748" cy="231.4074" r="3.5426" ></circle>
<circle class="encuesta pp" cx="380.1748" cy="269.3333" r="3.5426" ></circle>
<circle class="encuesta jxsi" cx="380.1748" cy="109.3333" r="3.5426" ></circle>
<circle class="encuesta otros" cx="380.1748" cy="313.7778" r="3.5426" ></circle>
</g>
<g id="encuesta-7">
<circle class="encuesta cup" cx="334.382" cy="298.3704" r="2.8284" ></circle>
<circle class="encuesta cec" cx="334.382" cy="261.037" r="2.8284" ></circle>
<circle class="encuesta psc" cx="334.382" cy="245.6296" r="2.8284" ></circle>
<circle class="encuesta cs" cx="334.382" cy="230.2222" r="2.8284" ></circle>
<circle class="encuesta pp" cx="334.382" cy="277.6296" r="2.8284" ></circle>
<circle class="encuesta jxsi" cx="334.382" cy="106.3704" r="2.8284" ></circle>
<circle class="encuesta otros" cx="334.382" cy="321.4815" r="2.8284" ></circle>
</g>
<g id="encuesta-8">
<circle class="encuesta cup" cx="242.7965" cy="293.037" r="2.6458" ></circle>
<circle class="encuesta cec" cx="242.7965" cy="271.7037" r="2.6458" ></circle>
<circle class="encuesta psc" cx="242.7965" cy="273.4815" r="2.6458" ></circle>
<circle class="encuesta cs" cx="242.7965" cy="228.4444" r="2.6458" ></circle>
<circle class="encuesta pp" cx="242.7965" cy="271.1111" r="2.6458" ></circle>
<circle class="encuesta jxsi" cx="242.7965" cy="92.1481" r="2.6458" ></circle>
<circle class="encuesta otros" cx="242.7965" cy="310.8148" r="2.6458" ></circle>
</g>
<g id="encuesta-9">
<circle class="encuesta cup" cx="105.4182" cy="294.8148" r="3.5426" ></circle>
<circle class="encuesta cec" cx="105.4182" cy="261.6296" r="3.5426" ></circle>
<circle class="encuesta psc" cx="105.4182" cy="250.963" r="3.5426" ></circle>
<circle class="encuesta cs" cx="105.4182" cy="229.6296" r="3.5426" ></circle>
<circle class="encuesta pp" cx="105.4182" cy="277.037" r="3.5426" ></circle>
<circle class="encuesta jxsi" cx="105.4182" cy="109.3333" r="3.5426" ></circle>
<circle class="encuesta otros" cx="105.4182" cy="317.3333" r="3.5426" ></circle>
</g>
<polyline class="cup" points=" 40,296.6544 46.5418,296.5224 53.0836,296.3933 59.6255,296.2671 66.1673,296.1446 72.7091,296.0283 79.2509,295.922 85.7928,295.8303 92.3346,295.7583 98.8764,295.7128 105.4182,295.7062 111.96,295.7698 118.5019,295.8239 125.0437,295.8687 131.5855,295.9045 138.1273,295.9318 144.6692,295.9508 151.211,295.9619 157.7528,295.9653 164.2946,295.9613 170.8365,295.95 177.3783,295.9314 183.9201,295.9057 190.4619,295.8727 197.0037,295.8322 203.5456,295.7839 210.0874,295.7274 216.6292,295.662 223.171,295.5907 229.7129,295.5254 236.2547,295.4906 242.7965,295.529 249.3383,295.7296 255.8801,295.9196 262.422,296.1 268.9638,296.2717 275.5056,296.4358 282.0474,296.5931 288.5893,296.7444 295.1311,296.8907 301.6729,297.0325 308.2147,297.1704 314.7566,297.305 321.2984,297.4338 327.8402,297.5491 334.382,297.6391 340.9238,297.6852 347.4657,297.7548 354.0075,297.8467 360.5493,297.9553 367.0911,298.0633 373.633,298.1395 380.1748,298.1318 386.7166,297.9182 393.2584,297.7189 399.8002,297.5328 406.3421,297.359 412.8839,297.1966 419.4257,297.0448 425.9675,296.903 432.5094,296.7707 439.0512,296.6473 445.593,296.5322 452.1348,296.4252 458.6767,296.3259 465.2185,296.2341 471.7603,296.1497 478.3021,296.0723 484.8439,296.0002 491.3858,295.9295 497.9276,295.8522 504.4694,295.7691 511.0112,295.6809 517.5531,295.5877 524.0949,295.4894 530.6367,295.3854 537.1785,295.2746 543.7203,295.1678 550.2622,295.1077 556.804,295.1813 563.3458,295.5666 569.8876,295.797 576.4295,295.816 582.9713,295.8373 589.5131,295.8585 596.0549,295.8775 602.5968,295.8919 609.1386,295.8982 615.6804,295.9042 622.2222,295.9088"></polyline>
<polyline class="cup error" points=" 40,278.3883 46.5418,278.4611 53.0836,278.5637 59.6255,278.9286 66.1673,279.3416 72.7091,279.7876 79.2509,280.2386 85.7928,280.6546 92.3346,280.9831 98.8764,281.1522 105.4182,281.0432 111.96,280.401 118.5019,279.8433 125.0437,279.3642 131.5855,278.9591 138.1273,278.6238 144.6692,278.3548 151.211,278.1489 157.7528,278.0509 164.2946,278.0025 170.8365,277.9799 177.3783,277.9821 183.9201,278.0084 190.4619,278.1041 197.0037,278.2782 203.5456,278.501 210.0874,278.7717 216.6292,279.09 223.171,279.4475 229.7129,279.8141 236.2547,280.1318 242.7965,280.3068 249.3383,280.1728 255.8801,280.131 262.422,280.1741 268.9638,280.2962 275.5056,280.4925 282.0474,280.7592 288.5893,281.0933 295.1311,281.4926 301.6729,281.9554 308.2147,282.481 314.7566,283.069 321.2984,283.695 327.8402,284.2752 334.382,284.6541 340.9238,284.5416 347.4657,284.6009 354.0075,284.8211 360.5493,285.1744 367.0911,285.5822 373.633,285.9024 380.1748,285.8999 386.7166,285.0669 393.2584,284.3596 399.8002,283.767 406.3421,283.2799 412.8839,282.8907 419.4257,282.5927 425.9675,282.3802 432.5094,282.2479 439.0512,282.1913 445.593,282.2063 452.1348,282.2892 458.6767,282.4369 465.2185,282.6424 471.7603,282.8871 478.3021,283.1371 484.8439,283.341 491.3858,283.4232 497.9276,283.258 504.4694,283.1815 511.0112,283.1859 517.5531,283.264 524.0949,283.4091 530.6367,283.6152 537.1785,283.8763 543.7203,284.185 550.2622,284.5324 556.804,284.9151 563.3458,285.3614 569.8876,285.6165 576.4295,285.5082 582.9713,285.5049 589.5131,285.5796 596.0549,285.6686 602.5968,285.6476 609.1386,285.2615 615.6804,284.8616 622.2222,284.3785 622.2222,307.439 615.6804,306.9468 609.1386,306.5349 602.5968,306.1362 596.0549,306.0864 589.5131,306.1374 582.9713,306.1696 576.4295,306.1237 569.8876,305.9775 563.3458,305.7718 556.804,305.4474 550.2622,305.683 543.7203,306.1505 537.1785,306.6728 530.6367,307.1556 524.0949,307.5697 517.5531,307.9114 511.0112,308.1758 504.4694,308.3566 497.9276,308.4463 491.3858,308.4358 484.8439,308.6594 478.3021,309.0076 471.7603,309.4123 465.2185,309.8257 458.6767,310.2149 452.1348,310.5613 445.593,310.8582 439.0512,311.1032 432.5094,311.2935 425.9675,311.4259 419.4257,311.4969 412.8839,311.5024 406.3421,311.4381 399.8002,311.2987 393.2584,311.0783 386.7166,310.7696 380.1748,310.3637 373.633,310.3766 367.0911,310.5444 360.5493,310.7362 354.0075,310.8722 347.4657,310.9087 340.9238,310.8289 334.382,310.624 327.8402,310.8229 321.2984,311.1726 314.7566,311.5409 308.2147,311.8598 301.6729,312.1095 295.1311,312.2888 288.5893,312.3956 282.0474,312.4269 275.5056,312.379 268.9638,312.2472 262.422,312.0258 255.8801,311.7082 249.3383,311.2865 242.7965,310.7512 236.2547,310.8493 229.7129,311.2367 223.171,311.7338 216.6292,312.2341 210.0874,312.6831 203.5456,313.0669 197.0037,313.3862 190.4619,313.6413 183.9201,313.803 177.3783,313.8807 170.8365,313.9201 164.2946,313.9201 157.7528,313.8797 151.211,313.775 144.6692,313.5469 138.1273,313.2398 131.5855,312.8499 125.0437,312.3731 118.5019,311.8044 111.96,311.1385 105.4182,310.3693 98.8764,310.2735 92.3346,310.5335 85.7928,311.0059 79.2509,311.6053 72.7091,312.269 66.1673,312.9477 59.6255,313.6056 53.0836,314.223 46.5418,314.5838 40,314.9206"></polyline>
<text class = "party cup" x="631.1111" y="304"><tspan class="party_name">CUP</tspan> (6.3±1.9%)</text>
<polyline class="cec" points=" 40,262.3355 46.5418,262.3812 53.0836,262.419 59.6255,262.4482 66.1673,262.4689 72.7091,262.4823 79.2509,262.4917 85.7928,262.5022 92.3346,262.5212 98.8764,262.56 105.4182,262.6395 111.96,262.8101 118.5019,262.9882 125.0437,263.173 131.5855,263.3636 138.1273,263.5596 144.6692,263.7602 151.211,263.9652 157.7528,264.1742 164.2946,264.3869 170.8365,264.6033 177.3783,264.8233 183.9201,265.0471 190.4619,265.2749 197.0037,265.5073 203.5456,265.7448 210.0874,265.9882 216.6292,266.2387 223.171,266.49 229.7129,266.7182 236.2547,266.8764 242.7965,266.8858 249.3383,266.5847 255.8801,266.3111 262.422,266.061 268.9638,265.831 275.5056,265.6176 282.0474,265.4177 288.5893,265.2282 295.1311,265.0463 301.6729,264.8694 308.2147,264.6946 314.7566,264.5192 321.2984,264.3506 327.8402,264.2195 334.382,264.1883 340.9238,264.3883 347.4657,264.556 354.0075,264.6939 360.5493,264.8042 367.0911,264.8915 373.633,264.9651 380.1748,265.0431 386.7166,265.1675 393.2584,265.2945 399.8002,265.422 406.3421,265.5479 412.8839,265.6707 419.4257,265.7887 425.9675,265.9007 432.5094,266.0051 439.0512,266.1006 445.593,266.1858 452.1348,266.2592 458.6767,266.3191 465.2185,266.3664 471.7603,266.409 478.3021,266.4656 484.8439,266.5686 491.3858,266.7728 497.9276,267.183 504.4694,267.5793 511.0112,267.9622 517.5531,268.3323 524.0949,268.6907 530.6367,269.0386 537.1785,269.3781 543.7203,269.6938 550.2622,269.9288 556.804,269.9713 563.3458,269.6 569.8876,269.3796 576.4295,269.3466 582.9713,269.3167 589.5131,269.2877 596.0549,269.2639 602.5968,269.2609 609.1386,269.3192 615.6804,269.3519 622.2222,269.3464"></polyline>
<polyline class="cec error" points=" 40,240.3608 46.5418,240.6515 53.0836,240.9645 59.6255,241.5771 66.1673,242.2326 72.7091,242.912 79.2509,243.5813 85.7928,244.1931 92.3346,244.6872 98.8764,244.9822 105.4182,244.9452 111.96,244.2916 118.5019,243.7579 125.0437,243.3359 131.5855,243.0184 138.1273,242.799 144.6692,242.6725 151.211,242.634 157.7528,242.7364 164.2946,242.9092 170.8365,243.1239 177.3783,243.3791 183.9201,243.674 190.4619,244.0631 197.0037,244.558 203.5456,245.1242 210.0874,245.7621 216.6292,246.4735 223.171,247.2386 229.7129,247.9822 236.2547,248.559 242.7965,248.7248 249.3383,248.0085 255.8801,247.4406 262.422,247.0076 268.9638,246.6978 275.5056,246.5011 282.0474,246.409 288.5893,246.414 295.1311,246.5099 301.6729,246.6914 308.2147,246.9544 314.7566,247.2956 321.2984,247.6969 327.8402,248.1017 334.382,248.4049 340.9238,248.4219 347.4657,248.5794 354.0075,248.8682 360.5493,249.265 367.0911,249.7034 373.633,250.064 380.1748,250.1515 386.7166,249.5607 393.2584,249.1058 399.8002,248.7715 406.3421,248.5457 412.8839,248.418 419.4257,248.3796 425.9675,248.4226 432.5094,248.5401 439.0512,248.7258 445.593,248.974 452.1348,249.2794 458.6767,249.637 465.2185,250.0398 471.7603,250.4745 478.3021,250.9214 484.8439,251.3561 491.3858,251.7513 497.9276,252.078 504.4694,252.5016 511.0112,253.012 517.5531,253.6012 524.0949,254.2625 530.6367,254.9908 537.1785,255.7825 543.7203,256.5999 550.2622,257.3217 556.804,257.7234 563.3458,257.3924 569.8876,257.1825 576.4295,256.998 582.9713,256.9372 589.5131,256.969 596.0549,257.0256 602.5968,256.9802 609.1386,256.5797 615.6804,256.1375 622.2222,255.5608 622.2222,283.1319 615.6804,282.5663 609.1386,282.0588 602.5968,281.5415 596.0549,281.5022 589.5131,281.6064 582.9713,281.6962 576.4295,281.6951 569.8876,281.5768 563.3458,281.8077 556.804,282.2193 550.2622,282.5358 543.7203,282.7878 537.1785,282.9737 530.6367,283.0865 524.0949,283.1188 517.5531,283.0634 511.0112,282.9123 504.4694,282.657 497.9276,282.2879 491.3858,281.7943 484.8439,281.781 478.3021,282.0097 471.7603,282.3435 465.2185,282.693 458.6767,283.0012 452.1348,283.2389 445.593,283.3975 439.0512,283.4753 432.5094,283.47 425.9675,283.3787 419.4257,283.1979 412.8839,282.9233 406.3421,282.5501 399.8002,282.0724 393.2584,281.4833 386.7166,280.7743 380.1748,279.9348 373.633,279.8662 367.0911,280.0795 360.5493,280.3434 354.0075,280.5195 347.4657,280.5325 340.9238,280.3546 334.382,279.9717 327.8402,280.3373 321.2984,281.0042 314.7566,281.7429 308.2147,282.4347 301.6729,283.0473 295.1311,283.5828 288.5893,284.0424 282.0474,284.4263 275.5056,284.7341 268.9638,284.9642 262.422,285.1144 255.8801,285.1815 249.3383,285.1609 242.7965,285.0468 236.2547,285.1939 229.7129,285.4541 223.171,285.7415 216.6292,286.0039 210.0874,286.2143 203.5456,286.3654 197.0037,286.4565 190.4619,286.4868 183.9201,286.4201 177.3783,286.2674 170.8365,286.0826 164.2946,285.8646 157.7528,285.612 151.211,285.2965 144.6692,284.848 138.1273,284.3201 131.5855,283.7089 125.0437,283.01 118.5019,282.2185 111.96,281.3287 105.4182,280.3338 98.8764,280.1377 92.3346,280.3551 85.7928,280.8113 79.2509,281.4022 72.7091,282.0526 66.1673,282.7051 59.6255,283.3193 53.0836,283.8735 46.5418,284.1109 40,284.3102"></polyline>
<text class = "party cec" x="631.1111" y="262"><tspan class="party_name">CeC</tspan> (10.8±2.3%)</text>
<polyline class="psc" points=" 40,253.0878 46.5418,253.1026 53.0836,253.1035 59.6255,253.0902 66.1673,253.0631 72.7091,253.0262 79.2509,252.9872 85.7928,252.9572 92.3346,252.9517 98.8764,252.9934 105.4182,253.1239 111.96,253.4448 118.5019,253.7742 125.0437,254.1115 131.5855,254.4561 138.1273,254.8077 144.6692,255.1664 151.211,255.5324 157.7528,255.906 164.2946,256.2881 170.8365,256.6795 177.3783,257.0816 183.9201,257.4957 190.4619,257.9239 197.0037,258.3684 203.5456,258.8318 210.0874,259.3174 216.6292,259.829 223.171,260.3524 229.7129,260.8269 236.2547,261.1326 242.7965,261.0622 249.3383,260.1876 255.8801,259.3763 262.422,258.621 268.9638,257.9146 275.5056,257.2507 282.0474,256.6233 288.5893,256.0266 295.1311,255.4549 301.6729,254.9032 308.2147,254.3659 314.7566,253.838 321.2984,253.3369 327.8402,252.9338 334.382,252.7667 340.9238,253.1201 347.4657,253.393 354.0075,253.5939 360.5493,253.7327 367.0911,253.8294 373.633,253.9198 380.1748,254.066 386.7166,254.4125 393.2584,254.7621 399.8002,255.1143 406.3421,255.4688 412.8839,255.8265 419.4257,256.1883 425.9675,256.5557 432.5094,256.9307 439.0512,257.3158 445.593,257.7137 452.1348,258.1279 458.6767,258.5626 465.2185,259.0113 471.7603,259.4387 478.3021,259.7713 484.8439,259.8898 491.3858,259.6037 497.9276,258.5568 504.4694,257.6068 511.0112,256.7445 517.5531,255.9619 524.0949,255.2518 530.6367,254.6077 537.1785,254.0238 543.7203,253.5052 550.2622,253.0781 556.804,252.7884 563.3458,252.7201 569.8876,252.5387 576.4295,252.1771 582.9713,251.7794 589.5131,251.3633 596.0549,250.9902 602.5968,250.7861 609.1386,251.0235 615.6804,251.2121 622.2222,251.3724"></polyline>
<polyline class="psc error" points=" 40,230.9541 46.5418,231.219 53.0836,231.5009 59.6255,232.0708 66.1673,232.6786 72.7091,233.3079 79.2509,233.9292 85.7928,234.5014 92.3346,234.9721 98.8764,235.2712 105.4182,235.2863 111.96,234.7844 118.5019,234.4047 125.0437,234.1387 131.5855,233.9792 138.1273,233.9203 144.6692,233.9569 151.211,234.0851 157.7528,234.357 164.2946,234.7046 170.8365,235.101 177.3783,235.5461 183.9201,236.0405 190.4619,236.6389 197.0037,237.3545 203.5456,238.1557 210.0874,239.0454 216.6292,240.0279 223.171,241.0753 229.7129,242.0743 236.2547,242.8034 242.7965,242.886 249.3383,241.5742 255.8801,240.4476 262.422,239.4893 268.9638,238.6844 275.5056,238.0198 282.0474,237.484 288.5893,237.0669 295.1311,236.7597 301.6729,236.5546 308.2147,236.4447 314.7566,236.4243 321.2984,236.4862 327.8402,236.6144 334.382,236.78 340.9238,236.9533 347.4657,237.2188 354.0075,237.5734 360.5493,238.0015 367.0911,238.4522 373.633,238.8321 380.1748,238.9898 386.7166,238.6222 393.2584,238.3927 399.8002,238.2874 406.3421,238.2957 412.8839,238.4096 419.4257,238.6226 425.9675,238.9299 432.5094,239.3279 439.0512,239.814 445.593,240.3868 452.1348,241.0461 458.6767,241.7928 465.2185,242.6123 471.7603,243.446 478.3021,244.1788 484.8439,244.6296 491.3858,244.5173 497.9276,243.336 504.4694,242.3666 511.0112,241.59 517.5531,240.9892 524.0949,240.5499 530.6367,240.2589 537.1785,240.1049 543.7203,240.0712 550.2622,240.121 556.804,240.1889 563.3458,240.1721 569.8876,240.0037 576.4295,239.4786 582.9713,239.0395 589.5131,238.6753 596.0549,238.3754 602.5968,238.1225 609.1386,237.8944 615.6804,237.6011 622.2222,237.182 622.2222,265.5627 615.6804,264.8231 609.1386,264.1526 602.5968,263.4497 596.0549,263.6051 589.5131,264.0513 582.9713,264.5193 576.4295,264.8756 569.8876,265.0738 563.3458,265.2681 556.804,265.3879 550.2622,266.0352 543.7203,266.9391 537.1785,267.9426 530.6367,268.9565 524.0949,269.9537 517.5531,270.9345 511.0112,271.899 504.4694,272.8469 497.9276,273.7776 491.3858,274.6902 484.8439,275.1501 478.3021,275.3637 471.7603,275.4315 465.2185,275.4104 458.6767,275.3323 452.1348,275.2097 445.593,275.0406 439.0512,274.8176 432.5094,274.5336 425.9675,274.1815 419.4257,273.7539 412.8839,273.2434 406.3421,272.642 399.8002,271.9412 393.2584,271.1316 386.7166,270.2028 380.1748,269.1422 373.633,269.0074 367.0911,269.2067 360.5493,269.464 354.0075,269.6144 347.4657,269.5672 340.9238,269.2868 334.382,268.7533 327.8402,269.2532 321.2984,270.1876 314.7566,271.2516 308.2147,272.2872 301.6729,273.2518 295.1311,274.1502 288.5893,274.9862 282.0474,275.7626 275.5056,276.4817 268.9638,277.1448 262.422,277.7526 255.8801,278.305 249.3383,278.8011 242.7965,279.2384 236.2547,279.4618 229.7129,279.5796 223.171,279.6296 216.6292,279.6301 210.0874,279.5895 203.5456,279.508 197.0037,279.3823 190.4619,279.209 183.9201,278.951 177.3783,278.617 170.8365,278.258 164.2946,277.8716 157.7528,277.455 151.211,276.9796 144.6692,276.3759 138.1273,275.6952 131.5855,274.933 125.0437,274.0844 118.5019,273.1438 111.96,272.1052 105.4182,270.9616 98.8764,270.7156 92.3346,270.9312 85.7928,271.4129 79.2509,272.0451 72.7091,272.7446 66.1673,273.4476 59.6255,274.1095 53.0836,274.7061 46.5418,274.9862 40,275.2214"></polyline>
<text class = "party psc" x="631.1111" y="241"><tspan class="party_name">PSC</tspan> (13.8±2.4%)</text>
<polyline class="cs" points=" 40,232.2874 46.5418,232.0413 53.0836,231.8057 59.6255,231.5807 66.1673,231.3677 72.7091,231.1698 79.2509,230.9915 85.7928,230.8376 92.3346,230.7126 98.8764,230.6217 105.4182,230.5747 111.96,230.5984 118.5019,230.6058 125.0437,230.5981 131.5855,230.5768 138.1273,230.5434 144.6692,230.4993 151.211,230.4459 157.7528,230.3844 164.2946,230.3161 170.8365,230.2422 177.3783,230.1636 183.9201,230.0814 190.4619,229.9965 197.0037,229.9096 203.5456,229.8215 210.0874,229.7327 216.6292,229.6439 223.171,229.5569 229.7129,229.4774 236.2547,229.4146 242.7965,229.3832 249.3383,229.4111 255.8801,229.4316 262.422,229.4464 268.9638,229.4572 275.5056,229.4656 282.0474,229.4731 288.5893,229.4809 295.1311,229.4906 301.6729,229.5033 308.2147,229.52 314.7566,229.542 321.2984,229.5682 327.8402,229.5926 334.382,229.6035 340.9238,229.577 347.4657,229.5677 354.0075,229.5774 360.5493,229.6044 367.0911,229.6359 373.633,229.645 380.1748,229.5823 386.7166,229.3274 393.2584,229.0751 399.8002,228.8259 406.3421,228.5806 412.8839,228.3396 419.4257,228.1037 425.9675,227.8735 432.5094,227.6495 439.0512,227.4323 445.593,227.2224 452.1348,227.0202 458.6767,226.8262 465.2185,226.6418 471.7603,226.4707 478.3021,226.3188 484.8439,226.1933 491.3858,226.1037 497.9276,226.0656 504.4694,226.0174 511.0112,225.9631 517.5531,225.9064 524.0949,225.8509 530.6367,225.8002 537.1785,225.7581 543.7203,225.7167 550.2622,225.6354 556.804,225.4243 563.3458,224.8894 569.8876,224.509 576.4295,224.3361 582.9713,224.1182 589.5131,223.8674 596.0549,223.6359 602.5968,223.5383 609.1386,223.8301 615.6804,224.0584 622.2222,224.2289"></polyline>
<polyline class="cs error" points=" 40,205.6135 46.5418,205.6212 53.0836,205.6739 59.6255,206.1382 66.1673,206.6779 72.7091,207.2721 79.2509,207.8804 85.7928,208.4446 92.3346,208.8869 98.8764,209.1002 105.4182,208.9076 111.96,207.9307 118.5019,207.0727 125.0437,206.3254 131.5855,205.6823 138.1273,205.1382 144.6692,204.6883 151.211,204.3291 157.7528,204.1323 164.2946,204.0071 170.8365,203.9176 177.3783,203.8635 183.9201,203.8448 190.4619,203.9343 197.0037,204.1479 203.5456,204.44 210.0874,204.8113 216.6292,205.2631 223.171,205.7817 229.7129,206.3126 236.2547,206.7475 242.7965,206.9046 249.3383,206.445 255.8801,206.1237 262.422,205.9305 268.9638,205.8572 275.5056,205.8973 282.0474,206.0459 288.5893,206.2992 295.1311,206.6546 301.6729,207.1105 308.2147,207.6665 314.7566,208.3231 321.2984,209.0487 327.8402,209.7298 334.382,210.148 340.9238,209.8898 347.4657,209.8602 354.0075,210.0472 360.5493,210.418 367.0911,210.8734 373.633,211.2286 380.1748,211.1725 386.7166,210.0351 393.2584,209.0624 399.8002,208.2392 406.3421,207.5533 412.8839,206.9952 419.4257,206.5564 425.9675,206.2302 432.5094,206.0105 439.0512,205.8921 445.593,205.8704 452.1348,205.9416 458.6767,206.1024 465.2185,206.3446 471.7603,206.646 478.3021,206.965 484.8439,207.2377 491.3858,207.3705 497.9276,207.2107 504.4694,207.1768 511.0112,207.2605 517.5531,207.4551 524.0949,207.7552 530.6367,208.157 537.1785,208.6578 543.7203,209.2228 550.2622,209.7335 556.804,209.9619 563.3458,209.4804 569.8876,209.1137 576.4295,208.7505 582.9713,208.4908 589.5131,208.3113 596.0549,208.1758 602.5968,208.0237 609.1386,207.7494 615.6804,207.3923 622.2222,206.8595 622.2222,241.5984 615.6804,240.7245 609.1386,239.9109 602.5968,239.053 596.0549,239.0959 589.5131,239.4235 582.9713,239.7456 576.4295,239.9217 569.8876,239.9042 563.3458,240.2983 556.804,240.8867 550.2622,241.5373 543.7203,242.2106 537.1785,242.8585 530.6367,243.4435 524.0949,243.9466 517.5531,244.3577 511.0112,244.6656 504.4694,244.8579 497.9276,244.9204 491.3858,244.8368 484.8439,245.149 478.3021,245.6726 471.7603,246.2953 465.2185,246.9389 458.6767,247.55 452.1348,248.0987 445.593,248.5743 439.0512,248.9724 432.5094,249.2885 425.9675,249.5168 419.4257,249.651 412.8839,249.6841 406.3421,249.6078 399.8002,249.4127 393.2584,249.0877 386.7166,248.6196 380.1748,247.9921 373.633,248.0613 367.0911,248.3983 360.5493,248.7908 354.0075,249.1076 347.4657,249.2752 340.9238,249.2643 334.382,249.0591 327.8402,249.4555 321.2984,250.0876 314.7566,250.7609 308.2147,251.3736 301.6729,251.896 295.1311,252.3266 288.5893,252.6627 282.0474,252.9002 275.5056,253.0339 268.9638,253.0573 262.422,252.9623 255.8801,252.7395 249.3383,252.3772 242.7965,251.8617 236.2547,252.0818 229.7129,252.6422 223.171,253.3322 216.6292,254.0247 210.0874,254.6542 203.5456,255.203 197.0037,255.6713 190.4619,256.0586 183.9201,256.318 177.3783,256.4637 170.8365,256.5667 164.2946,256.6251 157.7528,256.6365 151.211,256.5626 144.6692,256.3103 138.1273,255.9487 131.5855,255.4713 125.0437,254.8708 118.5019,254.1388 111.96,253.2661 105.4182,252.2419 98.8764,252.1432 92.3346,252.5383 85.7928,253.2307 79.2509,254.1026 72.7091,255.0675 66.1673,256.0574 59.6255,257.0232 53.0836,257.9374 46.5418,258.4614 40,258.9612"></polyline>
<text class = "party cs" x="631.1111" y="220"><tspan class="party_name">C's</tspan> (18.4±2.9%)</text>
<polyline class="pp" points=" 40,276.2888 46.5418,276.315 53.0836,276.3417 59.6255,276.3692 66.1673,276.3974 72.7091,276.4251 79.2509,276.4506 85.7928,276.4709 92.3346,276.4822 98.8764,276.4788 105.4182,276.4502 111.96,276.3698 118.5019,276.2871 125.0437,276.2022 131.5855,276.1148 138.1273,276.0247 144.6692,275.9316 151.211,275.8354 157.7528,275.7358 164.2946,275.6323 170.8365,275.5248 177.3783,275.4127 183.9201,275.2957 190.4619,275.1734 197.0037,275.0451 203.5456,274.9103 210.0874,274.7684 216.6292,274.6185 223.171,274.4646 229.7129,274.3224 236.2547,274.2219 242.7965,274.2143 249.3383,274.4031 255.8801,274.5696 262.422,274.7158 268.9638,274.8433 275.5056,274.9536 282.0474,275.0485 288.5893,275.1294 295.1311,275.198 301.6729,275.2559 308.2147,275.305 314.7566,275.3473 321.2984,275.3785 327.8402,275.3767 334.382,275.2927 340.9238,275.0122 347.4657,274.7193 354.0075,274.4099 360.5493,274.0905 367.0911,273.7936 373.633,273.5803 380.1748,273.5536 386.7166,273.9595 393.2584,274.3334 399.8002,274.6777 406.3421,274.9946 412.8839,275.2854 419.4257,275.5513 425.9675,275.7931 432.5094,276.0114 439.0512,276.2064 445.593,276.3783 452.1348,276.5269 458.6767,276.652 465.2185,276.755 471.7603,276.8433 478.3021,276.9332 484.8439,277.0526 491.3858,277.2489 497.9276,277.6109 504.4694,277.9569 511.0112,278.2861 517.5531,278.5985 524.0949,278.8941 530.6367,279.1736 537.1785,279.4381 543.7203,279.6764 550.2622,279.8462 556.804,279.8647 563.3458,279.5629 569.8876,279.5059 576.4295,279.8349 582.9713,280.1444 589.5131,280.4255 596.0549,280.6638 602.5968,280.8412 609.1386,280.9298 615.6804,280.9879 622.2222,280.988"></polyline>
<polyline class="pp error" points=" 40,257.223 46.5418,257.4825 53.0836,257.7713 59.6255,258.3114 66.1673,258.8972 72.7091,259.5098 79.2509,260.1143 85.7928,260.6616 92.3346,261.0885 98.8764,261.3078 105.4182,261.1731 111.96,260.3614 118.5019,259.6443 125.0437,259.0157 131.5855,258.4699 138.1273,258.0022 144.6692,257.6082 151.211,257.2842 157.7528,257.0719 164.2946,256.9151 170.8365,256.7904 177.3783,256.6965 183.9201,256.6318 190.4619,256.6392 197.0037,256.727 203.5456,256.8665 210.0874,257.0569 216.6292,257.2978 223.171,257.5817 229.7129,257.8808 236.2547,258.1407 242.7965,258.271 249.3383,258.1119 255.8801,258.0362 262.422,258.037 268.9638,258.1088 275.5056,258.2474 282.0474,258.4497 288.5893,258.7134 295.1311,259.037 301.6729,259.4202 308.2147,259.8635 314.7566,260.3683 321.2984,260.9077 327.8402,261.381 334.382,261.588 340.9238,261.1288 347.4657,260.8093 354.0075,260.6155 360.5493,260.5318 367.0911,260.5298 373.633,260.5588 380.1748,260.5371 386.7166,260.3242 393.2584,260.1959 399.8002,260.1433 406.3421,260.1592 412.8839,260.2377 419.4257,260.3733 425.9675,260.5612 432.5094,260.797 439.0512,261.0768 445.593,261.3969 452.1348,261.7537 458.6767,262.144 465.2185,262.5625 471.7603,262.9976 478.3021,263.4321 484.8439,263.8443 491.3858,264.2095 497.9276,264.4999 504.4694,264.8711 511.0112,265.3134 517.5531,265.8186 524.0949,266.3803 530.6367,266.9933 537.1785,267.6537 543.7203,268.3308 550.2622,268.9261 556.804,269.258 563.3458,268.9911 569.8876,268.9474 576.4295,269.1567 582.9713,269.4511 589.5131,269.7962 596.0549,270.1137 602.5968,270.2607 609.1386,269.9512 615.6804,269.5969 622.2222,269.0992 622.2222,292.8769 615.6804,292.379 609.1386,291.9083 602.5968,291.4218 596.0549,291.2139 589.5131,291.0549 582.9713,290.8376 576.4295,290.5131 569.8876,290.0645 563.3458,290.1347 556.804,290.4714 550.2622,290.7664 543.7203,291.0219 537.1785,291.2225 530.6367,291.3539 524.0949,291.4079 517.5531,291.3783 511.0112,291.2589 504.4694,291.0426 497.9276,290.7219 491.3858,290.2883 484.8439,290.261 478.3021,290.4342 471.7603,290.6891 465.2185,290.9476 458.6767,291.16 452.1348,291.3002 445.593,291.3597 439.0512,291.3359 432.5094,291.2257 425.9675,291.0251 419.4257,290.7294 412.8839,290.3331 406.3421,289.8299 399.8002,289.2122 393.2584,288.4709 386.7166,287.5949 380.1748,286.5702 373.633,286.6017 367.0911,287.0574 360.5493,287.6491 354.0075,288.2043 347.4657,288.6293 340.9238,288.8956 334.382,288.9973 327.8402,289.3724 321.2984,289.8492 314.7566,290.3262 308.2147,290.7465 301.6729,291.0916 295.1311,291.359 288.5893,291.5455 282.0474,291.6473 275.5056,291.6598 268.9638,291.5777 262.422,291.3947 255.8801,291.1031 249.3383,290.6942 242.7965,290.1576 236.2547,290.3032 229.7129,290.7639 223.171,291.3476 216.6292,291.9393 210.0874,292.4799 203.5456,292.9542 197.0037,293.3632 190.4619,293.7076 183.9201,293.9597 177.3783,294.129 170.8365,294.2591 164.2946,294.3496 157.7528,294.3996 151.211,294.3867 144.6692,294.255 138.1273,294.0471 131.5855,293.7596 125.0437,293.3887 118.5019,292.93 111.96,292.3781 105.4182,291.7272 98.8764,291.6499 92.3346,291.8758 85.7928,292.2801 79.2509,292.7869 72.7091,293.3405 66.1673,293.8975 59.6255,294.4271 53.0836,294.9121 46.5418,295.1475 40,295.3546"></polyline>
<text class = "party pp" x="631.1111" y="283"><tspan class="party_name">PP</tspan> (8.8±2.0%)</text>
<polyline class="jxsi" points=" 40,105.1666 46.5418,105.3492 53.0836,105.536 59.6255,105.7276 66.1673,105.9226 72.7091,106.1148 79.2509,106.2935 85.7928,106.4441 92.3346,106.5481 98.8764,106.5795 105.4182,106.4902 111.96,106.1609 118.5019,105.8369 125.0437,105.5181 131.5855,105.2042 138.1273,104.8946 144.6692,104.5887 151.211,104.2855 157.7528,103.9842 164.2946,103.6835 170.8365,103.3822 177.3783,103.0789 183.9201,102.7722 190.4619,102.4601 197.0037,102.1409 203.5456,101.8124 210.0874,101.4719 216.6292,101.1169 223.171,100.7562 229.7129,100.4293 236.2547,100.2142 242.7965,100.245 249.3383,100.7986 255.8801,101.3084 262.422,101.7789 268.9638,102.2143 275.5056,102.6184 282.0474,102.9947 288.5893,103.3461 295.1311,103.6753 301.6729,103.9848 308.2147,104.2766 314.7566,104.5524 321.2984,104.809 327.8402,105.0348 334.382,105.2132 340.9238,105.3198 347.4657,105.4624 354.0075,105.6379 360.5493,105.8366 367.0911,106.0302 373.633,106.1698 380.1748,106.1746 386.7166,105.8564 393.2584,105.5608 399.8002,105.2851 406.3421,105.0265 412.8839,104.783 419.4257,104.5521 425.9675,104.3319 432.5094,104.1204 439.0512,103.9156 445.593,103.7155 452.1348,103.5181 458.6767,103.3211 465.2185,103.1261 471.7603,102.9445 478.3021,102.8009 484.8439,102.7345 491.3858,102.8089 497.9276,103.1425 504.4694,103.4433 511.0112,103.7143 517.5531,103.9581 524.0949,104.1763 530.6367,104.3701 537.1785,104.5397 543.7203,104.6957 550.2622,104.8801 556.804,105.1869 563.3458,105.8212 569.8876,106.2042 576.4295,106.2037 582.9713,106.3072 589.5131,106.5052 596.0549,106.7098 602.5968,106.7068 609.1386,106.0018 615.6804,105.472 622.2222,105.1447"></polyline>
<polyline class="jxsi error" points=" 40,76.3103 46.5418,76.7958 53.0836,77.3247 59.6255,78.253 66.1673,79.2517 72.7091,80.2892 79.2509,81.3074 85.7928,82.2245 92.3346,82.9348 98.8764,83.2919 105.4182,83.0489 111.96,81.6562 118.5019,80.4139 125.0437,79.3114 131.5855,78.3395 138.1273,77.4901 144.6692,76.7559 151.211,76.1303 157.7528,75.6802 164.2946,75.3148 170.8365,74.9964 177.3783,74.7221 183.9201,74.4892 190.4619,74.3654 197.0037,74.3635 203.5456,74.4364 210.0874,74.5818 216.6292,74.7979 223.171,75.0773 229.7129,75.3963 236.2547,75.7084 242.7965,75.94 249.3383,75.9802 255.8801,76.1312 262.422,76.3844 268.9638,76.7335 275.5056,77.1737 282.0474,77.7014 288.5893,78.3144 295.1311,79.0111 301.6729,79.7914 308.2147,80.6556 314.7566,81.6053 321.2984,82.6051 327.8402,83.5291 334.382,84.1414 340.9238,84.0032 347.4657,84.1254 354.0075,84.4903 360.5493,85.0552 367.0911,85.7004 373.633,86.2092 380.1748,86.2227 386.7166,84.9703 393.2584,83.9145 399.8002,83.0349 406.3421,82.315 412.8839,81.741 419.4257,81.3011 425.9675,80.9849 432.5094,80.7833 439.0512,80.6883 445.593,80.6924 452.1348,80.7889 458.6767,80.9718 465.2185,81.2327 471.7603,81.5555 478.3021,81.9143 484.8439,82.2734 491.3858,82.5868 497.9276,82.7943 504.4694,83.1133 511.0112,83.5339 517.5531,84.0472 524.0949,84.6458 530.6367,85.3226 537.1785,86.0714 543.7203,86.8745 550.2622,87.6924 556.804,88.474 563.3458,89.1808 569.8876,89.589 576.4295,89.3898 582.9713,89.4544 589.5131,89.735 596.0549,90.0479 602.5968,89.9891 609.1386,88.6719 615.6804,87.5118 622.2222,86.4318 622.2222,123.8576 615.6804,123.4322 609.1386,123.3318 602.5968,123.4245 596.0549,123.3716 589.5131,123.2755 582.9713,123.1601 576.4295,123.0176 569.8876,122.8194 563.3458,122.4616 556.804,121.8998 550.2622,122.0679 543.7203,122.5168 537.1785,123.008 530.6367,123.4176 524.0949,123.7069 517.5531,123.8689 511.0112,123.8948 504.4694,123.7732 497.9276,123.4907 491.3858,123.031 484.8439,123.1956 478.3021,123.6874 471.7603,124.3336 465.2185,125.0194 458.6767,125.6703 452.1348,126.2472 445.593,126.7386 439.0512,127.1429 432.5094,127.4574 425.9675,127.6789 419.4257,127.8031 412.8839,127.8249 406.3421,127.7381 399.8002,127.5352 393.2584,127.2071 386.7166,126.7424 380.1748,126.1264 373.633,126.1303 367.0911,126.3601 360.5493,126.6181 354.0075,126.7856 347.4657,126.7995 340.9238,126.6365 334.382,126.2849 327.8402,126.5405 321.2984,127.013 314.7566,127.4995 308.2147,127.8976 301.6729,128.1783 295.1311,128.3395 288.5893,128.3778 282.0474,128.288 275.5056,128.0632 268.9638,127.6951 262.422,127.1733 255.8801,126.4855 249.3383,125.6169 242.7965,124.5499 236.2547,124.7199 229.7129,125.4624 223.171,126.4351 216.6292,127.4359 210.0874,128.3621 203.5456,129.1883 197.0037,129.9184 190.4619,130.5549 183.9201,131.0552 177.3783,131.4358 170.8365,131.768 164.2946,132.0522 157.7528,132.2881 151.211,132.4407 144.6692,132.4215 138.1273,132.2991 131.5855,132.0688 125.0437,131.7248 118.5019,131.2599 111.96,130.6656 105.4182,129.9316 98.8764,129.8672 92.3346,130.1615 85.7928,130.6636 79.2509,131.2796 72.7091,131.9404 66.1673,132.5935 59.6255,133.2022 53.0836,133.7472 46.5418,133.9026 40,134.023"></polyline>
<text class = "party jxsi" x="631.1111" y="105"><tspan class="party_name">JxSí</tspan> (38.5±3.2%)</text>
<polyline class="otros" points=" 40,314.9202 46.5418,315.0291 53.0836,315.1416 59.6255,315.2577 66.1673,315.3765 72.7091,315.4941 79.2509,315.6043 85.7928,315.6986 92.3346,315.7667 98.8764,315.7945 105.4182,315.7559 111.96,315.5869 118.5019,315.4246 125.0437,315.2692 131.5855,315.1207 138.1273,314.9789 144.6692,314.8436 151.211,314.7144 157.7528,314.5909 164.2946,314.4725 170.8365,314.3589 177.3783,314.2492 183.9201,314.1429 190.4619,314.0392 197.0037,313.9372 203.5456,313.836 210.0874,313.7346 216.6292,313.6317 223.171,313.5299 229.7129,313.4412 236.2547,313.3904 242.7965,313.4213 249.3383,313.626 255.8801,313.8241 262.422,314.0177 268.9638,314.2087 275.5056,314.399 282.0474,314.5905 288.5893,314.7851 295.1311,314.9848 301.6729,315.1917 308.2147,315.4082 314.7566,315.6368 321.2984,315.8638 327.8402,316.0343 334.382,316.0373 340.9238,315.6381 347.4657,315.2876 354.0075,314.9811 360.5493,314.717 367.0911,314.4968 373.633,314.3214 380.1748,314.1893 386.7166,314.0992 393.2584,313.9958 399.8002,313.8829 406.3421,313.7633 412.8839,313.639 419.4257,313.5118 425.9675,313.3828 432.5094,313.253 439.0512,313.1229 445.593,312.9929 452.1348,312.8633 458.6767,312.7339 465.2185,312.6061 471.7603,312.4847 478.3021,312.3788 484.8439,312.3016 491.3858,312.2733 497.9276,312.3298 504.4694,312.3681 511.0112,312.3897 517.5531,312.396 524.0949,312.3876 530.6367,312.3651 537.1785,312.3284 543.7203,312.2853 550.2622,312.2644 556.804,312.3238 563.3458,312.5805 569.8876,312.8063 576.4295,313.0265 582.9713,313.2375 589.5131,313.433 596.0549,313.5996 602.5968,313.7155 609.1386,313.7381 615.6804,313.7542 622.2222,313.7515"></polyline>
<polyline class="otros error" points=" 40,296.7411 46.5418,297.0536 53.0836,297.3938 59.6255,298.0271 66.1673,298.7069 72.7091,299.4112 79.2509,300.1004 85.7928,300.7203 92.3346,301.202 98.8764,301.4507 105.4182,301.3064 111.96,300.4087 118.5019,299.612 125.0437,298.9111 131.5855,298.3013 138.1273,297.7782 144.6692,297.3378 151.211,296.9765 157.7528,296.7454 164.2946,296.5772 170.8365,296.4445 177.3783,296.3458 183.9201,296.2795 190.4619,296.297 197.0037,296.4081 203.5456,296.578 210.0874,296.8054 216.6292,297.0892 223.171,297.4204 229.7129,297.7681 236.2547,298.074 242.7965,298.2437 249.3383,298.1116 255.8801,298.0776 262.422,298.1353 268.9638,298.28 275.5056,298.5076 282.0474,298.8154 288.5893,299.2014 295.1311,299.6645 301.6729,300.2045 308.2147,300.8222 314.7566,301.5194 321.2984,302.2586 327.8402,302.9048 334.382,303.1949 340.9238,302.6052 347.4657,302.2162 354.0075,302.0139 360.5493,301.9743 367.0911,302.0381 373.633,302.0951 380.1748,301.9603 386.7166,301.2455 393.2584,300.6291 399.8002,300.1049 406.3421,299.6677 412.8839,299.3129 419.4257,299.0364 425.9675,298.8343 432.5094,298.7029 439.0512,298.6388 445.593,298.6388 452.1348,298.6996 458.6767,298.8186 465.2185,298.99 471.7603,299.2001 478.3021,299.4246 484.8439,299.627 491.3858,299.756 497.9276,299.7307 504.4694,299.7824 511.0112,299.904 517.5531,300.0891 524.0949,300.3322 530.6367,300.6277 537.1785,300.9709 543.7203,301.3506 550.2622,301.7432 556.804,302.1151 563.3458,302.4309 569.8876,302.6841 576.4295,302.7872 582.9713,302.9843 589.5131,303.2437 596.0549,303.4893 602.5968,303.5755 609.1386,303.2038 615.6804,302.8114 622.2222,302.3162 622.2222,325.1868 615.6804,324.697 609.1386,324.2724 602.5968,323.8555 596.0549,323.7099 589.5131,323.6223 582.9713,323.4908 576.4295,323.2658 569.8876,322.9285 563.3458,322.7301 556.804,322.5326 550.2622,322.7855 543.7203,323.2199 537.1785,323.686 530.6367,324.1025 524.0949,324.4431 517.5531,324.7028 511.0112,324.8755 504.4694,324.9538 497.9276,324.9289 491.3858,324.7905 484.8439,324.9762 478.3021,325.333 471.7603,325.7693 465.2185,326.2222 458.6767,326.6492 452.1348,327.0269 445.593,327.3471 439.0512,327.607 432.5094,327.803 425.9675,327.9313 419.4257,327.9872 412.8839,327.9651 406.3421,327.8589 399.8002,327.661 393.2584,327.3626 386.7166,326.9529 380.1748,326.4184 373.633,326.5476 367.0911,326.9555 360.5493,327.4597 354.0075,327.9484 347.4657,328.3589 340.9238,328.6711 334.382,328.8797 327.8402,329.1638 321.2984,329.4691 314.7566,329.7543 308.2147,329.9942 301.6729,330.1789 295.1311,330.3051 288.5893,330.3688 282.0474,330.3656 275.5056,330.2904 268.9638,330.1374 262.422,329.9 255.8801,329.5707 249.3383,329.1404 242.7965,328.5989 236.2547,328.7068 229.7129,329.1142 223.171,329.6394 216.6292,330.1743 210.0874,330.6638 203.5456,331.0941 197.0037,331.4663 190.4619,331.7813 183.9201,332.0063 177.3783,332.1526 170.8365,332.2732 164.2946,332.3679 157.7528,332.4364 151.211,332.4522 144.6692,332.3494 138.1273,332.1797 131.5855,331.9402 125.0437,331.6273 118.5019,331.2372 111.96,330.7651 105.4182,330.2054 98.8764,330.1383 92.3346,330.3315 85.7928,330.6768 79.2509,331.1081 72.7091,331.5771 66.1673,332.0461 59.6255,332.4884 53.0836,332.8893 46.5418,333.0046 40,333.0994"></polyline>
<text class = "party otros" x="631.1111" y="325"><tspan class="party_name">Otros</tspan> (3.3±1.9%)</text>  
<text class="pie izquierda" x="0" y="395">Datos: Electograph | Modelo propio</text>
<text class="pie derecha" x="800" y="395">Jesús Carro | <tspan style="font-weight:bold">1datomas</tspan>.com</text>
</svg>
