<?xml version="1.0" encoding="utf-8"?><!DOCTYPE svg PUBLIC "-//W3C//DTD SVG 1.1//EN" "http://www.w3.org/Graphics/SVG/1.1/DTD/svg11.dtd">
<svg xmlns="http://www.w3.org/2000/svg" xmlns:xlink="http://www.w3.org/1999/xlink" version="1.1" viewBox="0 0 800 400">

<text x="0" y="20" style="font-size:large;font-weight:bold;color:black">Intención de voto en Elecciones Autonómicas en Cataluña</text>
<text x="0" y="40" style="color:gray">Promedio de encuestas y estimación de error</text>
<text class="horizontal axis" x="36" y="333.3333">0%</text>
<line class="horizontal axis" x1="40" y1="333.3333" x2="622.2222" y2="333.3333"></line>
<text class="horizontal axis" x="36" y="252.5253">10%</text>
<line class="horizontal axis" x1="40" y1="252.5253" x2="622.2222" y2="252.5253"></line>
<text class="horizontal axis" x="36" y="171.7172">20%</text>
<line class="horizontal axis" x1="40" y1="171.7172" x2="622.2222" y2="171.7172"></line>
<text class="horizontal axis" x="36" y="90.9091">30%</text>
<line class="horizontal axis" x1="40" y1="90.9091" x2="622.2222" y2="90.9091"></line>
<line class="vertical axis" x1="40" y1="336.6667" x2="40" y2="66.6667"></line>
<text class="vertical axis" x="40" y="343.3333">Ago-2017</text>
<line class="vertical axis" x1="179.9139" y1="336.6667" x2="179.9139" y2="66.6667"></line>
<text class="vertical axis" x="179.9139" y="343.3333">Sep-2017</text>
<line class="vertical axis" x1="315.3144" y1="336.6667" x2="315.3144" y2="66.6667"></line>
<text class="vertical axis" x="315.3144" y="343.3333">Oct-2017</text>
<line class="vertical axis" x1="455.2283" y1="336.6667" x2="455.2283" y2="66.6667"></line>
<text class="vertical axis" x="455.2283" y="343.3333">Nov-2017</text>
<line class="vertical axis" x1="590.6288" y1="336.6667" x2="590.6288" y2="66.6667"></line>
<text class="vertical axis" x="590.6288" y="343.3333">Dic-2017</text>
<polyline id="media-cup"  class="cup media" points=" 40,281.8612 44.5134,281.8171 49.0267,281.771 53.5401,281.7229 58.0534,281.6731 62.5668,281.6235 67.0801,281.577 71.5935,281.5375 76.1068,281.5095 80.6202,281.4998 85.1335,281.5201 89.6469,281.6008 94.1602,281.6764 98.6736,281.7463 103.1869,281.8099 107.7003,281.8665 112.2136,281.9159 116.727,281.9576 121.2403,281.9914 125.7537,282.0169 130.267,282.0338 134.7804,282.0418 139.2937,282.0405 143.8071,282.0294 148.3204,282.008 152.8338,281.9754 157.3471,281.9309 161.8605,281.8733 166.3738,281.806 170.8872,281.7445 175.4005,281.7205 179.9139,281.7906 184.4272,282.0714 188.9406,282.3363 193.4539,282.5866 197.9673,282.8236 202.4806,283.0486 206.994,283.2628 211.5073,283.4676 216.0207,283.6641 220.534,283.8534 225.0474,284.0365 229.5607,284.2144 234.0741,284.3844 238.5874,284.5367 243.1008,284.6567 247.6141,284.7206 252.1275,284.8136 256.6408,284.934 261.1542,285.075 265.6675,285.215 270.1809,285.3148 274.6942,285.3088 279.2076,285.0482 283.7209,284.812 288.2343,284.5973 292.7476,284.4018 297.261,284.2232 301.7743,284.0596 306.2877,283.9091 310.801,283.7702 315.3144,283.6414 319.8277,283.5214 324.3411,283.409 328.8544,283.3032 333.3678,283.2035 337.8811,283.1101 342.3945,283.0243 346.9078,282.9474 351.4212,282.8805 355.9345,282.825 360.4479,282.7589 364.9612,282.6825 369.4746,282.5954 373.9879,282.4968 378.5013,282.3852 383.0146,282.2584 387.528,282.1296 392.0413,282.0536 396.5547,282.144 401.068,282.6275 405.5814,282.9369 410.0947,283.0265 414.6081,283.1102 419.1214,283.1864 423.6348,283.2594 428.1481,283.3434 432.6615,283.4718 437.1748,283.5941 441.6882,283.6996 446.2016,283.768 450.7149,283.7681 455.2283,283.6502 459.7416,283.5664 464.255,283.5346 468.7683,283.6008 473.2817,283.6659 477.795,283.7305 482.3084,283.7951 486.8217,283.8598 491.3351,283.925 495.8484,283.9905 500.3618,284.0568 504.8751,284.1239 509.3885,284.1925 513.9018,284.2584 518.4152,284.3049 522.9285,284.3001 527.4419,284.1906 531.9552,284.1194 536.4686,284.1034 540.9819,284.0837 545.4953,284.048 550.0086,283.9463 554.522,283.6308 559.0353,283.2699 563.5487,282.9334 568.062,282.6771 572.5754,282.5893 577.0887,282.8863 581.6021,283.1074 586.1154,283.2565 590.6288,283.3175 595.1421,283.3303 599.6555,283.2701 604.1688,283.1888 608.6822,283.1064 613.1955,283.0685 617.7089,283.0729 622.2222,283.2402"></polyline>
<polyline id="error-cup" class="cup error" points=" 40,259.9665 44.5134,260.4237 49.0267,260.8915 53.5401,261.5724 58.0534,262.3464 62.5668,263.1183 67.0801,263.8547 71.5935,264.5099 76.1068,265.0264 80.6202,265.3254 85.1335,265.2735 89.6469,264.572 94.1602,263.9827 98.6736,263.4975 103.1869,263.1091 107.7003,262.8104 112.2136,262.5947 116.727,262.4558 121.2403,262.3881 125.7537,262.3861 130.267,262.4451 134.7804,262.5608 139.2937,262.7292 143.8071,262.947 148.3204,263.2111 152.8338,263.5192 157.3471,263.8692 161.8605,264.2597 166.3738,264.6818 170.8872,265.1072 175.4005,265.4838 179.9139,265.7298 184.4272,265.7069 188.9406,265.7769 193.4539,265.9302 197.9673,266.1592 202.4806,266.4577 206.994,266.8207 211.5073,267.2447 216.0207,267.727 220.534,268.266 225.0474,268.8608 229.5607,269.5119 234.0741,270.1951 238.5874,270.8275 243.1008,271.2543 247.6141,271.1904 252.1275,271.3004 256.6408,271.5708 261.1542,271.9721 265.6675,272.4239 270.1809,272.7808 274.6942,272.8032 279.2076,271.9839 283.7209,271.3059 288.2343,270.7529 292.7476,270.3115 297.261,269.9699 301.7743,269.7184 306.2877,269.5482 310.801,269.452 315.3144,269.4232 319.8277,269.4565 324.3411,269.5471 328.8544,269.6911 333.3678,269.882 337.8811,270.1049 342.3945,270.3332 346.9078,270.5266 351.4212,270.6264 355.9345,270.538 360.4479,270.5187 364.9612,270.5595 369.4746,270.6528 373.9879,270.7917 378.5013,270.9702 383.0146,271.1828 387.528,271.4287 392.0413,271.7222 396.5547,272.1038 401.068,272.6788 405.5814,273.0546 410.0947,273.0978 414.6081,273.2362 419.1214,273.4515 423.6348,273.7054 428.1481,273.9339 432.6615,274.0344 437.1748,274.23 441.6882,274.4847 446.2016,274.7408 450.7149,274.9084 455.2283,274.8356 459.7416,274.8077 464.255,274.7266 468.7683,274.4151 473.2817,274.182 477.795,274.0237 482.3084,273.9366 486.8217,273.918 491.3351,273.9649 495.8484,274.0748 500.3618,274.2452 504.8751,274.4742 509.3885,274.7599 513.9018,275.0901 518.4152,275.4237 522.9285,275.6812 527.4419,275.724 531.9552,275.8244 536.4686,275.9313 540.9819,276.1258 545.4953,276.3585 550.0086,276.4622 554.522,276.0233 559.0353,275.6488 563.5487,275.4062 568.062,275.2712 572.5754,275.2094 577.0887,275.181 581.6021,275.2179 586.1154,275.2595 590.6288,275.184 595.1421,275.1034 599.6555,274.896 604.1688,274.7148 608.6822,274.5155 613.1955,274.2231 617.7089,273.9316 622.2222,273.6311 622.2222,292.8494 617.7089,292.2142 613.1955,291.9138 608.6822,291.6972 604.1688,291.6628 599.6555,291.6442 595.1421,291.5572 590.6288,291.4511 586.1154,291.2536 581.6021,290.9968 577.0887,290.5916 572.5754,289.9692 568.062,290.0829 563.5487,290.4606 559.0353,290.8911 554.522,291.2384 550.0086,291.4305 545.4953,291.7375 540.9819,292.0416 536.4686,292.2756 531.9552,292.4145 527.4419,292.6571 522.9285,292.919 518.4152,293.1861 513.9018,293.4268 509.3885,293.6252 504.8751,293.7737 500.3618,293.8683 495.8484,293.9063 491.3351,293.885 486.8217,293.8017 482.3084,293.6535 477.795,293.4373 473.2817,293.1497 468.7683,292.7865 464.255,292.3426 459.7416,292.3251 455.2283,292.4648 450.7149,292.6278 446.2016,292.7953 441.6882,292.9145 437.1748,292.9582 432.6615,292.9093 428.1481,292.7529 423.6348,292.8134 419.1214,292.9213 414.6081,292.9842 410.0947,292.9552 405.5814,292.8192 401.068,292.5762 396.5547,292.1843 392.0413,292.3849 387.528,292.8304 383.0146,293.334 378.5013,293.8002 373.9879,294.202 369.4746,294.5381 364.9612,294.8055 360.4479,294.9991 355.9345,295.1119 351.4212,295.1346 346.9078,295.3682 342.3945,295.7155 337.8811,296.1153 333.3678,296.5249 328.8544,296.9154 324.3411,297.271 319.8277,297.5863 315.3144,297.8596 310.801,298.0884 306.2877,298.27 301.7743,298.4008 297.261,298.4764 292.7476,298.4921 288.2343,298.4416 283.7209,298.318 279.2076,298.1126 274.6942,297.8145 270.1809,297.8489 265.6675,298.0061 261.1542,298.1779 256.6408,298.2972 252.1275,298.3269 247.6141,298.2509 243.1008,298.059 238.5874,298.246 234.0741,298.5737 229.5607,298.917 225.0474,299.2122 220.534,299.4408 216.0207,299.6011 211.5073,299.6905 206.994,299.7049 202.4806,299.6395 197.9673,299.488 193.4539,299.243 188.9406,298.8957 184.4272,298.4359 179.9139,297.8514 175.4005,297.9572 170.8872,298.3817 166.3738,298.9302 161.8605,299.487 157.3471,299.9926 152.8338,300.4316 148.3204,300.8048 143.8071,301.1118 139.2937,301.3517 134.7804,301.5228 130.267,301.6224 125.7537,301.6476 121.2403,301.5947 116.727,301.4594 112.2136,301.2371 107.7003,300.9227 103.1869,300.5106 98.6736,299.9951 94.1602,299.3702 89.6469,298.6296 85.1335,297.7668 80.6202,297.6741 76.1068,297.9927 71.5935,298.5651 67.0801,299.2993 62.5668,300.1286 58.0534,300.9998 53.5401,301.8733 49.0267,302.6506 44.5134,303.2106 40,303.7559"></polyline>
<text class = "party cup" x="631.1111" y="297"><tspan class="party_name">CUP</tspan><tspan class="party_result"> (6.2±1.2%)</tspan></text>
<polyline id="media-erc"  class="erc media" points=" 40,132.1058 44.5134,132.3572 49.0267,132.6276 53.5401,132.9182 58.0534,133.2259 62.5668,133.5372 67.0801,133.828 71.5935,134.0654 76.1068,134.2073 80.6202,134.1923 85.1335,133.9059 89.6469,133.0612 94.1602,132.2231 98.6736,131.3962 103.1869,130.5842 107.7003,129.7895 112.2136,129.0134 116.727,128.2565 121.2403,127.5188 125.7537,126.7994 130.267,126.0968 134.7804,125.4092 139.2937,124.7343 143.8071,124.0692 148.3204,123.4106 152.8338,122.7549 157.3471,122.0978 161.8605,121.4345 166.3738,120.7784 170.8872,120.1885 175.4005,119.7805 179.9139,119.7514 184.4272,120.5009 188.9406,121.174 193.4539,121.7819 197.9673,122.3353 202.4806,122.8437 206.994,123.3164 211.5073,123.7619 216.0207,124.1882 220.534,124.603 225.0474,125.0141 229.5607,125.429 234.0741,125.8335 238.5874,126.1607 243.1008,126.2755 247.6141,125.9002 252.1275,125.6203 256.6408,125.4324 261.1542,125.3254 265.6675,125.2596 270.1809,125.1537 274.6942,124.8581 279.2076,124.0194 283.7209,123.1831 288.2343,122.3482 292.7476,121.5129 297.261,120.6747 301.7743,119.8303 306.2877,118.9761 310.801,118.1078 315.3144,117.2202 319.8277,116.3076 324.3411,115.3631 328.8544,114.3787 333.3678,113.3644 337.8811,112.3804 342.3945,111.552 346.9078,111.0812 351.4212,111.2837 355.9345,112.7219 360.4479,113.9343 364.9612,114.951 369.4746,115.797 373.9879,116.4934 378.5013,117.0577 383.0146,117.5043 387.528,117.8557 392.0413,118.1649 396.5547,118.5369 401.068,119.1803 405.5814,119.4266 410.0947,119.0693 414.6081,118.7088 419.1214,118.3326 423.6348,117.9193 428.1481,117.417 432.6615,116.696 437.1748,115.8885 441.6882,115.0824 446.2016,114.4634 450.7149,114.3469 455.2283,115.2989 459.7416,116.1183 464.255,117.1034 468.7683,118.9024 473.2817,120.6832 477.795,122.4359 482.3084,124.1503 486.8217,125.8169 491.3351,127.4265 495.8484,128.9708 500.3618,130.4423 504.8751,131.8344 509.3885,133.1414 513.9018,134.3433 518.4152,135.3873 522.9285,136.1835 527.4419,136.5878 531.9552,136.9368 536.4686,137.1527 540.9819,137.2929 545.4953,137.4357 550.0086,138.0754 554.522,140.6661 559.0353,143.1832 563.5487,145.4926 568.062,147.3246 572.5754,148.271 577.0887,147.3494 581.6021,146.8696 586.1154,146.695 590.6288,146.6638 595.1421,146.5393 599.6555,145.9224 604.1688,145.4577 608.6822,145.1636 613.1955,145.096 617.7089,144.9985 622.2222,144.8012"></polyline>
<polyline id="error-erc" class="erc error" points=" 40,89.849 44.5134,90.7643 49.0267,91.7191 53.5401,93.2711 58.0534,95.0904 62.5668,96.9162 67.0801,98.6562 71.5935,100.1847 76.1068,101.3408 80.6202,101.9 85.1335,101.4712 89.6469,99.1502 94.1602,97.0581 98.6736,95.184 103.1869,93.5174 107.7003,92.0475 112.2136,90.7634 116.727,89.6548 121.2403,88.7111 125.7537,87.9224 130.267,87.2791 134.7804,86.7722 139.2937,86.3933 143.8071,86.1346 148.3204,85.9891 152.8338,85.9504 157.3471,86.013 161.8605,86.1721 166.3738,86.4194 170.8872,86.7323 175.4005,87.0679 179.9139,87.3603 184.4272,87.525 188.9406,87.8177 193.4539,88.2288 197.9673,88.7519 202.4806,89.3828 206.994,90.1196 211.5073,90.9621 216.0207,91.9118 220.534,92.9723 225.0474,94.1488 229.5607,95.4489 234.0741,96.8193 238.5874,98.0534 243.1008,98.7463 247.6141,98.1131 252.1275,97.8517 256.6408,97.9367 261.1542,98.3148 265.6675,98.8356 270.1809,99.2156 274.6942,98.9708 279.2076,97.0643 283.7209,95.3876 288.2343,93.9114 292.7476,92.6112 297.261,91.4656 301.7743,90.4558 306.2877,89.5649 310.801,88.7776 315.3144,88.0793 319.8277,87.4567 324.3411,86.8967 328.8544,86.3862 333.3678,85.9249 337.8811,85.5446 342.3945,85.3192 346.9078,85.3726 351.4212,85.9077 355.9345,87.3075 360.4479,88.634 364.9612,89.8995 369.4746,91.1154 373.9879,92.2919 378.5013,93.4386 383.0146,94.564 387.528,95.6637 392.0413,96.7077 396.5547,97.6495 401.068,98.4434 405.5814,98.7995 410.0947,98.339 414.6081,98.0755 419.1214,97.9639 423.6348,97.8985 428.1481,97.6707 432.6615,96.8757 437.1748,96.1953 441.6882,95.6695 446.2016,95.4133 450.7149,95.631 455.2283,96.6928 459.7416,97.6395 464.255,98.5391 468.7683,99.5996 473.2817,100.8039 477.795,102.1313 482.3084,103.5628 486.8217,105.0813 491.3351,106.6713 495.8484,108.3184 500.3618,110.0098 504.8751,111.7343 509.3885,113.4822 513.9018,115.2174 518.4152,116.8406 522.9285,118.1681 527.4419,118.8883 531.9552,119.588 536.4686,120.0526 540.9819,120.6235 545.4953,121.3073 550.0086,122.3726 554.522,124.7665 559.0353,127.3096 563.5487,129.855 568.062,131.9661 572.5754,132.9808 577.0887,131.3836 581.6021,130.5186 586.1154,130.1187 590.6288,129.8129 595.1421,129.5015 599.6555,128.59 604.1688,127.9278 608.6822,127.4054 613.1955,126.8389 617.7089,126.159 622.2222,125.0311 622.2222,164.5714 617.7089,163.8381 613.1955,163.3531 608.6822,162.9218 604.1688,162.9876 599.6555,163.2548 595.1421,163.577 590.6288,163.5146 586.1154,163.2712 581.6021,163.2206 577.0887,163.3151 572.5754,163.5612 568.062,162.683 563.5487,161.1302 559.0353,159.0569 554.522,156.5657 550.0086,153.7782 545.4953,153.564 540.9819,153.9622 536.4686,154.2527 531.9552,154.2856 527.4419,154.2874 522.9285,154.1989 518.4152,153.934 513.9018,153.4692 509.3885,152.8007 504.8751,151.9344 500.3618,150.8748 495.8484,149.6232 491.3351,148.1817 486.8217,146.5525 482.3084,144.7379 477.795,142.7405 473.2817,140.5625 468.7683,138.2052 464.255,135.6676 459.7416,134.597 455.2283,133.9051 450.7149,133.0628 446.2016,133.5134 441.6882,134.4954 437.1748,135.5816 432.6615,136.5162 428.1481,137.1632 423.6348,137.9401 419.1214,138.7013 414.6081,139.342 410.0947,139.7997 405.5814,140.0537 401.068,139.9171 396.5547,139.4242 392.0413,139.6222 387.528,140.0477 383.0146,140.4446 378.5013,140.6768 373.9879,140.6949 369.4746,140.4786 364.9612,140.0024 360.4479,139.2346 355.9345,138.1362 351.4212,136.6597 346.9078,136.7897 342.3945,137.7848 337.8811,139.2161 333.3678,140.8039 328.8544,142.3711 324.3411,143.8295 319.8277,145.1584 315.3144,146.3611 310.801,147.438 306.2877,148.3874 301.7743,149.2048 297.261,149.8837 292.7476,150.4146 288.2343,150.785 283.7209,150.9786 279.2076,150.9745 274.6942,150.7454 270.1809,151.0918 265.6675,151.6835 261.1542,152.3359 256.6408,152.9281 252.1275,153.3888 247.6141,153.6873 243.1008,153.8048 238.5874,154.2679 234.0741,154.8476 229.5607,155.4091 225.0474,155.8794 220.534,156.2338 216.0207,156.4645 211.5073,156.5617 206.994,156.5132 202.4806,156.3046 197.9673,155.9186 193.4539,155.3351 188.9406,154.5303 184.4272,153.4768 179.9139,152.1425 175.4005,152.4931 170.8872,153.6447 166.3738,155.1374 161.8605,156.6969 157.3471,158.1826 152.8338,159.5594 148.3204,160.8321 143.8071,162.0037 139.2937,163.0753 134.7804,164.0463 130.267,164.9145 125.7537,165.6764 121.2403,166.3266 116.727,166.8583 112.2136,167.2633 107.7003,167.5315 103.1869,167.651 98.6736,167.6085 94.1602,167.3881 89.6469,166.9722 85.1335,166.3406 80.6202,166.4846 76.1068,167.0738 71.5935,167.9461 67.0801,168.9997 62.5668,170.1583 58.0534,171.3614 53.5401,172.5653 49.0267,173.536 44.5134,173.9502 40,174.3626"></polyline>
<text class = "party erc" x="631.1111" y="142"><tspan class="party_name">ERC</tspan><tspan class="party_result"> (23.3±2.4%)</tspan></text>
<polyline id="media-jxcat"  class="jxcat media" points=" 40,223.4052 44.5134,223.3569 49.0267,223.3009 53.5401,223.2366 58.0534,223.1648 62.5668,223.0896 67.0801,223.0186 71.5935,222.9624 76.1068,222.935 80.6202,222.9573 85.1335,223.0679 89.6469,223.3636 94.1602,223.661 98.6736,223.9583 103.1869,224.2539 107.7003,224.5464 112.2136,224.8348 116.727,225.1185 121.2403,225.3968 125.7537,225.6694 130.267,225.9362 134.7804,226.1969 139.2937,226.4518 143.8071,226.7008 148.3204,226.9442 152.8338,227.1824 157.3471,227.4155 161.8605,227.644 166.3738,227.8645 170.8872,228.0646 175.4005,228.2224 179.9139,228.3033 184.4272,228.2402 188.9406,228.198 193.4539,228.1728 197.9673,228.1603 202.4806,228.157 206.994,228.159 211.5073,228.1628 216.0207,228.1647 220.534,228.1609 225.0474,228.1472 229.5607,228.1191 234.0741,228.0846 238.5874,228.0853 243.1008,228.2142 247.6141,228.6758 252.1275,229.1073 256.6408,229.5083 261.1542,229.8759 265.6675,230.2057 270.1809,230.4994 274.6942,230.7736 279.2076,231.08 283.7209,231.4346 288.2343,231.8333 292.7476,232.2732 297.261,232.7524 301.7743,233.27 306.2877,233.8258 310.801,234.4205 315.3144,235.0556 319.8277,235.7334 324.3411,236.4571 328.8544,237.2313 333.3678,238.0459 337.8811,238.8505 342.3945,239.5426 346.9078,239.9587 351.4212,239.8453 355.9345,238.755 360.4479,237.8628 364.9612,237.1441 369.4746,236.5781 373.9879,236.1469 378.5013,235.835 383.0146,235.6289 387.528,235.515 392.0413,235.4767 396.5547,235.4938 401.068,235.5471 405.5814,235.6839 410.0947,235.9242 414.6081,236.2818 419.1214,236.7362 423.6348,237.1764 428.1481,237.3668 432.6615,236.8538 437.1748,236.5718 441.6882,236.4623 446.2016,236.423 450.7149,236.2778 455.2283,235.6961 459.7416,235.1212 464.255,234.1947 468.7683,232.1063 473.2817,230.0272 477.795,227.9717 482.3084,225.9537 486.8217,223.9862 491.3351,222.0811 495.8484,220.249 500.3618,218.4994 504.8751,216.8398 509.3885,215.2765 513.9018,213.8327 518.4152,212.571 522.9285,211.606 527.4419,211.1383 531.9552,210.7877 536.4686,210.7368 540.9819,210.6698 545.4953,210.5378 550.0086,209.9938 554.522,207.9844 559.0353,205.9126 563.5487,204.0164 568.062,202.3851 572.5754,201.073 577.0887,200.1355 581.6021,198.9869 586.1154,197.8831 590.6288,197.2152 595.1421,196.6508 599.6555,196.5566 604.1688,196.3864 608.6822,196.2052 613.1955,196.0801 617.7089,196.0385 622.2222,196.1863"></polyline>
<polyline id="error-jxcat" class="jxcat error" points=" 40,186.988 44.5134,187.5191 49.0267,188.0588 53.5401,189.0953 58.0534,190.3422 62.5668,191.5868 67.0801,192.7777 71.5935,193.8454 76.1068,194.7017 80.6202,195.227 85.1335,195.2223 89.6469,194.2539 94.1602,193.4818 98.6736,192.8904 103.1869,192.4658 107.7003,192.195 112.2136,192.0663 116.727,192.0691 121.2403,192.1937 125.7537,192.4316 130.267,192.7753 134.7804,193.2183 139.2937,193.7552 143.8071,194.3816 148.3204,195.0942 152.8338,195.8909 157.3471,196.7704 161.8605,197.7332 166.3738,198.7561 170.8872,199.7545 175.4005,200.5673 179.9139,200.9292 184.4272,200.3468 188.9406,199.9634 193.4539,199.7569 197.9673,199.7087 202.4806,199.8026 206.994,200.0254 211.5073,200.3653 216.0207,200.813 220.534,201.3603 225.0474,202.0008 229.5607,202.7295 234.0741,203.5208 238.5874,204.2984 243.1008,204.9277 247.6141,205.1881 252.1275,205.6541 256.6408,206.3059 261.1542,207.1038 265.6675,207.9485 270.1809,208.6694 274.6942,208.9999 279.2076,208.4136 283.7209,208.0722 288.2343,207.9473 292.7476,208.0167 297.261,208.2621 301.7743,208.669 306.2877,209.226 310.801,209.9238 315.3144,210.7558 319.8277,211.7177 324.3411,212.807 328.8544,214.0238 333.3678,215.3483 337.8811,216.7031 342.3945,217.9371 346.9078,218.8136 351.4212,218.9734 355.9345,217.7975 360.4479,216.9573 364.9612,216.4129 369.4746,216.1307 373.9879,216.0831 378.5013,216.2468 383.0146,216.6024 387.528,217.1127 392.0413,217.6894 396.5547,218.1833 401.068,218.358 405.5814,218.5883 410.0947,218.752 414.6081,219.2048 419.1214,219.8979 423.6348,220.6463 428.1481,221.077 432.6615,220.4956 437.1748,220.3208 441.6882,220.4511 446.2016,220.7207 450.7149,220.8526 455.2283,220.3395 459.7416,219.8496 464.255,218.8194 468.7683,216.0397 473.2817,213.4023 477.795,210.9146 482.3084,208.585 486.8217,206.4222 491.3351,204.4339 495.8484,202.6273 500.3618,201.0082 504.8751,199.5812 509.3885,198.3496 513.9018,197.3241 518.4152,196.5286 522.9285,195.9987 527.4419,195.7932 531.9552,195.7386 536.4686,195.9021 540.9819,196.209 545.4953,196.5463 550.0086,196.3582 554.522,194.1139 559.0353,192.0018 563.5487,190.2566 568.062,188.8256 572.5754,187.5421 577.0887,185.997 581.6021,184.4904 586.1154,183.1681 590.6288,182.2434 595.1421,181.5034 599.6555,181.1512 604.1688,180.8067 608.6822,180.4215 613.1955,179.8486 617.7089,179.2862 622.2222,178.6065 622.2222,213.766 617.7089,212.7907 613.1955,212.3116 608.6822,211.989 604.1688,211.9662 599.6555,211.9621 595.1421,211.7983 590.6288,212.1869 586.1154,212.598 581.6021,213.4834 577.0887,214.2739 572.5754,214.6039 568.062,215.9446 563.5487,217.7762 559.0353,219.8235 554.522,221.855 550.0086,223.6294 545.4953,224.5294 540.9819,225.1305 536.4686,225.5716 531.9552,225.8367 527.4419,226.4834 522.9285,227.2133 518.4152,228.6134 513.9018,230.3413 509.3885,232.2034 504.8751,234.0985 500.3618,235.9905 495.8484,237.8708 491.3351,239.7282 486.8217,241.5502 482.3084,243.3224 477.795,245.0288 473.2817,246.6521 468.7683,248.1729 464.255,249.57 459.7416,250.3928 455.2283,251.0527 450.7149,251.703 446.2016,252.1254 441.6882,252.4735 437.1748,252.8228 432.6615,253.212 428.1481,253.6565 423.6348,253.7065 419.1214,253.5745 414.6081,253.3587 410.0947,253.0964 405.5814,252.7794 401.068,252.7363 396.5547,252.8044 392.0413,253.2639 387.528,253.9174 383.0146,254.6553 378.5013,255.4233 373.9879,256.2107 369.4746,257.0255 364.9612,257.8753 360.4479,258.7682 355.9345,259.7125 351.4212,260.7173 346.9078,261.1037 342.3945,261.1482 337.8811,260.9979 333.3678,260.7435 328.8544,260.4387 324.3411,260.1072 319.8277,259.749 315.3144,259.3554 310.801,258.9173 306.2877,258.4257 301.7743,257.871 297.261,257.2428 292.7476,256.5297 288.2343,255.7193 283.7209,254.7971 279.2076,253.7465 274.6942,252.5472 270.1809,252.3294 265.6675,252.4629 261.1542,252.648 256.6408,252.7108 252.1275,252.5604 247.6141,252.1634 243.1008,251.5007 238.5874,251.8722 234.0741,252.6483 229.5607,253.5088 225.0474,254.2935 220.534,254.9614 216.0207,255.5164 211.5073,255.9603 206.994,256.2927 202.4806,256.5113 197.9673,256.612 193.4539,256.5886 188.9406,256.4327 184.4272,256.1335 179.9139,255.6774 175.4005,255.8774 170.8872,256.3746 166.3738,256.9729 161.8605,257.5548 157.3471,258.0605 152.8338,258.4739 148.3204,258.7943 143.8071,259.02 139.2937,259.1484 134.7804,259.1756 130.267,259.0971 125.7537,258.9073 121.2403,258.5999 116.727,258.1679 112.2136,257.6033 107.7003,256.8977 103.1869,256.042 98.6736,255.0263 94.1602,253.8403 89.6469,252.4732 85.1335,250.9135 80.6202,250.6876 76.1068,251.1684 71.5935,252.0794 67.0801,253.2595 62.5668,254.5925 58.0534,255.9874 53.5401,257.378 49.0267,258.543 44.5134,259.1947 40,259.8224"></polyline>
<text class = "party jxcat" x="631.1111" y="193"><tspan class="party_name">JxCAT</tspan><tspan class="party_result"> (17.0±2.2%)</tspan></text>
<polyline id="media-cec"  class="cec media" points=" 40,242.7903 44.5134,242.5001 49.0267,242.1964 53.5401,241.8787 58.0534,241.5501 62.5668,241.2229 67.0801,240.9175 71.5935,240.6608 76.1068,240.486 80.6202,240.4404 85.1335,240.6114 89.6469,241.2182 94.1602,241.8014 98.6736,242.357 103.1869,242.8821 107.7003,243.3747 112.2136,243.8339 116.727,244.2592 121.2403,244.6507 125.7537,245.0092 130.267,245.3356 134.7804,245.6311 139.2937,245.8974 143.8071,246.1361 148.3204,246.3492 152.8338,246.5386 157.3471,246.7067 161.8605,246.8557 166.3738,246.9852 170.8872,247.087 175.4005,247.1434 179.9139,247.1211 184.4272,246.9479 188.9406,246.766 193.4539,246.5718 197.9673,246.3618 202.4806,246.1328 206.994,245.8819 211.5073,245.6063 216.0207,245.3031 220.534,244.9693 225.0474,244.6019 229.5607,244.1973 234.0741,243.7769 238.5874,243.4225 243.1008,243.2938 247.6141,243.7116 252.1275,244.0067 256.6408,244.1855 261.1542,244.2626 265.6675,244.2787 270.1809,244.3096 274.6942,244.4857 279.2076,245.0982 283.7209,245.6628 288.2343,246.1769 292.7476,246.6393 297.261,247.0492 301.7743,247.4063 306.2877,247.7106 310.801,247.9621 315.3144,248.1607 319.8277,248.3061 324.3411,248.3978 328.8544,248.4347 333.3678,248.4214 337.8811,248.3797 342.3945,248.3555 346.9078,248.4243 351.4212,248.7062 355.9345,249.4157 360.4479,250.0396 364.9612,250.5846 369.4746,251.0565 373.9879,251.461 378.5013,251.8033 383.0146,252.0884 387.528,252.3134 392.0413,252.4559 396.5547,252.466 401.068,252.2346 405.5814,252.2218 410.0947,252.5791 414.6081,252.8587 419.1214,253.0692 423.6348,253.268 428.1481,253.5911 432.6615,254.3242 437.1748,254.9697 441.6882,255.5386 446.2016,256.0587 450.7149,256.5795 455.2283,257.19 459.7416,257.7283 464.255,258.1948 468.7683,258.6167 473.2817,259.0993 477.795,259.6285 482.3084,260.1929 486.8217,260.7826 491.3351,261.3894 495.8484,262.0059 500.3618,262.6259 504.8751,263.2445 509.3885,263.8575 513.9018,264.4525 518.4152,264.9975 522.9285,265.442 527.4419,265.7179 531.9552,266.0846 536.4686,266.5929 540.9819,267.1889 545.4953,267.7964 550.0086,268.1183 554.522,267.4135 559.0353,266.92 563.5487,266.5736 568.062,266.3738 572.5754,266.36 577.0887,266.6833 581.6021,266.9583 586.1154,267.0692 590.6288,266.7844 595.1421,266.5433 599.6555,266.3788 604.1688,266.2605 608.6822,266.253 613.1955,266.4838 617.7089,266.6298 622.2222,266.6339"></polyline>
<polyline id="error-cec" class="cec error" points=" 40,215.789 44.5134,216.0426 49.0267,216.2983 53.5401,216.8277 58.0534,217.4733 62.5668,218.1207 67.0801,218.7471 71.5935,219.3203 76.1068,219.7984 80.6202,220.1255 85.1335,220.2145 89.6469,219.8957 94.1602,219.6974 98.6736,219.6055 103.1869,219.6078 107.7003,219.6937 112.2136,219.854 116.727,220.0809 121.2403,220.3678 125.7537,220.7091 130.267,221.1004 134.7804,221.5381 139.2937,222.0198 143.8071,222.5438 148.3204,223.1093 152.8338,223.7166 157.3471,224.3668 161.8605,225.0622 166.3738,225.7876 170.8872,226.4813 175.4005,227.0217 179.9139,227.2047 184.4272,226.6404 188.9406,226.1983 193.4539,225.8616 197.9673,225.616 202.4806,225.4494 206.994,225.3517 211.5073,225.3141 216.0207,225.3295 220.534,225.3918 225.0474,225.4962 229.5607,225.6389 234.0741,225.8171 238.5874,226.0266 243.1008,226.2618 247.6141,226.5342 252.1275,226.8551 256.6408,227.2169 261.1542,227.6076 265.6675,227.9986 270.1809,228.3409 274.6942,228.5585 279.2076,228.5226 283.7209,228.5821 288.2343,228.7167 292.7476,228.9102 297.261,229.1497 301.7743,229.4249 306.2877,229.7272 310.801,230.0494 315.3144,230.3853 319.8277,230.7296 324.3411,231.0776 328.8544,231.4249 333.3678,231.7694 337.8811,232.1152 342.3945,232.4763 346.9078,232.8804 351.4212,233.3787 355.9345,234.0767 360.4479,234.7834 364.9612,235.4941 369.4746,236.2059 373.9879,236.9174 378.5013,237.6285 383.0146,238.3405 387.528,239.0332 392.0413,239.6315 396.5547,239.9904 401.068,239.8396 405.5814,239.8921 410.0947,240.1996 414.6081,240.5504 419.1214,240.9329 423.6348,241.3543 428.1481,241.8591 432.6615,242.5741 437.1748,243.3224 441.6882,244.0848 446.2016,244.8451 450.7149,245.5844 455.2283,246.2728 459.7416,246.8982 464.255,247.32 468.7683,247.2954 473.2817,247.4306 477.795,247.7053 482.3084,248.1028 486.8217,248.6088 491.3351,249.2107 495.8484,249.8976 500.3618,250.6596 504.8751,251.4886 509.3885,252.3775 513.9018,253.304 518.4152,254.2066 522.9285,254.9777 527.4419,255.4483 531.9552,256.0333 536.4686,256.7037 540.9819,257.5728 545.4953,258.5181 550.0086,259.0968 554.522,258.238 559.0353,257.7285 563.5487,257.497 568.062,257.4456 572.5754,257.4655 577.0887,257.4002 581.6021,257.4559 586.1154,257.4365 590.6288,256.9789 595.1421,256.6195 599.6555,256.2779 604.1688,256.0409 608.6822,255.8982 613.1955,255.8364 617.7089,255.6367 622.2222,255.0806 622.2222,278.1873 617.7089,277.6228 613.1955,277.1313 608.6822,276.6078 604.1688,276.48 599.6555,276.4797 595.1421,276.467 590.6288,276.5898 586.1154,276.702 581.6021,276.4607 577.0887,275.9665 572.5754,275.2545 568.062,275.302 563.5487,275.6501 559.0353,276.1115 554.522,276.589 550.0086,277.1397 545.4953,277.0747 540.9819,276.805 536.4686,276.4822 531.9552,276.1359 527.4419,275.9875 522.9285,275.9062 518.4152,275.7885 513.9018,275.6011 509.3885,275.3374 504.8751,275.0004 500.3618,274.5922 495.8484,274.1141 491.3351,273.568 486.8217,272.9564 482.3084,272.2829 477.795,271.5516 473.2817,270.7679 468.7683,269.938 464.255,269.0696 459.7416,268.5584 455.2283,268.1073 450.7149,267.5745 446.2016,267.2724 441.6882,266.9925 437.1748,266.6169 432.6615,266.0743 428.1481,265.3231 423.6348,265.1817 419.1214,265.2056 414.6081,265.1671 410.0947,264.9586 405.5814,264.5514 401.068,264.6296 396.5547,264.9416 392.0413,265.2803 387.528,265.5937 383.0146,265.8363 378.5013,265.9781 373.9879,266.0047 369.4746,265.9071 364.9612,265.675 360.4479,265.2958 355.9345,264.7546 351.4212,264.0337 346.9078,263.9682 342.3945,264.2347 337.8811,264.6442 333.3678,265.0734 328.8544,265.4445 324.3411,265.718 319.8277,265.8826 315.3144,265.936 310.801,265.8748 306.2877,265.694 301.7743,265.3877 297.261,264.9487 292.7476,264.3685 288.2343,263.6372 283.7209,262.7434 279.2076,261.6738 274.6942,260.4129 270.1809,260.2783 265.6675,260.5587 261.1542,260.9177 256.6408,261.1541 252.1275,261.1582 247.6141,260.889 243.1008,260.3258 238.5874,260.8184 234.0741,261.7367 229.5607,262.7556 225.0474,263.7075 220.534,264.5468 216.0207,265.2767 211.5073,265.8985 206.994,266.4122 202.4806,266.8161 197.9673,267.1075 193.4539,267.282 188.9406,267.3338 184.4272,267.2554 179.9139,267.0375 175.4005,267.265 170.8872,267.6927 166.3738,268.1827 161.8605,268.6492 157.3471,269.0465 152.8338,269.3606 148.3204,269.589 143.8071,269.7284 139.2937,269.7749 134.7804,269.7241 130.267,269.5707 125.7537,269.3093 121.2403,268.9337 116.727,268.4374 112.2136,267.8138 107.7003,267.0558 103.1869,266.1563 98.6736,265.1084 94.1602,263.9054 89.6469,262.5406 85.1335,261.0082 80.6202,260.7553 76.1068,261.1736 71.5935,262.0013 67.0801,263.0879 62.5668,264.3251 58.0534,265.6269 53.5401,266.9297 49.0267,268.0946 44.5134,268.9576 40,269.7916"></polyline>
<text class = "party cec" x="631.1111" y="256"><tspan class="party_name">CeC</tspan><tspan class="party_result"> (8.3±1.4%)</tspan></text>
<polyline id="media-psc"  class="psc media" points=" 40,223.34 44.5134,223.3061 49.0267,223.2656 53.5401,223.2177 58.0534,223.163 62.5668,223.1053 67.0801,223.0522 71.5935,223.0145 76.1068,223.0074 80.6202,223.0534 85.1335,223.1957 89.6469,223.5423 94.1602,223.9019 98.6736,224.2736 103.1869,224.6571 107.7003,225.0523 112.2136,225.4595 116.727,225.8794 121.2403,226.313 125.7537,226.7619 130.267,227.2279 134.7804,227.7132 139.2937,228.2206 143.8071,228.7534 148.3204,229.3155 152.8338,229.9113 157.3471,230.5461 161.8605,231.2261 166.3738,231.9317 170.8872,232.575 175.4005,232.9815 179.9139,232.8494 184.4272,231.5638 188.9406,230.3913 193.4539,229.3206 197.9673,228.3408 202.4806,227.4414 206.994,226.6127 211.5073,225.8453 216.0207,225.1302 220.534,224.4589 225.0474,223.8228 229.5607,223.2136 234.0741,222.6474 238.5874,222.198 243.1008,222.0129 247.6141,222.3963 252.1275,222.7037 256.6408,222.9476 261.1542,223.1388 265.6675,223.2902 270.1809,223.4221 274.6942,223.5699 279.2076,223.8125 283.7209,224.068 288.2343,224.337 292.7476,224.6208 297.261,224.9212 301.7743,225.2407 306.2877,225.5822 310.801,225.9491 315.3144,226.3453 319.8277,226.7754 324.3411,227.2446 328.8544,227.7594 333.3678,228.3124 337.8811,228.8575 342.3945,229.2966 346.9078,229.4689 351.4212,229.12 355.9345,227.7937 360.4479,226.634 364.9612,225.6204 369.4746,224.7351 373.9879,223.9633 378.5013,223.2918 383.0146,222.7093 387.528,222.2131 392.0413,221.8156 396.5547,221.543 401.068,221.4483 405.5814,221.2208 410.0947,220.7578 414.6081,220.3046 419.1214,219.879 423.6348,219.5392 428.1481,219.3998 432.6615,219.6851 437.1748,219.9436 441.6882,220.1536 446.2016,220.2444 450.7149,220.0865 455.2283,219.4451 459.7416,218.8997 464.255,218.4095 468.7683,217.8788 473.2817,217.3072 477.795,216.7048 482.3084,216.08 486.8217,215.4402 491.3351,214.7918 495.8484,214.1404 500.3618,213.4909 504.8751,212.8478 509.3885,212.2147 513.9018,211.595 518.4152,210.9875 522.9285,210.3996 527.4419,209.8754 531.9552,209.6232 536.4686,209.9787 540.9819,210.2174 545.4953,210.3466 550.0086,210.3144 554.522,209.9269 559.0353,209.4549 563.5487,208.9885 568.062,208.6032 572.5754,208.4129 577.0887,208.6784 581.6021,208.7937 586.1154,208.7897 590.6288,208.7577 595.1421,209.0063 599.6555,210.0337 604.1688,210.8884 608.6822,211.4618 613.1955,211.5579 617.7089,211.6577 622.2222,211.7775"></polyline>
<polyline id="error-psc" class="psc error" points=" 40,189.2497 44.5134,189.7958 49.0267,190.3518 53.5401,191.3457 58.0534,192.5259 62.5668,193.7038 67.0801,194.832 71.5935,195.8463 76.1068,196.6664 80.6202,197.1839 85.1335,197.2198 89.6469,196.3868 94.1602,195.7491 98.6736,195.2935 103.1869,195.0078 107.7003,194.8812 112.2136,194.9041 116.727,195.068 121.2403,195.3654 125.7537,195.7903 130.267,196.3377 134.7804,197.0039 139.2937,197.7866 143.8071,198.6849 148.3204,199.6994 152.8338,200.8323 157.3471,202.0876 161.8605,203.4714 166.3738,204.9448 170.8872,206.3495 175.4005,207.3755 179.9139,207.4966 184.4272,205.6798 188.9406,204.1448 193.4539,202.8639 197.9673,201.8128 202.4806,200.9698 206.994,200.3158 211.5073,199.8342 216.0207,199.5104 220.534,199.3319 225.0474,199.288 229.5607,199.3697 234.0741,199.562 238.5874,199.8287 243.1008,200.1046 247.6141,200.2964 252.1275,200.6325 256.6408,201.1077 261.1542,201.6988 265.6675,202.3298 270.1809,202.8594 274.6942,203.0565 279.2076,202.4558 283.7209,202.0522 288.2343,201.8235 292.7476,201.7528 297.261,201.8268 301.7743,202.0353 306.2877,202.3705 310.801,202.827 315.3144,203.401 319.8277,204.0908 324.3411,204.8966 328.8544,205.8208 333.3678,206.8468 337.8811,207.9033 342.3945,208.8465 346.9078,209.4466 351.4212,209.3489 355.9345,207.935 360.4479,206.8171 364.9612,205.9602 369.4746,205.335 373.9879,204.9173 378.5013,204.687 383.0146,204.6276 387.528,204.714 392.0413,204.8916 396.5547,205.0648 401.068,205.0818 405.5814,204.9341 410.0947,204.3806 414.6081,203.9978 419.1214,203.7778 423.6348,203.7128 428.1481,203.7951 432.6615,204.0346 437.1748,204.4086 441.6882,204.855 446.2016,205.2435 450.7149,205.3498 455.2283,204.7734 459.7416,204.3106 464.255,203.7324 468.7683,202.5808 473.2817,201.5153 477.795,200.5384 482.3084,199.6525 486.8217,198.86 491.3351,198.1628 495.8484,197.5626 500.3618,197.0608 504.8751,196.6583 509.3885,196.3561 513.9018,196.1452 518.4152,195.9869 522.9285,195.8129 527.4419,195.5324 531.9552,195.5588 536.4686,196.1227 540.9819,196.7168 545.4953,197.2893 550.0086,197.5983 554.522,197.0183 559.0353,196.5348 563.5487,196.2314 568.062,196.0511 572.5754,195.9044 577.0887,195.6269 581.6021,195.4318 586.1154,195.2439 590.6288,194.9853 595.1421,195.0859 599.6555,195.8974 604.1688,196.6117 608.6822,197.0124 613.1955,196.7013 617.7089,196.3255 622.2222,195.685 622.2222,227.87 617.7089,226.9899 613.1955,226.4145 608.6822,225.9113 604.1688,225.165 599.6555,224.17 595.1421,222.9266 590.6288,222.5302 586.1154,222.3354 581.6021,222.1556 577.0887,221.7298 572.5754,220.9214 568.062,221.1553 563.5487,221.7456 559.0353,222.3751 554.522,222.8354 550.0086,223.0305 545.4953,223.4039 540.9819,223.7179 536.4686,223.8348 531.9552,223.6877 527.4419,224.2183 522.9285,224.9863 518.4152,225.988 513.9018,227.0448 509.3885,228.0732 504.8751,229.0373 500.3618,229.9211 495.8484,230.7181 491.3351,231.4207 486.8217,232.0204 482.3084,232.5075 477.795,232.8712 473.2817,233.0991 468.7683,233.1768 464.255,233.0866 459.7416,233.4888 455.2283,234.1168 450.7149,234.8232 446.2016,235.2454 441.6882,235.4522 437.1748,235.4786 432.6615,235.3355 428.1481,235.0045 423.6348,235.3655 419.1214,235.9803 414.6081,236.6114 410.0947,237.135 405.5814,237.5074 401.068,237.8149 396.5547,238.0212 392.0413,238.7397 387.528,239.7123 383.0146,240.791 378.5013,241.8965 373.9879,243.0092 369.4746,244.1353 364.9612,245.2805 360.4479,246.4509 355.9345,247.6523 351.4212,248.8911 346.9078,249.4913 342.3945,249.7467 337.8811,249.8117 333.3678,249.7781 328.8544,249.698 324.3411,249.5927 319.8277,249.46 315.3144,249.2897 310.801,249.0713 306.2877,248.7939 301.7743,248.4462 297.261,248.0156 292.7476,247.4887 288.2343,246.8505 283.7209,246.0838 279.2076,245.1692 274.6942,244.0834 270.1809,243.9849 265.6675,244.2506 261.1542,244.5788 256.6408,244.7875 252.1275,244.7748 247.6141,244.4962 243.1008,243.9213 238.5874,244.5674 234.0741,245.7328 229.5607,247.0576 225.0474,248.3577 220.534,249.5858 216.0207,250.75 211.5073,251.8564 206.994,252.9097 202.4806,253.9131 197.9673,254.8687 193.4539,255.7772 188.9406,256.6378 184.4272,257.4477 179.9139,258.2021 175.4005,258.5875 170.8872,258.8004 166.3738,258.9186 161.8605,258.9808 157.3471,259.0046 152.8338,258.9903 148.3204,258.9316 143.8071,258.822 139.2937,258.6547 134.7804,258.4225 130.267,258.118 125.7537,257.7335 121.2403,257.2606 116.727,256.6908 112.2136,256.0148 107.7003,255.2234 103.1869,254.3064 98.6736,253.2537 94.1602,252.0546 89.6469,250.6978 85.1335,249.1717 80.6202,248.923 76.1068,249.3484 71.5935,250.1827 67.0801,251.2723 62.5668,252.5067 58.0534,253.8 53.5401,255.0896 49.0267,256.1794 44.5134,256.8164 40,257.4304"></polyline>
<text class = "party psc" x="631.1111" y="215"><tspan class="party_name">PSC</tspan><tspan class="party_result"> (15.0±2.0%)</tspan></text>
<polyline id="media-cs"  class="cs media" points=" 40,186.499 44.5134,186.7374 49.0267,186.9853 53.5401,187.2429 58.0534,187.5074 62.5668,187.7697 67.0801,188.0149 71.5935,188.2237 76.1068,188.3725 80.6202,188.4288 85.1335,188.3325 89.6469,187.9328 94.1602,187.5583 98.6736,187.2122 103.1869,186.8969 107.7003,186.614 112.2136,186.3645 116.727,186.149 121.2403,185.9676 125.7537,185.8202 130.267,185.7067 134.7804,185.6266 139.2937,185.5793 143.8071,185.5646 148.3204,185.5818 152.8338,185.6306 157.3471,185.7108 161.8605,185.822 166.3738,185.9583 170.8872,186.0985 175.4005,186.2028 179.9139,186.2049 184.4272,185.9761 188.9406,185.796 193.4539,185.6644 197.9673,185.5808 202.4806,185.5449 206.994,185.5563 211.5073,185.6148 216.0207,185.7202 220.534,185.8729 225.0474,186.0731 229.5607,186.3216 234.0741,186.602 238.5874,186.8575 243.1008,186.98 247.6141,186.7599 252.1275,186.6543 256.6408,186.6626 261.1542,186.7699 265.6675,186.92 270.1809,187.0044 274.6942,186.8347 279.2076,185.9825 283.7209,185.1963 288.2343,184.476 292.7476,183.8206 297.261,183.2289 301.7743,182.6994 306.2877,182.2306 310.801,181.8209 315.3144,181.4686 319.8277,181.1724 324.3411,180.9312 328.8544,180.7439 333.3678,180.6075 337.8811,180.5116 342.3945,180.4352 346.9078,180.3441 351.4212,180.1847 355.9345,179.8642 360.4479,179.6041 364.9612,179.4057 369.4746,179.2701 373.9879,179.199 378.5013,179.1948 383.0146,179.2608 387.528,179.3727 392.0413,179.4312 396.5547,179.2309 401.068,178.3697 405.5814,177.6439 410.0947,176.9815 414.6081,176.3846 419.1214,175.8619 423.6348,175.4193 428.1481,175.052 432.6615,174.7359 437.1748,174.4555 441.6882,174.1915 446.2016,173.8819 450.7149,173.4123 455.2283,172.5765 459.7416,171.8593 464.255,171.2488 468.7683,170.6966 473.2817,170.0805 477.795,169.4147 482.3084,168.7111 486.8217,167.98 491.3351,167.2303 495.8484,166.4697 500.3618,165.7046 504.8751,164.9406 509.3885,164.1818 513.9018,163.4442 518.4152,162.7719 522.9285,162.2162 527.4419,161.7965 531.9552,160.9785 536.4686,159.3704 540.9819,157.623 545.4953,155.8873 550.0086,154.8297 554.522,156.1062 559.0353,156.7774 563.5487,157.1288 568.062,157.3554 572.5754,157.7142 577.0887,158.7269 581.6021,159.5781 586.1154,160.2158 590.6288,160.4893 595.1421,160.4736 599.6555,159.8524 604.1688,159.2695 608.6822,158.8309 613.1955,158.7399 617.7089,158.7427 622.2222,159.0712"></polyline>
<polyline id="error-cs" class="cs error" points=" 40,151.3311 44.5134,152.1962 49.0267,153.0891 53.5401,154.4274 58.0534,155.9627 62.5668,157.4967 67.0801,158.9575 71.5935,160.2481 76.1068,161.2465 80.6202,161.7843 85.1335,161.5711 89.6469,159.9408 94.1602,158.5214 98.6736,157.3034 103.1869,156.2777 107.7003,155.4351 112.2136,154.7666 116.727,154.2634 121.2403,153.9174 125.7537,153.7206 130.267,153.6661 134.7804,153.7472 139.2937,153.9585 143.8071,154.2952 148.3204,154.7535 152.8338,155.3307 157.3471,156.0252 161.8605,156.8367 166.3738,157.7403 170.8872,158.6453 175.4005,159.3771 179.9139,159.6469 184.4272,158.9138 188.9406,158.4014 193.4539,158.0924 197.9673,157.9724 202.4806,158.0293 206.994,158.2534 211.5073,158.6372 216.0207,159.1749 220.534,159.8629 225.0474,160.6994 229.5607,161.6847 234.0741,162.7696 238.5874,163.7802 243.1008,164.384 247.6141,163.9496 252.1275,163.8607 256.6408,164.0983 261.1542,164.6122 265.6675,165.2532 270.1809,165.7436 274.6942,165.6159 279.2076,163.8691 283.7209,162.3774 288.2343,161.1179 292.7476,160.0712 297.261,159.2206 301.7743,158.5518 306.2877,158.0524 310.801,157.7115 315.3144,157.52 319.8277,157.4698 324.3411,157.5545 328.8544,157.7691 333.3678,158.1012 337.8811,158.5158 342.3945,158.9471 346.9078,159.2935 351.4212,159.4033 355.9345,159.027 360.4479,158.8413 364.9612,158.8327 369.4746,158.991 373.9879,159.3085 378.5013,159.7809 383.0146,160.4062 387.528,161.137 392.0413,161.8022 396.5547,162.0664 401.068,161.3071 405.5814,160.6563 410.0947,159.8996 414.6081,159.3762 419.1214,159.0677 423.6348,158.9104 428.1481,158.7696 432.6615,158.3937 437.1748,158.2219 441.6882,158.1938 446.2016,158.186 450.7149,157.9871 455.2283,157.22 459.7416,156.5895 464.255,155.8888 468.7683,154.6946 473.2817,153.5687 477.795,152.5172 482.3084,151.5458 486.8217,150.6592 491.3351,149.8619 495.8484,149.1571 500.3618,148.5478 504.8751,148.0358 509.3885,147.6225 513.9018,147.3113 518.4152,147.108 522.9285,146.9861 527.4419,146.824 531.9552,146.2885 536.4686,144.8669 540.9819,143.4608 545.4953,142.1622 550.0086,141.4483 554.522,142.5473 559.0353,143.2241 563.5487,143.7588 568.062,144.209 572.5754,144.6213 577.0887,145.0771 581.6021,145.6148 586.1154,146.0703 590.6288,146.113 595.1421,145.9384 599.6555,145.0632 604.1688,144.308 608.6822,143.6709 613.1955,143.1521 617.7089,142.6572 622.2222,142.1963 622.2222,175.9461 617.7089,174.8281 613.1955,174.3277 608.6822,173.9909 604.1688,174.231 599.6555,174.6416 595.1421,175.0087 590.6288,174.8657 586.1154,174.3613 581.6021,173.5414 577.0887,172.3766 572.5754,170.8071 568.062,170.5018 563.5487,170.4988 559.0353,170.3307 554.522,169.665 550.0086,168.2112 545.4953,169.6125 540.9819,171.7851 536.4686,173.8738 531.9552,175.6685 527.4419,176.7689 522.9285,177.4463 518.4152,178.4358 513.9018,179.5771 509.3885,180.7411 504.8751,181.8453 500.3618,182.8614 495.8484,183.7822 491.3351,184.5987 486.8217,185.3007 482.3084,185.8764 477.795,186.3121 473.2817,186.5923 468.7683,186.6986 464.255,186.6087 459.7416,187.1291 455.2283,187.933 450.7149,188.8376 446.2016,189.5778 441.6882,190.1892 437.1748,190.689 432.6615,191.0781 428.1481,191.3343 423.6348,191.9283 419.1214,192.6562 414.6081,193.393 410.0947,194.0633 405.5814,194.6315 401.068,195.4323 396.5547,196.3954 392.0413,197.0602 387.528,197.6084 383.0146,198.1153 378.5013,198.6087 373.9879,199.0894 369.4746,199.5491 364.9612,199.9786 360.4479,200.3669 355.9345,200.7013 351.4212,200.966 346.9078,201.3947 342.3945,201.9233 337.8811,202.5075 333.3678,203.1139 328.8544,203.7188 324.3411,204.3078 319.8277,204.8751 315.3144,205.4172 310.801,205.9302 306.2877,206.4089 301.7743,206.8471 297.261,207.2372 292.7476,207.5699 288.2343,207.834 283.7209,208.0152 279.2076,208.096 274.6942,208.0536 270.1809,208.2652 265.6675,208.5868 261.1542,208.9276 256.6408,209.227 252.1275,209.4479 247.6141,209.5702 243.1008,209.5759 238.5874,209.9347 234.0741,210.4345 229.5607,210.9584 225.0474,211.4468 220.534,211.8828 216.0207,212.2655 211.5073,212.5923 206.994,212.8592 202.4806,213.0605 197.9673,213.1892 193.4539,213.2363 188.9406,213.1905 184.4272,213.0384 179.9139,212.763 175.4005,213.0284 170.8872,213.5518 166.3738,214.1763 161.8605,214.8073 157.3471,215.3963 152.8338,215.9305 148.3204,216.4101 143.8071,216.8339 139.2937,217.2001 134.7804,217.5059 130.267,217.7473 125.7537,217.9199 121.2403,218.0178 116.727,218.0345 112.2136,217.9625 107.7003,217.793 103.1869,217.5162 98.6736,217.1211 94.1602,216.5952 89.6469,215.9247 85.1335,215.0939 80.6202,215.0733 76.1068,215.4985 71.5935,216.1992 67.0801,217.0723 62.5668,218.0428 58.0534,219.052 53.5401,220.0583 49.0267,220.8816 44.5134,221.2787 40,221.6668"></polyline>
<text class = "party cs" x="631.1111" y="162"><tspan class="party_name">C's</tspan><tspan class="party_result"> (21.6±2.1%)</tspan></text>
<polyline id="media-pp"  class="pp media" points=" 40,258.4359 44.5134,258.3216 49.0267,258.2057 53.5401,258.0885 58.0534,257.9712 62.5668,257.8567 67.0801,257.7499 71.5935,257.6562 76.1068,257.5814 80.6202,257.5332 85.1335,257.5249 89.6469,257.5905 94.1602,257.6386 98.6736,257.6681 103.1869,257.6784 107.7003,257.6689 112.2136,257.6394 116.727,257.5895 121.2403,257.5191 125.7537,257.4281 130.267,257.3164 134.7804,257.1837 139.2937,257.0297 143.8071,256.8541 148.3204,256.6563 152.8338,256.4355 157.3471,256.1908 161.8605,255.921 166.3738,255.6344 170.8872,255.3637 175.4005,255.1718 179.9139,255.1643 184.4272,255.5519 188.9406,255.8821 193.4539,256.1583 197.9673,256.384 202.4806,256.5625 206.994,256.6971 211.5073,256.7906 216.0207,256.8461 220.534,256.8663 225.0474,256.8541 229.5607,256.8125 234.0741,256.7431 238.5874,256.6415 243.1008,256.4889 247.6141,256.2277 252.1275,255.9094 256.6408,255.5281 261.1542,255.0964 265.6675,254.6735 270.1809,254.3728 274.6942,254.3887 279.2076,255.1656 283.7209,255.8626 288.2343,256.4849 292.7476,257.0373 297.261,257.5241 301.7743,257.9487 306.2877,258.3145 310.801,258.6242 315.3144,258.8801 319.8277,259.0841 324.3411,259.2376 328.8544,259.3414 333.3678,259.3998 337.8811,259.4283 342.3945,259.4577 346.9078,259.5389 351.4212,259.752 355.9345,260.239 360.4479,260.6668 364.9612,261.0394 369.4746,261.3609 373.9879,261.6354 378.5013,261.8671 383.0146,262.0603 387.528,262.2097 392.0413,262.2835 396.5547,262.2109 401.068,261.84 405.5814,261.7556 410.0947,262.1414 414.6081,262.4647 419.1214,262.7262 423.6348,262.9279 428.1481,263.0758 432.6615,263.1824 437.1748,263.2456 441.6882,263.2663 446.2016,263.2555 450.7149,263.2442 455.2283,263.3075 459.7416,263.4205 464.255,263.7465 468.7683,264.6603 473.2817,265.5816 477.795,266.5033 482.3084,267.4187 486.8217,268.3217 491.3351,269.2064 495.8484,270.0674 500.3618,270.8999 504.8751,271.6996 509.3885,272.4625 513.9018,273.1893 518.4152,273.8979 522.9285,274.6279 527.4419,275.449 531.9552,276.1519 536.4686,276.6216 540.9819,277.2565 545.4953,278.0024 550.0086,278.6601 554.522,278.8099 559.0353,279.4097 563.5487,280.091 568.062,280.7095 572.5754,281.1022 577.0887,280.9593 581.6021,281.0027 586.1154,281.1593 590.6288,281.346 595.1421,281.558 599.6555,281.6938 604.1688,281.8799 608.6822,282.0733 613.1955,282.2126 617.7089,282.2574 622.2222,282.0396"></polyline>
<polyline id="error-pp" class="pp error" points=" 40,231.411 44.5134,231.8285 49.0267,232.2591 53.5401,232.9983 58.0534,233.8728 62.5668,234.7497 67.0801,235.5895 71.5935,236.3374 76.1068,236.9231 80.6202,237.2492 85.1335,237.151 89.6469,236.2626 94.1602,235.4999 98.6736,234.8527 103.1869,234.3112 107.7003,233.8667 112.2136,233.5111 116.727,233.237 121.2403,233.0374 125.7537,232.9064 130.267,232.8383 134.7804,232.8281 139.2937,232.8715 143.8071,232.9648 148.3204,233.1046 152.8338,233.2883 157.3471,233.514 161.8605,233.7803 166.3738,234.0812 170.8872,234.3965 175.4005,234.687 179.9139,234.8895 184.4272,234.9038 188.9406,234.9923 193.4539,235.1452 197.9673,235.3548 202.4806,235.6156 206.994,235.9232 211.5073,236.2749 216.0207,236.6694 220.534,237.1064 225.0474,237.587 229.5607,238.1141 234.0741,238.6638 238.5874,239.1416 243.1008,239.3552 247.6141,238.9208 252.1275,238.6046 256.6408,238.3865 261.1542,238.2528 265.6675,238.1933 270.1809,238.1962 274.6942,238.2486 279.2076,238.3744 283.7209,238.5649 288.2343,238.8073 292.7476,239.0916 297.261,239.4096 301.7743,239.755 306.2877,240.1222 310.801,240.5069 315.3144,240.9052 319.8277,241.3139 324.3411,241.7302 328.8544,242.1518 333.3678,242.576 337.8811,243 342.3945,243.4221 346.9078,243.8438 351.4212,244.2742 355.9345,244.7428 360.4479,245.2485 364.9612,245.7839 369.4746,246.344 373.9879,246.926 378.5013,247.5285 383.0146,248.1522 387.528,248.7739 392.0413,249.3081 396.5547,249.5866 401.068,249.2923 405.5814,249.2719 410.0947,249.6088 414.6081,250.0063 419.1214,250.4444 423.6348,250.8725 428.1481,251.1998 432.6615,251.2691 437.1748,251.4191 441.6882,251.6201 446.2016,251.8381 450.7149,252.034 455.2283,252.1606 459.7416,252.3501 464.255,252.6265 468.7683,253.0992 473.2817,253.6802 477.795,254.3559 482.3084,255.1139 486.8217,255.9433 491.3351,256.8338 495.8484,257.7762 500.3618,258.7618 504.8751,259.783 509.3885,260.8328 513.9018,261.9018 518.4152,262.9801 522.9285,264.0519 527.4419,265.0889 531.9552,266.0246 536.4686,266.6581 540.9819,267.5718 545.4953,268.6649 550.0086,269.593 554.522,269.6121 559.0353,270.2284 563.5487,271.0557 568.062,271.8471 572.5754,272.286 577.0887,271.7419 581.6021,271.5598 586.1154,271.5881 590.6288,271.6169 595.1421,271.7251 599.6555,271.6939 604.1688,271.7718 608.6822,271.8376 613.1955,271.6833 617.7089,271.3808 622.2222,270.596 622.2222,293.4832 617.7089,293.1339 613.1955,292.7418 608.6822,292.309 604.1688,291.988 599.6555,291.6937 595.1421,291.3909 590.6288,291.0751 586.1154,290.7304 581.6021,290.4455 577.0887,290.1767 572.5754,289.9185 568.062,289.5719 563.5487,289.1263 559.0353,288.591 554.522,288.0078 550.0086,287.7272 545.4953,287.3399 540.9819,286.9412 536.4686,286.5851 531.9552,286.2793 527.4419,285.8091 522.9285,285.2038 518.4152,284.8156 513.9018,284.4768 509.3885,284.0923 504.8751,283.6162 500.3618,283.038 495.8484,282.3586 491.3351,281.5789 486.8217,280.7001 482.3084,279.7235 477.795,278.6507 473.2817,277.4829 468.7683,276.2214 464.255,274.8666 459.7416,274.4909 455.2283,274.4545 450.7149,274.4544 446.2016,274.6729 441.6882,274.9125 437.1748,275.072 432.6615,275.0957 428.1481,274.9519 423.6348,274.9833 419.1214,275.0081 414.6081,274.9231 410.0947,274.6741 405.5814,274.2393 401.068,274.3876 396.5547,274.8352 392.0413,275.2589 387.528,275.6456 383.0146,275.9685 378.5013,276.2056 373.9879,276.3449 369.4746,276.3778 364.9612,276.2949 360.4479,276.0851 355.9345,275.7352 351.4212,275.2298 346.9078,275.2341 342.3945,275.4934 337.8811,275.8565 333.3678,276.2237 328.8544,276.531 324.3411,276.745 319.8277,276.8544 315.3144,276.8551 310.801,276.7416 306.2877,276.5068 301.7743,276.1425 297.261,275.6385 292.7476,274.9831 288.2343,274.1625 283.7209,273.1602 279.2076,271.9569 274.6942,270.5288 270.1809,270.5494 265.6675,271.1536 261.1542,271.9401 256.6408,272.6696 252.1275,273.2141 247.6141,273.5346 243.1008,273.6225 238.5874,274.1414 234.0741,274.8224 229.5607,275.5109 225.0474,276.1212 220.534,276.6263 216.0207,277.0228 211.5073,277.3063 206.994,277.471 202.4806,277.5095 197.9673,277.4131 193.4539,277.1714 188.9406,276.7719 184.4272,276.2001 179.9139,275.439 175.4005,275.6566 170.8872,276.3309 166.3738,277.1876 161.8605,278.0616 157.3471,278.8675 152.8338,279.5826 148.3204,280.208 143.8071,280.7435 139.2937,281.1879 134.7804,281.5393 130.267,281.7945 125.7537,281.9499 121.2403,282.0008 116.727,281.942 112.2136,281.7676 107.7003,281.4711 103.1869,281.0456 98.6736,280.4835 94.1602,279.7772 89.6469,278.9184 85.1335,277.8988 80.6202,277.8172 76.1068,278.2398 71.5935,278.975 67.0801,279.9104 62.5668,280.9638 58.0534,282.0695 53.5401,283.1788 49.0267,284.1523 44.5134,284.8147 40,285.4608"></polyline>
<text class = "party pp" x="631.1111" y="276"><tspan class="party_name">PP</tspan><tspan class="party_result"> (6.3±1.4%)</tspan></text>
<polyline id="media-otros"  class="otros media" points=" 40,310.1485 44.5134,310.1894 49.0267,310.2333 53.5401,310.2805 58.0534,310.3304 62.5668,310.3809 67.0801,310.4277 71.5935,310.4654 76.1068,310.4866 80.6202,310.4806 85.1335,310.4274 89.6469,310.2766 94.1602,310.1253 98.6736,309.974 103.1869,309.8234 107.7003,309.6735 112.2136,309.5245 116.727,309.3762 121.2403,309.2284 125.7537,309.0807 130.267,308.9326 134.7804,308.7833 139.2937,308.6322 143.8071,308.4782 148.3204,308.3203 152.8338,308.1572 157.3471,307.9874 161.8605,307.8092 166.3738,307.6275 170.8872,307.4641 175.4005,307.3631 179.9139,307.4008 184.4272,307.7337 188.9406,308.0421 193.4539,308.3295 197.9673,308.5994 202.4806,308.8549 206.994,309.0996 211.5073,309.3365 216.0207,309.5692 220.534,309.8012 225.0474,310.0361 229.5607,310.2783 234.0741,310.514 238.5874,310.6836 243.1008,310.664 247.6141,310.1937 252.1275,309.7707 256.6408,309.3873 261.1542,309.0418 265.6675,308.7432 270.1809,308.509 274.6942,308.3663 279.2076,308.3794 283.7209,308.3665 288.2343,308.3322 292.7476,308.28 297.261,308.2123 301.7743,308.1308 306.2877,308.0368 310.801,307.931 315.3144,307.8139 319.8277,307.6855 324.3411,307.5455 328.8544,307.3933 333.3678,307.231 337.8811,307.0677 342.3945,306.9219 346.9078,306.8224 351.4212,306.8134 355.9345,306.9715 360.4479,307.0854 364.9612,307.1583 369.4746,307.1927 373.9879,307.19 378.5013,307.1511 383.0146,307.0755 387.528,306.9766 392.0413,306.9045 396.5547,306.9603 401.068,307.3384 405.5814,307.6964 410.0947,308.1061 414.6081,308.4725 419.1214,308.7942 423.6348,309.0764 428.1481,309.34 432.6615,309.6368 437.1748,309.9173 441.6882,310.1914 446.2016,310.4908 450.7149,310.8705 455.2283,311.4215 459.7416,311.8722 464.255,312.1536 468.7683,312.124 473.2817,312.1411 477.795,312.1966 482.3084,312.2841 486.8217,312.3985 491.3351,312.5356 495.8484,312.6922 500.3618,312.8661 504.8751,313.0553 509.3885,313.2589 513.9018,313.4704 518.4152,313.6679 522.9285,313.8108 527.4419,313.8303 531.9552,313.9037 536.4686,314.0293 540.9819,314.2538 545.4953,314.5316 550.0086,314.6478 554.522,314.048 559.0353,313.658 563.5487,313.3616 568.062,313.1572 572.5754,313.0632 577.0887,313.1669 581.6021,313.2892 586.1154,313.5173 590.6288,314.0119 595.1421,314.4844 599.6555,314.8781 604.1688,315.2547 608.6822,315.4917 613.1955,315.3471 617.7089,315.1884 622.2222,314.8359"></polyline>
<polyline id="error-otros" class="otros error" points=" 40,288.6134 44.5134,289.1151 49.0267,289.63 53.5401,290.4098 58.0534,291.3048 62.5668,292.1964 67.0801,293.0431 71.5935,293.7889 76.1068,294.3633 80.6202,294.669 85.1335,294.5375 89.6469,293.5803 94.1602,292.7392 98.6736,292.0085 103.1869,291.3825 107.7003,290.8551 112.2136,290.4205 116.727,290.0731 121.2403,289.8071 125.7537,289.6172 130.267,289.4985 134.7804,289.4461 139.2937,289.4557 143.8071,289.5233 148.3204,289.6455 152.8338,289.8189 157.3471,290.041 161.8605,290.3094 166.3738,290.6168 170.8872,290.941 175.4005,291.2419 179.9139,291.4575 184.4272,291.4894 188.9406,291.6067 193.4539,291.8022 197.9673,292.0703 202.4806,292.4067 206.994,292.8087 211.5073,293.2746 216.0207,293.8039 220.534,294.3975 225.0474,295.0573 229.5607,295.7868 234.0741,296.5498 238.5874,297.2086 243.1008,297.4914 247.6141,296.8564 252.1275,296.4169 256.6408,296.1535 261.1542,296.0421 265.6675,296.0338 270.1809,296.0409 274.6942,295.9184 279.2076,295.3768 283.7209,294.9255 288.2343,294.5558 292.7476,294.26 297.261,294.0312 301.7743,293.8634 306.2877,293.7511 310.801,293.6891 315.3144,293.6728 319.8277,293.6982 324.3411,293.7613 328.8544,293.8587 333.3678,293.9866 337.8811,294.1392 342.3945,294.3076 346.9078,294.4804 351.4212,294.6433 355.9345,294.7804 360.4479,294.9518 364.9612,295.1516 369.4746,295.3747 373.9879,295.6168 378.5013,295.8739 383.0146,296.1423 387.528,296.4214 392.0413,296.721 396.5547,297.0692 401.068,297.54 405.5814,297.9713 410.0947,298.3526 414.6081,298.7903 419.1214,299.2656 423.6348,299.741 428.1481,300.1597 432.6615,300.4392 437.1748,300.8031 441.6882,301.2363 446.2016,301.7356 450.7149,302.3013 455.2283,302.9297 459.7416,303.4621 464.255,303.7106 468.7683,303.3042 473.2817,303.0251 477.795,302.8605 482.3084,302.8002 486.8217,302.8358 491.3351,302.9601 495.8484,303.167 500.3618,303.4512 504.8751,303.8085 509.3885,304.2352 513.9018,304.7162 518.4152,305.2053 522.9285,305.6134 527.4419,305.7872 531.9552,306.0347 536.4686,306.2874 540.9819,306.7331 545.4953,307.287 550.0086,307.6115 554.522,306.8727 559.0353,306.4621 563.5487,306.2535 568.062,306.1653 572.5754,306.0948 577.0887,305.8776 581.6021,305.8193 586.1154,305.9489 590.6288,306.3333 595.1421,306.7387 599.6555,307.012 604.1688,307.3144 608.6822,307.4538 613.1955,307.0558 617.7089,306.6004 622.2222,305.7652 622.2222,323.9065 617.7089,323.7764 613.1955,323.6385 608.6822,323.5296 604.1688,323.195 599.6555,322.7442 595.1421,322.23 590.6288,321.6906 586.1154,321.0858 581.6021,320.7591 577.0887,320.4562 572.5754,320.0315 568.062,320.1491 563.5487,320.4697 559.0353,320.8539 554.522,321.2232 550.0086,321.6841 545.4953,321.7761 540.9819,321.7746 536.4686,321.7711 531.9552,321.7727 527.4419,321.8735 522.9285,322.0081 518.4152,322.1305 513.9018,322.2245 509.3885,322.2826 504.8751,322.3021 500.3618,322.2809 495.8484,322.2175 491.3351,322.111 486.8217,321.9611 482.3084,321.768 477.795,321.5328 473.2817,321.2571 468.7683,320.9437 464.255,320.5965 459.7416,320.2823 455.2283,319.9132 450.7149,319.4397 446.2016,319.2461 441.6882,319.1464 437.1748,319.0315 432.6615,318.8343 428.1481,318.5202 423.6348,318.4118 419.1214,318.3228 414.6081,318.1547 410.0947,317.8595 405.5814,317.4214 401.068,317.1367 396.5547,316.8514 392.0413,317.088 387.528,317.5317 383.0146,318.0087 378.5013,318.4282 373.9879,318.7633 369.4746,319.0107 364.9612,319.165 360.4479,319.219 355.9345,319.1626 351.4212,318.9835 346.9078,319.1644 342.3945,319.5361 337.8811,319.9962 333.3678,320.4753 328.8544,320.9279 324.3411,321.3296 319.8277,321.6728 315.3144,321.955 310.801,322.173 306.2877,322.3225 301.7743,322.3981 297.261,322.3933 292.7476,322.3 288.2343,322.1087 283.7209,321.8075 279.2076,321.3819 274.6942,320.8142 270.1809,320.977 265.6675,321.4527 261.1542,322.0415 256.6408,322.6211 252.1275,323.1246 247.6141,323.5311 243.1008,323.8365 238.5874,324.1587 234.0741,324.4782 229.5607,324.7698 225.0474,325.015 220.534,325.2049 216.0207,325.3346 211.5073,325.3985 206.994,325.3904 202.4806,325.3032 197.9673,325.1284 193.4539,324.8568 188.9406,324.4775 184.4272,323.9781 179.9139,323.3442 175.4005,323.4843 170.8872,323.9872 166.3738,324.6382 161.8605,325.3091 157.3471,325.9339 152.8338,326.4955 148.3204,326.9952 143.8071,327.4332 139.2937,327.8088 134.7804,328.1206 130.267,328.3667 125.7537,328.5442 121.2403,328.6497 116.727,328.6793 112.2136,328.6284 107.7003,328.4919 103.1869,328.2643 98.6736,327.9396 94.1602,327.5113 89.6469,326.9729 85.1335,326.3173 80.6202,326.2923 76.1068,326.61 71.5935,327.1419 67.0801,327.8123 62.5668,328.5653 58.0534,329.3561 53.5401,330.1512 49.0267,330.8366 44.5134,331.2636 40,331.6835"></polyline>
<text class = "party otros" x="631.1111" y="318"><tspan class="party_name">Otros</tspan><tspan class="party_result"> (2.3±1.1%)</tspan></text>
<g id="encuesta-1">
<circle id="encuesta-1-cup" class="encuesta sociometrica cup" cx="622.2222" cy="288.8889" r="3.3166" ></circle>
<circle id="encuesta-1-erc" class="encuesta sociometrica erc" cx="622.2222" cy="151.5152" r="3.3166" ></circle>
<circle id="encuesta-1-jxcat" class="encuesta sociometrica jxcat" cx="622.2222" cy="173.3333" r="3.3166" ></circle>
<circle id="encuesta-1-cec" class="encuesta sociometrica cec" cx="622.2222" cy="273.5354" r="3.3166" ></circle>
<circle id="encuesta-1-psc" class="encuesta sociometrica psc" cx="622.2222" cy="216.9697" r="3.3166" ></circle>
<circle id="encuesta-1-cs" class="encuesta sociometrica cs" cx="622.2222" cy="159.596" r="3.3166" ></circle>
<circle id="encuesta-1-pp" class="encuesta sociometrica pp" cx="622.2222" cy="289.697" r="3.3166" ></circle>
<circle id="encuesta-1-otros" class="encuesta sociometrica otros" cx="622.2222" cy="305.0505" r="3.3166" ></circle>
</g>
<g id="encuesta-2">
<circle id="encuesta-2-cup" class="encuesta feedback cup" cx="617.7089" cy="275.9596" r="3" ></circle>
<circle id="encuesta-2-erc" class="encuesta feedback erc" cx="617.7089" cy="146.6667" r="3" ></circle>
<circle id="encuesta-2-jxcat" class="encuesta feedback jxcat" cx="617.7089" cy="195.9596" r="3" ></circle>
<circle id="encuesta-2-cec" class="encuesta feedback cec" cx="617.7089" cy="268.6869" r="3" ></circle>
<circle id="encuesta-2-psc" class="encuesta feedback psc" cx="617.7089" cy="209.697" r="3" ></circle>
<circle id="encuesta-2-cs" class="encuesta feedback cs" cx="617.7089" cy="147.4747" r="3" ></circle>
<circle id="encuesta-2-pp" class="encuesta feedback pp" cx="617.7089" cy="288.8889" r="3" ></circle>
<circle id="encuesta-2-otros" class="encuesta feedback otros" cx="617.7089" cy="325.2525" r="3" ></circle>
</g>
<g id="encuesta-3">
<circle id="encuesta-3-cup" class="encuesta feedback cup" cx="608.6822" cy="281.6162" r="3.1623" ></circle>
<circle id="encuesta-3-erc" class="encuesta feedback erc" cx="608.6822" cy="139.3939" r="3.1623" ></circle>
<circle id="encuesta-3-jxcat" class="encuesta feedback jxcat" cx="608.6822" cy="195.1515" r="3.1623" ></circle>
<circle id="encuesta-3-cec" class="encuesta feedback cec" cx="608.6822" cy="258.1818" r="3.1623" ></circle>
<circle id="encuesta-3-psc" class="encuesta feedback psc" cx="608.6822" cy="224.2424" r="3.1623" ></circle>
<circle id="encuesta-3-cs" class="encuesta feedback cs" cx="608.6822" cy="149.0909" r="3.1623" ></circle>
<circle id="encuesta-3-pp" class="encuesta feedback pp" cx="608.6822" cy="283.2323" r="3.1623" ></circle>
<circle id="encuesta-3-otros" class="encuesta feedback otros" cx="608.6822" cy="327.6768" r="3.1623" ></circle>
</g>
<g id="encuesta-4">
<circle id="encuesta-4-cup" class="encuesta gesop cup" cx="595.1421" cy="284.8485" r="2.8284" ></circle>
<circle id="encuesta-4-erc" class="encuesta gesop erc" cx="595.1421" cy="167.6768" r="2.8284" ></circle>
<circle id="encuesta-4-jxcat" class="encuesta gesop jxcat" cx="595.1421" cy="177.3737" r="2.8284" ></circle>
<circle id="encuesta-4-cec" class="encuesta gesop cec" cx="595.1421" cy="264.6465" r="2.8284" ></circle>
<circle id="encuesta-4-psc" class="encuesta gesop psc" cx="595.1421" cy="179.798" r="2.8284" ></circle>
<circle id="encuesta-4-cs" class="encuesta gesop cs" cx="595.1421" cy="179.798" r="2.8284" ></circle>
<circle id="encuesta-4-pp" class="encuesta gesop pp" cx="595.1421" cy="286.4646" r="2.8284" ></circle>
<circle id="encuesta-4-otros" class="encuesta gesop otros" cx="595.1421" cy="317.9798" r="2.8284" ></circle>
</g>
<g id="encuesta-5">
<circle id="encuesta-5-cup" class="encuesta sociometrica cup" cx="586.1154" cy="284.8485" r="2.8284" ></circle>
<circle id="encuesta-5-erc" class="encuesta sociometrica erc" cx="586.1154" cy="146.6667" r="2.8284" ></circle>
<circle id="encuesta-5-jxcat" class="encuesta sociometrica jxcat" cx="586.1154" cy="179.798" r="2.8284" ></circle>
<circle id="encuesta-5-cec" class="encuesta sociometrica cec" cx="586.1154" cy="281.6162" r="2.8284" ></circle>
<circle id="encuesta-5-psc" class="encuesta sociometrica psc" cx="586.1154" cy="210.5051" r="2.8284" ></circle>
<circle id="encuesta-5-cs" class="encuesta sociometrica cs" cx="586.1154" cy="167.6768" r="2.8284" ></circle>
<circle id="encuesta-5-pp" class="encuesta sociometrica pp" cx="586.1154" cy="283.2323" r="2.8284" ></circle>
<circle id="encuesta-5-otros" class="encuesta sociometrica otros" cx="586.1154" cy="304.2424" r="2.8284" ></circle>
</g>
<g id="encuesta-6">
<circle id="encuesta-6-cup" class="encuesta cis cup" cx="572.5754" cy="279.1919" r="5.4772" ></circle>
<circle id="encuesta-6-erc" class="encuesta cis erc" cx="572.5754" cy="165.2525" r="5.4772" ></circle>
<circle id="encuesta-6-jxcat" class="encuesta cis jxcat" cx="572.5754" cy="196.7677" r="5.4772" ></circle>
<circle id="encuesta-6-cec" class="encuesta cis cec" cx="572.5754" cy="263.8384" r="5.4772" ></circle>
<circle id="encuesta-6-psc" class="encuesta cis psc" cx="572.5754" cy="204.0404" r="5.4772" ></circle>
<circle id="encuesta-6-cs" class="encuesta cis cs" cx="572.5754" cy="151.5152" r="5.4772" ></circle>
<circle id="encuesta-6-pp" class="encuesta cis pp" cx="572.5754" cy="286.4646" r="5.4772" ></circle>
<circle id="encuesta-6-otros" class="encuesta cis otros" cx="572.5754" cy="311.5152" r="5.4772" ></circle>
</g>
<g id="encuesta-7">
<circle id="encuesta-7-cup" class="encuesta nc_report cup" cx="554.522" cy="287.2727" r="3.1623" ></circle>
<circle id="encuesta-7-erc" class="encuesta nc_report erc" cx="554.522" cy="138.5859" r="3.1623" ></circle>
<circle id="encuesta-7-jxcat" class="encuesta nc_report jxcat" cx="554.522" cy="223.4343" r="3.1623" ></circle>
<circle id="encuesta-7-cec" class="encuesta nc_report cec" cx="554.522" cy="265.4545" r="3.1623" ></circle>
<circle id="encuesta-7-psc" class="encuesta nc_report psc" cx="554.522" cy="214.5455" r="3.1623" ></circle>
<circle id="encuesta-7-cs" class="encuesta nc_report cs" cx="554.522" cy="164.4444" r="3.1623" ></circle>
<circle id="encuesta-7-pp" class="encuesta nc_report pp" cx="554.522" cy="258.1818" r="3.1623" ></circle>
<circle id="encuesta-7-otros" class="encuesta nc_report otros" cx="554.522" cy="306.6667" r="3.1623" ></circle>
</g>
<g id="encuesta-8">
<circle id="encuesta-8-cup" class="encuesta metroscopica cup" cx="550.0086" cy="285.6566" r="4.2426" ></circle>
<circle id="encuesta-8-erc" class="encuesta metroscopica erc" cx="550.0086" cy="119.1919" r="4.2426" ></circle>
<circle id="encuesta-8-jxcat" class="encuesta metroscopica jxcat" cx="550.0086" cy="223.4343" r="4.2426" ></circle>
<circle id="encuesta-8-cec" class="encuesta metroscopica cec" cx="550.0086" cy="279.1919" r="4.2426" ></circle>
<circle id="encuesta-8-psc" class="encuesta metroscopica psc" cx="550.0086" cy="212.9293" r="4.2426" ></circle>
<circle id="encuesta-8-cs" class="encuesta metroscopica cs" cx="550.0086" cy="128.8889" r="4.2426" ></circle>
<circle id="encuesta-8-pp" class="encuesta metroscopica pp" cx="550.0086" cy="286.4646" r="4.2426" ></circle>
<circle id="encuesta-8-otros" class="encuesta metroscopica otros" cx="550.0086" cy="322.8283" r="4.2426" ></circle>
</g>
<g id="encuesta-9">
<circle id="encuesta-9-cup" class="encuesta gesop cup" cx="531.9552" cy="282.4242" r="2.8284" ></circle>
<circle id="encuesta-9-erc" class="encuesta gesop erc" cx="531.9552" cy="140.202" r="2.8284" ></circle>
<circle id="encuesta-9-jxcat" class="encuesta gesop jxcat" cx="531.9552" cy="200" r="2.8284" ></circle>
<circle id="encuesta-9-cec" class="encuesta gesop cec" cx="531.9552" cy="263.8384" r="2.8284" ></circle>
<circle id="encuesta-9-psc" class="encuesta gesop psc" cx="531.9552" cy="187.0707" r="2.8284" ></circle>
<circle id="encuesta-9-cs" class="encuesta gesop cs" cx="531.9552" cy="183.0303" r="2.8284" ></circle>
<circle id="encuesta-9-pp" class="encuesta gesop pp" cx="531.9552" cy="287.2727" r="2.8284" ></circle>
<circle id="encuesta-9-otros" class="encuesta gesop otros" cx="531.9552" cy="314.7475" r="2.8284" ></circle>
</g>
<g id="encuesta-10">
<circle id="encuesta-10-cup" class="encuesta gad3 cup" cx="522.9285" cy="288.0808" r="2.8302" ></circle>
<circle id="encuesta-10-erc" class="encuesta gad3 erc" cx="522.9285" cy="146.6667" r="2.8302" ></circle>
<circle id="encuesta-10-jxcat" class="encuesta gad3 jxcat" cx="522.9285" cy="198.3838" r="2.8302" ></circle>
<circle id="encuesta-10-cec" class="encuesta gad3 cec" cx="522.9285" cy="271.9192" r="2.8302" ></circle>
<circle id="encuesta-10-psc" class="encuesta gad3 psc" cx="522.9285" cy="211.3131" r="2.8302" ></circle>
<circle id="encuesta-10-cs" class="encuesta gad3 cs" cx="522.9285" cy="153.1313" r="2.8302" ></circle>
<circle id="encuesta-10-pp" class="encuesta gad3 pp" cx="522.9285" cy="270.303" r="2.8302" ></circle>
<circle id="encuesta-10-otros" class="encuesta gad3 otros" cx="522.9285" cy="318.7879" r="2.8302" ></circle>
</g>
<g id="encuesta-11">
<circle id="encuesta-11-cup" class="encuesta nc_report cup" cx="464.255" cy="282.4242" r="3.1623" ></circle>
<circle id="encuesta-11-erc" class="encuesta nc_report erc" cx="464.255" cy="120.8081" r="3.1623" ></circle>
<circle id="encuesta-11-jxcat" class="encuesta nc_report jxcat" cx="464.255" cy="246.8687" r="3.1623" ></circle>
<circle id="encuesta-11-cec" class="encuesta nc_report cec" cx="464.255" cy="249.2929" r="3.1623" ></circle>
<circle id="encuesta-11-psc" class="encuesta nc_report psc" cx="464.255" cy="223.4343" r="3.1623" ></circle>
<circle id="encuesta-11-cs" class="encuesta nc_report cs" cx="464.255" cy="174.9495" r="3.1623" ></circle>
<circle id="encuesta-11-pp" class="encuesta nc_report pp" cx="464.255" cy="248.4848" r="3.1623" ></circle>
<circle id="encuesta-11-otros" class="encuesta nc_report otros" cx="464.255" cy="312.3232" r="3.1623" ></circle>
</g>
<g id="encuesta-12">
<circle id="encuesta-12-cup" class="encuesta gad3 cup" cx="464.255" cy="282.4242" r="3.5114" ></circle>
<circle id="encuesta-12-erc" class="encuesta gad3 erc" cx="464.255" cy="96.5657" r="3.5114" ></circle>
<circle id="encuesta-12-jxcat" class="encuesta gad3 jxcat" cx="464.255" cy="249.2929" r="3.5114" ></circle>
<circle id="encuesta-12-cec" class="encuesta gad3 cec" cx="464.255" cy="266.2626" r="3.5114" ></circle>
<circle id="encuesta-12-psc" class="encuesta gad3 psc" cx="464.255" cy="215.3535" r="3.5114" ></circle>
<circle id="encuesta-12-cs" class="encuesta gad3 cs" cx="464.255" cy="166.8687" r="3.5114" ></circle>
<circle id="encuesta-12-pp" class="encuesta gad3 pp" cx="464.255" cy="263.0303" r="3.5114" ></circle>
<circle id="encuesta-12-otros" class="encuesta gad3 otros" cx="464.255" cy="318.7879" r="3.5114" ></circle>
</g>
<g id="encuesta-13">
<circle id="encuesta-13-cup" class="encuesta sociometrica cup" cx="450.7149" cy="287.2727" r="3.1623" ></circle>
<circle id="encuesta-13-erc" class="encuesta sociometrica erc" cx="450.7149" cy="81.2121" r="3.1623" ></circle>
<circle id="encuesta-13-jxcat" class="encuesta sociometrica jxcat" cx="450.7149" cy="251.7172" r="3.1623" ></circle>
<circle id="encuesta-13-cec" class="encuesta sociometrica cec" cx="450.7149" cy="252.5253" r="3.1623" ></circle>
<circle id="encuesta-13-psc" class="encuesta sociometrica psc" cx="450.7149" cy="234.7475" r="3.1623" ></circle>
<circle id="encuesta-13-cs" class="encuesta sociometrica cs" cx="450.7149" cy="185.4545" r="3.1623" ></circle>
<circle id="encuesta-13-pp" class="encuesta sociometrica pp" cx="450.7149" cy="260.6061" r="3.1623" ></circle>
<circle id="encuesta-13-otros" class="encuesta sociometrica otros" cx="450.7149" cy="305.0505" r="3.1623" ></circle>
</g>
<g id="encuesta-14">
<circle id="encuesta-14-cup" class="encuesta sigmados cup" cx="428.1481" cy="282.4242" r="3.1623" ></circle>
<circle id="encuesta-14-erc" class="encuesta sigmados erc" cx="428.1481" cy="120" r="3.1623" ></circle>
<circle id="encuesta-14-jxcat" class="encuesta sigmados jxcat" cx="428.1481" cy="254.1414" r="3.1623" ></circle>
<circle id="encuesta-14-cec" class="encuesta sigmados cec" cx="428.1481" cy="244.4444" r="3.1623" ></circle>
<circle id="encuesta-14-psc" class="encuesta sigmados psc" cx="428.1481" cy="211.3131" r="3.1623" ></circle>
<circle id="encuesta-14-cs" class="encuesta sigmados cs" cx="428.1481" cy="174.9495" r="3.1623" ></circle>
<circle id="encuesta-14-pp" class="encuesta sigmados pp" cx="428.1481" cy="263.0303" r="3.1623" ></circle>
<circle id="encuesta-14-otros" class="encuesta sigmados otros" cx="428.1481" cy="308.2828" r="3.1623" ></circle>
</g>
<g id="encuesta-15">
<circle id="encuesta-15-cup" class="encuesta nc_report cup" cx="405.5814" cy="288.0808" r="3.1623" ></circle>
<circle id="encuesta-15-erc" class="encuesta nc_report erc" cx="405.5814" cy="134.5455" r="3.1623" ></circle>
<circle id="encuesta-15-jxcat" class="encuesta nc_report jxcat" cx="405.5814" cy="235.5556" r="3.1623" ></circle>
<circle id="encuesta-15-cec" class="encuesta nc_report cec" cx="405.5814" cy="241.2121" r="3.1623" ></circle>
<circle id="encuesta-15-psc" class="encuesta nc_report psc" cx="405.5814" cy="227.4747" r="3.1623" ></circle>
<circle id="encuesta-15-cs" class="encuesta nc_report cs" cx="405.5814" cy="178.1818" r="3.1623" ></circle>
<circle id="encuesta-15-pp" class="encuesta nc_report pp" cx="405.5814" cy="248.4848" r="3.1623" ></circle>
<circle id="encuesta-15-otros" class="encuesta nc_report otros" cx="405.5814" cy="305.0505" r="3.1623" ></circle>
</g>
<g id="encuesta-16">
<circle id="encuesta-16-cup" class="encuesta gesop cup" cx="396.5547" cy="270.303" r="2.8284" ></circle>
<circle id="encuesta-16-erc" class="encuesta gesop erc" cx="396.5547" cy="106.2626" r="2.8284" ></circle>
<circle id="encuesta-16-jxcat" class="encuesta gesop jxcat" cx="396.5547" cy="236.3636" r="2.8284" ></circle>
<circle id="encuesta-16-cec" class="encuesta gesop cec" cx="396.5547" cy="260.6061" r="2.8284" ></circle>
<circle id="encuesta-16-psc" class="encuesta gesop psc" cx="396.5547" cy="216.1616" r="2.8284" ></circle>
<circle id="encuesta-16-cs" class="encuesta gesop cs" cx="396.5547" cy="197.5758" r="2.8284" ></circle>
<circle id="encuesta-16-pp" class="encuesta gesop pp" cx="396.5547" cy="272.7273" r="2.8284" ></circle>
<circle id="encuesta-16-otros" class="encuesta gesop otros" cx="396.5547" cy="298.5859" r="2.8284" ></circle>
</g>
<g id="encuesta-17">
<circle id="encuesta-17-cup" class="encuesta sociometrica cup" cx="351.4212" cy="282.4242" r="2.8284" ></circle>
<circle id="encuesta-17-erc" class="encuesta sociometrica erc" cx="351.4212" cy="76.3636" r="2.8284" ></circle>
<circle id="encuesta-17-jxcat" class="encuesta sociometrica jxcat" cx="351.4212" cy="267.8788" r="2.8284" ></circle>
<circle id="encuesta-17-cec" class="encuesta sociometrica cec" cx="351.4212" cy="236.3636" r="2.8284" ></circle>
<circle id="encuesta-17-psc" class="encuesta sociometrica psc" cx="351.4212" cy="256.5657" r="2.8284" ></circle>
<circle id="encuesta-17-cs" class="encuesta sociometrica cs" cx="351.4212" cy="185.4545" r="2.8284" ></circle>
<circle id="encuesta-17-pp" class="encuesta sociometrica pp" cx="351.4212" cy="251.7172" r="2.8284" ></circle>
<circle id="encuesta-17-otros" class="encuesta sociometrica otros" cx="351.4212" cy="301.8182" r="2.8284" ></circle>
</g>
<g id="encuesta-18">
<circle id="encuesta-18-cup" class="encuesta nc_report cup" cx="274.6942" cy="288.0808" r="3.5426" ></circle>
<circle id="encuesta-18-erc" class="encuesta nc_report erc" cx="274.6942" cy="130.5051" r="3.5426" ></circle>
<circle id="encuesta-18-jxcat" class="encuesta nc_report jxcat" cx="274.6942" cy="230.7071" r="3.5426" ></circle>
<circle id="encuesta-18-cec" class="encuesta nc_report cec" cx="274.6942" cy="239.596" r="3.5426" ></circle>
<circle id="encuesta-18-psc" class="encuesta nc_report psc" cx="274.6942" cy="222.6263" r="3.5426" ></circle>
<circle id="encuesta-18-cs" class="encuesta nc_report cs" cx="274.6942" cy="194.3434" r="3.5426" ></circle>
<circle id="encuesta-18-pp" class="encuesta nc_report pp" cx="274.6942" cy="246.0606" r="3.5426" ></circle>
<circle id="encuesta-18-otros" class="encuesta nc_report otros" cx="274.6942" cy="306.6667" r="3.5426" ></circle>
</g>
<g id="encuesta-19">
<circle id="encuesta-19-cup" class="encuesta celeste-tel cup" cx="243.1008" cy="285.6566" r="2.8284" ></circle>
<circle id="encuesta-19-erc" class="encuesta celeste-tel erc" cx="243.1008" cy="133.7374" r="2.8284" ></circle>
<circle id="encuesta-19-jxcat" class="encuesta celeste-tel jxcat" cx="243.1008" cy="223.4343" r="2.8284" ></circle>
<circle id="encuesta-19-cec" class="encuesta celeste-tel cec" cx="243.1008" cy="234.7475" r="2.8284" ></circle>
<circle id="encuesta-19-psc" class="encuesta celeste-tel psc" cx="243.1008" cy="213.7374" r="2.8284" ></circle>
<circle id="encuesta-19-cs" class="encuesta celeste-tel cs" cx="243.1008" cy="192.7273" r="2.8284" ></circle>
<circle id="encuesta-19-pp" class="encuesta celeste-tel pp" cx="243.1008" cy="257.3737" r="2.8284" ></circle>
<circle id="encuesta-19-otros" class="encuesta celeste-tel otros" cx="243.1008" cy="317.1717" r="2.8284" ></circle>
</g>
<g id="encuesta-20">
<circle id="encuesta-20-cup" class="encuesta sociometrica cup" cx="179.9139" cy="278.3838" r="2.6458" ></circle>
<circle id="encuesta-20-erc" class="encuesta sociometrica erc" cx="179.9139" cy="107.0707" r="2.6458" ></circle>
<circle id="encuesta-20-jxcat" class="encuesta sociometrica jxcat" cx="179.9139" cy="230.7071" r="2.6458" ></circle>
<circle id="encuesta-20-cec" class="encuesta sociometrica cec" cx="179.9139" cy="249.2929" r="2.6458" ></circle>
<circle id="encuesta-20-psc" class="encuesta sociometrica psc" cx="179.9139" cy="251.7172" r="2.6458" ></circle>
<circle id="encuesta-20-cs" class="encuesta sociometrica cs" cx="179.9139" cy="190.303" r="2.6458" ></circle>
<circle id="encuesta-20-pp" class="encuesta sociometrica pp" cx="179.9139" cy="248.4848" r="2.6458" ></circle>
<circle id="encuesta-20-otros" class="encuesta sociometrica otros" cx="179.9139" cy="302.6263" r="2.6458" ></circle>
</g>
<g id="encuesta-21">
<circle id="encuesta-21-cup" class="encuesta nc_report cup" cx="85.1335" cy="280.8081" r="3.5426" ></circle>
<circle id="encuesta-21-erc" class="encuesta nc_report erc" cx="85.1335" cy="140.202" r="3.5426" ></circle>
<circle id="encuesta-21-jxcat" class="encuesta nc_report jxcat" cx="85.1335" cy="221.0101" r="3.5426" ></circle>
<circle id="encuesta-21-cec" class="encuesta nc_report cec" cx="85.1335" cy="235.5556" r="3.5426" ></circle>
<circle id="encuesta-21-psc" class="encuesta nc_report psc" cx="85.1335" cy="221.0101" r="3.5426" ></circle>
<circle id="encuesta-21-cs" class="encuesta nc_report cs" cx="85.1335" cy="191.9192" r="3.5426" ></circle>
<circle id="encuesta-21-pp" class="encuesta nc_report pp" cx="85.1335" cy="256.5657" r="3.5426" ></circle>
<circle id="encuesta-21-otros" class="encuesta nc_report otros" cx="85.1335" cy="311.5152" r="3.5426" ></circle>
</g>
  
<text class="pie izquierda" x="0" y="390">Datos: Electograph | Modelo propio</text>
<text class="pie derecha" x="800" y="390">Jesús Carro | <tspan style="font-weight:bold">1datomas</tspan>.com</text>
</svg>
