<?xml version="1.0" encoding="utf-8"?><!DOCTYPE svg PUBLIC "-//W3C//DTD SVG 1.1//EN" "http://www.w3.org/Graphics/SVG/1.1/DTD/svg11.dtd">
<svg xmlns="http://www.w3.org/2000/svg" xmlns:xlink="http://www.w3.org/1999/xlink" version="1.1" viewBox="0 0 800 400">

<text x="0" y="20" style="font-size:large;font-weight:bold;color:black">Intención de voto en Elecciones Autonómicas en Cataluña</text>
<text x="0" y="40" style="color:gray">Promedio de encuestas y estimación de error</text>

<text class="horizontal axis" x="36" y="333.3333">0%</text>
<line class="horizontal axis" x1="40" y1="333.3333" x2="622.2222" y2="333.3333"></line>
<text class="horizontal axis" x="36" y="252.5253">10%</text>
<line class="horizontal axis" x1="40" y1="252.5253" x2="622.2222" y2="252.5253"></line>
<text class="horizontal axis" x="36" y="171.7172">20%</text>
<line class="horizontal axis" x1="40" y1="171.7172" x2="622.2222" y2="171.7172"></line>
<text class="horizontal axis" x="36" y="90.9091">30%</text>
<line class="horizontal axis" x1="40" y1="90.9091" x2="622.2222" y2="90.9091"></line>
<line class="vertical axis" x1="40" y1="336.6667" x2="40" y2="66.6667"></line>
<text class="vertical axis" x="40" y="343.3333">Ago-2017</text>
<line class="vertical axis" x1="167.1049" y1="336.6667" x2="167.1049" y2="66.6667"></line>
<text class="vertical axis" x="167.1049" y="343.3333">Sep-2017</text>
<line class="vertical axis" x1="290.1095" y1="336.6667" x2="290.1095" y2="66.6667"></line>
<text class="vertical axis" x="290.1095" y="343.3333">Oct-2017</text>
<line class="vertical axis" x1="417.2144" y1="336.6667" x2="417.2144" y2="66.6667"></line>
<text class="vertical axis" x="417.2144" y="343.3333">Nov-2017</text>
<line class="vertical axis" x1="540.2191" y1="336.6667" x2="540.2191" y2="66.6667"></line>
<text class="vertical axis" x="540.2191" y="343.3333">Dic-2017</text>
<polyline id="media-cup"  class="cup media" points=" 40,281.8466 44.1002,281.7999 48.2003,281.7505 52.3005,281.6983 56.4006,281.6463 60.5008,281.604 64.6009,281.5808 68.7011,281.5882 72.8013,281.626 76.9014,281.6822 81.0016,281.7467 85.1017,281.8092 89.2019,281.8663 93.302,281.9177 97.4022,281.9631 101.5023,282.0022 105.6025,282.0349 109.7027,282.061 113.8028,282.0802 117.903,282.0924 122.0031,282.0972 126.1033,282.0943 130.2034,282.0834 134.3036,282.0638 138.4038,282.035 142.5039,281.9962 146.6041,281.9463 150.7042,281.8842 154.8044,281.8375 158.9045,281.8508 163.0047,281.9856 167.1049,282.1833 171.205,282.3994 175.3052,282.6054 179.4053,282.8022 183.5055,282.9911 187.6056,283.173 191.7058,283.349 195.8059,283.5202 199.9061,283.6877 204.0063,283.8523 208.1064,284.0152 212.2066,284.1771 216.3067,284.3272 220.4069,284.4282 224.507,284.4969 228.6072,284.5811 232.7074,284.6909 236.8075,284.8264 240.9077,284.9487 245.0078,284.9995 249.108,284.8984 253.2081,284.72 257.3083,284.5202 261.4085,284.3381 265.5086,284.1721 269.6088,284.0204 273.7089,283.8815 277.8091,283.7542 281.9092,283.6369 286.0094,283.5285 290.1095,283.4279 294.2097,283.3339 298.3099,283.2457 302.41,283.1623 306.5102,283.0843 310.6103,283.0158 314.7105,282.96 318.8106,282.9124 322.9108,282.8642 327.011,282.8108 331.1111,282.7507 335.2113,282.6835 339.3114,282.6083 343.4116,282.5238 347.5117,282.4279 351.6119,282.3182 355.7121,282.2382 359.8122,282.3642 363.9124,282.6224 368.0125,282.7974 372.1127,282.9062 376.2128,282.994 380.313,283.0711 384.4131,283.1415 388.5133,283.2248 392.6135,283.3266 396.7136,283.431 400.8138,283.5167 404.9139,283.5574 409.0141,283.5203 413.1142,283.4561 417.2144,283.407 421.3146,283.406 425.4147,283.4305 429.5149,283.4651 433.615,283.5001 437.7152,283.5358 441.8153,283.5727 445.9155,283.6108 450.0156,283.6507 454.1158,283.6927 458.216,283.7373 462.3161,283.7853 466.4163,283.8373 470.5164,283.8797 474.6166,283.8597 478.7167,283.7862 482.8169,283.7237 486.9171,283.6756 491.0172,283.622 495.1174,283.5686 499.2175,283.4778 503.3177,283.2669 507.4178,283.0085 511.518,282.7884 515.6182,282.661 519.7183,282.697 523.8185,282.8007 527.9186,282.9069 532.0188,282.966 536.1189,282.9812 540.2191,282.9558 544.3192,282.8999 548.4194,282.8395 552.5196,282.8075 556.6197,282.8124 560.7199,282.7831 564.82,282.6824 568.9202,282.5903 573.0203,282.5465 577.1205,282.5604 581.2207,282.6133 585.3208,282.7045 589.421,282.8237 593.5211,282.8663 597.6213,282.8706 601.7214,282.8759 605.8216,282.8819 609.9218,282.8884 614.0219,282.8953 618.1221,282.9023 622.2222,282.9095"></polyline>
<polyline id="error-cup" class="cup error" points=" 40,260.9175 44.1002,261.609 48.2003,262.326 52.3005,263.0711 56.4006,263.8158 60.5008,264.4572 64.6009,264.8897 68.7011,264.99 72.8013,264.7757 76.9014,264.3956 81.0016,263.967 85.1017,263.5898 89.2019,263.2877 93.302,263.0559 97.4022,262.8895 101.5023,262.7842 105.6025,262.7357 109.7027,262.7399 113.8028,262.7933 117.903,262.8925 122.0031,263.0345 126.1033,263.2167 130.2034,263.4369 134.3036,263.6931 138.4038,263.9837 142.5039,264.3076 146.6041,264.6639 150.7042,265.0523 154.8044,265.4271 158.9045,265.7215 163.0047,265.8583 167.1049,265.947 171.205,266.0608 175.3052,266.2361 179.4053,266.4685 183.5055,266.7547 187.6056,267.0922 191.7058,267.4791 195.8059,267.9145 199.9061,268.3982 204.0063,268.9306 208.1064,269.5132 212.2066,270.1485 216.3067,270.7619 220.4069,271.0771 224.507,271.1491 228.6072,271.2875 232.7074,271.5577 236.8075,271.9555 240.9077,272.3512 245.0078,272.5485 249.108,272.2836 253.2081,271.8062 257.3083,271.3021 261.4085,270.8919 265.5086,270.5672 269.6088,270.32 273.7089,270.1434 277.8091,270.0313 281.9092,269.9781 286.0094,269.9791 290.1095,270.0301 294.2097,270.1278 298.3099,270.2695 302.41,270.4529 306.5102,270.6636 310.6103,270.8497 314.7105,270.9466 318.8106,270.962 322.9108,270.9669 327.011,271.0073 331.1111,271.0902 335.2113,271.2111 339.3114,271.3659 343.4116,271.551 347.5117,271.7631 351.6119,271.9989 355.7121,272.2665 359.8122,272.6146 363.9124,272.937 368.0125,273.1199 372.1127,273.2592 376.2128,273.4386 380.313,273.6749 384.4131,273.9406 388.5133,274.1417 392.6135,274.2948 396.7136,274.4989 400.8138,274.732 404.9139,274.9277 409.0141,275.0114 413.1142,275.0439 417.2144,275.0302 421.3146,274.9204 425.4147,274.7798 429.5149,274.6615 433.615,274.5978 437.7152,274.5858 441.8153,274.6222 445.9155,274.7043 450.0156,274.8296 454.1158,274.9959 458.216,275.2016 462.3161,275.4454 466.4163,275.7269 470.5164,276.0153 474.6166,276.2049 478.7167,276.3028 482.8169,276.3833 486.9171,276.4654 491.0172,276.5734 495.1174,276.7324 499.2175,276.8368 503.3177,276.6915 507.4178,276.5199 511.518,276.4366 515.6182,276.4292 519.7183,276.4896 523.8185,276.607 527.9186,276.7636 532.0188,276.9072 536.1189,277.0259 540.2191,277.1159 544.3192,277.1751 548.4194,277.2246 552.5196,277.2704 556.6197,277.3092 560.7199,277.2479 564.82,277.0651 568.9202,276.8697 573.0203,276.696 577.1205,276.5519 581.2207,276.4486 585.3208,276.3679 589.421,276.1939 593.5211,275.8519 597.6213,275.4606 601.7214,275.0805 605.8216,274.7093 609.9218,274.3451 614.0219,273.9866 618.1221,273.6328 622.2222,273.2829 622.2222,292.5361 618.1221,292.1718 614.0219,291.8039 609.9218,291.4317 605.8216,291.0545 601.7214,290.6712 597.6213,290.2805 593.5211,289.8807 589.421,289.4535 585.3208,289.0411 581.2207,288.7779 577.1205,288.5688 573.0203,288.397 568.9202,288.311 564.82,288.2998 560.7199,288.3183 556.6197,288.3156 552.5196,288.3446 548.4194,288.4544 544.3192,288.6247 540.2191,288.7957 536.1189,288.9365 532.0188,289.0247 527.9186,289.0503 523.8185,288.9945 519.7183,288.9044 515.6182,288.8928 511.518,289.1401 507.4178,289.497 503.3177,289.8423 499.2175,290.1189 495.1174,290.4048 491.0172,290.6706 486.9171,290.8857 482.8169,291.0641 478.7167,291.2696 474.6166,291.5146 470.5164,291.744 466.4163,291.9478 462.3161,292.1251 458.216,292.2731 454.1158,292.3896 450.0156,292.4719 445.9155,292.5174 441.8153,292.5231 437.7152,292.4859 433.615,292.4023 429.5149,292.2687 425.4147,292.0812 421.3146,291.8917 417.2144,291.7839 413.1142,291.8684 409.0141,292.0293 404.9139,292.187 400.8138,292.3015 396.7136,292.3631 392.6135,292.3584 388.5133,292.308 384.4131,292.3424 380.313,292.4673 376.2128,292.5495 372.1127,292.5532 368.0125,292.4749 363.9124,292.3077 359.8122,292.1139 355.7121,292.2099 351.6119,292.6375 347.5117,293.0927 343.4116,293.4965 339.3114,293.8508 335.2113,294.156 331.1111,294.4112 327.011,294.6142 322.9108,294.7615 318.8106,294.8627 314.7105,294.9734 310.6103,295.182 306.5102,295.5051 302.41,295.8716 298.3099,296.2219 294.2097,296.54 290.1095,296.8256 286.0094,297.0779 281.9092,297.2957 277.8091,297.477 273.7089,297.6196 269.6088,297.7207 265.5086,297.7769 261.4085,297.7844 257.3083,297.7384 253.2081,297.6337 249.108,297.5132 245.0078,297.4504 240.9077,297.5461 236.8075,297.6973 232.7074,297.8241 228.6072,297.8748 224.507,297.8446 220.4069,297.7794 216.3067,297.8925 212.2066,298.2058 208.1064,298.5171 204.0063,298.7741 199.9061,298.9772 195.8059,299.126 191.7058,299.2189 187.6056,299.2538 183.5055,299.2274 179.4053,299.136 175.3052,298.9746 171.205,298.7379 167.1049,298.4196 163.0047,298.1129 158.9045,297.9801 154.8044,298.2479 150.7042,298.7161 146.6041,299.2286 142.5039,299.6847 138.4038,300.0863 134.3036,300.4345 130.2034,300.7299 126.1033,300.9719 122.0031,301.1599 117.903,301.2923 113.8028,301.3672 109.7027,301.3821 105.6025,301.3342 101.5023,301.2202 97.4022,301.0366 93.302,300.7795 89.2019,300.4449 85.1017,300.0285 81.0016,299.5264 76.9014,298.9688 72.8013,298.4762 68.7011,298.1864 64.6009,298.272 60.5008,298.7508 56.4006,299.4768 52.3005,300.3256 48.2003,301.175 44.1002,301.9907 40,302.7758"></polyline>
<text class = "party cup" x="631.1111" y="278"><tspan class="party_name">CUP</tspan><tspan class="party_result"> (6.2±1.2%)</tspan></text>
<polyline id="media-erc"  class="erc media" points=" 40,135.0272 44.1002,135.1685 48.2003,135.3274 52.3005,135.5057 56.4006,135.6892 60.5008,135.8258 64.6009,135.8595 68.7011,135.7172 72.8013,135.3873 76.9014,134.9273 81.0016,134.3899 85.1017,133.8328 89.2019,133.2751 93.302,132.7178 97.4022,132.1612 101.5023,131.6053 105.6025,131.0495 109.7027,130.4929 113.8028,129.9343 117.903,129.3721 122.0031,128.8044 126.1033,128.2288 130.2034,127.6428 134.3036,127.0433 138.4038,126.4269 142.5039,125.7896 146.6041,125.1269 150.7042,124.4336 154.8044,123.8451 158.9045,123.5665 163.0047,123.865 167.1049,124.4385 171.205,125.0708 175.3052,125.6324 179.4053,126.1313 183.5055,126.5748 187.6056,126.97 191.7058,127.3237 195.8059,127.6425 199.9061,127.9327 204.0063,128.2008 208.1064,128.4531 212.2066,128.6963 216.3067,128.8947 220.4069,128.897 224.507,128.7215 228.6072,128.5358 232.7074,128.3804 236.8075,128.2559 240.9077,128.1351 245.0078,127.9654 249.108,127.6586 253.2081,127.2521 257.3083,126.7837 261.4085,126.2881 265.5086,125.7634 269.6088,125.2071 273.7089,124.6161 277.8091,123.9869 281.9092,123.3153 286.0094,122.5962 290.1095,121.8237 294.2097,120.9906 298.3099,120.088 302.41,119.1053 306.5102,118.1218 310.6103,117.4698 314.7105,117.5752 318.8106,118.3888 322.9108,119.4287 327.011,120.3649 331.1111,121.131 335.2113,121.7441 339.3114,122.2187 343.4116,122.5669 347.5117,122.7986 351.6119,122.9217 355.7121,123.0013 359.8122,123.2746 363.9124,123.6169 368.0125,123.7232 372.1127,123.6436 376.2128,123.4601 380.313,123.1888 384.4131,122.8436 388.5133,122.4748 392.6135,122.0399 396.7136,121.4513 400.8138,120.8646 404.9139,120.558 409.0141,120.8659 413.1142,121.4814 417.2144,122.3628 421.3146,123.7764 425.4147,125.5037 429.5149,127.3227 433.615,129.0519 437.7152,130.685 441.8153,132.2178 445.9155,133.6473 450.0156,134.9721 454.1158,136.1918 458.216,137.3066 462.3161,138.3175 466.4163,139.2256 470.5164,140.0112 474.6166,140.6096 478.7167,141.0582 482.8169,141.4523 486.9171,141.8043 491.0172,142.0779 495.1174,142.2183 499.2175,142.6729 503.3177,144.3092 507.4178,146.2951 511.518,147.9635 515.6182,149.0993 519.7183,149.4338 523.8185,149.4574 527.9186,149.4611 532.0188,149.6035 536.1189,149.811 540.2191,149.9004 544.3192,149.8855 548.4194,149.9203 552.5196,150.0687 556.6197,150.2662 560.7199,150.399 564.82,150.4309 568.9202,150.4299 573.0203,150.4128 577.1205,150.3905 581.2207,150.38 585.3208,150.3811 589.421,150.3467 593.5211,150.2456 597.6213,150.1223 601.7214,150.0006 605.8216,149.8806 609.9218,149.7624 614.0219,149.6462 618.1221,149.5319 622.2222,149.4197"></polyline>
<polyline id="error-erc" class="erc error" points=" 40,96.071 44.1002,97.4846 48.2003,98.97 52.3005,100.5346 56.4006,102.1102 60.5008,103.446 64.6009,104.2802 68.7011,104.2976 72.8013,103.516 76.9014,102.2785 81.0016,100.8641 85.1017,99.5249 89.2019,98.3268 93.302,97.2622 97.4022,96.3233 101.5023,95.5023 105.6025,94.7915 109.7027,94.1832 113.8028,93.6705 117.903,93.2464 122.0031,92.9045 126.1033,92.6389 130.2034,92.4439 134.3036,92.3147 138.4038,92.2464 142.5039,92.2351 146.6041,92.277 150.7042,92.3691 154.8044,92.5181 158.9045,92.7306 163.0047,93.0256 167.1049,93.3983 171.205,93.841 175.3052,94.3394 179.4053,94.8918 183.5055,95.4981 187.6056,96.1592 191.7058,96.8773 195.8059,97.6557 199.9061,98.4993 204.0063,99.4143 208.1064,100.4089 212.2066,101.4934 216.3067,102.5189 220.4069,102.9005 224.507,102.7228 228.6072,102.6254 232.7074,102.7498 236.8075,103.0896 240.9077,103.4559 245.0078,103.5474 249.108,102.9447 253.2081,102.0012 257.3083,100.9884 261.4085,100.0865 265.5086,99.2802 269.6088,98.5552 273.7089,97.8985 277.8091,97.2979 281.9092,96.7418 286.0094,96.219 290.1095,95.7184 294.2097,95.2287 298.3099,94.7385 302.41,94.2354 306.5102,93.7721 310.6103,93.5834 314.7105,93.975 318.8106,94.9189 322.9108,96.0737 327.011,97.1989 331.1111,98.2425 335.2113,99.2147 339.3114,100.125 343.4116,100.9817 347.5117,101.793 351.6119,102.5663 355.7121,103.2991 359.8122,103.9814 363.9124,104.4308 368.0125,104.5414 372.1127,104.5106 376.2128,104.4908 380.313,104.51 384.4131,104.5234 388.5133,104.3669 392.6135,104.0176 396.7136,103.6043 400.8138,103.2846 404.9139,103.2662 409.0141,103.8087 413.1142,104.6183 417.2144,105.579 421.3146,106.8007 425.4147,108.2323 429.5149,109.7802 433.615,111.3407 437.7152,112.9001 441.8153,114.4475 445.9155,115.9738 450.0156,117.472 454.1158,118.937 458.216,120.365 462.3161,121.7536 466.4163,123.1017 470.5164,124.3591 474.6166,125.3621 478.7167,126.145 482.8169,126.8185 486.9171,127.4246 491.0172,128.0116 495.1174,128.5615 499.2175,129.3982 503.3177,131.1866 507.4178,133.3705 511.518,135.327 515.6182,136.7089 519.7183,137.0913 523.8185,137.1364 527.9186,137.2314 532.0188,137.534 536.1189,137.9409 540.2191,138.2535 544.3192,138.4618 548.4194,138.7107 552.5196,139.0114 556.6197,139.2757 560.7199,139.3494 564.82,139.228 568.9202,139.0329 573.0203,138.7688 577.1205,138.4435 581.2207,138.1322 585.3208,137.801 589.421,137.2027 593.5211,136.3691 597.6213,135.4974 601.7214,134.6493 605.8216,133.8207 609.9218,133.0086 614.0219,132.2108 618.1221,131.4256 622.2222,130.6516 622.2222,168.1878 618.1221,167.6382 614.0219,167.0815 609.9218,166.5163 605.8216,165.9406 601.7214,165.3519 597.6213,164.7472 593.5211,164.122 589.421,163.4907 585.3208,162.9611 581.2207,162.6279 577.1205,162.3375 573.0203,162.0569 568.9202,161.8268 564.82,161.6338 560.7199,161.4486 556.6197,161.2568 552.5196,161.1259 548.4194,161.13 544.3192,161.3091 540.2191,161.5473 536.1189,161.6811 532.0188,161.6729 527.9186,161.6909 523.8185,161.7784 519.7183,161.7763 515.6182,161.4897 511.518,160.5999 507.4178,159.2196 503.3177,157.4319 499.2175,155.9476 495.1174,155.8752 491.0172,156.1443 486.9171,156.184 482.8169,156.0861 478.7167,155.9715 474.6166,155.8571 470.5164,155.6633 466.4163,155.3494 462.3161,154.8814 458.216,154.2483 454.1158,153.4466 450.0156,152.4722 445.9155,151.3208 441.8153,149.9881 437.7152,148.4699 433.615,146.7631 429.5149,144.8652 425.4147,142.7751 421.3146,140.7521 417.2144,139.1467 413.1142,138.3446 409.0141,137.923 404.9139,137.8497 400.8138,138.4447 396.7136,139.2984 392.6135,140.0622 388.5133,140.5827 384.4131,141.1638 380.313,141.8676 376.2128,142.4295 372.1127,142.7765 368.0125,142.905 363.9124,142.803 359.8122,142.5677 355.7121,142.7035 351.6119,143.2771 347.5117,143.8042 343.4116,144.1521 339.3114,144.3125 335.2113,144.2736 331.1111,144.0196 327.011,143.531 322.9108,142.7837 318.8106,141.8588 314.7105,141.1755 310.6103,141.3561 306.5102,142.4716 302.41,143.9752 298.3099,145.4374 294.2097,146.7524 290.1095,147.9291 286.0094,148.9735 281.9092,149.8887 277.8091,150.6759 273.7089,151.3337 269.6088,151.859 265.5086,152.2467 261.4085,152.4897 257.3083,152.5789 253.2081,152.5029 249.108,152.3725 245.0078,152.3834 240.9077,152.8144 236.8075,153.4223 232.7074,154.011 228.6072,154.4462 224.507,154.7201 220.4069,154.8934 216.3067,155.2706 212.2066,155.8992 208.1064,156.4973 204.0063,156.9873 199.9061,157.3661 195.8059,157.6292 191.7058,157.7701 187.6056,157.7807 183.5055,157.6514 179.4053,157.3707 175.3052,156.9255 171.205,156.3005 167.1049,155.4787 163.0047,154.7044 158.9045,154.4024 154.8044,155.1721 150.7042,156.4981 146.6041,157.9769 142.5039,159.3442 138.4038,160.6074 134.3036,161.7719 130.2034,162.8416 126.1033,163.8188 122.0031,164.7043 117.903,165.4979 113.8028,166.1982 109.7027,166.8026 105.6025,167.3075 101.5023,167.7082 97.4022,167.9991 93.302,168.1734 89.2019,168.2235 85.1017,168.1407 81.0016,167.9156 76.9014,167.5762 72.8013,167.2585 68.7011,167.1369 64.6009,167.4387 60.5008,168.2056 56.4006,169.2682 52.3005,170.4768 48.2003,171.6849 44.1002,172.8525 40,173.9835"></polyline>
<text class = "party erc" x="631.1111" y="140"><tspan class="party_name">ERC</tspan><tspan class="party_result"> (22.8±2.3%)</tspan></text>
<polyline id="media-jxcat"  class="jxcat media" points=" 40,219.1385 44.1002,219.2877 48.2003,219.4369 52.3005,219.5856 56.4006,219.7287 60.5008,219.8521 64.6009,219.9447 68.7011,219.9961 72.8013,220.0138 76.9014,220.0195 81.0016,220.0293 85.1017,220.0563 89.2019,220.104 93.302,220.1721 97.4022,220.2608 101.5023,220.3696 105.6025,220.4982 109.7027,220.6465 113.8028,220.8141 117.903,221.0007 122.0031,221.2064 126.1033,221.4309 130.2034,221.6743 134.3036,221.9369 138.4038,222.2189 142.5039,222.5208 146.6041,222.8434 150.7042,223.1873 154.8044,223.493 158.9045,223.6726 163.0047,223.6164 167.1049,223.4581 171.205,223.292 175.3052,223.1726 179.4053,223.0964 183.5055,223.0603 187.6056,223.0609 191.7058,223.0952 195.8059,223.1599 199.9061,223.252 204.0063,223.3682 208.1064,223.5051 212.2066,223.6588 216.3067,223.8284 220.4069,224.0337 224.507,224.2962 228.6072,224.6067 232.7074,224.9593 236.8075,225.3531 240.9077,225.7234 245.0078,225.9835 249.108,226.0286 253.2081,225.9949 257.3083,225.9769 261.4085,226.0328 265.5086,226.1613 269.6088,226.3616 273.7089,226.6333 277.8091,226.9766 281.9092,227.3923 286.0094,227.8823 290.1095,228.4494 294.2097,229.0975 298.3099,229.8321 302.41,230.6605 306.5102,231.5114 310.6103,232.0938 314.7105,232.0362 318.8106,231.3832 322.9108,230.5565 327.011,229.844 331.1111,229.304 335.2113,228.9221 339.3114,228.686 343.4116,228.5853 347.5117,228.6115 351.6119,228.7574 355.7121,228.9668 359.8122,229.0534 363.9124,228.9768 368.0125,228.8899 372.1127,228.9075 376.2128,229.0943 380.313,229.4761 384.4131,229.9239 388.5133,229.8916 392.6135,229.4274 396.7136,229.1135 400.8138,228.9779 404.9139,228.8417 409.0141,228.4943 413.1142,227.9956 417.2144,227.172 421.3146,225.5703 425.4147,223.5208 429.5149,221.334 433.615,219.2539 437.7152,217.2895 441.8153,215.4477 445.9155,213.7331 450.0156,212.1484 454.1158,210.6946 458.216,209.3718 462.3161,208.179 466.4163,207.1145 470.5164,206.1932 474.6166,205.4785 478.7167,204.9288 482.8169,204.4844 486.9171,204.1086 491.0172,203.7581 495.1174,203.5079 499.2175,203.0079 503.3177,201.5331 507.4178,199.8486 511.518,198.4185 515.6182,197.2068 519.7183,196.1044 523.8185,195.008 527.9186,193.9426 532.0188,193.0533 536.1189,192.3653 540.2191,191.8977 544.3192,191.6424 548.4194,191.5392 552.5196,191.6036 556.6197,191.9192 560.7199,192.4757 564.82,193.2041 568.9202,193.9284 573.0203,194.445 577.1205,194.7087 581.2207,194.8104 585.3208,194.7621 589.421,194.5259 593.5211,194.3412 597.6213,194.2347 601.7214,194.1603 605.8216,194.112 609.9218,194.085 614.0219,194.0755 618.1221,194.0805 622.2222,194.0974"></polyline>
<polyline id="error-jxcat" class="jxcat error" points=" 40,181.3782 44.1002,182.7845 48.2003,184.2424 52.3005,185.7568 56.4006,187.2692 60.5008,188.5713 64.6009,189.4515 68.7011,189.6638 72.8013,189.2455 76.9014,188.4976 81.0016,187.6579 85.1017,186.9291 89.2019,186.3606 93.302,185.9443 97.4022,185.6718 101.5023,185.5355 105.6025,185.5278 109.7027,185.6419 113.8028,185.8718 117.903,186.2119 122.0031,186.6576 126.1033,187.2051 130.2034,187.8515 134.3036,188.5948 138.4038,189.434 142.5039,190.3693 146.6041,191.4019 150.7042,192.5347 154.8044,193.5779 158.9045,194.2454 163.0047,194.1789 167.1049,193.8107 171.205,193.444 175.3052,193.2495 179.4053,193.2145 183.5055,193.328 187.6056,193.5807 191.7058,193.9646 195.8059,194.4732 199.9061,195.1014 204.0063,195.8456 208.1064,196.7036 212.2066,197.6746 216.3067,198.6481 220.4069,199.227 224.507,199.4976 228.6072,199.9054 232.7074,200.5413 236.8075,201.3971 240.9077,202.25 245.0078,202.772 249.108,202.5373 253.2081,201.9902 257.3083,201.4529 261.4085,201.1254 265.5086,200.9936 269.6088,201.0454 273.7089,201.2707 277.8091,201.6612 281.9092,202.2108 286.0094,202.915 290.1095,203.7718 294.2097,204.7811 298.3099,205.9455 302.41,207.2707 306.5102,208.6564 310.6103,209.7061 314.7105,209.9182 318.8106,209.3608 322.9108,208.6076 327.011,208.0441 331.1111,207.745 335.2113,207.6887 339.3114,207.8573 343.4116,208.2363 347.5117,208.8146 351.6119,209.5839 355.7121,210.421 359.8122,210.8968 363.9124,210.9167 368.0125,210.8307 372.1127,210.8962 376.2128,211.2453 380.313,211.9158 384.4131,212.7187 388.5133,212.8916 392.6135,212.503 396.7136,212.3548 400.8138,212.4761 404.9139,212.614 409.0141,212.4792 413.1142,212.1485 417.2144,211.3748 421.3146,209.5434 425.4147,207.1513 429.5149,204.6403 433.615,202.3363 437.7152,200.2428 441.8153,198.3609 445.9155,196.69 450.0156,195.2281 454.1158,193.972 458.216,192.918 462.3161,192.062 466.4163,191.4 470.5164,190.9174 474.6166,190.582 478.7167,190.3472 482.8169,190.1666 486.9171,190.0314 491.0172,189.9813 495.1174,190.1293 499.2175,189.9941 503.3177,188.6326 507.4178,187.1015 511.518,185.9218 515.6182,184.9278 519.7183,183.8556 523.8185,182.7663 527.9186,181.7784 532.0188,181.0367 536.1189,180.5375 540.2191,180.2866 544.3192,180.2516 548.4194,180.361 552.5196,180.5772 556.6197,180.9613 560.7199,181.464 564.82,182.0473 568.9202,182.5863 573.0203,182.8627 577.1205,182.8275 581.2207,182.6304 585.3208,182.25 589.421,181.448 593.5211,180.5304 597.6213,179.6758 601.7214,178.8756 605.8216,178.1194 609.9218,177.3994 614.0219,176.7095 618.1221,176.0447 622.2222,175.4011 622.2222,212.7937 618.1221,212.1162 614.0219,211.4415 609.9218,210.7705 605.8216,210.1045 601.7214,209.445 597.6213,208.7936 593.5211,208.1521 589.421,207.6038 585.3208,207.2742 581.2207,206.9904 577.1205,206.5899 573.0203,206.0273 568.9202,205.2704 564.82,204.3608 560.7199,203.4874 556.6197,202.8771 552.5196,202.6301 548.4194,202.7174 544.3192,203.0331 540.2191,203.5088 536.1189,204.1931 532.0188,205.0699 527.9186,206.1068 523.8185,207.2497 519.7183,208.3532 515.6182,209.4858 511.518,210.9152 507.4178,212.5957 503.3177,214.4336 499.2175,216.0218 495.1174,216.8866 491.0172,217.535 486.9171,218.1858 482.8169,218.8021 478.7167,219.5103 474.6166,220.375 470.5164,221.469 466.4163,222.829 462.3161,224.2961 458.216,225.8257 454.1158,227.4172 450.0156,229.0686 445.9155,230.7762 441.8153,232.5346 437.7152,234.3363 433.615,236.1714 429.5149,238.0278 425.4147,239.8903 421.3146,241.5973 417.2144,242.9693 413.1142,243.8428 409.0141,244.5095 404.9139,245.0694 400.8138,245.4797 396.7136,245.8721 392.6135,246.3518 388.5133,246.8917 384.4131,247.129 380.313,247.0365 376.2128,246.9432 372.1127,246.9189 368.0125,246.9491 363.9124,247.0369 359.8122,247.21 355.7121,247.5126 351.6119,247.9309 347.5117,248.4085 343.4116,248.9343 339.3114,249.5146 335.2113,250.1554 331.1111,250.8629 327.011,251.6438 322.9108,252.5053 318.8106,253.4056 314.7105,254.1541 310.6103,254.4816 306.5102,254.3663 302.41,254.0503 298.3099,253.7187 294.2097,253.414 290.1095,253.127 286.0094,252.8496 281.9092,252.5738 277.8091,252.2919 273.7089,251.996 269.6088,251.6779 265.5086,251.3291 261.4085,250.9401 257.3083,250.5008 253.2081,249.9995 249.108,249.5199 245.0078,249.195 240.9077,249.1967 236.8075,249.3092 232.7074,249.3773 228.6072,249.308 224.507,249.0948 220.4069,248.8404 216.3067,249.0087 212.2066,249.643 208.1064,250.3066 204.0063,250.8908 199.9061,251.4026 195.8059,251.8467 191.7058,252.2258 187.6056,252.5412 183.5055,252.7926 179.4053,252.9784 175.3052,253.0956 171.205,253.14 167.1049,253.1056 163.0047,253.0538 158.9045,253.0998 154.8044,253.408 150.7042,253.84 146.6041,254.2848 142.5039,254.6724 138.4038,255.0038 134.3036,255.279 130.2034,255.4971 126.1033,255.6566 122.0031,255.7551 117.903,255.7896 113.8028,255.7564 109.7027,255.6511 105.6025,255.4687 101.5023,255.2036 97.4022,254.8497 93.302,254.4 89.2019,253.8473 85.1017,253.1836 81.0016,252.4008 76.9014,251.5413 72.8013,250.782 68.7011,250.3284 64.6009,250.4379 60.5008,251.1328 56.4006,252.1882 52.3005,253.4145 48.2003,254.6315 44.1002,255.791 40,256.8988"></polyline>
<text class = "party jxcat" x="631.1111" y="192"><tspan class="party_name">JxCAT</tspan><tspan class="party_result"> (17.2±2.3%)</tspan></text>
<polyline id="media-cec"  class="cec media" points=" 40,244.995 44.1002,244.5724 48.2003,244.1273 52.3005,243.6585 56.4006,243.1919 60.5008,242.8146 64.6009,242.6129 68.7011,242.6925 72.8013,243.0542 76.9014,243.5904 81.0016,244.2097 85.1017,244.8193 89.2019,245.3899 93.302,245.9197 97.4022,246.4081 101.5023,246.8547 105.6025,247.2599 109.7027,247.6244 113.8028,247.9494 117.903,248.2361 122.0031,248.4859 126.1033,248.7004 130.2034,248.8811 134.3036,249.0299 138.4038,249.1482 142.5039,249.2379 146.6041,249.3008 150.7042,249.3386 154.8044,249.3538 158.9045,249.3494 163.0047,249.3261 167.1049,249.2801 171.205,249.2074 175.3052,249.1051 179.4053,248.9709 183.5055,248.8028 187.6056,248.5983 191.7058,248.3551 195.8059,248.0705 199.9061,247.7416 204.0063,247.3649 208.1064,246.9364 212.2066,246.4515 216.3067,246.0041 220.4069,245.9549 224.507,246.2599 228.6072,246.5274 232.7074,246.6663 236.8075,246.6799 240.9077,246.6594 245.0078,246.7515 249.108,247.1664 253.2081,247.7488 257.3083,248.3682 261.4085,248.9265 265.5086,249.4229 269.6088,249.8575 273.7089,250.2304 277.8091,250.5423 281.9092,250.7935 286.0094,250.9844 290.1095,251.1149 294.2097,251.1843 298.3099,251.1914 302.41,251.134 306.5102,251.0414 310.6103,251.0348 314.7105,251.2757 318.8106,251.7581 322.9108,252.3128 327.011,252.8184 331.1111,253.2482 335.2113,253.6066 339.3114,253.8975 343.4116,254.1243 347.5117,254.2902 351.6119,254.3978 355.7121,254.4464 359.8122,254.424 363.9124,254.4759 368.0125,254.7124 372.1127,255.0084 376.2128,255.2505 380.313,255.4044 384.4131,255.5265 388.5133,255.8767 392.6135,256.4588 396.7136,257.0097 400.8138,257.4884 404.9139,257.9439 409.0141,258.4457 413.1142,258.9476 417.2144,259.4254 421.3146,259.9 425.4147,260.4009 429.5149,260.9268 433.615,261.4605 437.7152,261.9947 441.8153,262.5236 445.9155,263.043 450.0156,263.5495 454.1158,264.0408 458.216,264.5156 462.3161,264.9734 466.4163,265.4144 470.5164,265.82 474.6166,266.1254 478.7167,266.3638 482.8169,266.6502 486.9171,267.0117 491.0172,267.4295 495.1174,267.9076 499.2175,268.2212 503.3177,267.9984 507.4178,267.6585 511.518,267.4372 515.6182,267.3592 519.7183,267.4847 523.8185,267.7153 527.9186,267.9579 532.0188,268.0627 536.1189,268.0478 540.2191,268.0479 544.3192,268.0725 548.4194,268.077 552.5196,268.0409 556.6197,267.8468 560.7199,267.5021 564.82,267.0763 568.9202,266.7082 573.0203,266.493 577.1205,266.4361 581.2207,266.4974 585.3208,266.578 589.421,266.534 593.5211,266.5077 597.6213,266.5125 601.7214,266.5138 605.8216,266.5114 609.9218,266.5056 614.0219,266.4964 618.1221,266.4844 622.2222,266.4697"></polyline>
<polyline id="error-cec" class="cec error" points=" 40,218.7689 44.1002,219.22 48.2003,219.6843 52.3005,220.1643 56.4006,220.6492 60.5008,221.0919 64.6009,221.4397 68.7011,221.6355 72.8013,221.7011 76.9014,221.7232 81.0016,221.7637 85.1017,221.8607 89.2019,222.0164 93.302,222.2229 97.4022,222.4735 101.5023,222.7626 105.6025,223.0855 109.7027,223.438 113.8028,223.8172 117.903,224.2206 122.0031,224.6463 126.1033,225.0934 130.2034,225.5613 134.3036,226.0502 138.4038,226.5609 142.5039,227.0947 146.6041,227.6541 150.7042,228.2421 154.8044,228.7712 158.9045,229.1064 163.0047,229.0763 167.1049,228.8842 171.205,228.671 175.3052,228.5144 179.4053,228.4058 183.5055,228.3374 187.6056,228.3026 191.7058,228.2957 195.8059,228.3117 199.9061,228.3463 204.0063,228.3957 208.1064,228.4569 212.2066,228.5274 216.3067,228.6274 220.4069,228.8354 224.507,229.1511 228.6072,229.4898 232.7074,229.8257 236.8075,230.1569 240.9077,230.4679 245.0078,230.742 249.108,230.9728 253.2081,231.2142 257.3083,231.49 261.4085,231.7969 265.5086,232.1251 269.6088,232.4664 273.7089,232.8142 277.8091,233.1631 281.9092,233.5084 286.0094,233.8461 290.1095,234.1725 294.2097,234.4842 298.3099,234.7778 302.41,235.0501 306.5102,235.3125 310.6103,235.6219 314.7105,236.0612 318.8106,236.6391 322.9108,237.2793 327.011,237.9191 331.1111,238.5409 335.2113,239.1445 339.3114,239.7301 343.4116,240.2987 347.5117,240.8518 351.6119,241.3917 355.7121,241.8723 359.8122,242.1168 363.9124,242.238 368.0125,242.4832 372.1127,242.8203 376.2128,243.1782 380.313,243.5292 384.4131,243.8923 388.5133,244.3937 392.6135,245.0506 396.7136,245.7349 400.8138,246.4044 404.9139,247.0615 409.0141,247.7265 413.1142,248.3632 417.2144,248.8988 421.3146,249.2522 425.4147,249.5631 429.5149,249.9147 433.615,250.3411 437.7152,250.8303 441.8153,251.3721 445.9155,251.958 450.0156,252.5811 454.1158,253.2358 458.216,253.9179 462.3161,254.6246 466.4163,255.3544 470.5164,256.0687 474.6166,256.6375 478.7167,257.0932 482.8169,257.563 486.9171,258.0935 491.0172,258.7196 495.1174,259.469 499.2175,260.0299 503.3177,259.8884 507.4178,259.6545 511.518,259.6014 515.6182,259.6714 519.7183,259.8281 523.8185,260.0772 527.9186,260.3831 532.0188,260.5911 536.1189,260.7012 540.2191,260.8425 544.3192,261.0092 548.4194,261.1492 552.5196,261.208 556.6197,261.0512 560.7199,260.6616 564.82,260.13 568.9202,259.6312 573.0203,259.2545 577.1205,259.0034 581.2207,258.8741 585.3208,258.7443 589.421,258.3388 593.5211,257.8428 597.6213,257.3673 601.7214,256.9013 605.8216,256.4419 609.9218,255.9874 614.0219,255.5366 618.1221,255.0886 622.2222,254.643 622.2222,278.2965 618.1221,277.8802 614.0219,277.4563 609.9218,277.0237 605.8216,276.581 601.7214,276.1262 597.6213,275.6576 593.5211,275.1726 589.421,274.7292 585.3208,274.4116 581.2207,274.1206 577.1205,273.8687 573.0203,273.7315 568.9202,273.7852 564.82,274.0226 560.7199,274.3426 556.6197,274.6424 552.5196,274.8739 548.4194,275.0048 544.3192,275.1358 540.2191,275.2533 536.1189,275.3943 532.0188,275.5342 527.9186,275.5327 523.8185,275.3534 519.7183,275.1413 515.6182,275.047 511.518,275.273 507.4178,275.6625 503.3177,276.1084 499.2175,276.4125 495.1174,276.3462 491.0172,276.1394 486.9171,275.9299 482.8169,275.7374 478.7167,275.6345 474.6166,275.6133 470.5164,275.5714 466.4163,275.4743 462.3161,275.3222 458.216,275.1134 454.1158,274.8459 450.0156,274.5179 445.9155,274.128 441.8153,273.6752 437.7152,273.1591 433.615,272.5799 429.5149,271.9389 425.4147,271.2387 421.3146,270.5477 417.2144,269.952 413.1142,269.5321 409.0141,269.1648 404.9139,268.8264 400.8138,268.5724 396.7136,268.2845 392.6135,267.867 388.5133,267.3596 384.4131,267.1606 380.313,267.2796 376.2128,267.3229 372.1127,267.1966 368.0125,266.9416 363.9124,266.7138 359.8122,266.7313 355.7121,267.0205 351.6119,267.4039 347.5117,267.7285 343.4116,267.9499 339.3114,268.0648 335.2113,268.0686 331.1111,267.9555 327.011,267.7178 322.9108,267.3463 318.8106,266.8772 314.7105,266.4903 310.6103,266.4476 306.5102,266.7703 302.41,267.218 298.3099,267.605 294.2097,267.8845 290.1095,268.0574 286.0094,268.1228 281.9092,268.0786 277.8091,267.9214 273.7089,267.6465 269.6088,267.2485 265.5086,266.7208 261.4085,266.0561 257.3083,265.2465 253.2081,264.2834 249.108,263.3601 245.0078,262.761 240.9077,262.851 236.8075,263.203 232.7074,263.507 228.6072,263.565 224.507,263.3687 220.4069,263.0744 216.3067,263.3808 212.2066,264.3757 208.1064,265.4159 204.0063,266.334 199.9061,267.1369 195.8059,267.8293 191.7058,268.4145 187.6056,268.894 183.5055,269.2682 179.4053,269.5361 175.3052,269.6957 171.205,269.7437 167.1049,269.6761 163.0047,269.5759 158.9045,269.5923 154.8044,269.9364 150.7042,270.435 146.6041,270.9474 142.5039,271.3812 138.4038,271.7356 134.3036,272.0095 130.2034,272.2009 126.1033,272.3073 122.0031,272.3254 117.903,272.2516 113.8028,272.0816 109.7027,271.8108 105.6025,271.4343 101.5023,270.9467 97.4022,270.3426 93.302,269.6166 89.2019,268.7633 85.1017,267.7778 81.0016,266.6557 76.9014,265.4577 72.8013,264.4072 68.7011,263.7496 64.6009,263.786 60.5008,264.5372 56.4006,265.7345 52.3005,267.1528 48.2003,268.5704 44.1002,269.9248 40,271.221"></polyline>
<text class = "party cec" x="631.1111" y="257"><tspan class="party_name">CeC</tspan><tspan class="party_result"> (8.3±1.5%)</tspan></text>
<polyline id="media-psc"  class="psc media" points=" 40,221.8781 44.1002,221.9036 48.2003,221.924 52.3005,221.9385 56.4006,221.9492 60.5008,221.9674 64.6009,222.0074 68.7011,222.0901 72.8013,222.2245 76.9014,222.4022 81.0016,222.6138 85.1017,222.8459 89.2019,223.0942 93.302,223.3591 97.4022,223.6411 101.5023,223.9412 105.6025,224.2602 109.7027,224.5996 113.8028,224.9607 117.903,225.3455 122.0031,225.7562 126.1033,226.1954 130.2034,226.666 134.3036,227.1718 138.4038,227.7168 142.5039,228.3062 146.6041,228.9456 150.7042,229.6421 154.8044,230.2224 158.9045,230.4179 163.0047,229.8722 167.1049,228.9642 171.205,227.9722 175.3052,227.0669 179.4053,226.2403 183.5055,225.4846 187.6056,224.7924 191.7058,224.1562 195.8059,223.5691 199.9061,223.024 204.0063,222.5139 208.1064,222.0318 212.2066,221.5703 216.3067,221.1869 220.4069,221.1135 224.507,221.3174 228.6072,221.5455 232.7074,221.7437 236.8075,221.9188 240.9077,222.069 245.0078,222.1934 249.108,222.2959 253.2081,222.4015 257.3083,222.5236 261.4085,222.6677 265.5086,222.8357 269.6088,223.0295 273.7089,223.2515 277.8091,223.5045 281.9092,223.7918 286.0094,224.1173 290.1095,224.4855 294.2097,224.902 298.3099,225.3734 302.41,225.9079 306.5102,226.449 310.6103,226.7556 314.7105,226.5125 318.8106,225.7462 322.9108,224.8028 327.011,223.923 331.1111,223.1569 335.2113,222.4927 339.3114,221.9203 343.4116,221.4309 347.5117,221.0171 351.6119,220.6725 355.7121,220.3979 359.8122,220.2039 363.9124,219.9864 368.0125,219.6557 372.1127,219.273 376.2128,218.8994 380.313,218.5502 384.4131,218.2651 388.5133,218.1981 392.6135,218.3365 396.7136,218.5266 400.8138,218.67 404.9139,218.6592 409.0141,218.355 413.1142,217.9279 417.2144,217.4735 421.3146,216.9923 425.4147,216.4724 429.5149,215.9276 433.615,215.3823 437.7152,214.8417 441.8153,214.3093 445.9155,213.7881 450.0156,213.28 454.1158,212.7862 458.216,212.3071 462.3161,211.8427 466.4163,211.3923 470.5164,210.9521 474.6166,210.5028 478.7167,210.0855 482.8169,209.9518 486.9171,210.0671 491.0172,210.1626 495.1174,210.2019 499.2175,210.1486 503.3177,209.9085 507.4178,209.5792 511.518,209.279 515.6182,209.0905 519.7183,209.1178 523.8185,209.2195 527.9186,209.3009 532.0188,209.3006 536.1189,209.2772 540.2191,209.4554 544.3192,209.7973 548.4194,210.0572 552.5196,210.1779 556.6197,210.2906 560.7199,210.4943 564.82,210.7715 568.9202,210.981 573.0203,211.0485 577.1205,210.9676 581.2207,210.7669 585.3208,210.4908 589.421,210.2782 593.5211,210.2823 597.6213,210.3644 601.7214,210.4387 605.8216,210.507 609.9218,210.5706 614.0219,210.6304 618.1221,210.6871 622.2222,210.7413"></polyline>
<polyline id="error-psc" class="psc error" points=" 40,190.5855 44.1002,191.6581 48.2003,192.7682 52.3005,193.9193 56.4006,195.0695 60.5008,196.0685 64.6009,196.7643 68.7011,196.9825 72.8013,196.7574 76.9014,196.3124 81.0016,195.8224 85.1017,195.4313 89.2019,195.1731 93.302,195.0413 97.4022,195.0299 101.5023,195.1333 105.6025,195.3467 109.7027,195.6659 113.8028,196.0875 117.903,196.6091 122.0031,197.2292 126.1033,197.9472 130.2034,198.7638 134.3036,199.6807 138.4038,200.7012 142.5039,201.8299 146.6041,203.0734 150.7042,204.4399 154.8044,205.644 158.9045,206.246 163.0047,205.6743 167.1049,204.5651 171.205,203.3768 175.3052,202.3811 179.4053,201.5625 183.5055,200.9068 187.6056,200.4012 191.7058,200.0345 195.8059,199.7967 199.9061,199.6791 204.0063,199.6742 208.1064,199.776 212.2066,199.9795 216.3067,200.2527 220.4069,200.4845 224.507,200.6946 228.6072,201.003 232.7074,201.4351 236.8075,201.992 240.9077,202.5411 245.0078,202.8818 249.108,202.752 253.2081,202.4321 257.3083,202.1239 261.4085,201.9502 265.5086,201.902 269.6088,201.9723 273.7089,202.1552 277.8091,202.4465 281.9092,202.8438 286.0094,203.3456 290.1095,203.9527 294.2097,204.6672 298.3099,205.4935 302.41,206.4385 306.5102,207.4216 310.6103,208.1135 314.7105,208.0908 318.8106,207.3992 322.9108,206.5112 327.011,205.7494 331.1111,205.1773 335.2113,204.7773 339.3114,204.5347 343.4116,204.4374 347.5117,204.476 351.6119,204.6431 355.7121,204.8846 359.8122,205.0112 363.9124,204.8714 368.0125,204.536 372.1127,204.1847 376.2128,203.9358 380.313,203.8146 384.4131,203.8138 388.5133,203.9187 392.6135,204.1323 396.7136,204.4715 400.8138,204.8362 404.9139,205.058 409.0141,204.9326 413.1142,204.6471 417.2144,204.2401 421.3146,203.5844 425.4147,202.8025 429.5149,202.0131 433.615,201.3056 437.7152,200.6797 441.8153,200.1343 445.9155,199.6676 450.0156,199.2774 454.1158,198.9614 458.216,198.7168 462.3161,198.5411 466.4163,198.4319 470.5164,198.3603 474.6166,198.2271 478.7167,198.0708 482.8169,198.1591 486.9171,198.48 491.0172,198.8297 495.1174,199.2015 499.2175,199.4544 503.3177,199.3215 507.4178,199.133 511.518,199.0503 515.6182,199.0512 519.7183,199.1154 523.8185,199.2358 527.9186,199.3929 532.0188,199.5225 536.1189,199.6599 540.2191,200.0221 544.3192,200.5508 548.4194,200.9883 552.5196,201.2336 556.6197,201.4007 560.7199,201.558 564.82,201.7138 568.9202,201.7679 573.0203,201.6351 577.1205,201.3064 581.2207,200.8576 585.3208,200.3065 589.421,199.6305 593.5211,199.0368 597.6213,198.5091 601.7214,197.9911 605.8216,197.4813 609.9218,196.9784 614.0219,196.4816 618.1221,195.9901 622.2222,195.5031 622.2222,225.9795 618.1221,225.3842 614.0219,224.7792 609.9218,224.1627 605.8216,223.5326 601.7214,222.8862 597.6213,222.2197 593.5211,221.5278 589.421,220.9259 585.3208,220.6751 581.2207,220.6761 577.1205,220.6288 573.0203,220.4618 568.9202,220.1941 564.82,219.8293 560.7199,219.4305 556.6197,219.1804 552.5196,219.1221 548.4194,219.126 544.3192,219.0439 540.2191,218.8887 536.1189,218.8944 532.0188,219.0788 527.9186,219.2088 523.8185,219.2031 519.7183,219.1202 515.6182,219.1298 511.518,219.5076 507.4178,220.0253 503.3177,220.4954 499.2175,220.8427 495.1174,221.2023 491.0172,221.4955 486.9171,221.6542 482.8169,221.7446 478.7167,222.1002 474.6166,222.7786 470.5164,223.5439 466.4163,224.3528 462.3161,225.1443 458.216,225.8974 454.1158,226.611 450.0156,227.2826 445.9155,227.9087 441.8153,228.4844 437.7152,229.0036 433.615,229.4591 429.5149,229.842 425.4147,230.1423 421.3146,230.4003 417.2144,230.7069 413.1142,231.2088 409.0141,231.7774 404.9139,232.2603 400.8138,232.5037 396.7136,232.5816 392.6135,232.5408 388.5133,232.4775 384.4131,232.7163 380.313,233.2859 376.2128,233.8629 372.1127,234.3613 368.0125,234.7755 363.9124,235.1014 359.8122,235.3966 355.7121,235.9112 351.6119,236.7019 347.5117,237.5583 343.4116,238.4244 339.3114,239.3059 335.2113,240.2081 331.1111,241.1366 327.011,242.0967 322.9108,243.0943 318.8106,244.0933 314.7105,244.9341 310.6103,245.3977 306.5102,245.4765 302.41,245.3773 298.3099,245.2533 294.2097,245.1368 290.1095,245.0183 286.0094,244.8889 281.9092,244.7399 277.8091,244.5624 273.7089,244.3478 269.6088,244.0867 265.5086,243.7693 261.4085,243.3853 257.3083,242.9233 253.2081,242.3708 249.108,241.8398 245.0078,241.505 240.9077,241.5969 236.8075,241.8457 232.7074,242.0522 228.6072,242.088 224.507,241.9402 220.4069,241.7426 216.3067,242.1211 212.2066,243.161 208.1064,244.2877 204.0063,245.3536 199.9061,246.3689 195.8059,247.3414 191.7058,248.2779 187.6056,249.1835 183.5055,250.0624 179.4053,250.918 175.3052,251.7526 171.205,252.5676 167.1049,253.3634 163.0047,254.07 158.9045,254.5899 154.8044,254.8007 150.7042,254.8443 146.6041,254.8179 142.5039,254.7824 138.4038,254.7325 134.3036,254.6628 130.2034,254.5682 126.1033,254.4435 122.0031,254.2832 117.903,254.0819 113.8028,253.8339 109.7027,253.5333 105.6025,253.1738 101.5023,252.749 97.4022,252.2524 93.302,251.6768 89.2019,251.0153 85.1017,250.2606 81.0016,249.4053 76.9014,248.492 72.8013,247.6916 68.7011,247.1976 64.6009,247.2505 60.5008,247.8663 56.4006,248.8289 52.3005,249.9576 48.2003,251.0799 44.1002,252.1491 40,253.1707"></polyline>
<text class = "party psc" x="631.1111" y="213"><tspan class="party_name">PSC</tspan><tspan class="party_result"> (15.2±1.9%)</tspan></text>
<polyline id="media-cs"  class="cs media" points=" 40,182.9709 44.1002,183.3996 48.2003,183.8483 52.3005,184.3178 56.4006,184.7836 60.5008,185.1644 64.6009,185.3811 68.7011,185.3384 72.8013,185.0397 76.9014,184.5873 81.0016,184.0676 85.1017,183.5663 89.2019,183.1104 93.302,182.7018 97.4022,182.3415 101.5023,182.03 105.6025,181.7673 109.7027,181.5532 113.8028,181.387 117.903,181.2684 122.0031,181.1965 126.1033,181.1709 130.2034,181.1911 134.3036,181.2568 138.4038,181.3677 142.5039,181.524 146.6041,181.726 150.7042,181.9743 154.8044,182.2014 158.9045,182.3048 163.0047,182.1526 167.1049,181.8923 171.205,181.6322 175.3052,181.4388 179.4053,181.3114 183.5055,181.2496 187.6056,181.2533 191.7058,181.3222 195.8059,181.4569 199.9061,181.6582 204.0063,181.9273 208.1064,182.2661 212.2066,182.677 216.3067,183.0779 220.4069,183.1598 224.507,182.9667 228.6072,182.8391 232.7074,182.8588 236.8075,183.0274 240.9077,183.2063 245.0078,183.1757 249.108,182.6218 253.2081,181.7972 257.3083,180.9059 261.4085,180.0977 265.5086,179.3718 269.6088,178.7268 273.7089,178.1609 277.8091,177.6719 281.9092,177.2578 286.0094,176.9167 290.1095,176.647 294.2097,176.4474 298.3099,176.3171 302.41,176.2561 306.5102,176.2447 310.6103,176.2046 314.7105,176.0318 318.8106,175.7297 322.9108,175.4072 327.011,175.1437 331.1111,174.9589 335.2113,174.853 339.3114,174.8269 343.4116,174.8826 347.5117,175.023 351.6119,175.253 355.7121,175.4646 359.8122,175.2298 363.9124,174.5489 368.0125,173.8205 372.1127,173.1625 376.2128,172.6025 380.313,172.1513 384.4131,171.7919 388.5133,171.4389 392.6135,171.075 396.7136,170.7824 400.8138,170.5219 404.9139,170.1816 409.0141,169.613 413.1142,168.9625 417.2144,168.3026 421.3146,167.6008 425.4147,166.8435 429.5149,166.0544 433.615,165.2713 437.7152,164.5031 441.8153,163.7563 445.9155,163.0364 450.0156,162.3473 454.1158,161.6916 458.216,161.0713 462.3161,160.4873 466.4163,159.9398 470.5164,159.4465 474.6166,159.071 478.7167,158.7112 482.8169,157.9917 486.9171,156.8822 491.0172,155.6293 495.1174,154.2657 499.2175,153.2844 503.3177,153.479 507.4178,153.88 511.518,154.082 515.6182,154.21 519.7183,154.382 523.8185,154.5618 527.9186,154.6935 532.0188,154.6592 536.1189,154.4353 540.2191,153.9439 544.3192,153.2415 548.4194,152.5303 552.5196,151.8495 556.6197,151.1884 560.7199,150.5621 564.82,149.9918 568.9202,149.5288 573.0203,149.325 577.1205,149.4291 581.2207,149.7462 585.3208,150.2051 589.421,150.7138 593.5211,151.0597 597.6213,151.3169 601.7214,151.5598 605.8216,151.7894 609.9218,152.0067 614.0219,152.2127 618.1221,152.4083 622.2222,152.5945"></polyline>
<polyline id="error-cs" class="cs error" points=" 40,149.0009 44.1002,150.563 48.2003,152.192 52.3005,153.8934 56.4006,155.5942 60.5008,157.0374 64.6009,157.9627 68.7011,158.0615 72.8013,157.3637 76.9014,156.2237 81.0016,154.928 85.1017,153.7343 89.2019,152.7117 93.302,151.8548 97.4022,151.1574 101.5023,150.6134 105.6025,150.2165 109.7027,149.9606 113.8028,149.8401 117.903,149.8496 122.0031,149.9846 126.1033,150.2412 130.2034,150.6162 134.3036,151.1074 138.4038,151.7134 142.5039,152.4341 146.6041,153.2705 150.7042,154.2248 154.8044,155.1127 158.9045,155.6528 163.0047,155.4892 167.1049,155.0378 171.205,154.5954 175.3052,154.333 179.4053,154.2417 183.5055,154.3143 187.6056,154.5451 191.7058,154.9298 195.8059,155.466 199.9061,156.1528 204.0063,156.9912 208.1064,157.9843 212.2066,159.1373 216.3067,160.2677 220.4069,160.6829 224.507,160.4858 228.6072,160.435 232.7074,160.7017 236.8075,161.281 240.9077,161.8904 245.0078,162.0892 249.108,161.2693 253.2081,159.9636 257.3083,158.5834 261.4085,157.4088 265.5086,156.4275 269.6088,155.6281 273.7089,155.0002 277.8091,154.5339 281.9092,154.2209 286.0094,154.0537 290.1095,154.0261 294.2097,154.1335 298.3099,154.3725 302.41,154.7415 306.5102,155.1958 310.6103,155.5669 314.7105,155.6391 318.8106,155.4354 322.9108,155.195 327.011,155.0806 331.1111,155.1259 335.2113,155.3249 339.3114,155.6737 343.4116,156.171 347.5117,156.8178 351.6119,157.6183 355.7121,158.4029 359.8122,158.5183 363.9124,157.9162 368.0125,157.1786 372.1127,156.5534 376.2128,156.1294 380.313,155.9278 384.4131,155.8797 388.5133,155.7106 392.6135,155.4201 396.7136,155.2819 400.8138,155.2564 404.9139,155.1659 409.0141,154.7914 413.1142,154.2958 417.2144,153.6882 421.3146,152.7956 425.4147,151.7519 429.5149,150.6956 433.615,149.7356 437.7152,148.8749 441.8153,148.1147 445.9155,147.4554 450.0156,146.8964 454.1158,146.4367 458.216,146.0745 462.3161,145.8081 466.4163,145.6359 470.5164,145.5486 474.6166,145.5231 478.7167,145.4526 482.8169,144.9702 486.9171,144.0713 491.0172,143.0818 495.1174,142.0684 499.2175,141.415 503.3177,141.7336 507.4178,142.2991 511.518,142.7475 515.6182,143.088 519.7183,143.302 523.8185,143.5026 527.9186,143.7176 532.0188,143.8259 536.1189,143.7772 540.2191,143.4813 544.3192,142.9733 548.4194,142.4482 552.5196,141.8974 556.6197,141.2891 560.7199,140.6031 564.82,139.8893 568.9202,139.247 573.0203,138.8183 577.1205,138.65 581.2207,138.6985 585.3208,138.8618 589.421,138.8669 593.5211,138.5566 597.6213,138.1426 601.7214,137.7344 605.8216,137.3289 609.9218,136.9245 614.0219,136.52 618.1221,136.1148 622.2222,135.7083 622.2222,169.4807 618.1221,168.7019 614.0219,167.9054 609.9218,167.0889 605.8216,166.25 601.7214,165.3853 597.6213,164.4911 593.5211,163.5628 589.421,162.5606 585.3208,161.5483 581.2207,160.794 577.1205,160.2083 573.0203,159.8316 568.9202,159.8106 564.82,160.0943 560.7199,160.5211 556.6197,161.0877 552.5196,161.8015 548.4194,162.6124 544.3192,163.5096 540.2191,164.4065 536.1189,165.0933 532.0188,165.4925 527.9186,165.6693 523.8185,165.621 519.7183,165.4621 515.6182,165.3319 511.518,165.4165 507.4178,165.4608 503.3177,165.2243 499.2175,165.1538 495.1174,166.463 491.0172,168.1768 486.9171,169.693 482.8169,171.0132 478.7167,171.9698 474.6166,172.6189 470.5164,173.3445 466.4163,174.2438 462.3161,175.1665 458.216,176.0681 454.1158,176.9466 450.0156,177.7981 445.9155,178.6175 441.8153,179.398 437.7152,180.1313 433.615,180.807 429.5149,181.4131 425.4147,181.9351 421.3146,182.406 417.2144,182.9171 413.1142,183.6292 409.0141,184.4346 404.9139,185.1973 400.8138,185.7874 396.7136,186.2829 392.6135,186.7298 388.5133,187.1672 384.4131,187.704 380.313,188.3748 376.2128,189.0757 372.1127,189.7715 368.0125,190.4624 363.9124,191.1816 359.8122,191.9413 355.7121,192.5263 351.6119,192.8876 347.5117,193.2282 343.4116,193.5941 339.3114,193.9802 335.2113,194.3812 331.1111,194.7919 327.011,195.2068 322.9108,195.6195 318.8106,196.0241 314.7105,196.4245 310.6103,196.8422 306.5102,197.2935 302.41,197.7708 298.3099,198.2617 294.2097,198.7612 290.1095,199.2678 286.0094,199.7798 281.9092,200.2948 277.8091,200.8099 273.7089,201.3216 269.6088,201.8256 265.5086,202.3162 261.4085,202.7867 257.3083,203.2285 253.2081,203.6309 249.108,203.9743 245.0078,204.2623 240.9077,204.5223 236.8075,204.7738 232.7074,205.0159 228.6072,205.2431 224.507,205.4475 220.4069,205.6368 216.3067,205.8881 212.2066,206.2167 208.1064,206.5479 204.0063,206.8634 199.9061,207.1636 195.8059,207.4479 191.7058,207.7146 187.6056,207.9614 183.5055,208.185 179.4053,208.3811 175.3052,208.5446 171.205,208.669 167.1049,208.7467 163.0047,208.8161 158.9045,208.9568 154.8044,209.2901 150.7042,209.7238 146.6041,210.1815 142.5039,210.6139 138.4038,211.022 134.3036,211.4062 130.2034,211.7661 126.1033,212.1007 122.0031,212.4084 117.903,212.6871 113.8028,212.934 109.7027,213.1457 105.6025,213.3181 101.5023,213.4466 97.4022,213.5256 93.302,213.5489 89.2019,213.5091 85.1017,213.3982 81.0016,213.2072 76.9014,212.9509 72.8013,212.7157 68.7011,212.6154 64.6009,212.7995 60.5008,213.2913 56.4006,213.973 52.3005,214.7422 48.2003,215.5045 44.1002,216.2361 40,216.941"></polyline>
<text class = "party cs" x="631.1111" y="162"><tspan class="party_name">C's</tspan><tspan class="party_result"> (22.4±2.1%)</tspan></text>
<polyline id="media-pp"  class="pp media" points=" 40,261.2289 44.1002,260.9744 48.2003,260.7112 52.3005,260.4395 56.4006,260.172 60.5008,259.9496 64.6009,259.8105 68.7011,259.7991 72.8013,259.9099 76.9014,260.0892 81.0016,260.2927 85.1017,260.4782 89.2019,260.6325 93.302,260.7549 97.4022,260.8446 101.5023,260.9014 105.6025,260.9251 109.7027,260.9156 113.8028,260.873 117.903,260.7973 122.0031,260.6883 126.1033,260.5458 130.2034,260.3694 134.3036,260.1585 138.4038,259.9123 142.5039,259.6296 146.6041,259.309 150.7042,258.9485 154.8044,258.6317 158.9045,258.4847 163.0047,258.6714 167.1049,259.0081 171.205,259.3612 175.3052,259.6501 179.4053,259.8773 183.5055,260.0455 187.6056,260.157 191.7058,260.2141 195.8059,260.2187 199.9061,260.1727 204.0063,260.0778 208.1064,259.9356 212.2066,259.7478 216.3067,259.5357 220.4069,259.3627 224.507,259.1991 228.6072,258.9598 232.7074,258.6225 236.8075,258.1812 240.9077,257.7776 245.0078,257.6299 249.108,258.0423 253.2081,258.7362 257.3083,259.498 261.4085,260.1775 265.5086,260.7776 269.6088,261.3013 273.7089,261.7516 277.8091,262.1314 281.9092,262.4431 286.0094,262.6888 290.1095,262.8704 294.2097,262.9888 298.3099,263.0446 302.41,263.0375 306.5102,262.9911 310.6103,263.0001 314.7105,263.19 318.8106,263.5566 322.9108,263.9697 327.011,264.3356 331.1111,264.6337 335.2113,264.8675 339.3114,265.0403 343.4116,265.1549 347.5117,265.2142 351.6119,265.2209 355.7121,265.1747 359.8122,265.0604 363.9124,265.0526 368.0125,265.2855 372.1127,265.6059 376.2128,265.8787 380.313,266.0699 384.4131,266.1968 388.5133,266.3377 392.6135,266.4947 396.7136,266.5873 400.8138,266.6194 404.9139,266.633 409.0141,266.6778 413.1142,266.7763 417.2144,267.0458 421.3146,267.7139 425.4147,268.6107 429.5149,269.5839 433.615,270.5168 437.7152,271.4046 441.8153,272.2437 445.9155,273.0314 450.0156,273.7659 454.1158,274.4462 458.216,275.0716 462.3161,275.6419 466.4163,276.1569 470.5164,276.6455 474.6166,277.211 478.7167,277.8559 482.8169,278.4264 486.9171,278.9605 491.0172,279.598 495.1174,280.3266 499.2175,280.9937 503.3177,281.429 507.4178,281.8616 511.518,282.3086 515.6182,282.6766 519.7183,282.8898 523.8185,283.0608 527.9186,283.2472 532.0188,283.468 536.1189,283.7021 540.2191,283.9174 544.3192,284.1093 548.4194,284.2909 552.5196,284.4627 556.6197,284.6203 560.7199,284.8182 564.82,285.0577 568.9202,285.2509 573.0203,285.3582 577.1205,285.3817 581.2207,285.3604 585.3208,285.3126 589.421,285.2124 593.5211,285.0591 597.6213,284.8966 601.7214,284.7426 605.8216,284.5961 609.9218,284.4563 614.0219,284.3225 618.1221,284.194 622.2222,284.0705"></polyline>
<polyline id="error-pp" class="pp error" points=" 40,236.524 44.1002,237.1075 48.2003,237.7161 52.3005,238.3533 56.4006,238.9964 60.5008,239.5572 64.6009,239.9411 68.7011,240.0365 72.8013,239.8579 76.9014,239.5365 81.0016,239.175 85.1017,238.8573 89.2019,238.6008 93.302,238.3991 97.4022,238.2462 101.5023,238.1367 105.6025,238.0658 109.7027,238.029 113.8028,238.0224 117.903,238.0425 122.0031,238.086 126.1033,238.1503 130.2034,238.2329 134.3036,238.3317 138.4038,238.445 142.5039,238.5715 146.6041,238.71 150.7042,238.8599 154.8044,239.0217 158.9045,239.1946 163.0047,239.3836 167.1049,239.5961 171.205,239.8325 175.3052,240.0857 179.4053,240.3523 183.5055,240.6296 187.6056,240.9159 191.7058,241.2104 195.8059,241.5128 199.9061,241.8239 204.0063,242.145 208.1064,242.4788 212.2066,242.8292 216.3067,243.1447 220.4069,243.2115 224.507,243.0421 228.6072,242.8531 232.7074,242.6866 236.8075,242.5316 240.9077,242.4306 245.0078,242.4486 249.108,242.6869 253.2081,243.0617 257.3083,243.5034 261.4085,243.95 265.5086,244.3958 269.6088,244.8361 273.7089,245.2673 277.8091,245.6865 281.9092,246.0914 286.0094,246.4801 290.1095,246.851 294.2097,247.2026 298.3099,247.5333 302.41,247.8418 306.5102,248.1347 310.6103,248.445 314.7105,248.8229 318.8106,249.2785 322.9108,249.7705 327.011,250.2615 331.1111,250.7398 335.2113,251.2042 339.3114,251.6547 343.4116,252.0917 347.5117,252.5166 351.6119,252.9318 355.7121,253.2937 359.8122,253.4303 363.9124,253.4868 368.0125,253.7288 372.1127,254.0901 376.2128,254.4749 380.313,254.8552 384.4131,255.2119 388.5133,255.4915 392.6135,255.7093 396.7136,255.9174 400.8138,256.1199 404.9139,256.3145 409.0141,256.5037 413.1142,256.721 417.2144,257.0413 421.3146,257.6006 425.4147,258.3289 429.5149,259.1505 433.615,259.9949 437.7152,260.8525 441.8153,261.7151 445.9155,262.5763 450.0156,263.4305 454.1158,264.2734 458.216,265.1017 462.3161,265.913 466.4163,266.7055 470.5164,267.49 474.6166,268.3132 478.7167,269.1755 482.8169,269.9279 486.9171,270.6275 491.0172,271.4687 495.1174,272.461 499.2175,273.3709 503.3177,273.8986 507.4178,274.4486 511.518,275.0686 515.6182,275.5853 519.7183,275.8303 523.8185,276.0181 527.9186,276.2633 532.0188,276.5834 536.1189,276.9398 540.2191,277.2913 544.3192,277.619 548.4194,277.9305 552.5196,278.1948 556.6197,278.394 560.7199,278.5613 564.82,278.7165 568.9202,278.8008 573.0203,278.7659 577.1205,278.6125 581.2207,278.414 585.3208,278.1694 589.421,277.7339 593.5211,277.1432 597.6213,276.5318 601.7214,275.9404 605.8216,275.3655 609.9218,274.8048 614.0219,274.2561 618.1221,273.7179 622.2222,273.1889 622.2222,294.9521 618.1221,294.6702 614.0219,294.3889 609.9218,294.1079 605.8216,293.8267 601.7214,293.5449 597.6213,293.2614 593.5211,292.9749 589.421,292.6909 585.3208,292.4559 581.2207,292.3069 577.1205,292.151 573.0203,291.9504 568.9202,291.7011 564.82,291.3988 560.7199,291.0751 556.6197,290.8465 552.5196,290.7307 548.4194,290.6514 544.3192,290.5995 540.2191,290.5436 536.1189,290.4645 532.0188,290.3525 527.9186,290.2312 523.8185,290.1034 519.7183,289.9493 515.6182,289.7679 511.518,289.5486 507.4178,289.2746 503.3177,288.9595 499.2175,288.6165 495.1174,288.1921 491.0172,287.7272 486.9171,287.2935 482.8169,286.9248 478.7167,286.5363 474.6166,286.1088 470.5164,285.801 466.4163,285.6083 462.3161,285.3707 458.216,285.0414 454.1158,284.619 450.0156,284.1014 445.9155,283.4865 441.8153,282.7722 437.7152,281.9567 433.615,281.0386 429.5149,280.0173 425.4147,278.8926 421.3146,277.8272 417.2144,277.0502 413.1142,276.8316 409.0141,276.8519 404.9139,276.9515 400.8138,277.1188 396.7136,277.2572 392.6135,277.2801 388.5133,277.1838 384.4131,277.1818 380.313,277.2846 376.2128,277.2826 372.1127,277.1217 368.0125,276.8423 363.9124,276.6183 359.8122,276.6905 355.7121,277.0557 351.6119,277.51 347.5117,277.9118 343.4116,278.2181 339.3114,278.4259 335.2113,278.5309 331.1111,278.5277 327.011,278.4097 322.9108,278.1688 318.8106,277.8347 314.7105,277.557 310.6103,277.5552 306.5102,277.8476 302.41,278.2332 298.3099,278.556 294.2097,278.7751 290.1095,278.8897 286.0094,278.8975 281.9092,278.7947 277.8091,278.5763 273.7089,278.236 269.6088,277.7666 265.5086,277.1594 261.4085,276.4049 257.3083,275.4926 253.2081,274.4106 249.108,273.3977 245.0078,272.8111 240.9077,273.1246 236.8075,273.8307 232.7074,274.5585 228.6072,275.0665 224.507,275.3561 220.4069,275.5139 216.3067,275.9267 212.2066,276.6665 208.1064,277.3923 204.0063,278.0105 199.9061,278.5215 195.8059,278.9246 191.7058,279.2178 187.6056,279.3981 183.5055,279.4614 179.4053,279.4023 175.3052,279.2144 171.205,278.8899 167.1049,278.4201 163.0047,277.9593 158.9045,277.7749 154.8044,278.2416 150.7042,279.0371 146.6041,279.9079 142.5039,280.6877 138.4038,281.3795 134.3036,281.9853 130.2034,282.5059 126.1033,282.9413 122.0031,283.2905 117.903,283.5521 113.8028,283.7236 109.7027,283.8022 105.6025,283.7843 101.5023,283.6661 97.4022,283.4431 93.302,283.1107 89.2019,282.6643 85.1017,282.099 81.0016,281.4103 76.9014,280.6419 72.8013,279.962 68.7011,279.5617 64.6009,279.6799 60.5008,280.342 56.4006,281.3477 52.3005,282.5258 48.2003,283.7064 44.1002,284.8412 40,285.9338"></polyline>
<text class = "party pp" x="631.1111" y="298"><tspan class="party_name">PP</tspan><tspan class="party_result"> (6.1±1.3%)</tspan></text>
<polyline id="media-otros"  class="otros media" points=" 40,311.5005 44.1002,311.4798 48.2003,311.4602 52.3005,311.4418 56.4006,311.4249 60.5008,311.408 64.6009,311.3891 68.7011,311.3642 72.8013,311.3305 76.9014,311.2876 81.0016,311.2362 85.1017,311.1779 89.2019,311.1135 93.302,311.0427 97.4022,310.9655 101.5023,310.8816 105.6025,310.7907 109.7027,310.6927 113.8028,310.5871 117.903,310.4734 122.0031,310.351 126.1033,310.2194 130.2034,310.0777 134.3036,309.9249 138.4038,309.76 142.5039,309.5815 146.6041,309.3879 150.7042,309.1772 154.8044,309.0011 158.9045,308.939 163.0047,309.0966 167.1049,309.3612 171.205,309.6507 175.3052,309.9147 179.4053,310.156 183.5055,310.3772 187.6056,310.581 191.7058,310.7704 195.8059,310.948 199.9061,311.117 204.0063,311.2807 208.1064,311.4426 212.2066,311.607 216.3067,311.731 220.4069,311.636 224.507,311.3283 228.6072,310.9904 232.7074,310.6639 236.8075,310.3431 240.9077,310.0663 245.0078,309.887 249.108,309.8738 253.2081,309.9353 257.3083,310.0094 261.4085,310.0574 265.5086,310.081 269.6088,310.0817 273.7089,310.0605 277.8091,310.0182 281.9092,309.9552 286.0094,309.8715 290.1095,309.7671 294.2097,309.6414 298.3099,309.4935 302.41,309.3222 306.5102,309.142 310.6103,309.0114 314.7105,309.0045 318.8106,309.1107 322.9108,309.244 327.011,309.3455 331.1111,309.4024 335.2113,309.4163 339.3114,309.3879 343.4116,309.3172 347.5117,309.2034 351.6119,309.0444 355.7121,308.896 359.8122,308.9755 363.9124,309.306 368.0125,309.7011 372.1127,310.0787 376.2128,310.4062 380.313,310.674 384.4131,310.8967 388.5133,311.1432 392.6135,311.4269 396.7136,311.6841 400.8138,311.9269 404.9139,312.2111 409.0141,312.6138 413.1142,313.0383 417.2144,313.3967 421.3146,313.6261 425.4147,313.8033 429.5149,313.9714 433.615,314.1491 437.7152,314.3315 441.8153,314.5147 445.9155,314.6957 450.0156,314.872 454.1158,315.0419 458.216,315.2044 462.3161,315.3588 466.4163,315.505 470.5164,315.6376 474.6166,315.7278 478.7167,315.7962 482.8169,315.9054 486.9171,316.0759 491.0172,316.3084 495.1174,316.5892 499.2175,316.7793 503.3177,316.6618 507.4178,316.4545 511.518,316.3087 515.6182,316.2825 519.7183,316.4764 523.8185,316.7624 527.9186,317.0757 532.0188,317.4727 536.1189,317.9661 540.2191,318.4674 544.3192,318.9376 548.4194,319.3314 552.5196,319.5751 556.6197,319.642 560.7199,319.5514 564.82,319.3711 568.9202,319.1683 573.0203,318.9569 577.1205,318.7118 581.2207,318.4112 585.3208,318.1518 589.421,318.1512 593.5211,318.224 597.6213,318.268 601.7214,318.2942 605.8216,318.3074 609.9218,318.3108 614.0219,318.3069 618.1221,318.2972 622.2222,318.2832"></polyline>
<polyline id="error-otros" class="otros error" points=" 40,291.0403 44.1002,291.7669 48.2003,292.522 52.3005,293.3086 56.4006,294.0949 60.5008,294.7659 64.6009,295.2041 68.7011,295.2703 72.8013,294.9795 76.9014,294.4925 81.0016,293.9384 85.1017,293.43 89.2019,292.9957 93.302,292.6313 97.4022,292.3322 101.5023,292.094 105.6025,291.9124 109.7027,291.7835 113.8028,291.7034 117.903,291.6685 122.0031,291.6756 126.1033,291.7216 130.2034,291.8038 134.3036,291.9197 138.4038,292.0674 142.5039,292.2448 146.6041,292.4506 150.7042,292.6834 154.8044,292.923 158.9045,293.1396 163.0047,293.3026 167.1049,293.4649 171.205,293.6594 175.3052,293.8995 179.4053,294.1825 183.5055,294.5069 187.6056,294.8717 191.7058,295.277 195.8059,295.7235 199.9061,296.2132 204.0063,296.7488 208.1064,297.3345 212.2066,297.9762 216.3067,298.5648 220.4069,298.6737 224.507,298.3475 228.6072,298.0396 232.7074,297.8493 236.8075,297.7667 240.9077,297.743 245.0078,297.6984 249.108,297.5242 253.2081,297.2968 257.3083,297.0783 261.4085,296.9083 265.5086,296.7815 269.6088,296.6934 273.7089,296.6395 277.8091,296.6159 281.9092,296.6188 286.0094,296.645 290.1095,296.6912 294.2097,296.7546 298.3099,296.8326 302.41,296.9227 306.5102,297.0249 310.6103,297.145 314.7105,297.293 318.8106,297.4702 322.9108,297.6658 327.011,297.8689 331.1111,298.0741 335.2113,298.2792 339.3114,298.4816 343.4116,298.6793 347.5117,298.8699 351.6119,299.0507 355.7121,299.2434 359.8122,299.5427 363.9124,299.9438 368.0125,300.3594 372.1127,300.7816 376.2128,301.2125 380.313,301.6478 384.4131,302.0714 388.5133,302.4429 392.6135,302.7871 396.7136,303.151 400.8138,303.5471 404.9139,303.9954 409.0141,304.5361 413.1142,305.0766 417.2144,305.4876 421.3146,305.6217 425.4147,305.6457 429.5149,305.6716 433.615,305.7607 437.7152,305.9042 441.8153,306.0948 445.9155,306.3261 450.0156,306.5927 454.1158,306.8904 458.216,307.2155 462.3161,307.5655 466.4163,307.9389 470.5164,308.314 474.6166,308.6108 478.7167,308.8493 482.8169,309.1024 486.9171,309.4066 491.0172,309.8052 495.1174,310.3022 499.2175,310.6884 503.3177,310.6336 507.4178,310.5068 511.518,310.4904 515.6182,310.5799 519.7183,310.8036 523.8185,311.1114 527.9186,311.4822 532.0188,311.9731 536.1189,312.5828 540.2191,313.2124 544.3192,313.8096 548.4194,314.3221 552.5196,314.648 556.6197,314.7488 560.7199,314.6258 564.82,314.3644 568.9202,314.0599 573.0203,313.7203 577.1205,313.3178 581.2207,312.8578 585.3208,312.4244 589.421,312.1449 593.5211,311.8568 597.6213,311.5283 601.7214,311.1899 605.8216,310.8446 609.9218,310.4944 614.0219,310.1407 618.1221,309.7845 622.2222,309.4265 622.2222,327.1399 618.1221,326.81 614.0219,326.4731 609.9218,326.1273 605.8216,325.7703 601.7214,325.3985 597.6213,325.0077 593.5211,324.5912 589.421,324.1575 585.3208,323.8793 581.2207,323.9646 577.1205,324.1057 573.0203,324.1935 568.9202,324.2768 564.82,324.3777 560.7199,324.4771 556.6197,324.5352 552.5196,324.5021 548.4194,324.3407 544.3192,324.0657 540.2191,323.7224 536.1189,323.3494 532.0188,322.9723 527.9186,322.6693 523.8185,322.4134 519.7183,322.1492 515.6182,321.9851 511.518,322.1271 507.4178,322.4022 503.3177,322.6899 499.2175,322.8703 495.1174,322.8762 491.0172,322.8116 486.9171,322.7451 482.8169,322.7083 478.7167,322.7432 474.6166,322.8448 470.5164,322.9612 466.4163,323.0711 462.3161,323.1521 458.216,323.1933 454.1158,323.1935 450.0156,323.1512 445.9155,323.0653 441.8153,322.9347 437.7152,322.7588 433.615,322.5375 429.5149,322.2712 425.4147,321.961 421.3146,321.6306 417.2144,321.3058 413.1142,320.9999 409.0141,320.6915 404.9139,320.4268 400.8138,320.3067 396.7136,320.2172 392.6135,320.0667 388.5133,319.8436 384.4131,319.7219 380.313,319.7002 376.2128,319.6 372.1127,319.3758 368.0125,319.0428 363.9124,318.6683 359.8122,318.4083 355.7121,318.5486 351.6119,319.0381 347.5117,319.5368 343.4116,319.9551 339.3114,320.2941 335.2113,320.5534 331.1111,320.7306 327.011,320.8221 322.9108,320.8222 318.8106,320.7513 314.7105,320.716 310.6103,320.8778 306.5102,321.2592 302.41,321.7217 298.3099,322.1544 294.2097,322.5281 290.1095,322.843 286.0094,323.0981 281.9092,323.2915 277.8091,323.4205 273.7089,323.4815 269.6088,323.47 265.5086,323.3805 261.4085,323.2065 257.3083,322.9405 253.2081,322.5739 249.108,322.2234 245.0078,322.0756 240.9077,322.3896 236.8075,322.9194 232.7074,323.4784 228.6072,323.9413 224.507,324.309 220.4069,324.5983 216.3067,324.8971 212.2066,325.2379 208.1064,325.5506 204.0063,325.8126 199.9061,326.0209 195.8059,326.1725 191.7058,326.2638 187.6056,326.2904 183.5055,326.2474 179.4053,326.1294 175.3052,325.93 171.205,325.642 167.1049,325.2576 163.0047,324.8905 158.9045,324.7384 154.8044,325.0791 150.7042,325.6711 146.6041,326.3252 142.5039,326.9182 138.4038,327.4526 134.3036,327.9301 130.2034,328.3516 126.1033,328.7173 122.0031,329.0265 117.903,329.2782 113.8028,329.4707 109.7027,329.6019 105.6025,329.6691 101.5023,329.6692 97.4022,329.5988 93.302,329.4541 89.2019,329.2312 85.1017,328.9259 81.0016,328.534 76.9014,328.0828 72.8013,327.6815 68.7011,327.4582 64.6009,327.5741 60.5008,328.0501 56.4006,328.7548 52.3005,329.5751 48.2003,330.3983 44.1002,331.1928 40,331.9607"></polyline>
<text class = "party otros" x="631.1111" y="318"><tspan class="party_name">Otros</tspan><tspan class="party_result"> (1.9±1.1%)</tspan></text>
<g id="encuesta-1">
<circle id="encuesta-1-cup" class="encuesta gesop cup" cx="589.421" cy="288.8889" r="2.8284" ></circle>
<circle id="encuesta-1-erc" class="encuesta gesop erc" cx="589.421" cy="153.9394" r="2.8284" ></circle>
<circle id="encuesta-1-jxcat" class="encuesta gesop jxcat" cx="589.421" cy="188.6869" r="2.8284" ></circle>
<circle id="encuesta-1-cec" class="encuesta gesop cec" cx="589.421" cy="261.4141" r="2.8284" ></circle>
<circle id="encuesta-1-psc" class="encuesta gesop psc" cx="589.421" cy="196.7677" r="2.8284" ></circle>
<circle id="encuesta-1-cs" class="encuesta gesop cs" cx="589.421" cy="162.0202" r="2.8284" ></circle>
<circle id="encuesta-1-pp" class="encuesta gesop pp" cx="589.421" cy="288.0808" r="2.8284" ></circle>
<circle id="encuesta-1-otros" class="encuesta gesop otros" cx="589.421" cy="318.7879" r="2.8284" ></circle>
</g>
<g id="encuesta-2">
<circle id="encuesta-2-cup" class="encuesta sigmados cup" cx="585.3208" cy="281.6162" r="3.937" ></circle>
<circle id="encuesta-2-erc" class="encuesta sigmados erc" cx="585.3208" cy="151.5152" r="3.937" ></circle>
<circle id="encuesta-2-jxcat" class="encuesta sigmados jxcat" cx="585.3208" cy="199.1919" r="3.937" ></circle>
<circle id="encuesta-2-cec" class="encuesta sigmados cec" cx="585.3208" cy="271.1111" r="3.937" ></circle>
<circle id="encuesta-2-psc" class="encuesta sigmados psc" cx="585.3208" cy="208.8889" r="3.937" ></circle>
<circle id="encuesta-2-cs" class="encuesta sigmados cs" cx="585.3208" cy="149.0909" r="3.937" ></circle>
<circle id="encuesta-2-pp" class="encuesta sigmados pp" cx="585.3208" cy="286.4646" r="3.937" ></circle>
<circle id="encuesta-2-otros" class="encuesta sigmados otros" cx="585.3208" cy="310.7071" r="3.937" ></circle>
</g>
<g id="encuesta-3">
<circle id="encuesta-3-cup" class="encuesta metroscopica cup" cx="573.0203" cy="281.6162" r="5.7446" ></circle>
<circle id="encuesta-3-erc" class="encuesta metroscopica erc" cx="573.0203" cy="146.6667" r="5.7446" ></circle>
<circle id="encuesta-3-jxcat" class="encuesta metroscopica jxcat" cx="573.0203" cy="217.7778" r="5.7446" ></circle>
<circle id="encuesta-3-cec" class="encuesta metroscopica cec" cx="573.0203" cy="258.1818" r="5.7446" ></circle>
<circle id="encuesta-3-psc" class="encuesta metroscopica psc" cx="573.0203" cy="217.7778" r="5.7446" ></circle>
<circle id="encuesta-3-cs" class="encuesta metroscopica cs" cx="573.0203" cy="129.697" r="5.7446" ></circle>
<circle id="encuesta-3-pp" class="encuesta metroscopica pp" cx="573.0203" cy="289.697" r="5.7446" ></circle>
<circle id="encuesta-3-otros" class="encuesta metroscopica otros" cx="573.0203" cy="317.1717" r="5.7446" ></circle>
</g>
<g id="encuesta-4">
<circle id="encuesta-4-cup" class="encuesta sociometrica cup" cx="564.82" cy="290.5051" r="3.3166" ></circle>
<circle id="encuesta-4-erc" class="encuesta sociometrica erc" cx="564.82" cy="159.596" r="3.3166" ></circle>
<circle id="encuesta-4-jxcat" class="encuesta sociometrica jxcat" cx="564.82" cy="166.8687" r="3.3166" ></circle>
<circle id="encuesta-4-cec" class="encuesta sociometrica cec" cx="564.82" cy="259.798" r="3.3166" ></circle>
<circle id="encuesta-4-psc" class="encuesta sociometrica psc" cx="564.82" cy="215.3535" r="3.3166" ></circle>
<circle id="encuesta-4-cs" class="encuesta sociometrica cs" cx="564.82" cy="156.3636" r="3.3166" ></circle>
<circle id="encuesta-4-pp" class="encuesta sociometrica pp" cx="564.82" cy="292.9293" r="3.3166" ></circle>
<circle id="encuesta-4-otros" class="encuesta sociometrica otros" cx="564.82" cy="317.1717" r="3.3166" ></circle>
</g>
<g id="encuesta-5">
<circle id="encuesta-5-cup" class="encuesta feedback cup" cx="573.0203" cy="271.1111" r="3.1623" ></circle>
<circle id="encuesta-5-erc" class="encuesta feedback erc" cx="573.0203" cy="164.4444" r="3.1623" ></circle>
<circle id="encuesta-5-jxcat" class="encuesta feedback jxcat" cx="573.0203" cy="185.4545" r="3.1623" ></circle>
<circle id="encuesta-5-cec" class="encuesta feedback cec" cx="573.0203" cy="267.0707" r="3.1623" ></circle>
<circle id="encuesta-5-psc" class="encuesta feedback psc" cx="573.0203" cy="210.5051" r="3.1623" ></circle>
<circle id="encuesta-5-cs" class="encuesta feedback cs" cx="573.0203" cy="142.6263" r="3.1623" ></circle>
<circle id="encuesta-5-pp" class="encuesta feedback pp" cx="573.0203" cy="289.697" r="3.1623" ></circle>
<circle id="encuesta-5-otros" class="encuesta feedback otros" cx="573.0203" cy="327.6768" r="3.1623" ></circle>
</g>
<g id="encuesta-6">
<circle id="encuesta-6-cup" class="encuesta sociometrica cup" cx="556.6197" cy="285.6566" r="3.3166" ></circle>
<circle id="encuesta-6-erc" class="encuesta sociometrica erc" cx="556.6197" cy="160.404" r="3.3166" ></circle>
<circle id="encuesta-6-jxcat" class="encuesta sociometrica jxcat" cx="556.6197" cy="161.2121" r="3.3166" ></circle>
<circle id="encuesta-6-cec" class="encuesta sociometrica cec" cx="556.6197" cy="267.0707" r="3.3166" ></circle>
<circle id="encuesta-6-psc" class="encuesta sociometrica psc" cx="556.6197" cy="219.3939" r="3.3166" ></circle>
<circle id="encuesta-6-cs" class="encuesta sociometrica cs" cx="556.6197" cy="162.0202" r="3.3166" ></circle>
<circle id="encuesta-6-pp" class="encuesta sociometrica pp" cx="556.6197" cy="284.0404" r="3.3166" ></circle>
<circle id="encuesta-6-otros" class="encuesta sociometrica otros" cx="556.6197" cy="318.7879" r="3.3166" ></circle>
</g>
<g id="encuesta-7">
<circle id="encuesta-7-cup" class="encuesta feedback cup" cx="556.6197" cy="273.5354" r="3.1623" ></circle>
<circle id="encuesta-7-erc" class="encuesta feedback erc" cx="556.6197" cy="153.1313" r="3.1623" ></circle>
<circle id="encuesta-7-jxcat" class="encuesta feedback jxcat" cx="556.6197" cy="180.6061" r="3.1623" ></circle>
<circle id="encuesta-7-cec" class="encuesta feedback cec" cx="556.6197" cy="273.5354" r="3.1623" ></circle>
<circle id="encuesta-7-psc" class="encuesta feedback psc" cx="556.6197" cy="204.8485" r="3.1623" ></circle>
<circle id="encuesta-7-cs" class="encuesta feedback cs" cx="556.6197" cy="161.2121" r="3.1623" ></circle>
<circle id="encuesta-7-pp" class="encuesta feedback pp" cx="556.6197" cy="284.0404" r="3.1623" ></circle>
<circle id="encuesta-7-otros" class="encuesta feedback otros" cx="556.6197" cy="327.6768" r="3.1623" ></circle>
</g>
<g id="encuesta-8">
<circle id="encuesta-8-cup" class="encuesta infortecnica cup" cx="552.5196" cy="282.4242" r="3.4871" ></circle>
<circle id="encuesta-8-erc" class="encuesta infortecnica erc" cx="552.5196" cy="145.0505" r="3.4871" ></circle>
<circle id="encuesta-8-jxcat" class="encuesta infortecnica jxcat" cx="552.5196" cy="180.6061" r="3.4871" ></circle>
<circle id="encuesta-8-cec" class="encuesta infortecnica cec" cx="552.5196" cy="291.3131" r="3.4871" ></circle>
<circle id="encuesta-8-psc" class="encuesta infortecnica psc" cx="552.5196" cy="201.6162" r="3.4871" ></circle>
<circle id="encuesta-8-cs" class="encuesta infortecnica cs" cx="552.5196" cy="136.1616" r="3.4871" ></circle>
<circle id="encuesta-8-pp" class="encuesta infortecnica pp" cx="552.5196" cy="288.0808" r="3.4871" ></circle>
<circle id="encuesta-8-otros" class="encuesta infortecnica otros" cx="552.5196" cy="333.3333" r="3.4871" ></circle>
</g>
<g id="encuesta-9">
<circle id="encuesta-9-cup" class="encuesta celeste-tel cup" cx="552.5196" cy="280" r="2.8284" ></circle>
<circle id="encuesta-9-erc" class="encuesta celeste-tel erc" cx="552.5196" cy="148.2828" r="2.8284" ></circle>
<circle id="encuesta-9-jxcat" class="encuesta celeste-tel jxcat" cx="552.5196" cy="202.4242" r="2.8284" ></circle>
<circle id="encuesta-9-cec" class="encuesta celeste-tel cec" cx="552.5196" cy="267.8788" r="2.8284" ></circle>
<circle id="encuesta-9-psc" class="encuesta celeste-tel psc" cx="552.5196" cy="203.2323" r="2.8284" ></circle>
<circle id="encuesta-9-cs" class="encuesta celeste-tel cs" cx="552.5196" cy="153.9394" r="2.8284" ></circle>
<circle id="encuesta-9-pp" class="encuesta celeste-tel pp" cx="552.5196" cy="279.1919" r="2.8284" ></circle>
<circle id="encuesta-9-otros" class="encuesta celeste-tel otros" cx="552.5196" cy="323.6364" r="2.8284" ></circle>
</g>
<g id="encuesta-10">
<circle id="encuesta-10-cup" class="encuesta sociometrica cup" cx="548.4194" cy="288.8889" r="3.3166" ></circle>
<circle id="encuesta-10-erc" class="encuesta sociometrica erc" cx="548.4194" cy="151.5152" r="3.3166" ></circle>
<circle id="encuesta-10-jxcat" class="encuesta sociometrica jxcat" cx="548.4194" cy="173.3333" r="3.3166" ></circle>
<circle id="encuesta-10-cec" class="encuesta sociometrica cec" cx="548.4194" cy="273.5354" r="3.3166" ></circle>
<circle id="encuesta-10-psc" class="encuesta sociometrica psc" cx="548.4194" cy="216.9697" r="3.3166" ></circle>
<circle id="encuesta-10-cs" class="encuesta sociometrica cs" cx="548.4194" cy="159.596" r="3.3166" ></circle>
<circle id="encuesta-10-pp" class="encuesta sociometrica pp" cx="548.4194" cy="289.697" r="3.3166" ></circle>
<circle id="encuesta-10-otros" class="encuesta sociometrica otros" cx="548.4194" cy="305.0505" r="3.3166" ></circle>
</g>
<g id="encuesta-11">
<circle id="encuesta-11-cup" class="encuesta gad3 cup" cx="560.7199" cy="292.9293" r="3.1623" ></circle>
<circle id="encuesta-11-erc" class="encuesta gad3 erc" cx="560.7199" cy="159.596" r="3.1623" ></circle>
<circle id="encuesta-11-jxcat" class="encuesta gad3 jxcat" cx="560.7199" cy="186.2626" r="3.1623" ></circle>
<circle id="encuesta-11-cec" class="encuesta gad3 cec" cx="560.7199" cy="273.5354" r="3.1623" ></circle>
<circle id="encuesta-11-psc" class="encuesta gad3 psc" cx="560.7199" cy="200" r="3.1623" ></circle>
<circle id="encuesta-11-cs" class="encuesta gad3 cs" cx="560.7199" cy="146.6667" r="3.1623" ></circle>
<circle id="encuesta-11-pp" class="encuesta gad3 pp" cx="560.7199" cy="275.9596" r="3.1623" ></circle>
<circle id="encuesta-11-otros" class="encuesta gad3 otros" cx="560.7199" cy="323.6364" r="3.1623" ></circle>
</g>
<g id="encuesta-12">
<circle id="encuesta-12-cup" class="encuesta feedback cup" cx="556.6197" cy="275.9596" r="3" ></circle>
<circle id="encuesta-12-erc" class="encuesta feedback erc" cx="556.6197" cy="146.6667" r="3" ></circle>
<circle id="encuesta-12-jxcat" class="encuesta feedback jxcat" cx="556.6197" cy="195.9596" r="3" ></circle>
<circle id="encuesta-12-cec" class="encuesta feedback cec" cx="556.6197" cy="268.6869" r="3" ></circle>
<circle id="encuesta-12-psc" class="encuesta feedback psc" cx="556.6197" cy="209.697" r="3" ></circle>
<circle id="encuesta-12-cs" class="encuesta feedback cs" cx="556.6197" cy="147.4747" r="3" ></circle>
<circle id="encuesta-12-pp" class="encuesta feedback pp" cx="556.6197" cy="288.8889" r="3" ></circle>
<circle id="encuesta-12-otros" class="encuesta feedback otros" cx="556.6197" cy="325.2525" r="3" ></circle>
</g>
<g id="encuesta-13">
<circle id="encuesta-13-cup" class="encuesta feedback cup" cx="548.4194" cy="281.6162" r="3.1623" ></circle>
<circle id="encuesta-13-erc" class="encuesta feedback erc" cx="548.4194" cy="139.3939" r="3.1623" ></circle>
<circle id="encuesta-13-jxcat" class="encuesta feedback jxcat" cx="548.4194" cy="195.1515" r="3.1623" ></circle>
<circle id="encuesta-13-cec" class="encuesta feedback cec" cx="548.4194" cy="258.1818" r="3.1623" ></circle>
<circle id="encuesta-13-psc" class="encuesta feedback psc" cx="548.4194" cy="224.2424" r="3.1623" ></circle>
<circle id="encuesta-13-cs" class="encuesta feedback cs" cx="548.4194" cy="149.0909" r="3.1623" ></circle>
<circle id="encuesta-13-pp" class="encuesta feedback pp" cx="548.4194" cy="283.2323" r="3.1623" ></circle>
<circle id="encuesta-13-otros" class="encuesta feedback otros" cx="548.4194" cy="327.6768" r="3.1623" ></circle>
</g>
<g id="encuesta-14">
<circle id="encuesta-14-cup" class="encuesta gesop cup" cx="540.2191" cy="284.8485" r="2.8284" ></circle>
<circle id="encuesta-14-erc" class="encuesta gesop erc" cx="540.2191" cy="167.6768" r="2.8284" ></circle>
<circle id="encuesta-14-jxcat" class="encuesta gesop jxcat" cx="540.2191" cy="177.3737" r="2.8284" ></circle>
<circle id="encuesta-14-cec" class="encuesta gesop cec" cx="540.2191" cy="264.6465" r="2.8284" ></circle>
<circle id="encuesta-14-psc" class="encuesta gesop psc" cx="540.2191" cy="179.798" r="2.8284" ></circle>
<circle id="encuesta-14-cs" class="encuesta gesop cs" cx="540.2191" cy="179.798" r="2.8284" ></circle>
<circle id="encuesta-14-pp" class="encuesta gesop pp" cx="540.2191" cy="286.4646" r="2.8284" ></circle>
<circle id="encuesta-14-otros" class="encuesta gesop otros" cx="540.2191" cy="317.9798" r="2.8284" ></circle>
</g>
<g id="encuesta-15">
<circle id="encuesta-15-cup" class="encuesta sociometrica cup" cx="532.0188" cy="284.8485" r="2.8284" ></circle>
<circle id="encuesta-15-erc" class="encuesta sociometrica erc" cx="532.0188" cy="146.6667" r="2.8284" ></circle>
<circle id="encuesta-15-jxcat" class="encuesta sociometrica jxcat" cx="532.0188" cy="179.798" r="2.8284" ></circle>
<circle id="encuesta-15-cec" class="encuesta sociometrica cec" cx="532.0188" cy="281.6162" r="2.8284" ></circle>
<circle id="encuesta-15-psc" class="encuesta sociometrica psc" cx="532.0188" cy="210.5051" r="2.8284" ></circle>
<circle id="encuesta-15-cs" class="encuesta sociometrica cs" cx="532.0188" cy="167.6768" r="2.8284" ></circle>
<circle id="encuesta-15-pp" class="encuesta sociometrica pp" cx="532.0188" cy="283.2323" r="2.8284" ></circle>
<circle id="encuesta-15-otros" class="encuesta sociometrica otros" cx="532.0188" cy="304.2424" r="2.8284" ></circle>
</g>
<g id="encuesta-16">
<circle id="encuesta-16-cup" class="encuesta cis cup" cx="515.6182" cy="279.1919" r="5.4772" ></circle>
<circle id="encuesta-16-erc" class="encuesta cis erc" cx="515.6182" cy="165.2525" r="5.4772" ></circle>
<circle id="encuesta-16-jxcat" class="encuesta cis jxcat" cx="515.6182" cy="196.7677" r="5.4772" ></circle>
<circle id="encuesta-16-cec" class="encuesta cis cec" cx="515.6182" cy="263.8384" r="5.4772" ></circle>
<circle id="encuesta-16-psc" class="encuesta cis psc" cx="515.6182" cy="204.0404" r="5.4772" ></circle>
<circle id="encuesta-16-cs" class="encuesta cis cs" cx="515.6182" cy="151.5152" r="5.4772" ></circle>
<circle id="encuesta-16-pp" class="encuesta cis pp" cx="515.6182" cy="286.4646" r="5.4772" ></circle>
<circle id="encuesta-16-otros" class="encuesta cis otros" cx="515.6182" cy="311.5152" r="5.4772" ></circle>
</g>
<g id="encuesta-17">
<circle id="encuesta-17-cup" class="encuesta nc_report cup" cx="486.9171" cy="287.2727" r="3.1623" ></circle>
<circle id="encuesta-17-erc" class="encuesta nc_report erc" cx="486.9171" cy="138.5859" r="3.1623" ></circle>
<circle id="encuesta-17-jxcat" class="encuesta nc_report jxcat" cx="486.9171" cy="223.4343" r="3.1623" ></circle>
<circle id="encuesta-17-cec" class="encuesta nc_report cec" cx="486.9171" cy="265.4545" r="3.1623" ></circle>
<circle id="encuesta-17-psc" class="encuesta nc_report psc" cx="486.9171" cy="214.5455" r="3.1623" ></circle>
<circle id="encuesta-17-cs" class="encuesta nc_report cs" cx="486.9171" cy="164.4444" r="3.1623" ></circle>
<circle id="encuesta-17-pp" class="encuesta nc_report pp" cx="486.9171" cy="258.1818" r="3.1623" ></circle>
<circle id="encuesta-17-otros" class="encuesta nc_report otros" cx="486.9171" cy="306.6667" r="3.1623" ></circle>
</g>
<g id="encuesta-18">
<circle id="encuesta-18-cup" class="encuesta metroscopica cup" cx="499.2175" cy="285.6566" r="4.2426" ></circle>
<circle id="encuesta-18-erc" class="encuesta metroscopica erc" cx="499.2175" cy="119.1919" r="4.2426" ></circle>
<circle id="encuesta-18-jxcat" class="encuesta metroscopica jxcat" cx="499.2175" cy="223.4343" r="4.2426" ></circle>
<circle id="encuesta-18-cec" class="encuesta metroscopica cec" cx="499.2175" cy="279.1919" r="4.2426" ></circle>
<circle id="encuesta-18-psc" class="encuesta metroscopica psc" cx="499.2175" cy="212.9293" r="4.2426" ></circle>
<circle id="encuesta-18-cs" class="encuesta metroscopica cs" cx="499.2175" cy="128.8889" r="4.2426" ></circle>
<circle id="encuesta-18-pp" class="encuesta metroscopica pp" cx="499.2175" cy="286.4646" r="4.2426" ></circle>
<circle id="encuesta-18-otros" class="encuesta metroscopica otros" cx="499.2175" cy="322.8283" r="4.2426" ></circle>
</g>
<g id="encuesta-19">
<circle id="encuesta-19-cup" class="encuesta gesop cup" cx="482.8169" cy="282.4242" r="2.8284" ></circle>
<circle id="encuesta-19-erc" class="encuesta gesop erc" cx="482.8169" cy="140.202" r="2.8284" ></circle>
<circle id="encuesta-19-jxcat" class="encuesta gesop jxcat" cx="482.8169" cy="200" r="2.8284" ></circle>
<circle id="encuesta-19-cec" class="encuesta gesop cec" cx="482.8169" cy="263.8384" r="2.8284" ></circle>
<circle id="encuesta-19-psc" class="encuesta gesop psc" cx="482.8169" cy="187.0707" r="2.8284" ></circle>
<circle id="encuesta-19-cs" class="encuesta gesop cs" cx="482.8169" cy="183.0303" r="2.8284" ></circle>
<circle id="encuesta-19-pp" class="encuesta gesop pp" cx="482.8169" cy="287.2727" r="2.8284" ></circle>
<circle id="encuesta-19-otros" class="encuesta gesop otros" cx="482.8169" cy="314.7475" r="2.8284" ></circle>
</g>
<g id="encuesta-20">
<circle id="encuesta-20-cup" class="encuesta gad3 cup" cx="474.6166" cy="288.0808" r="2.8302" ></circle>
<circle id="encuesta-20-erc" class="encuesta gad3 erc" cx="474.6166" cy="146.6667" r="2.8302" ></circle>
<circle id="encuesta-20-jxcat" class="encuesta gad3 jxcat" cx="474.6166" cy="198.3838" r="2.8302" ></circle>
<circle id="encuesta-20-cec" class="encuesta gad3 cec" cx="474.6166" cy="271.9192" r="2.8302" ></circle>
<circle id="encuesta-20-psc" class="encuesta gad3 psc" cx="474.6166" cy="211.3131" r="2.8302" ></circle>
<circle id="encuesta-20-cs" class="encuesta gad3 cs" cx="474.6166" cy="153.1313" r="2.8302" ></circle>
<circle id="encuesta-20-pp" class="encuesta gad3 pp" cx="474.6166" cy="270.303" r="2.8302" ></circle>
<circle id="encuesta-20-otros" class="encuesta gad3 otros" cx="474.6166" cy="318.7879" r="2.8302" ></circle>
</g>
<g id="encuesta-21">
<circle id="encuesta-21-cup" class="encuesta nc_report cup" cx="417.2144" cy="282.4242" r="3.1623" ></circle>
<circle id="encuesta-21-erc" class="encuesta nc_report erc" cx="417.2144" cy="120.8081" r="3.1623" ></circle>
<circle id="encuesta-21-jxcat" class="encuesta nc_report jxcat" cx="417.2144" cy="246.8687" r="3.1623" ></circle>
<circle id="encuesta-21-cec" class="encuesta nc_report cec" cx="417.2144" cy="249.2929" r="3.1623" ></circle>
<circle id="encuesta-21-psc" class="encuesta nc_report psc" cx="417.2144" cy="223.4343" r="3.1623" ></circle>
<circle id="encuesta-21-cs" class="encuesta nc_report cs" cx="417.2144" cy="174.9495" r="3.1623" ></circle>
<circle id="encuesta-21-pp" class="encuesta nc_report pp" cx="417.2144" cy="248.4848" r="3.1623" ></circle>
<circle id="encuesta-21-otros" class="encuesta nc_report otros" cx="417.2144" cy="312.3232" r="3.1623" ></circle>
</g>
<g id="encuesta-22">
<circle id="encuesta-22-cup" class="encuesta gad3 cup" cx="417.2144" cy="282.4242" r="3.5114" ></circle>
<circle id="encuesta-22-erc" class="encuesta gad3 erc" cx="417.2144" cy="96.5657" r="3.5114" ></circle>
<circle id="encuesta-22-jxcat" class="encuesta gad3 jxcat" cx="417.2144" cy="249.2929" r="3.5114" ></circle>
<circle id="encuesta-22-cec" class="encuesta gad3 cec" cx="417.2144" cy="266.2626" r="3.5114" ></circle>
<circle id="encuesta-22-psc" class="encuesta gad3 psc" cx="417.2144" cy="215.3535" r="3.5114" ></circle>
<circle id="encuesta-22-cs" class="encuesta gad3 cs" cx="417.2144" cy="166.8687" r="3.5114" ></circle>
<circle id="encuesta-22-pp" class="encuesta gad3 pp" cx="417.2144" cy="263.0303" r="3.5114" ></circle>
<circle id="encuesta-22-otros" class="encuesta gad3 otros" cx="417.2144" cy="318.7879" r="3.5114" ></circle>
</g>
<g id="encuesta-23">
<circle id="encuesta-23-cup" class="encuesta sociometrica cup" cx="404.9139" cy="287.2727" r="3.1623" ></circle>
<circle id="encuesta-23-erc" class="encuesta sociometrica erc" cx="404.9139" cy="81.2121" r="3.1623" ></circle>
<circle id="encuesta-23-jxcat" class="encuesta sociometrica jxcat" cx="404.9139" cy="251.7172" r="3.1623" ></circle>
<circle id="encuesta-23-cec" class="encuesta sociometrica cec" cx="404.9139" cy="252.5253" r="3.1623" ></circle>
<circle id="encuesta-23-psc" class="encuesta sociometrica psc" cx="404.9139" cy="234.7475" r="3.1623" ></circle>
<circle id="encuesta-23-cs" class="encuesta sociometrica cs" cx="404.9139" cy="185.4545" r="3.1623" ></circle>
<circle id="encuesta-23-pp" class="encuesta sociometrica pp" cx="404.9139" cy="260.6061" r="3.1623" ></circle>
<circle id="encuesta-23-otros" class="encuesta sociometrica otros" cx="404.9139" cy="305.0505" r="3.1623" ></circle>
</g>
<g id="encuesta-24">
<circle id="encuesta-24-cup" class="encuesta sigmados cup" cx="388.5133" cy="282.4242" r="3.1623" ></circle>
<circle id="encuesta-24-erc" class="encuesta sigmados erc" cx="388.5133" cy="120" r="3.1623" ></circle>
<circle id="encuesta-24-jxcat" class="encuesta sigmados jxcat" cx="388.5133" cy="254.1414" r="3.1623" ></circle>
<circle id="encuesta-24-cec" class="encuesta sigmados cec" cx="388.5133" cy="244.4444" r="3.1623" ></circle>
<circle id="encuesta-24-psc" class="encuesta sigmados psc" cx="388.5133" cy="211.3131" r="3.1623" ></circle>
<circle id="encuesta-24-cs" class="encuesta sigmados cs" cx="388.5133" cy="174.9495" r="3.1623" ></circle>
<circle id="encuesta-24-pp" class="encuesta sigmados pp" cx="388.5133" cy="263.0303" r="3.1623" ></circle>
<circle id="encuesta-24-otros" class="encuesta sigmados otros" cx="388.5133" cy="308.2828" r="3.1623" ></circle>
</g>
<g id="encuesta-25">
<circle id="encuesta-25-cup" class="encuesta nc_report cup" cx="363.9124" cy="288.0808" r="3.1623" ></circle>
<circle id="encuesta-25-erc" class="encuesta nc_report erc" cx="363.9124" cy="134.5455" r="3.1623" ></circle>
<circle id="encuesta-25-jxcat" class="encuesta nc_report jxcat" cx="363.9124" cy="235.5556" r="3.1623" ></circle>
<circle id="encuesta-25-cec" class="encuesta nc_report cec" cx="363.9124" cy="241.2121" r="3.1623" ></circle>
<circle id="encuesta-25-psc" class="encuesta nc_report psc" cx="363.9124" cy="227.4747" r="3.1623" ></circle>
<circle id="encuesta-25-cs" class="encuesta nc_report cs" cx="363.9124" cy="178.1818" r="3.1623" ></circle>
<circle id="encuesta-25-pp" class="encuesta nc_report pp" cx="363.9124" cy="248.4848" r="3.1623" ></circle>
<circle id="encuesta-25-otros" class="encuesta nc_report otros" cx="363.9124" cy="305.0505" r="3.1623" ></circle>
</g>
<g id="encuesta-26">
<circle id="encuesta-26-cup" class="encuesta gesop cup" cx="359.8122" cy="270.303" r="2.8284" ></circle>
<circle id="encuesta-26-erc" class="encuesta gesop erc" cx="359.8122" cy="106.2626" r="2.8284" ></circle>
<circle id="encuesta-26-jxcat" class="encuesta gesop jxcat" cx="359.8122" cy="236.3636" r="2.8284" ></circle>
<circle id="encuesta-26-cec" class="encuesta gesop cec" cx="359.8122" cy="260.6061" r="2.8284" ></circle>
<circle id="encuesta-26-psc" class="encuesta gesop psc" cx="359.8122" cy="216.1616" r="2.8284" ></circle>
<circle id="encuesta-26-cs" class="encuesta gesop cs" cx="359.8122" cy="197.5758" r="2.8284" ></circle>
<circle id="encuesta-26-pp" class="encuesta gesop pp" cx="359.8122" cy="272.7273" r="2.8284" ></circle>
<circle id="encuesta-26-otros" class="encuesta gesop otros" cx="359.8122" cy="298.5859" r="2.8284" ></circle>
</g>
<g id="encuesta-27">
<circle id="encuesta-27-cup" class="encuesta sociometrica cup" cx="314.7105" cy="282.4242" r="2.8284" ></circle>
<circle id="encuesta-27-erc" class="encuesta sociometrica erc" cx="314.7105" cy="76.3636" r="2.8284" ></circle>
<circle id="encuesta-27-jxcat" class="encuesta sociometrica jxcat" cx="314.7105" cy="267.8788" r="2.8284" ></circle>
<circle id="encuesta-27-cec" class="encuesta sociometrica cec" cx="314.7105" cy="236.3636" r="2.8284" ></circle>
<circle id="encuesta-27-psc" class="encuesta sociometrica psc" cx="314.7105" cy="256.5657" r="2.8284" ></circle>
<circle id="encuesta-27-cs" class="encuesta sociometrica cs" cx="314.7105" cy="185.4545" r="2.8284" ></circle>
<circle id="encuesta-27-pp" class="encuesta sociometrica pp" cx="314.7105" cy="251.7172" r="2.8284" ></circle>
<circle id="encuesta-27-otros" class="encuesta sociometrica otros" cx="314.7105" cy="301.8182" r="2.8284" ></circle>
</g>
<g id="encuesta-28">
<circle id="encuesta-28-cup" class="encuesta nc_report cup" cx="245.0078" cy="288.0808" r="3.5426" ></circle>
<circle id="encuesta-28-erc" class="encuesta nc_report erc" cx="245.0078" cy="130.5051" r="3.5426" ></circle>
<circle id="encuesta-28-jxcat" class="encuesta nc_report jxcat" cx="245.0078" cy="230.7071" r="3.5426" ></circle>
<circle id="encuesta-28-cec" class="encuesta nc_report cec" cx="245.0078" cy="239.596" r="3.5426" ></circle>
<circle id="encuesta-28-psc" class="encuesta nc_report psc" cx="245.0078" cy="222.6263" r="3.5426" ></circle>
<circle id="encuesta-28-cs" class="encuesta nc_report cs" cx="245.0078" cy="194.3434" r="3.5426" ></circle>
<circle id="encuesta-28-pp" class="encuesta nc_report pp" cx="245.0078" cy="246.0606" r="3.5426" ></circle>
<circle id="encuesta-28-otros" class="encuesta nc_report otros" cx="245.0078" cy="306.6667" r="3.5426" ></circle>
</g>
<g id="encuesta-29">
<circle id="encuesta-29-cup" class="encuesta celeste-tel cup" cx="220.4069" cy="285.6566" r="2.8284" ></circle>
<circle id="encuesta-29-erc" class="encuesta celeste-tel erc" cx="220.4069" cy="133.7374" r="2.8284" ></circle>
<circle id="encuesta-29-jxcat" class="encuesta celeste-tel jxcat" cx="220.4069" cy="223.4343" r="2.8284" ></circle>
<circle id="encuesta-29-cec" class="encuesta celeste-tel cec" cx="220.4069" cy="234.7475" r="2.8284" ></circle>
<circle id="encuesta-29-psc" class="encuesta celeste-tel psc" cx="220.4069" cy="213.7374" r="2.8284" ></circle>
<circle id="encuesta-29-cs" class="encuesta celeste-tel cs" cx="220.4069" cy="192.7273" r="2.8284" ></circle>
<circle id="encuesta-29-pp" class="encuesta celeste-tel pp" cx="220.4069" cy="257.3737" r="2.8284" ></circle>
<circle id="encuesta-29-otros" class="encuesta celeste-tel otros" cx="220.4069" cy="317.1717" r="2.8284" ></circle>
</g>
<g id="encuesta-30">
<circle id="encuesta-30-cup" class="encuesta sociometrica cup" cx="158.9045" cy="278.3838" r="2.6458" ></circle>
<circle id="encuesta-30-erc" class="encuesta sociometrica erc" cx="158.9045" cy="107.0707" r="2.6458" ></circle>
<circle id="encuesta-30-jxcat" class="encuesta sociometrica jxcat" cx="158.9045" cy="230.7071" r="2.6458" ></circle>
<circle id="encuesta-30-cec" class="encuesta sociometrica cec" cx="158.9045" cy="249.2929" r="2.6458" ></circle>
<circle id="encuesta-30-psc" class="encuesta sociometrica psc" cx="158.9045" cy="251.7172" r="2.6458" ></circle>
<circle id="encuesta-30-cs" class="encuesta sociometrica cs" cx="158.9045" cy="190.303" r="2.6458" ></circle>
<circle id="encuesta-30-pp" class="encuesta sociometrica pp" cx="158.9045" cy="248.4848" r="2.6458" ></circle>
<circle id="encuesta-30-otros" class="encuesta sociometrica otros" cx="158.9045" cy="302.6263" r="2.6458" ></circle>
</g>
<g id="encuesta-31">
<circle id="encuesta-31-cup" class="encuesta nc_report cup" cx="68.7011" cy="280.8081" r="3.5426" ></circle>
<circle id="encuesta-31-erc" class="encuesta nc_report erc" cx="68.7011" cy="140.202" r="3.5426" ></circle>
<circle id="encuesta-31-jxcat" class="encuesta nc_report jxcat" cx="68.7011" cy="221.0101" r="3.5426" ></circle>
<circle id="encuesta-31-cec" class="encuesta nc_report cec" cx="68.7011" cy="235.5556" r="3.5426" ></circle>
<circle id="encuesta-31-psc" class="encuesta nc_report psc" cx="68.7011" cy="221.0101" r="3.5426" ></circle>
<circle id="encuesta-31-cs" class="encuesta nc_report cs" cx="68.7011" cy="191.9192" r="3.5426" ></circle>
<circle id="encuesta-31-pp" class="encuesta nc_report pp" cx="68.7011" cy="256.5657" r="3.5426" ></circle>
<circle id="encuesta-31-otros" class="encuesta nc_report otros" cx="68.7011" cy="311.5152" r="3.5426" ></circle>
</g>
  
<text class="pie izquierda" x="0" y="390">Datos: Electograph | Modelo propio</text>
<text class="pie derecha" x="800" y="390">Jesús Carro | <tspan style="font-weight:bold">1datomas</tspan>.com</text>
</svg>
