<?xml version="1.0" encoding="utf-8"?><!DOCTYPE svg PUBLIC "-//W3C//DTD SVG 1.1//EN" "http://www.w3.org/Graphics/SVG/1.1/DTD/svg11.dtd">
<svg xmlns="http://www.w3.org/2000/svg" xmlns:xlink="http://www.w3.org/1999/xlink" version="1.1" viewBox="0 0 800 400">

<text x="0" y="20" style="font-size:large;font-weight:bold;color:black">Intención de voto en Elecciones Autonómicas en Cataluña</text>
<text x="0" y="40" style="color:gray">Promedio de encuestas y estimación de error</text>

<text class="horizontal axis" x="36" y="333.3333">0%</text>
<line class="horizontal axis" x1="40" y1="333.3333" x2="622.2222" y2="333.3333"></line>
<text class="horizontal axis" x="36" y="252.5253">10%</text>
<line class="horizontal axis" x1="40" y1="252.5253" x2="622.2222" y2="252.5253"></line>
<text class="horizontal axis" x="36" y="171.7172">20%</text>
<line class="horizontal axis" x1="40" y1="171.7172" x2="622.2222" y2="171.7172"></line>
<text class="horizontal axis" x="36" y="90.9091">30%</text>
<line class="horizontal axis" x1="40" y1="90.9091" x2="622.2222" y2="90.9091"></line>
<line class="vertical axis" x1="40" y1="336.6667" x2="40" y2="66.6667"></line>
<text class="vertical axis" x="40" y="343.3333">Ago-2017</text>
<line class="vertical axis" x1="167.1049" y1="336.6667" x2="167.1049" y2="66.6667"></line>
<text class="vertical axis" x="167.1049" y="343.3333">Sep-2017</text>
<line class="vertical axis" x1="290.1095" y1="336.6667" x2="290.1095" y2="66.6667"></line>
<text class="vertical axis" x="290.1095" y="343.3333">Oct-2017</text>
<line class="vertical axis" x1="417.2144" y1="336.6667" x2="417.2144" y2="66.6667"></line>
<text class="vertical axis" x="417.2144" y="343.3333">Nov-2017</text>
<line class="vertical axis" x1="540.2191" y1="336.6667" x2="540.2191" y2="66.6667"></line>
<text class="vertical axis" x="540.2191" y="343.3333">Dic-2017</text>
<polyline id="media-cup"  class="cup media" points=" 40,282.0696 44.1002,282.0151 48.2003,281.9573 52.3005,281.896 56.4006,281.8346 60.5008,281.7843 64.6009,281.7562 68.7011,281.7639 72.8013,281.8071 76.9014,281.8715 81.0016,281.9448 85.1017,282.0152 89.2019,282.079 93.302,282.1359 97.4022,282.1858 101.5023,282.2286 105.6025,282.264 109.7027,282.2921 113.8028,282.3127 117.903,282.3257 122.0031,282.3308 126.1033,282.3277 130.2034,282.3161 134.3036,282.2955 138.4038,282.2652 142.5039,282.2244 146.6041,282.1722 150.7042,282.1073 154.8044,282.0573 158.9045,282.0669 163.0047,282.1972 167.1049,282.3889 171.205,282.5971 175.3052,282.7939 179.4053,282.9805 183.5055,283.1583 187.6056,283.3284 191.7058,283.4922 195.8059,283.6508 199.9061,283.8053 204.0063,283.957 208.1064,284.1069 212.2066,284.2559 216.3067,284.3946 220.4069,284.4894 224.507,284.5554 228.6072,284.6355 232.7074,284.7389 236.8075,284.8661 240.9077,284.9809 245.0078,285.0289 249.108,284.935 253.2081,284.7697 257.3083,284.5859 261.4085,284.4195 265.5086,284.2685 269.6088,284.1309 273.7089,284.0053 277.8091,283.8899 281.9092,283.7833 286.0094,283.6844 290.1095,283.5919 294.2097,283.5047 298.3099,283.4218 302.41,283.3424 306.5102,283.2672 310.6103,283.2014 314.7105,283.1499 318.8106,283.1086 322.9108,283.0672 327.011,283.0199 331.1111,282.9652 335.2113,282.9024 339.3114,282.8307 343.4116,282.7487 347.5117,282.6545 351.6119,282.5456 355.7121,282.4636 359.8122,282.5786 363.9124,282.8229 368.0125,282.9912 372.1127,283.0968 376.2128,283.1807 380.313,283.2523 384.4131,283.3165 388.5133,283.3952 392.6135,283.4931 396.7136,283.5917 400.8138,283.6716 404.9139,283.7094 409.0141,283.6765 413.1142,283.6193 417.2144,283.5785 421.3146,283.5876 425.4147,283.6227 429.5149,283.667 433.615,283.7099 437.7152,283.7518 441.8153,283.7929 445.9155,283.8335 450.0156,283.874 454.1158,283.9148 458.216,283.9564 462.3161,283.9994 466.4163,284.0446 470.5164,284.0806 474.6166,284.063 478.7167,283.9998 482.8169,283.9479 486.9171,283.9099 491.0172,283.8657 495.1174,283.8189 499.2175,283.7404 503.3177,283.566 507.4178,283.3511 511.518,283.1676 515.6182,283.0681 519.7183,283.1219 523.8185,283.2361 527.9186,283.3488 532.0188,283.4186 536.1189,283.4511 540.2191,283.4504 544.3192,283.4275 548.4194,283.4054 552.5196,283.4156 556.6197,283.4663 560.7199,283.4995 564.82,283.4774 568.9202,283.445 573.0203,283.4219 577.1205,283.4164 581.2207,283.446 585.3208,283.5059 589.421,283.5666 593.5211,283.5854 597.6213,283.5814 601.7214,283.5798 605.8216,283.5798 609.9218,283.5808 614.0219,283.5826 618.1221,283.585 622.2222,283.5877"></polyline>
<polyline id="error-cup" class="cup error" points=" 40,260.5545 44.1002,260.9303 48.2003,261.3194 52.3005,261.7233 56.4006,262.1272 60.5008,262.477 64.6009,262.717 68.7011,262.7825 72.8013,262.6839 76.9014,262.5008 81.0016,262.2953 85.1017,262.1189 89.2019,261.9832 93.302,261.8849 97.4022,261.8211 101.5023,261.7888 105.6025,261.7853 109.7027,261.8083 113.8028,261.8555 117.903,261.9248 122.0031,262.0143 126.1033,262.1225 130.2034,262.2478 134.3036,262.3889 138.4038,262.5446 142.5039,262.714 146.6041,262.896 150.7042,263.0901 154.8044,263.283 158.9045,263.4572 163.0047,263.5966 167.1049,263.7362 171.205,263.8969 175.3052,264.0863 179.4053,264.3027 183.5055,264.5447 187.6056,264.8113 191.7058,265.1021 195.8059,265.4172 199.9061,265.757 204.0063,266.1224 208.1064,266.5148 212.2066,266.9361 216.3067,267.3411 220.4069,267.5621 224.507,267.6358 228.6072,267.7523 232.7074,267.9518 236.8075,268.2319 240.9077,268.5054 245.0078,268.6402 249.108,268.4584 253.2081,268.13 257.3083,267.781 261.4085,267.4926 265.5086,267.2587 269.6088,267.0736 273.7089,266.9324 277.8091,266.8306 281.9092,266.7644 286.0094,266.7304 290.1095,266.7257 294.2097,266.7478 298.3099,266.7948 302.41,266.865 306.5102,266.9511 310.6103,267.0284 314.7105,267.0652 318.8106,267.0641 322.9108,267.0578 327.011,267.0673 331.1111,267.0954 335.2113,267.6249 339.3114,268.464 343.4116,269.3967 347.5117,269.9169 351.6119,270.1914 355.7121,270.3005 359.8122,270.5421 363.9124,270.8302 368.0125,271.1898 372.1127,271.6374 376.2128,272.1776 380.313,272.5683 384.4131,272.8472 388.5133,272.9956 392.6135,273.1286 396.7136,273.2878 400.8138,273.4527 404.9139,273.579 409.0141,273.6156 413.1142,273.6151 417.2144,273.5994 421.3146,273.5601 425.4147,273.5197 429.5149,273.4965 433.615,273.5007 437.7152,273.5304 441.8153,273.5837 445.9155,273.6588 450.0156,273.8529 454.1158,274.234 458.216,274.7348 462.3161,275.1843 466.4163,275.508 470.5164,275.7241 474.6166,275.8202 478.7167,275.8517 482.8169,275.881 486.9171,275.9182 491.0172,275.964 495.1174,276.0311 499.2175,276.0578 503.3177,275.9266 507.4178,275.7649 511.518,275.6584 515.6182,275.6754 519.7183,275.8461 523.8185,276.1086 527.9186,276.3405 532.0188,276.5057 536.1189,276.6058 540.2191,276.6782 544.3192,276.7986 548.4194,276.9775 552.5196,277.2194 556.6197,277.4178 560.7199,277.5215 564.82,277.5053 568.9202,277.4721 573.0203,277.4135 577.1205,277.336 581.2207,277.2422 585.3208,277.1579 589.421,276.9487 593.5211,276.6409 597.6213,276.2792 601.7214,275.9968 605.8216,275.7614 609.9218,275.576 614.0219,275.3935 618.1221,275.2134 622.2222,275.035 622.2222,292.1404 618.1221,291.9566 614.0219,291.7717 609.9218,291.5857 605.8216,291.3982 601.7214,291.1628 597.6213,290.8837 593.5211,290.5298 589.421,290.1846 585.3208,289.8538 581.2207,289.6499 577.1205,289.4967 573.0203,289.4303 568.9202,289.4179 564.82,289.4495 560.7199,289.4776 556.6197,289.5149 552.5196,289.6118 548.4194,289.8333 544.3192,290.0565 540.2191,290.2225 536.1189,290.2963 532.0188,290.3316 527.9186,290.3571 523.8185,290.3637 519.7183,290.3976 515.6182,290.4607 511.518,290.6767 507.4178,290.9373 503.3177,291.2054 499.2175,291.4229 495.1174,291.6067 491.0172,291.7674 486.9171,291.9016 482.8169,292.0149 478.7167,292.1479 474.6166,292.3058 470.5164,292.4371 466.4163,292.5813 462.3161,292.8145 458.216,293.1779 454.1158,293.5956 450.0156,293.8951 445.9155,294.0082 441.8153,294.0021 437.7152,293.9732 433.615,293.9192 429.5149,293.8376 425.4147,293.7258 421.3146,293.6151 417.2144,293.5577 413.1142,293.6236 409.0141,293.7373 404.9139,293.8397 400.8138,293.8904 396.7136,293.8957 392.6135,293.8576 388.5133,293.7947 384.4131,293.7858 380.313,293.9362 376.2128,294.1838 372.1127,294.5563 368.0125,294.7926 363.9124,294.8155 359.8122,294.6151 355.7121,294.6266 351.6119,294.8997 347.5117,295.3922 343.4116,296.1007 339.3114,297.1974 335.2113,298.1799 331.1111,298.8349 327.011,298.9726 322.9108,299.0767 318.8106,299.153 314.7105,299.2347 310.6103,299.3745 306.5102,299.5834 302.41,299.8198 298.3099,300.0489 294.2097,300.2616 290.1095,300.4581 286.0094,300.6384 281.9092,300.8023 277.8091,300.9491 273.7089,301.0781 269.6088,301.1882 265.5086,301.2782 261.4085,301.3464 257.3083,301.3909 253.2081,301.4094 249.108,301.4115 245.0078,301.4176 240.9077,301.4565 236.8075,301.5003 232.7074,301.5261 228.6072,301.5187 224.507,301.4749 220.4069,301.4168 216.3067,301.448 212.2066,301.5758 208.1064,301.699 204.0063,301.7916 199.9061,301.8537 195.8059,301.8843 191.7058,301.8822 187.6056,301.8455 183.5055,301.7719 179.4053,301.6583 175.3052,301.5015 171.205,301.2974 167.1049,301.0415 163.0047,300.7978 158.9045,300.6765 154.8044,300.8315 150.7042,301.1245 146.6041,301.4484 142.5039,301.7349 138.4038,301.9858 134.3036,302.2021 130.2034,302.3844 126.1033,302.5329 122.0031,302.6472 117.903,302.7266 113.8028,302.77 109.7027,302.7759 105.6025,302.7427 101.5023,302.6683 97.4022,302.5506 93.302,302.3869 89.2019,302.1748 85.1017,301.9115 81.0016,301.5942 76.9014,301.2421 72.8013,300.9303 68.7011,300.7454 64.6009,300.7954 60.5008,301.0916 56.4006,301.5421 52.3005,302.0688 48.2003,302.5951 44.1002,303.0999 40,303.5848"></polyline>
<text class = "party cup" x="631.1111" y="279"><tspan class="party_name">CUP</tspan><tspan class="party_result"> (6.2±1.1%)</tspan></text>
<polyline id="media-erc"  class="erc media" points=" 40,136.0596 44.1002,136.1442 48.2003,136.2439 52.3005,136.3605 56.4006,136.4835 60.5008,136.5717 64.6009,136.5793 68.7011,136.4463 72.8013,136.1614 76.9014,135.7705 81.0016,135.3156 85.1017,134.8427 89.2019,134.3666 93.302,133.8874 97.4022,133.4051 101.5023,132.919 105.6025,132.4281 109.7027,131.9314 113.8028,131.4271 117.903,130.9135 122.0031,130.3883 126.1033,129.8491 130.2034,129.293 134.3036,128.7167 138.4038,128.1165 142.5039,127.4881 146.6041,126.8264 150.7042,126.1256 154.8044,125.5256 158.9045,125.2406 163.0047,125.5489 167.1049,126.1359 171.205,126.7764 175.3052,127.3373 179.4053,127.827 183.5055,128.2538 187.6056,128.6251 191.7058,128.9479 195.8059,129.2287 199.9061,129.474 204.0063,129.6898 208.1064,129.8822 212.2066,130.0575 216.3067,130.1925 220.4069,130.1833 224.507,130.0415 228.6072,129.8824 232.7074,129.7336 236.8075,129.5957 240.9077,129.4584 245.0078,129.2972 249.108,129.0645 253.2081,128.7682 257.3083,128.4217 261.4085,128.0406 265.5086,127.6228 269.6088,127.166 273.7089,126.6673 277.8091,126.1232 281.9092,125.5295 286.0094,124.8814 290.1095,124.1726 294.2097,123.3959 298.3099,122.5422 302.41,121.6004 306.5102,120.6476 310.6103,120.0105 314.7105,120.1108 318.8106,120.8993 322.9108,121.8999 327.011,122.7892 331.1111,123.5036 335.2113,124.0609 339.3114,124.4758 343.4116,124.76 347.5117,124.9228 351.6119,124.9712 355.7121,124.9778 359.8122,125.21 363.9124,125.5628 368.0125,125.7154 372.1127,125.6882 376.2128,125.5436 380.313,125.2925 384.4131,124.9583 388.5133,124.6332 392.6135,124.2766 396.7136,123.7597 400.8138,123.2242 404.9139,122.9435 409.0141,123.2462 413.1142,123.8444 417.2144,124.7177 421.3146,126.1487 425.4147,127.8867 429.5149,129.6912 433.615,131.3779 437.7152,132.9456 441.8153,134.3949 445.9155,135.7274 450.0156,136.9456 454.1158,138.0528 458.216,139.0521 462.3161,139.947 466.4163,140.7405 470.5164,141.4213 474.6166,141.9476 478.7167,142.352 482.8169,142.7163 486.9171,143.047 491.0172,143.2998 495.1174,143.4209 499.2175,143.8224 503.3177,145.2917 507.4178,147.0481 511.518,148.5085 515.6182,149.5027 519.7183,149.8103 523.8185,149.852 527.9186,149.8745 532.0188,150.01 536.1189,150.1964 540.2191,150.283 544.3192,150.2845 548.4194,150.328 552.5196,150.4654 556.6197,150.6446 560.7199,150.7857 564.82,150.8777 568.9202,150.9897 573.0203,151.1521 577.1205,151.3831 581.2207,151.6577 585.3208,152.0475 589.421,152.4736 593.5211,152.445 597.6213,152.2434 601.7214,152.0559 605.8216,151.8807 609.9218,151.7162 614.0219,151.5611 618.1221,151.4141 622.2222,151.2744"></polyline>
<polyline id="error-erc" class="erc error" points=" 40,94.599 44.1002,95.2406 48.2003,95.9224 52.3005,96.6487 56.4006,97.3855 60.5008,98.0041 64.6009,98.3675 68.7011,98.3078 72.8013,97.8272 76.9014,97.0981 81.0016,96.2629 85.1017,95.4526 89.2019,94.7019 93.302,94.0068 97.4022,93.3631 101.5023,92.7665 105.6025,92.2127 109.7027,91.6973 113.8028,91.216 117.903,90.7646 122.0031,90.339 126.1033,89.9349 130.2034,89.5482 134.3036,89.1749 138.4038,88.8108 142.5039,88.4515 146.6041,88.0926 150.7042,87.7293 154.8044,87.4478 158.9045,87.3786 163.0047,87.6957 167.1049,88.2097 171.205,88.783 175.3052,89.3304 179.4053,89.856 183.5055,90.3645 187.6056,90.8607 191.7058,91.3497 195.8059,91.8367 199.9061,92.3275 204.0063,92.8284 208.1064,93.3465 212.2066,93.89 216.3067,94.3874 220.4069,94.5474 224.507,94.4102 228.6072,94.2944 232.7074,94.271 236.8075,94.3375 240.9077,94.4145 245.0078,94.3705 249.108,94.0162 253.2081,93.4961 257.3083,92.9241 261.4085,92.3772 265.5086,91.847 269.6088,91.3257 273.7089,90.8057 277.8091,90.2796 281.9092,89.7399 286.0094,89.1788 290.1095,88.5882 294.2097,87.9588 298.3099,87.2806 302.41,86.5417 306.5102,85.8089 310.6103,85.3706 314.7105,85.6012 318.8106,86.4599 322.9108,87.5259 327.011,88.5106 331.1111,89.3558 335.2113,91.3088 339.3114,93.9026 343.4116,96.6056 347.5117,98.1486 351.6119,98.9698 355.7121,99.2583 359.8122,99.6719 363.9124,100.0805 368.0125,100.6981 372.1127,101.5074 376.2128,102.455 380.313,102.9095 384.4131,102.9957 388.5133,102.7666 392.6135,102.4533 396.7136,102.0161 400.8138,101.5981 404.9139,101.445 409.0141,101.8566 413.1142,102.5486 417.2144,103.4702 421.3146,104.8429 425.4147,106.4845 429.5149,108.2056 433.615,109.8513 437.7152,111.4163 441.8153,112.8978 445.9155,114.2942 450.0156,115.8554 454.1158,117.758 458.216,119.8346 462.3161,121.6541 466.4163,123.0293 470.5164,124.034 474.6166,124.7361 478.7167,125.2889 482.8169,125.7805 486.9171,126.229 491.0172,126.6212 495.1174,126.917 499.2175,127.4843 503.3177,129.0391 507.4178,130.8998 511.518,132.4963 515.6182,133.7264 519.7183,134.3018 523.8185,134.6895 527.9186,134.9662 532.0188,135.282 536.1189,135.5716 540.2191,135.7701 544.3192,136.0613 548.4194,136.543 552.5196,137.2078 556.6197,137.715 560.7199,138.0119 564.82,138.1146 568.9202,138.2272 573.0203,138.3135 577.1205,138.3874 581.2207,138.3698 585.3208,138.4256 589.421,138.2805 593.5211,137.6093 597.6213,136.7006 601.7214,135.9989 605.8216,135.4225 609.9218,134.9797 614.0219,134.551 618.1221,134.1344 622.2222,133.7286 622.2222,168.8202 618.1221,168.6937 614.0219,168.5711 609.9218,168.4527 605.8216,168.339 601.7214,168.113 597.6213,167.7861 593.5211,167.2808 589.421,166.6667 585.3208,165.6693 581.2207,164.9457 577.1205,164.3788 573.0203,163.9907 568.9202,163.7523 564.82,163.6408 560.7199,163.5594 556.6197,163.5742 552.5196,163.7231 548.4194,164.1129 544.3192,164.5077 540.2191,164.7958 536.1189,164.8213 532.0188,164.738 527.9186,164.7828 523.8185,165.0146 519.7183,165.3188 515.6182,165.279 511.518,164.5206 507.4178,163.1963 503.3177,161.5443 499.2175,160.1604 495.1174,159.9247 491.0172,159.9783 486.9171,159.8651 482.8169,159.652 478.7167,159.4151 474.6166,159.1591 470.5164,158.8087 466.4163,158.4516 462.3161,158.2399 458.216,158.2696 454.1158,158.3475 450.0156,158.0359 445.9155,157.1605 441.8153,155.892 437.7152,154.475 433.615,152.9046 429.5149,151.1769 425.4147,149.289 421.3146,147.4545 417.2144,145.9652 413.1142,145.1403 409.0141,144.6358 404.9139,144.4419 400.8138,144.8503 396.7136,145.5033 392.6135,146.0998 388.5133,146.4999 384.4131,146.9208 380.313,147.6755 376.2128,148.6323 372.1127,149.8691 368.0125,150.7328 363.9124,151.045 359.8122,150.7481 355.7121,150.6972 351.6119,150.9725 347.5117,151.6969 343.4116,152.9143 339.3114,155.049 335.2113,156.8131 331.1111,157.6515 327.011,157.0678 322.9108,156.2739 318.8106,155.3388 314.7105,154.6204 310.6103,154.6504 306.5102,155.4864 302.41,156.6592 298.3099,157.8038 294.2097,158.833 290.1095,159.757 286.0094,160.5839 281.9092,161.3192 277.8091,161.9668 273.7089,162.5289 269.6088,163.0063 265.5086,163.3986 261.4085,163.704 257.3083,163.9194 253.2081,164.0404 249.108,164.1128 245.0078,164.2238 240.9077,164.5024 236.8075,164.8538 232.7074,165.1961 228.6072,165.4703 224.507,165.6728 220.4069,165.8191 216.3067,165.9977 212.2066,166.2249 208.1064,166.4179 204.0063,166.5512 199.9061,166.6205 195.8059,166.6208 191.7058,166.546 187.6056,166.3894 183.5055,166.1431 179.4053,165.7981 175.3052,165.3442 171.205,164.7699 167.1049,164.0622 163.0047,163.4021 158.9045,163.1025 154.8044,163.6034 150.7042,164.522 146.6041,165.5602 142.5039,166.5247 138.4038,167.4223 134.3036,168.2585 130.2034,169.0378 126.1033,169.7633 122.0031,170.4376 117.903,171.0623 113.8028,171.6382 109.7027,172.1655 105.6025,172.6436 101.5023,173.0714 97.4022,173.4471 93.302,173.7681 89.2019,174.0313 85.1017,174.2328 81.0016,174.3683 76.9014,174.4429 72.8013,174.4956 68.7011,174.5847 64.6009,174.7912 60.5008,175.1393 56.4006,175.5816 52.3005,176.0724 48.2003,176.5654 44.1002,177.0477 40,177.5202"></polyline>
<text class = "party erc" x="631.1111" y="161"><tspan class="party_name">ERC</tspan><tspan class="party_result"> (22.5±2.2%)</tspan></text>
<polyline id="media-jxcat"  class="jxcat media" points=" 40,217.0259 44.1002,217.2658 48.2003,217.5114 52.3005,217.7624 56.4006,218.0085 60.5008,218.2174 64.6009,218.3596 68.7011,218.4025 72.8013,218.3544 76.9014,218.2604 81.0016,218.1564 85.1017,218.0741 89.2019,218.0226 93.302,218.002 97.4022,218.0119 101.5023,218.0521 105.6025,218.1221 109.7027,218.2215 113.8028,218.3498 117.903,218.5067 122.0031,218.692 126.1033,218.9056 130.2034,219.1477 134.3036,219.4186 138.4038,219.7187 142.5039,220.0491 146.6041,220.4106 150.7042,220.8049 154.8044,221.1579 158.9045,221.3587 163.0047,221.2674 167.1049,221.0507 171.205,220.8266 175.3052,220.6637 179.4053,220.5577 183.5055,220.5051 187.6056,220.5023 191.7058,220.5461 195.8059,220.6335 199.9061,220.7617 204.0063,220.9279 208.1064,221.1296 212.2066,221.3636 216.3067,221.6117 220.4069,221.8249 224.507,222.0317 228.6072,222.2971 232.7074,222.6333 236.8075,223.04 240.9077,223.4296 245.0078,223.6769 249.108,223.6215 253.2081,223.4435 257.3083,223.2727 261.4085,223.1915 265.5086,223.1976 269.6088,223.2893 273.7089,223.4651 277.8091,223.7247 281.9092,224.0683 286.0094,224.4975 290.1095,225.0149 294.2097,225.6245 298.3099,226.332 302.41,227.1452 306.5102,227.9927 310.6103,228.578 314.7105,228.5208 318.8106,227.867 322.9108,227.0474 327.011,226.3542 331.1111,225.8452 335.2113,225.5053 339.3114,225.3221 343.4116,225.2855 347.5117,225.3879 351.6119,225.6235 355.7121,225.9218 359.8122,226.0373 363.9124,225.913 368.0125,225.7473 372.1127,225.6897 376.2128,225.8225 380.313,226.1757 384.4131,226.6127 388.5133,226.5561 392.6135,226.0553 396.7136,225.7236 400.8138,225.5879 404.9139,225.4578 409.0141,225.1107 413.1142,224.6072 417.2144,223.76 421.3146,222.0951 425.4147,219.9862 429.5149,217.7715 433.615,215.7021 437.7152,213.7811 441.8153,212.0093 445.9155,210.3859 450.0156,208.9087 454.1158,207.5746 458.216,206.38 462.3161,205.3211 466.4163,204.3943 470.5164,203.603 474.6166,202.9748 478.7167,202.4726 482.8169,202.0474 486.9171,201.6746 491.0172,201.3408 495.1174,201.1238 499.2175,200.6781 503.3177,199.3066 507.4178,197.772 511.518,196.4907 515.6182,195.3935 519.7183,194.3492 523.8185,193.3133 527.9186,192.3291 532.0188,191.5153 536.1189,190.882 540.2191,190.4377 544.3192,190.1664 548.4194,190.0124 552.5196,189.9704 556.6197,190.0881 560.7199,190.323 564.82,190.5992 568.9202,190.7812 573.0203,190.7196 577.1205,190.3934 581.2207,189.8991 585.3208,189.2854 589.421,188.7845 593.5211,188.7695 597.6213,188.9147 601.7214,189.0522 605.8216,189.1838 609.9218,189.3106 614.0219,189.4336 618.1221,189.5532 622.2222,189.67"></polyline>
<polyline id="error-jxcat" class="jxcat error" points=" 40,176.5882 44.1002,177.3384 48.2003,178.1152 52.3005,178.9205 56.4006,179.7225 60.5008,180.4105 64.6009,180.8741 68.7011,180.986 72.8013,180.7669 76.9014,180.3752 81.0016,179.9363 85.1017,179.5581 89.2019,179.2677 93.302,179.0617 97.4022,178.9363 101.5023,178.8878 105.6025,178.9127 109.7027,179.0078 113.8028,179.1702 117.903,179.3974 122.0031,179.6872 126.1033,180.038 130.2034,180.4488 134.3036,180.9189 138.4038,181.4485 142.5039,182.0381 146.6041,182.6891 150.7042,183.4038 154.8044,184.0563 158.9045,184.4565 163.0047,184.3654 167.1049,184.0691 171.205,183.7695 175.3052,183.581 179.4053,183.4957 183.5055,183.5066 187.6056,183.6076 191.7058,183.7936 195.8059,184.0602 199.9061,184.4036 204.0063,184.821 208.1064,185.31 212.2066,185.869 216.3067,186.437 220.4069,186.8031 224.507,187.0215 228.6072,187.3339 232.7074,187.7899 236.8075,188.3859 240.9077,188.9722 245.0078,189.3288 249.108,189.1705 253.2081,188.7991 257.3083,188.4338 261.4085,188.2125 265.5086,188.1274 269.6088,188.1721 273.7089,188.3412 277.8091,188.6307 281.9092,189.0382 286.0094,189.5626 290.1095,190.2046 294.2097,190.9666 298.3099,191.8533 302.41,192.8719 306.5102,193.9389 310.6103,194.7142 314.7105,194.7635 318.8106,194.1425 322.9108,193.3453 327.011,192.7045 331.1111,192.2848 335.2113,193.3682 339.3114,195.4338 343.4116,197.8981 347.5117,199.4038 351.6119,200.3997 355.7121,200.9411 359.8122,201.2087 363.9124,201.1249 368.0125,201.4419 372.1127,202.2594 376.2128,203.5319 380.313,204.6113 384.4131,205.4697 388.5133,205.4946 392.6135,205.0225 396.7136,204.7547 400.8138,204.7185 404.9139,204.6942 409.0141,204.4279 413.1142,203.9873 417.2144,203.1566 421.3146,201.3987 425.4147,199.1527 429.5149,196.8082 433.615,194.6483 437.7152,192.6737 441.8153,190.8826 445.9155,189.2722 450.0156,188.1015 454.1158,187.5513 458.216,187.4379 462.3161,187.2998 466.4163,186.9323 470.5164,186.4305 474.6166,185.9449 478.7167,185.5642 482.8169,185.2435 486.9171,184.9679 491.0172,184.7524 495.1174,184.6882 499.2175,184.3821 503.3177,183.0572 507.4178,181.5828 511.518,180.3973 515.6182,179.5107 519.7183,178.7278 523.8185,178.0396 527.9186,177.3038 532.0188,176.6583 536.1189,176.1118 540.2191,175.7658 544.3192,175.7827 548.4194,176.0747 552.5196,176.5755 556.6197,177.0301 560.7199,177.4262 564.82,177.7143 568.9202,177.8978 573.0203,177.7564 577.1205,177.2639 581.2207,176.458 585.3208,175.4888 589.421,174.3976 593.5211,173.7387 597.6213,173.1776 601.7214,172.8111 605.8216,172.557 609.9218,172.4271 614.0219,172.2977 618.1221,172.1686 622.2222,172.0397 622.2222,207.3002 618.1221,206.9379 614.0219,206.5695 609.9218,206.1942 605.8216,205.8106 601.7214,205.2933 597.6213,204.6517 593.5211,203.8002 589.421,203.1714 585.3208,203.082 581.2207,203.3401 577.1205,203.5229 573.0203,203.6829 568.9202,203.6646 564.82,203.4841 560.7199,203.2199 556.6197,203.1462 552.5196,203.3653 548.4194,203.9502 544.3192,204.5502 540.2191,205.1097 536.1189,205.6522 532.0188,206.3724 527.9186,207.3545 523.8185,208.587 519.7183,209.9705 515.6182,211.2763 511.518,212.5841 507.4178,213.9611 503.3177,215.5559 499.2175,216.9742 495.1174,217.5594 491.0172,217.9292 486.9171,218.3812 482.8169,218.8512 478.7167,219.3809 474.6166,220.0047 470.5164,220.7754 466.4163,221.8564 462.3161,223.3425 458.216,225.3221 454.1158,227.598 450.0156,229.716 445.9155,231.4997 441.8153,233.136 437.7152,234.8885 433.615,236.7558 429.5149,238.7348 425.4147,240.8198 421.3146,242.7915 417.2144,244.3633 413.1142,245.227 409.0141,245.7935 404.9139,246.2215 400.8138,246.4573 396.7136,246.6924 392.6135,247.0881 388.5133,247.6177 384.4131,247.7556 380.313,247.74 376.2128,248.113 372.1127,249.12 368.0125,250.0526 363.9124,250.7011 359.8122,250.8659 355.7121,250.9026 351.6119,250.8474 347.5117,251.372 343.4116,252.6729 339.3114,255.2103 335.2113,257.6424 331.1111,259.4057 327.011,260.0039 322.9108,260.7496 318.8106,261.5916 314.7105,262.2782 310.6103,262.4418 306.5102,262.0464 302.41,261.4185 298.3099,260.8107 294.2097,260.2824 290.1095,259.8252 286.0094,259.4325 281.9092,259.0985 277.8091,258.8186 273.7089,258.5891 269.6088,258.4065 265.5086,258.2678 261.4085,258.1704 257.3083,258.1115 253.2081,258.088 249.108,258.0726 245.0078,258.0249 240.9077,257.887 236.8075,257.6941 232.7074,257.4768 228.6072,257.2602 224.507,257.0419 220.4069,256.8467 216.3067,256.7864 212.2066,256.8583 208.1064,256.9491 204.0063,257.0349 199.9061,257.1198 195.8059,257.2068 191.7058,257.2985 187.6056,257.3969 183.5055,257.5036 179.4053,257.6198 175.3052,257.7463 171.205,257.8838 167.1049,258.0323 163.0047,258.1695 158.9045,258.2609 154.8044,258.2594 150.7042,258.206 146.6041,258.1322 142.5039,258.0601 138.4038,257.989 134.3036,257.9182 130.2034,257.8466 126.1033,257.7732 122.0031,257.6968 117.903,257.616 113.8028,257.5293 109.7027,257.4351 105.6025,257.3316 101.5023,257.2165 97.4022,257.0875 93.302,256.9422 89.2019,256.7775 85.1017,256.5901 81.0016,256.3765 76.9014,256.1456 72.8013,255.9419 68.7011,255.819 64.6009,255.845 60.5008,256.0243 56.4006,256.2946 52.3005,256.6043 48.2003,256.9076 44.1002,257.1931 40,257.4635"></polyline>
<text class = "party jxcat" x="631.1111" y="190"><tspan class="party_name">JxCAT</tspan><tspan class="party_result"> (17.8±2.2%)</tspan></text>
<polyline id="media-cec"  class="cec media" points=" 40,246.8841 44.1002,246.3972 48.2003,245.8821 52.3005,245.3373 56.4006,244.7921 60.5008,244.3473 64.6009,244.1042 68.7011,244.1861 72.8013,244.5918 76.9014,245.1937 81.0016,245.8837 85.1017,246.5558 89.2019,247.1775 93.302,247.748 97.4022,248.2673 101.5023,248.7361 105.6025,249.1554 109.7027,249.5267 113.8028,249.8516 117.903,250.1319 122.0031,250.3695 126.1033,250.5661 130.2034,250.7234 134.3036,250.8433 138.4038,250.9274 142.5039,250.9772 146.6041,250.9942 150.7042,250.98 154.8044,250.9492 158.9045,250.9233 163.0047,250.9276 167.1049,250.9309 171.205,250.9097 175.3052,250.8494 179.4053,250.7483 183.5055,250.6044 187.6056,250.4159 191.7058,250.1803 195.8059,249.895 199.9061,249.5567 204.0063,249.1618 208.1064,248.7055 212.2066,248.1824 216.3067,247.6937 220.4069,247.6325 224.507,247.9512 228.6072,248.2239 232.7074,248.3521 236.8075,248.3395 240.9077,248.2916 245.0078,248.3774 249.108,248.8374 253.2081,249.4858 257.3083,250.1699 261.4085,250.7791 265.5086,251.3143 269.6088,251.7771 273.7089,252.1694 277.8091,252.4928 281.9092,252.7487 286.0094,252.9383 290.1095,253.0619 294.2097,253.1195 298.3099,253.1097 302.41,253.0307 306.5102,252.9127 310.6103,252.8823 314.7105,253.1076 318.8106,253.58 322.9108,254.1215 327.011,254.6067 331.1111,255.0089 335.2113,255.3335 339.3114,255.5848 343.4116,255.7665 347.5117,255.8816 351.6119,255.9324 355.7121,255.9273 359.8122,255.8897 363.9124,255.9639 368.0125,256.2252 372.1127,256.5357 376.2128,256.7795 380.313,256.9227 384.4131,257.0262 388.5133,257.3631 392.6135,257.9339 396.7136,258.4616 400.8138,258.9088 404.9139,259.3318 409.0141,259.8064 413.1142,260.2873 417.2144,260.7626 421.3146,261.2752 425.4147,261.8279 429.5149,262.3997 433.615,262.9624 437.7152,263.5102 441.8153,264.0387 445.9155,264.5452 450.0156,265.0277 454.1158,265.4854 458.216,265.9179 462.3161,266.3257 466.4163,266.7098 470.5164,267.0583 474.6166,267.3275 478.7167,267.5472 482.8169,267.8168 486.9171,268.1562 491.0172,268.5365 495.1174,268.9564 499.2175,269.2362 503.3177,269.0798 507.4178,268.8202 511.518,268.6536 515.6182,268.6205 519.7183,268.8001 523.8185,269.0781 527.9186,269.3567 532.0188,269.5107 536.1189,269.5633 540.2191,269.63 544.3192,269.7238 548.4194,269.8123 552.5196,269.8957 556.6197,269.8935 560.7199,269.832 564.82,269.7659 568.9202,269.7811 573.0203,269.9373 577.1205,270.252 581.2207,270.7005 585.3208,271.1123 589.421,271.1298 593.5211,270.9666 597.6213,270.8193 601.7214,270.6902 605.8216,270.575 609.9218,270.4707 614.0219,270.375 618.1221,270.2865 622.2222,270.2038"></polyline>
<polyline id="error-cec" class="cec error" points=" 40,218.9111 44.1002,218.876 48.2003,218.832 52.3005,218.7796 56.4006,218.7296 60.5008,218.7137 64.6009,218.7608 68.7011,218.9097 72.8013,219.1709 76.9014,219.518 81.0016,219.923 85.1017,220.3462 89.2019,220.7705 93.302,221.1914 97.4022,221.6053 101.5023,222.0096 105.6025,222.4025 109.7027,222.7827 113.8028,223.1496 117.903,223.5028 122.0031,223.8425 126.1033,224.169 130.2034,224.4832 134.3036,224.7858 138.4038,225.0782 142.5039,225.362 146.6041,225.6389 150.7042,225.9114 154.8044,226.1484 158.9045,226.3016 163.0047,226.3089 167.1049,226.2446 171.205,226.1588 175.3052,226.0771 179.4053,225.9944 183.5055,225.9058 187.6056,225.8069 191.7058,225.6937 195.8059,225.5622 199.9061,225.4086 204.0063,225.2291 208.1064,225.0195 212.2066,224.7756 216.3067,224.5632 220.4069,224.6377 224.507,224.9725 228.6072,225.2914 232.7074,225.5272 236.8075,225.6811 240.9077,225.806 245.0078,225.9909 249.108,226.3706 253.2081,226.8637 257.3083,227.3936 261.4085,227.8949 265.5086,228.3634 269.6088,228.7962 273.7089,229.1912 277.8091,229.5468 281.9092,229.8619 286.0094,230.1351 290.1095,230.3651 294.2097,230.5503 298.3099,230.6886 302.41,230.7771 306.5102,230.8384 310.6103,230.9697 314.7105,231.303 318.8106,231.8372 322.9108,232.4367 327.011,233.0026 331.1111,233.512 335.2113,234.6916 339.3114,236.2623 343.4116,237.9084 347.5117,238.882 351.6119,239.4384 355.7121,239.6489 359.8122,239.7468 363.9124,239.8626 368.0125,240.4048 372.1127,241.2204 376.2128,242.1268 380.313,242.7125 384.4131,243.0949 388.5133,243.5159 392.6135,244.1372 396.7136,244.7428 400.8138,245.2936 404.9139,245.8249 409.0141,246.3901 413.1142,246.9482 417.2144,247.4649 421.3146,247.9367 425.4147,248.419 429.5149,248.9299 433.615,249.4637 437.7152,250.0114 441.8153,250.5661 445.9155,251.1226 450.0156,251.8236 454.1158,252.7696 458.216,253.8597 462.3161,254.8388 466.4163,255.5959 470.5164,256.1672 474.6166,256.5671 478.7167,256.8969 482.8169,257.2626 486.9171,257.6926 491.0172,258.1804 495.1174,258.7344 499.2175,259.1362 503.3177,259.0278 507.4178,258.8258 511.518,258.7437 515.6182,258.8573 519.7183,259.2016 523.8185,259.6927 527.9186,260.1339 532.0188,260.4072 536.1189,260.5331 540.2191,260.6801 544.3192,260.9594 548.4194,261.32 552.5196,261.725 556.6197,261.9227 560.7199,261.955 564.82,261.8947 568.9202,261.9099 573.0203,262.0214 577.1205,262.2442 581.2207,262.5244 585.3208,262.7402 589.421,262.4006 593.5211,261.8237 597.6213,261.2225 601.7214,260.7529 605.8216,260.3636 609.9218,260.0573 614.0219,259.7622 618.1221,259.4764 622.2222,259.1982 622.2222,281.2094 618.1221,281.0965 614.0219,280.9878 609.9218,280.884 605.8216,280.7864 601.7214,280.6275 597.6213,280.4161 593.5211,280.1096 589.421,279.859 585.3208,279.4844 581.2207,278.8767 577.1205,278.2597 573.0203,277.8531 568.9202,277.6522 564.82,277.6371 560.7199,277.7091 556.6197,277.8644 552.5196,278.0665 548.4194,278.3046 544.3192,278.4882 540.2191,278.5799 536.1189,278.5936 532.0188,278.6143 527.9186,278.5794 523.8185,278.4635 519.7183,278.3987 515.6182,278.3837 511.518,278.5636 507.4178,278.8147 503.3177,279.1318 499.2175,279.3361 495.1174,279.1784 491.0172,278.8925 486.9171,278.6197 482.8169,278.3711 478.7167,278.1975 474.6166,278.0879 470.5164,277.9495 466.4163,277.8236 462.3161,277.8126 458.216,277.9761 454.1158,278.2011 450.0156,278.2319 445.9155,277.9678 441.8153,277.5114 437.7152,277.009 433.615,276.4611 429.5149,275.8694 425.4147,275.2367 421.3146,274.6137 417.2144,274.0604 413.1142,273.6264 409.0141,273.2227 404.9139,272.8388 400.8138,272.5239 396.7136,272.1805 392.6135,271.7305 388.5133,271.2104 384.4131,270.9574 380.313,271.133 376.2128,271.4322 372.1127,271.851 368.0125,272.0457 363.9124,272.0653 359.8122,272.0327 355.7121,272.2057 351.6119,272.4264 347.5117,272.8812 343.4116,273.6247 339.3114,274.9073 335.2113,275.9754 331.1111,276.5058 327.011,276.2107 322.9108,275.8062 318.8106,275.3228 314.7105,274.9122 310.6103,274.795 306.5102,274.987 302.41,275.2842 298.3099,275.5309 294.2097,275.6886 290.1095,275.7588 286.0094,275.7415 281.9092,275.6356 277.8091,275.4387 273.7089,275.1476 269.6088,274.7581 265.5086,274.2652 261.4085,273.6633 257.3083,272.9463 253.2081,272.1078 249.108,271.3043 245.0078,270.764 240.9077,270.7771 236.8075,270.9979 232.7074,271.1769 228.6072,271.1563 224.507,270.93 220.4069,270.6274 216.3067,270.8242 212.2066,271.5892 208.1064,272.3916 204.0063,273.0945 199.9061,273.7048 195.8059,274.2277 191.7058,274.6668 187.6056,275.0248 183.5055,275.3031 179.4053,275.5021 175.3052,275.6217 171.205,275.6606 167.1049,275.6172 163.0047,275.5462 158.9045,275.545 154.8044,275.75 150.7042,276.0487 146.6041,276.3496 142.5039,276.5924 138.4038,276.7766 134.3036,276.9009 130.2034,276.9637 126.1033,276.9631 122.0031,276.8965 117.903,276.7611 113.8028,276.5536 109.7027,276.2706 105.6025,275.9083 101.5023,275.4626 97.4022,274.9294 93.302,274.3047 89.2019,273.5845 85.1017,272.7654 81.0016,271.8445 76.9014,270.8693 72.8013,270.0127 68.7011,269.4625 64.6009,269.4476 60.5008,269.9809 56.4006,270.8545 52.3005,271.895 48.2003,272.9322 44.1002,273.9183 40,274.8571"></polyline>
<text class = "party cec" x="631.1111" y="258"><tspan class="party_name">CeC</tspan><tspan class="party_result"> (7.8±1.4%)</tspan></text>
<polyline id="media-psc"  class="psc media" points=" 40,221.0452 44.1002,221.1084 48.2003,221.1689 52.3005,221.2258 56.4006,221.2791 60.5008,221.3321 64.6009,221.3912 68.7011,221.4678 72.8013,221.5707 76.9014,221.7006 81.0016,221.8559 85.1017,222.0316 89.2019,222.2259 93.302,222.4394 97.4022,222.6729 101.5023,222.9272 105.6025,223.2035 109.7027,223.5029 113.8028,223.8271 117.903,224.178 122.0031,224.5578 126.1033,224.9693 130.2034,225.4155 134.3036,225.9003 138.4038,226.4281 142.5039,227.0041 146.6041,227.6346 150.7042,228.3269 154.8044,228.9089 158.9045,229.1109 163.0047,228.5762 167.1049,227.6867 171.205,226.7212 175.3052,225.8485 179.4053,225.0592 183.5055,224.3448 187.6056,223.6968 191.7058,223.1077 195.8059,222.5699 199.9061,222.0764 204.0063,221.6202 208.1064,221.1942 212.2066,220.7912 216.3067,220.4593 220.4069,220.3965 224.507,220.5757 228.6072,220.7818 232.7074,220.97 236.8075,221.1471 240.9077,221.3024 245.0078,221.4205 249.108,221.4845 253.2081,221.5344 257.3083,221.5964 261.4085,221.6852 265.5086,221.8022 269.6088,221.9492 273.7089,222.1283 277.8091,222.3418 281.9092,222.5929 286.0094,222.8851 290.1095,223.2228 294.2097,223.6116 298.3099,224.0579 302.41,224.57 306.5102,225.0939 310.6103,225.3957 314.7105,225.1693 318.8106,224.4415 322.9108,223.5491 327.011,222.7243 331.1111,222.0137 335.2113,221.4047 339.3114,220.887 343.4116,220.4516 347.5117,220.0913 351.6119,219.7999 355.7121,219.5729 359.8122,219.4016 363.9124,219.1851 368.0125,218.8557 372.1127,218.4819 376.2128,218.1259 380.313,217.8022 384.4131,217.5428 388.5133,217.4752 392.6135,217.5882 396.7136,217.755 400.8138,217.8855 404.9139,217.8748 409.0141,217.588 413.1142,217.1845 417.2144,216.7469 421.3146,216.2644 425.4147,215.7405 429.5149,215.1991 433.615,214.6687 437.7152,214.1526 441.8153,213.6532 445.9155,213.1719 450.0156,212.7091 454.1158,212.2647 458.216,211.8382 462.3161,211.4282 466.4163,211.0333 470.5164,210.648 474.6166,210.2521 478.7167,209.8827 482.8169,209.7627 486.9171,209.8613 491.0172,209.9436 495.1174,209.979 499.2175,209.9322 503.3177,209.7154 507.4178,209.4238 511.518,209.1612 515.6182,208.9961 519.7183,209.0151 523.8185,209.0959 527.9186,209.1588 532.0188,209.1532 536.1189,209.1288 540.2191,209.27 544.3192,209.5407 548.4194,209.7387 552.5196,209.8169 556.6197,209.8819 560.7199,210.0155 564.82,210.2146 568.9202,210.3966 573.0203,210.5414 577.1205,210.6633 581.2207,210.7813 585.3208,210.8731 589.421,210.8234 593.5211,210.7452 597.6213,210.7119 601.7214,210.6869 605.8216,210.6689 609.9218,210.6567 614.0219,210.6493 618.1221,210.6458 622.2222,210.6458"></polyline>
<polyline id="error-psc" class="psc error" points=" 40,188.2396 44.1002,188.8033 48.2003,189.3849 52.3005,189.9858 56.4006,190.5849 60.5008,191.1089 64.6009,191.485 68.7011,191.6313 72.8013,191.5692 76.9014,191.4106 81.0016,191.2421 85.1017,191.1329 89.2019,191.0988 93.302,191.1368 97.4022,191.2441 101.5023,191.4184 105.6025,191.6575 109.7027,191.9602 113.8028,192.3256 117.903,192.7534 122.0031,193.2441 126.1033,193.7989 130.2034,194.4197 134.3036,195.1096 138.4038,195.8726 142.5039,196.7138 146.6041,197.6399 150.7042,198.6591 154.8044,199.5445 158.9045,199.9432 163.0047,199.3935 167.1049,198.4027 171.205,197.3375 175.3052,196.4156 179.4053,195.624 183.5055,194.9507 187.6056,194.3849 191.7058,193.9168 195.8059,193.5376 199.9061,193.2393 204.0063,193.0146 208.1064,192.857 212.2066,192.7604 216.3067,192.7325 220.4069,192.8152 224.507,193.0052 228.6072,193.2568 232.7074,193.5609 236.8075,193.9216 240.9077,194.268 245.0078,194.4925 249.108,194.4562 253.2081,194.318 257.3083,194.1913 261.4085,194.1442 265.5086,194.1729 269.6088,194.2743 273.7089,194.4465 277.8091,194.6888 281.9092,195.0011 286.0094,195.3848 290.1095,195.8424 294.2097,196.3778 298.3099,196.9966 302.41,197.7066 306.5102,198.4421 310.6103,198.9273 314.7105,198.8037 318.8106,198.1077 322.9108,197.2367 327.011,196.462 331.1111,195.8369 335.2113,196.2622 339.3114,197.3687 343.4116,198.7429 347.5117,199.4262 351.6119,199.7329 355.7121,199.7407 359.8122,199.7178 363.9124,199.5408 368.0125,199.5499 372.1127,199.7937 376.2128,200.252 380.313,200.4628 384.4131,200.531 388.5133,200.5466 392.6135,200.702 396.7136,200.9444 400.8138,201.1818 404.9139,201.2816 409.0141,201.0789 413.1142,200.7421 417.2144,200.33 421.3146,199.7766 425.4147,199.1452 429.5149,198.5057 433.615,197.9141 437.7152,197.371 441.8153,196.8761 445.9155,196.4283 450.0156,196.2119 454.1158,196.3557 458.216,196.7317 462.3161,197.0157 466.4163,197.0646 470.5164,196.9345 474.6166,196.6818 478.7167,196.4333 482.8169,196.4204 486.9171,196.6211 491.0172,196.8251 495.1174,197.0135 499.2175,197.1084 503.3177,196.9519 507.4178,196.734 511.518,196.5764 515.6182,196.5933 519.7183,196.8156 523.8185,197.1594 527.9186,197.4208 532.0188,197.5607 536.1189,197.6259 540.2191,197.8673 544.3192,198.3726 548.4194,198.914 552.5196,199.3974 556.6197,199.7156 560.7199,199.9707 564.82,200.1807 568.9202,200.3645 573.0203,200.451 577.1205,200.4512 581.2207,200.3474 585.3208,200.1829 589.421,199.6814 593.5211,199.0853 597.6213,198.485 601.7214,198.0372 605.8216,197.6812 609.9218,197.423 614.0219,197.1736 618.1221,196.9314 622.2222,196.6955 622.2222,224.5961 618.1221,224.3602 614.0219,224.1249 609.9218,223.8904 605.8216,223.6566 601.7214,223.3366 597.6213,222.9388 593.5211,222.4051 589.421,221.9654 585.3208,221.5632 581.2207,221.2153 577.1205,220.8754 573.0203,220.6318 568.9202,220.4287 564.82,220.2485 560.7199,220.0604 556.6197,220.0481 552.5196,220.2364 548.4194,220.5634 544.3192,220.7088 540.2191,220.6726 536.1189,220.6317 532.0188,220.7457 527.9186,220.8968 523.8185,221.0325 519.7183,221.2147 515.6182,221.3989 511.518,221.746 507.4178,222.1136 503.3177,222.479 499.2175,222.7559 495.1174,222.9444 491.0172,223.062 486.9171,223.1015 482.8169,223.1051 478.7167,223.332 474.6166,223.8224 470.5164,224.3616 466.4163,225.002 462.3161,225.8407 458.216,226.9447 454.1158,228.1738 450.0156,229.2063 445.9155,229.9154 441.8153,230.4303 437.7152,230.9342 433.615,231.4232 429.5149,231.8925 425.4147,232.3358 421.3146,232.7521 417.2144,233.1638 413.1142,233.6269 409.0141,234.0972 404.9139,234.468 400.8138,234.5891 396.7136,234.5655 392.6135,234.4744 388.5133,234.4038 384.4131,234.5547 380.313,235.1416 376.2128,235.9997 372.1127,237.1702 368.0125,238.1615 363.9124,238.8294 359.8122,239.0854 355.7121,239.405 351.6119,239.8669 347.5117,240.7564 343.4116,242.1604 339.3114,244.4053 335.2113,246.5472 331.1111,248.1905 327.011,248.9867 322.9108,249.8616 318.8106,250.7753 314.7105,251.5348 310.6103,251.8642 306.5102,251.7456 302.41,251.4335 298.3099,251.1192 294.2097,250.8454 290.1095,250.6033 286.0094,250.3853 281.9092,250.1846 277.8091,249.9948 273.7089,249.81 269.6088,249.6242 265.5086,249.4316 261.4085,249.2261 257.3083,249.0014 253.2081,248.7508 249.108,248.5128 245.0078,248.3485 240.9077,248.3367 236.8075,248.3726 232.7074,248.3791 228.6072,248.3068 224.507,248.1461 220.4069,247.9778 216.3067,248.1861 212.2066,248.822 208.1064,249.5315 204.0063,250.2258 199.9061,250.9136 195.8059,251.6023 191.7058,252.2986 187.6056,253.0088 183.5055,253.7388 179.4053,254.4945 175.3052,255.2814 171.205,256.105 167.1049,256.9707 163.0047,257.7589 158.9045,258.2787 154.8044,258.2732 150.7042,257.9947 146.6041,257.6293 142.5039,257.2944 138.4038,256.9836 134.3036,256.691 130.2034,256.4113 126.1033,256.1396 122.0031,255.8715 117.903,255.6025 113.8028,255.3285 109.7027,255.0455 105.6025,254.7494 101.5023,254.4361 97.4022,254.1017 93.302,253.7421 89.2019,253.353 85.1017,252.9302 81.0016,252.4696 76.9014,251.9905 72.8013,251.5722 68.7011,251.3044 64.6009,251.2974 60.5008,251.5552 56.4006,251.9733 52.3005,252.4659 48.2003,252.953 44.1002,253.4135 40,253.8507"></polyline>
<text class = "party psc" x="631.1111" y="211"><tspan class="party_name">PSC</tspan><tspan class="party_result"> (15.2±1.7%)</tspan></text>
<polyline id="media-cs"  class="cs media" points=" 40,180.7997 44.1002,181.3056 48.2003,181.838 52.3005,182.3981 56.4006,182.957 60.5008,183.4171 64.6009,183.6816 68.7011,183.6342 72.8013,183.28 76.9014,182.7444 81.0016,182.1332 85.1017,181.5484 89.2019,181.0211 93.302,180.5522 97.4022,180.142 101.5023,179.7904 105.6025,179.4964 109.7027,179.2593 113.8028,179.0779 117.903,178.9513 122.0031,178.8785 126.1033,178.8588 130.2034,178.8914 134.3036,178.9762 138.4038,179.1131 142.5039,179.3025 146.6041,179.5451 150.7042,179.8422 154.8044,180.1144 158.9045,180.2401 163.0047,180.0627 167.1049,179.7577 171.205,179.4534 175.3052,179.2271 179.4053,179.0774 183.5055,179.0031 187.6056,179.0034 191.7058,179.0782 195.8059,179.2278 199.9061,179.4533 204.0063,179.7563 208.1064,180.1395 212.2066,180.6064 216.3067,181.0641 220.4069,181.159 224.507,180.9398 228.6072,180.795 232.7074,180.817 236.8075,181.0068 240.9077,181.2106 245.0078,181.183 249.108,180.5765 253.2081,179.678 257.3083,178.7165 261.4085,177.8553 265.5086,177.0913 269.6088,176.421 273.7089,175.8406 277.8091,175.3466 281.9092,174.9358 286.0094,174.6051 290.1095,174.3524 294.2097,174.1759 298.3099,174.0747 302.41,174.0488 306.5102,174.0756 310.6103,174.0666 314.7105,173.9041 318.8106,173.5944 322.9108,173.2625 327.011,172.9974 331.1111,172.8203 335.2113,172.7302 339.3114,172.7277 343.4116,172.8143 347.5117,172.9934 351.6119,173.27 355.7121,173.5323 359.8122,173.3352 363.9124,172.6674 368.0125,171.9379 372.1127,171.2827 376.2128,170.7398 380.313,170.3207 384.4131,169.9991 388.5133,169.6572 392.6135,169.2821 396.7136,168.9893 400.8138,168.7427 404.9139,168.4256 409.0141,167.8865 413.1142,167.2637 417.2144,166.6112 421.3146,165.87 425.4147,165.059 429.5149,164.2251 433.615,163.4182 437.7152,162.6448 441.8153,161.9094 445.9155,161.2151 450.0156,160.5638 454.1158,159.9562 458.216,159.3928 462.3161,158.8729 466.4163,158.396 470.5164,157.972 474.6166,157.6411 478.7167,157.3128 482.8169,156.6586 486.9171,155.6589 491.0172,154.5447 495.1174,153.3472 499.2175,152.4816 503.3177,152.6207 507.4178,152.9403 511.518,153.0944 515.6182,153.1764 519.7183,153.2638 523.8185,153.3453 527.9186,153.3885 532.0188,153.2973 536.1189,153.0511 540.2191,152.5874 544.3192,151.9533 548.4194,151.3146 552.5196,150.6947 556.6197,150.0838 560.7199,149.4896 564.82,148.9305 568.9202,148.4405 573.0203,148.1008 577.1205,147.9038 581.2207,147.7588 585.3208,147.7099 589.421,147.9676 593.5211,148.3155 597.6213,148.6206 601.7214,148.8995 605.8216,149.1562 609.9218,149.3938 614.0219,149.6149 618.1221,149.8216 622.2222,150.0158"></polyline>
<polyline id="error-cs" class="cs error" points=" 40,146.0186 44.1002,147.0684 48.2003,148.1677 52.3005,149.3202 56.4006,150.4737 60.5008,151.4463 64.6009,152.0535 68.7011,152.0766 72.8013,151.5335 76.9014,150.6714 81.0016,149.6925 85.1017,148.7811 89.2019,147.988 93.302,147.3105 97.4022,146.7451 101.5023,146.2881 105.6025,145.9356 109.7027,145.6836 113.8028,145.5287 117.903,145.4674 122.0031,145.4968 126.1033,145.6146 130.2034,145.8189 134.3036,146.1084 138.4038,146.4827 142.5039,146.9421 146.6041,147.4876 150.7042,148.1215 154.8044,148.7094 158.9045,149.0452 163.0047,148.8668 167.1049,148.4763 171.205,148.0912 175.3052,147.8375 179.4053,147.7099 183.5055,147.7038 187.6056,147.8158 191.7058,148.0437 195.8059,148.3865 199.9061,148.8444 204.0063,149.4193 208.1064,150.1143 212.2066,150.9345 216.3067,151.7398 220.4069,151.9954 224.507,151.7777 228.6072,151.6726 232.7074,151.8145 236.8075,152.2013 240.9077,152.6113 245.0078,152.6948 249.108,151.9654 253.2081,150.8432 257.3083,149.6553 261.4085,148.6259 265.5086,147.7462 269.6088,147.0076 273.7089,146.4021 277.8091,145.9224 281.9092,145.5621 286.0094,145.3155 290.1095,145.1784 294.2097,145.1472 298.3099,145.22 302.41,145.3958 306.5102,145.6411 310.6103,145.8256 314.7105,145.7804 318.8106,145.5209 322.9108,145.2318 327.011,145.0404 331.1111,144.9738 335.2113,145.9768 339.3114,147.6783 343.4116,149.6617 347.5117,150.9461 351.6119,151.8683 355.7121,152.3985 359.8122,152.3653 363.9124,151.7355 368.0125,151.3527 372.1127,151.3362 376.2128,151.6398 380.313,151.7818 384.4131,151.8089 388.5133,151.5553 392.6135,151.2192 396.7136,151.0021 400.8138,150.8675 404.9139,150.6686 409.0141,150.2213 413.1142,149.6726 417.2144,149.0486 421.3146,148.2287 425.4147,147.2984 429.5149,146.3557 433.615,145.4813 437.7152,144.6782 441.8153,143.9483 445.9155,143.2919 450.0156,142.9008 454.1158,142.9093 458.216,143.1856 462.3161,143.3953 466.4163,143.3908 470.5164,143.2455 474.6166,143.0771 478.7167,142.886 482.8169,142.3456 486.9171,141.4472 491.0172,140.4558 495.1174,139.4169 499.2175,138.7025 503.3177,138.914 507.4178,139.324 511.518,139.6013 515.6182,139.8832 519.7183,140.1846 523.8185,140.5406 527.9186,140.7936 532.0188,140.859 536.1189,140.7117 540.2191,140.355 544.3192,139.9641 548.4194,139.6825 552.5196,139.4841 556.6197,139.1358 560.7199,138.6642 564.82,138.1108 568.9202,137.6168 573.0203,137.2109 577.1205,136.8817 581.2207,136.5017 585.3208,136.1817 589.421,135.9584 593.5211,135.7486 597.6213,135.4434 601.7214,135.2624 605.8216,135.1478 609.9218,135.1101 614.0219,135.0608 618.1221,135.0011 622.2222,134.9323 622.2222,165.0992 618.1221,164.6421 614.0219,164.169 609.9218,163.6774 605.8216,163.1646 601.7214,162.5367 597.6213,161.7978 593.5211,160.8823 589.421,159.9768 585.3208,159.2381 581.2207,159.0159 577.1205,158.9258 573.0203,158.9906 568.9202,159.2641 564.82,159.7502 560.7199,160.315 556.6197,161.0318 552.5196,161.9053 548.4194,162.9466 544.3192,163.9425 540.2191,164.8199 536.1189,165.3904 532.0188,165.7356 527.9186,165.9834 523.8185,166.15 519.7183,166.343 515.6182,166.4696 511.518,166.5874 507.4178,166.5565 503.3177,166.3275 499.2175,166.2607 495.1174,167.2775 491.0172,168.6336 486.9171,169.8706 482.8169,170.9716 478.7167,171.7396 474.6166,172.2052 470.5164,172.6986 466.4163,173.4012 462.3161,174.3506 458.216,175.5999 454.1158,177.0032 450.0156,178.2267 445.9155,179.1383 441.8153,179.8705 437.7152,180.6114 433.615,181.3552 429.5149,182.0944 425.4147,182.8196 421.3146,183.5112 417.2144,184.1739 413.1142,184.8549 409.0141,185.5517 404.9139,186.1827 400.8138,186.6179 396.7136,186.9765 392.6135,187.345 388.5133,187.7591 384.4131,188.1893 380.313,188.8596 376.2128,189.8398 372.1127,191.2293 368.0125,192.5232 363.9124,193.5993 359.8122,194.3051 355.7121,194.6661 351.6119,194.6717 347.5117,195.0407 343.4116,195.967 339.3114,197.7771 335.2113,199.4837 331.1111,200.6667 327.011,200.9545 322.9108,201.2931 318.8106,201.6679 314.7105,202.0277 310.6103,202.3075 306.5102,202.5101 302.41,202.7017 298.3099,202.9295 294.2097,203.2046 290.1095,203.5264 286.0094,203.8947 281.9092,204.3095 277.8091,204.7709 273.7089,205.2791 269.6088,205.8344 265.5086,206.4364 261.4085,207.0847 257.3083,207.7777 253.2081,208.5128 249.108,209.1876 245.0078,209.6713 240.9077,209.8099 236.8075,209.8123 232.7074,209.8195 228.6072,209.9174 224.507,210.1019 220.4069,210.3227 216.3067,210.3885 212.2066,210.2782 208.1064,210.1647 204.0063,210.0933 199.9061,210.0621 195.8059,210.0692 191.7058,210.1128 187.6056,210.1911 183.5055,210.3024 179.4053,210.4449 175.3052,210.6167 171.205,210.8156 167.1049,211.039 163.0047,211.2587 158.9045,211.435 154.8044,211.5194 150.7042,211.5629 146.6041,211.6026 142.5039,211.6629 138.4038,211.7435 134.3036,211.844 130.2034,211.964 126.1033,212.1029 122.0031,212.2602 117.903,212.4353 113.8028,212.6272 109.7027,212.8349 105.6025,213.0572 101.5023,213.2926 97.4022,213.539 93.302,213.7938 89.2019,214.0541 85.1017,214.3157 81.0016,214.5739 76.9014,214.8174 72.8013,215.0264 68.7011,215.1918 64.6009,215.3096 60.5008,215.3879 56.4006,215.4403 52.3005,215.476 48.2003,215.5083 44.1002,215.5428 40,215.5808"></polyline>
<text class = "party cs" x="631.1111" y="140"><tspan class="party_name">C's</tspan><tspan class="party_result"> (22.7±1.9%)</tspan></text>
<polyline id="media-pp"  class="pp media" points=" 40,262.6746 44.1002,262.3668 48.2003,262.0461 52.3005,261.7121 56.4006,261.3809 60.5008,261.1046 64.6009,260.9337 68.7011,260.9272 72.8013,261.0788 76.9014,261.3192 81.0016,261.5913 85.1017,261.8412 89.2019,262.0528 93.302,262.2255 97.4022,262.3591 101.5023,262.4537 105.6025,262.5094 109.7027,262.5266 113.8028,262.5054 117.903,262.4461 122.0031,262.3487 126.1033,262.2129 130.2034,262.0385 134.3036,261.8246 138.4038,261.5703 142.5039,261.2741 146.6041,260.9341 150.7042,260.5481 154.8044,260.2061 158.9045,260.0464 163.0047,260.2478 167.1049,260.6095 171.205,260.9857 175.3052,261.2897 179.4053,261.5248 183.5055,261.6941 187.6056,261.8004 191.7058,261.8461 195.8059,261.8332 199.9061,261.7632 204.0063,261.6376 208.1064,261.4573 212.2066,261.2233 216.3067,260.9664 220.4069,260.7906 224.507,260.6626 228.6072,260.4547 232.7074,260.1342 236.8075,259.6949 240.9077,259.2876 245.0078,259.147 249.108,259.5999 253.2081,260.346 257.3083,261.1555 261.4085,261.8705 265.5086,262.4956 269.6088,263.0356 273.7089,263.4948 277.8091,263.8773 281.9092,264.1864 286.0094,264.425 290.1095,264.5953 294.2097,264.6987 298.3099,264.7358 302.41,264.7061 306.5102,264.6348 310.6103,264.6217 314.7105,264.7993 318.8106,265.1613 322.9108,265.5684 327.011,265.9224 331.1111,266.2023 335.2113,266.4124 339.3114,266.5563 343.4116,266.6368 347.5117,266.6567 351.6119,266.6182 355.7121,266.5292 359.8122,266.4071 363.9124,266.4234 368.0125,266.678 372.1127,267.008 376.2128,267.2786 380.313,267.4562 384.4131,267.5648 388.5133,267.7064 392.6135,267.8809 396.7136,267.9835 400.8138,268.0174 404.9139,268.0318 409.0141,268.084 413.1142,268.1929 417.2144,268.4781 421.3146,269.1731 425.4147,270.0916 429.5149,271.071 433.615,271.9929 437.7152,272.8551 441.8153,273.6567 445.9155,274.3975 450.0156,275.078 454.1158,275.6991 458.216,276.2619 462.3161,276.7675 466.4163,277.217 470.5164,277.6398 474.6166,278.1381 478.7167,278.7136 482.8169,279.2279 486.9171,279.7115 491.0172,280.2792 495.1174,280.9182 499.2175,281.5056 503.3177,281.9043 507.4178,282.2956 511.518,282.6921 515.6182,283.0203 519.7183,283.2223 523.8185,283.3879 527.9186,283.5623 532.0188,283.761 536.1189,283.9674 540.2191,284.1555 544.3192,284.3226 548.4194,284.4799 552.5196,284.6287 556.6197,284.7672 560.7199,284.9399 564.82,285.1471 568.9202,285.3275 573.0203,285.4645 577.1205,285.5609 581.2207,285.6468 585.3208,285.6972 589.421,285.6178 593.5211,285.4778 597.6213,285.3422 601.7214,285.2146 605.8216,285.094 609.9218,284.9794 614.0219,284.8702 618.1221,284.7656 622.2222,284.6653"></polyline>
<polyline id="error-pp" class="pp error" points=" 40,237.4484 44.1002,237.5818 48.2003,237.7206 52.3005,237.8665 56.4006,238.0169 60.5008,238.1563 64.6009,238.2649 68.7011,238.3193 72.8013,238.3241 76.9014,238.3082 81.0016,238.2921 85.1017,238.2876 89.2019,238.294 93.302,238.3072 97.4022,238.3239 101.5023,238.3411 105.6025,238.3563 109.7027,238.3673 113.8028,238.3719 117.903,238.3686 122.0031,238.3556 126.1033,238.3313 130.2034,238.2944 134.3036,238.2433 138.4038,238.1765 142.5039,238.0926 146.6041,237.99 150.7042,237.8671 154.8044,237.7728 158.9045,237.7821 163.0047,237.9947 167.1049,238.3056 171.205,238.6356 175.3052,238.9341 179.4053,239.2009 183.5055,239.4365 187.6056,239.6414 191.7058,239.8164 195.8059,239.9624 199.9061,240.0804 204.0063,240.1718 208.1064,240.2382 212.2066,240.2819 216.3067,240.2973 220.4069,240.2473 224.507,240.1199 228.6072,239.9401 232.7074,239.7076 236.8075,239.4136 240.9077,239.1605 245.0078,239.1081 249.108,239.4848 253.2081,240.0866 257.3083,240.7542 261.4085,241.3712 265.5086,241.9374 269.6088,242.4532 273.7089,242.9193 277.8091,243.3366 281.9092,243.7059 286.0094,244.028 290.1095,244.3032 294.2097,244.5317 298.3099,244.7131 302.41,244.8464 306.5102,244.9489 310.6103,245.0918 314.7105,245.3727 318.8106,245.7923 322.9108,246.2528 327.011,246.6819 331.1111,247.0624 335.2113,248.0179 339.3114,249.3083 343.4116,250.6622 347.5117,251.4371 351.6119,251.8525 355.7121,251.9683 359.8122,251.9737 363.9124,252.0286 368.0125,252.5267 372.1127,253.2955 376.2128,254.1436 380.313,254.7133 384.4131,255.0747 388.5133,255.2924 392.6135,255.5061 396.7136,255.6731 400.8138,255.7967 404.9139,255.9052 409.0141,256.0348 413.1142,256.2094 417.2144,256.5307 421.3146,257.1925 425.4147,258.0546 429.5149,258.9884 433.615,259.8944 437.7152,260.7675 441.8153,261.604 445.9155,262.4014 450.0156,263.2842 454.1158,264.3402 458.216,265.4838 462.3161,266.4967 466.4163,267.2835 470.5164,267.915 474.6166,268.5449 478.7167,269.2353 482.8169,269.8481 486.9171,270.4224 491.0172,271.0979 495.1174,271.8704 499.2175,272.5813 503.3177,273.038 507.4178,273.4978 511.518,273.9857 515.6182,274.4537 519.7183,274.8007 523.8185,275.15 527.9186,275.4663 532.0188,275.7733 536.1189,276.0512 540.2191,276.3164 544.3192,276.6499 548.4194,277.0477 552.5196,277.4785 556.6197,277.7945 560.7199,278.0537 564.82,278.2715 568.9202,278.4555 573.0203,278.5538 577.1205,278.5671 581.2207,278.502 585.3208,278.3766 589.421,277.9813 593.5211,277.4734 597.6213,276.934 601.7214,276.4998 605.8216,276.1294 609.9218,275.8268 614.0219,275.5316 618.1221,275.2427 622.2222,274.9593 622.2222,294.3713 618.1221,294.2885 614.0219,294.2087 609.9218,294.132 605.8216,294.0586 601.7214,293.9294 597.6213,293.7503 593.5211,293.4822 589.421,293.2543 585.3208,293.0177 581.2207,292.7917 577.1205,292.5547 573.0203,292.3752 568.9202,292.1996 564.82,292.0227 560.7199,291.8262 556.6197,291.7399 552.5196,291.7789 548.4194,291.9121 544.3192,291.9952 540.2191,291.9946 536.1189,291.8837 532.0188,291.7486 527.9186,291.6584 523.8185,291.6259 519.7183,291.644 515.6182,291.587 511.518,291.3986 507.4178,291.0935 503.3177,290.7707 499.2175,290.4299 495.1174,289.9659 491.0172,289.4604 486.9171,289.0006 482.8169,288.6078 478.7167,288.192 474.6166,287.7313 470.5164,287.3646 466.4163,287.1505 462.3161,287.0383 458.216,287.0399 454.1158,287.058 450.0156,286.8718 445.9155,286.3936 441.8153,285.7095 437.7152,284.9428 433.615,284.0914 429.5149,283.1537 425.4147,282.1286 421.3146,281.1537 417.2144,280.4256 413.1142,280.1764 409.0141,280.1333 404.9139,280.1584 400.8138,280.2382 396.7136,280.2939 392.6135,280.2557 388.5133,280.1204 384.4131,280.0549 380.313,280.199 376.2128,280.4136 372.1127,280.7206 368.0125,280.8293 363.9124,280.8183 359.8122,280.8405 355.7121,281.0902 351.6119,281.3839 347.5117,281.8764 343.4116,282.6115 339.3114,283.8042 335.2113,284.807 331.1111,285.3422 327.011,285.1628 322.9108,284.884 318.8106,284.5303 314.7105,284.226 310.6103,284.1516 306.5102,284.3207 302.41,284.5659 298.3099,284.7585 294.2097,284.8657 290.1095,284.8874 286.0094,284.822 281.9092,284.6668 277.8091,284.4179 273.7089,284.0703 269.6088,283.6179 265.5086,283.0538 261.4085,282.3697 257.3083,281.5569 253.2081,280.6053 249.108,279.715 245.0078,279.1858 240.9077,279.4147 236.8075,279.9762 232.7074,280.5608 228.6072,280.9693 224.507,281.2053 220.4069,281.3338 216.3067,281.6356 212.2066,282.1646 208.1064,282.6764 204.0063,283.1034 199.9061,283.4461 195.8059,283.704 191.7058,283.8758 187.6056,283.9594 183.5055,283.9517 179.4053,283.8486 175.3052,283.6454 171.205,283.3359 167.1049,282.9134 163.0047,282.5009 158.9045,282.3106 154.8044,282.6393 150.7042,283.2291 146.6041,283.8783 142.5039,284.4556 138.4038,284.9641 134.3036,285.406 130.2034,285.7826 126.1033,286.0946 122.0031,286.3418 117.903,286.5237 113.8028,286.6389 109.7027,286.6859 105.6025,286.6626 101.5023,286.5663 97.4022,286.3944 93.302,286.1439 89.2019,285.8117 85.1017,285.3948 81.0016,284.8904 76.9014,284.3302 72.8013,283.8335 68.7011,283.5351 64.6009,283.6024 60.5008,284.0529 56.4006,284.7449 52.3005,285.5578 48.2003,286.3715 44.1002,287.1517 40,287.9008"></polyline>
<text class = "party pp" x="631.1111" y="300"><tspan class="party_name">PP</tspan><tspan class="party_result"> (6.0±1.2%)</tspan></text>
<polyline id="media-otros"  class="otros media" points=" 40,312.0272 44.1002,311.9829 48.2003,311.9382 52.3005,311.8935 56.4006,311.8501 60.5008,311.8115 64.6009,311.7801 68.7011,311.7579 72.8013,311.7417 76.9014,311.7256 81.0016,311.705 85.1017,311.6769 89.2019,311.6404 93.302,311.5954 97.4022,311.5416 101.5023,311.4788 105.6025,311.4069 109.7027,311.3254 113.8028,311.2342 117.903,311.1327 122.0031,311.0203 126.1033,310.8964 130.2034,310.7602 134.3036,310.6106 138.4038,310.4465 142.5039,310.2664 146.6041,310.0685 150.7042,309.8508 154.8044,309.6665 158.9045,309.599 163.0047,309.758 167.1049,310.0256 171.205,310.3156 175.3052,310.5763 179.4053,310.8109 183.5055,311.0223 187.6056,311.2135 191.7058,311.3874 195.8059,311.547 199.9061,311.6952 204.0063,311.8352 208.1064,311.9707 212.2066,312.1056 216.3067,312.2034 220.4069,312.1096 224.507,311.828 228.6072,311.5155 232.7074,311.2067 236.8075,310.8957 240.9077,310.6247 245.0078,310.4549 249.108,310.4665 253.2081,310.5603 257.3083,310.6672 261.4085,310.7443 265.5086,310.7935 269.6088,310.8167 273.7089,310.8151 277.8091,310.7897 281.9092,310.7409 286.0094,310.669 290.1095,310.574 294.2097,310.4552 298.3099,310.3117 302.41,310.1422 306.5102,309.9613 310.6103,309.8296 314.7105,309.824 318.8106,309.9337 322.9108,310.0698 327.011,310.1717 331.1111,310.2266 335.2113,310.2363 339.3114,310.2016 343.4116,310.1224 347.5117,309.9976 351.6119,309.8251 355.7121,309.661 359.8122,309.7263 363.9124,310.0473 368.0125,310.435 372.1127,310.8027 376.2128,311.1153 380.313,311.3636 384.4131,311.5655 388.5133,311.7994 392.6135,312.0758 396.7136,312.3214 400.8138,312.5477 404.9139,312.8111 409.0141,313.1876 413.1142,313.5865 417.2144,313.9308 421.3146,314.1718 425.4147,314.3712 429.5149,314.5611 433.615,314.7537 437.7152,314.9447 441.8153,315.1307 445.9155,315.3093 450.0156,315.4789 454.1158,315.6382 458.216,315.7867 462.3161,315.924 466.4163,316.0504 470.5164,316.1628 474.6166,316.2416 478.7167,316.3053 482.8169,316.4082 486.9171,316.5666 491.0172,316.7757 495.1174,317.0215 499.2175,317.1894 503.3177,317.1013 507.4178,316.9348 511.518,316.8178 515.6182,316.8083 519.7183,317.0031 523.8185,317.2772 527.9186,317.5671 532.0188,317.9197 536.1189,318.3458 540.2191,318.7719 544.3192,319.167 548.4194,319.4946 552.5196,319.6983 556.6197,319.7604 560.7199,319.7005 564.82,319.5734 568.9202,319.4243 573.0203,319.2483 577.1205,319.013 581.2207,318.6955 585.3208,318.3547 589.421,318.2225 593.5211,318.2809 597.6213,318.3524 601.7214,318.4067 605.8216,318.4475 609.9218,318.4776 614.0219,318.4992 618.1221,318.514 622.2222,318.5232"></polyline>
<polyline id="error-otros" class="otros error" points=" 40,289.4751 44.1002,289.8209 48.2003,290.1802 52.3005,290.5546 56.4006,290.929 60.5008,291.2481 64.6009,291.455 68.7011,291.4824 72.8013,291.3368 76.9014,291.0955 81.0016,290.8204 85.1017,290.5653 89.2019,290.3435 93.302,290.1524 97.4022,289.9894 101.5023,289.8521 105.6025,289.7379 109.7027,289.6445 113.8028,289.5695 117.903,289.5109 122.0031,289.4666 126.1033,289.4346 130.2034,289.4131 134.3036,289.4001 138.4038,289.394 142.5039,289.3929 146.6041,289.3951 150.7042,289.3989 154.8044,289.4231 158.9045,289.4985 163.0047,289.6702 167.1049,289.8999 171.205,290.157 175.3052,290.4195 179.4053,290.6879 183.5055,290.9628 187.6056,291.2454 191.7058,291.5371 195.8059,291.8398 199.9061,292.1559 204.0063,292.4884 208.1064,292.8413 212.2066,293.2193 216.3067,293.5524 220.4069,293.5601 224.507,293.2659 228.6072,292.9637 232.7074,292.7173 236.8075,292.5183 240.9077,292.3676 245.0078,292.2631 249.108,292.2013 253.2081,292.1624 257.3083,292.1363 261.4085,292.1165 265.5086,292.1013 269.6088,292.0892 273.7089,292.0788 277.8091,292.0685 281.9092,292.0567 286.0094,292.0419 290.1095,292.0225 294.2097,291.9966 298.3099,291.9625 302.41,291.9181 306.5102,291.8717 310.6103,291.8607 314.7105,291.9341 318.8106,292.0865 322.9108,292.262 327.011,292.4207 331.1111,292.5527 335.2113,293.3 339.3114,294.412 343.4116,295.6052 347.5117,296.2119 351.6119,296.4543 355.7121,296.4492 359.8122,296.6229 363.9124,296.9894 368.0125,297.6374 372.1127,298.4602 376.2128,299.3622 380.313,299.9988 384.4131,300.4395 388.5133,300.7409 392.6135,301.0569 396.7136,301.362 400.8138,301.6677 404.9139,302.0159 409.0141,302.468 413.1142,302.9333 417.2144,303.3148 421.3146,303.5267 425.4147,303.6723 429.5149,303.8144 433.615,303.9831 437.7152,304.172 441.8153,304.3757 445.9155,304.59 450.0156,304.9418 454.1158,305.5201 458.216,306.2348 462.3161,306.8593 466.4163,307.2941 470.5164,307.5802 474.6166,307.7537 478.7167,307.8968 482.8169,308.0696 486.9171,308.2948 491.0172,308.5843 495.1174,308.93 499.2175,309.1878 503.3177,309.133 507.4178,309.005 511.518,308.9461 515.6182,309.0531 519.7183,309.3927 523.8185,309.8565 527.9186,310.2885 532.0188,310.7455 536.1189,311.2375 540.2191,311.7336 544.3192,312.2896 548.4194,312.8524 552.5196,313.3331 556.6197,313.564 560.7199,313.581 564.82,313.4541 568.9202,313.2997 573.0203,313.0782 577.1205,312.7537 581.2207,312.2734 585.3208,311.7473 589.421,311.3174 593.5211,311.0515 597.6213,310.7651 601.7214,310.559 605.8216,310.3959 609.9218,310.2839 614.0219,310.1638 618.1221,310.0369 622.2222,309.9045 622.2222,327.1419 618.1221,326.9911 614.0219,326.8347 609.9218,326.6713 605.8216,326.4991 601.7214,326.2544 597.6213,325.9397 593.5211,325.5103 589.421,325.1277 585.3208,324.9621 581.2207,325.1176 577.1205,325.2722 573.0203,325.4183 568.9202,325.5488 564.82,325.6927 560.7199,325.8201 556.6197,325.9567 552.5196,326.0635 548.4194,326.1369 544.3192,326.0443 540.2191,325.8103 536.1189,325.4541 532.0188,325.0938 527.9186,324.8457 523.8185,324.6978 519.7183,324.6134 515.6182,324.5634 511.518,324.6894 507.4178,324.8645 503.3177,325.0697 499.2175,325.1911 495.1174,325.113 491.0172,324.9672 486.9171,324.8383 482.8169,324.7467 478.7167,324.7137 474.6166,324.7295 470.5164,324.7455 466.4163,324.8066 462.3161,324.9888 458.216,325.3386 454.1158,325.7564 450.0156,326.016 445.9155,326.0286 441.8153,325.8857 437.7152,325.7174 433.615,325.5244 429.5149,325.3079 425.4147,325.0701 421.3146,324.8169 417.2144,324.5468 413.1142,324.2398 409.0141,323.9071 404.9139,323.6063 400.8138,323.4277 396.7136,323.2809 392.6135,323.0947 388.5133,322.8579 384.4131,322.6915 380.313,322.7284 376.2128,322.8683 372.1127,323.1451 368.0125,323.2327 363.9124,323.1053 359.8122,322.8298 355.7121,322.8728 351.6119,323.1958 347.5117,323.7833 343.4116,324.6395 339.3114,325.9911 335.2113,327.1726 331.1111,327.9006 327.011,327.9228 322.9108,327.8776 318.8106,327.7809 314.7105,327.7139 310.6103,327.7985 306.5102,328.051 302.41,328.3663 298.3099,328.661 294.2097,328.9138 290.1095,329.1255 286.0094,329.2962 281.9092,329.4251 277.8091,329.5108 273.7089,329.5514 269.6088,329.5442 265.5086,329.4858 261.4085,329.372 257.3083,329.1981 253.2081,328.9582 249.108,328.7318 245.0078,328.6468 240.9077,328.8819 236.8075,329.2732 232.7074,329.6962 228.6072,330.0674 224.507,330.3901 220.4069,330.659 216.3067,330.8545 212.2066,330.9919 208.1064,331.1001 204.0063,331.182 199.9061,331.2345 195.8059,331.2542 191.7058,331.2378 187.6056,331.1816 183.5055,331.0818 179.4053,330.9339 175.3052,330.7331 171.205,330.4742 167.1049,330.1512 163.0047,329.8459 158.9045,329.6995 154.8044,329.91 150.7042,330.3026 146.6041,330.7419 142.5039,331.1399 138.4038,331.4991 134.3036,331.8212 130.2034,332.1074 126.1033,332.3582 122.0031,332.574 117.903,332.7544 113.8028,332.8989 109.7027,333.0064 105.6025,333.0758 101.5023,333.1055 97.4022,333.0937 93.302,333.0384 89.2019,332.9374 85.1017,332.7886 81.0016,332.5897 76.9014,332.3556 72.8013,332.1466 68.7011,332.0333 64.6009,332.1052 60.5008,332.3748 56.4006,332.7712 52.3005,333.2324 48.2003,333.3333 44.1002,333.3333 40,333.3333"></polyline>
<text class = "party otros" x="631.1111" y="321"><tspan class="party_name">Otros</tspan><tspan class="party_result"> (1.8±1.1%)</tspan></text>
<g id="encuesta-1">
<circle id="encuesta-1-cup" class="encuesta gad3 cup" cx="589.421" cy="288.0808" r="3.1623" ></circle>
<circle id="encuesta-1-erc" class="encuesta gad3 erc" cx="589.421" cy="169.2929" r="3.1623" ></circle>
<circle id="encuesta-1-jxcat" class="encuesta gad3 jxcat" cx="589.421" cy="175.7576" r="3.1623" ></circle>
<circle id="encuesta-1-cec" class="encuesta gad3 cec" cx="589.421" cy="272.7273" r="3.1623" ></circle>
<circle id="encuesta-1-psc" class="encuesta gad3 psc" cx="589.421" cy="201.6162" r="3.1623" ></circle>
<circle id="encuesta-1-cs" class="encuesta gad3 cs" cx="589.421" cy="145.8586" r="3.1623" ></circle>
<circle id="encuesta-1-pp" class="encuesta gad3 pp" cx="589.421" cy="283.2323" r="3.1623" ></circle>
<circle id="encuesta-1-otros" class="encuesta gad3 otros" cx="589.421" cy="322.0202" r="3.1623" ></circle>
</g>
<g id="encuesta-2">
<circle id="encuesta-2-cup" class="encuesta gesop cup" cx="589.421" cy="288.8889" r="2.8284" ></circle>
<circle id="encuesta-2-erc" class="encuesta gesop erc" cx="589.421" cy="153.9394" r="2.8284" ></circle>
<circle id="encuesta-2-jxcat" class="encuesta gesop jxcat" cx="589.421" cy="188.6869" r="2.8284" ></circle>
<circle id="encuesta-2-cec" class="encuesta gesop cec" cx="589.421" cy="261.4141" r="2.8284" ></circle>
<circle id="encuesta-2-psc" class="encuesta gesop psc" cx="589.421" cy="196.7677" r="2.8284" ></circle>
<circle id="encuesta-2-cs" class="encuesta gesop cs" cx="589.421" cy="162.0202" r="2.8284" ></circle>
<circle id="encuesta-2-pp" class="encuesta gesop pp" cx="589.421" cy="288.0808" r="2.8284" ></circle>
<circle id="encuesta-2-otros" class="encuesta gesop otros" cx="589.421" cy="318.7879" r="2.8284" ></circle>
</g>
<g id="encuesta-3">
<circle id="encuesta-3-cup" class="encuesta top_position cup" cx="589.421" cy="276.7677" r="3.4641" ></circle>
<circle id="encuesta-3-erc" class="encuesta top_position erc" cx="589.421" cy="186.2626" r="3.4641" ></circle>
<circle id="encuesta-3-jxcat" class="encuesta top_position jxcat" cx="589.421" cy="152.3232" r="3.4641" ></circle>
<circle id="encuesta-3-cec" class="encuesta top_position cec" cx="589.421" cy="285.6566" r="3.4641" ></circle>
<circle id="encuesta-3-psc" class="encuesta top_position psc" cx="589.421" cy="238.7879" r="3.4641" ></circle>
<circle id="encuesta-3-cs" class="encuesta top_position cs" cx="589.421" cy="135.3535" r="3.4641" ></circle>
<circle id="encuesta-3-pp" class="encuesta top_position pp" cx="589.421" cy="288.8889" r="3.4641" ></circle>
<circle id="encuesta-3-otros" class="encuesta top_position otros" cx="589.421" cy="294.5455" r="3.4641" ></circle>
</g>
<g id="encuesta-4">
<circle id="encuesta-4-cup" class="encuesta feedback cup" cx="581.2207" cy="271.9192" r="3.1623" ></circle>
<circle id="encuesta-4-erc" class="encuesta feedback erc" cx="581.2207" cy="162.8283" r="3.1623" ></circle>
<circle id="encuesta-4-jxcat" class="encuesta feedback jxcat" cx="581.2207" cy="174.9495" r="3.1623" ></circle>
<circle id="encuesta-4-cec" class="encuesta feedback cec" cx="581.2207" cy="275.1515" r="3.1623" ></circle>
<circle id="encuesta-4-psc" class="encuesta feedback psc" cx="581.2207" cy="212.9293" r="3.1623" ></circle>
<circle id="encuesta-4-cs" class="encuesta feedback cs" cx="581.2207" cy="146.6667" r="3.1623" ></circle>
<circle id="encuesta-4-pp" class="encuesta feedback pp" cx="581.2207" cy="287.2727" r="3.1623" ></circle>
<circle id="encuesta-4-otros" class="encuesta feedback otros" cx="581.2207" cy="326.8687" r="3.1623" ></circle>
</g>
<g id="encuesta-5">
<circle id="encuesta-5-cup" class="encuesta a+m cup" cx="585.3208" cy="288.0808" r="3.873" ></circle>
<circle id="encuesta-5-erc" class="encuesta a+m erc" cx="585.3208" cy="134.5455" r="3.873" ></circle>
<circle id="encuesta-5-jxcat" class="encuesta a+m jxcat" cx="585.3208" cy="190.303" r="3.873" ></circle>
<circle id="encuesta-5-cec" class="encuesta a+m cec" cx="585.3208" cy="284.8485" r="3.873" ></circle>
<circle id="encuesta-5-psc" class="encuesta a+m psc" cx="585.3208" cy="209.697" r="3.873" ></circle>
<circle id="encuesta-5-cs" class="encuesta a+m cs" cx="585.3208" cy="136.1616" r="3.873" ></circle>
<circle id="encuesta-5-pp" class="encuesta a+m pp" cx="585.3208" cy="289.697" r="3.873" ></circle>
<circle id="encuesta-5-otros" class="encuesta a+m otros" cx="585.3208" cy="325.2525" r="3.873" ></circle>
</g>
<g id="encuesta-6">
<circle id="encuesta-6-cup" class="encuesta sigmados cup" cx="585.3208" cy="281.6162" r="3.937" ></circle>
<circle id="encuesta-6-erc" class="encuesta sigmados erc" cx="585.3208" cy="151.5152" r="3.937" ></circle>
<circle id="encuesta-6-jxcat" class="encuesta sigmados jxcat" cx="585.3208" cy="199.1919" r="3.937" ></circle>
<circle id="encuesta-6-cec" class="encuesta sigmados cec" cx="585.3208" cy="271.1111" r="3.937" ></circle>
<circle id="encuesta-6-psc" class="encuesta sigmados psc" cx="585.3208" cy="208.8889" r="3.937" ></circle>
<circle id="encuesta-6-cs" class="encuesta sigmados cs" cx="585.3208" cy="149.0909" r="3.937" ></circle>
<circle id="encuesta-6-pp" class="encuesta sigmados pp" cx="585.3208" cy="286.4646" r="3.937" ></circle>
<circle id="encuesta-6-otros" class="encuesta sigmados otros" cx="585.3208" cy="310.7071" r="3.937" ></circle>
</g>
<g id="encuesta-7">
<circle id="encuesta-7-cup" class="encuesta myword cup" cx="573.0203" cy="292.1212" r="3.1686" ></circle>
<circle id="encuesta-7-erc" class="encuesta myword erc" cx="573.0203" cy="136.9697" r="3.1686" ></circle>
<circle id="encuesta-7-jxcat" class="encuesta myword jxcat" cx="573.0203" cy="188.6869" r="3.1686" ></circle>
<circle id="encuesta-7-cec" class="encuesta myword cec" cx="573.0203" cy="260.6061" r="3.1686" ></circle>
<circle id="encuesta-7-psc" class="encuesta myword psc" cx="573.0203" cy="211.3131" r="3.1686" ></circle>
<circle id="encuesta-7-cs" class="encuesta myword cs" cx="573.0203" cy="152.3232" r="3.1686" ></circle>
<circle id="encuesta-7-pp" class="encuesta myword pp" cx="573.0203" cy="294.5455" r="3.1686" ></circle>
<circle id="encuesta-7-otros" class="encuesta myword otros" cx="573.0203" cy="322.0202" r="3.1686" ></circle>
</g>
<g id="encuesta-8">
<circle id="encuesta-8-cup" class="encuesta infortecnica cup" cx="573.0203" cy="291.3131" r="3.4871" ></circle>
<circle id="encuesta-8-erc" class="encuesta infortecnica erc" cx="573.0203" cy="142.6263" r="3.4871" ></circle>
<circle id="encuesta-8-jxcat" class="encuesta infortecnica jxcat" cx="573.0203" cy="183.8384" r="3.4871" ></circle>
<circle id="encuesta-8-cec" class="encuesta infortecnica cec" cx="573.0203" cy="288.8889" r="3.4871" ></circle>
<circle id="encuesta-8-psc" class="encuesta infortecnica psc" cx="573.0203" cy="193.5354" r="3.4871" ></circle>
<circle id="encuesta-8-cs" class="encuesta infortecnica cs" cx="573.0203" cy="142.6263" r="3.4871" ></circle>
<circle id="encuesta-8-pp" class="encuesta infortecnica pp" cx="573.0203" cy="282.4242" r="3.4871" ></circle>
<circle id="encuesta-8-otros" class="encuesta infortecnica otros" cx="573.0203" cy="333.3333" r="3.4871" ></circle>
</g>
<g id="encuesta-9">
<circle id="encuesta-9-cup" class="encuesta nc_report cup" cx="573.0203" cy="286.4646" r="3.1623" ></circle>
<circle id="encuesta-9-erc" class="encuesta nc_report erc" cx="573.0203" cy="152.3232" r="3.1623" ></circle>
<circle id="encuesta-9-jxcat" class="encuesta nc_report jxcat" cx="573.0203" cy="203.2323" r="3.1623" ></circle>
<circle id="encuesta-9-cec" class="encuesta nc_report cec" cx="573.0203" cy="271.9192" r="3.1623" ></circle>
<circle id="encuesta-9-psc" class="encuesta nc_report psc" cx="573.0203" cy="204.8485" r="3.1623" ></circle>
<circle id="encuesta-9-cs" class="encuesta nc_report cs" cx="573.0203" cy="157.1717" r="3.1623" ></circle>
<circle id="encuesta-9-pp" class="encuesta nc_report pp" cx="573.0203" cy="274.3434" r="3.1623" ></circle>
<circle id="encuesta-9-otros" class="encuesta nc_report otros" cx="573.0203" cy="308.2828" r="3.1623" ></circle>
</g>
<g id="encuesta-10">
<circle id="encuesta-10-cup" class="encuesta metroscopia cup" cx="573.0203" cy="281.6162" r="5.7446" ></circle>
<circle id="encuesta-10-erc" class="encuesta metroscopia erc" cx="573.0203" cy="146.6667" r="5.7446" ></circle>
<circle id="encuesta-10-jxcat" class="encuesta metroscopia jxcat" cx="573.0203" cy="217.7778" r="5.7446" ></circle>
<circle id="encuesta-10-cec" class="encuesta metroscopia cec" cx="573.0203" cy="258.1818" r="5.7446" ></circle>
<circle id="encuesta-10-psc" class="encuesta metroscopia psc" cx="573.0203" cy="217.7778" r="5.7446" ></circle>
<circle id="encuesta-10-cs" class="encuesta metroscopia cs" cx="573.0203" cy="129.697" r="5.7446" ></circle>
<circle id="encuesta-10-pp" class="encuesta metroscopia pp" cx="573.0203" cy="289.697" r="5.7446" ></circle>
<circle id="encuesta-10-otros" class="encuesta metroscopia otros" cx="573.0203" cy="317.1717" r="5.7446" ></circle>
</g>
<g id="encuesta-11">
<circle id="encuesta-11-cup" class="encuesta sociometrica cup" cx="564.82" cy="290.5051" r="3.3166" ></circle>
<circle id="encuesta-11-erc" class="encuesta sociometrica erc" cx="564.82" cy="159.596" r="3.3166" ></circle>
<circle id="encuesta-11-jxcat" class="encuesta sociometrica jxcat" cx="564.82" cy="166.8687" r="3.3166" ></circle>
<circle id="encuesta-11-cec" class="encuesta sociometrica cec" cx="564.82" cy="259.798" r="3.3166" ></circle>
<circle id="encuesta-11-psc" class="encuesta sociometrica psc" cx="564.82" cy="215.3535" r="3.3166" ></circle>
<circle id="encuesta-11-cs" class="encuesta sociometrica cs" cx="564.82" cy="156.3636" r="3.3166" ></circle>
<circle id="encuesta-11-pp" class="encuesta sociometrica pp" cx="564.82" cy="292.9293" r="3.3166" ></circle>
<circle id="encuesta-11-otros" class="encuesta sociometrica otros" cx="564.82" cy="317.1717" r="3.3166" ></circle>
</g>
<g id="encuesta-12">
<circle id="encuesta-12-cup" class="encuesta feedback cup" cx="573.0203" cy="271.1111" r="3.1623" ></circle>
<circle id="encuesta-12-erc" class="encuesta feedback erc" cx="573.0203" cy="164.4444" r="3.1623" ></circle>
<circle id="encuesta-12-jxcat" class="encuesta feedback jxcat" cx="573.0203" cy="185.4545" r="3.1623" ></circle>
<circle id="encuesta-12-cec" class="encuesta feedback cec" cx="573.0203" cy="267.0707" r="3.1623" ></circle>
<circle id="encuesta-12-psc" class="encuesta feedback psc" cx="573.0203" cy="210.5051" r="3.1623" ></circle>
<circle id="encuesta-12-cs" class="encuesta feedback cs" cx="573.0203" cy="142.6263" r="3.1623" ></circle>
<circle id="encuesta-12-pp" class="encuesta feedback pp" cx="573.0203" cy="289.697" r="3.1623" ></circle>
<circle id="encuesta-12-otros" class="encuesta feedback otros" cx="573.0203" cy="327.6768" r="3.1623" ></circle>
</g>
<g id="encuesta-13">
<circle id="encuesta-13-cup" class="encuesta sociometrica cup" cx="556.6197" cy="285.6566" r="3.3166" ></circle>
<circle id="encuesta-13-erc" class="encuesta sociometrica erc" cx="556.6197" cy="160.404" r="3.3166" ></circle>
<circle id="encuesta-13-jxcat" class="encuesta sociometrica jxcat" cx="556.6197" cy="161.2121" r="3.3166" ></circle>
<circle id="encuesta-13-cec" class="encuesta sociometrica cec" cx="556.6197" cy="267.0707" r="3.3166" ></circle>
<circle id="encuesta-13-psc" class="encuesta sociometrica psc" cx="556.6197" cy="219.3939" r="3.3166" ></circle>
<circle id="encuesta-13-cs" class="encuesta sociometrica cs" cx="556.6197" cy="162.0202" r="3.3166" ></circle>
<circle id="encuesta-13-pp" class="encuesta sociometrica pp" cx="556.6197" cy="284.0404" r="3.3166" ></circle>
<circle id="encuesta-13-otros" class="encuesta sociometrica otros" cx="556.6197" cy="318.7879" r="3.3166" ></circle>
</g>
<g id="encuesta-14">
<circle id="encuesta-14-cup" class="encuesta feedback cup" cx="556.6197" cy="273.5354" r="3.1623" ></circle>
<circle id="encuesta-14-erc" class="encuesta feedback erc" cx="556.6197" cy="153.1313" r="3.1623" ></circle>
<circle id="encuesta-14-jxcat" class="encuesta feedback jxcat" cx="556.6197" cy="180.6061" r="3.1623" ></circle>
<circle id="encuesta-14-cec" class="encuesta feedback cec" cx="556.6197" cy="273.5354" r="3.1623" ></circle>
<circle id="encuesta-14-psc" class="encuesta feedback psc" cx="556.6197" cy="204.8485" r="3.1623" ></circle>
<circle id="encuesta-14-cs" class="encuesta feedback cs" cx="556.6197" cy="161.2121" r="3.1623" ></circle>
<circle id="encuesta-14-pp" class="encuesta feedback pp" cx="556.6197" cy="284.0404" r="3.1623" ></circle>
<circle id="encuesta-14-otros" class="encuesta feedback otros" cx="556.6197" cy="327.6768" r="3.1623" ></circle>
</g>
<g id="encuesta-15">
<circle id="encuesta-15-cup" class="encuesta infortecnica cup" cx="552.5196" cy="282.4242" r="3.4871" ></circle>
<circle id="encuesta-15-erc" class="encuesta infortecnica erc" cx="552.5196" cy="145.0505" r="3.4871" ></circle>
<circle id="encuesta-15-jxcat" class="encuesta infortecnica jxcat" cx="552.5196" cy="180.6061" r="3.4871" ></circle>
<circle id="encuesta-15-cec" class="encuesta infortecnica cec" cx="552.5196" cy="291.3131" r="3.4871" ></circle>
<circle id="encuesta-15-psc" class="encuesta infortecnica psc" cx="552.5196" cy="201.6162" r="3.4871" ></circle>
<circle id="encuesta-15-cs" class="encuesta infortecnica cs" cx="552.5196" cy="136.1616" r="3.4871" ></circle>
<circle id="encuesta-15-pp" class="encuesta infortecnica pp" cx="552.5196" cy="288.0808" r="3.4871" ></circle>
<circle id="encuesta-15-otros" class="encuesta infortecnica otros" cx="552.5196" cy="333.3333" r="3.4871" ></circle>
</g>
<g id="encuesta-16">
<circle id="encuesta-16-cup" class="encuesta celeste-tel cup" cx="552.5196" cy="280" r="2.8284" ></circle>
<circle id="encuesta-16-erc" class="encuesta celeste-tel erc" cx="552.5196" cy="148.2828" r="2.8284" ></circle>
<circle id="encuesta-16-jxcat" class="encuesta celeste-tel jxcat" cx="552.5196" cy="202.4242" r="2.8284" ></circle>
<circle id="encuesta-16-cec" class="encuesta celeste-tel cec" cx="552.5196" cy="267.8788" r="2.8284" ></circle>
<circle id="encuesta-16-psc" class="encuesta celeste-tel psc" cx="552.5196" cy="203.2323" r="2.8284" ></circle>
<circle id="encuesta-16-cs" class="encuesta celeste-tel cs" cx="552.5196" cy="153.9394" r="2.8284" ></circle>
<circle id="encuesta-16-pp" class="encuesta celeste-tel pp" cx="552.5196" cy="279.1919" r="2.8284" ></circle>
<circle id="encuesta-16-otros" class="encuesta celeste-tel otros" cx="552.5196" cy="323.6364" r="2.8284" ></circle>
</g>
<g id="encuesta-17">
<circle id="encuesta-17-cup" class="encuesta sociometrica cup" cx="548.4194" cy="288.8889" r="3.3166" ></circle>
<circle id="encuesta-17-erc" class="encuesta sociometrica erc" cx="548.4194" cy="151.5152" r="3.3166" ></circle>
<circle id="encuesta-17-jxcat" class="encuesta sociometrica jxcat" cx="548.4194" cy="173.3333" r="3.3166" ></circle>
<circle id="encuesta-17-cec" class="encuesta sociometrica cec" cx="548.4194" cy="273.5354" r="3.3166" ></circle>
<circle id="encuesta-17-psc" class="encuesta sociometrica psc" cx="548.4194" cy="216.9697" r="3.3166" ></circle>
<circle id="encuesta-17-cs" class="encuesta sociometrica cs" cx="548.4194" cy="159.596" r="3.3166" ></circle>
<circle id="encuesta-17-pp" class="encuesta sociometrica pp" cx="548.4194" cy="289.697" r="3.3166" ></circle>
<circle id="encuesta-17-otros" class="encuesta sociometrica otros" cx="548.4194" cy="305.0505" r="3.3166" ></circle>
</g>
<g id="encuesta-18">
<circle id="encuesta-18-cup" class="encuesta gad3 cup" cx="560.7199" cy="292.9293" r="3.1623" ></circle>
<circle id="encuesta-18-erc" class="encuesta gad3 erc" cx="560.7199" cy="159.596" r="3.1623" ></circle>
<circle id="encuesta-18-jxcat" class="encuesta gad3 jxcat" cx="560.7199" cy="186.2626" r="3.1623" ></circle>
<circle id="encuesta-18-cec" class="encuesta gad3 cec" cx="560.7199" cy="273.5354" r="3.1623" ></circle>
<circle id="encuesta-18-psc" class="encuesta gad3 psc" cx="560.7199" cy="200" r="3.1623" ></circle>
<circle id="encuesta-18-cs" class="encuesta gad3 cs" cx="560.7199" cy="146.6667" r="3.1623" ></circle>
<circle id="encuesta-18-pp" class="encuesta gad3 pp" cx="560.7199" cy="275.9596" r="3.1623" ></circle>
<circle id="encuesta-18-otros" class="encuesta gad3 otros" cx="560.7199" cy="323.6364" r="3.1623" ></circle>
</g>
<g id="encuesta-19">
<circle id="encuesta-19-cup" class="encuesta feedback cup" cx="556.6197" cy="275.9596" r="3" ></circle>
<circle id="encuesta-19-erc" class="encuesta feedback erc" cx="556.6197" cy="146.6667" r="3" ></circle>
<circle id="encuesta-19-jxcat" class="encuesta feedback jxcat" cx="556.6197" cy="195.9596" r="3" ></circle>
<circle id="encuesta-19-cec" class="encuesta feedback cec" cx="556.6197" cy="268.6869" r="3" ></circle>
<circle id="encuesta-19-psc" class="encuesta feedback psc" cx="556.6197" cy="209.697" r="3" ></circle>
<circle id="encuesta-19-cs" class="encuesta feedback cs" cx="556.6197" cy="147.4747" r="3" ></circle>
<circle id="encuesta-19-pp" class="encuesta feedback pp" cx="556.6197" cy="288.8889" r="3" ></circle>
<circle id="encuesta-19-otros" class="encuesta feedback otros" cx="556.6197" cy="325.2525" r="3" ></circle>
</g>
<g id="encuesta-20">
<circle id="encuesta-20-cup" class="encuesta feedback cup" cx="548.4194" cy="281.6162" r="3.1623" ></circle>
<circle id="encuesta-20-erc" class="encuesta feedback erc" cx="548.4194" cy="139.3939" r="3.1623" ></circle>
<circle id="encuesta-20-jxcat" class="encuesta feedback jxcat" cx="548.4194" cy="195.1515" r="3.1623" ></circle>
<circle id="encuesta-20-cec" class="encuesta feedback cec" cx="548.4194" cy="258.1818" r="3.1623" ></circle>
<circle id="encuesta-20-psc" class="encuesta feedback psc" cx="548.4194" cy="224.2424" r="3.1623" ></circle>
<circle id="encuesta-20-cs" class="encuesta feedback cs" cx="548.4194" cy="149.0909" r="3.1623" ></circle>
<circle id="encuesta-20-pp" class="encuesta feedback pp" cx="548.4194" cy="283.2323" r="3.1623" ></circle>
<circle id="encuesta-20-otros" class="encuesta feedback otros" cx="548.4194" cy="327.6768" r="3.1623" ></circle>
</g>
<g id="encuesta-21">
<circle id="encuesta-21-cup" class="encuesta gesop cup" cx="540.2191" cy="284.8485" r="2.8284" ></circle>
<circle id="encuesta-21-erc" class="encuesta gesop erc" cx="540.2191" cy="167.6768" r="2.8284" ></circle>
<circle id="encuesta-21-jxcat" class="encuesta gesop jxcat" cx="540.2191" cy="177.3737" r="2.8284" ></circle>
<circle id="encuesta-21-cec" class="encuesta gesop cec" cx="540.2191" cy="264.6465" r="2.8284" ></circle>
<circle id="encuesta-21-psc" class="encuesta gesop psc" cx="540.2191" cy="179.798" r="2.8284" ></circle>
<circle id="encuesta-21-cs" class="encuesta gesop cs" cx="540.2191" cy="179.798" r="2.8284" ></circle>
<circle id="encuesta-21-pp" class="encuesta gesop pp" cx="540.2191" cy="286.4646" r="2.8284" ></circle>
<circle id="encuesta-21-otros" class="encuesta gesop otros" cx="540.2191" cy="317.9798" r="2.8284" ></circle>
</g>
<g id="encuesta-22">
<circle id="encuesta-22-cup" class="encuesta sociometrica cup" cx="532.0188" cy="284.8485" r="2.8284" ></circle>
<circle id="encuesta-22-erc" class="encuesta sociometrica erc" cx="532.0188" cy="146.6667" r="2.8284" ></circle>
<circle id="encuesta-22-jxcat" class="encuesta sociometrica jxcat" cx="532.0188" cy="179.798" r="2.8284" ></circle>
<circle id="encuesta-22-cec" class="encuesta sociometrica cec" cx="532.0188" cy="281.6162" r="2.8284" ></circle>
<circle id="encuesta-22-psc" class="encuesta sociometrica psc" cx="532.0188" cy="210.5051" r="2.8284" ></circle>
<circle id="encuesta-22-cs" class="encuesta sociometrica cs" cx="532.0188" cy="167.6768" r="2.8284" ></circle>
<circle id="encuesta-22-pp" class="encuesta sociometrica pp" cx="532.0188" cy="283.2323" r="2.8284" ></circle>
<circle id="encuesta-22-otros" class="encuesta sociometrica otros" cx="532.0188" cy="304.2424" r="2.8284" ></circle>
</g>
<g id="encuesta-23">
<circle id="encuesta-23-cup" class="encuesta cis cup" cx="515.6182" cy="279.1919" r="5.4772" ></circle>
<circle id="encuesta-23-erc" class="encuesta cis erc" cx="515.6182" cy="165.2525" r="5.4772" ></circle>
<circle id="encuesta-23-jxcat" class="encuesta cis jxcat" cx="515.6182" cy="196.7677" r="5.4772" ></circle>
<circle id="encuesta-23-cec" class="encuesta cis cec" cx="515.6182" cy="263.8384" r="5.4772" ></circle>
<circle id="encuesta-23-psc" class="encuesta cis psc" cx="515.6182" cy="204.0404" r="5.4772" ></circle>
<circle id="encuesta-23-cs" class="encuesta cis cs" cx="515.6182" cy="151.5152" r="5.4772" ></circle>
<circle id="encuesta-23-pp" class="encuesta cis pp" cx="515.6182" cy="286.4646" r="5.4772" ></circle>
<circle id="encuesta-23-otros" class="encuesta cis otros" cx="515.6182" cy="311.5152" r="5.4772" ></circle>
</g>
<g id="encuesta-24">
<circle id="encuesta-24-cup" class="encuesta nc_report cup" cx="486.9171" cy="287.2727" r="3.1623" ></circle>
<circle id="encuesta-24-erc" class="encuesta nc_report erc" cx="486.9171" cy="138.5859" r="3.1623" ></circle>
<circle id="encuesta-24-jxcat" class="encuesta nc_report jxcat" cx="486.9171" cy="223.4343" r="3.1623" ></circle>
<circle id="encuesta-24-cec" class="encuesta nc_report cec" cx="486.9171" cy="265.4545" r="3.1623" ></circle>
<circle id="encuesta-24-psc" class="encuesta nc_report psc" cx="486.9171" cy="214.5455" r="3.1623" ></circle>
<circle id="encuesta-24-cs" class="encuesta nc_report cs" cx="486.9171" cy="164.4444" r="3.1623" ></circle>
<circle id="encuesta-24-pp" class="encuesta nc_report pp" cx="486.9171" cy="258.1818" r="3.1623" ></circle>
<circle id="encuesta-24-otros" class="encuesta nc_report otros" cx="486.9171" cy="306.6667" r="3.1623" ></circle>
</g>
<g id="encuesta-25">
<circle id="encuesta-25-cup" class="encuesta metroscopia cup" cx="499.2175" cy="285.6566" r="4.2426" ></circle>
<circle id="encuesta-25-erc" class="encuesta metroscopia erc" cx="499.2175" cy="119.1919" r="4.2426" ></circle>
<circle id="encuesta-25-jxcat" class="encuesta metroscopia jxcat" cx="499.2175" cy="223.4343" r="4.2426" ></circle>
<circle id="encuesta-25-cec" class="encuesta metroscopia cec" cx="499.2175" cy="279.1919" r="4.2426" ></circle>
<circle id="encuesta-25-psc" class="encuesta metroscopia psc" cx="499.2175" cy="212.9293" r="4.2426" ></circle>
<circle id="encuesta-25-cs" class="encuesta metroscopia cs" cx="499.2175" cy="128.8889" r="4.2426" ></circle>
<circle id="encuesta-25-pp" class="encuesta metroscopia pp" cx="499.2175" cy="286.4646" r="4.2426" ></circle>
<circle id="encuesta-25-otros" class="encuesta metroscopia otros" cx="499.2175" cy="322.8283" r="4.2426" ></circle>
</g>
<g id="encuesta-26">
<circle id="encuesta-26-cup" class="encuesta gesop cup" cx="482.8169" cy="282.4242" r="2.8284" ></circle>
<circle id="encuesta-26-erc" class="encuesta gesop erc" cx="482.8169" cy="140.202" r="2.8284" ></circle>
<circle id="encuesta-26-jxcat" class="encuesta gesop jxcat" cx="482.8169" cy="200" r="2.8284" ></circle>
<circle id="encuesta-26-cec" class="encuesta gesop cec" cx="482.8169" cy="263.8384" r="2.8284" ></circle>
<circle id="encuesta-26-psc" class="encuesta gesop psc" cx="482.8169" cy="187.0707" r="2.8284" ></circle>
<circle id="encuesta-26-cs" class="encuesta gesop cs" cx="482.8169" cy="183.0303" r="2.8284" ></circle>
<circle id="encuesta-26-pp" class="encuesta gesop pp" cx="482.8169" cy="287.2727" r="2.8284" ></circle>
<circle id="encuesta-26-otros" class="encuesta gesop otros" cx="482.8169" cy="314.7475" r="2.8284" ></circle>
</g>
<g id="encuesta-27">
<circle id="encuesta-27-cup" class="encuesta gad3 cup" cx="474.6166" cy="288.0808" r="2.8302" ></circle>
<circle id="encuesta-27-erc" class="encuesta gad3 erc" cx="474.6166" cy="146.6667" r="2.8302" ></circle>
<circle id="encuesta-27-jxcat" class="encuesta gad3 jxcat" cx="474.6166" cy="198.3838" r="2.8302" ></circle>
<circle id="encuesta-27-cec" class="encuesta gad3 cec" cx="474.6166" cy="271.9192" r="2.8302" ></circle>
<circle id="encuesta-27-psc" class="encuesta gad3 psc" cx="474.6166" cy="211.3131" r="2.8302" ></circle>
<circle id="encuesta-27-cs" class="encuesta gad3 cs" cx="474.6166" cy="153.1313" r="2.8302" ></circle>
<circle id="encuesta-27-pp" class="encuesta gad3 pp" cx="474.6166" cy="270.303" r="2.8302" ></circle>
<circle id="encuesta-27-otros" class="encuesta gad3 otros" cx="474.6166" cy="318.7879" r="2.8302" ></circle>
</g>
<g id="encuesta-28">
<circle id="encuesta-28-cup" class="encuesta nc_report cup" cx="417.2144" cy="282.4242" r="3.1623" ></circle>
<circle id="encuesta-28-erc" class="encuesta nc_report erc" cx="417.2144" cy="120.8081" r="3.1623" ></circle>
<circle id="encuesta-28-jxcat" class="encuesta nc_report jxcat" cx="417.2144" cy="246.8687" r="3.1623" ></circle>
<circle id="encuesta-28-cec" class="encuesta nc_report cec" cx="417.2144" cy="249.2929" r="3.1623" ></circle>
<circle id="encuesta-28-psc" class="encuesta nc_report psc" cx="417.2144" cy="223.4343" r="3.1623" ></circle>
<circle id="encuesta-28-cs" class="encuesta nc_report cs" cx="417.2144" cy="174.9495" r="3.1623" ></circle>
<circle id="encuesta-28-pp" class="encuesta nc_report pp" cx="417.2144" cy="248.4848" r="3.1623" ></circle>
<circle id="encuesta-28-otros" class="encuesta nc_report otros" cx="417.2144" cy="312.3232" r="3.1623" ></circle>
</g>
<g id="encuesta-29">
<circle id="encuesta-29-cup" class="encuesta gad3 cup" cx="417.2144" cy="282.4242" r="3.5114" ></circle>
<circle id="encuesta-29-erc" class="encuesta gad3 erc" cx="417.2144" cy="96.5657" r="3.5114" ></circle>
<circle id="encuesta-29-jxcat" class="encuesta gad3 jxcat" cx="417.2144" cy="249.2929" r="3.5114" ></circle>
<circle id="encuesta-29-cec" class="encuesta gad3 cec" cx="417.2144" cy="266.2626" r="3.5114" ></circle>
<circle id="encuesta-29-psc" class="encuesta gad3 psc" cx="417.2144" cy="215.3535" r="3.5114" ></circle>
<circle id="encuesta-29-cs" class="encuesta gad3 cs" cx="417.2144" cy="166.8687" r="3.5114" ></circle>
<circle id="encuesta-29-pp" class="encuesta gad3 pp" cx="417.2144" cy="263.0303" r="3.5114" ></circle>
<circle id="encuesta-29-otros" class="encuesta gad3 otros" cx="417.2144" cy="318.7879" r="3.5114" ></circle>
</g>
<g id="encuesta-30">
<circle id="encuesta-30-cup" class="encuesta sociometrica cup" cx="404.9139" cy="287.2727" r="3.1623" ></circle>
<circle id="encuesta-30-erc" class="encuesta sociometrica erc" cx="404.9139" cy="81.2121" r="3.1623" ></circle>
<circle id="encuesta-30-jxcat" class="encuesta sociometrica jxcat" cx="404.9139" cy="251.7172" r="3.1623" ></circle>
<circle id="encuesta-30-cec" class="encuesta sociometrica cec" cx="404.9139" cy="252.5253" r="3.1623" ></circle>
<circle id="encuesta-30-psc" class="encuesta sociometrica psc" cx="404.9139" cy="234.7475" r="3.1623" ></circle>
<circle id="encuesta-30-cs" class="encuesta sociometrica cs" cx="404.9139" cy="185.4545" r="3.1623" ></circle>
<circle id="encuesta-30-pp" class="encuesta sociometrica pp" cx="404.9139" cy="260.6061" r="3.1623" ></circle>
<circle id="encuesta-30-otros" class="encuesta sociometrica otros" cx="404.9139" cy="305.0505" r="3.1623" ></circle>
</g>
<g id="encuesta-31">
<circle id="encuesta-31-cup" class="encuesta sigmados cup" cx="388.5133" cy="282.4242" r="3.1623" ></circle>
<circle id="encuesta-31-erc" class="encuesta sigmados erc" cx="388.5133" cy="120" r="3.1623" ></circle>
<circle id="encuesta-31-jxcat" class="encuesta sigmados jxcat" cx="388.5133" cy="254.1414" r="3.1623" ></circle>
<circle id="encuesta-31-cec" class="encuesta sigmados cec" cx="388.5133" cy="244.4444" r="3.1623" ></circle>
<circle id="encuesta-31-psc" class="encuesta sigmados psc" cx="388.5133" cy="211.3131" r="3.1623" ></circle>
<circle id="encuesta-31-cs" class="encuesta sigmados cs" cx="388.5133" cy="174.9495" r="3.1623" ></circle>
<circle id="encuesta-31-pp" class="encuesta sigmados pp" cx="388.5133" cy="263.0303" r="3.1623" ></circle>
<circle id="encuesta-31-otros" class="encuesta sigmados otros" cx="388.5133" cy="308.2828" r="3.1623" ></circle>
</g>
<g id="encuesta-32">
<circle id="encuesta-32-cup" class="encuesta nc_report cup" cx="363.9124" cy="288.0808" r="3.1623" ></circle>
<circle id="encuesta-32-erc" class="encuesta nc_report erc" cx="363.9124" cy="134.5455" r="3.1623" ></circle>
<circle id="encuesta-32-jxcat" class="encuesta nc_report jxcat" cx="363.9124" cy="235.5556" r="3.1623" ></circle>
<circle id="encuesta-32-cec" class="encuesta nc_report cec" cx="363.9124" cy="241.2121" r="3.1623" ></circle>
<circle id="encuesta-32-psc" class="encuesta nc_report psc" cx="363.9124" cy="227.4747" r="3.1623" ></circle>
<circle id="encuesta-32-cs" class="encuesta nc_report cs" cx="363.9124" cy="178.1818" r="3.1623" ></circle>
<circle id="encuesta-32-pp" class="encuesta nc_report pp" cx="363.9124" cy="248.4848" r="3.1623" ></circle>
<circle id="encuesta-32-otros" class="encuesta nc_report otros" cx="363.9124" cy="305.0505" r="3.1623" ></circle>
</g>
<g id="encuesta-33">
<circle id="encuesta-33-cup" class="encuesta gesop cup" cx="359.8122" cy="270.303" r="2.8284" ></circle>
<circle id="encuesta-33-erc" class="encuesta gesop erc" cx="359.8122" cy="106.2626" r="2.8284" ></circle>
<circle id="encuesta-33-jxcat" class="encuesta gesop jxcat" cx="359.8122" cy="236.3636" r="2.8284" ></circle>
<circle id="encuesta-33-cec" class="encuesta gesop cec" cx="359.8122" cy="260.6061" r="2.8284" ></circle>
<circle id="encuesta-33-psc" class="encuesta gesop psc" cx="359.8122" cy="216.1616" r="2.8284" ></circle>
<circle id="encuesta-33-cs" class="encuesta gesop cs" cx="359.8122" cy="197.5758" r="2.8284" ></circle>
<circle id="encuesta-33-pp" class="encuesta gesop pp" cx="359.8122" cy="272.7273" r="2.8284" ></circle>
<circle id="encuesta-33-otros" class="encuesta gesop otros" cx="359.8122" cy="298.5859" r="2.8284" ></circle>
</g>
<g id="encuesta-34">
<circle id="encuesta-34-cup" class="encuesta sociometrica cup" cx="314.7105" cy="282.4242" r="2.8284" ></circle>
<circle id="encuesta-34-erc" class="encuesta sociometrica erc" cx="314.7105" cy="76.3636" r="2.8284" ></circle>
<circle id="encuesta-34-jxcat" class="encuesta sociometrica jxcat" cx="314.7105" cy="267.8788" r="2.8284" ></circle>
<circle id="encuesta-34-cec" class="encuesta sociometrica cec" cx="314.7105" cy="236.3636" r="2.8284" ></circle>
<circle id="encuesta-34-psc" class="encuesta sociometrica psc" cx="314.7105" cy="256.5657" r="2.8284" ></circle>
<circle id="encuesta-34-cs" class="encuesta sociometrica cs" cx="314.7105" cy="185.4545" r="2.8284" ></circle>
<circle id="encuesta-34-pp" class="encuesta sociometrica pp" cx="314.7105" cy="251.7172" r="2.8284" ></circle>
<circle id="encuesta-34-otros" class="encuesta sociometrica otros" cx="314.7105" cy="301.8182" r="2.8284" ></circle>
</g>
<g id="encuesta-35">
<circle id="encuesta-35-cup" class="encuesta nc_report cup" cx="245.0078" cy="288.0808" r="3.5426" ></circle>
<circle id="encuesta-35-erc" class="encuesta nc_report erc" cx="245.0078" cy="130.5051" r="3.5426" ></circle>
<circle id="encuesta-35-jxcat" class="encuesta nc_report jxcat" cx="245.0078" cy="230.7071" r="3.5426" ></circle>
<circle id="encuesta-35-cec" class="encuesta nc_report cec" cx="245.0078" cy="239.596" r="3.5426" ></circle>
<circle id="encuesta-35-psc" class="encuesta nc_report psc" cx="245.0078" cy="222.6263" r="3.5426" ></circle>
<circle id="encuesta-35-cs" class="encuesta nc_report cs" cx="245.0078" cy="194.3434" r="3.5426" ></circle>
<circle id="encuesta-35-pp" class="encuesta nc_report pp" cx="245.0078" cy="246.0606" r="3.5426" ></circle>
<circle id="encuesta-35-otros" class="encuesta nc_report otros" cx="245.0078" cy="306.6667" r="3.5426" ></circle>
</g>
<g id="encuesta-36">
<circle id="encuesta-36-cup" class="encuesta celeste-tel cup" cx="220.4069" cy="285.6566" r="2.8284" ></circle>
<circle id="encuesta-36-erc" class="encuesta celeste-tel erc" cx="220.4069" cy="133.7374" r="2.8284" ></circle>
<circle id="encuesta-36-jxcat" class="encuesta celeste-tel jxcat" cx="220.4069" cy="223.4343" r="2.8284" ></circle>
<circle id="encuesta-36-cec" class="encuesta celeste-tel cec" cx="220.4069" cy="234.7475" r="2.8284" ></circle>
<circle id="encuesta-36-psc" class="encuesta celeste-tel psc" cx="220.4069" cy="213.7374" r="2.8284" ></circle>
<circle id="encuesta-36-cs" class="encuesta celeste-tel cs" cx="220.4069" cy="192.7273" r="2.8284" ></circle>
<circle id="encuesta-36-pp" class="encuesta celeste-tel pp" cx="220.4069" cy="257.3737" r="2.8284" ></circle>
<circle id="encuesta-36-otros" class="encuesta celeste-tel otros" cx="220.4069" cy="317.1717" r="2.8284" ></circle>
</g>
<g id="encuesta-37">
<circle id="encuesta-37-cup" class="encuesta sociometrica cup" cx="158.9045" cy="278.3838" r="2.6458" ></circle>
<circle id="encuesta-37-erc" class="encuesta sociometrica erc" cx="158.9045" cy="107.0707" r="2.6458" ></circle>
<circle id="encuesta-37-jxcat" class="encuesta sociometrica jxcat" cx="158.9045" cy="230.7071" r="2.6458" ></circle>
<circle id="encuesta-37-cec" class="encuesta sociometrica cec" cx="158.9045" cy="249.2929" r="2.6458" ></circle>
<circle id="encuesta-37-psc" class="encuesta sociometrica psc" cx="158.9045" cy="251.7172" r="2.6458" ></circle>
<circle id="encuesta-37-cs" class="encuesta sociometrica cs" cx="158.9045" cy="190.303" r="2.6458" ></circle>
<circle id="encuesta-37-pp" class="encuesta sociometrica pp" cx="158.9045" cy="248.4848" r="2.6458" ></circle>
<circle id="encuesta-37-otros" class="encuesta sociometrica otros" cx="158.9045" cy="302.6263" r="2.6458" ></circle>
</g>
<g id="encuesta-38">
<circle id="encuesta-38-cup" class="encuesta nc_report cup" cx="68.7011" cy="280.8081" r="3.5426" ></circle>
<circle id="encuesta-38-erc" class="encuesta nc_report erc" cx="68.7011" cy="140.202" r="3.5426" ></circle>
<circle id="encuesta-38-jxcat" class="encuesta nc_report jxcat" cx="68.7011" cy="221.0101" r="3.5426" ></circle>
<circle id="encuesta-38-cec" class="encuesta nc_report cec" cx="68.7011" cy="235.5556" r="3.5426" ></circle>
<circle id="encuesta-38-psc" class="encuesta nc_report psc" cx="68.7011" cy="221.0101" r="3.5426" ></circle>
<circle id="encuesta-38-cs" class="encuesta nc_report cs" cx="68.7011" cy="191.9192" r="3.5426" ></circle>
<circle id="encuesta-38-pp" class="encuesta nc_report pp" cx="68.7011" cy="256.5657" r="3.5426" ></circle>
<circle id="encuesta-38-otros" class="encuesta nc_report otros" cx="68.7011" cy="311.5152" r="3.5426" ></circle>
</g>
  
<text class="pie izquierda" x="0" y="390">Datos: Electograph | Modelo propio</text>
<text class="pie derecha" x="800" y="390">Jesús Carro | <tspan style="font-weight:bold">1datomas</tspan>.com</text>
</svg>
