<?xml version="1.0" encoding="utf-8"?><!DOCTYPE svg PUBLIC "-//W3C//DTD SVG 1.1//EN" "http://www.w3.org/Graphics/SVG/1.1/DTD/svg11.dtd">
<svg xmlns="http://www.w3.org/2000/svg" xmlns:xlink="http://www.w3.org/1999/xlink" version="1.1" viewBox="0 0 800 400">

<text x="0" y="20" style="font-size:large;font-weight:bold;color:black">Intención de voto en Elecciones Autonómicas en Cataluña</text>
<text x="0" y="40" style="color:gray">Promedio de encuestas y estimación de error</text>

<text class="horizontal axis" x="36" y="333.3333">0%</text>
<line class="horizontal axis" x1="40" y1="333.3333" x2="622.2222" y2="333.3333"></line>
<text class="horizontal axis" x="36" y="252.5253">10%</text>
<line class="horizontal axis" x1="40" y1="252.5253" x2="622.2222" y2="252.5253"></line>
<text class="horizontal axis" x="36" y="171.7172">20%</text>
<line class="horizontal axis" x1="40" y1="171.7172" x2="622.2222" y2="171.7172"></line>
<text class="horizontal axis" x="36" y="90.9091">30%</text>
<line class="horizontal axis" x1="40" y1="90.9091" x2="622.2222" y2="90.9091"></line>
<line class="vertical axis" x1="40" y1="336.6667" x2="40" y2="66.6667"></line>
<text class="vertical axis" x="40" y="343.3333">Ago-2017</text>
<line class="vertical axis" x1="179.9139" y1="336.6667" x2="179.9139" y2="66.6667"></line>
<text class="vertical axis" x="179.9139" y="343.3333">Sep-2017</text>
<line class="vertical axis" x1="315.3144" y1="336.6667" x2="315.3144" y2="66.6667"></line>
<text class="vertical axis" x="315.3144" y="343.3333">Oct-2017</text>
<line class="vertical axis" x1="455.2283" y1="336.6667" x2="455.2283" y2="66.6667"></line>
<text class="vertical axis" x="455.2283" y="343.3333">Nov-2017</text>
<line class="vertical axis" x1="590.6288" y1="336.6667" x2="590.6288" y2="66.6667"></line>
<text class="vertical axis" x="590.6288" y="343.3333">Dic-2017</text>
<polyline id="media-cup"  class="cup media" points=" 40,281.9487 44.5134,281.9009 49.0267,281.851 53.5401,281.7987 58.0534,281.7448 62.5668,281.691 67.0801,281.6406 71.5935,281.5977 76.1068,281.5673 80.6202,281.5565 85.1335,281.5781 89.6469,281.6645 94.1602,281.7453 98.6736,281.8199 103.1869,281.8875 107.7003,281.9478 112.2136,282.0002 116.727,282.0444 121.2403,282.0801 125.7537,282.1071 130.267,282.125 134.7804,282.1335 139.2937,282.1323 143.8071,282.1209 148.3204,282.0987 152.8338,282.065 157.3471,282.0189 161.8605,281.9593 166.3738,281.8896 170.8872,281.8256 175.4005,281.7997 179.9139,281.8692 184.4272,282.1522 188.9406,282.4185 193.4539,282.6694 197.9673,282.9062 202.4806,283.1304 206.994,283.3432 211.5073,283.5459 216.0207,283.7399 220.534,283.9262 225.0474,284.106 229.5607,284.2801 234.0741,284.446 238.5874,284.5948 243.1008,284.7128 247.6141,284.7785 252.1275,284.8719 256.6408,284.9916 261.1542,285.1308 265.6675,285.2687 270.1809,285.367 274.6942,285.362 279.2076,285.1091 283.7209,284.88 288.2343,284.6719 292.7476,284.4824 297.261,284.3091 301.7743,284.1501 306.2877,284.0036 310.801,283.8679 315.3144,283.7416 319.8277,283.6234 324.3411,283.512 328.8544,283.4065 333.3678,283.3064 337.8811,283.2122 342.3945,283.1254 346.9078,283.0479 351.4212,282.9819 355.9345,282.9303 360.4479,282.8672 364.9612,282.7927 369.4746,282.7067 373.9879,282.6083 378.5013,282.496 383.0146,282.3676 387.528,282.2365 392.0413,282.1576 396.5547,282.2451 401.068,282.7259 405.5814,283.0346 410.0947,283.1276 414.6081,283.213 419.1214,283.2893 423.6348,283.3617 428.1481,283.4457 432.6615,283.5772 437.1748,283.7006 441.6882,283.806 446.2016,283.8737 450.7149,283.8744 455.2283,283.7612 459.7416,283.6817 464.255,283.6565 468.7683,283.7376 473.2817,283.8166 477.795,283.894 482.3084,283.9702 486.8217,284.0451 491.3351,284.1188 495.8484,284.1913 500.3618,284.2626 504.8751,284.333 509.3885,284.4027 513.9018,284.4679 518.4152,284.5131 522.9285,284.5093 527.4419,284.4084 531.9552,284.3446 536.4686,284.3378 540.9819,284.323 545.4953,284.29 550.0086,284.1967 554.522,283.9183 559.0353,283.5932 563.5487,283.2877 568.062,283.0608 572.5754,283.01 577.0887,283.3731 581.6021,283.6568 586.1154,283.8725 590.6288,284.0218 595.1421,284.1363 599.6555,284.2156 604.1688,284.2972 608.6822,284.4096 613.1955,284.5926 617.7089,284.7313 622.2222,284.7492"></polyline>
<polyline id="error-cup" class="cup error" points=" 40,259.8211 44.5134,260.2688 49.0267,260.7269 53.5401,261.433 58.0534,262.2058 62.5668,262.9771 67.0801,263.7134 71.5935,264.3692 76.1068,264.8867 80.6202,265.187 85.1335,265.1366 89.6469,264.438 94.1602,263.8523 98.6736,263.3713 103.1869,262.9872 107.7003,262.6928 112.2136,262.4812 116.727,262.3462 121.2403,262.2819 125.7537,262.283 130.267,262.3446 134.7804,262.4623 139.2937,262.6323 143.8071,262.8512 148.3204,263.116 152.8338,263.4243 157.3471,263.7742 161.8605,264.1643 166.3738,264.5858 170.8872,265.0107 175.4005,265.3873 179.9139,265.6342 184.4272,265.6141 188.9406,265.6865 193.4539,265.8417 197.9673,266.0719 202.4806,266.3709 206.994,266.7339 211.5073,267.1573 216.0207,267.6384 220.534,268.1758 225.0474,268.7689 229.5607,269.4179 234.0741,270.0991 238.5874,270.7302 243.1008,271.1569 247.6141,271.0955 252.1275,271.2071 256.6408,271.4782 261.1542,271.8795 265.6675,272.331 270.1809,272.6882 274.6942,272.7128 279.2076,271.9014 283.7209,271.2318 288.2343,270.6873 292.7476,270.254 297.261,269.9201 301.7743,269.6755 306.2877,269.5115 310.801,269.4206 315.3144,269.3963 319.8277,269.433 324.3411,269.5261 328.8544,269.6717 333.3678,269.8634 337.8811,270.0865 342.3945,270.3149 346.9078,270.5091 351.4212,270.6115 355.9345,270.5292 360.4479,270.5148 364.9612,270.5594 369.4746,270.6553 373.9879,270.7958 378.5013,270.9748 383.0146,271.1869 387.528,271.4317 392.0413,271.7235 396.5547,272.1035 401.068,272.6773 405.5814,273.0541 410.0947,273.1026 414.6081,273.2446 419.1214,273.4617 423.6348,273.7164 428.1481,273.9466 432.6615,274.0524 437.1748,274.2512 441.6882,274.5074 446.2016,274.7644 450.7149,274.9341 455.2283,274.8684 459.7416,274.8471 464.255,274.7757 468.7683,274.4853 473.2817,274.2732 477.795,274.135 482.3084,274.0669 486.8217,274.0653 491.3351,274.1271 495.8484,274.2493 500.3618,274.4292 504.8751,274.6643 509.3885,274.9529 513.9018,275.283 518.4152,275.6155 522.9285,275.8746 527.4419,275.9296 531.9552,276.0405 536.4686,276.1612 540.9819,276.3629 545.4953,276.5989 550.0086,276.7136 554.522,276.3257 559.0353,275.999 563.5487,275.7961 568.062,275.6988 572.5754,275.6879 577.0887,275.7635 581.6021,275.9 586.1154,276.0464 590.6288,276.1085 595.1421,276.1848 599.6555,276.1921 604.1688,276.2598 608.6822,276.3605 613.1955,276.4248 617.7089,276.3686 622.2222,275.8847 622.2222,293.6136 617.7089,293.0941 613.1955,292.7604 608.6822,292.4587 604.1688,292.3347 599.6555,292.2391 595.1421,292.0879 590.6288,291.9351 586.1154,291.6986 581.6021,291.4136 577.0887,290.9827 572.5754,290.332 568.062,290.4228 563.5487,290.7793 559.0353,291.1875 554.522,291.5108 550.0086,291.6798 545.4953,291.9811 540.9819,292.2831 536.4686,292.5143 531.9552,292.6488 527.4419,292.8873 522.9285,293.144 518.4152,293.4108 513.9018,293.6528 509.3885,293.8524 504.8751,294.0016 500.3618,294.0961 495.8484,294.1333 491.3351,294.1105 486.8217,294.0249 482.3084,293.8735 477.795,293.653 473.2817,293.3599 468.7683,292.9899 464.255,292.5374 459.7416,292.5162 455.2283,292.654 450.7149,292.8146 446.2016,292.9831 441.6882,293.1045 437.1748,293.15 432.6615,293.102 428.1481,292.9447 423.6348,293.0069 419.1214,293.1169 414.6081,293.1813 410.0947,293.1526 405.5814,293.0152 401.068,292.7745 396.5547,292.3868 392.0413,292.5917 387.528,293.0412 383.0146,293.5483 378.5013,294.0171 373.9879,294.4208 369.4746,294.7581 364.9612,295.026 360.4479,295.2195 355.9345,295.3314 351.4212,295.3524 346.9078,295.5866 342.3945,295.9358 337.8811,296.3378 333.3678,296.7493 328.8544,297.1414 324.3411,297.498 319.8277,297.8138 315.3144,298.087 310.801,298.3153 306.2877,298.4957 301.7743,298.6248 297.261,298.6982 292.7476,298.7108 288.2343,298.6566 283.7209,298.5282 279.2076,298.3167 274.6942,298.0112 270.1809,298.0458 265.6675,298.2063 261.1542,298.3821 256.6408,298.5049 252.1275,298.5368 247.6141,298.4615 243.1008,298.2686 238.5874,298.4594 234.0741,298.7928 229.5607,299.1423 225.0474,299.4431 220.534,299.6766 216.0207,299.8414 211.5073,299.9346 206.994,299.9525 202.4806,299.8899 197.9673,299.7406 193.4539,299.4971 188.9406,299.1505 184.4272,298.6904 179.9139,298.1043 175.4005,298.2121 170.8872,298.6405 166.3738,299.1934 161.8605,299.7542 157.3471,300.2635 152.8338,300.7056 148.3204,301.0814 143.8071,301.3907 139.2937,301.6324 134.7804,301.8048 130.267,301.9054 125.7537,301.9312 121.2403,301.8783 116.727,301.7425 112.2136,301.5191 107.7003,301.2028 103.1869,300.7879 98.6736,300.2685 94.1602,299.6383 89.6469,298.8909 85.1335,298.0196 80.6202,297.9259 76.1068,298.248 71.5935,298.8263 67.0801,299.5678 62.5668,300.4049 58.0534,301.2838 53.5401,302.1645 49.0267,302.975 44.5134,303.5331 40,304.0763"></polyline>
<text class = "party cup" x="631.1111" y="298"><tspan class="party_name">CUP</tspan><tspan class="party_result"> (6.0±1.1%)</tspan></text>
<polyline id="media-erc"  class="erc media" points=" 40,132.3233 44.5134,132.5627 49.0267,132.8208 53.5401,133.0988 58.0534,133.3939 62.5668,133.6929 67.0801,133.9724 71.5935,134.2004 76.1068,134.3358 80.6202,134.3184 85.1335,134.0364 89.6469,133.2104 94.1602,132.3907 98.6736,131.5817 103.1869,130.7869 107.7003,130.0084 112.2136,129.2474 116.727,128.5044 121.2403,127.7791 125.7537,127.0705 130.267,126.3773 134.7804,125.6974 139.2937,125.0284 143.8071,124.3674 148.3204,123.7113 152.8338,123.0561 157.3471,122.3977 161.8605,121.7312 166.3738,121.0701 170.8872,120.4745 175.4005,120.0618 179.9139,120.0326 184.4272,120.7921 188.9406,121.4723 193.4539,122.0847 197.9673,122.6399 202.4806,123.1479 206.994,123.618 211.5073,124.0586 216.0207,124.478 220.534,124.884 225.0474,125.2842 229.5607,125.6863 234.0741,126.0769 238.5874,126.392 243.1008,126.5015 247.6141,126.1378 252.1275,125.8645 256.6408,125.6784 261.1542,125.5688 265.6675,125.4984 270.1809,125.3898 274.6942,125.1005 279.2076,124.294 283.7209,123.4882 288.2343,122.6819 292.7476,121.873 297.261,121.0589 301.7743,120.2365 306.2877,119.4018 310.801,118.5505 315.3144,117.6774 319.8277,116.7767 324.3411,115.8416 328.8544,114.8639 333.3678,113.8535 337.8811,112.8709 342.3945,112.042 346.9078,111.5696 351.4212,111.7713 355.9345,113.2105 360.4479,114.4204 364.9612,115.4313 369.4746,116.2687 373.9879,116.9539 378.5013,117.5045 383.0146,117.9351 387.528,118.2688 392.0413,118.5612 396.5547,118.9218 401.068,119.5665 405.5814,119.8194 410.0947,119.4831 414.6081,119.1367 419.1214,118.7685 423.6348,118.3601 428.1481,117.867 432.6615,117.174 437.1748,116.3874 441.6882,115.5953 446.2016,114.9842 450.7149,114.8718 455.2283,115.8286 459.7416,116.6536 464.255,117.6549 468.7683,119.499 473.2817,121.3163 477.795,123.0965 482.3084,124.8299 486.8217,126.507 491.3351,128.1192 495.8484,129.6587 500.3618,131.1188 504.8751,132.4934 509.3885,133.7777 513.9018,134.9533 518.4152,135.9718 522.9285,136.7512 527.4419,137.1614 531.9552,137.5161 536.4686,137.7485 540.9819,137.8963 545.4953,138.0395 550.0086,138.6751 554.522,141.2512 559.0353,143.7326 563.5487,145.9924 568.062,147.7839 572.5754,148.7317 577.0887,147.943 581.6021,147.5815 586.1154,147.5165 590.6288,147.6113 595.1421,147.6356 599.6555,147.2609 604.1688,147.0666 608.6822,147.0784 613.1955,147.3372 617.7089,147.4546 622.2222,147.1053"></polyline>
<polyline id="error-erc" class="erc error" points=" 40,90.142 44.5134,91.0382 49.0267,91.9738 53.5401,93.5783 58.0534,95.372 62.5668,97.1733 67.0801,98.8911 71.5935,100.4012 76.1068,101.5443 80.6202,102.0981 85.1335,101.6761 89.6469,99.3869 94.1602,97.3258 98.6736,95.4815 103.1869,93.8428 107.7003,92.3986 112.2136,91.1377 116.727,90.0495 121.2403,89.1233 125.7537,88.3491 130.267,87.7171 134.7804,87.2184 139.2937,86.8445 143.8071,86.5876 148.3204,86.4407 152.8338,86.3976 157.3471,86.4526 161.8605,86.6012 166.3738,86.8354 170.8872,87.1347 175.4005,87.4599 179.9139,87.7508 184.4272,87.9343 188.9406,88.241 193.4539,88.6616 197.9673,89.1897 202.4806,89.8214 206.994,90.555 211.5073,91.3905 216.0207,92.3295 220.534,93.3758 225.0474,94.5349 229.5607,95.8144 234.0741,97.1625 238.5874,98.377 243.1008,99.0606 247.6141,98.4438 252.1275,98.1911 256.6408,98.2771 261.1542,98.6497 265.6675,99.1617 270.1809,99.536 274.6942,99.2991 279.2076,97.439 283.7209,95.8057 288.2343,94.3695 292.7476,93.1055 297.261,91.9921 301.7743,91.0104 306.2877,90.1434 310.801,89.3758 315.3144,88.693 319.8277,88.0816 324.3411,87.5286 328.8544,87.0211 333.3678,86.5587 337.8811,86.174 342.3945,85.9423 346.9078,85.9897 351.4212,86.5226 355.9345,87.9281 360.4479,89.2542 364.9612,90.5141 369.4746,91.7194 373.9879,92.881 378.5013,94.0085 383.0146,95.1111 387.528,96.1853 392.0413,97.205 396.5547,98.1306 401.068,98.9271 405.5814,99.2917 410.0947,98.8574 414.6081,98.6104 419.1214,98.5065 423.6348,98.4444 428.1481,98.2253 432.6615,97.4638 437.1748,96.8065 441.6882,96.2943 446.2016,96.0441 450.7149,96.2646 455.2283,97.334 459.7416,98.289 464.255,99.2119 468.7683,100.3394 473.2817,101.6013 477.795,102.9759 482.3084,104.4439 486.8217,105.988 491.3351,107.5926 495.8484,109.2437 500.3618,110.9289 504.8751,112.6373 509.3885,114.36 513.9018,116.0631 518.4152,117.6532 522.9285,118.9581 527.4419,119.6865 531.9552,120.3932 536.4686,120.88 540.9819,121.457 545.4953,122.1353 550.0086,123.1955 554.522,125.6024 559.0353,128.1299 563.5487,130.6371 568.062,132.718 572.5754,133.7585 577.0887,132.374 581.6021,131.7017 586.1154,131.4861 590.6288,131.4015 595.1421,131.3439 599.6555,130.8182 604.1688,130.5887 608.6822,130.5703 613.1955,130.5876 617.7089,130.3159 622.2222,128.9821 622.2222,165.2286 617.7089,164.5934 613.1955,164.0868 608.6822,163.5864 604.1688,163.5445 599.6555,163.7036 595.1421,163.9274 590.6288,163.8211 586.1154,163.5468 581.6021,163.4613 577.0887,163.5119 572.5754,163.705 568.062,162.8498 563.5487,161.3477 559.0353,159.3353 554.522,156.9 550.0086,154.1547 545.4953,153.9436 540.9819,154.3356 536.4686,154.6171 531.9552,154.6389 527.4419,154.6362 522.9285,154.5442 518.4152,154.2903 513.9018,153.8436 509.3885,153.1955 504.8751,152.3495 500.3618,151.3087 495.8484,150.0738 491.3351,148.6458 486.8217,147.026 482.3084,145.2159 477.795,143.2172 473.2817,141.0313 468.7683,138.6586 464.255,136.0979 459.7416,135.0181 455.2283,134.3232 450.7149,133.479 446.2016,133.9242 441.6882,134.8964 437.1748,135.9682 432.6615,136.8842 428.1481,137.5086 423.6348,138.2759 419.1214,139.0305 414.6081,139.6629 410.0947,140.1088 405.5814,140.3471 401.068,140.2059 396.5547,139.7129 392.0413,139.9175 387.528,140.3523 383.0146,140.7591 378.5013,141.0004 373.9879,141.0267 369.4746,140.8179 364.9612,140.3485 360.4479,139.5865 355.9345,138.493 351.4212,137.02 346.9078,137.1495 342.3945,138.1417 337.8811,139.5679 333.3678,141.1484 328.8544,142.7066 324.3411,144.1545 319.8277,145.4718 315.3144,146.6618 310.801,147.7252 306.2877,148.6601 301.7743,149.4625 297.261,150.1258 292.7476,150.6405 288.2343,150.9942 283.7209,151.1707 279.2076,151.1491 274.6942,150.902 270.1809,151.2436 265.6675,151.835 261.1542,152.488 256.6408,153.0797 252.1275,153.5379 247.6141,153.8317 243.1008,153.9424 238.5874,154.407 234.0741,154.9913 229.5607,155.5582 225.0474,156.0335 220.534,156.3921 216.0207,156.6264 211.5073,156.7267 206.994,156.6809 202.4806,156.4744 197.9673,156.0902 193.4539,155.5078 188.9406,154.7036 184.4272,153.6499 179.9139,152.3143 175.4005,152.6638 170.8872,153.8142 166.3738,155.3048 161.8605,156.8612 157.3471,158.3428 152.8338,159.7147 148.3204,160.9818 143.8071,162.1473 139.2937,163.2123 134.7804,164.1763 130.267,165.0374 125.7537,165.7919 121.2403,166.4348 116.727,166.9592 112.2136,167.357 107.7003,167.6181 103.1869,167.731 98.6736,167.682 94.1602,167.4555 89.6469,167.0338 85.1335,166.3967 80.6202,166.5386 76.1068,167.1272 71.5935,167.9997 67.0801,169.0537 62.5668,170.2126 58.0534,171.4158 53.5401,172.6193 49.0267,173.6677 44.5134,174.0872 40,174.5045"></polyline>
<text class = "party erc" x="631.1111" y="142"><tspan class="party_name">ERC</tspan><tspan class="party_result"> (23.0±2.2%)</tspan></text>
<polyline id="media-jxcat"  class="jxcat media" points=" 40,223.1114 44.5134,223.0771 49.0267,223.0356 53.5401,222.9863 58.0534,222.9297 62.5668,222.8696 67.0801,222.8126 71.5935,222.7683 76.1068,222.7495 80.6202,222.7752 85.1335,222.8809 89.6469,223.155 94.1602,223.4321 98.6736,223.7104 103.1869,223.9885 107.7003,224.2652 112.2136,224.5397 116.727,224.8112 121.2403,225.0793 125.7537,225.3436 130.267,225.604 134.7804,225.8604 139.2937,226.1128 143.8071,226.3613 148.3204,226.6062 152.8338,226.8478 157.3471,227.0863 161.8605,227.3223 166.3738,227.5518 170.8872,227.7612 175.4005,227.9259 179.9139,228.0066 184.4272,227.9275 188.9406,227.8725 193.4539,227.8372 197.9673,227.8178 202.4806,227.8102 206.994,227.8108 211.5073,227.8159 216.0207,227.8217 220.534,227.8245 225.0474,227.8201 229.5607,227.8039 234.0741,227.783 238.5874,227.7959 243.1008,227.9297 247.6141,228.3768 252.1275,228.7993 256.6408,229.1969 261.1542,229.5661 265.6675,229.9001 270.1809,230.1962 274.6942,230.4629 279.2076,230.734 283.7209,231.0561 288.2343,231.4251 292.7476,231.8382 297.261,232.2934 301.7743,232.7899 306.2877,233.3275 310.801,233.9067 315.3144,234.5292 319.8277,235.1972 324.3411,235.9141 328.8544,236.6844 333.3678,237.498 337.8811,238.3041 342.3945,238.9992 346.9078,239.418 351.4212,239.3046 355.9345,238.2078 360.4479,237.3135 364.9612,236.5967 369.4746,236.0363 373.9879,235.614 378.5013,235.3143 383.0146,235.1237 387.528,235.0276 392.0413,235.0059 396.5547,235.0323 401.068,235.0762 405.5814,235.2006 410.0947,235.4171 414.6081,235.7583 419.1214,236.2031 423.6348,236.6379 428.1481,236.8216 432.6615,236.2901 437.1748,235.9975 441.6882,235.8839 446.2016,235.8442 450.7149,235.6976 455.2283,235.105 459.7416,234.5196 464.255,233.5726 468.7683,231.4341 473.2817,229.3152 477.795,227.2302 482.3084,225.1927 486.8217,223.2155 491.3351,221.3098 495.8484,219.4856 500.3618,217.7513 504.8751,216.1139 509.3885,214.5787 513.9018,213.1667 518.4152,211.9358 522.9285,210.9914 527.4419,210.5182 531.9552,210.1607 536.4686,210.087 540.9819,210.0094 545.4953,209.8764 550.0086,209.3325 554.522,207.313 559.0353,205.255 563.5487,203.3872 568.062,201.7816 572.5754,200.4705 577.0887,199.463 581.6021,198.2751 586.1154,197.1431 590.6288,196.4127 595.1421,195.7786 599.6555,195.549 604.1688,195.2344 608.6822,194.8861 613.1955,194.5626 617.7089,194.3936 622.2222,194.6408"></polyline>
<polyline id="error-jxcat" class="jxcat error" points=" 40,186.9409 44.5134,187.4809 49.0267,188.0301 53.5401,189.1342 58.0534,190.3791 62.5668,191.6219 67.0801,192.8115 71.5935,193.8779 76.1068,194.7329 80.6202,195.2566 85.1335,195.2494 89.6469,194.2764 94.1602,193.4994 98.6736,192.9029 103.1869,192.4729 107.7003,192.1966 112.2136,192.0622 116.727,192.0593 121.2403,192.1782 125.7537,192.4105 130.267,192.7487 134.7804,193.1864 139.2937,193.7183 143.8071,194.3401 148.3204,195.0485 152.8338,195.8415 157.3471,196.718 161.8605,197.6784 166.3738,198.6997 170.8872,199.697 175.4005,200.5085 179.9139,200.8676 184.4272,200.2788 188.9406,199.8896 193.4539,199.6779 197.9673,199.6252 202.4806,199.7154 206.994,199.9351 211.5073,200.2729 216.0207,200.7192 220.534,201.2661 225.0474,201.9074 229.5607,202.638 234.0741,203.432 238.5874,204.2119 243.1008,204.8403 247.6141,205.0908 252.1275,205.549 256.6408,206.1952 261.1542,206.9899 265.6675,207.8329 270.1809,208.5515 274.6942,208.8752 279.2076,208.2688 283.7209,207.9079 288.2343,207.7644 292.7476,207.8157 297.261,208.0439 301.7743,208.4345 306.2877,208.9759 310.801,209.6591 315.3144,210.4777 319.8277,211.4271 324.3411,212.5054 328.8544,213.7126 333.3678,215.0291 337.8811,216.3778 342.3945,217.6073 346.9078,218.4806 351.4212,218.6379 355.9345,217.4597 360.4479,216.6192 364.9612,216.0761 369.4746,215.7968 373.9879,215.7535 378.5013,215.9231 383.0146,216.2863 387.528,216.8054 392.0413,217.3902 396.5547,217.8872 401.068,218.0526 405.5814,218.2713 410.0947,218.4152 414.6081,218.8525 419.1214,219.5341 423.6348,220.274 428.1481,220.6962 432.6615,220.1005 437.1748,219.9159 441.6882,220.0404 446.2016,220.3064 450.7149,220.4345 455.2283,219.9122 459.7416,219.4134 464.255,218.3685 468.7683,215.5592 473.2817,212.9014 477.795,210.4021 482.3084,208.0694 486.8217,205.9107 491.3351,203.9331 495.8484,202.1425 500.3618,200.5437 504.8751,199.1402 509.3885,197.9344 513.9018,196.9353 518.4152,196.1632 522.9285,195.6477 527.4419,195.4374 531.9552,195.3755 536.4686,195.5194 540.9819,195.8126 545.4953,196.1415 550.0086,195.9512 554.522,193.7226 559.0353,191.6436 563.5487,189.9379 568.062,188.5423 572.5754,187.2818 577.0887,185.738 581.6021,184.2581 586.1154,182.9738 590.6288,182.0703 595.1421,181.3521 599.6555,180.9884 604.1688,180.6392 608.6822,180.2579 613.1955,179.7107 617.7089,179.1902 622.2222,178.5678 622.2222,210.7138 617.7089,209.597 613.1955,209.4146 608.6822,209.5143 604.1688,209.8295 599.6555,210.1096 595.1421,210.205 590.6288,210.755 586.1154,211.3124 581.6021,212.2921 577.0887,213.188 572.5754,213.6592 568.062,215.0209 563.5487,216.8364 559.0353,218.8664 554.522,220.9034 550.0086,222.7138 545.4953,223.6114 540.9819,224.2062 536.4686,224.6546 531.9552,224.9459 527.4419,225.599 522.9285,226.3352 518.4152,227.7085 513.9018,229.3982 509.3885,231.2229 504.8751,233.0876 500.3618,234.959 495.8484,236.8287 491.3351,238.6865 486.8217,240.5203 482.3084,242.3161 477.795,244.0582 473.2817,245.729 468.7683,247.3091 464.255,248.7766 459.7416,249.6258 455.2283,250.2978 450.7149,250.9608 446.2016,251.382 441.6882,251.7274 437.1748,252.0791 432.6615,252.4797 428.1481,252.9469 423.6348,253.0018 419.1214,252.872 414.6081,252.6641 410.0947,252.419 405.5814,252.1298 401.068,252.0997 396.5547,252.1775 392.0413,252.6216 387.528,253.2497 383.0146,253.961 378.5013,254.7056 373.9879,255.4745 369.4746,256.2757 364.9612,257.1174 360.4479,258.0078 355.9345,258.9559 351.4212,259.9713 346.9078,260.3554 342.3945,260.3912 337.8811,260.2305 333.3678,259.9669 328.8544,259.6561 324.3411,259.3228 319.8277,258.9673 315.3144,258.5807 310.801,258.1543 306.2877,257.679 301.7743,257.1453 297.261,256.543 292.7476,255.8606 288.2343,255.0859 283.7209,254.2043 279.2076,253.1993 274.6942,252.0505 270.1809,251.8409 265.6675,251.9674 261.1542,252.1422 256.6408,252.1986 252.1275,252.0496 247.6141,251.6628 243.1008,251.0191 238.5874,251.38 234.0741,252.134 229.5607,252.9699 225.0474,253.7328 220.534,254.3829 216.0207,254.9243 211.5073,255.3589 206.994,255.6865 202.4806,255.905 197.9673,256.0103 193.4539,255.9965 188.9406,255.8554 184.4272,255.5762 179.9139,255.1456 175.4005,255.3432 170.8872,255.8254 166.3738,256.404 161.8605,256.9662 157.3471,257.4547 152.8338,257.8541 148.3204,258.1639 143.8071,258.3825 139.2937,258.5072 134.7804,258.5344 130.267,258.4594 125.7537,258.2768 121.2403,257.9804 116.727,257.5631 112.2136,257.0171 107.7003,256.3339 103.1869,255.5041 98.6736,254.5179 94.1602,253.3648 89.6469,252.0336 85.1335,250.5124 80.6202,250.2938 76.1068,250.7661 71.5935,251.6587 67.0801,252.8137 62.5668,254.1173 58.0534,255.4804 53.5401,256.8383 49.0267,258.041 44.5134,258.6733 40,259.2818"></polyline>
<text class = "party jxcat" x="631.1111" y="192"><tspan class="party_name">JxCAT</tspan><tspan class="party_result"> (17.2±2.0%)</tspan></text>
<polyline id="media-cec"  class="cec media" points=" 40,243.0335 44.5134,242.7342 49.0267,242.4209 53.5401,242.093 58.0534,241.7539 62.5668,241.416 67.0801,241.1004 71.5935,240.8347 76.1068,240.6532 80.6202,240.6046 85.1335,240.7786 89.6469,241.3998 94.1602,241.9956 98.6736,242.562 103.1869,243.0962 107.7003,243.5962 112.2136,244.0612 116.727,244.4907 121.2403,244.8851 125.7537,245.245 130.267,245.5717 134.7804,245.8663 139.2937,246.1305 143.8071,246.3661 148.3204,246.5751 152.8338,246.7594 157.3471,246.9212 161.8605,247.0631 166.3738,247.1847 170.8872,247.2789 175.4005,247.3299 179.9139,247.3075 184.4272,247.1459 188.9406,246.9739 193.4539,246.7877 197.9673,246.5839 202.4806,246.3596 206.994,246.1118 211.5073,245.8376 216.0207,245.5342 220.534,245.1987 225.0474,244.8278 229.5607,244.4182 234.0741,243.9915 238.5874,243.6309 243.1008,243.4989 247.6141,243.9218 252.1275,244.2189 256.6408,244.3968 261.1542,244.4706 265.6675,244.4822 270.1809,244.51 274.6942,244.6885 279.2076,245.3177 283.7209,245.8963 288.2343,246.422 292.7476,246.8936 297.261,247.3107 301.7743,247.6732 306.2877,247.9812 310.801,248.2349 315.3144,248.4344 319.8277,248.5796 324.3411,248.6698 328.8544,248.704 333.3678,248.6871 337.8811,248.6411 342.3945,248.6123 346.9078,248.6771 351.4212,248.9568 355.9345,249.6671 360.4479,250.2897 364.9612,250.8315 369.4746,251.2986 373.9879,251.6968 378.5013,252.0316 383.0146,252.3079 387.528,252.5235 392.0413,252.6576 396.5547,252.6635 401.068,252.4382 405.5814,252.4302 410.0947,252.7931 414.6081,253.0751 419.1214,253.2854 423.6348,253.4824 428.1481,253.8039 432.6615,254.5383 437.1748,255.1816 441.6882,255.746 446.2016,256.2604 450.7149,256.7762 455.2283,257.3855 459.7416,257.9229 464.255,258.3939 468.7683,258.8355 473.2817,259.3341 477.795,259.8757 482.3084,260.4487 486.8217,261.0432 491.3351,261.6509 495.8484,262.2648 500.3618,262.8791 504.8751,263.4888 509.3885,264.0903 513.9018,264.6719 518.4152,265.2037 522.9285,265.6382 527.4419,265.9128 531.9552,266.275 536.4686,266.7773 540.9819,267.3606 545.4953,267.9528 550.0086,268.2692 554.522,267.6027 559.0353,267.1414 563.5487,266.8203 568.062,266.6419 572.5754,266.6519 577.0887,267.0155 581.6021,267.3262 586.1154,267.481 590.6288,267.279 595.1421,267.1304 599.6555,267.0793 604.1688,267.0883 608.6822,267.2192 613.1955,267.5737 617.7089,267.7917 622.2222,267.7087"></polyline>
<polyline id="error-cec" class="cec error" points=" 40,216.1193 44.5134,216.3571 49.0267,216.5966 53.5401,217.1443 58.0534,217.7697 62.5668,218.3972 67.0801,219.0052 71.5935,219.5626 76.1068,220.0291 80.6202,220.351 85.1335,220.4446 89.6469,220.1499 94.1602,219.9733 98.6736,219.9007 103.1869,219.9197 107.7003,220.0196 112.2136,220.1913 116.727,220.427 121.2403,220.72 125.7537,221.0651 130.267,221.4577 134.7804,221.8945 139.2937,222.3731 143.8071,222.8919 148.3204,223.4503 152.8338,224.0485 157.3471,224.6878 161.8605,225.3705 166.3738,226.082 170.8872,226.7622 175.4005,227.2929 179.9139,227.4748 184.4272,226.9284 188.9406,226.5012 193.4539,226.1761 197.9673,225.9391 202.4806,225.7782 206.994,225.6832 211.5073,225.6455 216.0207,225.6581 220.534,225.715 225.0474,225.8113 229.5607,225.9434 234.0741,226.1092 238.5874,226.3071 243.1008,226.5361 247.6141,226.817 252.1275,227.1412 256.6408,227.5013 261.1542,227.8863 265.6675,228.2698 270.1809,228.6067 274.6942,228.8277 279.2076,228.8184 283.7209,228.9008 288.2343,229.0546 292.7476,229.2638 297.261,229.5159 301.7743,229.8004 306.2877,230.1092 310.801,230.4351 315.3144,230.7722 319.8277,231.1154 324.3411,231.46 328.8544,231.8018 333.3678,232.139 337.8811,232.4762 342.3945,232.8286 346.9078,233.2255 351.4212,233.7204 355.9345,234.4221 360.4479,235.1287 364.9612,235.836 369.4746,236.5414 373.9879,237.2439 378.5013,237.9436 383.0146,238.642 387.528,239.3197 392.0413,239.9045 396.5547,240.2559 401.068,240.1121 405.5814,240.1707 410.0947,240.487 414.6081,240.8415 419.1214,241.2233 423.6348,241.6417 428.1481,242.1443 432.6615,242.8637 437.1748,243.6108 441.6882,244.3679 446.2016,245.1209 450.7149,245.854 455.2283,246.5427 459.7416,247.1687 464.255,247.5993 468.7683,247.6083 473.2817,247.773 477.795,248.0724 482.3084,248.4894 486.8217,249.0094 491.3351,249.6196 495.8484,250.309 500.3618,251.068 504.8751,251.8885 509.3885,252.7638 513.9018,253.6725 518.4152,254.5566 522.9285,255.3137 527.4419,255.784 531.9552,256.3648 536.4686,257.0318 540.9819,257.8864 545.4953,258.8119 550.0086,259.3841 554.522,258.5816 559.0353,258.1179 563.5487,257.9196 568.062,257.8965 572.5754,257.9555 577.0887,257.9787 581.6021,258.1151 586.1154,258.1848 590.6288,257.8691 595.1421,257.667 599.6555,257.527 604.1688,257.5167 608.6822,257.6331 613.1955,257.8516 617.7089,257.8421 622.2222,257.1688 622.2222,278.2487 617.7089,277.7413 613.1955,277.2959 608.6822,276.8052 604.1688,276.66 599.6555,276.6317 595.1421,276.5937 590.6288,276.6889 586.1154,276.7772 581.6021,276.5374 577.0887,276.0522 572.5754,275.3484 568.062,275.3873 563.5487,275.721 559.0353,276.165 554.522,276.6238 550.0086,277.1543 545.4953,277.0937 540.9819,276.8348 536.4686,276.5228 531.9552,276.1853 527.4419,276.0416 522.9285,275.9627 518.4152,275.8507 513.9018,275.6713 509.3885,275.4167 504.8751,275.0892 500.3618,274.6902 495.8484,274.2207 491.3351,273.6822 486.8217,273.0769 482.3084,272.4079 477.795,271.679 473.2817,270.8953 468.7683,270.0626 464.255,269.1885 459.7416,268.6771 455.2283,268.2283 450.7149,267.6983 446.2016,267.3999 441.6882,267.1241 437.1748,266.7523 432.6615,266.2128 428.1481,265.4635 423.6348,265.3231 419.1214,265.3475 414.6081,265.3087 410.0947,265.0992 405.5814,264.6897 401.068,264.7643 396.5547,265.0711 392.0413,265.4106 387.528,265.7272 383.0146,265.9738 378.5013,266.1196 373.9879,266.1498 369.4746,266.0557 364.9612,265.8269 360.4479,265.4507 355.9345,264.9121 351.4212,264.1932 346.9078,264.1288 342.3945,264.3961 337.8811,264.806 333.3678,265.2353 328.8544,265.6063 324.3411,265.8795 319.8277,266.0437 315.3144,266.0966 310.801,266.0347 306.2877,265.8532 301.7743,265.5459 297.261,265.1055 292.7476,264.5234 288.2343,263.7894 283.7209,262.8918 279.2076,261.8171 274.6942,260.5492 270.1809,260.4132 265.6675,260.6945 261.1542,261.0549 256.6408,261.2923 252.1275,261.2967 247.6141,261.0267 243.1008,260.4616 238.5874,260.9546 234.0741,261.8738 229.5607,262.893 225.0474,263.8443 220.534,264.6824 216.0207,265.4103 211.5073,266.0296 206.994,266.5404 202.4806,266.941 197.9673,267.2287 193.4539,267.3992 188.9406,267.4466 184.4272,267.3634 179.9139,267.1403 175.4005,267.3669 170.8872,267.7957 166.3738,268.2874 161.8605,268.7557 157.3471,269.1547 152.8338,269.4702 148.3204,269.6998 143.8071,269.8404 139.2937,269.8879 134.7804,269.838 130.267,269.6856 125.7537,269.425 121.2403,269.0501 116.727,268.5544 112.2136,267.931 107.7003,267.1728 103.1869,266.2727 98.6736,265.2234 94.1602,264.018 89.6469,262.6498 85.1335,261.1126 80.6202,260.8583 76.1068,261.2773 71.5935,262.1068 67.0801,263.1955 62.5668,264.4347 58.0534,265.7381 53.5401,267.0417 49.0267,268.2452 44.5134,269.1113 40,269.9478"></polyline>
<text class = "party cec" x="631.1111" y="257"><tspan class="party_name">CeC</tspan><tspan class="party_result"> (8.1±1.3%)</tspan></text>
<polyline id="media-psc"  class="psc media" points=" 40,223.1554 44.5134,223.1303 49.0267,223.0989 53.5401,223.0605 58.0534,223.0154 62.5668,222.9672 67.0801,222.9229 71.5935,222.8928 76.1068,222.891 80.6202,222.939 85.1335,223.0779 89.6469,223.4099 94.1602,223.7555 98.6736,224.1139 103.1869,224.4849 107.7003,224.8683 112.2136,225.2647 116.727,225.6747 121.2403,226.0996 125.7537,226.5406 130.267,226.9999 134.7804,227.4796 139.2937,227.9826 143.8071,228.512 148.3204,229.0719 152.8338,229.6667 157.3471,230.3018 161.8605,230.9833 166.3738,231.6917 170.8872,232.3386 175.4005,232.7484 179.9139,232.6176 184.4272,231.3287 188.9406,230.1553 193.4539,229.0859 197.9673,228.1091 202.4806,227.2143 206.994,226.3915 211.5073,225.6313 216.0207,224.9245 220.534,224.2625 225.0474,223.6368 229.5607,223.0388 234.0741,222.4841 238.5874,222.0445 243.1008,221.8636 247.6141,222.2384 252.1275,222.5405 256.6408,222.7824 261.1542,222.9744 265.6675,223.1282 270.1809,223.2616 274.6942,223.4054 279.2076,223.6287 283.7209,223.8663 288.2343,224.119 292.7476,224.388 297.261,224.6751 301.7743,224.9829 306.2877,225.3142 310.801,225.6723 315.3144,226.0611 319.8277,226.4852 324.3411,226.9499 328.8544,227.4615 333.3678,228.0129 337.8811,228.5577 342.3945,228.9978 346.9078,229.1722 351.4212,228.8261 355.9345,227.5039 360.4479,226.3505 364.9612,225.3447 369.4746,224.4688 373.9879,223.7073 378.5013,223.0471 383.0146,222.4769 387.528,221.9933 392.0413,221.6069 396.5547,221.341 401.068,221.2434 405.5814,221.0133 410.0947,220.5459 414.6081,220.0921 419.1214,219.669 423.6348,219.3325 428.1481,219.1929 432.6615,219.4657 437.1748,219.7159 441.6882,219.9214 446.2016,220.0108 450.7149,219.8535 455.2283,219.2126 459.7416,218.667 464.255,218.1706 468.7683,217.6166 473.2817,217.0256 477.795,216.4078 482.3084,215.7717 486.8217,215.1248 491.3351,214.4733 495.8484,213.8227 500.3618,213.1779 504.8751,212.5428 509.3885,211.9209 513.9018,211.3149 518.4152,210.7222 522.9285,210.1474 527.4419,209.6292 531.9552,209.3773 536.4686,209.7138 540.9819,209.9409 545.4953,210.0647 550.0086,210.027 554.522,209.62 559.0353,209.1385 563.5487,208.6699 568.062,208.2812 572.5754,208.0706 577.0887,208.2577 581.6021,208.3018 586.1154,208.23 590.6288,208.1161 595.1421,208.25 599.6555,209.0515 604.1688,209.6493 608.6822,209.9412 613.1955,209.7714 617.7089,209.6962 622.2222,209.9433"></polyline>
<polyline id="error-psc" class="psc error" points=" 40,189.0641 44.5134,189.6136 49.0267,190.1734 53.5401,191.2287 58.0534,192.4107 62.5668,193.5908 67.0801,194.7215 71.5935,195.7382 76.1068,196.5601 80.6202,197.078 85.1335,197.112 89.6469,196.2723 94.1602,195.6283 98.6736,195.1666 103.1869,194.875 107.7003,194.7427 112.2136,194.7599 116.727,194.918 121.2403,195.2098 125.7537,195.6291 130.267,196.171 134.7804,196.8317 139.2937,197.6092 143.8071,198.5025 148.3204,199.5123 152.8338,200.6408 157.3471,201.8924 161.8605,203.273 166.3738,204.7441 170.8872,206.1477 175.4005,207.1736 179.9139,207.2955 184.4272,205.4815 188.9406,203.9507 193.4539,202.6749 197.9673,201.6296 202.4806,200.7927 206.994,200.145 211.5073,199.6699 216.0207,199.3526 220.534,199.1808 225.0474,199.1436 229.5607,199.2322 234.0741,199.4313 238.5874,199.7035 243.1008,199.9816 247.6141,200.1679 252.1275,200.5 256.6408,200.9729 261.1542,201.5631 265.6675,202.1942 270.1809,202.7236 274.6942,202.9179 279.2076,202.3067 283.7209,201.8934 288.2343,201.6557 292.7476,201.5764 297.261,201.6423 301.7743,201.8431 306.2877,202.171 310.801,202.6203 315.3144,203.1874 319.8277,203.8707 324.3411,204.6704 328.8544,205.5889 333.3678,206.6099 337.8811,207.6624 342.3945,208.603 346.9078,209.2026 351.4212,209.1074 355.9345,207.7016 360.4479,206.5924 364.9612,205.7443 369.4746,205.128 373.9879,204.719 378.5013,204.4973 383.0146,204.4462 387.528,204.5408 392.0413,204.7253 396.5547,204.9026 401.068,204.9178 405.5814,204.7691 410.0947,204.215 414.6081,203.8336 419.1214,203.6164 423.6348,203.5541 428.1481,203.6361 432.6615,203.8669 437.1748,204.2341 441.6882,204.6758 446.2016,205.0619 450.7149,205.1684 455.2283,204.5949 459.7416,204.1343 464.255,203.5552 468.7683,202.396 473.2817,201.3263 477.795,200.3486 482.3084,199.4649 486.8217,198.6771 491.3351,197.9867 495.8484,197.395 500.3618,196.9028 504.8751,196.5108 509.3885,196.2193 513.9018,196.0191 518.4152,195.8712 522.9285,195.7072 527.4419,195.4353 531.9552,195.4636 536.4686,196.0129 540.9819,196.5948 545.4953,197.1578 550.0086,197.4612 554.522,196.8842 559.0353,196.4082 563.5487,196.1132 568.062,195.9391 572.5754,195.7923 577.0887,195.4983 581.6021,195.29 586.1154,195.0931 590.6288,194.8279 595.1421,194.8963 599.6555,195.592 604.1688,196.174 608.6822,196.4464 613.1955,196.0716 617.7089,195.6724 622.2222,195.1155 622.2222,224.7711 617.7089,223.72 613.1955,223.4713 608.6822,223.4359 604.1688,223.1245 599.6555,222.511 595.1421,221.6037 590.6288,221.4042 586.1154,221.3668 581.6021,221.3137 577.0887,221.0171 572.5754,220.349 568.062,220.6232 563.5487,221.2266 559.0353,221.8688 554.522,222.3559 550.0086,222.5928 545.4953,222.9717 540.9819,223.2871 536.4686,223.4147 531.9552,223.2909 527.4419,223.8231 522.9285,224.5877 518.4152,225.5731 513.9018,226.6107 509.3885,227.6224 504.8751,228.5748 500.3618,229.4529 495.8484,230.2504 491.3351,230.9598 486.8217,231.5724 482.3084,232.0785 477.795,232.4669 473.2817,232.7249 468.7683,232.8373 464.255,232.7859 459.7416,233.1997 455.2283,233.8302 450.7149,234.5387 446.2016,234.9598 441.6882,235.167 437.1748,235.1978 432.6615,235.0646 428.1481,234.7496 423.6348,235.1109 419.1214,235.7217 414.6081,236.3506 410.0947,236.8767 405.5814,237.2574 401.068,237.569 396.5547,237.7795 392.0413,238.4886 387.528,239.4458 383.0146,240.5075 378.5013,241.5969 373.9879,242.6955 369.4746,243.8096 364.9612,244.9452 360.4479,246.1086 355.9345,247.3063 351.4212,248.5449 346.9078,249.1418 342.3945,249.3926 337.8811,249.453 333.3678,249.4158 328.8544,249.3341 324.3411,249.2294 319.8277,249.0997 315.3144,248.9348 310.801,248.7243 306.2877,248.4574 301.7743,248.1227 297.261,247.7079 292.7476,247.1995 288.2343,246.5823 283.7209,245.8393 279.2076,244.9506 274.6942,243.8929 270.1809,243.7996 265.6675,244.0622 261.1542,244.3857 256.6408,244.5919 252.1275,244.5809 247.6141,244.309 243.1008,243.7457 238.5874,244.3854 234.0741,245.5369 229.5607,246.8455 225.0474,248.1299 220.534,249.3442 216.0207,250.4963 211.5073,251.5927 206.994,252.6381 202.4806,253.6359 197.9673,254.5886 193.4539,255.4968 188.9406,256.36 184.4272,257.1759 179.9139,257.9397 175.4005,258.3233 170.8872,258.5295 166.3738,258.6392 161.8605,258.6937 157.3471,258.7111 152.8338,258.6926 148.3204,258.6315 143.8071,258.5216 139.2937,258.3559 134.7804,258.1275 130.267,257.8288 125.7537,257.4522 121.2403,256.9893 116.727,256.4314 112.2136,255.7695 107.7003,254.994 103.1869,254.0947 98.6736,253.0613 94.1602,251.8827 89.6469,250.5476 85.1335,249.0438 80.6202,248.8 76.1068,249.2219 71.5935,250.0474 67.0801,251.1244 62.5668,252.3436 58.0534,253.6201 53.5401,254.8922 49.0267,256.0244 44.5134,256.6469 40,257.2467"></polyline>
<text class = "party psc" x="631.1111" y="213"><tspan class="party_name">PSC</tspan><tspan class="party_result"> (15.3±1.8%)</tspan></text>
<polyline id="media-cs"  class="cs media" points=" 40,186.1839 44.5134,186.4352 49.0267,186.6965 53.5401,186.9681 58.0534,187.2472 62.5668,187.5242 67.0801,187.7832 71.5935,188.0039 76.1068,188.1615 80.6202,188.2216 85.1335,188.1208 89.6469,187.7008 94.1602,187.3079 98.6736,186.9455 103.1869,186.6159 107.7003,186.3207 112.2136,186.0608 116.727,185.8368 121.2403,185.6487 125.7537,185.4965 130.267,185.3799 134.7804,185.2982 139.2937,185.2511 143.8071,185.238 148.3204,185.2584 152.8338,185.312 157.3471,185.3985 161.8605,185.5176 166.3738,185.663 170.8872,185.8124 175.4005,185.9234 179.9139,185.9259 184.4272,185.6833 188.9406,185.4922 193.4539,185.3521 197.9673,185.2626 202.4806,185.2231 206.994,185.2331 211.5073,185.2923 216.0207,185.4006 220.534,185.5581 225.0474,185.7654 229.5607,186.0229 234.0741,186.3141 238.5874,186.5794 243.1008,186.7066 247.6141,186.4773 252.1275,186.3669 256.6408,186.3746 261.1542,186.485 265.6675,186.64 270.1809,186.7279 274.6942,186.5544 279.2076,185.679 283.7209,184.8735 288.2343,184.1373 292.7476,183.4693 297.261,182.8679 301.7743,182.3314 306.2877,181.858 310.801,181.4458 315.3144,181.0931 319.8277,180.7985 324.3411,180.5605 328.8544,180.3783 333.3678,180.2484 337.8811,180.16 342.3945,180.0908 346.9078,180.005 351.4212,179.8464 355.9345,179.5181 360.4479,179.2535 364.9612,179.0535 369.4746,178.919 373.9879,178.8514 378.5013,178.8531 383.0146,178.9272 387.528,179.049 392.0413,179.1178 396.5547,178.9257 401.068,178.0667 405.5814,177.341 410.0947,176.6719 414.6081,176.0736 419.1214,175.5536 423.6348,175.1152 428.1481,174.7491 432.6615,174.4231 437.1748,174.1383 441.6882,173.8744 446.2016,173.5679 450.7149,173.1021 455.2283,172.2667 459.7416,171.5491 464.255,170.9297 468.7683,170.3443 473.2817,169.6996 477.795,169.0102 482.3084,168.2884 486.8217,167.5446 491.3351,166.7875 495.8484,166.0248 500.3618,165.2628 504.8751,164.5067 509.3885,163.7605 513.9018,163.0389 518.4152,162.383 522.9285,161.8391 527.4419,161.4193 531.9552,160.6127 536.4686,159.0331 540.9819,157.3265 545.4953,155.6361 550.0086,154.6023 554.522,155.8144 559.0353,156.439 563.5487,156.758 568.062,156.9553 572.5754,157.2648 577.0887,158.1423 581.6021,158.8558 586.1154,159.353 590.6288,159.4765 595.1421,159.3142 599.6555,158.5617 604.1688,157.8353 608.6822,157.217 613.1955,156.8738 617.7089,156.7108 622.2222,157.1394"></polyline>
<polyline id="error-cs" class="cs error" points=" 40,151.0072 44.5134,151.8795 49.0267,152.7802 53.5401,154.1831 58.0534,155.7254 62.5668,157.2671 67.0801,158.7357 71.5935,160.0334 76.1068,161.0374 80.6202,161.5776 85.1335,161.3615 89.6469,159.7184 94.1602,158.2882 98.6736,157.0611 103.1869,156.0279 107.7003,155.179 112.2136,154.5055 116.727,153.9983 121.2403,153.6491 125.7537,153.4501 130.267,153.3939 134.7804,153.4741 139.2937,153.6851 143.8071,154.0222 148.3204,154.4816 152.8338,155.0606 157.3471,155.7577 161.8605,156.5727 166.3738,157.4807 170.8872,158.3903 175.4005,159.1256 179.9139,159.3953 184.4272,158.6542 188.9406,158.1354 193.4539,157.8215 197.9673,157.6978 202.4806,157.7522 206.994,157.975 211.5073,158.3585 216.0207,158.897 220.534,159.587 225.0474,160.4267 229.5607,161.4166 234.0741,162.5073 238.5874,163.5237 243.1008,164.1301 247.6141,163.6896 252.1275,163.5974 256.6408,163.8343 261.1542,164.3497 265.6675,164.9935 270.1809,165.4859 274.6942,165.3556 279.2076,163.5946 283.7209,162.092 288.2343,160.8243 292.7476,159.7716 297.261,158.917 301.7743,158.2456 306.2877,157.7449 310.801,157.4038 315.3144,157.2128 319.8277,157.1641 324.3411,157.2509 328.8544,157.4684 333.3678,157.804 337.8811,158.2226 342.3945,158.6578 346.9078,159.007 351.4212,159.1172 355.9345,158.7366 360.4479,158.5485 364.9612,158.5389 369.4746,158.6975 373.9879,159.0167 378.5013,159.4918 383.0146,160.1212 387.528,160.8571 392.0413,161.5282 396.5547,161.798 401.068,161.0424 405.5814,160.3935 410.0947,159.6342 414.6081,159.1113 419.1214,158.8057 423.6348,158.6521 428.1481,158.5127 432.6615,158.1309 437.1748,157.9565 441.6882,157.9286 446.2016,157.9231 450.7149,157.7276 455.2283,156.9635 459.7416,156.3352 464.255,155.6311 468.7683,154.4196 473.2817,153.2808 477.795,152.2209 482.3084,151.245 486.8217,150.3579 491.3351,149.5633 495.8484,148.8644 500.3618,148.2633 504.8751,147.7618 509.3885,147.3606 513.9018,147.0623 518.4152,146.871 522.9285,146.7576 527.4419,146.5981 531.9552,146.076 536.4686,144.6888 540.9819,143.3241 545.4953,142.0676 550.0086,141.3781 554.522,142.4353 559.0353,143.0827 563.5487,143.5954 568.062,144.026 572.5754,144.4094 577.0887,144.7938 581.6021,145.2533 586.1154,145.6285 590.6288,145.5987 595.1421,145.3635 599.6555,144.4752 604.1688,143.7109 608.6822,143.0582 613.1955,142.4997 617.7089,141.9983 622.2222,141.5899 622.2222,172.6888 617.7089,171.4233 613.1955,171.2478 608.6822,171.3759 604.1688,171.9598 599.6555,172.6482 595.1421,173.2649 590.6288,173.3544 586.1154,173.0775 581.6021,172.4583 577.0887,171.4908 572.5754,170.1201 568.062,169.8847 563.5487,169.9206 559.0353,169.7953 554.522,169.1935 550.0086,167.8264 545.4953,169.2046 540.9819,171.329 536.4686,173.3774 531.9552,175.1493 527.4419,176.2405 522.9285,176.9207 518.4152,177.8951 513.9018,179.0155 509.3885,180.1604 504.8751,181.2517 500.3618,182.2623 495.8484,183.1852 491.3351,184.0117 486.8217,184.7312 482.3084,185.3319 477.795,185.7996 473.2817,186.1184 468.7683,186.269 464.255,186.2283 459.7416,186.763 455.2283,187.5698 450.7149,188.4766 446.2016,189.2127 441.6882,189.8202 437.1748,190.3201 432.6615,190.7154 428.1481,190.9855 423.6348,191.5783 419.1214,192.3014 414.6081,193.0359 410.0947,193.7097 405.5814,194.2884 401.068,195.0911 396.5547,196.0534 392.0413,196.7073 387.528,197.2409 383.0146,197.7332 378.5013,198.2144 373.9879,198.6862 369.4746,199.1404 364.9612,199.568 360.4479,199.9585 355.9345,200.2995 351.4212,200.5756 346.9078,201.003 342.3945,201.5238 337.8811,202.0974 333.3678,202.6929 328.8544,203.2882 324.3411,203.8701 319.8277,204.4329 315.3144,204.9734 310.801,205.4878 306.2877,205.9711 301.7743,206.4172 297.261,206.8189 292.7476,207.1669 288.2343,207.4503 283.7209,207.655 279.2076,207.7634 274.6942,207.7531 270.1809,207.9698 265.6675,208.2865 261.1542,208.6202 256.6408,208.915 252.1275,209.1364 247.6141,209.2649 243.1008,209.2831 238.5874,209.6352 234.0741,210.1208 229.5607,210.6293 225.0474,211.104 220.534,211.5293 216.0207,211.9041 211.5073,212.226 206.994,212.4911 202.4806,212.6939 197.9673,212.8274 193.4539,212.8828 188.9406,212.849 184.4272,212.7125 179.9139,212.4566 175.4005,212.7212 170.8872,213.2345 166.3738,213.8453 161.8605,214.4625 157.3471,215.0393 152.8338,215.5635 148.3204,216.0353 143.8071,216.4538 139.2937,216.817 134.7804,217.1223 130.267,217.3658 125.7537,217.543 121.2403,217.6483 116.727,217.6752 112.2136,217.6161 107.7003,217.4623 103.1869,217.204 98.6736,216.8299 94.1602,216.3277 89.6469,215.6831 85.1335,214.8802 80.6202,214.8656 76.1068,215.2856 71.5935,215.9743 67.0801,216.8307 62.5668,217.7813 58.0534,218.769 53.5401,219.7531 49.0267,220.6128 44.5134,220.9909 40,221.3605"></polyline>
<text class = "party cs" x="631.1111" y="162"><tspan class="party_name">C's</tspan><tspan class="party_result"> (21.8±1.9%)</tspan></text>
<polyline id="media-pp"  class="pp media" points=" 40,258.5745 44.5134,258.4546 49.0267,258.3329 53.5401,258.2095 58.0534,258.0858 62.5668,257.9649 67.0801,257.852 71.5935,257.753 76.1068,257.6744 80.6202,257.6246 85.1335,257.6186 89.6469,257.6937 94.1602,257.7507 98.6736,257.7884 103.1869,257.8061 107.7003,257.8033 112.2136,257.7795 116.727,257.7347 121.2403,257.6687 125.7537,257.5813 130.267,257.4725 134.7804,257.3419 139.2937,257.1894 143.8071,257.0145 148.3204,256.8167 152.8338,256.5951 157.3471,256.3489 161.8605,256.0768 166.3738,255.7871 170.8872,255.5132 175.4005,255.3187 179.9139,255.311 184.4272,255.7039 188.9406,256.038 193.4539,256.3168 197.9673,256.544 202.4806,256.7231 206.994,256.8572 211.5073,256.9494 216.0207,257.0026 220.534,257.0196 225.0474,257.0033 229.5607,256.9567 234.0741,256.8817 238.5874,256.7751 243.1008,256.6209 247.6141,256.3668 252.1275,256.0535 256.6408,255.6752 261.1542,255.2447 265.6675,254.8215 270.1809,254.5208 274.6942,254.5393 279.2076,255.3262 283.7209,256.031 288.2343,256.6593 292.7476,257.2162 297.261,257.7061 301.7743,258.1327 306.2877,258.4994 310.801,258.8092 315.3144,259.0644 319.8277,259.267 324.3411,259.4185 328.8544,259.5197 333.3678,259.575 337.8811,259.6 342.3945,259.626 346.9078,259.7043 351.4212,259.9155 355.9345,260.4029 360.4479,260.8296 364.9612,261.1999 369.4746,261.5181 373.9879,261.7884 378.5013,262.0151 383.0146,262.2026 387.528,262.3458 392.0413,262.4143 396.5547,262.3398 401.068,261.9749 405.5814,261.8945 410.0947,262.2825 414.6081,262.6059 419.1214,262.866 423.6348,263.0657 428.1481,263.2133 432.6615,263.3247 437.1748,263.3907 441.6882,263.4126 446.2016,263.4021 450.7149,263.3917 455.2283,263.4588 459.7416,263.5749 464.255,263.9051 468.7683,264.826 473.2817,265.7504 477.795,266.6714 482.3084,267.5825 486.8217,268.4777 491.3351,269.3518 495.8484,270.1998 500.3618,271.0173 504.8751,271.8007 509.3885,272.5466 513.9018,273.2562 518.4152,273.9477 522.9285,274.6602 527.4419,275.4617 531.9552,276.147 536.4686,276.604 540.9819,277.2214 545.4953,277.9467 550.0086,278.5849 554.522,278.7218 559.0353,279.2943 563.5487,279.9446 568.062,280.5317 572.5754,280.893 577.0887,280.717 581.6021,280.7206 586.1154,280.8282 590.6288,280.9514 595.1421,281.0879 599.6555,281.1325 604.1688,281.2062 608.6822,281.2622 613.1955,281.2461 617.7089,281.1977 622.2222,281.0927"></polyline>
<polyline id="error-pp" class="pp error" points=" 40,231.5121 44.5134,231.9178 49.0267,232.3364 53.5401,233.1047 58.0534,233.9675 62.5668,234.8332 67.0801,235.6629 71.5935,236.4025 76.1068,236.9825 80.6202,237.3064 85.1335,237.2117 89.6469,236.3382 94.1602,235.5901 98.6736,234.9566 103.1869,234.4278 107.7003,233.9948 112.2136,233.6494 116.727,233.384 121.2403,233.1918 125.7537,233.0667 130.267,233.0029 134.7804,232.9957 139.2937,233.0406 143.8071,233.1339 148.3204,233.2724 152.8338,233.4534 157.3471,233.6751 161.8605,233.936 166.3738,234.2305 170.8872,234.5394 175.4005,234.8252 179.9139,235.0274 184.4272,235.0515 188.9406,235.1476 193.4539,235.306 197.9673,235.5192 202.4806,235.7815 206.994,236.0889 211.5073,236.4387 216.0207,236.8295 220.534,237.2613 225.0474,237.7353 229.5607,238.2542 234.0741,238.7949 238.5874,239.2649 243.1008,239.4758 247.6141,239.0511 252.1275,238.7414 256.6408,238.5267 261.1542,238.3933 265.6675,238.3324 270.1809,238.3345 274.6942,238.3906 279.2076,238.5331 283.7209,238.7379 288.2343,238.9922 292.7476,239.2861 297.261,239.6116 301.7743,239.9624 306.2877,240.3332 310.801,240.7196 315.3144,241.118 319.8277,241.5253 324.3411,241.9389 328.8544,242.3563 333.3678,242.7753 337.8811,243.1934 342.3945,243.6096 346.9078,244.0265 351.4212,244.455 355.9345,244.9267 360.4479,245.4329 364.9612,245.9665 369.4746,246.5229 373.9879,247.0992 378.5013,247.6946 383.0146,248.3096 387.528,248.9218 392.0413,249.4477 396.5547,249.7226 401.068,249.4358 405.5814,249.4209 410.0947,249.7629 414.6081,250.1621 419.1214,250.5991 423.6348,251.0249 428.1481,251.352 432.6615,251.4294 437.1748,251.5839 441.6882,251.7864 446.2016,252.0043 450.7149,252.201 455.2283,252.3335 459.7416,252.5281 464.255,252.8128 468.7683,253.3043 473.2817,253.9 477.795,254.5857 482.3084,255.3492 486.8217,256.1793 491.3351,257.066 495.8484,258.0003 500.3618,258.974 504.8751,259.9799 509.3885,261.0115 513.9018,262.0604 518.4152,263.1176 522.9285,264.1689 527.4419,265.1876 531.9552,266.1064 536.4686,266.7305 540.9819,267.6259 545.4953,268.6953 550.0086,269.6035 554.522,269.6255 559.0353,270.2259 563.5487,271.0289 568.062,271.7949 572.5754,272.216 577.0887,271.683 581.6021,271.5027 586.1154,271.5238 590.6288,271.5424 595.1421,271.6339 599.6555,271.5921 604.1688,271.6485 608.6822,271.6882 613.1955,271.5243 617.7089,271.239 622.2222,270.5387 622.2222,291.6467 617.7089,291.1565 613.1955,290.9678 608.6822,290.8362 604.1688,290.7638 599.6555,290.6729 595.1421,290.5419 590.6288,290.3603 586.1154,290.1326 581.6021,289.9384 577.0887,289.7509 572.5754,289.5701 568.062,289.2686 563.5487,288.8603 559.0353,288.3626 554.522,287.8181 550.0086,287.5662 545.4953,287.1982 540.9819,286.8168 536.4686,286.4776 531.9552,286.1877 527.4419,285.7359 522.9285,285.1514 518.4152,284.7777 513.9018,284.452 509.3885,284.0818 504.8751,283.6216 500.3618,283.0606 495.8484,282.3992 491.3351,281.6376 486.8217,280.7762 482.3084,279.8157 477.795,278.757 473.2817,277.6008 468.7683,276.3476 464.255,274.9974 459.7416,274.6217 455.2283,274.5841 450.7149,274.5823 446.2016,274.7999 441.6882,275.0388 437.1748,275.1975 432.6615,275.22 428.1481,275.0745 423.6348,275.1065 419.1214,275.1329 414.6081,275.0497 410.0947,274.8022 405.5814,274.3682 401.068,274.514 396.5547,274.9569 392.0413,275.3809 387.528,275.7698 383.0146,276.0956 378.5013,276.3356 373.9879,276.4777 369.4746,276.5134 364.9612,276.4333 360.4479,276.2263 355.9345,275.8791 351.4212,275.3761 346.9078,275.382 342.3945,275.6425 337.8811,276.0067 333.3678,276.3748 328.8544,276.6831 324.3411,276.8981 319.8277,277.0087 315.3144,277.0108 310.801,276.8988 306.2877,276.6657 301.7743,276.303 297.261,275.8005 292.7476,275.1464 288.2343,274.3264 283.7209,273.324 279.2076,272.1192 274.6942,270.6879 270.1809,270.7071 265.6675,271.3106 261.1542,272.0961 256.6408,272.8238 252.1275,273.3656 247.6141,273.6825 243.1008,273.7661 238.5874,274.2854 234.0741,274.9685 229.5607,275.6592 225.0474,276.2714 220.534,276.7779 216.0207,277.1756 211.5073,277.46 206.994,277.6255 202.4806,277.6647 197.9673,277.5689 193.4539,277.3276 188.9406,276.9283 184.4272,276.3564 179.9139,275.5946 175.4005,275.8122 170.8872,276.4869 166.3738,277.3437 161.8605,278.2175 157.3471,279.0227 152.8338,279.7368 148.3204,280.361 143.8071,280.8952 139.2937,281.3382 134.7804,281.6882 130.267,281.942 125.7537,282.096 121.2403,282.1456 116.727,282.0855 112.2136,281.9097 107.7003,281.6117 103.1869,281.1844 98.6736,280.6203 94.1602,279.9113 89.6469,279.0493 85.1335,278.0254 80.6202,277.9429 76.1068,278.3664 71.5935,279.1035 67.0801,280.0411 62.5668,281.0966 58.0534,282.204 53.5401,283.3144 49.0267,284.3293 44.5134,284.9914 40,285.637"></polyline>
<text class = "party pp" x="631.1111" y="277"><tspan class="party_name">PP</tspan><tspan class="party_result"> (6.5±1.3%)</tspan></text>
<polyline id="media-otros"  class="otros media" points=" 40,310.2552 44.5134,310.2908 49.0267,310.3293 53.5401,310.3709 58.0534,310.4152 62.5668,310.4601 67.0801,310.5018 71.5935,310.5351 76.1068,310.5532 80.6202,310.5459 85.1335,310.4945 89.6469,310.3517 94.1602,310.208 98.6736,310.0639 103.1869,309.9199 107.7003,309.776 112.2136,309.6325 116.727,309.489 121.2403,309.3453 125.7537,309.2011 130.267,309.0557 134.7804,308.9085 139.2937,308.7588 143.8071,308.6055 148.3204,308.4476 152.8338,308.2838 157.3471,308.1126 161.8605,307.9323 166.3738,307.7478 170.8872,307.5815 175.4005,307.4781 179.9139,307.5154 184.4272,307.8522 188.9406,308.1632 193.4539,308.4521 197.9673,308.7223 202.4806,308.9773 206.994,309.2204 211.5073,309.455 216.0207,309.6844 220.534,309.9123 225.0474,310.1424 229.5607,310.3789 234.0741,310.6086 238.5874,310.7732 243.1008,310.7519 247.6141,310.2885 252.1275,309.8704 256.6408,309.4899 261.1542,309.1455 265.6675,308.8468 270.1809,308.6127 274.6942,308.4729 279.2076,308.4971 283.7209,308.4944 288.2343,308.4693 292.7476,308.4252 297.261,308.3645 301.7743,308.2891 306.2877,308.2002 310.801,308.0986 315.3144,307.9846 319.8277,307.8583 324.3411,307.7195 328.8544,307.5676 333.3678,307.4045 337.8811,307.2398 342.3945,307.0923 346.9078,306.9917 351.4212,306.9832 355.9345,307.1452 360.4479,307.2616 364.9612,307.3356 369.4746,307.3698 373.9879,307.3657 378.5013,307.3242 383.0146,307.245 387.528,307.1414 392.0413,307.0645 396.5547,307.1166 401.068,307.4941 405.5814,307.8522 410.0947,308.2646 414.6081,308.6312 419.1214,308.951 423.6348,309.2304 428.1481,309.4925 432.6615,309.7927 437.1748,310.0739 441.6882,310.3463 446.2016,310.6425 450.7149,311.0186 455.2283,311.5675 459.7416,312.0171 464.255,312.3026 468.7683,312.2927 473.2817,312.3281 477.795,312.4 482.3084,312.5018 486.8217,312.628 491.3351,312.7746 495.8484,312.9381 500.3618,313.116 504.8751,313.3065 509.3885,313.5085 513.9018,313.7159 518.4152,313.9086 522.9285,314.049 527.4419,314.0748 531.9552,314.1525 536.4686,314.2843 540.9819,314.5077 545.4953,314.7796 550.0086,314.8983 554.522,314.3444 559.0353,313.9919 563.5487,313.7257 568.062,313.5494 572.5754,313.4933 577.0887,313.6743 581.6021,313.868 586.1154,314.1617 590.6288,314.7171 595.1421,315.2529 599.6555,315.7354 604.1688,316.2085 608.6822,316.5723 613.1955,316.6284 617.7089,316.6098 622.2222,316.2064"></polyline>
<polyline id="error-otros" class="otros error" points=" 40,288.7757 44.5134,289.2664 49.0267,289.7702 53.5401,290.5716 58.0534,291.4529 62.5668,292.3316 67.0801,293.1665 71.5935,293.9025 76.1068,294.4699 80.6202,294.7726 85.1335,294.6444 89.6469,293.7029 94.1602,292.877 98.6736,292.1606 103.1869,291.5477 107.7003,291.0321 112.2136,290.6079 116.727,290.2693 121.2403,290.0105 125.7537,289.8263 130.267,289.7115 134.7804,289.6615 139.2937,289.6718 143.8071,289.7387 148.3204,289.8585 152.8338,290.0282 157.3471,290.2451 161.8605,290.507 166.3738,290.8068 170.8872,291.1233 175.4005,291.4184 179.9139,291.6327 184.4272,291.6736 188.9406,291.7975 193.4539,291.9974 197.9673,292.2675 202.4806,292.6039 206.994,293.0039 211.5073,293.4659 216.0207,293.9896 220.534,294.5758 225.0474,295.2266 229.5607,295.9458 234.0741,296.6978 238.5874,297.3471 243.1008,297.626 247.6141,297.0008 252.1275,296.5676 256.6408,296.3068 261.1542,296.195 265.6675,296.1843 270.1809,296.1899 274.6942,296.0712 279.2076,295.549 283.7209,295.1154 288.2343,294.7614 292.7476,294.4794 297.261,294.2624 301.7743,294.1043 306.2877,293.9996 310.801,293.9432 315.3144,293.9306 319.8277,293.9576 324.3411,294.0205 328.8544,294.1159 333.3678,294.2401 337.8811,294.3878 342.3945,294.5512 346.9078,294.7202 351.4212,294.8828 355.9345,295.0265 360.4479,295.2016 364.9612,295.4025 369.4746,295.6244 373.9879,295.8629 378.5013,296.1144 383.0146,296.3752 387.528,296.6453 392.0413,296.9358 396.5547,297.2775 401.068,297.7482 405.5814,298.1806 410.0947,298.5672 414.6081,299.0061 419.1214,299.479 423.6348,299.9504 428.1481,300.3671 432.6615,300.6529 437.1748,301.0183 441.6882,301.4493 446.2016,301.944 450.7149,302.5051 455.2283,303.1327 459.7416,303.665 464.255,303.9212 468.7683,303.5466 473.2817,303.2974 477.795,303.16 482.3084,303.1237 486.8217,303.1795 491.3351,303.3199 495.8484,303.5383 500.3618,303.8294 504.8751,304.1884 509.3885,304.612 513.9018,305.0855 518.4152,305.5653 522.9285,305.9676 527.4419,306.1486 531.9552,306.4009 536.4686,306.6626 540.9819,307.1057 545.4953,307.6501 550.0086,307.9762 554.522,307.2995 559.0353,306.9386 563.5487,306.7673 568.062,306.7136 572.5754,306.6947 577.0887,306.5979 581.6021,306.6508 586.1154,306.8856 590.6288,307.3802 595.1421,307.9027 599.6555,308.3385 604.1688,308.8202 608.6822,309.1882 613.1955,309.1283 617.7089,308.9184 622.2222,308.0124 622.2222,324.4004 617.7089,324.3013 613.1955,324.1285 608.6822,323.9563 604.1688,323.5969 599.6555,323.1323 595.1421,322.6031 590.6288,322.0541 586.1154,321.4378 581.6021,321.0851 577.0887,320.7508 572.5754,320.292 568.062,320.3852 563.5487,320.6842 559.0353,321.0453 554.522,321.3892 550.0086,321.8204 545.4953,321.9092 540.9819,321.9096 536.4686,321.9061 531.9552,321.904 527.4419,322.0009 522.9285,322.1305 518.4152,322.2519 513.9018,322.3463 509.3885,322.405 504.8751,322.4245 500.3618,322.4026 495.8484,322.3378 491.3351,322.2293 486.8217,322.0766 482.3084,321.8799 477.795,321.6401 473.2817,321.3589 468.7683,321.0389 464.255,320.684 459.7416,320.3691 455.2283,320.0024 450.7149,319.5321 446.2016,319.341 441.6882,319.2433 437.1748,319.1295 432.6615,318.9326 428.1481,318.6178 423.6348,318.5103 419.1214,318.423 414.6081,318.2564 410.0947,317.9621 405.5814,317.5239 401.068,317.24 396.5547,316.9558 392.0413,317.1933 387.528,317.6376 383.0146,318.1147 378.5013,318.534 373.9879,318.8685 369.4746,319.1151 364.9612,319.2686 360.4479,319.3215 355.9345,319.264 351.4212,319.0835 346.9078,319.2632 342.3945,319.6335 337.8811,320.0918 333.3678,320.5689 328.8544,321.0192 324.3411,321.4185 319.8277,321.7591 315.3144,322.0387 310.801,322.254 306.2877,322.4009 301.7743,322.474 297.261,322.4667 292.7476,322.371 288.2343,322.1772 283.7209,321.8735 279.2076,321.4453 274.6942,320.8746 270.1809,321.0355 265.6675,321.5094 261.1542,322.096 256.6408,322.673 252.1275,323.1732 247.6141,323.5762 243.1008,323.8779 238.5874,324.1994 234.0741,324.5195 229.5607,324.812 225.0474,325.0581 220.534,325.2488 216.0207,325.3792 211.5073,325.444 206.994,325.4369 202.4806,325.3507 197.9673,325.1771 193.4539,324.9068 188.9406,324.5289 184.4272,324.0308 179.9139,323.3981 175.4005,323.5378 170.8872,324.0396 166.3738,324.6888 161.8605,325.3576 157.3471,325.9801 152.8338,326.5393 148.3204,327.0367 143.8071,327.4723 139.2937,327.8457 134.7804,328.1556 130.267,328.3999 125.7537,328.5758 121.2403,328.6801 116.727,328.7087 112.2136,328.657 107.7003,328.52 103.1869,328.2921 98.6736,327.9672 94.1602,327.539 89.6469,327.0005 85.1335,326.3447 80.6202,326.3193 76.1068,326.6364 71.5935,327.1677 67.0801,327.837 62.5668,328.5885 58.0534,329.3774 53.5401,330.1702 49.0267,330.8884 44.5134,331.3153 40,331.7347"></polyline>
<text class = "party otros" x="631.1111" y="318"><tspan class="party_name">Otros</tspan><tspan class="party_result"> (2.1±1.0%)</tspan></text>
<g id="encuesta-1">
<circle id="encuesta-1-cup" class="encuesta sociometrica cup" cx="622.2222" cy="288.8889" r="3.3166" ></circle>
<circle id="encuesta-1-erc" class="encuesta sociometrica erc" cx="622.2222" cy="151.5152" r="3.3166" ></circle>
<circle id="encuesta-1-jxcat" class="encuesta sociometrica jxcat" cx="622.2222" cy="173.3333" r="3.3166" ></circle>
<circle id="encuesta-1-cec" class="encuesta sociometrica cec" cx="622.2222" cy="273.5354" r="3.3166" ></circle>
<circle id="encuesta-1-psc" class="encuesta sociometrica psc" cx="622.2222" cy="216.9697" r="3.3166" ></circle>
<circle id="encuesta-1-cs" class="encuesta sociometrica cs" cx="622.2222" cy="159.596" r="3.3166" ></circle>
<circle id="encuesta-1-pp" class="encuesta sociometrica pp" cx="622.2222" cy="289.697" r="3.3166" ></circle>
<circle id="encuesta-1-otros" class="encuesta sociometrica otros" cx="622.2222" cy="305.0505" r="3.3166" ></circle>
</g>
<g id="encuesta-2">
<circle id="encuesta-2-cup" class="encuesta gad3 cup" cx="617.7089" cy="292.9293" r="3.1623" ></circle>
<circle id="encuesta-2-erc" class="encuesta gad3 erc" cx="617.7089" cy="159.596" r="3.1623" ></circle>
<circle id="encuesta-2-jxcat" class="encuesta gad3 jxcat" cx="617.7089" cy="186.2626" r="3.1623" ></circle>
<circle id="encuesta-2-cec" class="encuesta gad3 cec" cx="617.7089" cy="273.5354" r="3.1623" ></circle>
<circle id="encuesta-2-psc" class="encuesta gad3 psc" cx="617.7089" cy="200" r="3.1623" ></circle>
<circle id="encuesta-2-cs" class="encuesta gad3 cs" cx="617.7089" cy="146.6667" r="3.1623" ></circle>
<circle id="encuesta-2-pp" class="encuesta gad3 pp" cx="617.7089" cy="275.9596" r="3.1623" ></circle>
<circle id="encuesta-2-otros" class="encuesta gad3 otros" cx="617.7089" cy="323.6364" r="3.1623" ></circle>
</g>
<g id="encuesta-3">
<circle id="encuesta-3-cup" class="encuesta feedback cup" cx="617.7089" cy="275.9596" r="3" ></circle>
<circle id="encuesta-3-erc" class="encuesta feedback erc" cx="617.7089" cy="146.6667" r="3" ></circle>
<circle id="encuesta-3-jxcat" class="encuesta feedback jxcat" cx="617.7089" cy="195.9596" r="3" ></circle>
<circle id="encuesta-3-cec" class="encuesta feedback cec" cx="617.7089" cy="268.6869" r="3" ></circle>
<circle id="encuesta-3-psc" class="encuesta feedback psc" cx="617.7089" cy="209.697" r="3" ></circle>
<circle id="encuesta-3-cs" class="encuesta feedback cs" cx="617.7089" cy="147.4747" r="3" ></circle>
<circle id="encuesta-3-pp" class="encuesta feedback pp" cx="617.7089" cy="288.8889" r="3" ></circle>
<circle id="encuesta-3-otros" class="encuesta feedback otros" cx="617.7089" cy="325.2525" r="3" ></circle>
</g>
<g id="encuesta-4">
<circle id="encuesta-4-cup" class="encuesta feedback cup" cx="608.6822" cy="281.6162" r="3.1623" ></circle>
<circle id="encuesta-4-erc" class="encuesta feedback erc" cx="608.6822" cy="139.3939" r="3.1623" ></circle>
<circle id="encuesta-4-jxcat" class="encuesta feedback jxcat" cx="608.6822" cy="195.1515" r="3.1623" ></circle>
<circle id="encuesta-4-cec" class="encuesta feedback cec" cx="608.6822" cy="258.1818" r="3.1623" ></circle>
<circle id="encuesta-4-psc" class="encuesta feedback psc" cx="608.6822" cy="224.2424" r="3.1623" ></circle>
<circle id="encuesta-4-cs" class="encuesta feedback cs" cx="608.6822" cy="149.0909" r="3.1623" ></circle>
<circle id="encuesta-4-pp" class="encuesta feedback pp" cx="608.6822" cy="283.2323" r="3.1623" ></circle>
<circle id="encuesta-4-otros" class="encuesta feedback otros" cx="608.6822" cy="327.6768" r="3.1623" ></circle>
</g>
<g id="encuesta-5">
<circle id="encuesta-5-cup" class="encuesta gesop cup" cx="595.1421" cy="284.8485" r="2.8284" ></circle>
<circle id="encuesta-5-erc" class="encuesta gesop erc" cx="595.1421" cy="167.6768" r="2.8284" ></circle>
<circle id="encuesta-5-jxcat" class="encuesta gesop jxcat" cx="595.1421" cy="177.3737" r="2.8284" ></circle>
<circle id="encuesta-5-cec" class="encuesta gesop cec" cx="595.1421" cy="264.6465" r="2.8284" ></circle>
<circle id="encuesta-5-psc" class="encuesta gesop psc" cx="595.1421" cy="179.798" r="2.8284" ></circle>
<circle id="encuesta-5-cs" class="encuesta gesop cs" cx="595.1421" cy="179.798" r="2.8284" ></circle>
<circle id="encuesta-5-pp" class="encuesta gesop pp" cx="595.1421" cy="286.4646" r="2.8284" ></circle>
<circle id="encuesta-5-otros" class="encuesta gesop otros" cx="595.1421" cy="317.9798" r="2.8284" ></circle>
</g>
<g id="encuesta-6">
<circle id="encuesta-6-cup" class="encuesta sociometrica cup" cx="586.1154" cy="284.8485" r="2.8284" ></circle>
<circle id="encuesta-6-erc" class="encuesta sociometrica erc" cx="586.1154" cy="146.6667" r="2.8284" ></circle>
<circle id="encuesta-6-jxcat" class="encuesta sociometrica jxcat" cx="586.1154" cy="179.798" r="2.8284" ></circle>
<circle id="encuesta-6-cec" class="encuesta sociometrica cec" cx="586.1154" cy="281.6162" r="2.8284" ></circle>
<circle id="encuesta-6-psc" class="encuesta sociometrica psc" cx="586.1154" cy="210.5051" r="2.8284" ></circle>
<circle id="encuesta-6-cs" class="encuesta sociometrica cs" cx="586.1154" cy="167.6768" r="2.8284" ></circle>
<circle id="encuesta-6-pp" class="encuesta sociometrica pp" cx="586.1154" cy="283.2323" r="2.8284" ></circle>
<circle id="encuesta-6-otros" class="encuesta sociometrica otros" cx="586.1154" cy="304.2424" r="2.8284" ></circle>
</g>
<g id="encuesta-7">
<circle id="encuesta-7-cup" class="encuesta cis cup" cx="572.5754" cy="279.1919" r="5.4772" ></circle>
<circle id="encuesta-7-erc" class="encuesta cis erc" cx="572.5754" cy="165.2525" r="5.4772" ></circle>
<circle id="encuesta-7-jxcat" class="encuesta cis jxcat" cx="572.5754" cy="196.7677" r="5.4772" ></circle>
<circle id="encuesta-7-cec" class="encuesta cis cec" cx="572.5754" cy="263.8384" r="5.4772" ></circle>
<circle id="encuesta-7-psc" class="encuesta cis psc" cx="572.5754" cy="204.0404" r="5.4772" ></circle>
<circle id="encuesta-7-cs" class="encuesta cis cs" cx="572.5754" cy="151.5152" r="5.4772" ></circle>
<circle id="encuesta-7-pp" class="encuesta cis pp" cx="572.5754" cy="286.4646" r="5.4772" ></circle>
<circle id="encuesta-7-otros" class="encuesta cis otros" cx="572.5754" cy="311.5152" r="5.4772" ></circle>
</g>
<g id="encuesta-8">
<circle id="encuesta-8-cup" class="encuesta nc_report cup" cx="554.522" cy="287.2727" r="3.1623" ></circle>
<circle id="encuesta-8-erc" class="encuesta nc_report erc" cx="554.522" cy="138.5859" r="3.1623" ></circle>
<circle id="encuesta-8-jxcat" class="encuesta nc_report jxcat" cx="554.522" cy="223.4343" r="3.1623" ></circle>
<circle id="encuesta-8-cec" class="encuesta nc_report cec" cx="554.522" cy="265.4545" r="3.1623" ></circle>
<circle id="encuesta-8-psc" class="encuesta nc_report psc" cx="554.522" cy="214.5455" r="3.1623" ></circle>
<circle id="encuesta-8-cs" class="encuesta nc_report cs" cx="554.522" cy="164.4444" r="3.1623" ></circle>
<circle id="encuesta-8-pp" class="encuesta nc_report pp" cx="554.522" cy="258.1818" r="3.1623" ></circle>
<circle id="encuesta-8-otros" class="encuesta nc_report otros" cx="554.522" cy="306.6667" r="3.1623" ></circle>
</g>
<g id="encuesta-9">
<circle id="encuesta-9-cup" class="encuesta metroscopica cup" cx="550.0086" cy="285.6566" r="4.2426" ></circle>
<circle id="encuesta-9-erc" class="encuesta metroscopica erc" cx="550.0086" cy="119.1919" r="4.2426" ></circle>
<circle id="encuesta-9-jxcat" class="encuesta metroscopica jxcat" cx="550.0086" cy="223.4343" r="4.2426" ></circle>
<circle id="encuesta-9-cec" class="encuesta metroscopica cec" cx="550.0086" cy="279.1919" r="4.2426" ></circle>
<circle id="encuesta-9-psc" class="encuesta metroscopica psc" cx="550.0086" cy="212.9293" r="4.2426" ></circle>
<circle id="encuesta-9-cs" class="encuesta metroscopica cs" cx="550.0086" cy="128.8889" r="4.2426" ></circle>
<circle id="encuesta-9-pp" class="encuesta metroscopica pp" cx="550.0086" cy="286.4646" r="4.2426" ></circle>
<circle id="encuesta-9-otros" class="encuesta metroscopica otros" cx="550.0086" cy="322.8283" r="4.2426" ></circle>
</g>
<g id="encuesta-10">
<circle id="encuesta-10-cup" class="encuesta gesop cup" cx="531.9552" cy="282.4242" r="2.8284" ></circle>
<circle id="encuesta-10-erc" class="encuesta gesop erc" cx="531.9552" cy="140.202" r="2.8284" ></circle>
<circle id="encuesta-10-jxcat" class="encuesta gesop jxcat" cx="531.9552" cy="200" r="2.8284" ></circle>
<circle id="encuesta-10-cec" class="encuesta gesop cec" cx="531.9552" cy="263.8384" r="2.8284" ></circle>
<circle id="encuesta-10-psc" class="encuesta gesop psc" cx="531.9552" cy="187.0707" r="2.8284" ></circle>
<circle id="encuesta-10-cs" class="encuesta gesop cs" cx="531.9552" cy="183.0303" r="2.8284" ></circle>
<circle id="encuesta-10-pp" class="encuesta gesop pp" cx="531.9552" cy="287.2727" r="2.8284" ></circle>
<circle id="encuesta-10-otros" class="encuesta gesop otros" cx="531.9552" cy="314.7475" r="2.8284" ></circle>
</g>
<g id="encuesta-11">
<circle id="encuesta-11-cup" class="encuesta gad3 cup" cx="522.9285" cy="288.0808" r="2.8302" ></circle>
<circle id="encuesta-11-erc" class="encuesta gad3 erc" cx="522.9285" cy="146.6667" r="2.8302" ></circle>
<circle id="encuesta-11-jxcat" class="encuesta gad3 jxcat" cx="522.9285" cy="198.3838" r="2.8302" ></circle>
<circle id="encuesta-11-cec" class="encuesta gad3 cec" cx="522.9285" cy="271.9192" r="2.8302" ></circle>
<circle id="encuesta-11-psc" class="encuesta gad3 psc" cx="522.9285" cy="211.3131" r="2.8302" ></circle>
<circle id="encuesta-11-cs" class="encuesta gad3 cs" cx="522.9285" cy="153.1313" r="2.8302" ></circle>
<circle id="encuesta-11-pp" class="encuesta gad3 pp" cx="522.9285" cy="270.303" r="2.8302" ></circle>
<circle id="encuesta-11-otros" class="encuesta gad3 otros" cx="522.9285" cy="318.7879" r="2.8302" ></circle>
</g>
<g id="encuesta-12">
<circle id="encuesta-12-cup" class="encuesta nc_report cup" cx="464.255" cy="282.4242" r="3.1623" ></circle>
<circle id="encuesta-12-erc" class="encuesta nc_report erc" cx="464.255" cy="120.8081" r="3.1623" ></circle>
<circle id="encuesta-12-jxcat" class="encuesta nc_report jxcat" cx="464.255" cy="246.8687" r="3.1623" ></circle>
<circle id="encuesta-12-cec" class="encuesta nc_report cec" cx="464.255" cy="249.2929" r="3.1623" ></circle>
<circle id="encuesta-12-psc" class="encuesta nc_report psc" cx="464.255" cy="223.4343" r="3.1623" ></circle>
<circle id="encuesta-12-cs" class="encuesta nc_report cs" cx="464.255" cy="174.9495" r="3.1623" ></circle>
<circle id="encuesta-12-pp" class="encuesta nc_report pp" cx="464.255" cy="248.4848" r="3.1623" ></circle>
<circle id="encuesta-12-otros" class="encuesta nc_report otros" cx="464.255" cy="312.3232" r="3.1623" ></circle>
</g>
<g id="encuesta-13">
<circle id="encuesta-13-cup" class="encuesta gad3 cup" cx="464.255" cy="282.4242" r="3.5114" ></circle>
<circle id="encuesta-13-erc" class="encuesta gad3 erc" cx="464.255" cy="96.5657" r="3.5114" ></circle>
<circle id="encuesta-13-jxcat" class="encuesta gad3 jxcat" cx="464.255" cy="249.2929" r="3.5114" ></circle>
<circle id="encuesta-13-cec" class="encuesta gad3 cec" cx="464.255" cy="266.2626" r="3.5114" ></circle>
<circle id="encuesta-13-psc" class="encuesta gad3 psc" cx="464.255" cy="215.3535" r="3.5114" ></circle>
<circle id="encuesta-13-cs" class="encuesta gad3 cs" cx="464.255" cy="166.8687" r="3.5114" ></circle>
<circle id="encuesta-13-pp" class="encuesta gad3 pp" cx="464.255" cy="263.0303" r="3.5114" ></circle>
<circle id="encuesta-13-otros" class="encuesta gad3 otros" cx="464.255" cy="318.7879" r="3.5114" ></circle>
</g>
<g id="encuesta-14">
<circle id="encuesta-14-cup" class="encuesta sociometrica cup" cx="450.7149" cy="287.2727" r="3.1623" ></circle>
<circle id="encuesta-14-erc" class="encuesta sociometrica erc" cx="450.7149" cy="81.2121" r="3.1623" ></circle>
<circle id="encuesta-14-jxcat" class="encuesta sociometrica jxcat" cx="450.7149" cy="251.7172" r="3.1623" ></circle>
<circle id="encuesta-14-cec" class="encuesta sociometrica cec" cx="450.7149" cy="252.5253" r="3.1623" ></circle>
<circle id="encuesta-14-psc" class="encuesta sociometrica psc" cx="450.7149" cy="234.7475" r="3.1623" ></circle>
<circle id="encuesta-14-cs" class="encuesta sociometrica cs" cx="450.7149" cy="185.4545" r="3.1623" ></circle>
<circle id="encuesta-14-pp" class="encuesta sociometrica pp" cx="450.7149" cy="260.6061" r="3.1623" ></circle>
<circle id="encuesta-14-otros" class="encuesta sociometrica otros" cx="450.7149" cy="305.0505" r="3.1623" ></circle>
</g>
<g id="encuesta-15">
<circle id="encuesta-15-cup" class="encuesta sigmados cup" cx="428.1481" cy="282.4242" r="3.1623" ></circle>
<circle id="encuesta-15-erc" class="encuesta sigmados erc" cx="428.1481" cy="120" r="3.1623" ></circle>
<circle id="encuesta-15-jxcat" class="encuesta sigmados jxcat" cx="428.1481" cy="254.1414" r="3.1623" ></circle>
<circle id="encuesta-15-cec" class="encuesta sigmados cec" cx="428.1481" cy="244.4444" r="3.1623" ></circle>
<circle id="encuesta-15-psc" class="encuesta sigmados psc" cx="428.1481" cy="211.3131" r="3.1623" ></circle>
<circle id="encuesta-15-cs" class="encuesta sigmados cs" cx="428.1481" cy="174.9495" r="3.1623" ></circle>
<circle id="encuesta-15-pp" class="encuesta sigmados pp" cx="428.1481" cy="263.0303" r="3.1623" ></circle>
<circle id="encuesta-15-otros" class="encuesta sigmados otros" cx="428.1481" cy="308.2828" r="3.1623" ></circle>
</g>
<g id="encuesta-16">
<circle id="encuesta-16-cup" class="encuesta nc_report cup" cx="405.5814" cy="288.0808" r="3.1623" ></circle>
<circle id="encuesta-16-erc" class="encuesta nc_report erc" cx="405.5814" cy="134.5455" r="3.1623" ></circle>
<circle id="encuesta-16-jxcat" class="encuesta nc_report jxcat" cx="405.5814" cy="235.5556" r="3.1623" ></circle>
<circle id="encuesta-16-cec" class="encuesta nc_report cec" cx="405.5814" cy="241.2121" r="3.1623" ></circle>
<circle id="encuesta-16-psc" class="encuesta nc_report psc" cx="405.5814" cy="227.4747" r="3.1623" ></circle>
<circle id="encuesta-16-cs" class="encuesta nc_report cs" cx="405.5814" cy="178.1818" r="3.1623" ></circle>
<circle id="encuesta-16-pp" class="encuesta nc_report pp" cx="405.5814" cy="248.4848" r="3.1623" ></circle>
<circle id="encuesta-16-otros" class="encuesta nc_report otros" cx="405.5814" cy="305.0505" r="3.1623" ></circle>
</g>
<g id="encuesta-17">
<circle id="encuesta-17-cup" class="encuesta gesop cup" cx="396.5547" cy="270.303" r="2.8284" ></circle>
<circle id="encuesta-17-erc" class="encuesta gesop erc" cx="396.5547" cy="106.2626" r="2.8284" ></circle>
<circle id="encuesta-17-jxcat" class="encuesta gesop jxcat" cx="396.5547" cy="236.3636" r="2.8284" ></circle>
<circle id="encuesta-17-cec" class="encuesta gesop cec" cx="396.5547" cy="260.6061" r="2.8284" ></circle>
<circle id="encuesta-17-psc" class="encuesta gesop psc" cx="396.5547" cy="216.1616" r="2.8284" ></circle>
<circle id="encuesta-17-cs" class="encuesta gesop cs" cx="396.5547" cy="197.5758" r="2.8284" ></circle>
<circle id="encuesta-17-pp" class="encuesta gesop pp" cx="396.5547" cy="272.7273" r="2.8284" ></circle>
<circle id="encuesta-17-otros" class="encuesta gesop otros" cx="396.5547" cy="298.5859" r="2.8284" ></circle>
</g>
<g id="encuesta-18">
<circle id="encuesta-18-cup" class="encuesta sociometrica cup" cx="351.4212" cy="282.4242" r="2.8284" ></circle>
<circle id="encuesta-18-erc" class="encuesta sociometrica erc" cx="351.4212" cy="76.3636" r="2.8284" ></circle>
<circle id="encuesta-18-jxcat" class="encuesta sociometrica jxcat" cx="351.4212" cy="267.8788" r="2.8284" ></circle>
<circle id="encuesta-18-cec" class="encuesta sociometrica cec" cx="351.4212" cy="236.3636" r="2.8284" ></circle>
<circle id="encuesta-18-psc" class="encuesta sociometrica psc" cx="351.4212" cy="256.5657" r="2.8284" ></circle>
<circle id="encuesta-18-cs" class="encuesta sociometrica cs" cx="351.4212" cy="185.4545" r="2.8284" ></circle>
<circle id="encuesta-18-pp" class="encuesta sociometrica pp" cx="351.4212" cy="251.7172" r="2.8284" ></circle>
<circle id="encuesta-18-otros" class="encuesta sociometrica otros" cx="351.4212" cy="301.8182" r="2.8284" ></circle>
</g>
<g id="encuesta-19">
<circle id="encuesta-19-cup" class="encuesta nc_report cup" cx="274.6942" cy="288.0808" r="3.5426" ></circle>
<circle id="encuesta-19-erc" class="encuesta nc_report erc" cx="274.6942" cy="130.5051" r="3.5426" ></circle>
<circle id="encuesta-19-jxcat" class="encuesta nc_report jxcat" cx="274.6942" cy="230.7071" r="3.5426" ></circle>
<circle id="encuesta-19-cec" class="encuesta nc_report cec" cx="274.6942" cy="239.596" r="3.5426" ></circle>
<circle id="encuesta-19-psc" class="encuesta nc_report psc" cx="274.6942" cy="222.6263" r="3.5426" ></circle>
<circle id="encuesta-19-cs" class="encuesta nc_report cs" cx="274.6942" cy="194.3434" r="3.5426" ></circle>
<circle id="encuesta-19-pp" class="encuesta nc_report pp" cx="274.6942" cy="246.0606" r="3.5426" ></circle>
<circle id="encuesta-19-otros" class="encuesta nc_report otros" cx="274.6942" cy="306.6667" r="3.5426" ></circle>
</g>
<g id="encuesta-20">
<circle id="encuesta-20-cup" class="encuesta celeste-tel cup" cx="243.1008" cy="285.6566" r="2.8284" ></circle>
<circle id="encuesta-20-erc" class="encuesta celeste-tel erc" cx="243.1008" cy="133.7374" r="2.8284" ></circle>
<circle id="encuesta-20-jxcat" class="encuesta celeste-tel jxcat" cx="243.1008" cy="223.4343" r="2.8284" ></circle>
<circle id="encuesta-20-cec" class="encuesta celeste-tel cec" cx="243.1008" cy="234.7475" r="2.8284" ></circle>
<circle id="encuesta-20-psc" class="encuesta celeste-tel psc" cx="243.1008" cy="213.7374" r="2.8284" ></circle>
<circle id="encuesta-20-cs" class="encuesta celeste-tel cs" cx="243.1008" cy="192.7273" r="2.8284" ></circle>
<circle id="encuesta-20-pp" class="encuesta celeste-tel pp" cx="243.1008" cy="257.3737" r="2.8284" ></circle>
<circle id="encuesta-20-otros" class="encuesta celeste-tel otros" cx="243.1008" cy="317.1717" r="2.8284" ></circle>
</g>
<g id="encuesta-21">
<circle id="encuesta-21-cup" class="encuesta sociometrica cup" cx="179.9139" cy="278.3838" r="2.6458" ></circle>
<circle id="encuesta-21-erc" class="encuesta sociometrica erc" cx="179.9139" cy="107.0707" r="2.6458" ></circle>
<circle id="encuesta-21-jxcat" class="encuesta sociometrica jxcat" cx="179.9139" cy="230.7071" r="2.6458" ></circle>
<circle id="encuesta-21-cec" class="encuesta sociometrica cec" cx="179.9139" cy="249.2929" r="2.6458" ></circle>
<circle id="encuesta-21-psc" class="encuesta sociometrica psc" cx="179.9139" cy="251.7172" r="2.6458" ></circle>
<circle id="encuesta-21-cs" class="encuesta sociometrica cs" cx="179.9139" cy="190.303" r="2.6458" ></circle>
<circle id="encuesta-21-pp" class="encuesta sociometrica pp" cx="179.9139" cy="248.4848" r="2.6458" ></circle>
<circle id="encuesta-21-otros" class="encuesta sociometrica otros" cx="179.9139" cy="302.6263" r="2.6458" ></circle>
</g>
<g id="encuesta-22">
<circle id="encuesta-22-cup" class="encuesta nc_report cup" cx="85.1335" cy="280.8081" r="3.5426" ></circle>
<circle id="encuesta-22-erc" class="encuesta nc_report erc" cx="85.1335" cy="140.202" r="3.5426" ></circle>
<circle id="encuesta-22-jxcat" class="encuesta nc_report jxcat" cx="85.1335" cy="221.0101" r="3.5426" ></circle>
<circle id="encuesta-22-cec" class="encuesta nc_report cec" cx="85.1335" cy="235.5556" r="3.5426" ></circle>
<circle id="encuesta-22-psc" class="encuesta nc_report psc" cx="85.1335" cy="221.0101" r="3.5426" ></circle>
<circle id="encuesta-22-cs" class="encuesta nc_report cs" cx="85.1335" cy="191.9192" r="3.5426" ></circle>
<circle id="encuesta-22-pp" class="encuesta nc_report pp" cx="85.1335" cy="256.5657" r="3.5426" ></circle>
<circle id="encuesta-22-otros" class="encuesta nc_report otros" cx="85.1335" cy="311.5152" r="3.5426" ></circle>
</g>
  
<text class="pie izquierda" x="0" y="390">Datos: Electograph | Modelo propio</text>
<text class="pie derecha" x="800" y="390">Jesús Carro | <tspan style="font-weight:bold">1datomas</tspan>.com</text>
</svg>
